<svg xmlns="http://www.w3.org/2000/svg" width="250" height="250" viewBox="0 0 250 250">
  <g id="Grupo_58384" data-name="Grupo 58384" transform="translate(-196.055 -3841.923)">
    <rect id="Rectángulo_8889" data-name="Rectángulo 8889" width="250" height="250" transform="translate(196.055 3841.923)" fill="none"/>
    <g id="Grupo_58379" data-name="Grupo 58379" transform="translate(201.294 3847.162)">
      <circle id="Elipse_4180" data-name="Elipse 4180" cx="109.504" cy="109.504" r="109.504" transform="translate(0 217.942) rotate(-84.345)" fill="#f2e9e4"/>
      <path id="Trazado_110229" data-name="Trazado 110229" d="M431.1,3966.923h-5.744a104.3,104.3,0,1,1-30.548-73.751,103.953,103.953,0,0,1,30.548,73.751h11.488A115.788,115.788,0,1,0,402.93,4048.8a115.453,115.453,0,0,0,33.913-81.875Z" transform="translate(-201.294 -3847.162)" fill="#fff"/>
    </g>
    <g id="Grupo_58383" data-name="Grupo 58383" transform="translate(222.757 3910.495)">
      <path id="Trazado_110230" data-name="Trazado 110230" d="M343.673,3933.114a2.7,2.7,0,0,0,1.9-.786l3.473-3.477,3.473,3.477a2.692,2.692,0,0,0,3.8,0l3.473-3.477,3.473,3.477a2.692,2.692,0,0,0,3.8,0l3.473-3.477,3.473,3.477a2.7,2.7,0,0,0,1.9.786v37.618H343.673Z" transform="translate(-192.757 -3895.495)" fill="#fff"/>
      <g id="Grupo_58382" data-name="Grupo 58382">
        <g id="Grupo_58380" data-name="Grupo 58380" transform="translate(2.687 2.687)">
          <path id="Trazado_110231" data-name="Trazado 110231" d="M332.925,3957.3h8.061v16.122h-8.061Z" transform="translate(-204.391 -3898.182)" fill="#aed3f2"/>
          <path id="Trazado_110232" data-name="Trazado 110232" d="M378.6,3957.3h8.061v16.122H378.6Z" transform="translate(-195.444 -3898.182)" fill="#aed3f2"/>
          <path id="Trazado_110233" data-name="Trazado 110233" d="M225.444,3986.854H416.665v18.809H225.444Z" transform="translate(-225.444 -3898.182)" fill="#aed3f2"/>
          <path id="Trazado_110234" data-name="Trazado 110234" d="M262.726,3978.793h21.832l-2.687-10.748H265.749Z" transform="translate(-217.42 -3898.182)" fill="#aed3f2"/>
          <path id="Trazado_110235" data-name="Trazado 110235" d="M322.177,3904.9a6.716,6.716,0,0,0-6.714-6.718h-83.3a6.716,6.716,0,0,0-6.717,6.714v52.4h96.733Z" transform="translate(-225.444 -3898.182)" fill="#aed3f2"/>
        </g>
        <g id="Grupo_58381" data-name="Grupo 58381">
          <path id="Trazado_110236" data-name="Trazado 110236" d="M416.181,3954.61h-6.342v-29.557a2.957,2.957,0,0,0-3.166-2.691,3.272,3.272,0,0,0-2.843,1.488l-1.2,2.042-3.231-2.741a3.6,3.6,0,0,0-4.487,0l-4.1,3.477-4.1-3.477a3.6,3.6,0,0,0-4.487,0l-4.1,3.477-4.1-3.477a3.6,3.6,0,0,0-4.487,0l-3.23,2.741-1.2-2.042a3.455,3.455,0,0,0-4.253-1.206,2.678,2.678,0,0,0-1.756,2.409v29.557h-6.342a2.959,2.959,0,0,0-3.171,2.687v26.87H308.372v-5.374a2.959,2.959,0,0,0-3.171-2.687h-7.036l-1.586-5.374h35.573c6.127-.006,11.092-4.213,11.1-9.405V3904.9c-.007-5.192-4.972-9.4-11.1-9.4h-98.3c-6.126.006-11.09,4.213-11.1,9.4v56.427c.007,5.192,4.972,9.4,11.1,9.405h35.451l-1.783,5.374h-6.715a2.959,2.959,0,0,0-3.171,2.687v5.374H225.928a2.959,2.959,0,0,0-3.171,2.687v18.809a2.959,2.959,0,0,0,3.171,2.687H416.181a2.959,2.959,0,0,0,3.171-2.687V3957.3A2.959,2.959,0,0,0,416.181,3954.61Zm-50.734-21.5a3.5,3.5,0,0,0,2.243-.786l4.1-3.477,4.1,3.477a3.594,3.594,0,0,0,4.487,0l4.1-3.477,4.1,3.477a3.594,3.594,0,0,0,4.487,0l4.1-3.477,4.1,3.477a3.5,3.5,0,0,0,2.243.786v37.618h-38.05Zm-9.513,26.87h3.171v10.748h-3.171ZM229.1,3904.9c0-2.225,2.13-4.029,4.756-4.031h98.3c2.626,0,4.755,1.806,4.757,4.031v49.71H229.1Zm4.756,60.458c-2.626,0-4.753-1.8-4.756-4.031v-1.343H336.909v1.343c0,2.226-2.131,4.029-4.757,4.031Zm57.771,10.748H274.109l1.784-5.374h14.146Zm-27.647,5.374h38.05v2.687h-38.05Zm149.032,21.5H229.1v-13.435H413.01Zm0-18.809H355.935v-8.061H413.01Zm0-13.435h-3.171v-10.748h3.171Z" transform="translate(-222.757 -3895.495)" fill="#344154"/>
          <path id="Trazado_110237" data-name="Trazado 110237" d="M349.047,3959.984h21.5a2.687,2.687,0,1,0,0-5.374h-21.5a2.687,2.687,0,1,0,0,5.374Z" transform="translate(-192.757 -3895.495)" fill="#344154"/>
          <path id="Trazado_110238" data-name="Trazado 110238" d="M349.047,3968.045h21.5a2.687,2.687,0,0,0,0-5.374h-21.5a2.687,2.687,0,0,0,0,5.374Z" transform="translate(-192.757 -3895.495)" fill="#344154"/>
          <path id="Trazado_110239" data-name="Trazado 110239" d="M349.047,3951.923h21.5a2.687,2.687,0,0,0,0-5.374h-21.5a2.687,2.687,0,0,0,0,5.374Z" transform="translate(-192.757 -3895.495)" fill="#344154"/>
          <path id="Trazado_110240" data-name="Trazado 110240" d="M349.047,3943.862h21.5a2.687,2.687,0,0,0,0-5.374h-21.5a2.687,2.687,0,0,0,0,5.374Z" transform="translate(-192.757 -3895.495)" fill="#344154"/>
        </g>
      </g>
    </g>
    <path id="Trazado_110241" data-name="Trazado 110241" d="M253.66,3924.54h14.37v30.039h14.107V3924.54h14.369l-21.42-21.415Z" transform="translate(9.755 10.893)" fill="#fff"/>
    <path id="Trazado_110242" data-name="Trazado 110242" d="M253.66,3924.539v1.68h12.691v28.359a1.678,1.678,0,0,0,1.679,1.68h14.107a1.68,1.68,0,0,0,1.679-1.68v-28.359h12.69a1.68,1.68,0,0,0,1.187-2.867l-21.421-21.415a1.678,1.678,0,0,0-2.374,0l-21.425,21.415a1.679,1.679,0,0,0,1.187,2.867v-1.68l1.187,1.188,20.238-20.228,17.366,17.361H282.137a1.678,1.678,0,0,0-1.679,1.679v28.36H269.709v-28.36a1.678,1.678,0,0,0-1.679-1.679H253.66v1.679l1.187,1.188Z" transform="translate(9.654 10.81)" fill="#344154"/>
  </g>
</svg>
