<svg xmlns="http://www.w3.org/2000/svg" width="1034.81" height="389.58" viewBox="0 0 1034.81 389.58">
  <g id="_1.5_cuotas_copia_2" data-name="1.5_cuotas copia 2" transform="translate(-23.1 -79.449)">
    <g id="freepik--background-complete--inject-63">
      <path id="Trazado_109269" data-name="Trazado 109269" d="M569.56,111.27c.1.21-1.9,1.41-4.35,2.9s-4.44,2.71-4.57,2.53,1.66-1.72,4.15-3.22S569.46,111.08,569.56,111.27Z" fill="#fafafa"/>
      <path id="Trazado_109270" data-name="Trazado 109270" d="M579.4,138.51c0,.22-3.23.4-7.22.4s-7.22-.18-7.22-.4,3.23-.41,7.22-.41S579.4,138.28,579.4,138.51Z" fill="#fafafa"/>
      <path id="Trazado_109271" data-name="Trazado 109271" d="M569.77,168.36c-.16.16-2.3-1.72-4.78-4.2s-4.37-4.63-4.21-4.79,2.3,1.73,4.79,4.21S569.91,168.18,569.77,168.36Z" fill="#fafafa"/>
      <path id="Trazado_109272" data-name="Trazado 109272" d="M907.61,340.42s-14.76,11.24-.62,26.1a1.29,1.29,0,0,0,.93.39l129-.73s11-12.35,1.87-26.58Z" fill="#ebebeb"/>
      <path id="Trazado_109273" data-name="Trazado 109273" d="M1008.37,352.18c0,.14-16.06.26-35.86.26s-35.86-.12-35.86-.26,16-.26,35.86-.26S1008.37,352,1008.37,352.18Z" fill="#e0e0e0"/>
      <path id="Trazado_109274" data-name="Trazado 109274" d="M988.31,356.82c0,.14-7.54.26-16.86.26s-16.86-.12-16.86-.26,7.55-.26,16.86-.26S988.31,356.68,988.31,356.82Z" fill="#e0e0e0"/>
      <path id="Trazado_109275" data-name="Trazado 109275" d="M1021.55,365.75c-.08,0,.29-1.48.69-3.87a53.65,53.65,0,0,0-.18-18.8c-.44-2.38-.84-3.83-.76-3.86a3.9,3.9,0,0,1,.38,1c.21.64.47,1.6.74,2.79a45.789,45.789,0,0,1,.18,18.94c-.25,1.19-.49,2.15-.69,2.8a4.6,4.6,0,0,1-.36,1Z" fill="#e0e0e0"/>
      <path id="Trazado_109276" data-name="Trazado 109276" d="M1031.18,339.42a4.716,4.716,0,0,1,.57.94,9.53,9.53,0,0,1,.58,1.15c.2.46.45,1,.65,1.58a26.481,26.481,0,0,1,1.23,4.28,29.853,29.853,0,0,1,.56,5.42,31.078,31.078,0,0,1-.47,5.44,27.862,27.862,0,0,1-1.16,4.3c-.19.6-.44,1.12-.63,1.58a10.468,10.468,0,0,1-.56,1.17,4.1,4.1,0,0,1-.56.94c-.09,0,.63-1.43,1.4-3.81a32.9,32.9,0,0,0,1-4.26,31,31,0,0,0-.09-10.69,30.488,30.488,0,0,0-1.1-4.25C1031.83,340.84,1031.09,339.46,1031.18,339.42Z" fill="#e0e0e0"/>
      <path id="Trazado_109277" data-name="Trazado 109277" d="M927.91,365.92a3.911,3.911,0,0,1-.6-.86,8.193,8.193,0,0,1-.6-1.08,14.17,14.17,0,0,1-.69-1.48,22.545,22.545,0,0,1-1.26-4.07,25.854,25.854,0,0,1-.5-5.19,26.506,26.506,0,0,1,.64-5.18,22.205,22.205,0,0,1,1.37-4,11.172,11.172,0,0,1,.73-1.47,7.04,7.04,0,0,1,.63-1.06,4,4,0,0,1,.62-.84c.09,0-.74,1.3-1.64,3.51a24.07,24.07,0,0,0-1.24,4,24.911,24.911,0,0,0,1,14.17C927.25,364.6,928,365.87,927.91,365.92Z" fill="#e0e0e0"/>
      <path id="Trazado_109278" data-name="Trazado 109278" d="M914,369.07a5.408,5.408,0,0,1-.66-1,12.013,12.013,0,0,1-.68-1.21c-.23-.49-.53-1-.78-1.66a28.564,28.564,0,0,1-1.73-16.22,27.112,27.112,0,0,1,1.27-4.61c.22-.65.49-1.2.71-1.7a11,11,0,0,1,.62-1.24,4.286,4.286,0,0,1,.62-1c.09,0-.74,1.51-1.6,4.06a30.014,30.014,0,0,0-1.15,4.57,32.532,32.532,0,0,0-.42,5.75,33.576,33.576,0,0,0,.68,5.73,31.245,31.245,0,0,0,1.34,4.52C913.23,367.59,914.12,369,914,369.07Z" fill="#e0e0e0"/>
      <path id="Trazado_109279" data-name="Trazado 109279" d="M1032.14,405.43v24.68H984.39V405.43Z" fill="#ebebeb"/>
      <path id="Trazado_109280" data-name="Trazado 109280" d="M877.91,418v.65a14.15,14.15,0,0,0,14.2,13.24h142.2v-1.78h-33.7a12.34,12.34,0,0,1-12.34-12.34h0a12.33,12.33,0,0,1,12.34-12.34h33.75v-2.62l-142.24.48a14.22,14.22,0,0,0-14.22,14.24C877.9,417.68,877.9,417.84,877.91,418Z" fill="#e0e0e0"/>
      <path id="Trazado_109281" data-name="Trazado 109281" d="M1032.14,418.1c0,.14-9.82.26-21.93.26s-21.92-.12-21.92-.26,9.81-.26,21.92-.26S1032.14,418,1032.14,418.1Z" fill="#e0e0e0"/>
      <path id="Trazado_109282" data-name="Trazado 109282" d="M1031.45,423.66c0,.14-9.29.26-20.75.26s-20.7-.12-20.7-.26,9.29-.26,20.75-.26S1031.45,423.52,1031.45,423.66Z" fill="#e0e0e0"/>
      <path id="Trazado_109283" data-name="Trazado 109283" d="M1032.14,428.75c0,.14-8.35.26-18.65.26s-18.66-.12-18.66-.26,8.35-.27,18.66-.27S1032.14,428.6,1032.14,428.75Z" fill="#e0e0e0"/>
      <path id="Trazado_109284" data-name="Trazado 109284" d="M1032.14,413.1c0,.15-9.62.26-21.48.26s-21.48-.11-21.48-.26,9.62-.26,21.48-.26S1032.14,413,1032.14,413.1Z" fill="#e0e0e0"/>
      <path id="Trazado_109285" data-name="Trazado 109285" d="M1031.45,408.11c0,.14-8.56.26-19.12.26s-19.12-.12-19.12-.26,8.56-.26,19.12-.26S1031.45,408,1031.45,408.11Z" fill="#e0e0e0"/>
      <path id="Trazado_109286" data-name="Trazado 109286" d="M895.16,403.71a31.179,31.179,0,0,0-3,3.59,18.22,18.22,0,0,0,.25,21.14,33.347,33.347,0,0,0,3.1,3.52,4.932,4.932,0,0,1-1-.75,16.887,16.887,0,0,1-2.38-2.55,18,18,0,0,1-.25-21.57,15.859,15.859,0,0,1,2.31-2.6,4.058,4.058,0,0,1,.97-.78Z" fill="#f5f5f5"/>
      <path id="Trazado_109287" data-name="Trazado 109287" d="M890.35,403.18a31.177,31.177,0,0,0-3,3.59,18.31,18.31,0,0,0,.25,21.15,33.451,33.451,0,0,0,3.11,3.52,5.723,5.723,0,0,1-1-.76,16.889,16.889,0,0,1-2.38-2.55,18,18,0,0,1-.25-21.57,16.337,16.337,0,0,1,2.31-2.6,4.5,4.5,0,0,1,.96-.78Z" fill="#f5f5f5"/>
      <path id="Trazado_109288" data-name="Trazado 109288" d="M987,403.71a31.182,31.182,0,0,0-3,3.59,18.29,18.29,0,0,0,.25,21.14,33.455,33.455,0,0,0,3.11,3.52,4.672,4.672,0,0,1-1-.75,16.326,16.326,0,0,1-2.37-2.55,18,18,0,0,1-.26-21.57,15.1,15.1,0,0,1,2.32-2.6A4.158,4.158,0,0,1,987,403.71Z" fill="#f5f5f5"/>
      <path id="Trazado_109289" data-name="Trazado 109289" d="M982.17,403.18a31.188,31.188,0,0,0-3,3.59,18.31,18.31,0,0,0,.25,21.15,33.451,33.451,0,0,0,3.11,3.52,5.731,5.731,0,0,1-1-.76,15.9,15.9,0,0,1-2.37-2.55,18,18,0,0,1-.26-21.57,15.923,15.923,0,0,1,2.32-2.6,4.159,4.159,0,0,1,.95-.78Z" fill="#f5f5f5"/>
      <path id="Trazado_109290" data-name="Trazado 109290" d="M911.34,421.47l-.13-10a7.31,7.31,0,0,0-.35-2.59,2.46,2.46,0,0,0-1.91-1.61c-1.26-.55-3.22.49-4.09,1.94a9.42,9.42,0,0,0-1,4.92,69.869,69.869,0,0,0,.39,7.92,9,9,0,0,0,.93,3.63,3.41,3.41,0,0,0,3.06,1.84,3.47,3.47,0,0,0,2.67-2.34,10.139,10.139,0,0,0,.43-3.71Z" fill="#f5f5f5"/>
      <path id="Trazado_109291" data-name="Trazado 109291" d="M966.57,418.58c0,.15-10.28.26-23,.26s-23-.11-23-.26,10.28-.26,23-.26S966.57,418.44,966.57,418.58Z" fill="#f5f5f5"/>
      <path id="Trazado_109292" data-name="Trazado 109292" d="M901.82,402.72l-.27-23.39h12.74l.44,23.39Z" fill="#f5f5f5"/>
      <path id="Trazado_109293" data-name="Trazado 109293" d="M913.53,383.49a68.731,68.731,0,0,1-11.83,0,66.768,66.768,0,0,1,11.83,0Z" fill="#e0e0e0"/>
      <path id="Trazado_109294" data-name="Trazado 109294" d="M913.53,387.1a68.731,68.731,0,0,1-11.83,0,66.77,66.77,0,0,1,11.83,0Z" fill="#e0e0e0"/>
      <path id="Trazado_109295" data-name="Trazado 109295" d="M913.53,390.71a68.728,68.728,0,0,1-11.83,0A66.77,66.77,0,0,1,913.53,390.71Z" fill="#e0e0e0"/>
      <path id="Trazado_109296" data-name="Trazado 109296" d="M913.53,394.32a68.728,68.728,0,0,1-11.83,0,66.767,66.767,0,0,1,11.83,0Z" fill="#e0e0e0"/>
      <path id="Trazado_109297" data-name="Trazado 109297" d="M913.53,397.93a68.728,68.728,0,0,1-11.83,0A66.773,66.773,0,0,1,913.53,397.93Z" fill="#e0e0e0"/>
      <path id="Trazado_109298" data-name="Trazado 109298" d="M900.91,378.71H1042c1.74,7.75,1.5,16.27,0,25.28H901.48v-1.72h8.59a4,4,0,0,0,4-3.95V384.27a4,4,0,0,0-4-4.06H900.9Z" fill="#ebebeb"/>
      <path id="Trazado_109299" data-name="Trazado 109299" d="M934.24,391.37h2.35a.581.581,0,0,1,.26.06.46.46,0,0,1,.25.44V392a2.4,2.4,0,0,1-.16.61,6.9,6.9,0,0,1-1.47,2.66,2.87,2.87,0,0,1-2,1h-.28a2.3,2.3,0,0,1-1.6-1.16,5.21,5.21,0,0,1-.71-2.83,7.1,7.1,0,0,1,.28-2,6.71,6.71,0,0,1,1.4-2.73,2.82,2.82,0,0,1,2.12-1.13,2,2,0,0,1,.89.2,2.89,2.89,0,0,1,1.38,1.72,1,1,0,0,1,0,.24.471.471,0,0,1-.07.25.5.5,0,0,1-.43.25h-.16a.47.47,0,0,1-.32-.32h0a2.665,2.665,0,0,0-.28-.56,1.33,1.33,0,0,0-1.13-.67,1.22,1.22,0,0,0-.78.28,4.08,4.08,0,0,0-1.28,1.85,6.5,6.5,0,0,0-.56,2.65,4.719,4.719,0,0,0,.4,2.09,1.37,1.37,0,0,0,1.23.92,1.68,1.68,0,0,0,1.14-.68,6.452,6.452,0,0,0,1.21-2.19h-1.69c-.37-.06-.56-.25-.56-.57a.25.25,0,0,1,0-.17A.51.51,0,0,1,934.24,391.37Z" fill="#fafafa"/>
      <path id="Trazado_109300" data-name="Trazado 109300" d="M942.25,386.77l.06.17c.1.35.66,3.26,1.67,8.75v.12a.52.52,0,0,1-.49.52h-.08A.47.47,0,0,1,943,396l-.56-2.9h-2.9l-1.4,2.92v.09a.56.56,0,0,1-.44.25.5.5,0,0,1-.27-.08.52.52,0,0,1-.24-.43.38.38,0,0,1,0-.15c.08-.2.23-.52.43-1q3-6.65,3.64-7.84a.52.52,0,0,1,.63-.4.51.51,0,0,1,.37.3Zm-.63,2-1.57,3.29h2.21Z" fill="#fafafa"/>
      <path id="Trazado_109301" data-name="Trazado 109301" d="M950.12,396.33h-4.21a.5.5,0,0,1-.27-.08.76.76,0,0,1-.25-.54h0c0-.17.4-3.08,1.18-8.71a.539.539,0,0,1,0-.18.46.46,0,0,1,.46-.32.53.53,0,0,1,.24.06.47.47,0,0,1,.26.45c0,.39-.13,1.18-.29,2.39-.48,3.71-.74,5.68-.76,5.88h3.62a.62.62,0,0,1,.27,0,.48.48,0,0,1,.32.48v.16a.6.6,0,0,1-.57.41Z" fill="#fafafa"/>
      <path id="Trazado_109302" data-name="Trazado 109302" d="M955.91,386.77l.06.17c.1.35.65,3.26,1.66,8.75a.239.239,0,0,1,0,.12.52.52,0,0,1-.49.52h-.08a.47.47,0,0,1-.39-.35l-.56-2.9h-2.9l-1.3,2.91a.411.411,0,0,1,0,.09.59.59,0,0,1-.43.25.65.65,0,0,1-.28-.08.51.51,0,0,1-.23-.43.379.379,0,0,1,0-.15l.43-1c2-4.43,3.25-7,3.64-7.84a.49.49,0,0,1,.92-.06Zm-.64,2-1.56,3.29h2.2Z" fill="#fafafa"/>
      <path id="Trazado_109303" data-name="Trazado 109303" d="M962.71,391.79l.77,2.13q.66,1.8.66,1.92a.52.52,0,0,1-.51.49h0a.47.47,0,0,1-.42-.34l-.08-.22q-.36-.79-1.14-3l-2.4,3.29a.63.63,0,0,1-.45.27.6.6,0,0,1-.27-.07.47.47,0,0,1-.24-.43v-.1a1,1,0,0,1,.25-.41c.8-1.06,1.7-2.3,2.68-3.73-.11-.28-.2-.55-.3-.8-.9-2.43-1.35-3.68-1.35-3.76a.581.581,0,0,1,.06-.26.42.42,0,0,1,.41-.25.51.51,0,0,1,.48.28l1.42,3.83,2.83-3.87a.56.56,0,0,1,.45-.24.46.46,0,0,1,.48.45V387a.49.49,0,0,1,0,.24Z" fill="#fafafa"/>
      <path id="Trazado_109304" data-name="Trazado 109304" d="M973.24,386.55a.459.459,0,0,1,.23.06.48.48,0,0,1,.27.43c-.69,5.5-1.08,8.47-1.15,8.92a5.48,5.48,0,0,1-.91,2.32,3.3,3.3,0,0,1-4.18,1A3,3,0,0,1,966,398a.569.569,0,0,1-.06-.25.43.43,0,0,1,.07-.25.48.48,0,0,1,.82-.05,2.74,2.74,0,0,0,2.18,1.24,2.19,2.19,0,0,0,1.69-.85,4.83,4.83,0,0,0,.94-2.68,2.862,2.862,0,0,1-.63.67,2.619,2.619,0,0,1-1.53.5h-.28a2.34,2.34,0,0,1-1.62-1.16,5.26,5.26,0,0,1-.7-2.84,12.715,12.715,0,0,1,.07-1.59c.08-.86.27-2.08.57-3.67a.331.331,0,0,1,0-.14.46.46,0,0,1,.57-.34.31.31,0,0,1,.13.06.45.45,0,0,1,.25.4c0,.26-.08.91-.23,1.94a25,25,0,0,0-.34,3,5.908,5.908,0,0,0,.38,2.31,1.35,1.35,0,0,0,1.26,1h.17a2.34,2.34,0,0,0,1.27-1,6.844,6.844,0,0,0,1.06-2.35l.64-4.85a.65.65,0,0,1,.06-.21A.46.46,0,0,1,973.24,386.55Z" fill="#fafafa"/>
      <path id="Trazado_109305" data-name="Trazado 109305" d="M1036.69,404.32c-.14,0-.26-5.81-.26-13s.12-13,.26-13,.26,5.81.26,13S1036.83,404.32,1036.69,404.32Z" fill="#f5f5f5"/>
      <path id="Trazado_109306" data-name="Trazado 109306" d="M921.22,404.32c-.15,0-.26-5.81-.26-13s.11-13,.26-13,.26,5.81.26,13S921.36,404.32,921.22,404.32Z" fill="#e0e0e0"/>
      <path id="Trazado_109307" data-name="Trazado 109307" d="M1039.16,404.32c-.14,0-.26-5.81-.26-13s.12-13,.26-13,.27,5.81.27,13S1039.31,404.32,1039.16,404.32Z" fill="#f5f5f5"/>
      <path id="Trazado_109308" data-name="Trazado 109308" d="M918.91,404.32c-.14,0-.26-5.81-.26-13s.12-13,.26-13,.26,5.81.26,13S919.05,404.32,918.91,404.32Z" fill="#e0e0e0"/>
      <path id="Trazado_109309" data-name="Trazado 109309" d="M1002.47,382.65h0l14.92,12,.13.11h-.17l-2,.52-12.59,3.31h0l-11.42-4.84-3.23-1.38-.85-.37-.22-.1h0l.22.09.86.35,3.25,1.34,11.44,4.78h0l12.59-3.28,2-.52v.15l-14.89-12.08h0" fill="#e0e0e0"/>
      <path id="Trazado_109310" data-name="Trazado 109310" d="M1016.02,392.77l.81.76,1.09-.23-.48,1.01.57.96-1.11-.14-.74.83-.21-1.09-1.03-.45.98-.54Z" fill="#e0e0e0"/>
      <path id="Trazado_109311" data-name="Trazado 109311" d="M1001.71,397.51l.56.46.69-.19-.27.67.4.6-.72-.05-.44.57-.18-.7-.68-.25.61-.39Z" fill="#e0e0e0"/>
      <path id="Trazado_109312" data-name="Trazado 109312" d="M985.91,391.03l.88.05.55-.7.22.86.84.31-.75.47-.04.89-.68-.56-.85.24.32-.83Z" fill="#e0e0e0"/>
      <path id="Trazado_109313" data-name="Trazado 109313" d="M1022.7,382.84l.89.06.55-.7.22.86.83.31-.75.47-.03.89-.68-.57-.86.25.33-.83Z" fill="#e0e0e0"/>
      <path id="Trazado_109314" data-name="Trazado 109314" d="M1001.75,382.26l.57.04.34-.45.15.55.53.2-.48.3-.02.56-.44-.36-.54.16.21-.53Z" fill="#e0e0e0"/>
      <path id="Trazado_109315" data-name="Trazado 109315" d="M1023.91,383.46c0,.06-4.83-.1-10.78-.35s-10.77-.51-10.76-.57,4.82.1,10.77.36S1023.91,383.41,1023.91,383.46Z" fill="#e0e0e0"/>
      <path id="Trazado_109316" data-name="Trazado 109316" d="M1029.37,378.49H886.25c-1.87-4.25-2.33-8.29,0-11.91h143.12a13.88,13.88,0,0,1,0,11.91Z" fill="#e0e0e0"/>
      <rect id="Rectángulo_8737" data-name="Rectángulo 8737" width="77.53" height="4.34" transform="translate(915.89 369.98)" fill="#ebebeb"/>
      <path id="Trazado_109317" data-name="Trazado 109317" d="M891.74,378.56a4.549,4.549,0,0,1-1.13-1.45,10.51,10.51,0,0,1-.75-8.61,4,4,0,0,1,.86-1.62,17.987,17.987,0,0,1-.51,1.73,11.808,11.808,0,0,0-.38,4.23,12.247,12.247,0,0,0,1.11,4.1,13.537,13.537,0,0,1,.8,1.62Z" fill="#e0e0e0"/>
      <path id="Trazado_109318" data-name="Trazado 109318" d="M894.84,378.56a4.549,4.549,0,0,1-1.13-1.45,10.47,10.47,0,0,1-.76-8.61,4.3,4.3,0,0,1,.86-1.62,13.658,13.658,0,0,1-.51,1.73,12.283,12.283,0,0,0-.38,4.23,11.75,11.75,0,0,0,1.12,4.1,13.519,13.519,0,0,1,.8,1.62Z" fill="#e0e0e0"/>
      <path id="Trazado_109319" data-name="Trazado 109319" d="M1023.58,378.28a18,18,0,0,0,.06-11.66,10.311,10.311,0,0,1,1.46,5.84,10.559,10.559,0,0,1-1.52,5.82Z" fill="#f5f5f5"/>
      <path id="Trazado_109320" data-name="Trazado 109320" d="M1020.91,378.25c-.15,0,.45-2.55.43-5.71s-.6-5.66-.44-5.7a17.56,17.56,0,0,1,0,11.41Z" fill="#f5f5f5"/>
      <rect id="Rectángulo_8738" data-name="Rectángulo 8738" width="11.42" height="56.8" transform="translate(949.705 99.206) rotate(-0.573)" fill="#e0e0e0"/>
      <rect id="Rectángulo_8739" data-name="Rectángulo 8739" width="29.56" height="31.36" transform="matrix(1, -0.01, 0.01, 1, 850.776, 101.498)" fill="#ebebeb"/>
      <rect id="Rectángulo_8740" data-name="Rectángulo 8740" width="29.56" height="31.36" transform="matrix(1, -0.005, 0.005, 1, 879.762, 103.659)" fill="#f5f5f5"/>
      <path id="Trazado_109321" data-name="Trazado 109321" d="M850.37,112.51c19.64.16,39.34,0,59-.27a.34.34,0,0,0,.26-.38.32.32,0,0,0-.26-.25q-29.48-.18-59,.36a.27.27,0,0,0-.27.27A.28.28,0,0,0,850.37,112.51Z" fill="#e0e0e0"/>
      <rect id="Rectángulo_8741" data-name="Rectángulo 8741" width="53.71" height="25.56" transform="translate(832.526 130.97) rotate(-0.573)" fill="#ebebeb"/>
      <rect id="Rectángulo_8742" data-name="Rectángulo 8742" width="53.71" height="25.55" transform="matrix(1, -0.005, 0.005, 1, 885.358, 134.489)" fill="#f5f5f5"/>
      <path id="Trazado_109322" data-name="Trazado 109322" d="M831.91,141.92c35.68.4,71.48,0,107.16-.53a.34.34,0,0,0,.26-.38.32.32,0,0,0-.26-.25c-35.68-.19-71.49-.17-107.16.62a.27.27,0,0,0-.27.27.28.28,0,0,0,.27.27Z" fill="#e0e0e0"/>
      <rect id="Rectángulo_8743" data-name="Rectángulo 8743" width="208.08" height="9.16" transform="translate(811.84 160.37)" fill="#e0e0e0"/>
      <rect id="Rectángulo_8744" data-name="Rectángulo 8744" width="8.45" height="31.24" transform="translate(845.91 164.77)" fill="#e0e0e0"/>
      <rect id="Rectángulo_8745" data-name="Rectángulo 8745" width="8.45" height="31.24" transform="translate(972.01 164.77)" fill="#e0e0e0"/>
      <rect id="Rectángulo_8746" data-name="Rectángulo 8746" width="11.42" height="78.12" transform="matrix(1, -0.01, 0.01, 1, 960.713, 79.563)" fill="#ebebeb"/>
      <rect id="Rectángulo_8747" data-name="Rectángulo 8747" width="17.74" height="63.31" transform="matrix(1, -0.005, 0.005, 1, 971.885, 96.96)" fill="#f5f5f5"/>
      <path id="Trazado_109323" data-name="Trazado 109323" d="M989.49,109.1c0,.17-4,.3-8.87.3s-8.87-.13-8.87-.3,4-.31,8.87-.31S989.49,108.93,989.49,109.1Z" fill="#e0e0e0"/>
      <path id="Trazado_109324" data-name="Trazado 109324" d="M989.49,106.44c0,.17-4,.31-8.87.31s-8.87-.14-8.87-.31,4-.31,8.87-.31S989.49,106.27,989.49,106.44Z" fill="#e0e0e0"/>
      <path id="Trazado_109325" data-name="Trazado 109325" d="M989.49,150.68c0,.17-4,.31-8.87.31s-8.87-.14-8.87-.31,4-.3,8.87-.3S989.49,150.51,989.49,150.68Z" fill="#e0e0e0"/>
      <path id="Trazado_109326" data-name="Trazado 109326" d="M989.49,148c0,.17-4,.31-8.87.31s-8.87-.14-8.87-.31A131.28,131.28,0,0,1,989.49,148Z" fill="#e0e0e0"/>
      <path id="Trazado_109327" data-name="Trazado 109327" d="M980.91,142.18c-.17,0-.31-6.39-.31-14.26s.14-14.27.31-14.27.3,6.39.3,14.27S981.08,142.18,980.91,142.18Z" fill="#e0e0e0"/>
      <rect id="Rectángulo_8748" data-name="Rectángulo 8748" width="19.31" height="47.79" transform="translate(989.68 112.45)" fill="#ebebeb"/>
      <path id="Trazado_109328" data-name="Trazado 109328" d="M969.18,95.7a3.28,3.28,0,1,1-3.28-3.28h0a3.27,3.27,0,0,1,3.28,3.28Z" fill="#e0e0e0"/>
      <rect id="Rectángulo_8749" data-name="Rectángulo 8749" width="2.03" height="46.47" transform="translate(964.88 104.72)" fill="#e0e0e0"/>
    </g>
    <g id="freepik--Character--inject-63">
      <path id="Trazado_109329" data-name="Trazado 109329" d="M644.38,442.53h0L570.3,458.97l82.25,5.13,61.7-18.25h-6.13Z" fill="#e0e0e0"/>
      <path id="Trazado_109330" data-name="Trazado 109330" d="M643.45,438.43l-67.54,16.23v3.33l81.02,2.35,50.1-13.31.16-5.28Z" fill="#fafafa"/>
      <path id="Trazado_109331" data-name="Trazado 109331" d="M575.91,457.99v-3.33l80.2,1.66.82,4.02Z" fill="#ebebeb"/>
      <path id="Trazado_109332" data-name="Trazado 109332" d="M656.11,456.32l51.08-14.57-.16,5.28-50.1,13.31Z" fill="#e0e0e0"/>
      <path id="Trazado_109333" data-name="Trazado 109333" d="M643.45,438.43h1.16l3.38.14,12.92.61,46.32,2.32h.22v.22c-.05,1.62-.1,3.44-.16,5.28v.18l-.17.05L657,460.57h-.12l-16.44-.48-64.56-1.91h-.22v-3.7h.18l49-11.67,13.73-3.24,3.63-.83.93-.21.31-.06-.31.1-.93.24-3.61.9L624.91,443,576,454.88l.18-.22V458l-.22-.23,64.58,1.84,16.43.48h0L707,446.8l-.17.21c.06-1.84.12-3.65.17-5.28l.21.23-46.32-2.49-12.9-.73-3.39-.21C643.85,438.48,643.45,438.43,643.45,438.43Z" fill="#344154"/>
      <path id="Trazado_109334" data-name="Trazado 109334" d="M654,453.32a2.618,2.618,0,0,1-.56,0h-1.61l-5.94-.09-19.58-.33c-7.65-.13-14.57-.29-19.58-.47-2.51-.09-4.54-.18-5.94-.26l-1.61-.1a3.43,3.43,0,0,1-.56-.07,1.821,1.821,0,0,1,.57,0h1.61l5.94.09,19.58.32c7.65.13,14.57.3,19.58.48,2.51.09,4.53.17,5.93.25l1.61.11a1.509,1.509,0,0,1,.56.07Z" fill="#344154"/>
      <path id="Trazado_109335" data-name="Trazado 109335" d="M665,451.18a2.62,2.62,0,0,1-.56,0H656.9l-19.58-.32c-7.65-.13-14.58-.3-19.59-.48-2.5-.09-4.53-.17-5.93-.25l-1.61-.1a3.43,3.43,0,0,1-.56-.07,1.75,1.75,0,0,1,.56,0h1.62l5.93.09,19.59.32c7.64.13,14.57.29,19.58.47,2.5.09,4.53.18,5.93.26l1.61.1a2,2,0,0,1,.55-.02Z" fill="#344154"/>
      <path id="Trazado_109336" data-name="Trazado 109336" d="M673,448.87a2.621,2.621,0,0,1-.56,0h-1.62l-5.93-.09-19.58-.32c-7.65-.13-14.58-.29-19.59-.47-2.5-.09-4.53-.18-5.93-.26l-1.61-.1a2.6,2.6,0,0,1-.56-.07,1.751,1.751,0,0,1,.56,0h1.62l5.93.09,19.59.32c7.64.13,14.57.29,19.58.48,2.5.09,4.53.17,5.93.25l1.61.1A2.677,2.677,0,0,1,673,448.87Z" fill="#344154"/>
      <path id="Trazado_109337" data-name="Trazado 109337" d="M681.23,447a2.719,2.719,0,0,1-.57,0h-1.61l-5.94-.09-19.58-.32c-7.65-.13-14.57-.3-19.58-.48-2.51-.09-4.53-.17-5.93-.25l-1.61-.1a3.431,3.431,0,0,1-.56-.07,1.751,1.751,0,0,1,.56,0H628l5.94.08,19.58.33c7.65.13,14.57.29,19.58.47,2.51.09,4.54.18,5.94.26l1.61.1a2.1,2.1,0,0,1,.58.07Z" fill="#344154"/>
      <path id="Trazado_109338" data-name="Trazado 109338" d="M768.85,265.61s39.07-9.55,57.46,4.62c14.67,11.31,25.28,29.88,25.28,29.88l-32,40.75,17.82,90.32H699.37l-22.46-60.41-35.18-40.59s32.37-37,42-41.53S768.85,265.61,768.85,265.61Z" fill="#d9a171"/>
      <path id="Trazado_109339" data-name="Trazado 109339" d="M794.08,365.57l.16.13.45.39,1.71,1.46,6.3,5.42h.06v.08c-.36,3.16-.8,7-1.3,11.29l-.31-.21,9.76-5.81.11-.06.11.05,10.32,4.76-.36.29-2.48-11.08c0-.11-.07.23.06-.24h0l.06-.07.12-.13.25-.27.5-.53,1-1.06,1.95-2.1,3.81-4.1.16.42-11.31-1.08h-.12L815,363l-5.51-9.94h.38l-4.56,10.41v.07h-.08l-8.17,1.51-2.21.4-.58.1h0l.54-.12,2.14-.46,8.26-1.73-.11.09,4.46-10.44.17-.39.21.37c1.7,3,3.56,6.36,5.56,9.91l-.19-.13,11.31,1.06h.52l-.36.38-3.8,4.11-2,2.1-1,1.06-.5.53-.24.27-.13.13-.06.07h0c.13-.46,0-.12.06-.23l2.48,11.09.11.5-.47-.21-10.3-4.8h.22l-9.79,5.76-.37.22.06-.42c.53-4.3,1-8.12,1.41-11.28v.14l-6.26-5.65L794.61,366l-.41-.38Z" fill="#fafafa"/>
      <path id="Trazado_109340" data-name="Trazado 109340" d="M646,325.33s-42,48.31-58.66,62.11-13.56,40.73-4.34,44.3c3.6,1.39,56.41-.59,56.41-.59l37.54-60.38Z" fill="#d9a171"/>
      <g id="Grupo_58257" data-name="Grupo 58257" opacity="0.2">
        <path id="Trazado_109341" data-name="Trazado 109341" d="M795.51,401.46C795,392,809,385.34,815.82,387.05c-1.31-14.28-3-38.7,1-52.48,4.39,20.39,6.55,42,14.2,61.39"/>
      </g>
      <path id="Trazado_109342" data-name="Trazado 109342" d="M817.53,341.59l13.25,55.7s-22.12-13.67-35.16,4.5l10,29.64,89.51.31s6.84-26.81-1.27-48.32c-3.41-9-42.24-83.31-42.24-83.31l-27.93,9.7Z" fill="#d9a171"/>
      <path id="Trazado_109343" data-name="Trazado 109343" d="M805.59,431.43a5.8,5.8,0,0,1-.24-.57l-.6-1.66-2.17-6.2c-1.83-5.36-4.38-12.83-7.31-21.43v-.11l.07-.1a19.271,19.271,0,0,1,3.37-4.15,17.25,17.25,0,0,1,4.76-3,24.811,24.811,0,0,1,8.44-2,35,35,0,0,1,4.1-.06,19.169,19.169,0,0,1,3.92.46c5,1.13,9.27,3.42,11.83,6.35a27.45,27.45,0,0,1,5.78,7,9.312,9.312,0,0,1,1.05,3.18,16.768,16.768,0,0,0-1.23-3.08,28.149,28.149,0,0,0-5.86-6.87c-2.57-2.87-6.75-5.06-11.67-6.15a18.282,18.282,0,0,0-3.83-.43,34.232,34.232,0,0,0-4,.07,24.271,24.271,0,0,0-8.22,1.9,16.72,16.72,0,0,0-4.62,2.94,18.549,18.549,0,0,0-3.33,4v-.21c2.86,8.62,5.35,16.11,7.13,21.49.86,2.64,1.54,4.76,2,6.28l.53,1.68A4,4,0,0,1,805.59,431.43Z" fill="#344154"/>
      <path id="Trazado_109344" data-name="Trazado 109344" d="M847.3,399.32c-.07.07-.81-.78-2.25-1.83a14.87,14.87,0,0,0-6.33-2.66,13.75,13.75,0,0,0-3.79-.08,12.351,12.351,0,0,0-3,.76c-1.66.65-2.55,1.34-2.61,1.25s.19-.21.59-.52a9,9,0,0,1,1.88-1.07,11.449,11.449,0,0,1,3.08-.89,13.4,13.4,0,0,1,10.4,2.92,10.4,10.4,0,0,1,1.56,1.48C847.16,399.07,847.33,399.3,847.3,399.32Z" fill="#344154"/>
      <path id="Trazado_109345" data-name="Trazado 109345" d="M831,396a5.179,5.179,0,0,1-.23-.62c-.14-.46-.33-1-.57-1.78-.48-1.56-1.15-3.81-2-6.61-1.6-5.6-3.7-13.36-5.78-22s-3.75-16.51-4.86-22.23c-.56-2.85-1-5.17-1.27-6.77-.12-.76-.22-1.38-.3-1.85a3.726,3.726,0,0,1-.08-.65,3.252,3.252,0,0,1,.18.63c.1.47.24,1.08.4,1.83.35,1.65.84,3.94,1.43,6.74,1.21,5.69,2.93,13.54,5,22.18s4.11,16.4,5.63,22c.75,2.76,1.36,5,1.8,6.65.19.75.35,1.35.47,1.82a2.478,2.478,0,0,1,.18.66Z" fill="#344154"/>
      <path id="Trazado_109346" data-name="Trazado 109346" d="M819,326.34a18.554,18.554,0,0,1-1.45,4.21,19.4,19.4,0,0,1-1.93,4,19.486,19.486,0,0,1,1.45-4.22A18.6,18.6,0,0,1,819,326.34Z" fill="#344154"/>
      <g id="Grupo_58258" data-name="Grupo 58258" opacity="0.2">
        <path id="Trazado_109347" data-name="Trazado 109347" d="M667.2,341.59c-1.92,17-3.85,37.12-5.78,54.13l15.53-25"/>
      </g>
      <path id="Trazado_109348" data-name="Trazado 109348" d="M666.41,339.93c.14-.05,4.55,12.05,9.85,27s9.5,27.15,9.36,27.2-4.54-12-9.85-27S666.28,340,666.41,339.93Z" fill="#344154"/>
      <path id="Trazado_109349" data-name="Trazado 109349" d="M677.68,308.18v3.05c0,2-.08,4.78-.14,8.31v.08h-.07c-2.66,1.75-5.88,3.85-9.51,6.22v-.37l10.71,3.79h.12v.12l2.94,11-.45-.09,6.93-9,.22-.11h1.45l1.45.08,2.86.16,5.58.3-.22.4-6.4-9.39-.07-.1v-.12c1.48-3.79,2.86-7.34,4.12-10.58l.25.27-10.91,3.15h-.08l-.06-.05-6.4-5.12-1.72-1.44-.45-.38-.16-.14.14.1.44.34L680,310l6.61,5.24h-.14L697.34,312l.4-.12-.15.4c-1.24,3.25-2.61,6.8-4.06,10.61v-.23L700,332l.29.43h-.51l-5.59-.3-2.86-.15-1.45-.08h-1.45l.22-.1-6.94,9-.31.41-.14-.5c-1-3.85-2-7.55-2.9-11l.15.17-10.69-3.85-.4-.14.35-.23,9.57-6.13-.07.13c.14-3.58.26-6.43.34-8.43,0-.93.07-1.66.1-2.19v-.56A1.281,1.281,0,0,1,677.68,308.18Z" fill="#fafafa"/>
      <path id="Trazado_109350" data-name="Trazado 109350" d="M657.4,349.48a1.089,1.089,0,0,1-.13.17l-.4.44-1.5,1.67-5.58,6.15-.06.06h-.08l-11.25-1.59.22-.31,5.55,9.91.06.11-.05.11c-1.58,3.19-3.27,6.62-5,10.19l-.28-.37,11.15-2.19.23.07h0l.07.06.13.13.26.26.52.5,1,1,2,2,4,3.91-.43.15c.48-3.93.94-7.7,1.38-11.27v-.13h.11l10.08-5.25v.37l-10.29-4.83H659v-.08c-.56-3.5-1-6.27-1.3-8.21-.14-.95-.26-1.68-.34-2.22a3.393,3.393,0,0,0-.09-.58h0a5.236,5.236,0,0,0,.11.55c.09.52.23,1.24.4,2.16.36,2,.87,4.76,1.51,8.3l-.08-.12,10.32,4.73.39.18-.38.2L659.53,371l.13-.18c-.43,3.57-.88,7.34-1.34,11.28l-.07.51-.37-.36-4-3.91-2-2-1-1-.52-.51-.27-.26-.13-.12-.06-.07h0l.23.07-11.15,2.19-.51.1.23-.47,5.06-10.17v.12l-5.5-9.94-.2-.37.41.06,11.24,1.71h-.14l5.81-6.11,1.52-1.59.39-.39C657.36,349.52,657.41,349.48,657.4,349.48Z" fill="#fafafa"/>
      <path id="Trazado_109351" data-name="Trazado 109351" d="M720.34,351.67l.17.14.45.38,1.71,1.46,6.3,5.42.06.05v.06c-.37,3.16-.81,7-1.31,11.29l-.31-.21c3-1.75,6.25-3.72,9.76-5.81l.11-.06h.12l10.3,4.79-.36.29-2.43-11c0-.11-.06.23.06-.24h0l.07-.07.12-.13.25-.27.5-.54,1-1.06,2-2.1,3.8-4.1.17.42-11.32-1.16h-.13l-.06-.11c-2-3.56-3.82-6.89-5.5-9.94h.37c-1.75,4-3.27,7.48-4.56,10.41v.07h-.08l-8.21,1.57-2.21.4-.58.1h0l.54-.12,2.15-.46,8.26-1.73-.11.1c1.25-3,2.75-6.45,4.46-10.45l.16-.39.21.37,5.56,9.91-.19-.12,11.36,1h.51l-.35.38-3.8,4.11q-1,1-1.95,2.1l-1,1.06-.49.53-.25.27-.12.13-.06.07h0l.06-.24c.85,3.8,1.67,7.51,2.47,11.09l.12.5-.47-.21-10.3-4.79h.22l-9.8,5.76-.36.22v-.42c.54-4.3,1-8.12,1.41-11.27l.05.13-6.26-5.65-1.68-1.38-.41-.38Z" fill="#fafafa"/>
      <path id="Trazado_109352" data-name="Trazado 109352" d="M759.91,314.18l.16.13.45.39,1.69,1.48,6.3,5.42h.06v.08c-.36,3.16-.8,7-1.3,11.29l-.31-.21,9.76-5.81.11-.06.11.05,10.32,4.76-.36.29L784.42,321c0-.11-.07.23.06-.24h0l.06-.07.12-.14.25-.26.5-.54,1-1.06,2-2.09,3.81-4.1.16.42-11.31-1.08h-.16l-.06-.11c-2-3.56-3.82-6.9-5.51-9.94h.37l-4.55,10.41v.07h-.08l-8.17,1.44-2.21.4-.58.1h0l.54-.12,2.14-.46,8.26-1.73-.11.09,4.46-10.44.17-.39.21.37,5.55,9.91-.18-.13,11.31,1.06H793l-.36.38-3.8,4.11-1.95,2.1-1,1.06-.5.53-.24.27-.13.13-.06.07h0c.13-.46,0-.12.06-.23l2.48,11.09.11.5-.47-.21-10.3-4.8h.12l-9.75,5.85-.37.21.06-.41c.53-4.3,1-8.12,1.4-11.28l.06.14-6.26-5.66-1.63-1.48-.41-.38Z" fill="#fafafa"/>
      <path id="Trazado_109353" data-name="Trazado 109353" d="M759.91,406.33l.16.13.45.38,1.71,1.46,6.3,5.42h.06v.09c-.36,3.16-.8,7-1.3,11.28l-.31-.2,9.73-5.71.11-.07.11.06,10.32,4.76-.34.25-2.5-11.1c0-.1-.07.23.06-.23h0l.06-.07.12-.13.25-.27.5-.53,1-1.06,2-2.1,3.81-4.1.16.43-11.31-1.09h-.15l-.06-.11-5.51-9.93h.37l-4.53,10.29v.08h-.08l-8.19,1.53-2.21.4-.58.11h0l.54-.11,2.14-.46L771,404l-.11.09c1.26-2.94,2.75-6.45,4.46-10.45l.17-.39.21.37,5.55,9.91-.18-.12,11.31,1,.52.05-.36.38-3.8,4.1c-.65.7-1.29,1.4-1.95,2.1l-1,1.06-.5.54-.24.26-.13.14-.06.09h0c.13-.47,0-.13.06-.23l2.5,11.1.11.51-.47-.22-10.3-4.79h.12l-9.79,5.76-.37.21.06-.42c.53-4.3,1-8.11,1.4-11.27l.06.13L762,408.29l-1.63-1.48-.41-.37Z" fill="#fafafa"/>
      <path id="Trazado_109354" data-name="Trazado 109354" d="M691.67,402l.17.13.45.38L694,404l6.3,5.42.06.06v.08c-.37,3.16-.81,7-1.31,11.28l-.31-.2,9.76-5.81.11-.06.11.05L719,419.56l-.36.29-2.48-11.09c0-.1-.06.24.06-.23h0l.06-.06.13-.14.25-.26.49-.54,1-1.06c.66-.7,1.32-1.4,1.95-2.1,1.29-1.39,2.57-2.75,3.81-4.1l.17.43-11.31-1.08h-.13l-.06-.1-5.5-9.94h.37c-1.75,4-3.28,7.47-4.56,10.4v.08h-.08l-8.18,1.5-2.21.4-.58.11h0l.54-.12,2.15-.46,8.26-1.73-.12.09c1.26-2.94,2.76-6.44,4.47-10.45l.16-.38.21.37,5.56,9.9-.19-.12,11.31,1.05h.52l-.35.38-3.81,4.11-1.94,2.1-1,1.06-.49.53-.25.27-.12.13-.07.07h0c.13-.46,0-.13.07-.23.84,3.8,1.67,7.51,2.47,11.09l.11.5-.47-.22-10.3-4.79h.23L698.91,421l-.36.21.05-.42c.54-4.29,1-8.11,1.41-11.27v.14L693.8,404l-1.63-1.48-.4-.38Z" fill="#fafafa"/>
      <path id="Trazado_109355" data-name="Trazado 109355" d="M836.91,280.18a2.173,2.173,0,0,1,0,.51l-.2,1.49v-.06l8,8.06.26.26-.37.05-11.27,1.38.17-.12c-1.61,3.08-3.4,6.48-5.27,10.07l-.24.45-.21-.47c-1.51-3.26-3.12-6.73-4.77-10.31l.19.15-.53-.09L812,289.7l-.51-.08.38-.35,8.36-7.7-.08.2c-.58-4.15-1.11-7.94-1.58-11.25l-.05-.37.33.18,9.86,5.64h-.09l2-1.14a4.518,4.518,0,0,1,.69-.36,4.938,4.938,0,0,1-.65.44l-2,1.21h0l-10-5.46.27-.19c.49,3.3,1,7.08,1.67,11.24v.12l-.09.08-8.33,7.73-.13-.44,10.67,1.8.54.1h.14v.12c1.65,3.58,3.25,7.05,4.75,10.32h-.45l5.32-10,.05-.11h.12l11.32-1.28-.11.3-7.85-8.21h0c.12-.62.21-1.11.27-1.48a3.106,3.106,0,0,1,.09-.58Z" fill="#fafafa"/>
      <path id="Trazado_109356" data-name="Trazado 109356" d="M835,326a.74.74,0,0,1,0,.21,4.52,4.52,0,0,0,.1.59c.08.53.2,1.27.35,2.22.31,1.94.74,4.71,1.29,8.2v.08l-.06.06-8.3,7.75-.11-.35,11.2,1.89h.12l.06.12,4.77,10.31h-.46L849.23,347l.2-.14h.72l.73-.09,1.43-.17,2.85-.33,5.55-.66-.15.43-7.91-8.15-.09-.09v-.12c.8-4,1.55-7.73,2.24-11.14l.3.23-10.22,5h-.14l-7.21-4.15-1.94-1.13-.51-.29-.18-.12.16.08.49.26,1.93,1,7.41,4h-.14l10.16-5.06.38-.19-.08.41c-.67,3.42-1.4,7.16-2.19,11.15l-.06-.21c2.52,2.57,5.17,5.3,7.94,8.13l.36.37-.52.06-5.55.66-2.85.34-1.43.17-.72.09h-.73l.2-.13c-1.81,3.44-3.58,6.8-5.3,10l-.24.46-.21-.47-4.75-10.32.18.13-11.11-1.84-.42-.08.31-.28,8.38-7.68v.14c-.47-3.56-.84-6.38-1.1-8.36-.12-.93-.22-1.65-.29-2.18a1.518,1.518,0,0,0-.06-.55A.263.263,0,0,1,835,326Z" fill="#fafafa"/>
      <path id="Trazado_109357" data-name="Trazado 109357" d="M864,381.68l-.11.18-.31.51-1.18,1.91-4.4,7v.07h-.08l-11.36.43.16-.34,7.23,8.76.07.1v.12c-1,3.42-2,7.1-3.14,10.92l-.33-.31,10.57-4.14h.25l.07.06.16.1.3.2.6.41,1.2.81,2.37,1.61,4.63,3.14-.4.23c-.23-4-.44-7.75-.65-11.35V402l.1-.08,9-6.95.07.36-11-2.92h-.08v-.08c-1.17-3.34-2.09-6-2.74-7.85-.31-.9-.55-1.61-.73-2.12l-.19-.56-.06-.2.07.16a1.894,1.894,0,0,0,.2.51l.77,2.06c.71,1.86,1.71,4.53,3,7.9h-.11l11,2.82.41.11-.34.26-8.94,7,.09-.2c.21,3.59.44,7.38.68,11.34V414l-.43-.29-4.63-3.13L863.37,409l-1.19-.81-.61-.41-.3-.2-.15-.1-.07-.05h.24l-10.58,4.14-.48.18.14-.49,3.17-10.91.05.21c-2.59-3.16-5-6.14-7.18-8.8l-.27-.33h.42l11.36-.32-.13.07c2-3,3.54-5.38,4.63-7.05l1.22-1.83.31-.46C863.91,381.72,864,381.67,864,381.68Z" fill="#fafafa"/>
      <path id="Trazado_109358" data-name="Trazado 109358" d="M589.85,391.84v.21a1.8,1.8,0,0,1-.08.59l-.33,2.22c-.3,1.95-.72,4.72-1.25,8.22v.1h-.08l-10.26,4.88v-.37l10.1,5.19.12.06v.13c.45,3.52.94,7.32,1.44,11.26l-.43-.15,8.07-8,.24-.07h.35l.36.07.71.14,1.43.27,2.81.54,5.49,1-.27.37-5.08-10.16-.06-.12.06-.11c2-3.56,3.82-6.89,5.5-9.94l.22.31-11.24,1.66h-.08l-.06-.06-5.62-6-1.51-1.66L590,392l-.14-.16.13.12.38.4,1.53,1.57,5.85,6.09h-.14l11.2-1.84.42-.07-.2.38-5.45,10v-.22l5.12,10.15.23.46-.51-.1-5.5-1-2.81-.54L598.7,417l-.72-.14-.35-.06h-.36l.23-.07-8.08,8-.37.36-.07-.51-1.4-11.37.13.19-10.08-5.25-.38-.19.39-.18,10.3-4.79-.09.12c.63-3.54,1.12-6.34,1.47-8.31q.25-1.38.39-2.16l.1-.55a.54.54,0,0,1,.04-.25Z" fill="#fafafa"/>
      <path id="Trazado_109359" data-name="Trazado 109359" d="M785.61,241a18.35,18.35,0,0,0,9.11-20.69c-1-3.54-3.09-6.75-3.71-10.38-1-5.64,1.72-11.15,3.47-16.6s2.24-12.23-2-16.08c-2.75-2.49-6.76-3-9.86-5s-5-5.21-7-8.21-4.51-6-8-7.11-8,.71-8.55,4.3" fill="#344154"/>
      <path id="Trazado_109360" data-name="Trazado 109360" d="M732.73,157.65c4.74-4.68,4.33-13.07.1-18.22s-11.32-7.3-18-7a30.62,30.62,0,0,0-24,14.13c-2.76,4.42-4.61,9.81-9.06,12.52-3.91,2.38-8.88,2.06-13.2,3.6-5.79,2-10,7.39-11.92,13.22s-1.9,12.13-1.32,18.24c.53,5.61,1.4,11.71-1.53,16.52s-8.54,6.78-12.54,10.55c-7.54,7.08-7.57,20.6,0,27.71,2.39,2.26,5.53,4.14,6.44,7.31.83,2.89-.51,5.92-.79,8.91-.73,7.72,7,15,14.69,13.83,3.87-.6,7.64-3,11.43-2s5.91,4.79,8.76,7.44a16.75,16.75,0,0,0,21,.85c2.52-2,4.68-4.83,7.84-5.3s6.19,1.67,9.39,1.61c4.18-.09,7.35-3.87,9-7.7s2.49-8.11,5-11.48c3.23-4.42,8.66-6.51,13.35-9.34a42.33,42.33,0,0,0,10.87-63" fill="#344154"/>
      <path id="Trazado_109361" data-name="Trazado 109361" d="M746.37,162.27a9,9,0,0,1,9.77,7.24h0l20.35,119.88c2.81,14.07-16,26.37-31.08,29.26h0c-15.24,2.91-17.33-4.42-20.4-17.72-5.12-22.22-6.9-30.6-6.88-30.47s-19.85.91-29.16-23.26c-4.62-12-8.35-32.54-10.85-49.43-2.26-15.21,3.76-35.74,19-37.35Z" fill="#b78876"/>
      <path id="Trazado_109362" data-name="Trazado 109362" d="M687.11,212.76a3.29,3.29,0,0,0,3.78,2.58,3.14,3.14,0,0,0,2.7-3.51s0-.06,0-.09a3.27,3.27,0,0,0-3.78-2.58,3.13,3.13,0,0,0-2.7,3.52.219.219,0,0,0,0,.08Z" fill="#344154"/>
      <path id="Trazado_109363" data-name="Trazado 109363" d="M684.8,209.53c.49.34,2.54-2,6-2.71s6.35.46,6.64,0c.14-.23-.43-.89-1.7-1.46a8.92,8.92,0,0,0-5.42-.48,8.57,8.57,0,0,0-4.66,2.67C684.77,208.56,684.57,209.39,684.8,209.53Z" fill="#344154"/>
      <path id="Trazado_109364" data-name="Trazado 109364" d="M721.5,205.35a3.29,3.29,0,0,0,3.78,2.58,3.14,3.14,0,0,0,2.7-3.53v-.07a3.27,3.27,0,0,0-3.78-2.58,3.13,3.13,0,0,0-2.71,3.5A.513.513,0,0,0,721.5,205.35Z" fill="#344154"/>
      <path id="Trazado_109365" data-name="Trazado 109365" d="M718.91,201.81c.49.34,2.54-2,6-2.71s6.35.46,6.63,0c.15-.22-.42-.89-1.69-1.46a9,9,0,0,0-5.43-.48,8.52,8.52,0,0,0-4.65,2.68C718.83,200.84,718.63,201.67,718.91,201.81Z" fill="#344154"/>
      <path id="Trazado_109366" data-name="Trazado 109366" d="M711.8,229.11c0-.2-2.25-.11-5.82.18-.9.1-1.77.1-2.05-.47a4.57,4.57,0,0,1,0-2.74c.38-2.3.77-4.73,1.18-7.26,1.58-10.33,2.52-18.75,2.11-18.81s-2,8.27-3.62,18.59c-.37,2.55-.72,5-1.06,7.29-.12,1.07-.45,2.33.28,3.55a2.28,2.28,0,0,0,1.73,1,6.15,6.15,0,0,0,1.54-.11C709.66,229.76,711.83,229.31,711.8,229.11Z" fill="#344154"/>
      <path id="Trazado_109367" data-name="Trazado 109367" d="M718.13,270.46a65.07,65.07,0,0,0,31.59-16.08S745,273.84,719.5,276.84Z" fill="#aa6550"/>
      <path id="Trazado_109368" data-name="Trazado 109368" d="M715,237.12a6.3,6.3,0,0,1,5.08-3.5,5.8,5.8,0,0,1,4.37,1.26,3.7,3.7,0,0,1,1.15,4.06c-.65,1.51-2.53,2.23-4.28,2.11a13.661,13.661,0,0,1-5-1.69,4.14,4.14,0,0,1-1.21-.81,1.19,1.19,0,0,1-.27-1.29" fill="#aa6550"/>
      <path id="Trazado_109369" data-name="Trazado 109369" d="M722.47,229.33c-.57.09.22,3.83-2.42,7.18s-6.71,3.78-6.63,4.31c0,.25,1,.54,2.74.22a9.53,9.53,0,0,0,5.58-3.38,8.34,8.34,0,0,0,1.79-6C723.34,230.09,722.72,229.25,722.47,229.33Z" fill="#344154"/>
      <path id="Trazado_109370" data-name="Trazado 109370" d="M716,195.18c.54.86,3.89-.32,8-.69s7.67,0,8-.93c.15-.45-.61-1.21-2.12-1.84A14,14,0,0,0,717.67,193C716.38,193.82,715.79,194.71,716,195.18Z" fill="#344154"/>
      <path id="Trazado_109371" data-name="Trazado 109371" d="M683.91,203.31c.78.66,3-.66,5.83-1.31s5.39-.6,5.78-1.54c.16-.45-.39-1.16-1.61-1.67a8.65,8.65,0,0,0-9.35,2.3C683.75,202.11,683.59,203,683.91,203.31Z" fill="#344154"/>
      <path id="Trazado_109372" data-name="Trazado 109372" d="M728.2,157.67c4.9-5.08,11.94-8.46,19-8s13.9,5.3,15.59,12c1.1,4.39.21,9.49,3,13s7.61,3.94,11.46,6a15.28,15.28,0,0,1,7.34,17.3c-1.65,5.6-6.6,10.51-5.86,16.27.7,5.42,6.15,8.94,8.37,13.94,2.45,5.52.54,12.18-3.21,17s-9.09,8.18-14.31,11.43c-4.07,2.54-8.45,5.18-13.25,5.12-5.72-.06-10.89-4.24-12.81-9.5s-.88-11.32,2-16.22c2.45-4.22,6.31-8.2,6.07-13-.36-7.53-10.31-11.64-11.36-19.1-.55-3.85,1.45-7.56,3-11.15s2.65-7.93.52-11.19c-2.77-4.24-9.11-4.14-13.51-6.74a11.49,11.49,0,0,1-5.52-10.7,11.85,11.85,0,0,1,7.4-9.69" fill="#344154"/>
      <path id="Trazado_109373" data-name="Trazado 109373" d="M729.68,151.46a17.51,17.51,0,0,1-13.37,20.84,17.743,17.743,0,0,1-3.17.4c-4,.12-8.57-.91-11.44,1.84s-2,8.16-4.54,11.5c-3.58,4.78-11.36,2.7-16.6,5.57-4,2.21-5.85,6.92-8,11s-5.71,8.33-10.31,8a52.177,52.177,0,0,1-.77-11.9,17.41,17.41,0,0,1,4.52-10.8c1.54-1.55,3.47-2.71,4.84-4.41,3-3.67,2.7-8.89,4-13.41a19.13,19.13,0,0,1,12.23-12.55c4.81-1.56,10.2-1.18,14.73-3.42,3.35-1.66,5.95-4.62,9.39-6.08,6.71-2.84,14.29.78,20.44,4.68" fill="#344154"/>
      <path id="Trazado_109374" data-name="Trazado 109374" d="M728.5,232.64c-.1.1-.4,0-.67-.3s-.4-.56-.3-.67.4,0,.67.3S728.6,232.54,728.5,232.64Z" fill="#344154"/>
      <path id="Trazado_109375" data-name="Trazado 109375" d="M644.36,260.25h.41l1.22.08a32.821,32.821,0,0,0,4.65-.19,29.239,29.239,0,0,0,7.12-1.83,28.228,28.228,0,0,0,8.27-5.06,27.559,27.559,0,0,0,6.88-9.47,28.581,28.581,0,0,0,2.37-13.18c-.31-4.78-2.09-9.54-3.73-14.49a46.442,46.442,0,0,1-2-7.75,23.389,23.389,0,0,1,.22-8.26,13.83,13.83,0,0,1,3.91-7.25,12.081,12.081,0,0,1,3.42-2.23,22.169,22.169,0,0,1,3.8-1.23c2.55-.62,5.1-1,7.45-1.79a15.369,15.369,0,0,0,3.29-1.59,11.119,11.119,0,0,0,2.55-2.48,20,20,0,0,0,2.84-6.28c.65-2.17,1.17-4.33,1.87-6.36a20.05,20.05,0,0,1,6.81-9.66,19.41,19.41,0,0,1,9-3.87,20,20,0,0,1,7.4.28,18.318,18.318,0,0,1,4.41,1.59,9.9,9.9,0,0,1,1.41.81s-.49-.27-1.46-.72a20.111,20.111,0,0,0-11.71-1.67,19,19,0,0,0-8.8,3.88,19.58,19.58,0,0,0-6.64,9.5c-.68,2-1.18,4.16-1.83,6.35a20.779,20.779,0,0,1-2.9,6.44,11.63,11.63,0,0,1-2.65,2.59,15.381,15.381,0,0,1-3.41,1.66c-2.41.82-5,1.2-7.49,1.82a22,22,0,0,0-3.71,1.2,11.679,11.679,0,0,0-3.28,2.14,13.32,13.32,0,0,0-3.75,7,22.742,22.742,0,0,0-.22,8.06,48.6,48.6,0,0,0,2,7.67c1.63,4.94,3.43,9.75,3.73,14.62A28.829,28.829,0,0,1,673.35,244a27.75,27.75,0,0,1-27.3,16.48l-1.21-.13A2.649,2.649,0,0,1,644.36,260.25Z" fill="#455a64"/>
      <path id="Trazado_109376" data-name="Trazado 109376" d="M693.13,142.28a1.56,1.56,0,0,1,.35-.33,9.83,9.83,0,0,1,1.07-.86,20,20,0,0,1,4.43-2.46,22.59,22.59,0,0,1,28.74,10.43,20.369,20.369,0,0,1,1.81,4.73,11.783,11.783,0,0,1,.28,1.34,1.512,1.512,0,0,1,.05.48,30.113,30.113,0,0,0-2.47-6.38,23.09,23.09,0,0,0-4.53-5.82,21.67,21.67,0,0,0-16.54-6,23.15,23.15,0,0,0-7.21,1.56,29.568,29.568,0,0,0-5.98,3.31Z" fill="#455a64"/>
      <path id="Trazado_109377" data-name="Trazado 109377" d="M765.21,258.07l.3-.16.91-.43a30.156,30.156,0,0,0,3.3-1.92,27.47,27.47,0,0,0,9.19-10.45,30.584,30.584,0,0,0,1.69-4.31,27.693,27.693,0,0,0,.9-4.94,27,27,0,0,0-1.37-10.93,26.09,26.09,0,0,0-6.44-10.28c-1.51-1.5-3.19-2.9-4.8-4.43a22.1,22.1,0,0,1-4.27-5.27c-2.25-4.08-2.69-8.69-2.93-12.94-.12-2.15-.16-4.25-.3-6.3a41.005,41.005,0,0,0-.83-6,22.462,22.462,0,0,0-1.91-5.35,13.62,13.62,0,0,0-3.3-4.16c-2.65-2.25-5.92-3.07-8.77-3.78a43.11,43.11,0,0,1-7.74-2.23,15,15,0,0,1-5-3.46,8.42,8.42,0,0,1-1.89-3.34,5.059,5.059,0,0,1-.2-1,1.928,1.928,0,0,1,0-.34,8,8,0,0,0,.33,1.29,8.659,8.659,0,0,0,1.94,3.24,14.93,14.93,0,0,0,5,3.32,43.859,43.859,0,0,0,7.71,2.14c2.87.69,6.2,1.5,9,3.81a14,14,0,0,1,3.28,4.28,23.281,23.281,0,0,1,2,5.45,41.667,41.667,0,0,1,.85,6c.15,2.07.2,4.17.32,6.31.24,4.24.69,8.76,2.87,12.72s6,6.55,9,9.59a26.46,26.46,0,0,1,6.53,10.49,27.769,27.769,0,0,1,1.33,11.16,28.566,28.566,0,0,1-1,5,29.991,29.991,0,0,1-1.75,4.37,27.23,27.23,0,0,1-9.36,10.45,25.646,25.646,0,0,1-3.37,1.85l-.92.38Z" fill="#455a64"/>
      <path id="Trazado_109378" data-name="Trazado 109378" d="M792.34,196.31a.4.4,0,0,0-.19.09,2.059,2.059,0,0,1-.58.19,8,8,0,0,1-2.34.22,11.08,11.08,0,0,1-7.48-4,18.878,18.878,0,0,1-3-5.15,57.665,57.665,0,0,1-2.06-6.5,44.88,44.88,0,0,0-2.42-7.06,15.74,15.74,0,0,0-4.92-6.13,21.87,21.87,0,0,0-7.17-3.39,47,47,0,0,0-7.34-1.4q-6.36-.5-12.63-1.62a24.91,24.91,0,0,1-8-3,14.171,14.171,0,0,1-2.49-1.93,29.736,29.736,0,0,0,2.6,1.75,25.62,25.62,0,0,0,8,2.86c3.53.75,7.83,1,12.61,1.5a46.857,46.857,0,0,1,7.42,1.39,22.38,22.38,0,0,1,7.34,3.46,16.32,16.32,0,0,1,5.07,6.33,43.607,43.607,0,0,1,2.42,7.15,58.987,58.987,0,0,0,2,6.47,18.75,18.75,0,0,0,2.89,5.07,11,11,0,0,0,7.22,4,9.24,9.24,0,0,0,3.05-.3Z" fill="#455a64"/>
      <path id="Trazado_109379" data-name="Trazado 109379" d="M795.51,401.46l-22.68,8.38s-8.6-3.39-10.35-3.62c-2.26-.3-19.21,5.37-31.43,9.6-8,2.77-14.22,7.86-16.8,15.92h0l91.34-.31Z" fill="#b78876"/>
      <path id="Trazado_109380" data-name="Trazado 109380" d="M598.45,371.07l7.26-5.06,38.38,66.88,2.56,11.28-11.14-5.59Z" fill="#455a64"/>
      <path id="Trazado_109381" data-name="Trazado 109381" d="M643.06,442.37l2.71-2.1.88,3.9Z" fill="#344154"/>
      <path id="Trazado_109382" data-name="Trazado 109382" d="M644.09,432.89c0,.07-.4-.09-1-.1a1.12,1.12,0,0,0-.92.39,2.07,2.07,0,0,0-.37,1.28v.32l-.31-.08a2.23,2.23,0,0,0-1.93.24,2.88,2.88,0,0,0-1,1.63v.21h-.2a2.87,2.87,0,0,0-1.42.19,1.88,1.88,0,0,0-.86.69c-.36.53-.41,1-.47.94s-.12-.44.22-1.1a2.15,2.15,0,0,1,.93-.91,3.16,3.16,0,0,1,1.63-.29l-.26.2a3.15,3.15,0,0,1,1.2-2,2.67,2.67,0,0,1,2.36-.28l-.3.23a2.33,2.33,0,0,1,.55-1.56,1.41,1.41,0,0,1,1.23-.42A1.67,1.67,0,0,1,644.09,432.89Z" fill="#344154"/>
      <path id="Trazado_109383" data-name="Trazado 109383" d="M598.45,371.07a4.31,4.31,0,0,1,1.46-5.27c3.46-2.49,5.8.21,5.8.21Z" fill="#344154"/>
      <path id="Trazado_109384" data-name="Trazado 109384" d="M600,367.91l38.29,68.61s.11-3.06,3.26-2L601.91,366Z" fill="#344154"/>
      <path id="Trazado_109385" data-name="Trazado 109385" d="M634.09,398.56a14.7,14.7,0,0,0-5.39-1.73,5,5,0,0,0-4.8,2.41,4.82,4.82,0,0,0,0,3.71,12,12,0,0,0,1.95,3.26,14.4,14.4,0,0,0,3.94,3.84,5.16,5.16,0,0,0,8.09-5.22,10,10,0,0,0-3.74-6.27" fill="#b78876"/>
      <path id="Trazado_109386" data-name="Trazado 109386" d="M608.24,389.4s-6-1.66-8.1,3.74c0,0-8.72,5-8.72,12.87a17.769,17.769,0,0,0-3.51,10.17v3a11,11,0,0,0,4.6,8.93,27.82,27.82,0,0,0,7.4,4.07,17.641,17.641,0,0,0,5.12.54,2.46,2.46,0,0,0,2.37-2.53A2.39,2.39,0,0,0,607,429l-.82-1.06s4.74,3.27,8.26,3c0,0,4.82-.16,6.2-3.11.51-1.1,9.55,2.49,10.58-2.29,0,0,5.19.42,6.23-2.07s-.21-6.23-2.28-8.52S608.24,389.4,608.24,389.4Z" fill="#b78876"/>
      <path id="Trazado_109387" data-name="Trazado 109387" d="M605.8,401.74a7.234,7.234,0,0,1,1,.92c.69.69,1.58,1.57,2.63,2.63,2.23,2.21,5.34,5.23,8.87,8.46s6.84,6.05,9.24,8.06l2.85,2.39a6.194,6.194,0,0,1,1,.92,6.851,6.851,0,0,1-1.14-.76c-.71-.52-1.72-1.29-3-2.26-2.47-2-5.81-4.73-9.36-8s-6.62-6.3-8.78-8.59c-1.08-1.14-1.94-2.08-2.52-2.74a7,7,0,0,1-.79-1.03Z" fill="#aa6550"/>
      <path id="Trazado_109388" data-name="Trazado 109388" d="M620.67,427.59c-.08.11-4.5-3.13-9.86-7.23s-9.65-7.53-9.56-7.64,4.51,3.12,9.87,7.23S620.76,427.47,620.67,427.59Z" fill="#aa6550"/>
      <path id="Trazado_109389" data-name="Trazado 109389" d="M607.58,428.73a12.1,12.1,0,0,1-1.92-1.24c-1.16-.81-2.74-1.95-4.43-3.28a46.512,46.512,0,0,1-4.16-3.64,8.57,8.57,0,0,1-1.51-1.73,12.288,12.288,0,0,1,1.76,1.46c1,.93,2.54,2.18,4.23,3.5a61.746,61.746,0,0,1,6.03,4.93Z" fill="#aa6550"/>
      <path id="Trazado_109390" data-name="Trazado 109390" d="M714.48,286.94c5.13,9,16.23,13.63,26.6,12.93A45.43,45.43,0,0,0,769,287.11c4.46-4.29,5.89-13.9,9.83-13,3.67.82,6.51,13,6.9,16.77.59,5.66-1.55,11.36-4.94,15.93s-8,8.13-12.69,11.28c-8.95,6-19.06,10.73-29.8,11.23s-22.14-4-27.8-13.09-3.71-22.89,5.49-28.44" fill="#d9a171"/>
      <path id="Trazado_109391" data-name="Trazado 109391" d="M741.71,321.18a3.571,3.571,0,0,1,.64-.46l1.9-1.23,7-4.42v.35l-10.63-4h-.12v-.12c-.82-3.42-1.73-7.15-2.67-11l.45.1h0l-.06.07-.12.15-.23.29-.47.57-.93,1.15-1.82,2.24-3.48,4.28-.08.1h-.18l-11.32-.94.18-.29,4.45,7,1.19,1.92a4.323,4.323,0,0,1,.39.7,4.772,4.772,0,0,1-.48-.63c-.32-.48-.75-1.1-1.28-1.87l-4.55-7-.22-.33h.39l11.33.83-.21.09,3.46-4.29,1.82-2.25.92-1.14.47-.58.24-.29.11-.15.06-.07h0c-.1,0,.86.2.46.1.93,3.9,1.82,7.63,2.64,11l-.15-.17,10.59,4.12.37.14-.34.2-7.13,4.28-1.95,1.14a5.46,5.46,0,0,1-.64.41Z" fill="#fafafa"/>
      <path id="Trazado_109392" data-name="Trazado 109392" d="M722.27,326.11a12.4,12.4,0,0,0-.36-1.93,10.32,10.32,0,0,0-3.06-4.38c-1.69-1.57-4.15-2.8-6.84-4.27a23.291,23.291,0,0,1-4-2.72,14.69,14.69,0,0,1-4.62-13.94,23.91,23.91,0,0,1,3.18-7.52,16.481,16.481,0,0,1,3.54-4.17,7,7,0,0,1,1.26-.83,1.331,1.331,0,0,1,.47-.21c0,.05-.62.36-1.6,1.2a17.708,17.708,0,0,0-3.4,4.21,24.219,24.219,0,0,0-3,7.42,14.34,14.34,0,0,0,1.39,9.49,14.639,14.639,0,0,0,3.09,4,23.75,23.75,0,0,0,3.91,2.68c2.66,1.48,5.16,2.78,6.86,4.42a10,10,0,0,1,3,4.59,5,5,0,0,1,.18,1.96Z" fill="#344154"/>
      <path id="Trazado_109393" data-name="Trazado 109393" d="M775.07,266.87a.74.74,0,0,1,.25.05l.72.22a14.6,14.6,0,0,1,2.68,1.12,17.5,17.5,0,0,1,3.69,2.72,19.1,19.1,0,0,1,3.71,4.81,23.549,23.549,0,0,1,2.68,15.39,27.821,27.821,0,0,1-3.25,8.76,35.52,35.52,0,0,1-6.2,7.88,45.437,45.437,0,0,1-8,6.07,54.715,54.715,0,0,1-8.41,4.06,55.659,55.659,0,0,1-15.38,3.43,54,54,0,0,1-10.63-.24c-1.25-.15-2.21-.32-2.86-.45l-.73-.15a1,1,0,0,1-.25-.06.569.569,0,0,1,.26,0l.74.1c.65.1,1.62.23,2.86.35a58.429,58.429,0,0,0,10.58.08,56.589,56.589,0,0,0,15.24-3.52A48.55,48.55,0,0,0,779,307.44a35.633,35.633,0,0,0,6.12-7.76,27.291,27.291,0,0,0,3.21-8.59,23.36,23.36,0,0,0-2.52-15.1,19,19,0,0,0-3.57-4.81,17.777,17.777,0,0,0-3.59-2.76,17,17,0,0,0-2.61-1.19l-.7-.27Z" fill="#344154"/>
      <path id="Trazado_109394" data-name="Trazado 109394" d="M743.41,327a9.72,9.72,0,0,0,.37-2.73,9.591,9.591,0,0,0-.89-2.61,1.81,1.81,0,0,1,.67.58,4.15,4.15,0,0,1,.39,4.06C743.72,326.8,743.47,327,743.41,327Z" fill="#344154"/>
      <path id="Trazado_109395" data-name="Trazado 109395" d="M778.91,319.63a3,3,0,0,1-1.64-.27,6.16,6.16,0,0,1-4-6.45,2.94,2.94,0,0,1,.49-1.58c.08,0-.11.63-.12,1.61A6.44,6.44,0,0,0,777.4,319a14.645,14.645,0,0,1,1.51.63Z" fill="#344154"/>
      <path id="Trazado_109396" data-name="Trazado 109396" d="M775.07,278.72a5.5,5.5,0,0,1-.29.6c-.22.38-.49,1-.94,1.67a39.317,39.317,0,0,1-4.2,5.66,40.82,40.82,0,0,1-42.54,11.88,38.26,38.26,0,0,1-6.53-2.67c-.75-.37-1.29-.73-1.67-.94a3.618,3.618,0,0,1-.56-.37,3,3,0,0,1,.61.28c.4.18.95.51,1.71.85a43.379,43.379,0,0,0,6.54,2.49,41.76,41.76,0,0,0,46.47-17.29c.47-.68.77-1.25,1-1.61A2.416,2.416,0,0,1,775.07,278.72Z" fill="#344154"/>
      <g id="Grupo_58259" data-name="Grupo 58259" opacity="0.2">
        <path id="Trazado_109397" data-name="Trazado 109397" d="M739.84,321.73a1.92,1.92,0,0,0-.23,2.69,5.21,5.21,0,0,0,2.57,1.52,42.82,42.82,0,0,0,50.38-18.76c3.85-6.51,5.92-14.64,3.13-21.67-.71-1.81-2.41-3.78-4.24-3.12s-1.89,3.05-1.91,4.94c-.08,10.89-7.5,20.76-16.89,26.29s-20.49,7.36-31.36,8.09"/>
      </g>
    </g>
    <g id="freepik--Table--inject-63">
      <path id="Trazado_109398" data-name="Trazado 109398" d="M1057.91,431.82c0,.19-231.68.35-517.39.35S23.1,432,23.1,431.82s231.61-.34,517.43-.34S1057.91,431.64,1057.91,431.82Z" fill="#344154"/>
    </g>
    <g id="freepik--Plant--inject-63">
      <path id="Trazado_109399" data-name="Trazado 109399" d="M905.38,453.57c1.1,7,7.41,12.38,14.26,14.32s14.15,1.08,21.15-.19c4-.72,8.56-2.06,10-5.84,1.12-2.91-.18-6.29-2.37-8.5s-5.12-3.5-8-4.74" fill="#f5f5f5"/>
      <path id="Trazado_109400" data-name="Trazado 109400" d="M976.42,399.61a2.274,2.274,0,0,1,.21-.51l.69-1.46a36.808,36.808,0,0,0,2-5.83c1.33-5.19,1.79-13.12-.18-22.53a120.9,120.9,0,0,0-4.16-15.1c-1.77-5.37-3.83-11.07-5.51-17.23a66.73,66.73,0,0,1-2.71-19.81c.25-7,2.33-14,4.61-21s4.63-13.79,5.34-20.64a31.459,31.459,0,0,0-3.8-19.08c-3-5.57-6.82-10.33-9.66-15.26a52.755,52.755,0,0,1-5.81-14.66,54.668,54.668,0,0,1-.37-22.71,42,42,0,0,1,2.37-8,3.59,3.59,0,0,1-.14.54l-.48,1.53a54.45,54.45,0,0,0-.91,28.52,52.84,52.84,0,0,0,5.82,14.48c2.84,4.87,6.66,9.61,9.74,15.24a32.17,32.17,0,0,1,3.9,19.46c-.71,7-3.08,13.83-5.35,20.8s-4.33,13.88-4.59,20.77a66.058,66.058,0,0,0,2.65,19.61c1.65,6.13,3.68,11.83,5.43,17.21a121.094,121.094,0,0,1,4.15,15.23c1.91,9.49,1.36,17.49-.06,22.7a34.853,34.853,0,0,1-2.15,5.83c-.32.6-.57,1.07-.75,1.43a3.248,3.248,0,0,1-.28.47Z" fill="#344154"/>
      <path id="Trazado_109401" data-name="Trazado 109401" d="M967.12,246s-5.77-18.47,4.58-29.28a.63.63,0,0,1,.9,0,.68.68,0,0,1,.2.36C973.35,220.12,974,229.41,967.12,246Z" fill="#d9a171"/>
      <path id="Trazado_109402" data-name="Trazado 109402" d="M970.58,222.9a17.816,17.816,0,0,1-.39,3.41c-.38,2.35-.83,5.1-1.32,8.14s-.92,5.8-1.29,8.15A20.557,20.557,0,0,1,967,246a13.576,13.576,0,0,1,.1-3.43c.19-2.11.56-5,1.09-8.2s1.07-6.06,1.53-8.12A15.22,15.22,0,0,1,970.58,222.9Z" fill="#344154"/>
      <path id="Trazado_109403" data-name="Trazado 109403" d="M973.91,289.58s3.53-19,17.74-23.74a.65.65,0,0,1,.83.8C991.53,269.59,987.8,278.12,973.91,289.58Z" fill="#d9a171"/>
      <path id="Trazado_109404" data-name="Trazado 109404" d="M987.77,270.75a16.45,16.45,0,0,1-1.93,2.83l-4.93,6.6-5,6.59a18.252,18.252,0,0,1-2.11,2.69,14.005,14.005,0,0,1,1.69-3c1.16-1.78,2.84-4.17,4.8-6.74s3.78-4.85,5.15-6.46a15.391,15.391,0,0,1,2.33-2.51Z" fill="#344154"/>
      <path id="Trazado_109405" data-name="Trazado 109405" d="M970.06,337.29s-2.14-19.22,10.09-27.86a.64.64,0,0,1,.89.16.66.66,0,0,1,.11.36C981.12,313.05,980,322.3,970.06,337.29Z" fill="#d9a171"/>
      <path id="Trazado_109406" data-name="Trazado 109406" d="M977.91,315.26a18,18,0,0,1-1,3.26c-.82,2.24-1.79,4.85-2.85,7.75s-2,5.51-2.82,7.75a18.224,18.224,0,0,1-1.33,3.16,13.687,13.687,0,0,1,.76-3.35c.59-2,1.51-4.81,2.63-7.84s2.21-5.74,3.05-7.68A14.875,14.875,0,0,1,977.91,315.26Z" fill="#344154"/>
      <path id="Trazado_109407" data-name="Trazado 109407" d="M980.77,385.29s-1.46-19.29,11.07-27.48a.64.64,0,0,1,.89.16.77.77,0,0,1,.11.39C992.69,361.46,991.27,370.66,980.77,385.29Z" fill="#d9a171"/>
      <path id="Trazado_109408" data-name="Trazado 109408" d="M989.36,363.55a17,17,0,0,1-1.15,3.23c-.9,2.2-2,4.78-3.12,7.63l-3.1,7.64a19.442,19.442,0,0,1-1.36,3.15,14,14,0,0,1,.88-3.32c.66-2,1.68-4.76,2.91-7.74s2.41-5.66,3.32-7.57a15.378,15.378,0,0,1,1.62-3.02Z" fill="#344154"/>
      <path id="Trazado_109409" data-name="Trazado 109409" d="M958.82,229.8s-17.15-9-17.48-23.92a.65.65,0,0,1,.62-.67.66.66,0,0,1,.38.12C944.91,207.09,951.91,213.18,958.82,229.8Z" fill="#d9a171"/>
      <path id="Trazado_109410" data-name="Trazado 109410" d="M944.91,211a17.779,17.779,0,0,1,2.09,2.7l4.84,6.69,4.85,6.67a18.579,18.579,0,0,1,2,2.81,14.64,14.64,0,0,1-2.35-2.5c-1.36-1.62-3.15-3.94-5-6.56s-3.52-5-4.67-6.82a14.8,14.8,0,0,1-1.76-2.99Z" fill="#344154"/>
      <path id="Trazado_109411" data-name="Trazado 109411" d="M977.24,269.46s-17.67-7.9-18.91-22.82a.64.64,0,0,1,.55-.72.6.6,0,0,1,.45.11C961.91,247.63,969.36,253.26,977.24,269.46Z" fill="#d9a171"/>
      <path id="Trazado_109412" data-name="Trazado 109412" d="M962.2,251.56a16.282,16.282,0,0,1,2.29,2.54l5.23,6.38,5.25,6.36a19,19,0,0,1,2.12,2.69,13.928,13.928,0,0,1-2.5-2.35c-1.46-1.54-3.39-3.74-5.43-6.24s-3.82-4.82-5.07-6.52a15.071,15.071,0,0,1-1.89-2.86Z" fill="#344154"/>
      <path id="Trazado_109413" data-name="Trazado 109413" d="M967.07,313.69s-12.12-15.07-6.44-28.92a.64.64,0,0,1,.83-.37.7.7,0,0,1,.31.26C963.4,287.3,967.44,295.69,967.07,313.69Z" fill="#d9a171"/>
      <path id="Trazado_109414" data-name="Trazado 109414" d="M961.84,290.9a17.1,17.1,0,0,1,.88,3.32c.51,2.32,1.1,5,1.75,8.06s1.27,5.73,1.78,8a19,19,0,0,1,.66,3.36,14,14,0,0,1-1.16-3.23c-.59-2-1.31-4.87-2-8s-1.22-6-1.55-8.12A14.906,14.906,0,0,1,961.84,290.9Z" fill="#344154"/>
      <path id="Trazado_109415" data-name="Trazado 109415" d="M979.08,365.74s-17.52-8.19-18.51-23.13a.64.64,0,0,1,1-.6C964.16,343.66,971.49,349.42,979.08,365.74Z" fill="#d9a171"/>
      <path id="Trazado_109416" data-name="Trazado 109416" d="M964.35,347.59a16.79,16.79,0,0,1,2.25,2.58l5.12,6.47c1.93,2.41,3.66,4.59,5.14,6.45a19,19,0,0,1,2.08,2.72,14.281,14.281,0,0,1-2.46-2.39c-1.43-1.56-3.32-3.8-5.32-6.33s-3.75-4.88-5-6.61a15.548,15.548,0,0,1-1.81-2.89Z" fill="#344154"/>
      <path id="Trazado_109417" data-name="Trazado 109417" d="M1014,289.68a1,1,0,0,1,0,.43v1.23c0,1.16-.12,2.73-.2,4.69-.23,4.13-.54,9.88-.92,16.75h0c-1.25,7-4.81,14.76-9.6,22.3-3.51,5.55-7.2,10.59-10.37,15.28a107,107,0,0,0-7.78,12.86,54.708,54.708,0,0,0-3.64,9.43c-.3,1.16-.54,2.06-.67,2.67a3.792,3.792,0,0,1-.26.93,5,5,0,0,1,.12-.95c.09-.63.27-1.55.54-2.72a49.423,49.423,0,0,1,3.45-9.59,102.25,102.25,0,0,1,7.68-13c3.16-4.72,6.82-9.78,10.32-15.3,4.76-7.49,8.31-15.14,9.6-22h0c.48-6.88.89-12.62,1.18-16.74.15-1.95.28-3.52.37-4.68a8.935,8.935,0,0,1,.13-1.23,1.359,1.359,0,0,1,.05-.36Z" fill="#344154"/>
      <path id="Trazado_109418" data-name="Trazado 109418" d="M1003.56,333.68s7.42-17.87-1.92-29.57a.64.64,0,0,0-.9-.12.63.63,0,0,0-.22.33C999.69,307.31,998.17,316.5,1003.56,333.68Z" fill="#d9a171"/>
      <path id="Trazado_109419" data-name="Trazado 109419" d="M1002.21,310.34a15.425,15.425,0,0,1,.58,3.38c.27,2.1.56,5,.79,8.22s.34,6.15.34,8.27a13.993,13.993,0,0,1-.21,3.42,19.551,19.551,0,0,1-.3-3.41c-.16-2.37-.35-5.15-.55-8.23s-.41-5.85-.58-8.23A16.3,16.3,0,0,1,1002.21,310.34Z" fill="#344154"/>
      <g id="Grupo_58260" data-name="Grupo 58260" opacity="0.3">
        <path id="Trazado_109420" data-name="Trazado 109420" d="M1003.56,333.68s7.42-17.87-1.92-29.57a.64.64,0,0,0-.9-.12.63.63,0,0,0-.22.33C999.69,307.31,998.17,316.5,1003.56,333.68Z"/>
      </g>
      <path id="Trazado_109421" data-name="Trazado 109421" d="M980.57,376.73s6-18.41-4.31-29.32a.65.65,0,0,0-.91,0,.58.58,0,0,0-.19.35C974.58,350.76,973.8,360,980.57,376.73Z" fill="#d9a171"/>
      <path id="Trazado_109422" data-name="Trazado 109422" d="M977.33,353.58a15.149,15.149,0,0,1,.86,3.32c.43,2.07,1,4.94,1.45,8.13s.84,6.1,1,8.21a14.561,14.561,0,0,1,.07,3.43,18.571,18.571,0,0,1-.58-3.37c-.35-2.35-.76-5.11-1.21-8.16s-.89-5.8-1.24-8.15A16.38,16.38,0,0,1,977.33,353.58Z" fill="#344154"/>
      <g id="Grupo_58261" data-name="Grupo 58261" opacity="0.3">
        <path id="Trazado_109423" data-name="Trazado 109423" d="M980.57,376.73s6-18.41-4.31-29.32a.65.65,0,0,0-.91,0,.58.58,0,0,0-.19.35C974.58,350.76,973.8,360,980.57,376.73Z"/>
      </g>
      <path id="Trazado_109424" data-name="Trazado 109424" d="M1013,311.84s15.85-11.09,14.25-26a.65.65,0,0,0-.7-.58.62.62,0,0,0-.36.16C1023.91,287.52,1017.68,294.45,1013,311.84Z" fill="#d9a171"/>
      <g id="Grupo_58262" data-name="Grupo 58262" opacity="0.3">
        <path id="Trazado_109425" data-name="Trazado 109425" d="M1013,311.84s15.85-11.09,14.25-26a.65.65,0,0,0-.7-.58.62.62,0,0,0-.36.16C1023.91,287.52,1017.68,294.45,1013,311.84Z"/>
      </g>
      <path id="Trazado_109426" data-name="Trazado 109426" d="M1024.39,291.42a15.937,15.937,0,0,1-1.31,3.17c-.91,1.91-2.22,4.52-3.75,7.36s-3,5.37-4.15,7.16a15.2,15.2,0,0,1-2,2.78,17.46,17.46,0,0,1,1.57-3c1.14-2.09,2.47-4.54,4-7.24l3.93-7.25A16.55,16.55,0,0,1,1024.39,291.42Z" fill="#344154"/>
      <path id="Trazado_109427" data-name="Trazado 109427" d="M987,358.48s19.11-3,24.23-17.05a.63.63,0,0,0-.35-.82.58.58,0,0,0-.41,0C1007.45,341.44,998.81,344.92,987,358.48Z" fill="#d9a171"/>
      <g id="Grupo_58263" data-name="Grupo 58263" opacity="0.3">
        <path id="Trazado_109428" data-name="Trazado 109428" d="M987,358.48s19.11-3,24.23-17.05a.63.63,0,0,0-.35-.82.58.58,0,0,0-.41,0C1007.45,341.44,998.81,344.92,987,358.48Z"/>
      </g>
      <path id="Trazado_109429" data-name="Trazado 109429" d="M1006.17,345.18a16.327,16.327,0,0,1-2.58,2.26c-1.65,1.32-4,3.09-6.6,5s-5.07,3.5-6.88,4.6a14.682,14.682,0,0,1-3,1.61,18.049,18.049,0,0,1,2.75-2l6.74-4.76,6.72-4.78a16.6,16.6,0,0,1,2.85-1.93Z" fill="#344154"/>
      <path id="Trazado_109430" data-name="Trazado 109430" d="M968.72,393.66l-5.57,37.53H997.9l-4.51-37.53Z" fill="#455a64"/>
      <path id="Trazado_109431" data-name="Trazado 109431" d="M994.78,405.29c0,.2-6.27.36-14,.36s-14-.16-14-.36,6.27-.36,14-.36S994.78,405.09,994.78,405.29Z" fill="#344154"/>
      <path id="Trazado_109432" data-name="Trazado 109432" d="M995.47,408.27c0,.2-6.48.36-14.47.36s-14.47-.16-14.47-.36,6.47-.36,14.47-.36S995.47,408.07,995.47,408.27Z" fill="#344154"/>
    </g>
    <g id="freepik--Drink--inject-63">
      <path id="Trazado_109433" data-name="Trazado 109433" d="M931.16,457.47a86,86,0,0,1-17.86-.08,7.86,7.86,0,0,1-7-7.81h31.94A7.92,7.92,0,0,1,931.16,457.47Z" fill="#e0e0e0"/>
      <path id="Trazado_109434" data-name="Trazado 109434" d="M936.35,455.39a66,66,0,0,1-28.23.07,7.9,7.9,0,0,1-6.18-7.72V399a7.89,7.89,0,0,1,7.89-7.89h24.84a7.89,7.89,0,0,1,7.89,7.89h0v48.63a7.91,7.91,0,0,1-6.21,7.76Z" fill="#d9a171"/>
      <path id="Trazado_109435" data-name="Trazado 109435" d="M941.12,394.64c.63,2-.9,4.6-4.29,6.77a30,30,0,0,1-29.08.18c-3.42-2.13-5-4.68-4.37-6.72s3.14-3.33,6.52-4.1a59.887,59.887,0,0,1,12.32-1.1,58.662,58.662,0,0,1,12.33,1C937.91,391.35,940.48,392.56,941.12,394.64Z" fill="#d9a171"/>
      <g id="Grupo_58264" data-name="Grupo 58264" opacity="0.5">
        <path id="Trazado_109436" data-name="Trazado 109436" d="M941.12,394.64c.63,2-.9,4.6-4.29,6.77a30,30,0,0,1-29.08.18c-3.42-2.13-5-4.68-4.37-6.72s3.14-3.33,6.52-4.1a59.887,59.887,0,0,1,12.32-1.1,58.662,58.662,0,0,1,12.33,1C937.91,391.35,940.48,392.56,941.12,394.64Z"/>
      </g>
      <path id="Trazado_109437" data-name="Trazado 109437" d="M933.64,394a12.09,12.09,0,0,0-5.57.47c-.8.26-1.71.81-1.66,1.65s.76,1.17,1.41,1.44a11.31,11.31,0,0,0,9-.22c.65-.3,1.37-.9,1.17-1.59a1.42,1.42,0,0,0-.76-.8,8.19,8.19,0,0,0-4-1.14" fill="#344154"/>
      <path id="Trazado_109438" data-name="Trazado 109438" d="M942.56,418.18a4.857,4.857,0,0,1-1,.92,8.071,8.071,0,0,1-3.7,1.36,9.39,9.39,0,0,1-6.07-1.39,7.75,7.75,0,0,1-2.66-2.94,3.461,3.461,0,0,1-.35-2.23,2.22,2.22,0,0,1,1.67-1.74,3,3,0,0,1,2.34.88,10.72,10.72,0,0,1,1.72,1.84,11.52,11.52,0,0,1,2.08,4.86,11.079,11.079,0,0,1-.4,5.65,10.269,10.269,0,0,1-3.62,4.8,11,11,0,0,1-6,2.15,9.31,9.31,0,0,1-6.28-2,10.7,10.7,0,0,1-3.7-5.74,9,9,0,0,1-.17-3.55,4,4,0,0,1,1.86-3.2,2.12,2.12,0,0,1,2.26.33,4.57,4.57,0,0,1,1.2,1.76,18.058,18.058,0,0,1,.9,3.86,21.942,21.942,0,0,1-.37,7.62,21.6,21.6,0,0,1-2.8,6.75,10.121,10.121,0,0,1-5.38,4.42,6.83,6.83,0,0,1-6.27-1.66,10.72,10.72,0,0,1-3.21-5.13,13,13,0,0,1,1.21-10.16l.26-.42.18.45a14.81,14.81,0,0,1,1.09,6.45,15.56,15.56,0,0,1-1,4.76,11.15,11.15,0,0,1-2.06,3.5,21.276,21.276,0,0,0,1.81-3.6,15.231,15.231,0,0,0,.9-4.67,14.7,14.7,0,0,0-1.16-6.25h.44a12.43,12.43,0,0,0-1,9.73,10.07,10.07,0,0,0,3,4.81,6.14,6.14,0,0,0,5.63,1.48,9.36,9.36,0,0,0,5-4.14,20.66,20.66,0,0,0,2.68-6.52,21.44,21.44,0,0,0,.34-7.36,17.541,17.541,0,0,0-.85-3.66,3.64,3.64,0,0,0-1-1.44,1.3,1.3,0,0,0-1.43-.23,3.3,3.3,0,0,0-1.44,2.65,8.29,8.29,0,0,0,.16,3.25,9.8,9.8,0,0,0,3.42,5.32,8.57,8.57,0,0,0,5.77,1.84,10.21,10.21,0,0,0,5.55-2,9.54,9.54,0,0,0,3.4-4.45,10.32,10.32,0,0,0,.41-5.31,11,11,0,0,0-1.93-4.62,10.24,10.24,0,0,0-1.6-1.75,2.44,2.44,0,0,0-1.88-.78,1.73,1.73,0,0,0-1.25,1.32,3.06,3.06,0,0,0,.29,1.9,7.211,7.211,0,0,0,2.45,2.78,9.05,9.05,0,0,0,5.79,1.46,8.34,8.34,0,0,0,3.65-1.2C942.2,418.45,942.53,418.09,942.56,418.18Z" fill="#fafafa"/>
      <path id="Trazado_109439" data-name="Trazado 109439" d="M938.68,392a2.069,2.069,0,0,1,.39.34,4.08,4.08,0,0,1,1.12,3.58,6.27,6.27,0,0,1-1.28,2.84,14.15,14.15,0,0,1-6.74,4.35,29,29,0,0,1-9.74,1.5,31.68,31.68,0,0,1-9.69-1.74,20,20,0,0,1-3.94-1.78,9.2,9.2,0,0,1-2.79-2.55,5.68,5.68,0,0,1-.7-5.29,3.73,3.73,0,0,1,.82-1.24,1.38,1.38,0,0,1,.4-.32,5.2,5.2,0,0,0-1,1.64,5.58,5.58,0,0,0,.81,5c1.28,1.85,3.75,3.16,6.58,4.09a32.32,32.32,0,0,0,9.55,1.67,29.052,29.052,0,0,0,9.57-1.43,14,14,0,0,0,6.61-4.12,6.289,6.289,0,0,0,1.3-2.67,4.18,4.18,0,0,0-.19-2.22,7.339,7.339,0,0,0-1.08-1.65Z" fill="#344154"/>
    </g>
    <g id="Grupo_58266" data-name="Grupo 58266">
      <path id="Trazado_109440" data-name="Trazado 109440" d="M371,151.57H514.1V282.89a16.22,16.22,0,0,1-16.22,16.22H371Z" fill="#aed3f2"/>
      <g id="Grupo_58265" data-name="Grupo 58265">
        <path id="Trazado_109441" data-name="Trazado 109441" d="M502.24,195.49c0,.29-25.86.54-57.76.54s-57.77-.25-57.77-.54,25.86-.55,57.77-.55S502.24,195.19,502.24,195.49Z" fill="#5e6178"/>
        <path id="Trazado_109442" data-name="Trazado 109442" d="M445.16,205.48c0,.3-12.77.54-28.53.54s-28.55-.24-28.55-.54,12.78-.54,28.55-.54S445.16,205.18,445.16,205.48Z" fill="#5e6178"/>
        <path id="Trazado_109443" data-name="Trazado 109443" d="M468,204.55c0,.3-3.39.55-7.56.55s-7.56-.25-7.56-.55,3.38-.54,7.56-.54S468,204.26,468,204.55Z" fill="#5e6178"/>
        <path id="Trazado_109444" data-name="Trazado 109444" d="M505.33,203.94c0,.3-6.7.54-15,.54s-15-.24-15-.54,6.7-.54,15-.54S505.33,203.64,505.33,203.94Z" fill="#5e6178"/>
        <path id="Trazado_109445" data-name="Trazado 109445" d="M440.4,215c0,.3-12,.55-26.84.55s-26.85-.25-26.85-.55,12-.54,26.85-.54S440.4,214.75,440.4,215Z" fill="#5e6178"/>
        <path id="Trazado_109446" data-name="Trazado 109446" d="M505.33,214.77c0,.3-13.13.54-29.31.54s-29.31-.24-29.31-.54,13.12-.54,29.31-.54S505.33,214.47,505.33,214.77Z" fill="#5e6178"/>
        <path id="Trazado_109447" data-name="Trazado 109447" d="M505.33,224.39c0,.3-5.84.55-13.05.55s-13-.25-13-.55,5.84-.54,13-.54S505.33,224.09,505.33,224.39Z" fill="#5e6178"/>
      </g>
      <path id="Trazado_109448" data-name="Trazado 109448" d="M451.33,184.77c0,.3-14.16.54-31.62.54s-31.63-.24-31.63-.54,14.16-.54,31.63-.54S451.33,184.47,451.33,184.77Z" fill="#d9a171"/>
    </g>
    <g id="Grupo_58268" data-name="Grupo 58268">
      <g id="Grupo_58267" data-name="Grupo 58267">
        <rect id="Rectángulo_8750" data-name="Rectángulo 8750" width="297.27" height="196.58" rx="14.57" transform="translate(256.04 234.21)" fill="#344154"/>
        <path id="Trazado_109449" data-name="Trazado 109449" d="M244,416.25H566.08a17.2,17.2,0,0,1-17.2,17.2H261.22a17.2,17.2,0,0,1-17.2-17.2h0Z" fill="#344154"/>
        <rect id="Rectángulo_8751" data-name="Rectángulo 8751" width="280.48" height="166.01" transform="translate(264.43 242.02)" fill="#5e6178"/>
        <path id="Trazado_109450" data-name="Trazado 109450" d="M375.78,416.25h18.47l45.44-.1h.34l-.17.29c-.57,1-1.19,2-1.8,3.09s-1.3,2.21-1.91,3.27l-.06.09H436l-56.23-.1h0L376.83,418l-.74-1.22c-.17-.27-.24-.4-.24-.4l.28.42c.18.29.45.7.79,1.22l3,4.67h-.07l56.23-.1-.16.09c.61-1.05,1.26-2.15,1.9-3.26l1.81-3.09.16.29-45.25-.1-13.65-.06h-5.04Z" fill="#5e6178"/>
      </g>
      <path id="Trazado_109451" data-name="Trazado 109451" d="M553.3,416.25c0,.1-66.55.18-148.62.18S256,416.35,256,416.25s66.53-.18,148.64-.18S553.3,416.15,553.3,416.25Z" fill="#5e6178"/>
    </g>
    <g id="Grupo_58270" data-name="Grupo 58270">
      <path id="Trazado_109452" data-name="Trazado 109452" d="M473.55,208.87h0a8.31,8.31,0,0,1,8.3,8.3v17H457V218.49a9.62,9.62,0,0,1,9.62-9.62Z" fill="#344154"/>
      <path id="Trazado_109453" data-name="Trazado 109453" d="M473.55,208.87c0,.1-23.43.16-52.32.14s-52.33-.13-52.33-.23,23.42-.16,52.33-.14S473.55,208.77,473.55,208.87Z" fill="#344154"/>
      <path id="Trazado_109454" data-name="Trazado 109454" d="M473.33,208.85,463,208.78l-15,.09H337.43a17,17,0,0,0-17,17V408.43h143.1V218.19C464,208.87,473.33,208.85,473.33,208.85Z" fill="#fafafa"/>
      <path id="Trazado_109455" data-name="Trazado 109455" d="M473.33,208.85,387,209H338.47c-.91,0-1.79,0-2.68.08a16.426,16.426,0,0,0-2.61.48,16.63,16.63,0,0,0-11.44,10.26,11.534,11.534,0,0,0-.43,1.25l-.33,1.29a16.817,16.817,0,0,0-.31,2.64c-.08,3.58,0,7.19,0,10.78l.12,172.57-.34-.34,143.1.09-.25.25.06-102.64.09-51.31.05-25.66V219.2a10.65,10.65,0,0,1,.06-1.6,9.567,9.567,0,0,1,.25-1.59,8.5,8.5,0,0,1,3.47-5.22,10,10,0,0,1,2.88-1.39,12,12,0,0,1,3.17-.55Zm0,0a12,12,0,0,0-3.15.56,9.93,9.93,0,0,0-2.87,1.4,9.23,9.23,0,0,0-3.67,6.79,10.7,10.7,0,0,0-.06,1.6v35.28l.08,51.32.07,102.63v.25h-.25l-143.1.1h-.35v-.35l.12-172.57v-10.8a19.084,19.084,0,0,1,.32-2.71l.35-1.32a12.263,12.263,0,0,1,.44-1.29,17,17,0,0,1,2.71-4.71,17.27,17.27,0,0,1,9-5.8,17.508,17.508,0,0,1,2.68-.48c.91-.05,1.82-.1,2.72-.08H386.9Z" fill="#344154"/>
      <path id="Trazado_109456" data-name="Trazado 109456" d="M443.91,243.61c0,.29-13.77.54-30.76.54s-30.77-.25-30.77-.54,13.77-.55,30.77-.55S443.91,243.31,443.91,243.61Z" fill="#d9a171"/>
      <path id="Trazado_109457" data-name="Trazado 109457" d="M407.41,253.44c0,.3-5.33.54-11.9.54s-11.9-.24-11.9-.54,5.33-.55,11.9-.55S407.41,253.14,407.41,253.44Z" fill="#5e6178"/>
      <path id="Trazado_109458" data-name="Trazado 109458" d="M377.42,283.42c0,.3-10.12.55-22.59.55s-22.59-.25-22.59-.55,10.11-.54,22.59-.54S377.42,283.12,377.42,283.42Z" fill="#5e6178"/>
      <path id="Trazado_109459" data-name="Trazado 109459" d="M428.58,283.42c0,.3-10.11.55-22.59.55s-22.59-.25-22.59-.55,10.11-.54,22.59-.54S428.58,283.12,428.58,283.42Z" fill="#d9a171"/>
      <path id="Trazado_109460" data-name="Trazado 109460" d="M377.42,291.43c0,.3-10.12.54-22.59.54s-22.59-.24-22.59-.54,10.11-.54,22.59-.54S377.42,291.13,377.42,291.43Z" fill="#5e6178"/>
      <path id="Trazado_109461" data-name="Trazado 109461" d="M377.42,299.44c0,.3-10.12.54-22.59.54s-22.59-.24-22.59-.54,10.11-.54,22.59-.54S377.42,299.14,377.42,299.44Z" fill="#d9a171"/>
      <path id="Trazado_109462" data-name="Trazado 109462" d="M407.41,269.75c0,.3-5.33.54-11.9.54s-11.9-.24-11.9-.54,5.33-.54,11.9-.54S407.41,269.45,407.41,269.75Z" fill="#5e6178"/>
      <path id="Trazado_109463" data-name="Trazado 109463" d="M448.66,283.42c0,.3-3.55.55-7.92.55s-7.94-.25-7.94-.55,3.55-.54,7.94-.54S448.66,283.12,448.66,283.42Z" fill="#5e6178"/>
      <path id="Trazado_109464" data-name="Trazado 109464" d="M452.91,253.44c0,.3-9.14.54-20.41.54s-20.41-.24-20.41-.54,9.13-.55,20.41-.55S452.91,253.14,452.91,253.44Z" fill="#5e6178"/>
      <path id="Trazado_109465" data-name="Trazado 109465" d="M451.07,261.25c0,.29-15.1.54-33.73.54s-33.73-.25-33.73-.54,15.1-.55,33.73-.55S451.07,261,451.07,261.25Z" fill="#5e6178"/>
      <path id="Trazado_109466" data-name="Trazado 109466" d="M448.66,291.43c0,.3-14.61.54-32.63.54s-32.63-.24-32.63-.54,14.61-.54,32.63-.54S448.66,291.13,448.66,291.43Z" fill="#5e6178"/>
      <path id="Trazado_109467" data-name="Trazado 109467" d="M448.66,314.62c0,.3-13.71.54-30.61.54s-30.63-.24-30.63-.54,13.71-.54,30.63-.54S448.66,314.32,448.66,314.62Z" fill="#d9a171"/>
      <path id="Trazado_109468" data-name="Trazado 109468" d="M448.66,322.41c0,.3-13.71.54-30.61.54s-30.63-.24-30.63-.54,13.71-.54,30.63-.54S448.66,322.11,448.66,322.41Z" fill="#5e6178"/>
      <path id="Trazado_109469" data-name="Trazado 109469" d="M448.66,330.21c0,.3-13.71.54-30.61.54s-30.63-.24-30.63-.54,13.71-.55,30.63-.55S448.66,329.91,448.66,330.21Z" fill="#5e6178"/>
      <path id="Trazado_109470" data-name="Trazado 109470" d="M448.66,338c0,.3-13.71.54-30.61.54s-30.63-.24-30.63-.54,13.71-.54,30.63-.54S448.66,337.7,448.66,338Z" fill="#5e6178"/>
      <path id="Trazado_109471" data-name="Trazado 109471" d="M422.68,345.79c0,.15-2,.29-5.16.39s-7.6.16-12.47.16-9.27-.06-12.46-.16-5.17-.24-5.17-.39,2-.28,5.17-.38,7.59-.16,12.46-.16,9.28.06,12.47.16S422.68,345.65,422.68,345.79Z" fill="#5e6178"/>
      <path id="Trazado_109472" data-name="Trazado 109472" d="M437.57,299.86c0,.3-11.81.54-26.37.54s-26.38-.24-26.38-.54,11.81-.54,26.38-.54S437.57,299.56,437.57,299.86Z" fill="#5e6178"/>
      <g id="Grupo_58269" data-name="Grupo 58269">
        <path id="Trazado_109473" data-name="Trazado 109473" d="M387.29,390.72a1.23,1.23,0,1,1-.364-.873,1.24,1.24,0,0,1,.364.873Z" fill="#344154"/>
        <path id="Trazado_109474" data-name="Trazado 109474" d="M394.61,390.72a1.23,1.23,0,1,1-1.23-1.23A1.23,1.23,0,0,1,394.61,390.72Z" fill="#344154"/>
        <path id="Trazado_109475" data-name="Trazado 109475" d="M401.94,390.72a1.24,1.24,0,1,1-1.23-1.23A1.24,1.24,0,0,1,401.94,390.72Z" fill="#344154"/>
      </g>
      <path id="Trazado_109476" data-name="Trazado 109476" d="M428.93,362c0,.3-10.12.54-22.59.54s-22.6-.24-22.6-.54,10.12-.55,22.6-.55S428.93,361.74,428.93,362Z" fill="#d9a171"/>
      <path id="Trazado_109477" data-name="Trazado 109477" d="M449,370c0,.3-14.61.55-32.63.55s-32.64-.25-32.64-.55,14.61-.54,32.64-.54S449,369.75,449,370Z" fill="#5e6178"/>
    </g>
    <g id="Grupo_58274" data-name="Grupo 58274">
      <g id="Grupo_58271" data-name="Grupo 58271">
        <rect id="Rectángulo_8752" data-name="Rectángulo 8752" width="35.92" height="98.28" transform="translate(91.02 330.39)" fill="#6595bf"/>
        <rect id="Rectángulo_8753" data-name="Rectángulo 8753" width="22.6" height="42.68" transform="translate(97.68 336.84)" fill="#aed3f2"/>
        <path id="Trazado_109478" data-name="Trazado 109478" d="M117.86,407.88A8.88,8.88,0,1,1,109,399a8.88,8.88,0,0,1,8.86,8.88Z" fill="#aed3f2"/>
        <rect id="Rectángulo_8754" data-name="Rectángulo 8754" width="14.13" height="3.63" transform="translate(101.92 344.71)" fill="#6595bf"/>
        <rect id="Rectángulo_8755" data-name="Rectángulo 8755" width="14.13" height="3.63" transform="translate(101.92 352.38)" fill="#6595bf"/>
      </g>
      <g id="Grupo_58272" data-name="Grupo 58272">
        <rect id="Rectángulo_8756" data-name="Rectángulo 8756" width="35.92" height="114.58" transform="translate(129.96 314.1)" fill="#6595bf"/>
        <rect id="Rectángulo_8757" data-name="Rectángulo 8757" width="22.6" height="42.68" transform="translate(136.61 320.56)" fill="#aed3f2"/>
        <path id="Trazado_109479" data-name="Trazado 109479" d="M156.8,407.9a8.88,8.88,0,1,1-8.88-8.88A8.88,8.88,0,0,1,156.8,407.9Z" fill="#aed3f2"/>
        <rect id="Rectángulo_8758" data-name="Rectángulo 8758" width="14.13" height="3.63" transform="translate(140.85 328.43)" fill="#6595bf"/>
        <rect id="Rectángulo_8759" data-name="Rectángulo 8759" width="14.13" height="3.63" transform="translate(140.85 336.1)" fill="#6595bf"/>
      </g>
      <g id="Grupo_58273" data-name="Grupo 58273">
        <rect id="Rectángulo_8760" data-name="Rectángulo 8760" width="35.92" height="127.79" transform="translate(168.89 300.89)" fill="#6595bf"/>
        <rect id="Rectángulo_8761" data-name="Rectángulo 8761" width="22.6" height="42.68" transform="translate(175.55 307.35)" fill="#aed3f2"/>
        <path id="Trazado_109480" data-name="Trazado 109480" d="M195.73,407.9a8.88,8.88,0,1,1-8.88-8.88A8.88,8.88,0,0,1,195.73,407.9Z" fill="#aed3f2"/>
        <rect id="Rectángulo_8762" data-name="Rectángulo 8762" width="14.13" height="3.63" transform="translate(179.79 315.22)" fill="#6595bf"/>
        <rect id="Rectángulo_8763" data-name="Rectángulo 8763" width="14.13" height="3.63" transform="translate(179.79 322.89)" fill="#6595bf"/>
      </g>
    </g>
    <g id="Grupo_58275" data-name="Grupo 58275">
      <path id="Trazado_109481" data-name="Trazado 109481" d="M719.11,456.63l-9.62-112.14H917.02L903.27,458.03Z" fill="#344154"/>
      <path id="Trazado_109482" data-name="Trazado 109482" d="M826.47,404.3a13.22,13.22,0,1,1-13.21-13.22A13.22,13.22,0,0,1,826.47,404.3Z" fill="#fafafa"/>
    </g>
  </g>
</svg>
