<svg xmlns="http://www.w3.org/2000/svg" width="731.065" height="469.37" viewBox="0 0 731.065 469.37">
  <g id="graficos_cf13_Recuperado__conciliacion_bancaria" data-name="graficos cf13 [Recuperado]_conciliacion bancaria" transform="translate(-195.14 -16.05)">
    <g id="Grupo_58276" data-name="Grupo 58276">
      <rect id="Rectángulo_8764" data-name="Rectángulo 8764" width="629.84" height="0.31" transform="translate(260.98 428.53)" fill="#ececec"/>
      <rect id="Rectángulo_8765" data-name="Rectángulo 8765" width="41.72" height="0.31" transform="translate(785.99 448.81)" fill="#ececec"/>
      <rect id="Rectángulo_8766" data-name="Rectángulo 8766" width="10.95" height="0.31" transform="translate(667.26 452.23)" fill="#ececec"/>
      <rect id="Rectángulo_8767" data-name="Rectángulo 8767" width="24.18" height="0.31" transform="translate(760.55 437.11)" fill="#ececec"/>
      <rect id="Rectángulo_8768" data-name="Rectángulo 8768" width="54.41" height="0.31" transform="translate(327.06 439.23)" fill="#ececec"/>
      <rect id="Rectángulo_8769" data-name="Rectángulo 8769" width="7.98" height="0.31" transform="translate(392.69 439.23)" fill="#ececec"/>
      <rect id="Rectángulo_8770" data-name="Rectángulo 8770" width="118" height="0.31" transform="translate(426.59 444.54)" fill="#ececec"/>
      <path id="Trazado_109483" data-name="Trazado 109483" d="M559.54,372.35H316.3a7.19,7.19,0,0,1-7.19-7.19V23.24a7.2,7.2,0,0,1,7.19-7.19H559.54a7.2,7.2,0,0,1,7.19,7.19V365.16A7.2,7.2,0,0,1,559.54,372.35ZM316.3,16.37a6.88,6.88,0,0,0-6.88,6.87V365.16A6.89,6.89,0,0,0,316.3,372H559.54a6.88,6.88,0,0,0,6.87-6.88V23.24a6.88,6.88,0,0,0-6.87-6.87Z" fill="#ececec"/>
      <path id="Trazado_109484" data-name="Trazado 109484" d="M832,372.35H588.76a7.2,7.2,0,0,1-7.19-7.19V23.24a7.2,7.2,0,0,1,7.19-7.19H832a7.2,7.2,0,0,1,7.19,7.19V365.16A7.2,7.2,0,0,1,832,372.35Zm-243.25-356a6.88,6.88,0,0,0-6.87,6.87V365.16a6.88,6.88,0,0,0,6.87,6.88H832a6.88,6.88,0,0,0,6.87-6.88V23.24A6.88,6.88,0,0,0,832,16.37Z" fill="#ececec"/>
    </g>
    <g id="Grupo_58282" data-name="Grupo 58282">
      <g id="Grupo_58278" data-name="Grupo 58278">
        <path id="Trazado_109485" data-name="Trazado 109485" d="M384.07,107.7l46.35-26.96h35.7l47.12,25.68V281.17H384.07Z" fill="#aed3f2"/>
        <g id="Grupo_58277" data-name="Grupo 58277">
          <path id="Trazado_109486" data-name="Trazado 109486" d="M514.57,281.17H384.07V107.7l1.33-1.28a91.79,91.79,0,0,1,63.92-25.68h0a91.82,91.82,0,0,1,63.92,25.68l1.33,1.28Zm-121.85-8.66H505.91V111.41a83.74,83.74,0,0,0-113.19,0Z" fill="#fafafa"/>
          <path id="Trazado_109487" data-name="Trazado 109487" d="M446.07,273.55h6.49V215.56h54.99v-6.49H452.56V149.75h54.99v-6.49H452.56V88.27h-6.49v54.99H391.08v6.49h54.99v59.32H391.08v6.49h54.99Z" fill="#f0f0f0"/>
          <path id="Trazado_109488" data-name="Trazado 109488" d="M518.9,285.5H379.74V105.93l1.27-1.26a96.71,96.71,0,0,1,136.62,0l1.27,1.26Zm-130.5-8.66H510.24V109.54a88.06,88.06,0,0,0-121.84,0Z" fill="#f0f0f0"/>
        </g>
      </g>
      <g id="Grupo_58280" data-name="Grupo 58280">
        <g id="Grupo_58279" data-name="Grupo 58279">
          <path id="Trazado_109489" data-name="Trazado 109489" d="M694.89,280.12c0-.28-.92-27.31-5.32-31.58s-9.18-.16-9.39,0l-.44-.52c0-.05,5.59-4.57,10.31,0s5.49,30.93,5.53,32Z" fill="#e1e1e1"/>
          <path id="Trazado_109490" data-name="Trazado 109490" d="M695.27,285.43c0-.32-3-32.45,8.73-45.92l.52.45C693,253.2,695.92,285,696,285.36Z" fill="#e1e1e1"/>
          <path id="Trazado_109491" data-name="Trazado 109491" d="M694.84,282h-.69c0-.36,2.3-36.52-6.31-44.44l.47-.5C697.15,245.17,694.94,280.53,694.84,282Z" fill="#e1e1e1"/>
          <path id="Trazado_109492" data-name="Trazado 109492" d="M696,282h-.69c0-1,.28-24.42,6.94-28.24a4.72,4.72,0,0,1,4.3-.42c4,1.67,6,8.83,6.11,9.14l-.67.18c0-.07-2-7.14-5.7-8.68a4.06,4.06,0,0,0-3.7.38C696.23,258,696,281.77,696,282Z" fill="#e1e1e1"/>
          <path id="Trazado_109493" data-name="Trazado 109493" d="M693.37,282h-.69c0-.19,1-18.52-3.94-25-1.2-1.56-2.5-2.31-3.88-2.21-3.24.23-6,5-6,5l-.59-.34c.11-.21,2.92-5.11,6.53-5.37,1.62-.11,3.12.73,4.47,2.49C694.38,263.26,693.41,281.26,693.37,282Z" fill="#e1e1e1"/>
          <path id="Trazado_109494" data-name="Trazado 109494" d="M694.45,284.52c-.13-1.78-3.23-43.63,2.22-51l.55.41c-5.3,7.17-2.12,50.11-2.08,50.55Z" fill="#e1e1e1"/>
        </g>
        <path id="Trazado_109495" data-name="Trazado 109495" d="M708,257.59s-3.27,1.2-2.3,4.05,11.3,7.53,11.3,7.53,4.33-4,.35-10.43S708.09,255.55,708,257.59Z" fill="#ececec"/>
        <path id="Trazado_109496" data-name="Trazado 109496" d="M693.78,252.17s3.48-.15,3.68,2.85-7.55,11.31-7.55,11.31-5.53-2-4.34-9.49S692.91,250.32,693.78,252.17Z" fill="#ececec"/>
        <path id="Trazado_109497" data-name="Trazado 109497" d="M690.83,237.8s2.32-.25,2.13-1.67-9-5-14.24.83c0,0,3.34,5.74,8.17,5.82S690.83,237.8,690.83,237.8Z" fill="#ececec"/>
        <path id="Trazado_109498" data-name="Trazado 109498" d="M695.15,234.36s-2.1,1-2.69-.28,5-9.07,12.53-6.83c0,0,.2,6.64-3.86,9.25S695.15,234.36,695.15,234.36Z" fill="#ececec"/>
        <path id="Trazado_109499" data-name="Trazado 109499" d="M684.16,256.44s1.6-1.29-.13-1.92-10.22-.46-10.3,8c0,0,9.88,1.64,11.1-1.56S684.16,256.44,684.16,256.44Z" fill="#ececec"/>
        <path id="Trazado_109500" data-name="Trazado 109500" d="M704.32,237.58s-1.61-1.29.12-1.92,10.22-.45,10.31,8c0,0-9.89,1.65-11.11-1.56S704.32,237.58,704.32,237.58Z" fill="#ececec"/>
        <path id="Trazado_109501" data-name="Trazado 109501" d="M699.09,244.36s-.14-1.58,1.13-1,5.69,5.39,1.11,9.92c0,0-6.18-4.57-5.06-6.95S699.09,244.36,699.09,244.36Z" fill="#ececec"/>
        <path id="Trazado_109502" data-name="Trazado 109502" d="M682.73,246.6s.95-1.26-.45-1.41-7.69,1.52-6.23,7.8c0,0,7.66-.58,8-3.18S682.73,246.6,682.73,246.6Z" fill="#ececec"/>
        <path id="Trazado_109503" data-name="Trazado 109503" d="M708.61,305.31H682.32l-2.83-28.78h31.96Z" fill="#f0f0f0"/>
        <rect id="Rectángulo_8771" data-name="Rectángulo 8771" width="34.77" height="6.35" transform="translate(678.08 273.36)" fill="#e7e7e7"/>
      </g>
      <g id="Grupo_58281" data-name="Grupo 58281">
        <rect id="Rectángulo_8772" data-name="Rectángulo 8772" width="95.49" height="102.78" transform="translate(693.52 311.46)" fill="#e7e7e7"/>
        <rect id="Rectángulo_8773" data-name="Rectángulo 8773" width="12" height="123.77" transform="translate(791.59 303.82)" fill="#e7e7e7"/>
        <rect id="Rectángulo_8774" data-name="Rectángulo 8774" width="7.82" height="38.41" transform="translate(708.72 319.55)" fill="#fafafa"/>
        <rect id="Rectángulo_8775" data-name="Rectángulo 8775" width="7.82" height="38.41" transform="translate(741.16 319.55)" fill="#f5f5f5"/>
        <rect id="Rectángulo_8776" data-name="Rectángulo 8776" width="7.82" height="35.71" transform="translate(716.55 322.25)" fill="#f5f5f5"/>
        <rect id="Rectángulo_8777" data-name="Rectángulo 8777" width="7.82" height="35.71" transform="translate(733.34 322.25)" fill="#fafafa"/>
        <rect id="Rectángulo_8778" data-name="Rectángulo 8778" width="5.06" height="38.41" transform="translate(728.28 319.55)" fill="#ececec"/>
        <rect id="Rectángulo_8779" data-name="Rectángulo 8779" width="3.91" height="35.71" transform="translate(724.37 322.25)" fill="#fafafa"/>
        <rect id="Rectángulo_8780" data-name="Rectángulo 8780" width="7.82" height="38.41" transform="translate(748.99 319.55)" fill="#ececec"/>
        <rect id="Rectángulo_8781" data-name="Rectángulo 8781" width="7.82" height="35.71" transform="translate(756.81 322.25)" fill="#e7e7e7"/>
        <rect id="Rectángulo_8782" data-name="Rectángulo 8782" width="7.82" height="35.71" transform="translate(773.6 322.25)" fill="#e7e7e7"/>
        <rect id="Rectángulo_8783" data-name="Rectángulo 8783" width="5.06" height="38.41" transform="translate(768.55 319.55)" fill="#fafafa"/>
        <rect id="Rectángulo_8784" data-name="Rectángulo 8784" width="3.91" height="35.71" transform="translate(764.64 322.25)" fill="#ececec"/>
        <rect id="Rectángulo_8785" data-name="Rectángulo 8785" width="3.91" height="37.5" transform="translate(781.43 320.46)" fill="#fafafa"/>
        <rect id="Rectángulo_8786" data-name="Rectángulo 8786" width="7.82" height="38.41" transform="translate(785.34 409.45) rotate(180)" fill="#fafafa"/>
        <rect id="Rectángulo_8787" data-name="Rectángulo 8787" width="7.82" height="38.41" transform="translate(752.89 409.45) rotate(180)" fill="#fafafa"/>
        <rect id="Rectángulo_8788" data-name="Rectángulo 8788" width="7.82" height="35.71" transform="translate(777.52 409.45) rotate(180)" fill="#f0f0f0"/>
        <rect id="Rectángulo_8789" data-name="Rectángulo 8789" width="7.82" height="35.71" transform="translate(760.72 409.45) rotate(180)" fill="#ececec"/>
        <rect id="Rectángulo_8790" data-name="Rectángulo 8790" width="5.06" height="38.41" transform="translate(765.78 409.45) rotate(180)" fill="#fafafa"/>
        <rect id="Rectángulo_8791" data-name="Rectángulo 8791" width="3.91" height="35.71" transform="translate(769.69 409.45) rotate(180)" fill="#f5f5f5"/>
        <rect id="Rectángulo_8792" data-name="Rectángulo 8792" width="7.82" height="38.41" transform="translate(745.08 409.45) rotate(180)" fill="#ececec"/>
        <rect id="Rectángulo_8793" data-name="Rectángulo 8793" width="7.82" height="35.71" transform="translate(737.25 409.45) rotate(180)" fill="#f5f5f5"/>
        <rect id="Rectángulo_8794" data-name="Rectángulo 8794" width="7.82" height="35.71" transform="translate(720.46 409.45) rotate(180)" fill="#e7e7e7"/>
        <rect id="Rectángulo_8795" data-name="Rectángulo 8795" width="5.06" height="38.41" transform="translate(725.51 409.45) rotate(180)" fill="#fafafa"/>
        <rect id="Rectángulo_8796" data-name="Rectángulo 8796" width="5.06" height="38.41" transform="translate(708.72 409.45) rotate(180)" fill="#fafafa"/>
        <rect id="Rectángulo_8797" data-name="Rectángulo 8797" width="3.91" height="35.71" transform="translate(729.43 409.45) rotate(180)" fill="#ececec"/>
        <rect id="Rectángulo_8798" data-name="Rectángulo 8798" width="3.91" height="37.5" transform="translate(712.64 409.45) rotate(180)" fill="#f0f0f0"/>
        <path id="Trazado_109504" data-name="Trazado 109504" d="M788.53,303.82h-98V420.65h94.83v6.93h6.4V303.82Zm-3.2,105.62h-88.8v-45h88.8Zm0-51.43h-88.8V315h88.8Z" fill="#f0f0f0"/>
        <rect id="Rectángulo_8799" data-name="Rectángulo 8799" width="95.49" height="102.78" transform="translate(693.37 414.25) rotate(180)" fill="#e7e7e7"/>
        <rect id="Rectángulo_8800" data-name="Rectángulo 8800" width="12" height="8.19" transform="translate(613.55 427.58) rotate(180)" fill="#e7e7e7"/>
        <rect id="Rectángulo_8801" data-name="Rectángulo 8801" width="7.82" height="38.41" transform="translate(690.15 357.97) rotate(180)" fill="#fafafa"/>
        <rect id="Rectángulo_8802" data-name="Rectángulo 8802" width="7.82" height="38.41" transform="translate(657.71 357.97) rotate(180)" fill="#f5f5f5"/>
        <rect id="Rectángulo_8803" data-name="Rectángulo 8803" width="7.82" height="35.71" transform="translate(682.32 357.97) rotate(180)" fill="#f5f5f5"/>
        <rect id="Rectángulo_8804" data-name="Rectángulo 8804" width="7.82" height="35.71" transform="translate(665.53 357.97) rotate(180)" fill="#fafafa"/>
        <rect id="Rectángulo_8805" data-name="Rectángulo 8805" width="5.06" height="38.41" transform="translate(670.59 357.97) rotate(180)" fill="#ececec"/>
        <rect id="Rectángulo_8806" data-name="Rectángulo 8806" width="3.91" height="35.71" transform="translate(674.5 357.97) rotate(180)" fill="#fafafa"/>
        <rect id="Rectángulo_8807" data-name="Rectángulo 8807" width="7.82" height="38.41" transform="translate(655.04 357.97) rotate(180)" fill="#ececec"/>
        <rect id="Rectángulo_8808" data-name="Rectángulo 8808" width="7.82" height="35.71" transform="translate(647.22 357.97) rotate(180)" fill="#e7e7e7"/>
        <rect id="Rectángulo_8809" data-name="Rectángulo 8809" width="7.82" height="35.71" transform="translate(630.42 357.97) rotate(180)" fill="#e7e7e7"/>
        <rect id="Rectángulo_8810" data-name="Rectángulo 8810" width="5.06" height="38.41" transform="translate(635.48 357.97) rotate(180)" fill="#fafafa"/>
        <rect id="Rectángulo_8811" data-name="Rectángulo 8811" width="3.91" height="35.71" transform="translate(639.39 357.97) rotate(180)" fill="#ececec"/>
        <rect id="Rectángulo_8812" data-name="Rectángulo 8812" width="3.91" height="37.5" transform="translate(622.59 357.97) rotate(180)" fill="#f5f5f5"/>
        <rect id="Rectángulo_8813" data-name="Rectángulo 8813" width="7.82" height="38.41" transform="translate(615.01 371.03)" fill="#fafafa"/>
        <rect id="Rectángulo_8814" data-name="Rectángulo 8814" width="7.82" height="38.41" transform="translate(647.45 371.03)" fill="#fafafa"/>
        <rect id="Rectángulo_8815" data-name="Rectángulo 8815" width="7.82" height="35.71" transform="translate(622.84 373.73)" fill="#f5f5f5"/>
        <rect id="Rectángulo_8816" data-name="Rectángulo 8816" width="7.82" height="35.71" transform="translate(639.63 373.73)" fill="#ececec"/>
        <rect id="Rectángulo_8817" data-name="Rectángulo 8817" width="5.06" height="38.41" transform="translate(634.57 371.03)" fill="#fafafa"/>
        <rect id="Rectángulo_8818" data-name="Rectángulo 8818" width="3.91" height="35.71" transform="translate(630.66 373.73)" fill="#f5f5f5"/>
        <rect id="Rectángulo_8819" data-name="Rectángulo 8819" width="7.82" height="38.41" transform="translate(650.12 371.03)" fill="#ececec"/>
        <rect id="Rectángulo_8820" data-name="Rectángulo 8820" width="7.82" height="35.71" transform="translate(657.94 373.73)" fill="#f5f5f5"/>
        <rect id="Rectángulo_8821" data-name="Rectángulo 8821" width="7.82" height="35.71" transform="translate(674.74 373.73)" fill="#e7e7e7"/>
        <rect id="Rectángulo_8822" data-name="Rectángulo 8822" width="5.06" height="38.41" transform="translate(669.68 371.03)" fill="#fafafa"/>
        <rect id="Rectángulo_8823" data-name="Rectángulo 8823" width="5.06" height="38.41" transform="translate(685.44 371.03)" fill="#fafafa"/>
        <rect id="Rectángulo_8824" data-name="Rectángulo 8824" width="3.91" height="35.71" transform="translate(665.77 373.73)" fill="#ececec"/>
        <rect id="Rectángulo_8825" data-name="Rectángulo 8825" width="3.91" height="37.5" transform="translate(682.56 371.94)" fill="#ececec"/>
        <path id="Trazado_109505" data-name="Trazado 109505" d="M595.15,303.82V427.58h6.4v-6.93h94.84V303.82Zm6.4,60.59h88.8v45h-88.8Zm0-49.39h88.8v43h-88.8Z" fill="#f0f0f0"/>
      </g>
    </g>
    <ellipse id="_Path_" data-name="&lt;Path&gt;" cx="312.5" cy="18.25" rx="312.5" ry="18.25" transform="translate(195.14 448.92)" fill="#f5f5f5"/>
    <g id="Grupo_58292" data-name="Grupo 58292">
      <path id="Trazado_109506" data-name="Trazado 109506" d="M905.26,349H735a5.85,5.85,0,0,1-5.9-6.28L743.36,91.34A6.72,6.72,0,0,1,750,85.06H920.29a5.86,5.86,0,0,1,5.9,6.28L911.88,342.71a6.72,6.72,0,0,1-6.62,6.29Z" fill="#344154"/>
      <path id="Trazado_109507" data-name="Trazado 109507" d="M905.26,349H735a5.85,5.85,0,0,1-5.9-6.28L743.36,91.34A6.72,6.72,0,0,1,750,85.06H920.29a5.86,5.86,0,0,1,5.9,6.28L911.88,342.71a6.72,6.72,0,0,1-6.62,6.29Z" opacity="0.3"/>
      <path id="Trazado_109508" data-name="Trazado 109508" d="M922.4,91.34,908.09,342.71a6.71,6.71,0,0,1-6.61,6.29H731.17a5.85,5.85,0,0,1-5.89-6.29l3.61-63.59,10.7-187.78a6.68,6.68,0,0,1,6.61-6.28H916.51a5.85,5.85,0,0,1,5.89,6.28Z" fill="#344154"/>
      <path id="Trazado_109509" data-name="Trazado 109509" d="M918,169.06l-9.89,173.66a6.7,6.7,0,0,1-6.6,6.27H731.17a5.85,5.85,0,0,1-5.89-6.27l9.88-173.66Z" fill="#fff" opacity="0.3"/>
      <path id="Trazado_109510" data-name="Trazado 109510" d="M901.34,158.56H753l2.22-39.06H903.56Z" fill="#fff" opacity="0.4"/>
      <path id="Trazado_109511" data-name="Trazado 109511" d="M896.85,101.55h7.73l-.7,12.33h-7.73Z" fill="#fff" opacity="0.2"/>
      <path id="Trazado_109512" data-name="Trazado 109512" d="M887.81,101.55h7.73l-.7,12.33h-7.73Z" fill="#fff" opacity="0.2"/>
      <path id="Trazado_109513" data-name="Trazado 109513" d="M878.76,101.55h7.73l-.7,12.33h-7.73Z" fill="#fff" opacity="0.2"/>
      <path id="Trazado_109514" data-name="Trazado 109514" d="M869.72,101.55h7.73l-.7,12.33h-7.73Z" fill="#fff" opacity="0.2"/>
      <path id="Trazado_109515" data-name="Trazado 109515" d="M860.67,101.55h7.73l-.7,12.33h-7.73Z" fill="#fff" opacity="0.2"/>
      <path id="Trazado_109516" data-name="Trazado 109516" d="M851.63,101.55h7.73l-.7,12.33h-7.73Z" fill="#fff" opacity="0.2"/>
      <path id="Trazado_109517" data-name="Trazado 109517" d="M780.84,109.55H755.79l.3-5.23h25.04Z" fill="#fff" opacity="0.3"/>
      <g id="Grupo_58285" data-name="Grupo 58285">
        <g id="Grupo_58283" data-name="Grupo 58283">
          <path id="Trazado_109518" data-name="Trazado 109518" d="M823.94,148.8l-.09,1.65h-9.6l.08-1.29,5.75-5.21c1.49-1.36,1.81-2.2,1.86-3,.08-1.36-.84-2.2-2.71-2.2a4.49,4.49,0,0,0-3.5,1.44l-1.23-1.11a6.54,6.54,0,0,1,5-2c2.78,0,4.49,1.42,4.36,3.69-.08,1.29-.53,2.44-2.45,4.17l-4.31,3.9Z" fill="#344154"/>
          <path id="Trazado_109519" data-name="Trazado 109519" d="M825.64,149.25A1.36,1.36,0,0,1,827,148a1.16,1.16,0,0,1,1.18,1.28,1.36,1.36,0,0,1-1.33,1.31,1.2,1.2,0,0,1-1.21-1.34Z" fill="#344154"/>
          <path id="Trazado_109520" data-name="Trazado 109520" d="M841.57,147.19H839l-.19,3.26H837l.19-3.26h-7.41l.08-1.33,7.34-8.67h2.06l-7,8.37h5.13l.17-2.88h1.79l-.17,2.88h2.54Z" fill="#344154"/>
          <path id="Trazado_109521" data-name="Trazado 109521" d="M842.92,143.82c.26-4.32,2.73-6.78,5.86-6.78s5.29,2.46,5,6.78-2.73,6.78-5.84,6.78S842.66,148.14,842.92,143.82Zm9,0c.2-3.39-1.14-5.1-3.22-5.1s-3.65,1.71-3.85,5.1,1.14,5.09,3.24,5.09,3.61-1.7,3.81-5.09Z" fill="#344154"/>
          <path id="Trazado_109522" data-name="Trazado 109522" d="M855.64,143.82c.26-4.32,2.73-6.78,5.86-6.78s5.29,2.46,5,6.78-2.73,6.78-5.84,6.78S855.38,148.14,855.64,143.82Zm9,0c.21-3.39-1.14-5.1-3.22-5.1s-3.65,1.71-3.85,5.1,1.14,5.09,3.24,5.09,3.61-1.7,3.81-5.09Z" fill="#344154"/>
          <path id="Trazado_109523" data-name="Trazado 109523" d="M867.77,149.25a1.37,1.37,0,0,1,1.38-1.28,1.17,1.17,0,0,1,1.18,1.28,1.37,1.37,0,0,1-1.34,1.31,1.21,1.21,0,0,1-1.22-1.31Z" fill="#344154"/>
          <path id="Trazado_109524" data-name="Trazado 109524" d="M883,146.7c-.14,2.4-2.29,3.9-5.55,3.9s-5.2-1.5-5.05-3.9a3.54,3.54,0,0,1,2.54-3.2,2.79,2.79,0,0,1-1.7-2.86c.13-2.22,2.14-3.6,5-3.6s4.76,1.38,4.63,3.6a3.27,3.27,0,0,1-2.06,2.86A3.06,3.06,0,0,1,883,146.7Zm-1.9-.06c.08-1.46-1.16-2.37-3.27-2.37s-3.43.91-3.52,2.37,1.11,2.42,3.23,2.42,3.46-.92,3.57-2.42Zm-6-5.93c-.08,1.31,1,2.12,2.79,2.12s3-.81,3.1-2.12-1-2.14-2.84-2.14-2.94.82-3.02,2.14Z" fill="#344154"/>
          <path id="Trazado_109525" data-name="Trazado 109525" d="M894.89,143.65c-.27,4.52-3,6.95-6.73,6.95a6.19,6.19,0,0,1-3.27-.78l.81-1.48a4.49,4.49,0,0,0,2.54.63c2.7,0,4.52-1.69,4.72-5v-.47a4.77,4.77,0,0,1-4,1.74c-2.65,0-4.46-1.57-4.31-4s2.3-4.18,5-4.18C893.26,137,895.14,139.42,894.89,143.65Zm-2.2-2.52c.08-1.36-1-2.56-3-2.56a2.81,2.81,0,0,0-3.09,2.58c-.09,1.55,1,2.56,2.88,2.56a3,3,0,0,0,3.21-2.58Z" fill="#344154"/>
        </g>
        <g id="Grupo_58284" data-name="Grupo 58284">
          <path id="Trazado_109526" data-name="Trazado 109526" d="M834.25,126l-.32,5.34h-.76l.28-4.68h-1.22V126Z" fill="#344154"/>
          <path id="Trazado_109527" data-name="Trazado 109527" d="M835.12,130.89a.56.56,0,0,1,.56-.52.47.47,0,0,1,.47.52.54.54,0,0,1-.54.53.48.48,0,0,1-.49-.53Z" fill="#344154"/>
          <path id="Trazado_109528" data-name="Trazado 109528" d="M838.75,126l-.32,5.34h-.76l.28-4.68h-1.22V126Z" fill="#344154"/>
          <path id="Trazado_109529" data-name="Trazado 109529" d="M839.77,128.7c.1-1.74,1.1-2.73,2.36-2.73s2.14,1,2,2.73-1.11,2.74-2.36,2.74S839.66,130.44,839.77,128.7Zm3.63,0c.08-1.36-.47-2-1.31-2s-1.47.69-1.55,2,.46,2.06,1.31,2.06S843.31,130.07,843.4,128.7Z" fill="#344154"/>
          <path id="Trazado_109530" data-name="Trazado 109530" d="M844.9,128.7c.1-1.7,1.1-2.7,2.37-2.7s2.14,1,2,2.73-1.1,2.74-2.36,2.74S844.8,130.44,844.9,128.7Zm3.63,0c.08-1.36-.46-2-1.3-2s-1.48.69-1.56,2,.47,2.06,1.31,2.06S848.45,130.07,848.53,128.7Z" fill="#344154"/>
          <path id="Trazado_109531" data-name="Trazado 109531" d="M849.8,130.89a.56.56,0,0,1,.56-.52.47.47,0,0,1,.47.52.55.55,0,0,1-.54.53.48.48,0,0,1-.49-.53Z" fill="#344154"/>
          <path id="Trazado_109532" data-name="Trazado 109532" d="M856,129.86c-.06,1-.93,1.58-2.25,1.58s-2.1-.61-2-1.58a1.43,1.43,0,0,1,1-1.29,1.12,1.12,0,0,1-.69-1.15c0-.89.86-1.45,2-1.45s1.92.56,1.87,1.45a1.31,1.31,0,0,1-.83,1.15A1.25,1.25,0,0,1,856,129.86Zm-.77,0c0-.59-.47-1-1.33-1s-1.38.37-1.42,1,.45,1,1.31,1,1.36-.42,1.4-1.02Zm-2.42-2.39c0,.53.39.85,1.13.85s1.22-.32,1.25-.85-.42-.86-1.15-.86-1.24.3-1.27.84Z" fill="#344154"/>
          <path id="Trazado_109533" data-name="Trazado 109533" d="M856.73,128.7c.11-1.74,1.1-2.73,2.37-2.73s2.14,1,2,2.73-1.1,2.74-2.36,2.74S856.63,130.44,856.73,128.7Zm3.63,0c.08-1.36-.46-2-1.3-2s-1.48.69-1.56,2,.46,2.06,1.31,2.06S860.28,130.07,860.36,128.7Z" fill="#344154"/>
          <path id="Trazado_109534" data-name="Trazado 109534" d="M865.5,129h-1.4l-.08,1.36h-.65l.08-1.36h-1.4v-.61h1.4l.08-1.37h.65l-.08,1.37h1.4Z" fill="#344154"/>
          <path id="Trazado_109535" data-name="Trazado 109535" d="M868.1,126l-.32,5.34H867l.28-4.68h-1.21V126Z" fill="#344154"/>
          <path id="Trazado_109536" data-name="Trazado 109536" d="M869,130.89a.56.56,0,0,1,.55-.52.47.47,0,0,1,.48.52.55.55,0,0,1-.54.53.48.48,0,0,1-.49-.53Z" fill="#344154"/>
          <path id="Trazado_109537" data-name="Trazado 109537" d="M874.57,129.8c-.06.9-.77,1.64-2.14,1.64a3,3,0,0,1-1.95-.65l.39-.61a2.32,2.32,0,0,0,1.6.58c.81,0,1.29-.37,1.32-.95s-.35-.93-1.27-.93h-.44v-.54l1.45-1.65H871v-.66h3.57v.52L873,128.27C874.1,128.37,874.62,129,874.57,129.8Z" fill="#344154"/>
          <path id="Trazado_109538" data-name="Trazado 109538" d="M875.34,128.7c.11-1.74,1.11-2.73,2.37-2.73s2.14,1,2,2.73-1.11,2.74-2.36,2.74S875.24,130.44,875.34,128.7Zm3.63,0c.09-1.36-.46-2-1.3-2s-1.47.69-1.55,2,.46,2.06,1.31,2.06,1.46-.69,1.57-2.06Z" fill="#344154"/>
          <path id="Trazado_109539" data-name="Trazado 109539" d="M880.48,128.7c.11-1.74,1.1-2.73,2.37-2.73s2.14,1,2,2.73-1.1,2.74-2.36,2.74S880.38,130.44,880.48,128.7Zm3.63,0c.08-1.36-.46-2-1.3-2s-1.48.69-1.56,2,.47,2.06,1.31,2.06S884,130.07,884.11,128.7Z" fill="#344154"/>
          <path id="Trazado_109540" data-name="Trazado 109540" d="M885.38,130.89a.56.56,0,0,1,.55-.52.47.47,0,0,1,.48.52.55.55,0,0,1-.54.53.48.48,0,0,1-.49-.53Z" fill="#344154"/>
          <path id="Trazado_109541" data-name="Trazado 109541" d="M887.18,128.7c.11-1.74,1.1-2.73,2.37-2.73s2.14,1,2,2.73-1.1,2.74-2.36,2.74S887.08,130.44,887.18,128.7Zm3.63,0c.08-1.36-.46-2-1.3-2s-1.48.69-1.56,2,.47,2.06,1.31,2.06S890.73,130.07,890.81,128.7Z" fill="#344154"/>
          <path id="Trazado_109542" data-name="Trazado 109542" d="M896.34,128.63a2.66,2.66,0,0,1-2.72,2.81,2.44,2.44,0,0,1-1.32-.32l.32-.59a1.9,1.9,0,0,0,1,.25,1.855,1.855,0,0,0,1.91-2v-.19a1.91,1.91,0,0,1-1.6.7c-1.07,0-1.8-.63-1.74-1.61a1.86,1.86,0,0,1,2-1.69C895.68,126,896.44,126.93,896.34,128.63Zm-.89-1c0-.55-.39-1-1.23-1a1.12,1.12,0,0,0-1.24,1c0,.62.4,1,1.16,1a1.2,1.2,0,0,0,1.31-1.01Z" fill="#344154"/>
        </g>
      </g>
      <path id="Trazado_109543" data-name="Trazado 109543" d="M909.83,85.06c-16.11,40.08-65.7,138.33-180.94,194.06l10.7-187.78a6.68,6.68,0,0,1,6.61-6.28Z" fill="#fff" opacity="0.1"/>
      <g id="Grupo_58291" data-name="Grupo 58291">
        <g id="Grupo_58288" data-name="Grupo 58288">
          <g id="Grupo_58286" data-name="Grupo 58286">
            <path id="Trazado_109544" data-name="Trazado 109544" d="M898.42,180.35H879.8a2.7,2.7,0,0,0-2.66,2.52l-.37,6.46a2.36,2.36,0,0,0,2.37,2.52h18.62a2.69,2.69,0,0,0,2.66-2.52l.37-6.46a2.35,2.35,0,0,0-2.37-2.52Z" fill="#344154"/>
            <path id="Trazado_109545" data-name="Trazado 109545" d="M866.84,180.24H848.21a2.69,2.69,0,0,0-2.65,2.51l-.37,6.47a2.35,2.35,0,0,0,2.37,2.52h18.62a2.68,2.68,0,0,0,2.65-2.52l.37-6.47a2.34,2.34,0,0,0-2.36-2.51Z" fill="#344154"/>
            <path id="Trazado_109546" data-name="Trazado 109546" d="M897.4,198.31H878.77a2.7,2.7,0,0,0-2.65,2.52l-.37,6.46a2.35,2.35,0,0,0,2.37,2.52h18.62a2.7,2.7,0,0,0,2.66-2.52l.36-6.46a2.35,2.35,0,0,0-2.36-2.52Z" fill="#344154"/>
            <path id="Trazado_109547" data-name="Trazado 109547" d="M865.81,198.19H847.19a2.69,2.69,0,0,0-2.65,2.52l-.37,6.47a2.34,2.34,0,0,0,2.37,2.51h18.62a2.69,2.69,0,0,0,2.65-2.51l.37-6.47a2.35,2.35,0,0,0-2.37-2.52Z" fill="#344154"/>
            <path id="Trazado_109548" data-name="Trazado 109548" d="M834.22,198.31H815.59a2.7,2.7,0,0,0-2.65,2.52l-.37,6.46a2.35,2.35,0,0,0,2.37,2.52h18.62a2.7,2.7,0,0,0,2.66-2.52l.36-6.46a2.35,2.35,0,0,0-2.36-2.52Z" fill="#344154"/>
            <path id="Trazado_109549" data-name="Trazado 109549" d="M802.62,198.43H784a2.7,2.7,0,0,0-2.66,2.52l-.36,6.46a2.35,2.35,0,0,0,2.36,2.52H802a2.7,2.7,0,0,0,2.66-2.52L805,201a2.35,2.35,0,0,0-2.38-2.57Z" fill="#344154"/>
            <path id="Trazado_109550" data-name="Trazado 109550" d="M771,198.54H752.4a2.69,2.69,0,0,0-2.65,2.52l-.37,6.47a2.35,2.35,0,0,0,2.37,2.52h18.62a2.7,2.7,0,0,0,2.65-2.52l.37-6.47a2.35,2.35,0,0,0-2.39-2.52Z" fill="#344154"/>
            <path id="Trazado_109551" data-name="Trazado 109551" d="M895.56,222.41H877.87a3.21,3.21,0,0,0-3.15,3l-.52,9.12a2.8,2.8,0,0,0,2.81,3H894.7a3.21,3.21,0,0,0,3.15-3l.52-9.12a2.8,2.8,0,0,0-2.81-3Z" fill="#344154"/>
            <path id="Trazado_109552" data-name="Trazado 109552" d="M864,222.26H846.29a3.19,3.19,0,0,0-3.15,3l-.52,9.12a2.79,2.79,0,0,0,2.81,3h17.69a3.19,3.19,0,0,0,3.14-3l.52-9.12a2.78,2.78,0,0,0-2.78-3Z" fill="#344154"/>
            <path id="Trazado_109553" data-name="Trazado 109553" d="M832.38,222.41H814.69a3.21,3.21,0,0,0-3.15,3l-.52,9.12a2.8,2.8,0,0,0,2.81,3h17.69a3.21,3.21,0,0,0,3.15-3l.51-9.12a2.78,2.78,0,0,0-2.8-3Z" fill="#344154"/>
            <path id="Trazado_109554" data-name="Trazado 109554" d="M800.78,222.57H783.09a3.21,3.21,0,0,0-3.15,3l-.52,9.11a2.8,2.8,0,0,0,2.81,3h17.69a3.21,3.21,0,0,0,3.15-3l.52-9.11a2.8,2.8,0,0,0-2.81-3Z" fill="#344154"/>
            <path id="Trazado_109555" data-name="Trazado 109555" d="M769.18,222.72H751.49a3.21,3.21,0,0,0-3.15,3l-.52,9.12a2.8,2.8,0,0,0,2.81,3h17.69a3.21,3.21,0,0,0,3.15-3l.52-9.12a2.8,2.8,0,0,0-2.81-3Z" fill="#344154"/>
            <path id="Trazado_109556" data-name="Trazado 109556" d="M858.72,314.64H841a3.2,3.2,0,0,0-3.15,3l-.52,9.12a2.79,2.79,0,0,0,2.81,3h17.69a3.2,3.2,0,0,0,3.15-3l.51-9.12a2.78,2.78,0,0,0-2.77-3Z" fill="#344154"/>
            <path id="Trazado_109557" data-name="Trazado 109557" d="M827.12,314.79H809.43a3.21,3.21,0,0,0-3.15,3l-.52,9.12a2.8,2.8,0,0,0,2.81,3h17.69a3.21,3.21,0,0,0,3.15-3l.52-9.12a2.8,2.8,0,0,0-2.81-3Z" fill="#344154"/>
            <path id="Trazado_109558" data-name="Trazado 109558" d="M795.52,315H777.83a3.21,3.21,0,0,0-3.15,3l-.52,9.11a2.8,2.8,0,0,0,2.81,3h17.69a3.21,3.21,0,0,0,3.15-3l.52-9.11a2.8,2.8,0,0,0-2.81-3Z" fill="#344154"/>
            <path id="Trazado_109559" data-name="Trazado 109559" d="M763.92,315.1H746.23a3.21,3.21,0,0,0-3.15,3l-.51,9.12a2.78,2.78,0,0,0,2.8,3h17.69a3.21,3.21,0,0,0,3.15-3l.52-9.12a2.8,2.8,0,0,0-2.81-3Z" fill="#344154"/>
            <path id="Trazado_109560" data-name="Trazado 109560" d="M891.61,291.7H873.93a3.19,3.19,0,0,0-3.15,3l-.45,7.92-.07,1.19-1.32,23.1a2.8,2.8,0,0,0,2.81,3h17.69a3.21,3.21,0,0,0,3.15-3l1.31-23.1.07-1.19.45-7.92a2.79,2.79,0,0,0-2.81-3Z" fill="#344154"/>
            <path id="Trazado_109561" data-name="Trazado 109561" d="M860,291.54H842.35a3.19,3.19,0,0,0-3.15,3l-.52,9.12a2.78,2.78,0,0,0,2.81,3h17.68a3.19,3.19,0,0,0,3.15-3l.52-9.12a2.79,2.79,0,0,0-2.84-3Z" fill="#344154"/>
            <path id="Trazado_109562" data-name="Trazado 109562" d="M828.43,291.7H810.75a3.19,3.19,0,0,0-3.15,3l-.52,9.11a2.78,2.78,0,0,0,2.81,3h17.68a3.19,3.19,0,0,0,3.15-3l.52-9.11a2.79,2.79,0,0,0-2.81-3Z" fill="#344154"/>
            <path id="Trazado_109563" data-name="Trazado 109563" d="M796.83,291.85H779.15a3.19,3.19,0,0,0-3.15,3l-.52,9.12a2.79,2.79,0,0,0,2.81,3H796a3.19,3.19,0,0,0,3.15-3l.52-9.12a2.78,2.78,0,0,0-2.84-3Z" fill="#344154"/>
            <path id="Trazado_109564" data-name="Trazado 109564" d="M765.23,292H747.55a3.19,3.19,0,0,0-3.15,3l-.52,9.11a2.79,2.79,0,0,0,2.81,3h17.68a3.19,3.19,0,0,0,3.15-3L768,295a2.78,2.78,0,0,0-2.77-3Z" fill="#344154"/>
            <path id="Trazado_109565" data-name="Trazado 109565" d="M892.93,268.6H875.24a3.21,3.21,0,0,0-3.15,3l-.52,9.12a2.8,2.8,0,0,0,2.81,3h17.69a3.21,3.21,0,0,0,3.15-3l.52-9.12a2.8,2.8,0,0,0-2.81-3Z" fill="#344154"/>
            <path id="Trazado_109566" data-name="Trazado 109566" d="M861.35,268.45H843.66a3.19,3.19,0,0,0-3.15,3l-.52,9.12a2.79,2.79,0,0,0,2.81,3h17.69a3.2,3.2,0,0,0,3.15-3l.51-9.12a2.78,2.78,0,0,0-2.8-3Z" fill="#344154"/>
            <path id="Trazado_109567" data-name="Trazado 109567" d="M829.75,268.6H812.06a3.21,3.21,0,0,0-3.15,3l-.52,9.12a2.8,2.8,0,0,0,2.81,3h17.69a3.21,3.21,0,0,0,3.15-3l.52-9.12a2.8,2.8,0,0,0-2.81-3Z" fill="#344154"/>
            <path id="Trazado_109568" data-name="Trazado 109568" d="M798.15,268.76H780.46a3.21,3.21,0,0,0-3.15,3l-.52,9.11a2.8,2.8,0,0,0,2.81,3h17.69a3.21,3.21,0,0,0,3.15-3l.52-9.11a2.8,2.8,0,0,0-2.81-3Z" fill="#344154"/>
            <path id="Trazado_109569" data-name="Trazado 109569" d="M766.55,268.91H748.86a3.21,3.21,0,0,0-3.15,3l-.52,9.12a2.8,2.8,0,0,0,2.81,3h17.69a3.21,3.21,0,0,0,3.15-3l.52-9.12a2.8,2.8,0,0,0-2.81-3Z" fill="#344154"/>
            <path id="Trazado_109570" data-name="Trazado 109570" d="M894.24,245.51H876.56a3.19,3.19,0,0,0-3.15,3l-.52,9.11a2.78,2.78,0,0,0,2.81,3h17.68a3.19,3.19,0,0,0,3.15-3l.52-9.11a2.79,2.79,0,0,0-2.81-3Z" fill="#344154"/>
            <path id="Trazado_109571" data-name="Trazado 109571" d="M862.66,245.36H845a3.18,3.18,0,0,0-3.14,3l-.52,9.12a2.78,2.78,0,0,0,2.81,3H861.8a3.19,3.19,0,0,0,3.15-3l.52-9.12a2.78,2.78,0,0,0-2.81-3Z" fill="#344154"/>
            <path id="Trazado_109572" data-name="Trazado 109572" d="M831.06,245.51H813.38a3.19,3.19,0,0,0-3.15,3l-.52,9.11a2.78,2.78,0,0,0,2.81,3H830.2a3.19,3.19,0,0,0,3.15-3l.52-9.11a2.79,2.79,0,0,0-2.81-3Z" fill="#344154"/>
            <path id="Trazado_109573" data-name="Trazado 109573" d="M799.46,245.66H781.78a3.19,3.19,0,0,0-3.15,3l-.52,9.12a2.78,2.78,0,0,0,2.81,3H798.6a3.19,3.19,0,0,0,3.15-3l.52-9.12a2.79,2.79,0,0,0-2.81-3Z" fill="#344154"/>
            <path id="Trazado_109574" data-name="Trazado 109574" d="M767.86,245.82H750.18a3.19,3.19,0,0,0-3.15,3l-.52,9.11a2.79,2.79,0,0,0,2.81,3H767a3.19,3.19,0,0,0,3.15-3l.52-9.11a2.78,2.78,0,0,0-2.81-3Z" fill="#344154"/>
          </g>
          <path id="Trazado_109575" data-name="Trazado 109575" d="M897.16,180.35H878.54a2.7,2.7,0,0,0-2.66,2.52l-.36,6.46a2.34,2.34,0,0,0,2.36,2.52H896.5a2.69,2.69,0,0,0,2.66-2.52l.37-6.46a2.35,2.35,0,0,0-2.37-2.52Z" fill="#344154"/>
          <path id="Trazado_109576" data-name="Trazado 109576" d="M865.58,180.24H847a2.69,2.69,0,0,0-2.65,2.51l-.37,6.47a2.35,2.35,0,0,0,2.37,2.52h18.62a2.7,2.7,0,0,0,2.66-2.52l.36-6.47a2.34,2.34,0,0,0-2.41-2.51Z" fill="#344154"/>
          <path id="Trazado_109577" data-name="Trazado 109577" d="M896.14,198.31H877.52a2.7,2.7,0,0,0-2.66,2.52l-.37,6.46a2.35,2.35,0,0,0,2.37,2.52h18.62a2.7,2.7,0,0,0,2.66-2.52l.36-6.46a2.35,2.35,0,0,0-2.36-2.52Z" fill="#344154"/>
          <path id="Trazado_109578" data-name="Trazado 109578" d="M864.55,198.19H845.93a2.69,2.69,0,0,0-2.65,2.52l-.37,6.47a2.34,2.34,0,0,0,2.37,2.51H863.9a2.68,2.68,0,0,0,2.65-2.51l.37-6.47a2.35,2.35,0,0,0-2.37-2.52Z" fill="#344154"/>
          <path id="Trazado_109579" data-name="Trazado 109579" d="M833,198.31H814.33a2.7,2.7,0,0,0-2.65,2.52l-.37,6.46a2.35,2.35,0,0,0,2.37,2.52H832.3a2.7,2.7,0,0,0,2.66-2.52l.36-6.46a2.35,2.35,0,0,0-2.32-2.52Z" fill="#344154"/>
          <path id="Trazado_109580" data-name="Trazado 109580" d="M801.36,198.43H782.74a2.7,2.7,0,0,0-2.66,2.52l-.36,6.46a2.35,2.35,0,0,0,2.36,2.52H800.7a2.7,2.7,0,0,0,2.66-2.52l.37-6.46a2.35,2.35,0,0,0-2.37-2.52Z" fill="#344154"/>
          <path id="Trazado_109581" data-name="Trazado 109581" d="M769.76,198.54H751.14a2.69,2.69,0,0,0-2.65,2.52l-.37,6.47a2.35,2.35,0,0,0,2.37,2.52h18.62a2.7,2.7,0,0,0,2.65-2.52l.37-6.47a2.35,2.35,0,0,0-2.37-2.52Z" fill="#344154"/>
          <path id="Trazado_109582" data-name="Trazado 109582" d="M894.3,222.41H876.61a3.21,3.21,0,0,0-3.15,3l-.52,9.12a2.8,2.8,0,0,0,2.81,3h17.69a3.21,3.21,0,0,0,3.15-3l.52-9.12a2.8,2.8,0,0,0-2.81-3Z" fill="#344154"/>
          <path id="Trazado_109583" data-name="Trazado 109583" d="M862.72,222.26H845a3.19,3.19,0,0,0-3.15,3l-.52,9.12a2.79,2.79,0,0,0,2.81,3h17.69a3.21,3.21,0,0,0,3.15-3l.51-9.12a2.78,2.78,0,0,0-2.77-3Z" fill="#344154"/>
          <path id="Trazado_109584" data-name="Trazado 109584" d="M831.12,222.41H813.43a3.21,3.21,0,0,0-3.15,3l-.52,9.12a2.8,2.8,0,0,0,2.81,3h17.69a3.21,3.21,0,0,0,3.15-3l.52-9.12a2.8,2.8,0,0,0-2.81-3Z" fill="#344154"/>
          <path id="Trazado_109585" data-name="Trazado 109585" d="M799.52,222.57H781.83a3.21,3.21,0,0,0-3.15,3l-.52,9.11a2.8,2.8,0,0,0,2.81,3h17.69a3.21,3.21,0,0,0,3.15-3l.52-9.11a2.8,2.8,0,0,0-2.81-3Z" fill="#344154"/>
          <path id="Trazado_109586" data-name="Trazado 109586" d="M767.92,222.72H750.23a3.21,3.21,0,0,0-3.15,3l-.52,9.12a2.8,2.8,0,0,0,2.81,3h17.69a3.21,3.21,0,0,0,3.15-3l.52-9.12a2.8,2.8,0,0,0-2.81-3Z" fill="#344154"/>
          <path id="Trazado_109587" data-name="Trazado 109587" d="M857.46,314.64H839.77a3.21,3.21,0,0,0-3.15,3l-.52,9.12a2.79,2.79,0,0,0,2.81,3H856.6a3.2,3.2,0,0,0,3.15-3l.52-9.12a2.8,2.8,0,0,0-2.81-3Z" fill="#344154"/>
          <path id="Trazado_109588" data-name="Trazado 109588" d="M825.86,314.79H808.17a3.21,3.21,0,0,0-3.15,3l-.52,9.12a2.8,2.8,0,0,0,2.81,3H825a3.21,3.21,0,0,0,3.15-3l.52-9.12a2.8,2.8,0,0,0-2.81-3Z" fill="#344154"/>
          <path id="Trazado_109589" data-name="Trazado 109589" d="M794.26,315H776.57a3.21,3.21,0,0,0-3.15,3l-.52,9.11a2.8,2.8,0,0,0,2.81,3H793.4a3.21,3.21,0,0,0,3.15-3l.52-9.11a2.8,2.8,0,0,0-2.81-3Z" fill="#344154"/>
          <path id="Trazado_109590" data-name="Trazado 109590" d="M762.66,315.1H745a3.21,3.21,0,0,0-3.15,3l-.51,9.12a2.78,2.78,0,0,0,2.8,3H761.8a3.2,3.2,0,0,0,3.15-3l.52-9.12a2.8,2.8,0,0,0-2.81-3Z" fill="#344154"/>
          <path id="Trazado_109591" data-name="Trazado 109591" d="M890.35,291.7H872.67a3.19,3.19,0,0,0-3.15,3l-.45,7.92L869,303.8l-1.32,23.1a2.8,2.8,0,0,0,2.81,3h17.69a3.21,3.21,0,0,0,3.15-3l1.31-23.1.07-1.19.45-7.92a2.78,2.78,0,0,0-2.81-2.99Z" fill="#344154"/>
          <path id="Trazado_109592" data-name="Trazado 109592" d="M858.77,291.54H841.09a3.19,3.19,0,0,0-3.15,3l-.52,9.12a2.78,2.78,0,0,0,2.81,3h17.68a3.19,3.19,0,0,0,3.15-3l.52-9.12a2.79,2.79,0,0,0-2.81-3Z" fill="#344154"/>
          <path id="Trazado_109593" data-name="Trazado 109593" d="M827.17,291.7H809.49a3.19,3.19,0,0,0-3.15,3l-.52,9.11a2.78,2.78,0,0,0,2.81,3h17.68a3.19,3.19,0,0,0,3.15-3l.52-9.11a2.79,2.79,0,0,0-2.81-3Z" fill="#344154"/>
          <path id="Trazado_109594" data-name="Trazado 109594" d="M795.57,291.85H777.89a3.19,3.19,0,0,0-3.15,3l-.52,9.12a2.79,2.79,0,0,0,2.81,3h17.68a3.19,3.19,0,0,0,3.15-3l.52-9.12a2.78,2.78,0,0,0-2.81-3Z" fill="#344154"/>
          <path id="Trazado_109595" data-name="Trazado 109595" d="M764,292H746.29a3.19,3.19,0,0,0-3.15,3l-.52,9.11a2.79,2.79,0,0,0,2.81,3h17.68a3.19,3.19,0,0,0,3.15-3l.52-9.11a2.78,2.78,0,0,0-2.78-3Z" fill="#344154"/>
          <path id="Trazado_109596" data-name="Trazado 109596" d="M891.67,268.6H874a3.21,3.21,0,0,0-3.15,3l-.52,9.12a2.8,2.8,0,0,0,2.81,3h17.69a3.21,3.21,0,0,0,3.15-3l.52-9.12a2.8,2.8,0,0,0-2.83-3Z" fill="#344154"/>
          <path id="Trazado_109597" data-name="Trazado 109597" d="M860.09,268.45H842.4a3.2,3.2,0,0,0-3.15,3l-.52,9.12a2.79,2.79,0,0,0,2.81,3h17.69a3.2,3.2,0,0,0,3.15-3l.51-9.12a2.78,2.78,0,0,0-2.8-3Z" fill="#344154"/>
          <path id="Trazado_109598" data-name="Trazado 109598" d="M828.49,268.6H810.8a3.21,3.21,0,0,0-3.15,3l-.52,9.12a2.8,2.8,0,0,0,2.81,3h17.69a3.21,3.21,0,0,0,3.15-3l.52-9.12a2.8,2.8,0,0,0-2.81-3Z" fill="#344154"/>
          <path id="Trazado_109599" data-name="Trazado 109599" d="M796.89,268.76H779.2a3.21,3.21,0,0,0-3.15,3l-.52,9.11a2.8,2.8,0,0,0,2.81,3H796a3.21,3.21,0,0,0,3.15-3l.52-9.11a2.8,2.8,0,0,0-2.78-3Z" fill="#344154"/>
          <path id="Trazado_109600" data-name="Trazado 109600" d="M765.29,268.91H747.6a3.21,3.21,0,0,0-3.15,3l-.52,9.12a2.8,2.8,0,0,0,2.81,3h17.69a3.21,3.21,0,0,0,3.15-3l.52-9.12a2.8,2.8,0,0,0-2.81-3Z" fill="#344154"/>
          <path id="Trazado_109601" data-name="Trazado 109601" d="M893,245.51H875.3a3.19,3.19,0,0,0-3.15,3l-.52,9.11a2.78,2.78,0,0,0,2.81,3h17.68a3.19,3.19,0,0,0,3.15-3l.52-9.11a2.79,2.79,0,0,0-2.79-3Z" fill="#344154"/>
          <path id="Trazado_109602" data-name="Trazado 109602" d="M861.4,245.36H843.71a3.18,3.18,0,0,0-3.14,3l-.52,9.12a2.78,2.78,0,0,0,2.81,3h17.68a3.19,3.19,0,0,0,3.15-3l.52-9.12a2.78,2.78,0,0,0-2.81-3Z" fill="#344154"/>
          <path id="Trazado_109603" data-name="Trazado 109603" d="M829.8,245.51H812.12a3.19,3.19,0,0,0-3.15,3l-.52,9.11a2.78,2.78,0,0,0,2.81,3h17.68a3.19,3.19,0,0,0,3.15-3l.52-9.11a2.79,2.79,0,0,0-2.81-3Z" fill="#344154"/>
          <path id="Trazado_109604" data-name="Trazado 109604" d="M798.2,245.66H780.52a3.19,3.19,0,0,0-3.15,3l-.52,9.12a2.78,2.78,0,0,0,2.81,3h17.68a3.19,3.19,0,0,0,3.15-3l.52-9.12a2.78,2.78,0,0,0-2.81-3Z" fill="#344154"/>
          <path id="Trazado_109605" data-name="Trazado 109605" d="M766.6,245.82H748.92a3.19,3.19,0,0,0-3.15,3l-.52,9.11a2.79,2.79,0,0,0,2.81,3h17.68a3.19,3.19,0,0,0,3.15-3l.52-9.11a2.78,2.78,0,0,0-2.81-3Z" fill="#344154"/>
          <g id="Grupo_58287" data-name="Grupo 58287" opacity="0.3">
            <path id="Trazado_109606" data-name="Trazado 109606" d="M897.16,180.35H878.54a2.7,2.7,0,0,0-2.66,2.52l-.36,6.46a2.34,2.34,0,0,0,2.36,2.52H896.5a2.69,2.69,0,0,0,2.66-2.52l.37-6.46a2.35,2.35,0,0,0-2.37-2.52Z" fill="#fff"/>
            <path id="Trazado_109607" data-name="Trazado 109607" d="M865.58,180.24H847a2.69,2.69,0,0,0-2.65,2.51l-.37,6.47a2.35,2.35,0,0,0,2.37,2.52h18.62a2.7,2.7,0,0,0,2.66-2.52l.36-6.47a2.34,2.34,0,0,0-2.41-2.51Z" fill="#fff"/>
            <path id="Trazado_109608" data-name="Trazado 109608" d="M896.14,198.31H877.52a2.7,2.7,0,0,0-2.66,2.52l-.37,6.46a2.35,2.35,0,0,0,2.37,2.52h18.62a2.7,2.7,0,0,0,2.66-2.52l.36-6.46a2.35,2.35,0,0,0-2.36-2.52Z" fill="#fff"/>
            <path id="Trazado_109609" data-name="Trazado 109609" d="M864.55,198.19H845.93a2.69,2.69,0,0,0-2.65,2.52l-.37,6.47a2.34,2.34,0,0,0,2.37,2.51H863.9a2.68,2.68,0,0,0,2.65-2.51l.37-6.47a2.35,2.35,0,0,0-2.37-2.52Z" fill="#fff"/>
            <path id="Trazado_109610" data-name="Trazado 109610" d="M833,198.31H814.33a2.7,2.7,0,0,0-2.65,2.52l-.37,6.46a2.35,2.35,0,0,0,2.37,2.52H832.3a2.7,2.7,0,0,0,2.66-2.52l.36-6.46a2.35,2.35,0,0,0-2.32-2.52Z" fill="#fff"/>
            <path id="Trazado_109611" data-name="Trazado 109611" d="M801.36,198.43H782.74a2.7,2.7,0,0,0-2.66,2.52l-.36,6.46a2.35,2.35,0,0,0,2.36,2.52H800.7a2.7,2.7,0,0,0,2.66-2.52l.37-6.46a2.35,2.35,0,0,0-2.37-2.52Z" fill="#fff"/>
            <path id="Trazado_109612" data-name="Trazado 109612" d="M769.76,198.54H751.14a2.69,2.69,0,0,0-2.65,2.52l-.37,6.47a2.35,2.35,0,0,0,2.37,2.52h18.62a2.7,2.7,0,0,0,2.65-2.52l.37-6.47a2.35,2.35,0,0,0-2.37-2.52Z" fill="#fff"/>
            <path id="Trazado_109613" data-name="Trazado 109613" d="M894.3,222.41H876.61a3.21,3.21,0,0,0-3.15,3l-.52,9.12a2.8,2.8,0,0,0,2.81,3h17.69a3.21,3.21,0,0,0,3.15-3l.52-9.12a2.8,2.8,0,0,0-2.81-3Z" fill="#fff"/>
            <path id="Trazado_109614" data-name="Trazado 109614" d="M862.72,222.26H845a3.19,3.19,0,0,0-3.15,3l-.52,9.12a2.79,2.79,0,0,0,2.81,3h17.69a3.21,3.21,0,0,0,3.15-3l.51-9.12a2.78,2.78,0,0,0-2.77-3Z" fill="#fff"/>
            <path id="Trazado_109615" data-name="Trazado 109615" d="M831.12,222.41H813.43a3.21,3.21,0,0,0-3.15,3l-.52,9.12a2.8,2.8,0,0,0,2.81,3h17.69a3.21,3.21,0,0,0,3.15-3l.52-9.12a2.8,2.8,0,0,0-2.81-3Z" fill="#fff"/>
            <path id="Trazado_109616" data-name="Trazado 109616" d="M799.52,222.57H781.83a3.21,3.21,0,0,0-3.15,3l-.52,9.11a2.8,2.8,0,0,0,2.81,3h17.69a3.21,3.21,0,0,0,3.15-3l.52-9.11a2.8,2.8,0,0,0-2.81-3Z" fill="#fff"/>
            <path id="Trazado_109617" data-name="Trazado 109617" d="M767.92,222.72H750.23a3.21,3.21,0,0,0-3.15,3l-.52,9.12a2.8,2.8,0,0,0,2.81,3h17.69a3.21,3.21,0,0,0,3.15-3l.52-9.12a2.8,2.8,0,0,0-2.81-3Z" fill="#fff"/>
            <path id="Trazado_109618" data-name="Trazado 109618" d="M857.46,314.64H839.77a3.21,3.21,0,0,0-3.15,3l-.52,9.12a2.79,2.79,0,0,0,2.81,3H856.6a3.2,3.2,0,0,0,3.15-3l.52-9.12a2.8,2.8,0,0,0-2.81-3Z" fill="#fff"/>
            <path id="Trazado_109619" data-name="Trazado 109619" d="M825.86,314.79H808.17a3.21,3.21,0,0,0-3.15,3l-.52,9.12a2.8,2.8,0,0,0,2.81,3H825a3.21,3.21,0,0,0,3.15-3l.52-9.12a2.8,2.8,0,0,0-2.81-3Z" fill="#fff"/>
            <path id="Trazado_109620" data-name="Trazado 109620" d="M794.26,315H776.57a3.21,3.21,0,0,0-3.15,3l-.52,9.11a2.8,2.8,0,0,0,2.81,3H793.4a3.21,3.21,0,0,0,3.15-3l.52-9.11a2.8,2.8,0,0,0-2.81-3Z" fill="#fff"/>
            <path id="Trazado_109621" data-name="Trazado 109621" d="M762.66,315.1H745a3.21,3.21,0,0,0-3.15,3l-.51,9.12a2.78,2.78,0,0,0,2.8,3H761.8a3.2,3.2,0,0,0,3.15-3l.52-9.12a2.8,2.8,0,0,0-2.81-3Z" fill="#fff"/>
            <path id="Trazado_109622" data-name="Trazado 109622" d="M890.35,291.7H872.67a3.19,3.19,0,0,0-3.15,3l-.45,7.92L869,303.8l-1.32,23.1a2.8,2.8,0,0,0,2.81,3h17.69a3.21,3.21,0,0,0,3.15-3l1.31-23.1.07-1.19.45-7.92a2.78,2.78,0,0,0-2.81-2.99Z" fill="#fff"/>
            <path id="Trazado_109623" data-name="Trazado 109623" d="M858.77,291.54H841.09a3.19,3.19,0,0,0-3.15,3l-.52,9.12a2.78,2.78,0,0,0,2.81,3h17.68a3.19,3.19,0,0,0,3.15-3l.52-9.12a2.79,2.79,0,0,0-2.81-3Z" fill="#fff"/>
            <path id="Trazado_109624" data-name="Trazado 109624" d="M827.17,291.7H809.49a3.19,3.19,0,0,0-3.15,3l-.52,9.11a2.78,2.78,0,0,0,2.81,3h17.68a3.19,3.19,0,0,0,3.15-3l.52-9.11a2.79,2.79,0,0,0-2.81-3Z" fill="#fff"/>
            <path id="Trazado_109625" data-name="Trazado 109625" d="M795.57,291.85H777.89a3.19,3.19,0,0,0-3.15,3l-.52,9.12a2.79,2.79,0,0,0,2.81,3h17.68a3.19,3.19,0,0,0,3.15-3l.52-9.12a2.78,2.78,0,0,0-2.81-3Z" fill="#fff"/>
            <path id="Trazado_109626" data-name="Trazado 109626" d="M764,292H746.29a3.19,3.19,0,0,0-3.15,3l-.52,9.11a2.79,2.79,0,0,0,2.81,3h17.68a3.19,3.19,0,0,0,3.15-3l.52-9.11a2.78,2.78,0,0,0-2.78-3Z" fill="#fff"/>
            <path id="Trazado_109627" data-name="Trazado 109627" d="M891.67,268.6H874a3.21,3.21,0,0,0-3.15,3l-.52,9.12a2.8,2.8,0,0,0,2.81,3h17.69a3.21,3.21,0,0,0,3.15-3l.52-9.12a2.8,2.8,0,0,0-2.83-3Z" fill="#fff"/>
            <path id="Trazado_109628" data-name="Trazado 109628" d="M860.09,268.45H842.4a3.2,3.2,0,0,0-3.15,3l-.52,9.12a2.79,2.79,0,0,0,2.81,3h17.69a3.2,3.2,0,0,0,3.15-3l.51-9.12a2.78,2.78,0,0,0-2.8-3Z" fill="#fff"/>
            <path id="Trazado_109629" data-name="Trazado 109629" d="M828.49,268.6H810.8a3.21,3.21,0,0,0-3.15,3l-.52,9.12a2.8,2.8,0,0,0,2.81,3h17.69a3.21,3.21,0,0,0,3.15-3l.52-9.12a2.8,2.8,0,0,0-2.81-3Z" fill="#fff"/>
            <path id="Trazado_109630" data-name="Trazado 109630" d="M796.89,268.76H779.2a3.21,3.21,0,0,0-3.15,3l-.52,9.11a2.8,2.8,0,0,0,2.81,3H796a3.21,3.21,0,0,0,3.15-3l.52-9.11a2.8,2.8,0,0,0-2.78-3Z" fill="#fff"/>
            <path id="Trazado_109631" data-name="Trazado 109631" d="M765.29,268.91H747.6a3.21,3.21,0,0,0-3.15,3l-.52,9.12a2.8,2.8,0,0,0,2.81,3h17.69a3.21,3.21,0,0,0,3.15-3l.52-9.12a2.8,2.8,0,0,0-2.81-3Z" fill="#fff"/>
            <path id="Trazado_109632" data-name="Trazado 109632" d="M893,245.51H875.3a3.19,3.19,0,0,0-3.15,3l-.52,9.11a2.78,2.78,0,0,0,2.81,3h17.68a3.19,3.19,0,0,0,3.15-3l.52-9.11a2.79,2.79,0,0,0-2.79-3Z" fill="#fff"/>
            <path id="Trazado_109633" data-name="Trazado 109633" d="M861.4,245.36H843.71a3.18,3.18,0,0,0-3.14,3l-.52,9.12a2.78,2.78,0,0,0,2.81,3h17.68a3.19,3.19,0,0,0,3.15-3l.52-9.12a2.78,2.78,0,0,0-2.81-3Z" fill="#fff"/>
            <path id="Trazado_109634" data-name="Trazado 109634" d="M829.8,245.51H812.12a3.19,3.19,0,0,0-3.15,3l-.52,9.11a2.78,2.78,0,0,0,2.81,3h17.68a3.19,3.19,0,0,0,3.15-3l.52-9.11a2.79,2.79,0,0,0-2.81-3Z" fill="#fff"/>
            <path id="Trazado_109635" data-name="Trazado 109635" d="M798.2,245.66H780.52a3.19,3.19,0,0,0-3.15,3l-.52,9.12a2.78,2.78,0,0,0,2.81,3h17.68a3.19,3.19,0,0,0,3.15-3l.52-9.12a2.78,2.78,0,0,0-2.81-3Z" fill="#fff"/>
            <path id="Trazado_109636" data-name="Trazado 109636" d="M766.6,245.82H748.92a3.19,3.19,0,0,0-3.15,3l-.52,9.11a2.79,2.79,0,0,0,2.81,3h17.68a3.19,3.19,0,0,0,3.15-3l.52-9.11a2.78,2.78,0,0,0-2.81-3Z" fill="#fff"/>
          </g>
        </g>
        <g id="Grupo_58289" data-name="Grupo 58289" opacity="0.4">
          <path id="Trazado_109637" data-name="Trazado 109637" d="M896.5,191.85H877.88a2.34,2.34,0,0,1-2.36-2.52l.36-6.46a2.7,2.7,0,0,1,2.66-2.52h18.62a2.35,2.35,0,0,1,2.37,2.52l-.37,6.46A2.69,2.69,0,0,1,896.5,191.85Z"/>
          <path id="Trazado_109638" data-name="Trazado 109638" d="M864.92,191.74H846.3a2.35,2.35,0,0,1-2.37-2.52l.37-6.47a2.69,2.69,0,0,1,2.65-2.51h18.63a2.34,2.34,0,0,1,2.36,2.51l-.36,6.47a2.7,2.7,0,0,1-2.66,2.52Z"/>
        </g>
        <g id="Grupo_58290" data-name="Grupo 58290" opacity="0.4">
          <path id="Trazado_109639" data-name="Trazado 109639" d="M895.48,209.81H876.86a2.35,2.35,0,0,1-2.37-2.52l.37-6.46a2.7,2.7,0,0,1,2.66-2.52h18.62a2.35,2.35,0,0,1,2.36,2.52l-.36,6.46a2.7,2.7,0,0,1-2.66,2.52Z"/>
          <path id="Trazado_109640" data-name="Trazado 109640" d="M863.9,209.69H845.28a2.34,2.34,0,0,1-2.37-2.51l.37-6.47a2.69,2.69,0,0,1,2.65-2.52h18.62a2.35,2.35,0,0,1,2.37,2.52l-.37,6.47a2.68,2.68,0,0,1-2.65,2.51Z"/>
          <path id="Trazado_109641" data-name="Trazado 109641" d="M832.3,209.81H813.68a2.35,2.35,0,0,1-2.37-2.52l.37-6.46a2.7,2.7,0,0,1,2.65-2.52H833a2.35,2.35,0,0,1,2.36,2.52l-.36,6.46a2.7,2.7,0,0,1-2.7,2.52Z"/>
          <path id="Trazado_109642" data-name="Trazado 109642" d="M800.7,209.93H782.08a2.35,2.35,0,0,1-2.36-2.52l.36-6.46a2.7,2.7,0,0,1,2.66-2.52h18.62a2.35,2.35,0,0,1,2.37,2.52l-.37,6.46a2.7,2.7,0,0,1-2.66,2.52Z"/>
          <path id="Trazado_109643" data-name="Trazado 109643" d="M769.11,210.05H750.49a2.35,2.35,0,0,1-2.37-2.52l.37-6.47a2.69,2.69,0,0,1,2.65-2.52h18.62a2.35,2.35,0,0,1,2.37,2.52l-.37,6.47A2.7,2.7,0,0,1,769.11,210.05Z"/>
        </g>
        <path id="Trazado_109644" data-name="Trazado 109644" d="M798.46,186.1h36.33a1.46,1.46,0,0,0,1.45-1.37h0a1.28,1.28,0,0,0-1.29-1.38H798.61a1.49,1.49,0,0,0-1.45,1.38h0a1.28,1.28,0,0,0,1.3,1.37Z" opacity="0.2"/>
        <path id="Trazado_109645" data-name="Trazado 109645" d="M750.71,186.1H787a1.46,1.46,0,0,0,1.45-1.37h0a1.28,1.28,0,0,0-1.29-1.38H750.87a1.47,1.47,0,0,0-1.45,1.38h0a1.27,1.27,0,0,0,1.29,1.37Z" opacity="0.2"/>
        <path id="Trazado_109646" data-name="Trazado 109646" d="M760.06,187.19h-4.81a2.26,2.26,0,0,1-2.27-2.42h0a2.58,2.58,0,0,1,2.54-2.42h4.82a2.25,2.25,0,0,1,2.27,2.42h0A2.6,2.6,0,0,1,760.06,187.19Z" fill="#344154"/>
        <path id="Trazado_109647" data-name="Trazado 109647" d="M827.84,187.14H823a2.25,2.25,0,0,1-2.27-2.41h0a2.59,2.59,0,0,1,2.55-2.42h4.82a2.26,2.26,0,0,1,2.27,2.42h0a2.59,2.59,0,0,1-2.53,2.41Z" fill="#344154"/>
        <path id="Trazado_109648" data-name="Trazado 109648" d="M894.3,222.41H876.61a3.21,3.21,0,0,0-3.15,3l-.52,9.12a2.8,2.8,0,0,0,2.81,3h17.69a3.21,3.21,0,0,0,3.15-3l.52-9.12a2.8,2.8,0,0,0-2.81-3Z" opacity="0.5"/>
        <path id="Trazado_109649" data-name="Trazado 109649" d="M862.72,222.26H845a3.19,3.19,0,0,0-3.15,3l-.52,9.12a2.79,2.79,0,0,0,2.81,3h17.69a3.19,3.19,0,0,0,3.14-3l.52-9.12a2.78,2.78,0,0,0-2.77-3Z" opacity="0.5"/>
        <path id="Trazado_109650" data-name="Trazado 109650" d="M831.12,222.41H813.43a3.21,3.21,0,0,0-3.15,3l-.52,9.12a2.8,2.8,0,0,0,2.81,3h17.69a3.21,3.21,0,0,0,3.15-3l.51-9.12a2.78,2.78,0,0,0-2.8-3Z" opacity="0.5"/>
        <path id="Trazado_109651" data-name="Trazado 109651" d="M799.52,222.57H781.83a3.21,3.21,0,0,0-3.15,3l-.52,9.11a2.8,2.8,0,0,0,2.81,3h17.69a3.21,3.21,0,0,0,3.15-3l.52-9.11a2.8,2.8,0,0,0-2.81-3Z" opacity="0.5"/>
        <path id="Trazado_109652" data-name="Trazado 109652" d="M767.92,222.72H750.23a3.21,3.21,0,0,0-3.15,3l-.52,9.12a2.8,2.8,0,0,0,2.81,3h17.69a3.21,3.21,0,0,0,3.15-3l.52-9.12a2.8,2.8,0,0,0-2.81-3Z" opacity="0.5"/>
        <path id="Trazado_109653" data-name="Trazado 109653" d="M857.46,314.64H839.77a3.21,3.21,0,0,0-3.15,3l-.52,9.12a2.79,2.79,0,0,0,2.81,3H856.6a3.2,3.2,0,0,0,3.15-3l.51-9.12a2.78,2.78,0,0,0-2.8-3Z" opacity="0.5"/>
        <path id="Trazado_109654" data-name="Trazado 109654" d="M825.86,314.79H808.17a3.21,3.21,0,0,0-3.15,3l-.52,9.12a2.8,2.8,0,0,0,2.81,3H825a3.21,3.21,0,0,0,3.15-3l.52-9.12a2.8,2.8,0,0,0-2.81-3Z" opacity="0.5"/>
        <path id="Trazado_109655" data-name="Trazado 109655" d="M794.26,315H776.57a3.21,3.21,0,0,0-3.15,3l-.52,9.11a2.8,2.8,0,0,0,2.81,3H793.4a3.21,3.21,0,0,0,3.15-3l.52-9.11a2.8,2.8,0,0,0-2.81-3Z" opacity="0.5"/>
        <path id="Trazado_109656" data-name="Trazado 109656" d="M762.66,315.1H745a3.21,3.21,0,0,0-3.15,3l-.51,9.12a2.78,2.78,0,0,0,2.8,3H761.8a3.21,3.21,0,0,0,3.15-3l.52-9.12a2.8,2.8,0,0,0-2.81-3Z" opacity="0.5"/>
        <path id="Trazado_109657" data-name="Trazado 109657" d="M890.35,291.7H872.67a3.19,3.19,0,0,0-3.15,3l-.45,7.92L869,303.8l-1.32,23.1a2.8,2.8,0,0,0,2.81,3h17.69a3.21,3.21,0,0,0,3.15-3l1.31-23.1.07-1.19.45-7.92a2.78,2.78,0,0,0-2.81-2.99Z" opacity="0.3"/>
        <path id="Trazado_109658" data-name="Trazado 109658" d="M858.77,291.54H841.09a3.19,3.19,0,0,0-3.15,3l-.52,9.12a2.78,2.78,0,0,0,2.81,3h17.68a3.19,3.19,0,0,0,3.15-3l.52-9.12a2.79,2.79,0,0,0-2.81-3Z" opacity="0.5"/>
        <path id="Trazado_109659" data-name="Trazado 109659" d="M827.17,291.7H809.49a3.19,3.19,0,0,0-3.15,3l-.52,9.11a2.78,2.78,0,0,0,2.81,3h17.68a3.19,3.19,0,0,0,3.15-3l.52-9.11a2.79,2.79,0,0,0-2.81-3Z" opacity="0.5"/>
        <path id="Trazado_109660" data-name="Trazado 109660" d="M795.57,291.85H777.89a3.19,3.19,0,0,0-3.15,3l-.52,9.12a2.79,2.79,0,0,0,2.81,3h17.68a3.19,3.19,0,0,0,3.15-3l.52-9.12a2.78,2.78,0,0,0-2.81-3Z" opacity="0.5"/>
        <path id="Trazado_109661" data-name="Trazado 109661" d="M764,292H746.29a3.19,3.19,0,0,0-3.15,3l-.52,9.11a2.79,2.79,0,0,0,2.81,3h17.68a3.19,3.19,0,0,0,3.15-3l.52-9.11a2.78,2.78,0,0,0-2.78-3Z" opacity="0.3"/>
        <path id="Trazado_109662" data-name="Trazado 109662" d="M891.67,268.6H874a3.21,3.21,0,0,0-3.15,3l-.52,9.12a2.8,2.8,0,0,0,2.81,3h17.69a3.21,3.21,0,0,0,3.15-3l.52-9.12a2.8,2.8,0,0,0-2.83-3Z" opacity="0.5"/>
        <path id="Trazado_109663" data-name="Trazado 109663" d="M860.09,268.45H842.4a3.2,3.2,0,0,0-3.15,3l-.52,9.12a2.79,2.79,0,0,0,2.81,3h17.69a3.2,3.2,0,0,0,3.15-3l.51-9.12a2.78,2.78,0,0,0-2.8-3Z" opacity="0.5"/>
        <path id="Trazado_109664" data-name="Trazado 109664" d="M828.49,268.6H810.8a3.21,3.21,0,0,0-3.15,3l-.52,9.12a2.8,2.8,0,0,0,2.81,3h17.69a3.21,3.21,0,0,0,3.15-3l.52-9.12a2.8,2.8,0,0,0-2.81-3Z" opacity="0.5"/>
        <path id="Trazado_109665" data-name="Trazado 109665" d="M796.89,268.76H779.2a3.21,3.21,0,0,0-3.15,3l-.52,9.11a2.8,2.8,0,0,0,2.81,3H796a3.21,3.21,0,0,0,3.15-3l.52-9.11a2.8,2.8,0,0,0-2.78-3Z" opacity="0.5"/>
        <path id="Trazado_109666" data-name="Trazado 109666" d="M765.29,268.91H747.6a3.21,3.21,0,0,0-3.15,3l-.52,9.12a2.8,2.8,0,0,0,2.81,3h17.69a3.21,3.21,0,0,0,3.15-3l.52-9.12a2.8,2.8,0,0,0-2.81-3Z" opacity="0.3"/>
        <path id="Trazado_109667" data-name="Trazado 109667" d="M893,245.51H875.3a3.19,3.19,0,0,0-3.15,3l-.52,9.11a2.78,2.78,0,0,0,2.81,3h17.68a3.19,3.19,0,0,0,3.15-3l.52-9.11a2.79,2.79,0,0,0-2.79-3Z" opacity="0.5"/>
        <path id="Trazado_109668" data-name="Trazado 109668" d="M861.4,245.36H843.71a3.18,3.18,0,0,0-3.14,3l-.52,9.12a2.78,2.78,0,0,0,2.81,3h17.68a3.19,3.19,0,0,0,3.15-3l.52-9.12a2.78,2.78,0,0,0-2.81-3Z" opacity="0.5"/>
        <path id="Trazado_109669" data-name="Trazado 109669" d="M829.8,245.51H812.12a3.19,3.19,0,0,0-3.15,3l-.52,9.11a2.78,2.78,0,0,0,2.81,3h17.68a3.19,3.19,0,0,0,3.15-3l.52-9.11a2.79,2.79,0,0,0-2.81-3Z" opacity="0.5"/>
        <path id="Trazado_109670" data-name="Trazado 109670" d="M798.2,245.66H780.52a3.19,3.19,0,0,0-3.15,3l-.52,9.12a2.78,2.78,0,0,0,2.81,3h17.68a3.19,3.19,0,0,0,3.15-3l.52-9.12a2.79,2.79,0,0,0-2.81-3Z" opacity="0.5"/>
        <path id="Trazado_109671" data-name="Trazado 109671" d="M766.6,245.82H748.92a3.19,3.19,0,0,0-3.15,3l-.52,9.11a2.79,2.79,0,0,0,2.81,3h17.68a3.19,3.19,0,0,0,3.15-3l.52-9.11a2.78,2.78,0,0,0-2.81-3Z" opacity="0.5"/>
      </g>
    </g>
    <g id="Grupo_58298" data-name="Grupo 58298">
      <path id="Trazado_109672" data-name="Trazado 109672" d="M261.71,377s-9.95,2.17-14.2,0-2.67-33.81-7-34.47c-10-1.5-8.3,40.52-4,49.37s26.15,5.09,26.15,5.09Z" fill="#d9a171"/>
      <path id="Trazado_109673" data-name="Trazado 109673" d="M261.71,377s-9.95,2.17-14.2,0-2.67-33.81-7-34.47c-10-1.5-8.3,40.52-4,49.37s26.15,5.09,26.15,5.09Z" fill="#fff" opacity="0.2"/>
      <path id="Trazado_109674" data-name="Trazado 109674" d="M262.54,451.47s-14.75-214.58,2.86-217.05,21.85,73.2,15.05,214.32Z" fill="#5e6178"/>
      <path id="Trazado_109675" data-name="Trazado 109675" d="M241.87,435.61h57.9l-4.83,37.05H246.7Z" fill="#344154"/>
      <path id="Trazado_109676" data-name="Trazado 109676" d="M280,304.76s16,1.41,16.52,0,.48-31.77,7.28-30,3.83,38.35,0,42.6-23.8,6.55-23.8,6.55S277.35,310.46,280,304.76Z" fill="#d9a171"/>
      <path id="Trazado_109677" data-name="Trazado 109677" d="M280,304.76s16,1.41,16.52,0,.48-31.77,7.28-30,3.83,38.35,0,42.6-23.8,6.55-23.8,6.55S277.35,310.46,280,304.76Z" fill="#7e8193" opacity="0.4"/>
      <g id="Grupo_58293" data-name="Grupo 58293" opacity="0">
        <path id="Trazado_109678" data-name="Trazado 109678" d="M269.86,431.87q-1.62-24.48-3-49t-2.25-49c-.63-16.35-1.15-32.7-1.33-49.07-.09-8.18-.1-16.36.13-24.55.12-4.09.28-8.19.64-12.28.18-2,.41-4.09.79-6.13a19,19,0,0,1,.78-3.05L266,238a5.3,5.3,0,0,1,.52-.75A1.5,1.5,0,0,1,267,237a1.08,1.08,0,0,1,.73,0,1.71,1.71,0,0,1,.79.72,11.29,11.29,0,0,1,1.07,3c.24,1,.42,2,.59,3,.33,2,.58,4.07.8,6.11.44,4.08.76,8.16,1,12.25.55,8.16.93,16.34,1.25,24.51.62,16.36,1,32.71,1.27,49.07s.45,32.72.56,49.07,0,32.72-.05,49.08q-.11-24.54-.44-49.07t-.73-49.07c-.34-16.35-.77-32.7-1.45-49-.34-8.17-.74-16.34-1.32-24.49-.29-4.08-.63-8.15-1.08-12.2-.22-2-.48-4.05-.81-6.06-.17-1-.35-2-.59-3a10.448,10.448,0,0,0-.94-2.73.83.83,0,0,0-.29-.32l-.17.11c-.17.11-.23.33-.35.5l-.29.65a19,19,0,0,0-.74,2.88c-.37,2-.61,4-.79,6-.38,4.06-.55,8.14-.69,12.22-.26,8.17-.27,16.34-.21,24.52.13,16.35.59,32.7,1.16,49s1.3,32.68,2.08,49S268.94,415.54,269.86,431.87Z" fill="#007cff"/>
      </g>
      <g id="Grupo_58294" data-name="Grupo 58294" opacity="0">
        <path id="Trazado_109679" data-name="Trazado 109679" d="M282,312c2.08-.12,4.15-.23,6.21-.42s4.13-.35,6.16-.67c1-.17,2-.36,3-.62a6.282,6.282,0,0,0,1.36-.51,1.141,1.141,0,0,0,.27-.17.72.72,0,0,0,.2-.18c.07-.06.05-.11.08-.15s0,0,0-.06a1.44,1.44,0,0,0,0-.18,22.688,22.688,0,0,1,0-3.2c.06-1,.12-2.08.21-3.12.4-4.14.86-8.27,1.43-12.38s1.17-8.23,2.12-12.28c-.29,2.06-.5,4.12-.71,6.18l-.65,6.19c-.41,4.13-.87,8.25-1.2,12.38-.1,1-.18,2.06-.25,3.09a21.926,21.926,0,0,0-.07,3v.54a1.2,1.2,0,0,1-.26.53,1.529,1.529,0,0,1-.38.35,1.68,1.68,0,0,1-.38.23,7.081,7.081,0,0,1-1.55.56,21.257,21.257,0,0,1-3.12.55A83.94,83.94,0,0,1,282,312Z" fill="#007cff"/>
      </g>
      <g id="Grupo_58295" data-name="Grupo 58295" opacity="0">
        <path id="Trazado_109680" data-name="Trazado 109680" d="M282,319l6.87-1.37c2.29-.45,4.58-.91,6.85-1.42a49.4,49.4,0,0,0,6.64-1.83l.34-.18c.16-.05.11-.12.19-.16a3.081,3.081,0,0,0,.3-.68,11.768,11.768,0,0,0,.41-1.63c.21-1.13.36-2.28.49-3.43.56-4.61.79-9.27,1.07-13.92l.76-14c.14,4.67.12,9.34,0,14s-.36,9.34-.85,14c-.15,1.16-.31,2.33-.54,3.49a14.33,14.33,0,0,1-.47,1.76,3.5,3.5,0,0,1-.43.9,2.089,2.089,0,0,1-.9.63,22.345,22.345,0,0,1-3.43,1c-1.14.29-2.29.51-3.44.73Q289,318.22,282,319Z" fill="#007cff"/>
      </g>
      <g id="Grupo_58296" data-name="Grupo 58296" opacity="0">
        <path id="Trazado_109681" data-name="Trazado 109681" d="M256.76,382.82a40.663,40.663,0,0,1-12.17-1.65,7.731,7.731,0,0,1-1.45-.7,1.89,1.89,0,0,1-.68-.62,4.49,4.49,0,0,1-.38-.76,16.131,16.131,0,0,1-.82-3c-.36-2-.59-4.07-.77-6.11q-.45-6.12-.48-12.25c0-4.08,0-8.17.27-12.24l.5,12.22c.18,4.07.33,8.14.7,12.19.16,2,.35,4.05.68,6a15.449,15.449,0,0,0,.71,2.87,3.15,3.15,0,0,0,.3.61,1.31,1.31,0,0,0,.43.41,7.321,7.321,0,0,0,1.27.68,27.839,27.839,0,0,0,5.84,1.51C252.7,382.35,254.73,382.59,256.76,382.82Z" fill="#007cff"/>
      </g>
      <g id="Grupo_58297" data-name="Grupo 58297" opacity="0">
        <path id="Trazado_109682" data-name="Trazado 109682" d="M237.31,349.27s.72,36.2,3,39.78,16.49,4,16.49,4" fill="#5e6178"/>
        <path id="Trazado_109683" data-name="Trazado 109683" d="M237.31,349.27l.84,14.3c.28,4.77.51,9.53.91,14.28.18,2.37.38,4.75.69,7.1a20.59,20.59,0,0,0,.69,3.41c.29,1,1.36,1.56,2.38,2.05a30.15,30.15,0,0,0,6.84,1.76c2.34.4,4.72.64,7.1.84a63.759,63.759,0,0,1-7.17-.36,29.5,29.5,0,0,1-7.07-1.53,8.83,8.83,0,0,1-1.66-.88,3.18,3.18,0,0,1-1.23-1.58,21.27,21.27,0,0,1-.78-3.58c-.35-2.39-.58-4.77-.78-7.15-.33-4.78-.57-9.55-.69-14.33S237.21,354.05,237.31,349.27Z" fill="#007cff"/>
      </g>
    </g>
    <g id="Grupo_58300" data-name="Grupo 58300">
      <path id="Trazado_109684" data-name="Trazado 109684" d="M336.05,442.69,378.86,439V375.18h15.05v63.76l43,3.75a7.38,7.38,0,0,1,6.67,7.36v5.7H329.38v-5.7a7.39,7.39,0,0,1,6.67-7.36Z" fill="#344154"/>
      <path id="Trazado_109685" data-name="Trazado 109685" d="M336.05,442.69,378.86,439V375.18h15.05v63.76l43,3.75a7.38,7.38,0,0,1,6.67,7.36v5.7H329.38v-5.7a7.39,7.39,0,0,1,6.67-7.36Z" fill="#fff" opacity="0.1"/>
      <path id="Trazado_109686" data-name="Trazado 109686" d="M429.68,462.82a9.84,9.84,0,1,0,9.84-9.84A9.84,9.84,0,0,0,429.68,462.82Z" fill="#344154"/>
      <path id="Trazado_109687" data-name="Trazado 109687" d="M343.24,462.82A9.84,9.84,0,1,1,333.4,453a9.84,9.84,0,0,1,9.84,9.82Z" fill="#344154"/>
      <path id="Trazado_109688" data-name="Trazado 109688" d="M380.4,328.22h12a4.13,4.13,0,0,1,4.13,4.13v54.3H376.27v-54.3a4.13,4.13,0,0,1,4.13-4.13Z" transform="translate(772.77 714.87) rotate(180)" fill="#344154"/>
      <path id="Trazado_109689" data-name="Trazado 109689" d="M380.4,328.22h12a4.13,4.13,0,0,1,4.13,4.13v54.3H376.27v-54.3a4.13,4.13,0,0,1,4.13-4.13Z" transform="translate(772.77 714.87) rotate(180)" fill="#fff" opacity="0.2"/>
      <path id="Trazado_109690" data-name="Trazado 109690" d="M342,217s4.64,93,24.66,109H345.23s-19.09-31.67-20.51-109Z" fill="#344154"/>
      <path id="Trazado_109691" data-name="Trazado 109691" d="M342,217s4.64,93,24.66,109H345.23s-19.09-31.67-20.51-109Z" fill="#fff" opacity="0.1"/>
      <path id="Trazado_109692" data-name="Trazado 109692" d="M337.19,318.27h101a5,5,0,0,1,5,5v10.41h-111V323.27A5,5,0,0,1,337.19,318.27Z" fill="#d9a171"/>
      <g id="Grupo_58299" data-name="Grupo 58299">
        <rect id="Rectángulo_8826" data-name="Rectángulo 8826" width="119.5" height="7.7" rx="2.01" transform="translate(327.96 325.97)" fill="#344154"/>
        <rect id="Rectángulo_8827" data-name="Rectángulo 8827" width="119.5" height="7.7" rx="2.01" transform="translate(327.96 325.97)" fill="#fff" opacity="0.6"/>
      </g>
      <path id="Trazado_109693" data-name="Trazado 109693" d="M321,237.36h34.3c10.05,0,17.31-9,16.21-20.17L370,202.32c-1.1-11.13-10.13-20.16-20.18-20.16h-34.3c-10,0-17.31,9-16.21,20.16l1.46,14.87C301.88,228.33,310.91,237.36,321,237.36Z" fill="#d9a171"/>
    </g>
    <g id="Grupo_58312" data-name="Grupo 58312">
      <path id="Trazado_109694" data-name="Trazado 109694" d="M500,217.2l9.7,1.11s6.34-2.81,6.39-3,8.46,3,8.46,3l1.61,6.06s-12,1.28-14.21,0l-12.75.56Z" fill="#ffbf9d"/>
      <path id="Trazado_109695" data-name="Trazado 109695" d="M505.28,226.36h-37.4c-3.82,0-9-9.31-13.11-18.24-3.74-8.19-6.57-16-6.57-16l4-9.93,4-9.81c7.6,5.25,16.95,40.77,16.95,40.77l32.15,4.23S506.19,226.36,505.28,226.36Z" fill="#d9a171"/>
      <path id="Trazado_109696" data-name="Trazado 109696" d="M503.63,217.2l-1.75,10.27h4.78V217.2Z" fill="#d9a171"/>
      <path id="Trazado_109697" data-name="Trazado 109697" d="M503.63,217.2l-1.75,10.27h4.78V217.2Z" fill="#fff" opacity="0.6"/>
      <path id="Trazado_109698" data-name="Trazado 109698" d="M454.77,208.12c-3.74-8.19-6.57-16-6.57-16l4-9.93C454,186.67,457.64,198.14,454.77,208.12Z" opacity="0.2"/>
      <path id="Trazado_109699" data-name="Trazado 109699" d="M462.1,139.83s-3.76,14.49.92,20.93c0,0-42.16.49-54-7.16s1.46-45.06,18.82-50.8S473.93,111.39,462.1,139.83Z" fill="#344154"/>
      <path id="Trazado_109700" data-name="Trazado 109700" d="M545.25,414.87,536,416.64S485.38,295.33,477.32,295s-90.11,37.37-110.68,16.45,9.17-71.3,9.17-71.3,49.47-7.06,53.19,4.11a77.548,77.548,0,0,1,2.1,10c.56,3.42.95,6.29.95,6.29h0c1.53-.38,51.19-13.2,70.75,0C522.71,274,545.25,414.87,545.25,414.87Z" fill="#ffbf9d"/>
      <path id="Trazado_109701" data-name="Trazado 109701" d="M402.17,316.48s3.34.08,55.23-2.34c0,0-9.63,89.12-13.86,137.67l10.83.61S498,326.23,497.6,309.71s-19.34-21.35-19.34-21.35S441.29,309.71,402.17,316.48Z" fill="#ffbf9d"/>
      <path id="Trazado_109702" data-name="Trazado 109702" d="M402.22,316.49c.53,0,5.8-.07,46.29-1.92l-.79-11.66C434.64,308.23,418.61,313.63,402.22,316.49Z" fill="#344154"/>
      <path id="Trazado_109703" data-name="Trazado 109703" d="M457.4,314.15s-9.64,89.11-13.86,137.66l10.83.61S498,326.24,497.6,309.72s-19.34-21.36-19.34-21.36a274.418,274.418,0,0,1-30.54,14.55c-13.08,5.32-29.11,10.72-45.5,13.58.53,0,5.8-.07,46.29-1.92Z" fill="#bf8f76" opacity="0.3"/>
      <path id="Trazado_109704" data-name="Trazado 109704" d="M366.65,311.45C379,324,422.46,320.7,452.33,320.7l18-66.42-36.2,3.09s-1.29-3.22-2.59-6.52c-1.08-2.78-2.19-5.61-2.52-6.59-3.72-11.17-53.18-4.11-53.18-4.11S346.08,290.54,366.65,311.45Z" fill="#344154"/>
      <path id="Trazado_109705" data-name="Trazado 109705" d="M403.12,266.59l31-9.22s-1.29-3.22-2.59-6.52C419.45,255.76,403.12,266.59,403.12,266.59Z" opacity="0.3"/>
      <g id="Grupo_58302" data-name="Grupo 58302">
        <g id="Grupo_58301" data-name="Grupo 58301">
          <path id="Trazado_109706" data-name="Trazado 109706" d="M377.01,232.46l-1.19,7.69,53.18,4.1,1.41-9.09Z" fill="#344154"/>
          <path id="Trazado_109707" data-name="Trazado 109707" d="M377.01,232.46l-1.19,7.69,53.18,4.1,1.41-9.09Z" opacity="0.2"/>
        </g>
        <rect id="Rectángulo_8828" data-name="Rectángulo 8828" width="2.64" height="13.46" transform="translate(392.523 231.688) rotate(5.87)" fill="#344154"/>
        <rect id="Rectángulo_8829" data-name="Rectángulo 8829" width="11.701" height="8.876" transform="matrix(0.998, 0.06, -0.06, 0.998, 408.124, 233.211)" fill="#fff"/>
        <rect id="Rectángulo_8830" data-name="Rectángulo 8830" width="2.64" height="13.46" transform="translate(425.204 233.091) rotate(5.87)" fill="#344154"/>
      </g>
      <path id="Trazado_109708" data-name="Trazado 109708" d="M571.36,427.57a18.639,18.639,0,0,0-6.77-.59h0s-8.52-3.31-19.13-19.84l-8.68,1.36a7.24,7.24,0,0,0-5.88,5.86,4,4,0,0,0,0,1.24,50.24,50.24,0,0,0,1.68,6.14c1.84,6.36,8.4,19.57,8.4,19.57l1.4-.62-4.78-12.5c-1.6-4.25,3.71-.75,6.57,3.33s6.88,8,16.1,4.26C571,431.35,575.18,429,571.36,427.57Z" fill="#263237"/>
      <path id="Trazado_109709" data-name="Trazado 109709" d="M541.36,401.37s5.26,7.36,11.75,15.25S564.59,427,564.59,427s-6.32,4.18-11.28.86-15.72-17.28-22.41-13.48a17,17,0,0,1,.59-4.1C532.07,408.18,541.36,401.37,541.36,401.37Z" fill="#ffbf9d"/>
      <path id="Trazado_109710" data-name="Trazado 109710" d="M476.43,468.9a18.63,18.63,0,0,0-6.12-2.94h0s-6.81-6.1-10.92-25.31l-8.6-1.78a7.24,7.24,0,0,0-7.57,3.4,4,4,0,0,0-.48,1.15,49.808,49.808,0,0,0-.59,6.34c-.52,6.59,1,21.27,1,21.27l1.53-.08-.06-13.38c0-4.55,3.73.59,5,5.42s3.62,9.92,13.56,9.66C474.72,472.29,479.5,471.59,476.43,468.9Z" fill="#263237"/>
      <path id="Trazado_109711" data-name="Trazado 109711" d="M457.59,433.8s2.34,8.74,5.63,18.42S470.31,466,470.31,466s-7.39,1.68-10.86-3.17-8.63-21.71-16.23-20.52a17.359,17.359,0,0,1,2-3.63C446.5,436.9,457.59,433.8,457.59,433.8Z" fill="#ffbf9d"/>
      <path id="Trazado_109712" data-name="Trazado 109712" d="M457.59,433.8s2.34,8.74,5.63,18.42S470.31,466,470.31,466s-7.39,1.68-10.86-3.17-8.63-21.71-16.23-20.52a17.359,17.359,0,0,1,2-3.63C446.5,436.9,457.59,433.8,457.59,433.8Z" opacity="0.3"/>
      <g id="Grupo_58303" data-name="Grupo 58303">
        <path id="Trazado_109713" data-name="Trazado 109713" d="M456.18,172.36s-5.13,30.8-11.06,39.24a8.761,8.761,0,0,1-.81,1c-4.59,4.85-10.22,15.25-12.91,20.47-1,1.92-1.58,3.14-1.58,3.14l-53-2.32s1.64-10.3,3.35-20.76c1.21-7.44,2.81-16.24,4.73-24.5.75-3.25,1.56-6.41,2.41-9.36,1.7-5.93,3.57-11.09,5.58-14.57a11.07,11.07,0,0,1,3.72-4.24s2.26-.21,6.16-.19H403A130.319,130.319,0,0,1,443,167a111.173,111.173,0,0,1,13.18,5.36Z" fill="#d9a171"/>
        <path id="Trazado_109714" data-name="Trazado 109714" d="M409,160.85S416.7,179,430.55,179s14.3-10.21,14.3-10.21S431,159.74,409,160.85Z" fill="#d9a171"/>
        <path id="Trazado_109715" data-name="Trazado 109715" d="M426.58,159.34c-9.21-2.49-14,.92-19.24,9.24l11.94,4.78,9.85,28.54,10.95-25.3,8.21.28S447.25,164.91,426.58,159.34Z" fill="#d9a171"/>
        <path id="Trazado_109716" data-name="Trazado 109716" d="M426.58,159.34c-9.21-2.49-14,.92-19.24,9.24l11.94,4.78,9.85,28.54,10.95-25.3,8.21.28S447.25,164.91,426.58,159.34Z" fill="#fff" opacity="0.6"/>
        <path id="Trazado_109717" data-name="Trazado 109717" d="M445.12,211.6a8.761,8.761,0,0,1-.81,1c-4.59,4.85-10.22,15.25-12.91,20.47-12.42-1.55-36.65-5.32-39.82-11.46-2.92-5.61-5.42-22.6-6.72-33,.75-3.25,1.56-6.41,2.41-9.36l18-5.05s3,18.8,3.43,27.68C409.08,209.22,435.8,211.15,445.12,211.6Z" opacity="0.2"/>
      </g>
      <g id="Grupo_58304" data-name="Grupo 58304">
        <path id="Trazado_109718" data-name="Trazado 109718" d="M436.15,165.76c.1,3.27,1.94,4,1.94,4,.67,6-7.68,21-7.68,21l-13-26.78c7.48-3,9.16-11.2,9.47-16.1a26.309,26.309,0,0,0,0-3.84l14,8.79a49.445,49.445,0,0,0-3.12,6.11A17.34,17.34,0,0,0,436.15,165.76Z" fill="#ffbf9d"/>
        <path id="Trazado_109719" data-name="Trazado 109719" d="M440,151.76a49.471,49.471,0,0,0-2.48,6.4,17.36,17.36,0,0,0-.87,6.91c-7.85.62-11-16.72-11-16.72l-.06-.1a27.8,27.8,0,0,0-.39-3.82Z" opacity="0.2"/>
      </g>
      <g id="Grupo_58309" data-name="Grupo 58309">
        <path id="Trazado_109720" data-name="Trazado 109720" d="M449.32,114.81c13.5,4.11,15.64,12.67,12.39,26.88-4.07,17.77-11.69,28.94-27.44,20.08C412.88,149.74,426.9,108,449.32,114.81Z" fill="#ffbf9d"/>
        <path id="Trazado_109721" data-name="Trazado 109721" d="M453.21,138.28a30.107,30.107,0,0,0,2.22,6.79,3.87,3.87,0,0,1-4,.45Z" fill="#ec873e"/>
        <g id="Grupo_58305" data-name="Grupo 58305">
          <path id="Trazado_109722" data-name="Trazado 109722" d="M445.28,134.65c-.31,1.12-1.17,1.86-1.91,1.65s-1.1-1.28-.78-2.4,1.17-1.86,1.91-1.65S445.6,133.54,445.28,134.65Z" fill="#344154"/>
          <path id="Trazado_109723" data-name="Trazado 109723" d="M444.17,132.22l2.7-.27S445.09,133.65,444.17,132.22Z" fill="#344154"/>
        </g>
        <g id="Grupo_58306" data-name="Grupo 58306">
          <path id="Trazado_109724" data-name="Trazado 109724" d="M459.23,138.3c-.31,1.12-1.17,1.86-1.91,1.65s-1.1-1.29-.78-2.4,1.17-1.86,1.91-1.65S459.55,137.19,459.23,138.3Z" fill="#344154"/>
          <path id="Trazado_109725" data-name="Trazado 109725" d="M458.12,135.87l2.7-.27S459,137.3,458.12,135.87Z" fill="#344154"/>
        </g>
        <path id="Trazado_109726" data-name="Trazado 109726" d="M448,125.29s-3.64-1.65-6.48.25" fill="none" stroke="#1a2e35" stroke-linecap="round" stroke-linejoin="round" stroke-width="0.72" opacity="0"/>
        <path id="Trazado_109727" data-name="Trazado 109727" d="M458,127.71s2.65-.16,5,2.75" fill="none" stroke="#1a2e35" stroke-linecap="round" stroke-linejoin="round" stroke-width="0.72" opacity="0"/>
        <path id="Trazado_109728" data-name="Trazado 109728" d="M427.62,133.06s9.7-9.17,11.36-18c0,0,30.08-2.77,23.12,24.79,0,0,10-23.32-13.08-30.93s-33.3,26.37-24.4,40.14C424.62,149,421.6,138.81,427.62,133.06Z" fill="#344154"/>
        <path id="Trazado_109729" data-name="Trazado 109729" d="M441.41,145.19a6.85,6.85,0,0,0,6.88,5.83" fill="none" stroke="#1a2e35" stroke-linecap="round" stroke-linejoin="round" stroke-width="0.72" opacity="0"/>
        <g id="Grupo_58308" data-name="Grupo 58308">
          <path id="Trazado_109730" data-name="Trazado 109730" d="M425.29,130.36a.37.37,0,0,0,.21.44.29.29,0,0,0,.1,0l13.73,3.2a6,6,0,0,0,3.47,6.38,7.2,7.2,0,0,0,9.23-2.5,5.558,5.558,0,0,0,.41-.9,2.29,2.29,0,0,1,1.78-.51,1.25,1.25,0,0,1,.7.81,6,6,0,0,0,3.49,6.34,7.21,7.21,0,0,0,9.22-2.5,5.87,5.87,0,0,0-2.77-8.33,7.2,7.2,0,0,0-9.23,2.5,6.183,6.183,0,0,0-.41.91,1.7,1.7,0,0,0-.7-.45,2.45,2.45,0,0,0-1.79.18,6,6,0,0,0-3.47-6.38,7.22,7.22,0,0,0-9.23,2.5,6.574,6.574,0,0,0-.53,1.19l-13.69-3.19A.43.43,0,0,0,425.29,130.36Zm31.1,5.33a6.3,6.3,0,0,1,8.06-2.19,5.12,5.12,0,0,1,2.42,7.28,6.28,6.28,0,0,1-8.06,2.18,5.12,5.12,0,0,1-2.42-7.27Zm-15.6-3.24a6.29,6.29,0,0,1,8.06-2.18,5.11,5.11,0,0,1,2.42,7.27,6.29,6.29,0,0,1-8.06,2.19,5.13,5.13,0,0,1-2.42-7.28Z" fill="#344154"/>
          <g id="Grupo_58307" data-name="Grupo 58307" opacity="0.3">
            <path id="Trazado_109731" data-name="Trazado 109731" d="M425.29,130.36a.37.37,0,0,0,.21.44.29.29,0,0,0,.1,0l13.73,3.2a6,6,0,0,0,3.47,6.38,7.2,7.2,0,0,0,9.23-2.5,5.558,5.558,0,0,0,.41-.9,2.29,2.29,0,0,1,1.78-.51,1.25,1.25,0,0,1,.7.81,6,6,0,0,0,3.49,6.34,7.21,7.21,0,0,0,9.22-2.5,5.87,5.87,0,0,0-2.77-8.33,7.2,7.2,0,0,0-9.23,2.5,6.183,6.183,0,0,0-.41.91,1.7,1.7,0,0,0-.7-.45,2.45,2.45,0,0,0-1.79.18,6,6,0,0,0-3.47-6.38,7.22,7.22,0,0,0-9.23,2.5,6.574,6.574,0,0,0-.53,1.19l-13.69-3.19A.43.43,0,0,0,425.29,130.36Zm31.1,5.33a6.3,6.3,0,0,1,8.06-2.19,5.12,5.12,0,0,1,2.42,7.28,6.28,6.28,0,0,1-8.06,2.18,5.12,5.12,0,0,1-2.42-7.27Zm-15.6-3.24a6.29,6.29,0,0,1,8.06-2.18,5.11,5.11,0,0,1,2.42,7.27,6.29,6.29,0,0,1-8.06,2.19,5.13,5.13,0,0,1-2.42-7.28Z" fill="#fff"/>
          </g>
        </g>
        <path id="Trazado_109732" data-name="Trazado 109732" d="M429,136.58c.57-2.2-.55-6.56-4.72-7.35-4.33-.82-8.94,7.16.84,12.4C426.48,142.38,427.77,141.18,429,136.58Z" fill="#ffbf9d"/>
      </g>
      <g id="Grupo_58310" data-name="Grupo 58310">
        <path id="Trazado_109733" data-name="Trazado 109733" d="M448.29,224.93s13.58-2.88,22.83-3.32,19.6-.61,17.05,4.39l-37.62.36Z" fill="#d9a171"/>
        <path id="Trazado_109734" data-name="Trazado 109734" d="M448.29,224.93s13.58-2.88,22.83-3.32,19.6-.61,17.05,4.39l-37.62.36Z" fill="#fff" opacity="0.7"/>
        <rect id="Rectángulo_8831" data-name="Rectángulo 8831" width="43.52" height="1.47" transform="translate(446.57 224.94)" fill="#344154"/>
      </g>
      <rect id="Rectángulo_8832" data-name="Rectángulo 8832" width="1.91" height="21.65" transform="translate(446.949 200.284) rotate(-24.58)" fill="#344154"/>
      <path id="Trazado_109735" data-name="Trazado 109735" d="M430.41,216.51l12.43,3s2.32-3.13,5.15-4.22,13.64-2.78,13.64-2.78l2.62,12.47s-17.47,1.79-18.85,1.42l-15-1.43Z" fill="#ffbf9d"/>
      <g id="Grupo_58311" data-name="Grupo 58311">
        <path id="Trazado_109736" data-name="Trazado 109736" d="M396.58,160.45c-8.67,2.5-9.31,48-5.91,53.93s44.34,12,44.34,12l2.63-9.16s-34-11.79-34.52-12.72,2.22-27,2.22-32.12S396.58,160.45,396.58,160.45Z" fill="#d9a171"/>
        <path id="Trazado_109737" data-name="Trazado 109737" d="M435.94,215.25l-1.83,12.73,3.53-.51,2.34-11.39Z" fill="#d9a171"/>
        <path id="Trazado_109738" data-name="Trazado 109738" d="M435.94,215.25l-1.83,12.73,3.53-.51,2.34-11.39Z" fill="#fff" opacity="0.6"/>
      </g>
    </g>
    <g id="Grupo_58318" data-name="Grupo 58318">
      <g id="Grupo_58313" data-name="Grupo 58313">
        <path id="Trazado_109739" data-name="Trazado 109739" d="M503.78,472.66h-9.22l-1.51-235.44h12.23Z" fill="#344154"/>
        <path id="Trazado_109740" data-name="Trazado 109740" d="M505.29,237.6l-.24,37.2-1.27,197.86h-9.22L493.3,274.8l-.24-37.2Z" fill="#fff" opacity="0.4"/>
        <path id="Trazado_109741" data-name="Trazado 109741" d="M505.29,237.6l-.24,37.62H493.3l-.24-37.62Z" opacity="0.2"/>
      </g>
      <g id="Grupo_58314" data-name="Grupo 58314">
        <path id="Trazado_109742" data-name="Trazado 109742" d="M601.65,472.66h-9.22L575.87,237.22H588.1Z" fill="#344154"/>
        <path id="Trazado_109743" data-name="Trazado 109743" d="M601.65,472.66h-9.22L576.67,248.68l-.81-11.08H588.1l.66,11.08Z" fill="#fff" opacity="0.5"/>
        <path id="Trazado_109744" data-name="Trazado 109744" d="M588.76,248.13H576.67l-.81-10.53H588.1Z" opacity="0.2"/>
      </g>
      <g id="Grupo_58315" data-name="Grupo 58315">
        <path id="Trazado_109745" data-name="Trazado 109745" d="M405.9,472.66h-9.21l13.55-235.44h12.23Z" fill="#344154"/>
        <path id="Trazado_109746" data-name="Trazado 109746" d="M422.47,237.6l-.82,11.08L405.9,472.66h-9.21l12.88-223.98.66-11.08Z" fill="#fff" opacity="0.5"/>
        <path id="Trazado_109747" data-name="Trazado 109747" d="M410.23,237.6h12.24l-.82,10.53H409.57Z" opacity="0.2"/>
      </g>
      <g id="Grupo_58316" data-name="Grupo 58316">
        <path id="Trazado_109748" data-name="Trazado 109748" d="M400.54,231.45H597.79v9.39a2.16,2.16,0,0,1-2.16,2.16H402.71a2.16,2.16,0,0,1-2.16-2.16v-9.39Z" fill="#344154"/>
        <path id="Trazado_109749" data-name="Trazado 109749" d="M400.54,231.45H597.79v9.39a2.16,2.16,0,0,1-2.16,2.16H402.71a2.16,2.16,0,0,1-2.16-2.16v-9.39Z" fill="#fff" opacity="0.6"/>
      </g>
      <rect id="Rectángulo_8833" data-name="Rectángulo 8833" width="197.25" height="5.78" transform="translate(400.54 231.45)" opacity="0.2"/>
      <g id="Grupo_58317" data-name="Grupo 58317">
        <path id="Trazado_109750" data-name="Trazado 109750" d="M603.5,233H394.83a3.25,3.25,0,0,1-3.25-3.26h0a3.25,3.25,0,0,1,3.25-3.25H603.5a3.26,3.26,0,0,1,3.26,3.25h0A3.26,3.26,0,0,1,603.5,233Z" fill="#344154"/>
        <path id="Trazado_109751" data-name="Trazado 109751" d="M603.5,233H394.83a3.25,3.25,0,0,1-3.25-3.26h0a3.25,3.25,0,0,1,3.25-3.25H603.5a3.26,3.26,0,0,1,3.26,3.25h0A3.26,3.26,0,0,1,603.5,233Z" fill="#fff" opacity="0.6"/>
      </g>
    </g>
    <g id="Grupo_58319" data-name="Grupo 58319">
      <path id="Trazado_109752" data-name="Trazado 109752" d="M573.9,220.65v3.77c0,1.14-1.95,1.94-3.07,1.94H482.64c-1.14,0-2.94-.8-2.94-1.94v-3.77Z" fill="#344154"/>
      <path id="Trazado_109753" data-name="Trazado 109753" d="M573.9,220.65v3.77c0,1.14-1.95,1.94-3.07,1.94H482.64c-1.14,0-2.94-.8-2.94-1.94v-3.77Z" fill="#fff" opacity="0.6"/>
      <path id="Trazado_109754" data-name="Trazado 109754" d="M573.9,220.65v3.77c0,1.14-1.95,1.94-3.07,1.94H512.66c-1.13,0-3-.8-3-1.94v-3.77Z" opacity="0.2"/>
      <path id="Trazado_109755" data-name="Trazado 109755" d="M588,174.28l-10.5,47.78a3.72,3.72,0,0,1-3.41,2.87H516.78a2.49,2.49,0,0,1-2.16-3.2l10.49-47.27a3.29,3.29,0,0,1,3.41-2.34h57.35C587.41,172.12,588.38,172.73,588,174.28Z" fill="#344154"/>
      <path id="Trazado_109756" data-name="Trazado 109756" d="M588,174.28l-10.5,47.78a3.72,3.72,0,0,1-3.41,2.87H516.78a2.49,2.49,0,0,1-2.16-3.2l10.49-47.27a3.29,3.29,0,0,1,3.41-2.34h57.35C587.41,172.12,588.38,172.73,588,174.28Z" fill="#fff" opacity="0.6"/>
      <path id="Trazado_109757" data-name="Trazado 109757" d="M588,174.28l-10.5,47.78a3.72,3.72,0,0,1-3.41,2.87h-55.4a2.5,2.5,0,0,1-2.17-3.2l10.5-47.27a3.28,3.28,0,0,1,3.41-2.34h55.4C587.41,172.12,588.38,172.73,588,174.28Z" fill="#fff" opacity="0.4"/>
      <path id="Trazado_109758" data-name="Trazado 109758" d="M554.3,204.91c2.67,0,5.41-2.87,6.11-6.4s-.91-6.41-3.6-6.41a4,4,0,0,0-1.48.29,8.24,8.24,0,0,1-4.55,5.84,1.477,1.477,0,0,1-.08.28C550,202,551.62,204.91,554.3,204.91Z" opacity="0.2"/>
    </g>
  </g>
</svg>
