<svg xmlns="http://www.w3.org/2000/svg" width="250" height="250" viewBox="0 0 250 250">
  <g id="Grupo_58402" data-name="Grupo 58402" transform="translate(-925.568 -3529.937)">
    <rect id="Rectángulo_8893" data-name="Rectángulo 8893" width="250" height="250" transform="translate(925.568 3529.937)" fill="none"/>
    <g id="Grupo_58398" data-name="Grupo 58398">
      <circle id="Elipse_4183" data-name="Elipse 4183" cx="108.851" cy="108.851" r="108.851" transform="translate(931.521 3752.531) rotate(-84.345)" fill="#f2e9e4"/>
      <path id="Trazado_110263" data-name="Trazado 110263" d="M1159.418,3654.936h-5.682a103.167,103.167,0,1,1-30.217-72.951,102.826,102.826,0,0,1,30.217,72.951H1165.1a114.531,114.531,0,1,0-33.545,80.987,114.193,114.193,0,0,0,33.545-80.987Z" fill="#fff"/>
    </g>
    <g id="Grupo_58401" data-name="Grupo 58401">
      <g id="Grupo_58399" data-name="Grupo 58399">
        <path id="Trazado_110264" data-name="Trazado 110264" d="M1125.377,3596.921H1114.69v-15.267H986.445v15.267H975.758a7.631,7.631,0,0,0-7.633,7.629v102.295h64.122l3.053,12.214h30.535l3.053-12.214h64.122v-102.29a7.632,7.632,0,0,0-7.629-7.634Zm-114.5-6.107h79.389a15.267,15.267,0,0,0,15.267,15.267v24.428a15.267,15.267,0,0,0-15.267,15.267h-79.389a15.267,15.267,0,0,0-15.267-15.267v-24.428A15.267,15.267,0,0,0,1010.873,3590.814Zm112.977,106.871H977.285v-91.6h9.16v48.855H1114.69v-48.855h9.16Z" fill="#aed3f2"/>
        <path id="Trazado_110265" data-name="Trazado 110265" d="M1050.567,3633.562a15.267,15.267,0,1,0-15.267-15.267A15.267,15.267,0,0,0,1050.567,3633.562Z" fill="#aed3f2"/>
      </g>
      <path id="Trazado_110266" data-name="Trazado 110266" d="M1013.672,3642.723a18.37,18.37,0,0,0-15.013-15.013v-18.83a18.368,18.368,0,0,0,15.013-15.012h73.791a18.367,18.367,0,0,0,15.013,15.012v18.83a18.369,18.369,0,0,0-15.013,15.013Z" fill="#fff" stroke="#344154" stroke-miterlimit="10" stroke-width="1"/>
      <g id="Grupo_58400" data-name="Grupo 58400">
        <path id="Trazado_110267" data-name="Trazado 110267" d="M1142.17,3703.791h-6.106v-99.236a10.7,10.7,0,0,0-10.687-10.687h-7.634v-12.214a3.053,3.053,0,0,0-3.053-3.053H986.445a3.053,3.053,0,0,0-3.053,3.053v12.214h-7.634a10.7,10.7,0,0,0-10.687,10.687v99.236h-6.107a3.053,3.053,0,0,0-3.053,3.054v13.74a10.7,10.7,0,0,0,10.687,10.687h167.939a10.7,10.7,0,0,0,10.687-10.687v-13.74A3.053,3.053,0,0,0,1142.17,3703.791ZM989.5,3584.707h122.137v67.176H989.5Zm-3.054,73.283h51.909v18.32a3.054,3.054,0,1,0,6.107,0v-18.32h3.053v18.32a3.053,3.053,0,1,0,6.107,0v-18.32h3.053V3670.2a3.054,3.054,0,0,0,6.107,0V3657.99h51.909a3.053,3.053,0,0,0,3.053-3.054v-45.8h3.053v85.5H980.338v-85.5h3.054v45.8A3.053,3.053,0,0,0,986.445,3657.99Zm-15.267-53.435a4.584,4.584,0,0,1,4.58-4.58h7.634v3.053h-6.107a3.053,3.053,0,0,0-3.053,3.053v91.6a3.053,3.053,0,0,0,3.053,3.053H1123.85a3.053,3.053,0,0,0,3.053-3.053v-91.6a3.053,3.053,0,0,0-3.053-3.053h-6.107v-3.053h7.634a4.584,4.584,0,0,1,4.58,4.58v99.236H971.178Zm93.8,105.343-1.527,6.107h-25.763l-1.527-6.107Zm74.141,10.687a4.583,4.583,0,0,1-4.58,4.58H966.6a4.583,4.583,0,0,1-4.58-4.58V3709.9h67.843l2.477,9.9a3.054,3.054,0,0,0,2.962,2.313h30.535a3.052,3.052,0,0,0,2.961-2.313l2.478-9.9h67.843Z" fill="#344154"/>
        <path id="Trazado_110268" data-name="Trazado 110268" d="M1050.567,3599.975a18.32,18.32,0,1,0,18.321,18.32A18.32,18.32,0,0,0,1050.567,3599.975Zm0,30.534a12.214,12.214,0,1,1,12.214-12.214A12.213,12.213,0,0,1,1050.567,3630.509Z" fill="#344154"/>
        <path id="Trazado_110269" data-name="Trazado 110269" d="M1093.316,3645.776a12.227,12.227,0,0,1,12.213-12.214,3.053,3.053,0,0,0,3.054-3.053v-24.428a3.053,3.053,0,0,0-3.054-3.053,12.227,12.227,0,0,1-12.213-12.214,3.054,3.054,0,0,0-3.054-3.053h-79.389a3.053,3.053,0,0,0-3.054,3.053,12.227,12.227,0,0,1-12.213,12.214,3.053,3.053,0,0,0-3.054,3.053v24.428a3.053,3.053,0,0,0,3.054,3.053,12.227,12.227,0,0,1,12.213,12.214,3.054,3.054,0,0,0,3.054,3.054h79.389A3.055,3.055,0,0,0,1093.316,3645.776Zm-79.644-3.053a18.37,18.37,0,0,0-15.013-15.013v-18.83a18.368,18.368,0,0,0,15.013-15.012h73.791a18.367,18.367,0,0,0,15.013,15.012v18.83a18.369,18.369,0,0,0-15.013,15.013Z" fill="#344154"/>
        <path id="Trazado_110270" data-name="Trazado 110270" d="M1050.567,3691.578a3.053,3.053,0,0,0,3.054-3.054v-3.053a3.053,3.053,0,1,0-6.107,0v3.053A3.053,3.053,0,0,0,1050.567,3691.578Z" fill="#344154"/>
      </g>
    </g>
  </g>
</svg>
