<svg xmlns="http://www.w3.org/2000/svg" width="250" height="250" viewBox="0 0 250 250">
  <g id="Grupo_58409" data-name="Grupo 58409" transform="translate(-925.568 -3822.129)">
    <rect id="Rect치ngulo_8894" data-name="Rect치ngulo 8894" width="250" height="250" transform="translate(925.568 3822.129)" fill="none"/>
    <g id="Grupo_58403" data-name="Grupo 58403">
      <circle id="Elipse_4184" data-name="Elipse 4184" cx="108.851" cy="108.851" r="108.851" transform="translate(931.521 4044.724) rotate(-84.345)" fill="#f2e9e4"/>
      <path id="Trazado_110271" data-name="Trazado 110271" d="M1159.418,3947.129h-5.682a103.169,103.169,0,1,1-30.217-72.951,102.822,102.822,0,0,1,30.217,72.951H1165.1a114.53,114.53,0,1,0-33.545,80.987,114.193,114.193,0,0,0,33.545-80.987Z" fill="#fff"/>
    </g>
    <g id="Grupo_58408" data-name="Grupo 58408">
      <g id="Grupo_58407" data-name="Grupo 58407">
        <g id="Grupo_58406" data-name="Grupo 58406">
          <g id="Grupo_58404" data-name="Grupo 58404">
            <path id="Trazado_110272" data-name="Trazado 110272" d="M958.964,3930.053v79.389H1142.17v-79.389Zm54.962,30.534H971.178v-18.321h42.748Z" fill="#aed3f2"/>
          </g>
          <g id="Grupo_58405" data-name="Grupo 58405">
            <path id="Trazado_110273" data-name="Trazado 110273" d="M1142.17,3927H958.964a3.053,3.053,0,0,0-3.053,3.054v79.389a3.053,3.053,0,0,0,3.053,3.053H1142.17a3.053,3.053,0,0,0,3.054-3.053v-79.389A3.053,3.053,0,0,0,1142.17,3927Zm-3.053,79.39h-177.1v-73.283h177.1Z" fill="#344154"/>
            <path id="Trazado_110274" data-name="Trazado 110274" d="M971.178,3963.64h42.748a3.053,3.053,0,0,0,3.054-3.053v-18.321a3.054,3.054,0,0,0-3.054-3.053H971.178a3.053,3.053,0,0,0-3.053,3.053v18.321A3.053,3.053,0,0,0,971.178,3963.64Zm3.054-18.32h36.641v12.214H974.232Z" fill="#344154"/>
            <path id="Trazado_110275" data-name="Trazado 110275" d="M970.856,3990.265a3.053,3.053,0,0,0,2.8-3.214,1.844,1.844,0,0,1,1.619-.447c1.506.441,2.816,2.15,4.028,3.864,1.613,2.278,3.62,5.114,6.921,6.349a9.73,9.73,0,0,0,3.441.615c4.021,0,7.768-2.314,10.446-3.969a116.286,116.286,0,0,1,17.366-8.807c4.184-1.7,8.986-3.217,12.885-1.645a19.91,19.91,0,0,1,4.759,3.2,26.041,26.041,0,0,0,5.94,3.96c6.239,2.738,13.183.69,17.862-1.088a87.471,87.471,0,0,0,19.188-10.175l.5-.356a17.133,17.133,0,0,1,4.026-2.359,3.43,3.43,0,0,1,3.007.144,3.053,3.053,0,1,0,3.755-4.816,9.274,9.274,0,0,0-8.74-1.107,22.315,22.315,0,0,0-5.573,3.15l-.488.344a81.334,81.334,0,0,1-17.847,9.465c-3.678,1.4-9.052,3.043-13.241,1.205a21.162,21.162,0,0,1-4.542-3.108,24.757,24.757,0,0,0-6.323-4.119c-3.127-1.262-7.939-2.213-17.466,1.65a122.258,122.258,0,0,0-18.279,9.27c-3.321,2.052-6.258,3.681-8.539,2.829-1.541-.576-2.829-2.4-4.074-4.157-1.754-2.478-3.908-5.2-7.3-6.2a7.981,7.981,0,0,0-7.083,1.472,6.11,6.11,0,0,0-2.345,5.257,3.052,3.052,0,0,0,3.286,2.8Z" fill="#344154"/>
            <path id="Trazado_110276" data-name="Trazado 110276" d="M1105.529,3945.32h24.428a3.054,3.054,0,0,0,0-6.107h-24.428a3.054,3.054,0,0,0,0,6.107Z" fill="#344154"/>
            <path id="Trazado_110277" data-name="Trazado 110277" d="M1129.957,3948.373h-12.214a3.053,3.053,0,0,0,0,6.107h12.214a3.053,3.053,0,0,0,0-6.107Z" fill="#344154"/>
          </g>
        </g>
      </g>
      <path id="Trazado_110278" data-name="Trazado 110278" d="M1081.674,3946.162a69.322,69.322,0,0,0-.835-10.811,59.447,59.447,0,0,0-2.281-9.456,48.215,48.215,0,0,0-7.683-14.536,43.775,43.775,0,0,0-6.351-6.579,46.041,46.041,0,0,0-8.267-5.522,56.966,56.966,0,0,0-12.676-4.889,48.016,48.016,0,0,0-27.759,1.261,54.082,54.082,0,0,0-9.229,4.241l-10.8-13.819-.121.094,2.794,27.759,26.262,9.405.121-.095-10.63-13.6a41.311,41.311,0,0,1,5.623-2.453,36.147,36.147,0,0,1,11.925-2.054,36.541,36.541,0,0,1,8.865,1.109,44.8,44.8,0,0,1,9.96,3.855,32.6,32.6,0,0,1,9.759,7.7,33.438,33.438,0,0,1,4.583,6.989,42.994,42.994,0,0,1,3.637,11.269,56.6,56.6,0,0,1,.894,10.13c0,2.272-.13,4.156-.256,5.439-.064.642-.126,1.133-.169,1.448-.022.158-.039.271-.049.337l-.011.063v.005h0a6.107,6.107,0,0,0,12.038,2.067h0A59.433,59.433,0,0,0,1081.674,3946.162Z" fill="#aed3f2"/>
      <path id="Trazado_110279" data-name="Trazado 110279" d="M1081.674,3946.162h3.053a72.418,72.418,0,0,0-.872-11.288,62.363,62.363,0,0,0-2.4-9.943,51.213,51.213,0,0,0-8.175-15.452,46.827,46.827,0,0,0-6.792-7.037,49.1,49.1,0,0,0-8.813-5.889,60.085,60.085,0,0,0-13.356-5.147h0a51.045,51.045,0,0,0-29.5,1.339,57.126,57.126,0,0,0-9.751,4.48l1.526,2.645,2.4-1.881-12.687-16.227-3.851,3.016,3.156,31.351,29.661,10.622,3.853-3.013-12.511-16-2.405,1.88,1.42,2.7a38.23,38.23,0,0,1,5.206-2.272,33.067,33.067,0,0,1,10.922-1.884h0a33.485,33.485,0,0,1,8.128,1.018h0a41.691,41.691,0,0,1,9.282,3.6h0a29.516,29.516,0,0,1,8.861,6.983l0,0a30.406,30.406,0,0,1,4.165,6.355h0a39.944,39.944,0,0,1,3.372,10.466v0a53.677,53.677,0,0,1,.844,9.568h2.941l-2.941-.073s0,.023,0,.073h2.941l-2.941-.073s0,.061,0,.173a3.063,3.063,0,0,0,.05.47l3-.559h-3.053c0,2.155-.124,3.943-.242,5.14-.059.6-.117,1.051-.155,1.328v0c-.018.138-.033.232-.04.276v0l-.01.063-.006.039-.007.051-.326,2.495,2.389.8.965-2.9-3.01-.514a9.16,9.16,0,0,0,18.056,3.1l.619-3.575h-3.628v3.054l3.012.5c.005-.03.023-.136.046-.285a64.485,64.485,0,0,0,.657-9.577h-6.106c0,2.621-.15,4.8-.3,6.337-.076.768-.152,1.377-.211,1.8-.03.213-.054.379-.073.5s-.03.183-.035.217l-.6,3.558h3.608v-3.053L1078,3955a3.057,3.057,0,0,1-3,2.534,3.094,3.094,0,0,1-.528-.045,3.055,3.055,0,0,1-2.533-3,3.115,3.115,0,0,1,.044-.519l.441-2.583-2.486-.828-.965,2.9,3.028.4v-.005l-3.028-.4,3.016.481.01-.063v0c.013-.087.033-.22.058-.4v0c.049-.353.116-.883.183-1.568.135-1.369.272-3.349.272-5.738v-.281l-.052-.277-2.97.553h3.021a2.961,2.961,0,0,0-.051-.553l-2.97.553h.08l2.94.073s0-.024,0-.073h-2.941l2.94.073s0-.027,0-.079a59.692,59.692,0,0,0-.943-10.67h0a46.061,46.061,0,0,0-3.9-12.072h0a36.548,36.548,0,0,0-5-7.623l0,0a35.652,35.652,0,0,0-10.657-8.413h0a47.789,47.789,0,0,0-10.638-4.113h0a39.591,39.591,0,0,0-9.6-1.2h0a39.194,39.194,0,0,0-12.927,2.223,44.3,44.3,0,0,0-6.04,2.634l-3.24,1.7,12.885,16.478,2.4-1.88-1.881-2.406-.121.095,1.881,2.406,1.029-2.875-24.446-8.754-2.6-25.841-3.038.306,1.882,2.4.122-.094-1.883-2.4-2.406,1.88,12.438,15.909,2.3-1.325a51.07,51.07,0,0,1,8.708-4,44.948,44.948,0,0,1,26.015-1.181h0a53.907,53.907,0,0,1,12,4.63,43.012,43.012,0,0,1,7.721,5.155,40.8,40.8,0,0,1,5.908,6.122,45.132,45.132,0,0,1,7.192,13.62,56.222,56.222,0,0,1,2.163,8.97,66.326,66.326,0,0,1,.8,10.334h3.054Z" fill="#344154"/>
      <rect id="Rect치ngulo_8895" data-name="Rect치ngulo 8895" width="36.641" height="12.214" transform="translate(974.232 3945.32)" fill="#fff"/>
    </g>
  </g>
</svg>
