<svg xmlns="http://www.w3.org/2000/svg" width="250" height="250" viewBox="0 0 250 250">
  <g id="Grupo_58426" data-name="Grupo 58426" transform="translate(-925.568 -4810.886)">
    <rect id="Rectángulo_8898" data-name="Rectángulo 8898" width="250" height="250" transform="translate(925.568 4810.886)" fill="none"/>
    <g id="Grupo_58421" data-name="Grupo 58421">
      <circle id="Elipse_4188" data-name="Elipse 4188" cx="108.851" cy="108.851" r="108.851" transform="translate(931.521 5033.481) rotate(-84.345)" fill="#f2e9e4"/>
      <path id="Trazado_110299" data-name="Trazado 110299" d="M1159.418,4935.886h-5.682a103.169,103.169,0,1,1-30.217-72.951,102.823,102.823,0,0,1,30.217,72.951H1165.1a114.531,114.531,0,1,0-33.545,80.986,114.2,114.2,0,0,0,33.545-80.986Z" fill="#fff"/>
    </g>
    <g id="Grupo_58425" data-name="Grupo 58425">
      <g id="Grupo_58424" data-name="Grupo 58424">
        <g id="Grupo_58422" data-name="Grupo 58422">
          <path id="Trazado_110300" data-name="Trazado 110300" d="M1134.537,4856.5H1033.774a7.631,7.631,0,0,0-7.634,7.629v77.867H958.964v73.282h128.245v-54.961h47.328a7.631,7.631,0,0,0,7.633-7.629V4864.13a7.63,7.63,0,0,0-7.629-7.633Zm-56.489,109.923v24.428a15.267,15.267,0,0,0-15.267,15.267H983.392a15.267,15.267,0,0,0-15.267-15.267V4966.42a15.267,15.267,0,0,0,15.267-15.267h73.282l6.222,1.867A15.266,15.266,0,0,0,1078.048,4966.42Z" fill="#aed3f2"/>
          <circle id="Elipse_4189" data-name="Elipse 4189" cx="15.267" cy="15.267" r="15.267" transform="translate(1007.819 4963.367)" fill="#aed3f2"/>
        </g>
        <g id="Grupo_58423" data-name="Grupo 58423">
          <path id="Trazado_110301" data-name="Trazado 110301" d="M1023.086,4996.955a18.321,18.321,0,1,0-18.32-18.321A18.321,18.321,0,0,0,1023.086,4996.955Zm0-30.535a12.214,12.214,0,1,1-12.213,12.214A12.214,12.214,0,0,1,1023.086,4966.42Z" fill="#344154"/>
          <path id="Trazado_110302" data-name="Trazado 110302" d="M968.125,4993.9a12.228,12.228,0,0,1,12.213,12.214,3.054,3.054,0,0,0,3.054,3.054h79.389a3.054,3.054,0,0,0,3.054-3.054,12.228,12.228,0,0,1,12.213-12.214,3.053,3.053,0,0,0,3.054-3.053V4966.42a3.053,3.053,0,0,0-3.054-3.053,12.227,12.227,0,0,1-12.213-12.214,3.053,3.053,0,0,0-3.054-3.053H983.392a3.053,3.053,0,0,0-3.054,3.053,12.227,12.227,0,0,1-12.213,12.214,3.053,3.053,0,0,0-3.054,3.053v24.428A3.053,3.053,0,0,0,968.125,4993.9Zm3.053-24.682a18.369,18.369,0,0,0,15.013-15.012h73.791a18.369,18.369,0,0,0,15.013,15.012v18.83a18.37,18.37,0,0,0-15.013,15.013H986.191a18.37,18.37,0,0,0-15.013-15.013Z" fill="#344154"/>
          <path id="Trazado_110303" data-name="Trazado 110303" d="M1134.537,4853.443H1033.774a10.7,10.7,0,0,0-10.688,10.687v74.809H958.964a3.054,3.054,0,0,0-3.053,3.054v73.282a3.054,3.054,0,0,0,3.053,3.054h128.245a3.053,3.053,0,0,0,3.053-3.054v-51.908h44.275a10.7,10.7,0,0,0,10.687-10.687v-88.55A10.7,10.7,0,0,0,1134.537,4853.443Zm-50.382,158.779H962.018v-67.176h122.137Zm54.962-59.542a4.583,4.583,0,0,1-4.58,4.58h-44.275v-15.267a3.054,3.054,0,0,0-3.053-3.054h-58.016V4864.13a4.585,4.585,0,0,1,4.581-4.58h100.763a4.584,4.584,0,0,1,4.58,4.58Z" fill="#344154"/>
        </g>
      </g>
      <path id="Trazado_110304" data-name="Trazado 110304" d="M1059.812,4895.125h16.33v34.135h16.031v-34.135H1108.5l-24.341-24.335Z" fill="#fff"/>
      <path id="Trazado_110305" data-name="Trazado 110305" d="M1059.812,4895.125v1.908h14.421v32.226a1.907,1.907,0,0,0,1.908,1.909h16.03a1.909,1.909,0,0,0,1.909-1.909v-32.226H1108.5a1.909,1.909,0,0,0,1.35-3.258l-24.342-24.335a1.908,1.908,0,0,0-2.7,0l-24.347,24.336a1.908,1.908,0,0,0,1.349,3.258v-1.908l1.349,1.349,23-22.986,19.733,19.728h-11.72a1.909,1.909,0,0,0-1.908,1.909v32.226H1078.05v-32.226a1.909,1.909,0,0,0-1.908-1.909h-16.33v1.909l1.349,1.349Z" fill="#344154"/>
    </g>
  </g>
</svg>
