<svg xmlns="http://www.w3.org/2000/svg" width="250" height="250" viewBox="0 0 250 250">
  <g id="Grupo_58420" data-name="Grupo 58420" transform="translate(-925.568 -4474.801)">
    <rect id="Rectángulo_8897" data-name="Rectángulo 8897" width="250" height="250" transform="translate(925.568 4474.801)" fill="none"/>
    <g id="Grupo_58415" data-name="Grupo 58415">
      <circle id="Elipse_4186" data-name="Elipse 4186" cx="108.851" cy="108.851" r="108.851" transform="translate(931.521 4697.396) rotate(-84.345)" fill="#f2e9e4"/>
      <path id="Trazado_110292" data-name="Trazado 110292" d="M1159.418,4599.8h-5.682a103.169,103.169,0,1,1-30.217-72.951,102.824,102.824,0,0,1,30.217,72.951H1165.1a114.53,114.53,0,1,0-33.545,80.987A114.2,114.2,0,0,0,1165.1,4599.8Z" fill="#fff"/>
    </g>
    <g id="Grupo_58419" data-name="Grupo 58419">
      <g id="Grupo_58418" data-name="Grupo 58418">
        <g id="Grupo_58416" data-name="Grupo 58416">
          <path id="Trazado_110293" data-name="Trazado 110293" d="M1134.537,4520.412H1033.774a7.631,7.631,0,0,0-7.634,7.629v77.867H958.964v73.283h128.245v-54.962h47.328a7.631,7.631,0,0,0,7.633-7.629v-88.555a7.63,7.63,0,0,0-7.629-7.633Zm-56.489,109.924v24.427a15.267,15.267,0,0,0-15.267,15.267H983.392a15.267,15.267,0,0,0-15.267-15.267v-24.427a15.268,15.268,0,0,0,15.267-15.268h73.282l6.222,1.867A15.267,15.267,0,0,0,1078.048,4630.336Z" fill="#aed3f2"/>
          <circle id="Elipse_4187" data-name="Elipse 4187" cx="15.267" cy="15.267" r="15.267" transform="translate(1007.819 4627.282)" fill="#aed3f2"/>
        </g>
        <g id="Grupo_58417" data-name="Grupo 58417">
          <path id="Trazado_110294" data-name="Trazado 110294" d="M1023.086,4660.87a18.321,18.321,0,1,0-18.32-18.321A18.321,18.321,0,0,0,1023.086,4660.87Zm0-30.534a12.214,12.214,0,1,1-12.213,12.213A12.213,12.213,0,0,1,1023.086,4630.336Z" fill="#344154"/>
          <path id="Trazado_110295" data-name="Trazado 110295" d="M968.125,4657.816a12.228,12.228,0,0,1,12.213,12.214,3.054,3.054,0,0,0,3.054,3.054h79.389a3.054,3.054,0,0,0,3.054-3.054,12.228,12.228,0,0,1,12.213-12.214,3.053,3.053,0,0,0,3.054-3.053v-24.427a3.053,3.053,0,0,0-3.054-3.054,12.227,12.227,0,0,1-12.213-12.214,3.053,3.053,0,0,0-3.054-3.053H983.392a3.053,3.053,0,0,0-3.054,3.053,12.227,12.227,0,0,1-12.213,12.214,3.053,3.053,0,0,0-3.054,3.054v24.427A3.053,3.053,0,0,0,968.125,4657.816Zm3.053-24.682a18.368,18.368,0,0,0,15.013-15.012h73.791a18.368,18.368,0,0,0,15.013,15.012v18.83a18.37,18.37,0,0,0-15.013,15.013H986.191a18.37,18.37,0,0,0-15.013-15.013Z" fill="#344154"/>
          <path id="Trazado_110296" data-name="Trazado 110296" d="M1134.537,4517.358H1033.774a10.7,10.7,0,0,0-10.688,10.687v74.81H958.964a3.053,3.053,0,0,0-3.053,3.053v73.283a3.053,3.053,0,0,0,3.053,3.053h128.245a3.053,3.053,0,0,0,3.053-3.053v-51.909h44.275a10.7,10.7,0,0,0,10.687-10.687v-88.55A10.7,10.7,0,0,0,1134.537,4517.358Zm-50.382,158.779H962.018v-67.176h122.137Zm54.962-59.542a4.583,4.583,0,0,1-4.58,4.58h-44.275v-15.267a3.053,3.053,0,0,0-3.053-3.053h-58.016v-74.81a4.585,4.585,0,0,1,4.581-4.58h100.763a4.584,4.584,0,0,1,4.58,4.58Z" fill="#344154"/>
        </g>
      </g>
      <path id="Trazado_110297" data-name="Trazado 110297" d="M1108.5,4568.839h-16.33V4534.7H1076.14v34.135h-16.328l24.341,24.335Z" fill="#fff"/>
      <path id="Trazado_110298" data-name="Trazado 110298" d="M1108.5,4568.839v-1.908h-14.421V4534.7a1.909,1.909,0,0,0-1.909-1.908h-16.03a1.909,1.909,0,0,0-1.909,1.908v32.227h-14.419a1.908,1.908,0,0,0-1.349,3.258l24.341,24.335a1.908,1.908,0,0,0,2.7,0l24.347-24.335a1.908,1.908,0,0,0-1.349-3.258v1.908l-1.349-1.349-23,22.986-19.733-19.728h11.72a1.909,1.909,0,0,0,1.908-1.909v-32.226h12.214v32.226a1.909,1.909,0,0,0,1.908,1.909h16.33v-1.909l-1.349-1.349Z" fill="#344154"/>
    </g>
  </g>
</svg>
