<svg xmlns="http://www.w3.org/2000/svg" width="238.093" height="238.094" viewBox="0 0 238.093 238.094">
  <g id="Grupo_58442" data-name="Grupo 58442" transform="translate(-931.521 -5465.118)">
    <g id="Grupo_58435" data-name="Grupo 58435">
      <circle id="Elipse_4191" data-name="Elipse 4191" cx="108.851" cy="108.851" r="108.851" transform="translate(931.521 5681.76) rotate(-84.345)" fill="#f2e9e4"/>
      <path id="Trazado_110317" data-name="Trazado 110317" d="M1159.418,5584.165h-5.682a103.168,103.168,0,1,1-30.217-72.951,102.824,102.824,0,0,1,30.217,72.951H1165.1a114.53,114.53,0,1,0-33.545,80.987,114.2,114.2,0,0,0,33.545-80.987Z" fill="#fff"/>
    </g>
    <g id="Grupo_58441" data-name="Grupo 58441">
      <g id="Grupo_58436" data-name="Grupo 58436">
        <path id="Rect치ngulo_8902" data-name="Rect치ngulo 8902" d="M9.778,0H106.05a9.778,9.778,0,0,1,9.778,9.778V106.05a9.778,9.778,0,0,1-9.778,9.778H9.777A9.777,9.777,0,0,1,0,106.05V9.778A9.778,9.778,0,0,1,9.778,0Z" transform="translate(1034.797 5499.026)" fill="#aed3f2"/>
        <path id="Trazado_110318" data-name="Trazado 110318" d="M1140.847,5614.853V5611.8h-96.272a6.723,6.723,0,0,1-6.725-6.724V5508.8a6.723,6.723,0,0,1,6.725-6.724h96.272a6.723,6.723,0,0,1,6.724,6.724v96.273a6.68,6.68,0,0,1-.527,2.616,6.753,6.753,0,0,1-2.44,2.961,6.672,6.672,0,0,1-3.757,1.147v6.107a12.829,12.829,0,0,0,12.831-12.831V5508.8a12.828,12.828,0,0,0-12.831-12.831h-96.272a12.828,12.828,0,0,0-12.831,12.831v96.273a12.831,12.831,0,0,0,12.831,12.831h96.272Z" fill="#344154"/>
      </g>
      <g id="Grupo_58440" data-name="Grupo 58440">
        <g id="Grupo_58439" data-name="Grupo 58439">
          <g id="Grupo_58437" data-name="Grupo 58437">
            <path id="Trazado_110319" data-name="Trazado 110319" d="M950.51,5589.915v79.39h183.207v-79.39Zm54.962,30.535H962.724v-18.321h42.748Z" fill="#aed3f2"/>
          </g>
          <g id="Grupo_58438" data-name="Grupo 58438">
            <path id="Trazado_110320" data-name="Trazado 110320" d="M1133.717,5586.862H950.51a3.053,3.053,0,0,0-3.053,3.053v79.39a3.053,3.053,0,0,0,3.053,3.053h183.207a3.053,3.053,0,0,0,3.053-3.053v-79.39A3.053,3.053,0,0,0,1133.717,5586.862Zm-3.054,79.389h-177.1v-73.282h177.1Z" fill="#344154"/>
            <path id="Trazado_110321" data-name="Trazado 110321" d="M962.724,5623.5h42.748a3.053,3.053,0,0,0,3.054-3.053v-18.321a3.053,3.053,0,0,0-3.054-3.053H962.724a3.053,3.053,0,0,0-3.053,3.053v18.321A3.053,3.053,0,0,0,962.724,5623.5Zm3.054-18.321h36.641V5617.4H965.778Z" fill="#344154"/>
            <path id="Trazado_110322" data-name="Trazado 110322" d="M962.4,5650.128a3.053,3.053,0,0,0,2.8-3.214,1.847,1.847,0,0,1,1.619-.448c1.506.441,2.816,2.151,4.028,3.864,1.613,2.279,3.62,5.115,6.921,6.349a9.748,9.748,0,0,0,3.441.616c4.021,0,7.768-2.315,10.446-3.969a116.241,116.241,0,0,1,17.366-8.807c4.184-1.7,8.987-3.218,12.885-1.645a19.949,19.949,0,0,1,4.759,3.195,26.027,26.027,0,0,0,5.94,3.961c6.239,2.737,13.183.689,17.862-1.088a87.522,87.522,0,0,0,19.188-10.175l.5-.356a17.134,17.134,0,0,1,4.026-2.359,3.427,3.427,0,0,1,3.007.144,3.053,3.053,0,1,0,3.755-4.816,9.27,9.27,0,0,0-8.74-1.107,22.284,22.284,0,0,0-5.573,3.15l-.488.343a81.348,81.348,0,0,1-17.847,9.466c-3.678,1.4-9.052,3.043-13.241,1.205a21.13,21.13,0,0,1-4.542-3.109,24.768,24.768,0,0,0-6.323-4.118c-3.127-1.262-7.939-2.214-17.466,1.649a122.561,122.561,0,0,0-18.279,9.27c-3.321,2.053-6.258,3.682-8.539,2.83-1.541-.577-2.829-2.4-4.074-4.157-1.754-2.478-3.908-5.2-7.3-6.2a7.98,7.98,0,0,0-7.083,1.472,6.1,6.1,0,0,0-2.344,5.256,3.049,3.049,0,0,0,3.286,2.795Z" fill="#344154"/>
            <path id="Trazado_110323" data-name="Trazado 110323" d="M1097.075,5605.182H1121.5a3.053,3.053,0,1,0,0-6.106h-24.428a3.053,3.053,0,1,0,0,6.106Z" fill="#344154"/>
            <path id="Trazado_110324" data-name="Trazado 110324" d="M1121.5,5608.236h-12.214a3.053,3.053,0,0,0,0,6.107H1121.5a3.053,3.053,0,0,0,0-6.107Z" fill="#344154"/>
          </g>
        </g>
      </g>
      <path id="Trazado_110325" data-name="Trazado 110325" d="M1091.052,5533.582h16.33v34.135h16.031v-34.135h16.328l-24.341-24.335Z" fill="#fff"/>
      <path id="Trazado_110326" data-name="Trazado 110326" d="M1091.052,5533.582v1.909h14.421v32.226a1.909,1.909,0,0,0,1.909,1.909h16.03a1.907,1.907,0,0,0,1.908-1.909v-32.226h14.42a1.909,1.909,0,0,0,1.349-3.258l-24.341-24.336a1.908,1.908,0,0,0-2.7,0l-24.347,24.335a1.909,1.909,0,0,0,1.349,3.259v-1.909l1.349,1.35,23-22.987,19.734,19.729h-11.72a1.909,1.909,0,0,0-1.908,1.908v32.227H1109.29v-32.227a1.909,1.909,0,0,0-1.908-1.908h-16.33v1.908l1.349,1.35Z" fill="#344154"/>
      <path id="Trazado_110327" data-name="Trazado 110327" d="M1080.6,5544.589a9.172,9.172,0,0,1-9.161,9.16,3.053,3.053,0,1,1-6.106,0h-6.107a3.053,3.053,0,1,1,0-6.107h12.213a3.057,3.057,0,0,0,3.054-3.053,3.39,3.39,0,0,0-3.435-3.053h-5.725a9.161,9.161,0,1,1,0-18.321,3.053,3.053,0,1,1,6.106,0h6.107a3.053,3.053,0,1,1,0,6.107h-12.213a3.054,3.054,0,1,0,0,6.107h5.725A9.482,9.482,0,0,1,1080.6,5544.589Z" fill="#fff"/>
      <rect id="Rect치ngulo_8903" data-name="Rect치ngulo 8903" width="36.641" height="12.214" transform="translate(965.778 5605.183)" fill="#fff" stroke="#344154" stroke-miterlimit="10" stroke-width="1"/>
    </g>
  </g>
</svg>
