<svg xmlns="http://www.w3.org/2000/svg" width="442.525" height="320.682" viewBox="0 0 442.525 320.682">
  <g id="cf13_conciliacion_bancaria_copia" data-name="cf13_conciliacion bancaria copia" transform="translate(-234.75 -21.3)">
    <g id="freepik--background-complete--inject-61" transform="translate(234.75 21.3)">
      <rect id="Rectángulo_8834" data-name="Rectángulo 8834" width="430.375" height="0.217" transform="translate(0 281.81)" fill="#6595bf"/>
      <rect id="Rectángulo_8835" data-name="Rectángulo 8835" width="84.009" height="0.217" transform="translate(352.563 287.668)" fill="#6595bf"/>
      <rect id="Rectángulo_8836" data-name="Rectángulo 8836" width="40.168" height="0.217" transform="translate(315.456 292.643)" fill="#6595bf"/>
      <rect id="Rectángulo_8837" data-name="Rectángulo 8837" width="16.521" height="0.217" transform="translate(370.733 295.657)" fill="#6595bf"/>
      <rect id="Rectángulo_8838" data-name="Rectángulo 8838" width="79.645" height="0.217" transform="translate(108.858 292.752)" fill="#6595bf"/>
      <rect id="Rectángulo_8839" data-name="Rectángulo 8839" width="17.132" height="0.217" transform="translate(84.07 292.752)" fill="#6595bf"/>
      <rect id="Rectángulo_8840" data-name="Rectángulo 8840" width="28.284" height="0.217" transform="translate(49.739 289.114)" fill="#6595bf"/>
      <path id="Trazado_109759" data-name="Trazado 109759" d="M454.313,264.72H288.107a4.921,4.921,0,0,1-4.907-4.914V26.173a4.921,4.921,0,0,1,4.907-4.873H454.313a4.914,4.914,0,0,1,4.914,4.914h0V259.806a4.914,4.914,0,0,1-4.914,4.914ZM288.107,21.47a4.7,4.7,0,0,0-4.69,4.7V259.806a4.7,4.7,0,0,0,4.69,4.7H454.313a4.711,4.711,0,0,0,4.7-4.7V26.173a4.711,4.711,0,0,0-4.7-4.7Z" transform="translate(-250.315 -21.3)" fill="#6595bf"/>
      <path id="Trazado_109760" data-name="Trazado 109760" d="M728.616,264.72H562.4a4.928,4.928,0,0,1-4.914-4.914V26.173A4.928,4.928,0,0,1,562.4,21.3H728.616a4.914,4.914,0,0,1,4.894,4.873V259.806a4.914,4.914,0,0,1-4.894,4.914ZM562.4,21.47a4.711,4.711,0,0,0-4.7,4.7V259.806a4.7,4.7,0,0,0,4.7,4.7H728.616a4.711,4.711,0,0,0,4.7-4.7V26.173a4.711,4.711,0,0,0-4.7-4.7Z" transform="translate(-338.43 -21.3)" fill="#6595bf"/>
      <rect id="Rectángulo_8841" data-name="Rectángulo 8841" width="101.894" height="6.604" transform="translate(46.087 167.848)" fill="#6595bf"/>
      <rect id="Rectángulo_8842" data-name="Rectángulo 8842" width="91.774" height="107.358" transform="translate(48.096 174.446)" fill="#6595bf"/>
      <rect id="Rectángulo_8843" data-name="Rectángulo 8843" width="2.274" height="107.358" transform="translate(139.87 174.446)" fill="#f0f0f0"/>
      <path id="Trazado_109761" data-name="Trazado 109761" d="M397.381,278.31H305.6V282.9l91.781-2.294Z" transform="translate(-257.511 -103.864)" fill="#e6e6e6"/>
      <rect id="Rectángulo_8844" data-name="Rectángulo 8844" width="91.774" height="107.358" transform="translate(224.836 174.446)" fill="#6595bf"/>
      <rect id="Rectángulo_8845" data-name="Rectángulo 8845" width="2.274" height="107.358" transform="translate(383.311 174.446)" fill="#f0f0f0"/>
      <path id="Trazado_109762" data-name="Trazado 109762" d="M657.774,278.31H566V282.9l91.774-2.294Z" transform="translate(-341.164 -103.864)" fill="#e6e6e6"/>
      <rect id="Rectángulo_8846" data-name="Rectángulo 8846" width="178.267" height="6.604" transform="translate(147.981 167.848)" fill="#f5f5f5"/>
      <path id="Trazado_109763" data-name="Trazado 109763" d="M411.816,212.742h90.477a6.109,6.109,0,0,0,6.217-5.939,5.951,5.951,0,0,0-.081-1.1l-6.957-54.775a8.267,8.267,0,0,0-7.935-7.039H403.054a6.109,6.109,0,0,0-6.224,5.946,6.519,6.519,0,0,0,.075,1.093l6.978,54.8A8.26,8.26,0,0,0,411.816,212.742Z" transform="translate(-286.818 -60.681)" fill="#e0e0e0"/>
      <path id="Trazado_109764" data-name="Trazado 109764" d="M460.675,203.06h20.186l-6.835,44.479H453.84Z" transform="translate(-305.133 -79.69)" fill="#e0e0e0"/>
      <path id="Trazado_109765" data-name="Trazado 109765" d="M413.6,212.742h90.471a6.109,6.109,0,0,0,6.224-5.932,6.725,6.725,0,0,0-.075-1.106l-6.991-54.775a8.281,8.281,0,0,0-7.948-7.039H404.807a6.109,6.109,0,0,0-6.217,5.939,5.953,5.953,0,0,0,.081,1.1l6.984,54.8A8.281,8.281,0,0,0,413.6,212.742Z" transform="translate(-287.383 -60.682)" fill="#e6e6e6"/>
      <path id="Trazado_109766" data-name="Trazado 109766" d="M472.89,143.89h13.195l23.749,53.886h-13.2Z" transform="translate(-311.252 -60.682)" fill="#f5f5f5"/>
      <path id="Trazado_109767" data-name="Trazado 109767" d="M459.63,143.89h5.281l23.743,53.886h-5.287Z" transform="translate(-306.993 -60.682)" fill="#f5f5f5"/>
      <path id="Trazado_109768" data-name="Trazado 109768" d="M512.075,223.28l1.018,7.928a6.109,6.109,0,0,1-5.057,6.964,6.518,6.518,0,0,1-1.093.075H416.473a8.281,8.281,0,0,1-7.948-7.011l-1-7.928Z" transform="translate(-290.252 -86.186)" fill="#f0f0f0"/>
      <path id="Trazado_109769" data-name="Trazado 109769" d="M367.657,230.492a23.756,23.756,0,0,1-.557-10.446,32.113,32.113,0,0,1,3.258-10.066c.38-.8.862-1.534,1.317-2.308l.679-1.127c.251-.373.516-.726.781-1.079.543-.679,1.072-1.4,1.622-2.091a25.547,25.547,0,0,1,1.826-1.907l.93-.943c.319-.292.679-.563,1-.855.679-.563,1.358-1.106,2.036-1.636a39.712,39.712,0,0,1,4.473-2.674c-1.025,1.439-2.192,2.661-3.238,3.991-.5.679-1.011,1.358-1.541,1.989-.244.333-.523.631-.774.971l-.679,1.025c-.468.679-.95,1.357-1.446,2a20.406,20.406,0,0,0-1.3,2.084c-.217.346-.455.679-.679,1.025l-.584,1.072c-.387.719-.862,1.4-1.174,2.138a56.47,56.47,0,0,0-3.713,9.027A57.818,57.818,0,0,0,367.657,230.492Z" transform="translate(-277.159 -77.217)" fill="#e6e6e6"/>
      <path id="Trazado_109770" data-name="Trazado 109770" d="M333.369,226.7a59.865,59.865,0,0,0-2.152-9.781,57.188,57.188,0,0,0-3.611-9.075c-.333-.74-.781-1.432-1.147-2.145l-.577-1.086c-.2-.353-.441-.679-.645-1.032-.434-.679-.862-1.357-1.283-2.091s-.957-1.357-1.419-2.036l-.679-1.025c-.244-.346-.516-.679-.767-.977-.509-.679-1.018-1.357-1.514-2.036-1.025-1.358-2.179-2.579-3.2-4.025a36.882,36.882,0,0,1,4.453,2.715q1.018.794,2.036,1.649c.339.278.679.55,1,.862l.916.937c.611.638,1.215,1.283,1.805,1.934s1.059,1.405,1.6,2.111c.258.36.523.679.767,1.086l.679,1.134c.428.774.923,1.514,1.29,2.328a32.267,32.267,0,0,1,3.122,10.093A23.667,23.667,0,0,1,333.369,226.7Z" transform="translate(-260.974 -75.941)" fill="#e6e6e6"/>
      <path id="Trazado_109771" data-name="Trazado 109771" d="M337.056,225.377c.1-3.889,0-7.65-.251-11.376a77.042,77.042,0,0,0-1.609-11c-.326-1.819-.916-3.557-1.357-5.349-.292-.855-.611-1.717-.862-2.579a26.978,26.978,0,0,0-1-2.579,90.3,90.3,0,0,0-4.989-10.181,31.821,31.821,0,0,1,7.588,8.919l.76,1.269a14.432,14.432,0,0,1,.631,1.357c.428.862.862,1.805,1.208,2.715a45.543,45.543,0,0,1,1.643,5.593,41.851,41.851,0,0,1,.862,11.776,34.377,34.377,0,0,1-2.627,11.437Z" transform="translate(-264.382 -73.024)" fill="#e6e6e6"/>
      <path id="Trazado_109772" data-name="Trazado 109772" d="M362.073,226.6a52.941,52.941,0,0,1-4.751-11.267,76.547,76.547,0,0,1-2.586-11.953c-.3-2.036-.448-4.072-.611-6.109a46.156,46.156,0,0,1-.068-6.109A54.584,54.584,0,0,1,355.686,179c.543,4.073.774,8.057,1.276,12.055.17,1.975.455,3.95.679,5.919l.387,2.953c.1.991.244,1.975.387,2.953q.8,5.892,1.772,11.8Z" transform="translate(-273.055 -71.961)" fill="#e6e6e6"/>
      <path id="Trazado_109773" data-name="Trazado 109773" d="M358.892,225.969a53.546,53.546,0,0,1-6.027-10.656,74.706,74.706,0,0,1-3.95-11.539c-.543-1.975-.923-3.984-1.31-6.027a47.629,47.629,0,0,1-.767-6.109,54.2,54.2,0,0,1,.238-12.218c1,3.984,1.717,7.907,2.579,11.79.407,1.948.91,3.876,1.357,5.81l.719,2.891c.217.964.468,1.928.726,2.885.971,3.849,2.036,7.677,3.1,11.539Z" transform="translate(-270.682 -72.096)" fill="#e6e6e6"/>
      <path id="Trazado_109774" data-name="Trazado 109774" d="M354.693,225.279A53.481,53.481,0,0,1,347.7,215.24a74.14,74.14,0,0,1-5.03-11.186c-.726-1.914-1.283-3.882-1.86-5.837a47.029,47.029,0,0,1-1.358-5.98,54.179,54.179,0,0,1-.923-12.218c1.358,3.876,2.43,7.751,3.726,11.5.584,1.9,1.276,3.767,1.88,5.654l.991,2.81c.3.943.645,1.873,1,2.8q1.985,5.61,4.181,11.186Z" transform="translate(-268.077 -72.289)" fill="#e6e6e6"/>
      <path id="Trazado_109775" data-name="Trazado 109775" d="M367.714,227.312a23.906,23.906,0,0,1-2.484-10.181,32.339,32.339,0,0,1,1.357-10.5c.224-.862.584-1.677.855-2.511l.475-1.242c.183-.4.38-.8.577-1.195.394-.794.781-1.581,1.195-2.355s.957-1.493,1.439-2.226l.74-1.093A10.812,10.812,0,0,1,372.73,195c.57-.679,1.134-1.357,1.724-1.989a36.916,36.916,0,0,1,3.9-3.448c-.747,1.6-1.67,3.027-2.444,4.52-.38.76-.753,1.507-1.14,2.24-.19.373-.407.719-.59,1.1l-.5,1.14c-.346.747-.679,1.493-1.052,2.226a22.213,22.213,0,0,0-.862,2.287c-.143.38-.326.753-.455,1.133l-.38,1.161c-.251.774-.563,1.534-.753,2.315a56.716,56.716,0,0,0-1.982,9.564A59.138,59.138,0,0,0,367.714,227.312Z" transform="translate(-276.66 -75.353)" fill="#e6e6e6"/>
      <path id="Trazado_109776" data-name="Trazado 109776" d="M366.158,226.564a33.815,33.815,0,0,1-4.582-10.751,41.514,41.514,0,0,1-1.174-11.749,45.3,45.3,0,0,1,.679-5.905c.224-.977.462-1.941.72-2.891.136-.475.224-.964.394-1.432l.523-1.391a31.981,31.981,0,0,1,5.919-10.093,95.106,95.106,0,0,0-3.129,10.9,24.511,24.511,0,0,0-.523,2.715c-.129.91-.3,1.812-.441,2.715-.136,1.839-.414,3.658-.421,5.5a79.7,79.7,0,0,0,.326,11.1,113.412,113.412,0,0,0,1.711,11.281Z" transform="translate(-275.103 -73.037)" fill="#e6e6e6"/>
      <path id="Trazado_109777" data-name="Trazado 109777" d="M354.708,231.852l-10.385-17.7L343.04,231.4Z" transform="translate(-269.538 -83.253)" fill="#e6e6e6"/>
      <path id="Trazado_109778" data-name="Trazado 109778" d="M366.527,233.21H326.61l5.226,24.014H361.3Z" transform="translate(-264.26 -89.376)" fill="#f5f5f5"/>
      <path id="Trazado_109779" data-name="Trazado 109779" d="M341.59,233.21H326.61l5.226,24.014H339.7Z" transform="translate(-264.26 -89.376)" fill="#6595bf"/>
      <path id="Trazado_109780" data-name="Trazado 109780" d="M831.031,269.06H767.575c-3.394-29.987,2.844-62.221,18.387-92.31a4.88,4.88,0,0,1,4.3-2.64h53.682a4.2,4.2,0,0,1,4.208,4.195,4.11,4.11,0,0,1-.529,2.036C833.414,209.378,827.773,240.241,831.031,269.06Z" transform="translate(-405.631 -70.39)" fill="#e0e0e0"/>
      <path id="Trazado_109781" data-name="Trazado 109781" d="M802.479,302.33H732.567a7.907,7.907,0,0,0-7.907,7.921h85.753a7.914,7.914,0,0,0-7.935-7.921Z" transform="translate(-392.133 -111.581)" fill="#e0e0e0"/>
      <path id="Trazado_109782" data-name="Trazado 109782" d="M787.127,397.127h-3.889L773.62,313.96h3.9Z" transform="translate(-407.862 -115.317)" fill="#e0e0e0"/>
      <path id="Trazado_109783" data-name="Trazado 109783" d="M869.267,397.127h-3.9L855.76,313.96h3.889Z" transform="translate(-434.249 -115.317)" fill="#e0e0e0"/>
      <path id="Trazado_109784" data-name="Trazado 109784" d="M801.15,397.127h3.9l9.611-83.167h-3.9Z" transform="translate(-416.706 -115.317)" fill="#e0e0e0"/>
      <path id="Trazado_109785" data-name="Trazado 109785" d="M719.03,397.127h3.889l9.618-83.167h-3.889Z" transform="translate(-390.325 -115.317)" fill="#e0e0e0"/>
      <rect id="Rectángulo_8847" data-name="Rectángulo 8847" width="293.098" height="53.94" transform="translate(72.524 11.478)" fill="#f5f5f5"/>
      <rect id="Rectángulo_8848" data-name="Rectángulo 8848" width="2.213" height="53.94" transform="translate(70.312 11.478)" fill="#6595bf"/>
      <path id="Trazado_109786" data-name="Trazado 109786" d="M625.834,78.7c-85.882,14.457-171.765-14.464-257.654,0V68.365c85.889-14.457,171.771,14.457,257.654,0Z" transform="translate(-277.614 -35.079)" fill="#e0eaf2"/>
    </g>
    <g id="freepik--Shadow--inject-61" transform="translate(283.043 322.489)">
      <ellipse id="freepik--path--inject-61" cx="166.891" cy="9.747" rx="166.891" ry="9.747" transform="translate(0)" fill="#f5f5f5"/>
    </g>
    <g id="freepik--data-sheet--inject-61" transform="translate(349.133 59.928)">
      <path id="Trazado_109787" data-name="Trazado 109787" d="M678.91,78.21h25.046c5,0,9.048,5.851,6.15,11.695H610.716A7.911,7.911,0,0,0,604.56,78.21Z" transform="translate(-467.934 -78.21)" fill="#a3bfd9"/>
      <path id="Trazado_109788" data-name="Trazado 109788" d="M575.959,78.21H677.948c-13.969,0-26.424,11.322-27.829,25.283l-18.075,179.19c-1.412,13.962-13.867,25.277-27.829,25.277H552.793c-13.962,0-24.1-11.315-22.731-25.277l18.075-179.19C549.535,89.5,561.977,78.21,575.959,78.21Z" transform="translate(-443.962 -78.21)" fill="#e0eaf2"/>
      <path id="Trazado_109789" data-name="Trazado 109789" d="M554.1,375.537h0a7.351,7.351,0,0,0-7.392-8.267H444.68a7.344,7.344,0,0,1,7.466,7.168,7.466,7.466,0,0,1-.061,1.1h0c-1.412,13.962,8.77,25.277,22.731,25.277H576.833C562.878,400.813,552.669,389.485,554.1,375.537Z" transform="translate(-416.573 -171.07)" fill="#a3bfd9"/>
      <path id="Trazado_109790" data-name="Trazado 109790" d="M436.753,367.26H411.68a8.451,8.451,0,0,0-8.41,8.274H524.963a8.451,8.451,0,0,1,8.444-8.274Z" transform="translate(-403.27 -171.067)" fill="#d9a171"/>
      <path id="Trazado_109791" data-name="Trazado 109791" d="M436.753,367.26H411.68a8.451,8.451,0,0,0-8.41,8.274H524.963a8.451,8.451,0,0,1,8.444-8.274Z" transform="translate(-403.27 -171.067)" fill="#e0eaf2" opacity="0.6"/>
      <g id="Grupo_58320" data-name="Grupo 58320" transform="translate(106.571 80.154)" opacity="0.5">
        <path id="Trazado_109792" data-name="Trazado 109792" d="M577.4,203.99h-7.7l.787-7.69h7.683Z" transform="translate(-563.306 -196.3)" fill="#6595bf"/>
        <path id="Trazado_109793" data-name="Trazado 109793" d="M596.1,203.99H588.42l.774-7.69h7.683Z" transform="translate(-569.32 -196.3)" fill="#6595bf"/>
        <path id="Trazado_109794" data-name="Trazado 109794" d="M614.817,203.99h-7.7l.774-7.69h7.7Z" transform="translate(-575.327 -196.3)" fill="#6595bf"/>
        <path id="Trazado_109795" data-name="Trazado 109795" d="M633.52,203.99h-7.69l.781-7.69h7.69Z" transform="translate(-581.338 -196.3)" fill="#6595bf"/>
        <path id="Trazado_109796" data-name="Trazado 109796" d="M652.233,203.99H644.55l.774-7.69h7.683Z" transform="translate(-587.352 -196.3)" fill="#6595bf"/>
        <path id="Trazado_109797" data-name="Trazado 109797" d="M670.947,203.99h-7.7l.774-7.69h7.7Z" transform="translate(-593.359 -196.3)" fill="#6595bf"/>
        <path id="Trazado_109798" data-name="Trazado 109798" d="M575.51,222.7h-7.69l.781-7.69h7.683Z" transform="translate(-562.702 -202.311)" fill="#6595bf"/>
        <path id="Trazado_109799" data-name="Trazado 109799" d="M594.227,222.7h-7.7l.774-7.69H595Z" transform="translate(-568.713 -202.311)" fill="#6595bf"/>
        <path id="Trazado_109800" data-name="Trazado 109800" d="M612.927,222.7h-7.7l.787-7.69H613.7Z" transform="translate(-574.72 -202.311)" fill="#6595bf"/>
        <path id="Trazado_109801" data-name="Trazado 109801" d="M631.64,222.7h-7.69l.774-7.69h7.69Z" transform="translate(-580.734 -202.311)" fill="#6595bf"/>
        <path id="Trazado_109802" data-name="Trazado 109802" d="M650.35,222.7h-7.69l.774-7.69h7.69Z" transform="translate(-586.745 -202.311)" fill="#6595bf"/>
        <path id="Trazado_109803" data-name="Trazado 109803" d="M669.057,222.7h-7.7l.774-7.69h7.7Z" transform="translate(-592.752 -202.311)" fill="#6595bf"/>
        <path id="Trazado_109804" data-name="Trazado 109804" d="M573.627,241.407h-7.7l.781-7.7h7.69Z" transform="translate(-562.095 -208.318)" fill="#6595bf"/>
        <path id="Trazado_109805" data-name="Trazado 109805" d="M592.337,241.407h-7.7l.774-7.7h7.7Z" transform="translate(-568.106 -208.318)" fill="#6595bf"/>
        <path id="Trazado_109806" data-name="Trazado 109806" d="M611.043,241.407H603.36l.774-7.7h7.683Z" transform="translate(-574.119 -208.318)" fill="#6595bf"/>
        <path id="Trazado_109807" data-name="Trazado 109807" d="M629.757,241.407h-7.7l.774-7.7h7.7Z" transform="translate(-580.127 -208.318)" fill="#6595bf"/>
        <path id="Trazado_109808" data-name="Trazado 109808" d="M648.46,241.407h-7.69l.774-7.7h7.7Z" transform="translate(-586.137 -208.318)" fill="#6595bf"/>
        <path id="Trazado_109809" data-name="Trazado 109809" d="M667.17,241.407h-7.69l.781-7.7h7.683Z" transform="translate(-592.148 -208.318)" fill="#6595bf"/>
        <path id="Trazado_109810" data-name="Trazado 109810" d="M571.737,260.113h-7.7l.781-7.683h7.69Z" transform="translate(-561.488 -214.332)" fill="#6595bf"/>
        <path id="Trazado_109811" data-name="Trazado 109811" d="M590.45,260.113h-7.69l.774-7.683h7.69Z" transform="translate(-567.502 -214.332)" fill="#6595bf"/>
        <path id="Trazado_109812" data-name="Trazado 109812" d="M609.153,260.113H601.47l.774-7.683h7.683Z" transform="translate(-573.512 -214.332)" fill="#6595bf"/>
        <path id="Trazado_109813" data-name="Trazado 109813" d="M627.867,260.113h-7.7l.774-7.683h7.7Z" transform="translate(-579.52 -214.332)" fill="#6595bf"/>
        <path id="Trazado_109814" data-name="Trazado 109814" d="M646.573,260.113H638.89l.774-7.683h7.69Z" transform="translate(-585.533 -214.332)" fill="#6595bf"/>
        <path id="Trazado_109815" data-name="Trazado 109815" d="M665.283,260.113H657.6l.774-7.683h7.683Z" transform="translate(-591.544 -214.332)" fill="#6595bf"/>
        <path id="Trazado_109816" data-name="Trazado 109816" d="M569.853,278.83H562.17l.774-7.69h7.683Z" transform="translate(-560.887 -220.342)" fill="#6595bf"/>
        <path id="Trazado_109817" data-name="Trazado 109817" d="M588.56,278.83h-7.69l.774-7.69h7.69Z" transform="translate(-566.895 -220.342)" fill="#6595bf"/>
        <path id="Trazado_109818" data-name="Trazado 109818" d="M607.27,278.83h-7.69l.774-7.69h7.7Z" transform="translate(-572.905 -220.342)" fill="#6595bf"/>
        <path id="Trazado_109819" data-name="Trazado 109819" d="M625.977,278.83h-7.7l.787-7.69h7.683Z" transform="translate(-578.913 -220.342)" fill="#6595bf"/>
        <path id="Trazado_109820" data-name="Trazado 109820" d="M644.69,278.83H637l.774-7.69h7.69Z" transform="translate(-584.926 -220.342)" fill="#6595bf"/>
        <path id="Trazado_109821" data-name="Trazado 109821" d="M663.4,278.83h-7.69l.774-7.69h7.69Z" transform="translate(-590.937 -220.342)" fill="#6595bf"/>
        <path id="Trazado_109822" data-name="Trazado 109822" d="M567.963,297.537H560.28l.774-7.7h7.683Z" transform="translate(-560.28 -226.35)" fill="#6595bf"/>
        <path id="Trazado_109823" data-name="Trazado 109823" d="M586.677,297.537h-7.7l.781-7.7h7.69Z" transform="translate(-566.287 -226.35)" fill="#6595bf"/>
        <path id="Trazado_109824" data-name="Trazado 109824" d="M605.38,297.537h-7.69l.781-7.7h7.69Z" transform="translate(-572.298 -226.35)" fill="#6595bf"/>
        <path id="Trazado_109825" data-name="Trazado 109825" d="M624.093,297.537H616.41l.774-7.7h7.683Z" transform="translate(-578.312 -226.35)" fill="#6595bf"/>
        <path id="Trazado_109826" data-name="Trazado 109826" d="M642.807,297.537h-7.7l.774-7.7h7.7Z" transform="translate(-584.319 -226.35)" fill="#6595bf"/>
        <path id="Trazado_109827" data-name="Trazado 109827" d="M661.51,297.537h-7.69l.781-7.7h7.683Z" transform="translate(-590.33 -226.35)" fill="#6595bf"/>
      </g>
      <path id="Trazado_109828" data-name="Trazado 109828" d="M574.421,288.323a3.631,3.631,0,0,1-3.53,3.211,2.851,2.851,0,0,1-2.905-2.79,2.934,2.934,0,0,1,0-.421,3.618,3.618,0,0,1,3.529-3.2,2.844,2.844,0,0,1,2.905,2.776,3.03,3.03,0,0,1,0,.428Z" transform="translate(-456.183 -144.679)" fill="#d9a171"/>
      <path id="Trazado_109829" data-name="Trazado 109829" d="M598.787,232.2a3.638,3.638,0,0,1-3.536,3.21,2.851,2.851,0,0,1-2.925-2.769,2.4,2.4,0,0,1,0-.441,3.631,3.631,0,0,1,3.536-3.2,2.857,2.857,0,0,1,2.925,2.79A2.041,2.041,0,0,1,598.787,232.2Z" transform="translate(-464.001 -126.651)" fill="#d9a171"/>
      <path id="Trazado_109830" data-name="Trazado 109830" d="M634.327,250.91a3.638,3.638,0,0,1-3.536,3.211,2.844,2.844,0,0,1-2.905-2.79,2.188,2.188,0,0,1,0-.421,3.645,3.645,0,0,1,3.529-3.21,2.851,2.851,0,0,1,2.912,2.8A2.036,2.036,0,0,1,634.327,250.91Z" transform="translate(-475.424 -132.658)" fill="#d9a171"/>
      <path id="Trazado_109831" data-name="Trazado 109831" d="M675.548,213.48a3.652,3.652,0,0,1-3.543,3.21,2.851,2.851,0,0,1-2.905-2.79v-.421a3.645,3.645,0,0,1,3.543-3.21,2.851,2.851,0,0,1,2.905,2.79A1.739,1.739,0,0,1,675.548,213.48Z" transform="translate(-488.668 -120.634)" fill="#d9a171"/>
      <path id="Trazado_109832" data-name="Trazado 109832" d="M572.3,266.307a.937.937,0,0,1-.937-.937.89.89,0,0,1,.081-.38l16.541-38.1a.93.93,0,0,1,1.3-.455l23.539,12.38L640.28,213.88a.961.961,0,1,1,1.29,1.425h0l-27.958,25.412a.937.937,0,0,1-1.073.129L589.3,228.63l-16.148,37.107A.957.957,0,0,1,572.3,266.307Z" transform="translate(-457.269 -121.713)" fill="#d9a171"/>
      <path id="Trazado_109833" data-name="Trazado 109833" d="M563.92,339.479h-7.69l.387-3.849h7.69Z" transform="translate(-452.408 -160.906)" fill="#d9a171" opacity="0.5"/>
      <path id="Trazado_109834" data-name="Trazado 109834" d="M582.63,335.032h-7.69l1.33-13.242h7.7Z" transform="translate(-458.419 -156.46)" fill="#d9a171" opacity="0.6"/>
      <path id="Trazado_109835" data-name="Trazado 109835" d="M601.337,337.657h-7.7l.787-7.7h7.683Z" transform="translate(-464.426 -159.085)" fill="#d9a171" opacity="0.7"/>
      <path id="Trazado_109836" data-name="Trazado 109836" d="M620.043,336.513H612.36l1.018-10.113h7.69Z" transform="translate(-470.44 -157.941)" fill="#d9a171" opacity="0.8"/>
      <path id="Trazado_109837" data-name="Trazado 109837" d="M638.76,338.4h-7.69l.618-6.136h7.7Z" transform="translate(-476.451 -159.823)" fill="#d9a171" opacity="0.9"/>
      <path id="Trazado_109838" data-name="Trazado 109838" d="M657.467,339.479h-7.7l.394-3.849h7.69Z" transform="translate(-482.458 -160.906)" fill="#d9a171"/>
      <path id="Trazado_109839" data-name="Trazado 109839" d="M641.9,160.137H575.134a1.962,1.962,0,0,1-2.036-1.921,2.2,2.2,0,0,1,0-.292l3.034-30.211a2.511,2.511,0,0,1,2.437-2.213h66.769a1.982,1.982,0,0,1,2,1.941,1.8,1.8,0,0,1,0,.271l-3.048,30.211A2.5,2.5,0,0,1,641.9,160.137Z" transform="translate(-457.826 -93.402)" fill="#6595bf" opacity="0.5"/>
      <path id="Trazado_109840" data-name="Trazado 109840" d="M607,145.378l5.525-11.878a11.186,11.186,0,0,1,7.127,11.878,14.444,14.444,0,0,1-11.708,12.455Z" transform="translate(-468.718 -95.972)" fill="#d9a171"/>
      <path id="Trazado_109841" data-name="Trazado 109841" d="M600.976,145.015l.943,12.455a12.78,12.78,0,0,1-2.22.19,11.281,11.281,0,0,1-11.451-11.1,11.823,11.823,0,0,1,.082-1.548,14.389,14.389,0,0,1,13.894-12.645,11.932,11.932,0,0,1,4.242.767Z" transform="translate(-462.694 -95.609)" fill="#6595bf"/>
      <path id="Trazado_109842" data-name="Trazado 109842" d="M650.541,146.49h4.8l-1.588,15.7H648.96Z" transform="translate(-482.198 -100.145)" fill="#6595bf"/>
      <path id="Trazado_109843" data-name="Trazado 109843" d="M661.71,158.79H666.5l-.74,7.351H660.97Z" transform="translate(-486.056 -104.096)" fill="#6595bf"/>
      <path id="Trazado_109844" data-name="Trazado 109844" d="M662.06,156.67h4.792l.455-4.48h-4.792Z" transform="translate(-486.406 -101.976)" fill="#d9a171"/>
      <path id="Trazado_109845" data-name="Trazado 109845" d="M651.29,141.96h4.8l.964-9.57h-4.8Z" transform="translate(-482.946 -95.615)" fill="#d9a171"/>
      <path id="Trazado_109846" data-name="Trazado 109846" d="M638.256,150.7h4.792l-1.29,12.842h-4.8Z" transform="translate(-478.343 -101.497)" fill="#6595bf"/>
      <path id="Trazado_109847" data-name="Trazado 109847" d="M638.87,147.915h4.792l.591-5.885H639.46Z" transform="translate(-478.956 -98.712)" fill="#d9a171"/>
    </g>
    <g id="freepik--Character--inject-61" transform="translate(334.138 55.344)">
      <path id="Trazado_109848" data-name="Trazado 109848" d="M397.388,151.837c-.38.631-.862,1.425-1.229,2.145s-.862,1.507-1.215,2.267c-.774,1.527-1.561,3.054-2.274,4.622a80.337,80.337,0,0,0-3.72,9.469l-.36,1.2-.17.611-.054.149h0a2.227,2.227,0,0,0,.129,1.134,19.955,19.955,0,0,0,1.962,4.073,92.836,92.836,0,0,0,5.959,8.478l-2.715,2.885a48.621,48.621,0,0,1-8.267-7.751,22.21,22.21,0,0,1-3.394-5.254,9.414,9.414,0,0,1-.862-4.127,4.424,4.424,0,0,1,.075-.679l.061-.367v-.17l.149-.679.3-1.412a68.684,68.684,0,0,1,3.57-10.8c.74-1.724,1.527-3.448,2.4-5.118.428-.855.862-1.67,1.357-2.491s.937-1.615,1.514-2.5Z" transform="translate(-381.177 -95.892)" fill="#ff8b7b"/>
      <path id="Trazado_109849" data-name="Trazado 109849" d="M399.564,202l6.475.265-2.586,5.552s-4.6-.258-6.333-3.048Z" transform="translate(-386.299 -113.394)" fill="#ff8b7b"/>
      <path id="Trazado_109850" data-name="Trazado 109850" d="M410.628,204.838l-1.6,4.975L406.42,207.9l2.606-5.559Z" transform="translate(-389.286 -113.503)" fill="#ff8b7b"/>
      <path id="Trazado_109851" data-name="Trazado 109851" d="M419.475,467.324a9.866,9.866,0,0,1-2.084-.285.19.19,0,0,1-.142-.149.2.2,0,0,1,.075-.19c.265-.177,2.64-1.717,3.563-1.3a.679.679,0,0,1,.38.523,1.052,1.052,0,0,1-.292.991,2.267,2.267,0,0,1-1.5.414Zm-1.554-.55c1.358.271,2.4.217,2.8-.143a.679.679,0,0,0,.176-.679.292.292,0,0,0-.156-.244c-.489-.217-1.853.448-2.817,1.045Z" transform="translate(-392.764 -197.987)" fill="#d9a171"/>
      <path id="Trazado_109852" data-name="Trazado 109852" d="M417.433,466.172h-.088a.183.183,0,0,1-.1-.163c0-.1,0-2.369.855-3.129a.984.984,0,0,1,.787-.244.679.679,0,0,1,.638.523c.19.862-1.222,2.579-1.962,3.014a.23.23,0,0,1-.136,0Zm1.3-3.183a.625.625,0,0,0-.414.149,3.988,3.988,0,0,0-.679,2.491c.74-.6,1.622-1.88,1.5-2.416,0-.088-.068-.2-.312-.224Z" transform="translate(-392.766 -197.12)" fill="#d9a171"/>
      <path id="Trazado_109853" data-name="Trazado 109853" d="M506.243,461.509a.19.19,0,0,1-.17-.075.183.183,0,0,1,0-.217c.244-.305,2.362-2.966,3.5-3.048h.081a.6.6,0,0,1,.5.305.964.964,0,0,1,.081.937c-.448,1.052-2.674,1.717-3.971,2.091Zm3.353-2.966c-.631.041-1.955,1.358-2.858,2.457,1.717-.5,2.905-1.134,3.163-1.717a.679.679,0,0,0-.054-.618.251.251,0,0,0-.21-.122Z" transform="translate(-421.289 -195.688)" fill="#d9a171"/>
      <path id="Trazado_109854" data-name="Trazado 109854" d="M506.07,461.157h0a.176.176,0,0,1-.143-.109c0-.081-.781-2.036-.231-3.17a1.4,1.4,0,0,1,.815-.733c.5-.177.76,0,.862.156.523.679-.455,3.014-1.147,3.794A.17.17,0,0,1,506.07,461.157Zm.719-3.767a1.018,1.018,0,0,0-.828.591,4.114,4.114,0,0,0,.129,2.586c.638-.923,1.222-2.647.91-3.075A.2.2,0,0,0,506.79,457.389Z" transform="translate(-421.116 -195.335)" fill="#d9a171"/>
      <path id="Trazado_109855" data-name="Trazado 109855" d="M419.934,107.19c.862,4.683,2.9,14.933-.394,17.967,0,0,1.249,4.751,9.944,4.941,9.564.176,4.6-4.649,4.6-4.649-5.206-1.357-5.05-5.206-4.12-8.824Z" transform="translate(-393.501 -82.936)" fill="#ff8b7b"/>
      <path id="Trazado_109856" data-name="Trazado 109856" d="M415.3,133.106l-1.67-8.254a30.8,30.8,0,0,0,7.371,1.2c3.346,0,10.6-.265,14.206-1.514,1,1.412,6.238,5.165,6.238,5.165l-2.342,3.971Z" transform="translate(-391.603 -88.51)" fill="#d9a171"/>
      <path id="Trazado_109857" data-name="Trazado 109857" d="M415.3,133.106l-1.67-8.254a30.8,30.8,0,0,0,7.371,1.2c3.346,0,10.6-.265,14.206-1.514,1,1.412,6.238,5.165,6.238,5.165l-2.342,3.971Z" transform="translate(-391.603 -88.51)" fill="#6595bf" opacity="0.8"/>
      <path id="Trazado_109858" data-name="Trazado 109858" d="M447.461,92.849a.339.339,0,0,1-.163-.061.373.373,0,0,1-.115-.516,3.679,3.679,0,0,1,2.912-1.724.38.38,0,1,1,0,.753h0a2.9,2.9,0,0,0-2.287,1.357.366.366,0,0,1-.346.19Z" transform="translate(-402.363 -77.589)" fill="#344154"/>
      <path id="Trazado_109859" data-name="Trazado 109859" d="M451.16,100.42a16.968,16.968,0,0,0,2.328,4.072,2.715,2.715,0,0,1-2.253.434Z" transform="translate(-403.659 -80.761)" fill="#ff5652"/>
      <path id="Trazado_109860" data-name="Trazado 109860" d="M450.33,98.264c0,.638.353,1.154.767,1.154s.747-.516.733-1.154-.353-1.154-.767-1.154S450.33,97.626,450.33,98.264Z" transform="translate(-403.393 -79.698)" fill="#344154"/>
      <path id="Trazado_109861" data-name="Trazado 109861" d="M451.09,96.951l1.527-.441S451.85,97.711,451.09,96.951Z" transform="translate(-403.637 -79.505)" fill="#344154"/>
      <path id="Trazado_109862" data-name="Trazado 109862" d="M492.716,461.129l7.636-2.627-5.389-16.982-7.622,2.634Z" transform="translate(-415.282 -190.339)" fill="#ff8b7b"/>
      <path id="Trazado_109863" data-name="Trazado 109863" d="M403.609,458.945h7.874l-.869-18.245H402.74Z" transform="translate(-388.104 -190.076)" fill="#ff8b7b"/>
      <path id="Trazado_109864" data-name="Trazado 109864" d="M411.619,466.24h-8.858a.625.625,0,0,0-.625.529l-.909,7.011a1.29,1.29,0,0,0,1.174,1.4h.109c3.088-.047,4.568-.231,8.457-.231,2.4,0,5.9.244,9.211.244s3.448-3.265,2.036-3.563c-6.2-1.358-7.195-3.163-9.3-4.907a2.138,2.138,0,0,0-1.3-.482Z" transform="translate(-387.617 -198.281)" fill="#344154"/>
      <path id="Trazado_109865" data-name="Trazado 109865" d="M500.964,461.729l-8.145,3.855a.611.611,0,0,0-.353.753l2.111,6.577a1.29,1.29,0,0,0,1.677.679l.1-.048c2.83-1.358,4.134-2.192,7.745-3.882,2.213-1.039,6.889-2.973,9.971-4.412s1.8-4.385.394-4.072c-6.285,1.52-9.326.971-12.048.346A2.192,2.192,0,0,0,500.964,461.729Z" transform="translate(-416.919 -196.648)" fill="#344154"/>
      <path id="Trazado_109866" data-name="Trazado 109866" d="M494.956,441.53l2.891,9.1-7.745,2.287-2.783-8.756Z" transform="translate(-415.276 -190.343)" opacity="0.2"/>
      <path id="Trazado_109867" data-name="Trazado 109867" d="M402.74,440.71h7.874l.448,9.4h-7.874Z" transform="translate(-388.104 -190.079)" opacity="0.2"/>
      <path id="Trazado_109868" data-name="Trazado 109868" d="M396.233,135.854c-3.278.679-6.883,12.353-6.883,12.353l9.211,10.012s7.745-10.9,6.2-14.994C403.2,138.983,400.108,135.087,396.233,135.854Z" transform="translate(-383.803 -92.113)" fill="#d9a171"/>
      <path id="Trazado_109869" data-name="Trazado 109869" d="M396.233,135.854c-3.278.679-6.883,12.353-6.883,12.353l9.211,10.012s7.745-10.9,6.2-14.994C403.2,138.983,400.108,135.087,396.233,135.854Z" transform="translate(-383.803 -92.113)" opacity="0.2"/>
      <path id="Trazado_109870" data-name="Trazado 109870" d="M405.769,146.653c1.656-1.48,2.776-1.011,3.536.2.733,3.516-3.774,10.745-5.586,13.48C402.911,157.017,401.995,150.019,405.769,146.653Z" transform="translate(-388.187 -95.317)" opacity="0.4"/>
      <path id="Trazado_109871" data-name="Trazado 109871" d="M441.579,137.856c.591,3.441.719,13.935-4.663,45.755l-32.03-.591c.624-13,.679-21.041-5.4-47.852a94.454,94.454,0,0,1,13.609-1.52,102.932,102.932,0,0,1,14.539.292,121.136,121.136,0,0,1,12.048,2.036,2.4,2.4,0,0,1,1.894,1.88Z" transform="translate(-387.06 -91.393)" fill="#d9a171"/>
      <path id="Trazado_109872" data-name="Trazado 109872" d="M441.579,137.856c.591,3.441.719,13.935-4.663,45.755l-32.03-.591c.624-13,.679-21.041-5.4-47.852a94.454,94.454,0,0,1,13.609-1.52,102.932,102.932,0,0,1,14.539.292,121.136,121.136,0,0,1,12.048,2.036,2.4,2.4,0,0,1,1.894,1.88Z" transform="translate(-387.06 -91.393)" opacity="0.2"/>
      <path id="Trazado_109873" data-name="Trazado 109873" d="M418.757,90.242c.611,7.806.679,11.125,4.711,15.116,6.021,6.027,15.489,3.686,17.213-4.113,1.561-7.025.292-18.611-7.392-21.72a10.521,10.521,0,0,0-14.532,10.717Z" transform="translate(-393.234 -73.787)" fill="#ff8b7b"/>
      <path id="Trazado_109874" data-name="Trazado 109874" d="M416.484,74.527c-8.464.631-10.432,10.582-7.134,16.969-5.247,7.989-4.616,10.86-2.932,12.727,2.885,3.224,17.722,7.093,26.6.407,3.971-2.987-3.394-13.575-3.394-13.575S433.915,73.21,416.484,74.527Z" transform="translate(-388.898 -72.421)" fill="#344154"/>
      <path id="Trazado_109875" data-name="Trazado 109875" d="M406.457,111.994c-2.4,0-3.251-1.188-3.529-2.24-.862-3.441,3.441-10.12,7.745-11.973a.475.475,0,0,1,.591.319.462.462,0,0,1-.21.543c-3.815,1.649-7.989,7.941-7.2,10.86.319,1.2,1.486,1.724,3.441,1.48a.468.468,0,0,1,.516.421.461.461,0,0,1-.407.516h0A9.147,9.147,0,0,1,406.457,111.994Z" transform="translate(-388.129 -79.907)" fill="#344154"/>
      <path id="Trazado_109876" data-name="Trazado 109876" d="M421.256,101.317l-9.319.312A2.715,2.715,0,0,1,409.12,99V98.88h0a2.946,2.946,0,0,1,2.8-2.925l9.333-.305a2.715,2.715,0,0,1,2.81,2.627.742.742,0,0,1,0,.122h0A2.939,2.939,0,0,1,421.256,101.317Z" transform="translate(-390.154 -79.228)" fill="#d9a171"/>
      <path id="Trazado_109877" data-name="Trazado 109877" d="M423.37,76.407c3.177-4.941,11.491-6.435,16.752-3.333,6.156,3.625,6.027,10.86-4.364,14.933C424.476,92.5,423.37,76.407,423.37,76.407Z" transform="translate(-394.732 -71.457)" fill="#344154"/>
      <path id="Trazado_109878" data-name="Trazado 109878" d="M442.638,95.483a7.847,7.847,0,0,1,2.511,4.161c.462,2.036-.862,1.785-2.382.943-1.357-.76-3.53-2.26-3.448-3.971S441.287,94.315,442.638,95.483Z" transform="translate(-399.855 -78.98)" fill="#ff8b7b"/>
      <path id="Trazado_109879" data-name="Trazado 109879" d="M427.977,206.855s-4.86,53.933-9.8,84.294c-3.977,24.51-7.344,81.871-7.344,81.871H400.094s-3.5-55.949-1.425-80.269c5.287-61.454-5.668-66.687,5.742-86.351Z" transform="translate(-386.585 -114.807)" fill="#344154"/>
      <path id="Trazado_109880" data-name="Trazado 109880" d="M425.484,233.64c2.8,4.113,6.536,8.858,7.751,13.867-.964,9.1-2.1,19.161-3.319,28.833C426.957,268.209,421.893,251.946,425.484,233.64Z" transform="translate(-395.013 -123.558)" opacity="0.4"/>
      <path id="Trazado_109881" data-name="Trazado 109881" d="M440.376,207.047s10.473,59.051,14.871,82.685c4.575,24.591,17.546,79.319,17.546,79.319l-10.718,5.511s-22.127-66.09-24.808-78.5c-6.984-25.915-27.007-89.6-27.007-89.6Z" transform="translate(-390.52 -114.83)" fill="#344154"/>
      <path id="Trazado_109882" data-name="Trazado 109882" d="M498.3,447.084l-13.025,5.192-2.525-4.541,13.935-5.566Z" transform="translate(-413.807 -190.548)" fill="#d9a171"/>
      <path id="Trazado_109883" data-name="Trazado 109883" d="M412.221,449.694H398.544l-.794-4.806,14.478-.489Z" transform="translate(-386.501 -191.265)" fill="#d9a171"/>
      <path id="Trazado_109884" data-name="Trazado 109884" d="M406.054,203.515l-1.466,2.83c-.109.217.156.448.529.455l33.564.679c.292,0,.536-.136.557-.319l.3-2.851c0-.2-.224-.367-.543-.373L406.57,203.3A.563.563,0,0,0,406.054,203.515Z" transform="translate(-388.69 -113.809)" fill="#d9a171"/>
      <path id="Trazado_109885" data-name="Trazado 109885" d="M412.6,207.126h-.862c-.17,0-.305-.1-.292-.2l.428-3.706c0-.115.17-.2.339-.2h.862c.17,0,.3.1.292.21l-.434,3.706C412.922,207.079,412.773,207.14,412.6,207.126Z" transform="translate(-390.902 -113.721)" fill="#344154"/>
      <path id="Trazado_109886" data-name="Trazado 109886" d="M443.616,207.736h-.862c-.177,0-.305-.1-.285-.2l.421-3.713c0-.109.163-.2.346-.2h.862c.177,0,.305.1.292.21l-.434,3.706C443.942,207.662,443.786,207.743,443.616,207.736Z" transform="translate(-400.867 -113.917)" fill="#344154"/>
      <path id="Trazado_109887" data-name="Trazado 109887" d="M464.136,145.86c.971,1.643,2,3.441,3.061,5.084s2.111,3.394,3.224,5.016,2.253,3.258,3.441,4.812a55.1,55.1,0,0,0,3.659,4.385,8.239,8.239,0,0,0,3.7,2.036,26.314,26.314,0,0,0,5.369.93,69.309,69.309,0,0,0,11.749-.19l.862,3.889a49.548,49.548,0,0,1-12.727,2.369,29.3,29.3,0,0,1-6.889-.434,18.871,18.871,0,0,1-3.631-1.113,12.7,12.7,0,0,1-3.557-2.287,64.175,64.175,0,0,1-8.525-9.869,99.326,99.326,0,0,1-6.821-10.772Z" transform="translate(-405.551 -95.359)" fill="#ff8b7b"/>
      <path id="Trazado_109888" data-name="Trazado 109888" d="M456.576,137.3c7.643,1.215,10.806,12.122,10.806,12.122l-9.19,8.824S447.8,148.7,447.8,142.635C447.8,138.128,452.409,136.641,456.576,137.3Z" transform="translate(-402.58 -92.561)" fill="#d9a171"/>
      <path id="Trazado_109889" data-name="Trazado 109889" d="M456.576,137.3c7.643,1.215,10.806,12.122,10.806,12.122l-9.19,8.824S447.8,148.7,447.8,142.635C447.8,138.128,452.409,136.641,456.576,137.3Z" transform="translate(-402.58 -92.561)" opacity="0.2"/>
      <path id="Trazado_109890" data-name="Trazado 109890" d="M528.49,170.729c-.109,1.357-.285,2.715-.482,4.072s-.441,2.715-.679,4-.536,2.654-.862,3.971-.265,2.715-1.717,3.706a1.222,1.222,0,0,1-1.459-.2,1.75,1.75,0,0,1-.19-.251c-.855-1.636-.109-2.83.129-4.154s.679-2.586,1.052-3.91.767-2.586,1.188-3.869.862-2.579,1.358-3.808a.91.91,0,0,1,1.649.455Z" transform="translate(-426.642 -103.083)" fill="#344154"/>
      <path id="Trazado_109891" data-name="Trazado 109891" d="M529.941,172.152l-2.579-.421c-.387-.068-.577-.543-.434-1.059h0a1.127,1.127,0,0,1,.971-.862l2.586.434c.387.054.577.529.428,1.059h0C530.769,171.853,530.355,172.22,529.941,172.152Z" transform="translate(-427.984 -103.053)" fill="#344154"/>
      <path id="Trazado_109892" data-name="Trazado 109892" d="M532.638,143.064c-3.923-1.14-8.471,2.179-10.141,7.412s.156,10.4,4.073,11.539,8.471-2.186,10.181-7.412S536.574,144.2,532.638,143.064Zm-5.579,17.444c-3.312-.95-4.846-5.3-3.441-9.706s5.233-7.195,8.539-6.238,4.853,5.3,3.441,9.706S530.364,161.465,527.058,160.508Z" transform="translate(-426.377 -94.388)" fill="#d9a171"/>
      <path id="Trazado_109893" data-name="Trazado 109893" d="M529.1,162.507c-3.1-.862-4.548-4.975-3.231-9.1s4.907-6.788,8.016-5.851,4.541,4.968,3.217,9.1S532.2,163.369,529.1,162.507Z" transform="translate(-427.503 -95.845)" fill="#d9a171" opacity="0.1"/>
      <path id="Trazado_109894" data-name="Trazado 109894" d="M514.217,181.968l8.437,1.575.862-7.073s-6.937.407-9.326,2.579Z" transform="translate(-423.908 -105.192)" fill="#ff8b7b"/>
      <path id="Trazado_109895" data-name="Trazado 109895" d="M528.8,183.516l1.486-4.7a.719.719,0,0,0-.305-.855l-2.389-1.527-.862,7.079,1.161.448A.74.74,0,0,0,528.8,183.516Z" transform="translate(-427.936 -105.179)" fill="#ff8b7b"/>
    </g>
  </g>
</svg>
