<svg xmlns="http://www.w3.org/2000/svg" width="430.725" height="409.225" viewBox="0 0 430.725 409.225">
  <g id="Capa_2" data-name="Capa 2" transform="translate(-16.5 -5.32)">
    <g id="Grupo_57843" data-name="Grupo 57843" transform="translate(16.5 5.32)">
      <g id="Grupo_57832" data-name="Grupo 57832">
        <g id="Grupo_53832" data-name="Grupo 53832" transform="translate(275.179 114.656)">
          <circle id="Elipse_4076" data-name="Elipse 4076" cx="32.886" cy="32.886" r="32.886" transform="translate(1.898 1.898)" fill="#a66d58"/>
          <path id="Trazado_100504" data-name="Trazado 100504" d="M355.7,201.728a34.784,34.784,0,1,1,34.784-34.784A34.784,34.784,0,0,1,355.7,201.728Zm0-65.78a31,31,0,1,0,31,31A31,31,0,0,0,355.7,135.948Z" transform="translate(-320.92 -132.16)" fill="#fff"/>
        </g>
        <g id="Grupo_53832-2" data-name="Grupo 53832" transform="translate(227.632 31.656)">
          <circle id="Elipse_4076-2" data-name="Elipse 4076" cx="32.461" cy="32.461" r="32.461" transform="translate(1.889 1.916)" fill="#a37955"/>
          <path id="Trazado_100504-2" data-name="Trazado 100504" d="M302.67,109.04a34.35,34.35,0,1,1,34.35-34.35,34.35,34.35,0,0,1-34.35,34.35Zm0-64.912a30.59,30.59,0,1,0,30.59,30.59,30.59,30.59,0,0,0-30.59-30.59Z" transform="translate(-268.32 -40.34)" fill="#fff"/>
        </g>
        <g id="Grupo_53832-3" data-name="Grupo 53832" transform="translate(139.298)">
          <circle id="Elipse_4076-3" data-name="Elipse 4076" cx="32.461" cy="32.461" r="32.461" transform="translate(1.889 1.907)" fill="#d9a171"/>
          <path id="Trazado_100504-3" data-name="Trazado 100504" d="M204.95,74.02A34.35,34.35,0,1,1,239.3,39.67a34.35,34.35,0,0,1-34.35,34.35Zm0-64.921a30.59,30.59,0,1,0,30.59,30.59A30.59,30.59,0,0,0,204.95,9.1Z" transform="translate(-170.6 -5.32)" fill="#fff"/>
        </g>
        <g id="Grupo_53832-4" data-name="Grupo 53832" transform="translate(49.645 30.58)">
          <circle id="Elipse_4076-4" data-name="Elipse 4076" cx="32.461" cy="32.461" r="32.461" transform="translate(1.889 1.916)" fill="#f2e9e4"/>
          <path id="Trazado_100504-4" data-name="Trazado 100504" d="M105.77,107.85A34.35,34.35,0,1,1,140.12,73.5,34.35,34.35,0,0,1,105.77,107.85Zm0-64.912a30.59,30.59,0,1,0,30.59,30.59,30.59,30.59,0,0,0-30.59-30.59Z" transform="translate(-71.42 -39.15)" fill="#fff"/>
        </g>
        <g id="Grupo_53832-5" data-name="Grupo 53832" transform="translate(0 108.184)">
          <circle id="Elipse_4076-5" data-name="Elipse 4076" cx="32.461" cy="32.461" r="32.461" transform="translate(1.889 1.88)" fill="#e1b48d"/>
          <path id="Trazado_100504-5" data-name="Trazado 100504" d="M50.85,193.7A34.35,34.35,0,1,1,85.2,159.35,34.35,34.35,0,0,1,50.85,193.7Zm0-64.912a30.58,30.58,0,1,0,0-.036Z" transform="translate(-16.5 -125)" fill="#fff"/>
        </g>
        <g id="Grupo_53832-6" data-name="Grupo 53832" transform="translate(16 200.658)">
          <circle id="Elipse_4076-6" data-name="Elipse 4076" cx="32.461" cy="32.461" r="32.461" transform="translate(1.889 1.907)" fill="#d9a171"/>
          <path id="Trazado_100504-6" data-name="Trazado 100504" d="M68.55,296a34.35,34.35,0,1,1,34.35-34.35A34.35,34.35,0,0,1,68.55,296Zm0-64.921A30.59,30.59,0,1,0,99.1,261.668a30.59,30.59,0,0,0-30.553-30.59Z" transform="translate(-34.2 -227.3)" fill="#fff"/>
        </g>
        <g id="Grupo_53832-7" data-name="Grupo 53832" transform="translate(84.519 263.446)">
          <circle id="Elipse_4076-7" data-name="Elipse 4076" cx="32.461" cy="32.461" r="32.461" transform="translate(1.853 1.907)" fill="#aed3f2"/>
          <path id="Trazado_100504-7" data-name="Trazado 100504" d="M144.35,365.46a34.35,34.35,0,1,1,34.35-34.35A34.35,34.35,0,0,1,144.35,365.46Zm0-64.921a30.59,30.59,0,1,0,30.58,30.587,30.59,30.59,0,0,0-30.58-30.587Z" transform="translate(-110 -296.76)" fill="#fff"/>
        </g>
        <g id="Grupo_53832-8" data-name="Grupo 53832" transform="translate(179.433 268.445)">
          <circle id="Elipse_4076-8" data-name="Elipse 4076" cx="32.461" cy="32.461" r="32.461" transform="translate(1.925 1.907)" fill="#6595bf"/>
          <path id="Trazado_100504-8" data-name="Trazado 100504" d="M249.35,370.99a34.35,34.35,0,1,1,34.35-34.35A34.35,34.35,0,0,1,249.35,370.99Zm0-64.912a30.59,30.59,0,1,0,30.59,30.587,30.59,30.59,0,0,0-30.59-30.587Z" transform="translate(-215 -302.29)" fill="#fff"/>
        </g>
        <g id="Grupo_53832-9" data-name="Grupo 53832" transform="translate(254.886 208.947)">
          <circle id="Elipse_4076-9" data-name="Elipse 4076" cx="32.461" cy="32.461" r="32.461" transform="translate(1.889 1.907)" fill="#5e6178"/>
          <path id="Trazado_100504-9" data-name="Trazado 100504" d="M332.82,305.17a34.35,34.35,0,1,1,34.35-34.35A34.35,34.35,0,0,1,332.82,305.17Zm0-64.912a30.67,30.67,0,1,1-.006,0Z" transform="translate(-298.47 -236.47)" fill="#fff"/>
        </g>
      </g>
      <g id="Grupo_57842" data-name="Grupo 57842" transform="translate(18.938 26.721)">
        <g id="Grupo_57833" data-name="Grupo 57833" transform="translate(95.411)">
          <path id="Trazado_106904" data-name="Trazado 106904" d="M143,50.88q5.189-2.179,10.54-3.95" transform="translate(-143 -36.037)" fill="none" stroke="#6595bf" stroke-miterlimit="10" stroke-width="12"/>
          <path id="Trazado_106905" data-name="Trazado 106905" d="M149.27,34.88l6.7,22.761L164,42.916Z" transform="translate(-143.602 -34.88)" fill="#6595bf"/>
        </g>
        <g id="Grupo_57834" data-name="Grupo 57834" transform="translate(19.715 62.282)">
          <path id="Trazado_106906" data-name="Trazado 106906" d="M65.87,121.775q2.26-4.366,4.773-8.515" transform="translate(-59.895 -104.691)" fill="none" stroke="#6595bf" stroke-miterlimit="10" stroke-width="12"/>
          <path id="Trazado_106907" data-name="Trazado 106907" d="M59.26,107.269l19.9,12.908-3.5-16.4Z" transform="translate(-59.26 -103.78)" fill="#6595bf"/>
        </g>
        <g id="Grupo_57835" data-name="Grupo 57835" transform="translate(0 153.119)">
          <path id="Trazado_106908" data-name="Trazado 106908" d="M52.22,226.218q-1.193-5.288-1.98-10.658" transform="translate(-38.679 -205.354)" fill="none" stroke="#6595bf" stroke-miterlimit="10" stroke-width="12"/>
          <path id="Trazado_106909" data-name="Trazado 106909" d="M37.45,217.377l23.575-2.658L47.909,204.27Z" transform="translate(-37.45 -204.27)" fill="#6595bf"/>
        </g>
        <g id="Grupo_57836" data-name="Grupo 57836" transform="translate(49.464 240.061)">
          <path id="Trazado_106910" data-name="Trazado 106910" d="M109.077,315.905c-3.01-2.26-5.9-4.637-8.687-7.105" transform="translate(-92.96 -301.252)" fill="none" stroke="#6595bf" stroke-miterlimit="10" stroke-width="12"/>
          <path id="Trazado_106911" data-name="Trazado 106911" d="M92.6,317.661l16.325-17.211-16.759.443Z" transform="translate(-92.17 -300.45)" fill="#6595bf"/>
        </g>
        <g id="Grupo_57837" data-name="Grupo 57837" transform="translate(135.438 271.03)">
          <path id="Trazado_106912" data-name="Trazado 106912" d="M208.138,347.72c-3.164.127-6.328.145-9.528.063" transform="translate(-188.368 -335.96)" fill="none" stroke="#6595bf" stroke-miterlimit="10" stroke-width="12"/>
          <path id="Trazado_106913" data-name="Trazado 106913" d="M198.435,358.393,199.8,334.71l-12.52,11.155Z" transform="translate(-187.28 -334.71)" fill="#6595bf"/>
        </g>
        <g id="Grupo_57838" data-name="Grupo 57838" transform="translate(229.213 241.372)">
          <path id="Trazado_106914" data-name="Trazado 106914" d="M307.4,306.48q-3.544,3.29-7.286,6.328" transform="translate(-291.893 -302.34)" fill="none" stroke="#6595bf" stroke-miterlimit="10" stroke-width="12"/>
          <path id="Trazado_106915" data-name="Trazado 106915" d="M307.634,320.783,293.28,301.9l-2.26,16.624Z" transform="translate(-291.02 -301.9)" fill="#6595bf"/>
        </g>
        <g id="Grupo_57839" data-name="Grupo 57839" transform="translate(275.125 161.327)">
          <path id="Trazado_106916" data-name="Trazado 106916" d="M355.9,213.35q-.651,5.044-1.681,10.061" transform="translate(-343.002 -213.35)" fill="none" stroke="#6595bf" stroke-miterlimit="10" stroke-width="12"/>
          <path id="Trazado_106917" data-name="Trazado 106917" d="M364.879,225.223,341.81,219.7l8.777,14.291Z" transform="translate(-341.81 -213.96)" fill="#6595bf"/>
        </g>
        <g id="Grupo_57840" data-name="Grupo 57840" transform="translate(261.285 68.808)">
          <path id="Trazado_106918" data-name="Trazado 106918" d="M333.46,111q2.712,4.285,5.089,8.741" transform="translate(-327.169 -111)" fill="none" stroke="#6595bf" stroke-miterlimit="10" stroke-width="12"/>
          <path id="Trazado_106919" data-name="Trazado 106919" d="M347.77,113.33,326.5,123.825l15.873,5.388Z" transform="translate(-326.5 -111.224)" fill="#6595bf"/>
        </g>
        <g id="Grupo_57841" data-name="Grupo 57841" transform="translate(191.627 2.278)">
          <path id="Trazado_106920" data-name="Trazado 106920" d="M249.44,46.29q4.818,1.546,9.546,3.417" transform="translate(-249.44 -38.254)" fill="none" stroke="#6595bf" stroke-miterlimit="10" stroke-width="12"/>
          <path id="Trazado_106921" data-name="Trazado 106921" d="M262.6,37.4,253.15,59.158,268.743,53Z" transform="translate(-249.796 -37.4)" fill="#6595bf"/>
        </g>
      </g>
    </g>
    <g id="Grupo_57855" data-name="Grupo 57855" transform="translate(19.294 150.393)">
      <g id="freepik--Character--inject-103">
        <path id="Trazado_106922" data-name="Trazado 106922" d="M57.955,227.953a8.271,8.271,0,1,0-6.942,12.14c4.077-.181,7.394-3.254,10.169-6.246" transform="translate(-21.779 -171.356)" fill="#344154"/>
        <path id="Trazado_106923" data-name="Trazado 106923" d="M62.793,226.584a1.69,1.69,0,0,0-1.989-1.338h0A2.5,2.5,0,0,0,59,227.054a5.1,5.1,0,0,0,.108,2.658,10.947,10.947,0,0,0,1.853,3.7c.579.759,1.5,1.51,2.4,1.166s1.076-1.618.985-2.621a17.528,17.528,0,0,0-1.925-6.472" transform="translate(-23.363 -171.515)" fill="#d9a171"/>
        <path id="Trazado_106924" data-name="Trazado 106924" d="M88.65,184.666c4.375-6.391,10.043-12.013,16.967-15.457s15.2-4.52,22.526-2.07,13.487,8.75,14.924,16.343c1.139,6.029.154,15.367,4.619,19.57,9.247,8.506,7.828,24.624,2.4,33.826,0,0-8.389,10.178.669,19.525,0,0,5.333,3.778,2.658,14.038-4.158,16,14.065,24.895,3.046,22.4l-36.827-4.059-4.113-41.726" transform="translate(-26.224 -165.809)" fill="#344154"/>
        <path id="Trazado_106925" data-name="Trazado 106925" d="M61.678,211.6c-2.305,1.69-3.11,4.845-2.9,7.7s1.266,5.55,2.007,8.325,1.121,5.785,0,8.443c-1.808,4.52-7.105,6.373-11.091,9.238A22.3,22.3,0,0,0,40.535,265c.19,2.224.7,4.52-.118,6.608-.9,2.359-3.336,3.779-4.809,5.849-2.3,3.245-1.953,7.792-.19,11.354s4.737,6.328,7.638,9.085a197.06,197.06,0,0,1,45.053-29.414" transform="translate(-20.974 -170.207)" fill="#344154"/>
        <path id="Trazado_106926" data-name="Trazado 106926" d="M57.679,230.919a18.827,18.827,0,0,1-2.359.172,14.753,14.753,0,0,0-5.478,1.311,8.362,8.362,0,0,0-3.887,3.833,12.186,12.186,0,0,0-.669,2.233,1.537,1.537,0,0,1,0-.642,5.658,5.658,0,0,1,.4-1.717,8.136,8.136,0,0,1,4-4.14,13.3,13.3,0,0,1,5.632-1.22A8.018,8.018,0,0,1,57.679,230.919Z" transform="translate(-22.055 -172.044)" fill="#5e6178"/>
        <path id="Trazado_106927" data-name="Trazado 106927" d="M217,273.684l18.079,5.83s12.529-7.7,13.243-10.522-.606-3.263-1.085-3.209c0,0,4.465-3.905,2.1-7.476,0,0,3.977-4.194,1.311-6.707l-1.455-1.184s1.934-3.878.389-6.807a2.188,2.188,0,0,0-2.712-.976l-14.789,5.487-9.446,6.328Z" transform="translate(-38.552 -173.174)" fill="#ffbe9d"/>
        <path id="Trazado_106928" data-name="Trazado 106928" d="M241.46,247.085l5.035-18.287,4.167-.4-3.941,14.526Z" transform="translate(-40.902 -171.821)" fill="#aed3f2"/>
        <path id="Trazado_106929" data-name="Trazado 106929" d="M218.77,267.884l4.438-14.734L239.19,241.19a5.424,5.424,0,0,1,0,5.487c-1.69,3.01-4.122,5.424-4.673,6.328s-2.838,5.2-2.838,5.2a18.874,18.874,0,0,1,.524,12.176" transform="translate(-38.722 -173.049)" fill="#ffbe9d"/>
        <path id="Trazado_106930" data-name="Trazado 106930" d="M232.2,270.316a3.977,3.977,0,0,1,.145-.85c.063-.271.127-.624.181-1.03a12.536,12.536,0,0,0,.181-1.41,19.884,19.884,0,0,0,0-3.878,17.175,17.175,0,0,0-1.193-4.927v-.163l2.016-3.751.533-1,.289-.515.362-.479,1.546-1.853a26.831,26.831,0,0,0,2.838-4.185,5.153,5.153,0,0,0-.108-4.963l.343.054-1.365,1.021-14.635,10.847.072-.1c-1.365,4.393-2.495,8.063-3.3,10.676-.4,1.257-.723,2.242-.9,2.974l-.262.777c-.063.172-.1.262-.118.253a1.435,1.435,0,0,1,.054-.271l.208-.786c.217-.75.488-1.754.85-3.01.768-2.63,1.808-6.328,3.137-10.73v-.063h.054L237.7,241.986l1.347-1,.217-.163.127.217a5.641,5.641,0,0,1,.136,5.424,26.288,26.288,0,0,1-2.929,4.249l-1.537,1.808a3.842,3.842,0,0,0-.353.452l-.28.5-.542.994-2.043,3.706v-.172a16.8,16.8,0,0,1,1.139,5.062,18.884,18.884,0,0,1-.081,3.914c-.054.479-.127.949-.226,1.419a9.866,9.866,0,0,1-.244,1.021A4.736,4.736,0,0,1,232.2,270.316Z" transform="translate(-38.727 -173.014)" fill="#eb996e"/>
        <path id="Trazado_106931" data-name="Trazado 106931" d="M251.159,250.539a6.148,6.148,0,0,1-1.067.723L247.1,253.07l-4.465,2.621a5.017,5.017,0,0,1-3.028.9,2.35,2.35,0,0,1-1.546-.814,2.631,2.631,0,0,1-.551-1.717,5.424,5.424,0,0,1,1.41-3.073,28.984,28.984,0,0,1,2.034-2.323,27.77,27.77,0,0,1,3.986-3.354,24.068,24.068,0,0,1,3.01-1.808,5.188,5.188,0,0,1,1.175-.506,7.078,7.078,0,0,1-1.094.669c-.7.416-1.717,1.049-2.9,1.916a28.635,28.635,0,0,0-3.851,3.39,25.222,25.222,0,0,0-1.98,2.3,5.035,5.035,0,0,0-1.311,2.775,2.206,2.206,0,0,0,.434,1.4,1.862,1.862,0,0,0,1.247.651,4.52,4.52,0,0,0,2.766-.8l4.52-2.522,3.064-1.681a7.583,7.583,0,0,1,1.139-.551Z" transform="translate(-40.522 -173.223)" fill="#eb996e"/>
        <path id="Trazado_106932" data-name="Trazado 106932" d="M251.578,259.173a5.34,5.34,0,0,1-.9.759c-.624.461-1.555,1.1-2.712,1.808a46.746,46.746,0,0,1-4.2,2.495,4.2,4.2,0,0,1-1.383.515,2.088,2.088,0,0,1-1.555-.407,3.11,3.11,0,0,1-1.058-3,5.921,5.921,0,0,1,1.546-2.775,25.949,25.949,0,0,1,2.1-2.016,38.346,38.346,0,0,1,3.941-2.893c1.166-.759,2.124-1.329,2.775-1.708a5.288,5.288,0,0,1,1.076-.56,5.922,5.922,0,0,1-.9.714l-2.712,1.808a42.077,42.077,0,0,0-3.842,2.956,24.84,24.84,0,0,0-2.034,1.989,5.559,5.559,0,0,0-1.428,2.54,2.712,2.712,0,0,0,.9,2.549,1.654,1.654,0,0,0,1.211.325,3.67,3.67,0,0,0,1.238-.461c1.636-.814,3.028-1.663,4.212-2.386l2.775-1.736a6.538,6.538,0,0,1,.958-.515Z" transform="translate(-40.733 -174.029)" fill="#eb996e"/>
        <path id="Trazado_106933" data-name="Trazado 106933" d="M249.344,267.768a3.618,3.618,0,0,1-.768.56c-.5.334-1.238.8-2.16,1.365a25.65,25.65,0,0,1-3.408,1.727,10.387,10.387,0,0,1-2.206.678,2.124,2.124,0,0,1-1.293-.19,1.51,1.51,0,0,1-.741-1.175,3.552,3.552,0,0,1,.108-1.311,2.63,2.63,0,0,1,.651-1.1,12.877,12.877,0,0,1,1.663-1.555,29.9,29.9,0,0,1,3.146-2.169c.9-.569,1.69-.985,2.224-1.266a3.209,3.209,0,0,1,.9-.38,3.7,3.7,0,0,1-.759.533l-2.151,1.4a34.863,34.863,0,0,0-3.037,2.224c-1.021.9-2.495,1.943-2.233,3.552a1.058,1.058,0,0,0,.479.832,1.735,1.735,0,0,0,1.021.127,10.431,10.431,0,0,0,2.088-.606,27.966,27.966,0,0,0,3.408-1.618,25.312,25.312,0,0,1,3.064-1.627Z" transform="translate(-40.642 -175.14)" fill="#eb996e"/>
        <path id="Trazado_106934" data-name="Trazado 106934" d="M250.386,271.96a2.187,2.187,0,0,1-.416.75,15.161,15.161,0,0,1-1.464,1.853,20.358,20.358,0,0,1-2.585,2.323c-.524.4-1.076.8-1.672,1.184a5.948,5.948,0,0,1-2.025,1.021,1.808,1.808,0,0,1-1.238-.136,1.754,1.754,0,0,1-.777-.9,2.875,2.875,0,0,1,.226-2.151,10.847,10.847,0,0,1,1.934-2.983,7.685,7.685,0,0,1,1.808-1.482,2.178,2.178,0,0,1,.8-.325,10.667,10.667,0,0,0-4.158,4.9,2.423,2.423,0,0,0-.19,1.808,1.2,1.2,0,0,0,1.473.786,5.957,5.957,0,0,0,1.853-.9c.579-.389,1.139-.768,1.663-1.157a23.229,23.229,0,0,0,2.6-2.2C249.654,272.945,250.314,271.96,250.386,271.96Z" transform="translate(-40.771 -175.923)" fill="#eb996e"/>
        <path id="Trazado_106935" data-name="Trazado 106935" d="M200.326,276.078l-22.192,47.484-19.417-25.356c-12.149-15.485-22.138-19.191-22.138-19.191l-17.627-4.71-36.1-1.916L79.7,274.2,58,283.346s2.079,23.5,6.183,42.142,7.53,39.059,7.53,39.059c1.5,13.433-8.461,64.967-8.461,64.967h99.524l-21.27-64.026a230.248,230.248,0,0,0,6.056-23.72h0l18.495,12.655S193.8,370.016,203.9,343.811l17.473-61.025Z" transform="translate(-23.28 -176.046)" fill="#d9a171"/>
        <path id="Trazado_106936" data-name="Trazado 106936" d="M154.76,346.7a8.833,8.833,0,0,1,0-1.383,16.157,16.157,0,0,0,0-1.627c-.054-.642,0-1.356,0-2.151a49.4,49.4,0,0,0-.443-5.541,50.06,50.06,0,0,0-3.7-13.161,52.424,52.424,0,0,0-2.513-4.981c-.38-.7-.777-1.293-1.112-1.853a12.655,12.655,0,0,0-.9-1.365,8.848,8.848,0,0,1-.741-1.175,6.913,6.913,0,0,1,.9,1.067,11.749,11.749,0,0,1,.9,1.329c.307.533.768,1.112,1.175,1.808a43.662,43.662,0,0,1,2.63,4.981,46.481,46.481,0,0,1,3.7,13.225,45.035,45.035,0,0,1,.353,5.623c0,.8,0,1.528-.054,2.16s-.072,1.184-.118,1.627a7.133,7.133,0,0,1-.081,1.419Z" transform="translate(-31.67 -179.991)" fill="#344154"/>
        <path id="Trazado_106937" data-name="Trazado 106937" d="M151.358,306.69c.172.054-.615,2.124-1.727,4.574a23.909,23.909,0,0,1-2.242,4.357,25.482,25.482,0,0,1,1.808-4.52c.57-1.229,1.085-2.341,1.482-3.128A5.884,5.884,0,0,1,151.358,306.69Z" transform="translate(-31.866 -179.341)" fill="#344154"/>
        <path id="Trazado_106938" data-name="Trazado 106938" d="M192.39,342.551a6.906,6.906,0,0,1-1.031-1.9,18.53,18.53,0,0,1-1.3-5.071,19.227,19.227,0,0,1,.145-5.243,6.661,6.661,0,0,1,.579-2.079,25.021,25.021,0,0,0,1.609,14.291Z" transform="translate(-35.954 -181.413)" fill="#344154"/>
        <path id="Trazado_106939" data-name="Trazado 106939" d="M169.4,322c.072,0,.208,1.121.542,2.911a51.344,51.344,0,0,0,4.411,13.5,28.838,28.838,0,0,1,1.275,2.667,6.217,6.217,0,0,1-.479-.633c-.289-.425-.669-1.076-1.1-1.853a40.569,40.569,0,0,1-4.447-13.559c-.118-.9-.19-1.663-.208-2.169A2.341,2.341,0,0,1,169.4,322Z" transform="translate(-33.976 -180.812)" fill="#fafafa"/>
        <path id="Trazado_106940" data-name="Trazado 106940" d="M173.189,334.089a28.927,28.927,0,0,0,1.437-2.585,11.39,11.39,0,0,0,.669-6.906l-.063-.235.443.09a13.36,13.36,0,0,0-2.414,6.4c-.19,1.763,0,2.866-.09,2.875a2.259,2.259,0,0,1-.172-.768,10,10,0,0,1-.072-2.142,12.782,12.782,0,0,1,2.35-6.653l.307-.434.127.515.054.244a10.965,10.965,0,0,1-.832,7.15,10.324,10.324,0,0,1-1.166,1.808C173.433,333.917,173.216,334.107,173.189,334.089Z" transform="translate(-34.316 -180.978)" fill="#fafafa"/>
        <path id="Trazado_106941" data-name="Trazado 106941" d="M169.3,330.361a3.021,3.021,0,0,1-.814-.289,15.071,15.071,0,0,1-2.043-1.139,16.633,16.633,0,0,1-4.023-3.806,9.283,9.283,0,0,1-.624-.9,1.573,1.573,0,0,1-.163-1.275.9.9,0,0,1,.606-.47,1.256,1.256,0,0,1,.678.09,5.639,5.639,0,0,1,.9.615,15.765,15.765,0,0,1,1.573,1.338,15.367,15.367,0,0,1,2.215,2.712,13.342,13.342,0,0,1,1.121,2.061,2.8,2.8,0,0,1,.28.814c-.081,0-.551-1.094-1.672-2.712a17.816,17.816,0,0,0-2.251-2.558,14.13,14.13,0,0,0-1.555-1.284,4.423,4.423,0,0,0-.85-.551c-.307-.127-.56-.072-.669.145a1.13,1.13,0,0,0,.154.85c.154.271.389.579.579.859a19.214,19.214,0,0,0,1.284,1.555,18.921,18.921,0,0,0,2.558,2.251C168.286,329.8,169.344,330.28,169.3,330.361Z" transform="translate(-33.228 -180.856)" fill="#fafafa"/>
        <path id="Trazado_106942" data-name="Trazado 106942" d="M170.577,339.47a1.863,1.863,0,0,1-.678.217,7.321,7.321,0,0,1-1.934.181,8.922,8.922,0,0,1-5.867-2.522l-.3-.289.389-.108.633-.181a9.039,9.039,0,0,1,6.707,1.139,7.845,7.845,0,0,1,1.627,1.311c.325.371.479.606.452.624a18.075,18.075,0,0,0-2.242-1.645,9.229,9.229,0,0,0-6.472-.9l-.606.172.1-.4a9.112,9.112,0,0,0,5.55,2.522,23.414,23.414,0,0,0,2.64-.118Z" transform="translate(-33.25 -182.21)" fill="#fafafa"/>
        <path id="Trazado_106943" data-name="Trazado 106943" d="M83.487,343.92a3,3,0,0,1,0,.8,17.718,17.718,0,0,1-.217,2.16,39.991,39.991,0,0,1-4.429,13.559c-.452.8-.823,1.446-1.112,1.853a3.716,3.716,0,0,1-.479.642,26.033,26.033,0,0,1,1.284-2.621,54.234,54.234,0,0,0,2.712-6.608,51.365,51.365,0,0,0,1.745-6.9Q83.166,345.355,83.487,343.92Z" transform="translate(-25.129 -182.917)" fill="#fafafa"/>
        <path id="Trazado_106944" data-name="Trazado 106944" d="M80.028,355.962a3.488,3.488,0,0,1-.579-.569,9.881,9.881,0,0,1-1.175-1.853,10.992,10.992,0,0,1-.823-7.141l.054-.253.118-.515.307.443a12.791,12.791,0,0,1,2.359,6.644,11.4,11.4,0,0,1-.072,2.151,2.206,2.206,0,0,1-.172.759c-.09,0,.09-1.112-.09-2.875a13.559,13.559,0,0,0-2.414-6.4l.425-.09v.235a11.39,11.39,0,0,0,.669,6.906,24.983,24.983,0,0,0,1.392,2.558Z" transform="translate(-25.123 -183.081)" fill="#fafafa"/>
        <path id="Trazado_106945" data-name="Trazado 106945" d="M83.41,352.245c0-.081,1.094-.56,2.712-1.708a17.673,17.673,0,0,0,2.531-2.26,16.166,16.166,0,0,0,1.247-1.528,9.044,9.044,0,0,0,.579-.9,1.085,1.085,0,0,0,.145-.85c-.09-.217-.362-.262-.651-.136a4.926,4.926,0,0,0-.9.542,16.167,16.167,0,0,0-1.51,1.347,17.229,17.229,0,0,0-2.233,2.567c-1.13,1.591-1.591,2.712-1.672,2.712a2.35,2.35,0,0,1,.28-.814,12.051,12.051,0,0,1,1.121-2.07,14.769,14.769,0,0,1,2.215-2.712,17.064,17.064,0,0,1,1.573-1.338,4.772,4.772,0,0,1,.9-.606,1.175,1.175,0,0,1,.678-.09.9.9,0,0,1,.6.461,1.51,1.51,0,0,1-.163,1.275,8.036,8.036,0,0,1-.633.9,15.919,15.919,0,0,1-4.014,3.806,12.256,12.256,0,0,1-2.052,1.139,2.287,2.287,0,0,1-.75.262Z" transform="translate(-25.721 -182.962)" fill="#fafafa"/>
        <path id="Trazado_106946" data-name="Trazado 106946" d="M81.893,361.348a18.985,18.985,0,0,0,2.585.063,9.039,9.039,0,0,0,5.55-2.522l.1.4-.6-.163a9.121,9.121,0,0,0-6.472.9,18.4,18.4,0,0,0-2.169,1.663,2.2,2.2,0,0,1,.461-.615,7.837,7.837,0,0,1,1.618-1.32,9.112,9.112,0,0,1,6.716-1.13l.624.181.4.1-.3.3a8.976,8.976,0,0,1-5.876,2.486,7.711,7.711,0,0,1-1.934-.172,1.582,1.582,0,0,1-.705-.172Z" transform="translate(-25.479 -184.309)" fill="#fafafa"/>
        <path id="Trazado_106947" data-name="Trazado 106947" d="M122.13,307.85a5.423,5.423,0,0,1,.579.579,21.458,21.458,0,0,1,1.347,1.7,40.958,40.958,0,0,1,6.273,12.845c.244.9.416,1.609.515,2.106a2.965,2.965,0,0,1,.108.8,26.978,26.978,0,0,1-.9-2.775,52.706,52.706,0,0,0-2.712-6.59,52.094,52.094,0,0,0-3.562-6.156C122.762,308.781,122.075,307.85,122.13,307.85Z" transform="translate(-29.439 -179.452)" fill="#fafafa"/>
        <path id="Trazado_106948" data-name="Trazado 106948" d="M127.6,319.324a2.007,2.007,0,0,1-.8,0,8.823,8.823,0,0,1-2.142-.515,10.983,10.983,0,0,1-5.55-4.52l-.136-.217-.28-.452.542.09a12.945,12.945,0,0,1,6.328,3.137A10.379,10.379,0,0,1,127,318.429a1.98,1.98,0,0,1,.407.669,21.611,21.611,0,0,0-2.061-2,13.559,13.559,0,0,0-6.2-2.911l.262-.353.118.2a11.3,11.3,0,0,0,5.3,4.52A25.369,25.369,0,0,0,127.6,319.324Z" transform="translate(-29.109 -180.007)" fill="#fafafa"/>
        <path id="Trazado_106949" data-name="Trazado 106949" d="M127.859,313.778c-.081,0,.4-1.166.723-3.082a17.98,17.98,0,0,0,.253-3.408,18.409,18.409,0,0,0-.163-2,10.37,10.37,0,0,0-.181-1.021,1.1,1.1,0,0,0-.488-.723c-.217-.072-.434.063-.569.371a5.217,5.217,0,0,0-.235.985,18.482,18.482,0,0,0-.217,2,17.917,17.917,0,0,0,.181,3.408c.289,1.916.75,3.055.669,3.082a2.713,2.713,0,0,1-.371-.777,13.866,13.866,0,0,1-.633-2.251,15.521,15.521,0,0,1-.289-3.48,15.9,15.9,0,0,1,.2-2.061,4.863,4.863,0,0,1,.2-1.13,1.148,1.148,0,0,1,.416-.533.9.9,0,0,1,.759-.081,1.537,1.537,0,0,1,.777,1.021c.081.362.145.732.19,1.1a14.356,14.356,0,0,1,.136,2.061,16,16,0,0,1-.362,3.471,13.883,13.883,0,0,1-.669,2.242,2.513,2.513,0,0,1-.325.8Z" transform="translate(-29.863 -178.989)" fill="#fafafa"/>
        <path id="Trazado_106950" data-name="Trazado 106950" d="M132.928,321.169a24.272,24.272,0,0,0,1.808-1.754,9.039,9.039,0,0,0,2.215-5.686l.344.217-.533.3a9.184,9.184,0,0,0-3.941,5.171,16.786,16.786,0,0,0-.47,2.775,1.98,1.98,0,0,1-.1-.759,7.648,7.648,0,0,1,.235-2.079,9.13,9.13,0,0,1,4.023-5.5l.579-.316.362-.19v.416a8.9,8.9,0,0,1-2.459,5.894,8.135,8.135,0,0,1-1.5,1.229A2.168,2.168,0,0,1,132.928,321.169Z" transform="translate(-30.411 -179.981)" fill="#fafafa"/>
        <path id="Trazado_106951" data-name="Trazado 106951" d="M89.25,422.9a5.847,5.847,0,0,1,.56.569,17.938,17.938,0,0,1,1.347,1.7,40.8,40.8,0,0,1,6.328,12.845c.253.9.425,1.609.515,2.106a2.712,2.712,0,0,1,.1.8,24.708,24.708,0,0,1-.9-2.766,52.231,52.231,0,0,0-2.712-6.6,55.611,55.611,0,0,0-3.616-6.156A25.806,25.806,0,0,1,89.25,422.9Z" transform="translate(-26.282 -190.504)" fill="#fafafa"/>
        <path id="Trazado_106952" data-name="Trazado 106952" d="M94.713,434.395a2.4,2.4,0,0,1-.8,0,9.617,9.617,0,0,1-2.142-.515,10.974,10.974,0,0,1-5.55-4.52l-.127-.208L85.8,428.7l.533.09a12.845,12.845,0,0,1,6.328,3.128,10.941,10.941,0,0,1,1.455,1.573,2.368,2.368,0,0,1,.407.66c-.072.054-.705-.859-2.07-2a13.5,13.5,0,0,0-6.183-2.911l.253-.353.127.208a11.326,11.326,0,0,0,5.288,4.52A26.832,26.832,0,0,0,94.713,434.395Z" transform="translate(-25.95 -191.061)" fill="#fafafa"/>
        <path id="Trazado_106953" data-name="Trazado 106953" d="M94.968,428.861c-.09,0,.389-1.157.714-3.082a18.6,18.6,0,0,0,.253-3.4,14.771,14.771,0,0,0-.163-2.007,6.553,6.553,0,0,0-.19-1.021,1.1,1.1,0,0,0-.488-.723c-.217-.072-.434.063-.56.371a4.194,4.194,0,0,0-.235.994,14.679,14.679,0,0,0-.217,2,17.121,17.121,0,0,0,.181,3.4c.3,1.925.759,3.064.678,3.092a2.712,2.712,0,0,1-.38-.777,14,14,0,0,1-.642-2.26,16.19,16.19,0,0,1-.09-5.541,5.08,5.08,0,0,1,.262-1.094,1.211,1.211,0,0,1,.434-.542.9.9,0,0,1,.741-.081,1.51,1.51,0,0,1,.8,1.076,9.1,9.1,0,0,1,.2,1.1,15.576,15.576,0,0,1,.136,2.061,16.5,16.5,0,0,1-.362,3.462,14.972,14.972,0,0,1-.669,2.251,2.712,2.712,0,0,1-.407.723Z" transform="translate(-26.703 -190.046)" fill="#fafafa"/>
        <path id="Trazado_106954" data-name="Trazado 106954" d="M100.028,436.258a21.24,21.24,0,0,0,1.808-1.763,9.04,9.04,0,0,0,2.224-5.686l.353.226-.551.289a9.184,9.184,0,0,0-3.932,5.171,20.71,20.71,0,0,0-.479,2.775,2.369,2.369,0,0,1-.1-.759,8.072,8.072,0,0,1,.244-2.079,9.148,9.148,0,0,1,4.023-5.5l.569-.307.362-.2v.416a8.841,8.841,0,0,1-2.459,5.9,8.137,8.137,0,0,1-1.5,1.229A2.117,2.117,0,0,1,100.028,436.258Z" transform="translate(-27.252 -191.035)" fill="#fafafa"/>
        <path id="Trazado_106955" data-name="Trazado 106955" d="M217.672,306.89a2.9,2.9,0,0,1-.163.786c-.127.5-.353,1.2-.669,2.07a39.6,39.6,0,0,1-3.064,6.472,40.172,40.172,0,0,1-4.167,5.849,21.311,21.311,0,0,1-1.473,1.6,3.047,3.047,0,0,1-.606.524,28.857,28.857,0,0,1,1.853-2.341,51.7,51.7,0,0,0,7.141-12.239,26.638,26.638,0,0,1,1.148-2.721Z" transform="translate(-37.643 -179.36)" fill="#fafafa"/>
        <path id="Trazado_106956" data-name="Trazado 106956" d="M212.063,317.79a3.245,3.245,0,0,1-.434-.687,9.761,9.761,0,0,1-.75-2.07,11.091,11.091,0,0,1,.705-7.159l.118-.226.217-.488.217.5a12.9,12.9,0,0,1,.9,7,11.75,11.75,0,0,1-.524,2.088c-.181.47-.307.714-.334.7a20.527,20.527,0,0,0,.524-2.829,13.5,13.5,0,0,0-.994-6.753h.434l-.09.217a11.254,11.254,0,0,0-.823,6.879A26.029,26.029,0,0,0,212.063,317.79Z" transform="translate(-37.936 -179.386)" fill="#fafafa"/>
        <path id="Trazado_106957" data-name="Trazado 106957" d="M216.09,315.016c0-.09,1.184-.325,2.974-1.112a18.078,18.078,0,0,0,2.974-1.663A17.328,17.328,0,0,0,223.62,311a9.45,9.45,0,0,0,.75-.723,1.148,1.148,0,0,0,.325-.8c0-.217-.3-.334-.615-.262a4.682,4.682,0,0,0-.9.334,17.735,17.735,0,0,0-4.52,2.965c-1.446,1.311-2.142,2.314-2.206,2.26a2.828,2.828,0,0,1,.443-.741,12.945,12.945,0,0,1,1.528-1.808,15.2,15.2,0,0,1,2.775-2.151,15.675,15.675,0,0,1,1.808-.985,5.025,5.025,0,0,1,1.067-.389,1.193,1.193,0,0,1,.687.063.8.8,0,0,1,.479.579,1.546,1.546,0,0,1-.425,1.211c-.262.271-.533.524-.814.768a15.628,15.628,0,0,1-1.663,1.266,15.8,15.8,0,0,1-3.1,1.618,12.848,12.848,0,0,1-2.242.687,2.767,2.767,0,0,1-.9.126Z" transform="translate(-38.465 -179.532)" fill="#fafafa"/>
        <path id="Trazado_106958" data-name="Trazado 106958" d="M212.825,323.59a24.81,24.81,0,0,0,2.513.615,9.04,9.04,0,0,0,5.966-1.3v.416l-.542-.28a9.238,9.238,0,0,0-6.472-.434,16.036,16.036,0,0,0-2.549,1.121,3.618,3.618,0,0,1,.57-.506,8.244,8.244,0,0,1,1.808-.9,9.04,9.04,0,0,1,6.789.325l.588.3.362.19-.353.217a8.823,8.823,0,0,1-6.328,1.211,7.385,7.385,0,0,1-1.808-.569,2.305,2.305,0,0,1-.542-.4Z" transform="translate(-38.047 -180.793)" fill="#fafafa"/>
        <path id="Trazado_106959" data-name="Trazado 106959" d="M84.208,334.97a13.2,13.2,0,0,0,.9-2.459,7.3,7.3,0,0,0-1.284-5.939h.362l-.081.09a5.975,5.975,0,0,0-1.419,3.092,5.8,5.8,0,0,0,.325,2.775,12.564,12.564,0,0,0,1.184,2.4,4.963,4.963,0,0,1-1.51-2.206,5.993,5.993,0,0,1-.443-2.974,6.174,6.174,0,0,1,1.519-3.363l.108-.136.19-.217.181.235a7.141,7.141,0,0,1,1.392,3.354,7.412,7.412,0,0,1-.163,2.956,6.246,6.246,0,0,1-.8,1.853C84.407,334.807,84.226,334.988,84.208,334.97Z" transform="translate(-25.606 -181.199)" fill="#fafafa"/>
        <path id="Trazado_106960" data-name="Trazado 106960" d="M136.376,297.94a11.852,11.852,0,0,0,2.188-1.464,7.232,7.232,0,0,0,2.4-5.541l.289.217h-.1a6.084,6.084,0,0,0-2.983,1.681,5.975,5.975,0,0,0-1.356,2.468,14.464,14.464,0,0,0-.443,2.639,5.189,5.189,0,0,1,.108-2.712,6.011,6.011,0,0,1,1.374-2.712,6.165,6.165,0,0,1,3.191-1.853h.118l.28-.063v.289a7.141,7.141,0,0,1-.8,3.553,7.232,7.232,0,0,1-1.853,2.305,5.957,5.957,0,0,1-1.708,1.021,1.735,1.735,0,0,1-.705.172Z" transform="translate(-30.796 -177.796)" fill="#fafafa"/>
        <path id="Trazado_106961" data-name="Trazado 106961" d="M219.762,294.108A12.2,12.2,0,0,0,221,291.785a7.3,7.3,0,0,0-.524-6.056l.353.063-.081.072a5.912,5.912,0,0,0-1.808,2.884,5.731,5.731,0,0,0,0,2.82,13.135,13.135,0,0,0,.859,2.54,5.062,5.062,0,0,1-1.193-2.459,5.767,5.767,0,0,1-.063-3.01,6.138,6.138,0,0,1,1.934-3.146l.09-.072.208-.181.154.235a7.232,7.232,0,0,1,.967,3.516,7.457,7.457,0,0,1-.533,2.911,6.146,6.146,0,0,1-1.031,1.7C219.988,293.963,219.78,294.126,219.762,294.108Z" transform="translate(-38.684 -177.281)" fill="#fafafa"/>
        <path id="Trazado_106962" data-name="Trazado 106962" d="M183.7,356.3a12.654,12.654,0,0,0,1.229-2.323,7.232,7.232,0,0,0-.524-6.056l.362.063-.081.063a5.794,5.794,0,0,0-1.853,5.722,13.949,13.949,0,0,0,.9,2.531,5.152,5.152,0,0,1-1.2-2.459,6.065,6.065,0,0,1-.063-3.01,6.237,6.237,0,0,1,1.934-3.137l.09-.081.217-.19.145.253a7.105,7.105,0,0,1,.9,3.507,7.43,7.43,0,0,1-.533,2.911,6.111,6.111,0,0,1-1.03,1.708C183.928,356.152,183.721,356.315,183.7,356.3Z" transform="translate(-35.221 -183.253)" fill="#fafafa"/>
        <path id="Trazado_106963" data-name="Trazado 106963" d="M75.987,439.166a11.651,11.651,0,0,0-1.121-2.377,7.286,7.286,0,0,0-5.152-3.173l.262-.253v.108a5.821,5.821,0,0,0,3.435,4.89,14.084,14.084,0,0,0,2.54.814,4.972,4.972,0,0,1-2.712-.506,5.83,5.83,0,0,1-2.386-1.736,6.138,6.138,0,0,1-1.383-3.426v-.4h.289a6.9,6.9,0,0,1,3.39,1.311,7.294,7.294,0,0,1,1.989,2.206,6.381,6.381,0,0,1,.768,1.853A1.673,1.673,0,0,1,75.987,439.166Z" transform="translate(-24.382 -191.484)" fill="#fafafa"/>
        <path id="Trazado_106964" data-name="Trazado 106964" d="M202.82,350.889c0-.081,1.419-.759,3.616-2.124a12.655,12.655,0,0,0,3.3-3.01,7.033,7.033,0,0,0,1.464-5.044c-.235-.19.325.244.262.2h-.343a.714.714,0,0,0-.353.063c-.118.054-.461.1-.687.163a9.349,9.349,0,0,0-1.311.452,9.754,9.754,0,0,0-2.242,1.356,9.573,9.573,0,0,0-2.712,3.516,12.889,12.889,0,0,0-.9,4.032,3.218,3.218,0,0,1-.063-1.139,9.112,9.112,0,0,1,.678-3.019,9.546,9.546,0,0,1,5.044-5.171,8.278,8.278,0,0,1,1.374-.488l.723-.181.371-.063h.371l.271.208a7.43,7.43,0,0,1-1.591,5.424,12.266,12.266,0,0,1-3.489,3.019,27.893,27.893,0,0,1-2.712,1.419,5.507,5.507,0,0,1-1.067.389Z" transform="translate(-37.19 -182.582)" fill="#fafafa"/>
        <path id="Trazado_106965" data-name="Trazado 106965" d="M152.66,437.948c0-.081,1.428-.759,3.616-2.133a12.3,12.3,0,0,0,3.3-3,7.024,7.024,0,0,0,1.473-5.053l.262.2h-.353l-.353.063a3.237,3.237,0,0,0-.7.163,8.584,8.584,0,0,0-1.3.461,9.464,9.464,0,0,0-4.927,4.872,12.837,12.837,0,0,0-.9,4.023,3.389,3.389,0,0,1-.072-1.13,9.537,9.537,0,0,1,3.4-6.753,9.864,9.864,0,0,1,2.332-1.446,9.194,9.194,0,0,1,1.374-.488,6.477,6.477,0,0,1,.723-.172,2.574,2.574,0,0,1,.371-.063h.38c-.054-.045.5.4.253.217a7.394,7.394,0,0,1-1.591,5.424,12.276,12.276,0,0,1-3.462,3.01,26.872,26.872,0,0,1-2.775,1.437A5.235,5.235,0,0,1,152.66,437.948Z" transform="translate(-32.372 -190.944)" fill="#fafafa"/>
        <path id="Trazado_106966" data-name="Trazado 106966" d="M99.91,331.352c0-.081,1.428-.75,3.616-2.124a12.592,12.592,0,0,0,3.3-3,7.123,7.123,0,0,0,1.473-5.053c-.235-.181.325.244.262.208h-.353a.777.777,0,0,0-.353.054c-.108.054-.461.1-.7.163a9.265,9.265,0,0,0-3.543,1.808,9.383,9.383,0,0,0-2.712,3.507,12.656,12.656,0,0,0-.9,4.032,3.39,3.39,0,0,1-.072-1.13,9.365,9.365,0,0,1,3.4-6.725,9.248,9.248,0,0,1,2.332-1.446,8.741,8.741,0,0,1,1.365-.488c.244-.063.479-.127.732-.172l.371-.063h.371l.262.2a7.376,7.376,0,0,1-1.591,5.424,12.113,12.113,0,0,1-3.471,3.028,25.072,25.072,0,0,1-2.8,1.365A4.592,4.592,0,0,1,99.91,331.352Z" transform="translate(-27.305 -180.708)" fill="#fafafa"/>
        <path id="Trazado_106967" data-name="Trazado 106967" d="M132.726,199.216c-1.329-10.178-10.766-21.27-30.662-16.651l-19.552,6.328a5.993,5.993,0,0,0-4.945,6.418L84.8,272.2a18.16,18.16,0,0,0,18.079,16.443h0a18.151,18.151,0,0,0,18.169-18.106v-.814c-.416-9.247-.732-16.642-.723-16.642s12.881-3.037,14.463-20.2C135.547,224.319,134.2,210.479,132.726,199.216Z" transform="translate(-25.157 -167.315)" fill="#ffbe9d"/>
        <path id="Trazado_106968" data-name="Trazado 106968" d="M132.54,213.8a2.178,2.178,0,0,1-1.953,2.341,2.079,2.079,0,0,1-2.368-1.808.172.172,0,0,1,0-.072,2.178,2.178,0,0,1,1.943-2.341,2.088,2.088,0,0,1,2.377,1.88Z" transform="translate(-30.024 -170.236)" fill="#344154"/>
        <path id="Trazado_106969" data-name="Trazado 106969" d="M135.314,210.566c-.253.3-1.98-.814-4.33-.642s-3.986,1.446-4.258,1.184c-.136-.127.108-.66.814-1.256a6.011,6.011,0,0,1,3.39-1.293,5.722,5.722,0,0,1,3.471.9C135.151,209.933,135.431,210.475,135.314,210.566Z" transform="translate(-29.878 -169.914)" fill="#344154"/>
        <path id="Trazado_106970" data-name="Trazado 106970" d="M107.709,215.128a2.179,2.179,0,0,1-1.962,2.341,2.088,2.088,0,0,1-2.368-1.808s0-.045,0-.072a2.179,2.179,0,0,1,1.953-2.341A2.088,2.088,0,0,1,107.709,215a.28.28,0,0,0,0,.127Z" transform="translate(-27.638 -170.363)" fill="#344154"/>
        <path id="Trazado_106971" data-name="Trazado 106971" d="M109.6,211.956c-.253.307-1.989-.8-4.33-.642s-3.977,1.446-4.249,1.184.1-.651.814-1.247a5.957,5.957,0,0,1,3.381-1.3,5.894,5.894,0,0,1,3.48.9C109.445,211.332,109.716,211.8,109.6,211.956Z" transform="translate(-27.404 -170.048)" fill="#344154"/>
        <path id="Trazado_106972" data-name="Trazado 106972" d="M120.744,228.045a14.8,14.8,0,0,1,3.76-.9c.588-.1,1.148-.253,1.22-.678a3.082,3.082,0,0,0-.515-1.745l-2.07-4.447c-2.9-6.328-5.044-11.534-4.782-11.661s2.775,4.926,5.7,11.254q1.049,2.35,2.007,4.52a3.462,3.462,0,0,1,.461,2.332,1.464,1.464,0,0,1-.9.9,3.9,3.9,0,0,1-1.012.217,18.214,18.214,0,0,1-3.869.208Z" transform="translate(-29.075 -169.92)" fill="#344154"/>
        <path id="Trazado_106973" data-name="Trazado 106973" d="M122.424,260.19a43.389,43.389,0,0,1-23.114-4.52s6.545,11.6,23.439,8.877Z" transform="translate(-27.248 -174.44)" fill="#eb996e"/>
        <path id="Trazado_106974" data-name="Trazado 106974" d="M119.614,236.275a4.24,4.24,0,0,0-3.932-1.284,3.914,3.914,0,0,0-2.567,1.609,2.468,2.468,0,0,0,0,2.775,2.838,2.838,0,0,0,3.128.579,8.859,8.859,0,0,0,2.893-1.943,2.711,2.711,0,0,0,.624-.741.8.8,0,0,0-.063-.9" transform="translate(-28.533 -172.446)" fill="#eb996e"/>
        <path id="Trazado_106975" data-name="Trazado 106975" d="M113.487,232.4c.38,0,.551,2.495,2.856,4.158s4.981,1.2,5.026,1.555c0,.154-.569.533-1.708.633a6.328,6.328,0,0,1-4.194-1.148,5.514,5.514,0,0,1-2.233-3.5C113.071,233.042,113.307,232.4,113.487,232.4Z" transform="translate(-28.58 -172.205)" fill="#344154"/>
        <path id="Trazado_106976" data-name="Trazado 106976" d="M109.411,204.848c-.181.651-2.54.506-5.27,1.031s-4.908,1.41-5.306.9c-.181-.262.154-.9,1.012-1.564a9.329,9.329,0,0,1,8.063-1.446C108.923,204.034,109.511,204.5,109.411,204.848Z" transform="translate(-27.198 -169.421)" fill="#344154"/>
        <path id="Trazado_106977" data-name="Trazado 106977" d="M134.148,204.488c-.38.551-2.025.108-3.977.208s-3.562.606-3.977.072c-.181-.253,0-.814.723-1.365a5.514,5.514,0,0,1,3.173-1.094,5.6,5.6,0,0,1,3.236.859C134.057,203.674,134.329,204.208,134.148,204.488Z" transform="translate(-29.824 -169.314)" fill="#344154"/>
        <path id="Trazado_106978" data-name="Trazado 106978" d="M99.72,183.222c3.191,5.125,11.968,4.366,17.979,4.8,1.446.118,2.9.054,4.321.271a6.427,6.427,0,0,1,3.842,1.853c1.311,1.4,1.492,3.381,2.233,5.1a9.518,9.518,0,0,0,8.244,5.695c1,0,2.169-.19,2.621-1.085a3.118,3.118,0,0,0,.063-1.989c-.859-4.447-1.808-8.985-4.131-12.872a20.538,20.538,0,0,0-12.022-9.166c-4.945-1.356-16.967-.642-21.523,1.808" transform="translate(-27.287 -166.706)" fill="#344154"/>
        <path id="Trazado_106979" data-name="Trazado 106979" d="M93.868,176.674c6.065,7.4,5.821,19.263-.551,26.422-3.616,4.077-9.247,7.521-9.166,12.945.118,6.038,7.5,9.871,8.072,15.891.606,6.183-6.165,10.8-6.988,16.967-.66,4.954,2.712,9.555,6.409,12.945s8.063,6.237,10.513,10.6c2.712,4.809,2.621,10.847.9,16.063s-4.836,9.943-8.136,14.328a63.16,63.16,0,0,0-15.72-1.962c.145-2.016.28-4.032.425-6.047.334,2.287-1.41,4.52-3.543,5.424a14.74,14.74,0,0,1-6.861.732,112.208,112.208,0,0,1-21.062-3.336c2.585-3.128,5.2-6.328,6.635-10.1s1.473-8.325-.9-11.616c-1.9-2.64-5.1-4.149-6.888-6.87-2.658-4.077-1.311-9.717,1.564-13.659s7.006-6.743,10.549-10.088,6.689-7.729,6.536-12.6c-.19-6.328-5.821-11.58-5.785-17.907,0-7.232,7.177-12.285,9.528-19.1,1.69-4.936.9-10.052,3.86-14.373a13.134,13.134,0,0,1,9.943-5.776c3.851-.163,7.232-.588,10.7,1.112" transform="translate(-22.087 -166.729)" fill="#344154"/>
        <path id="Trazado_106980" data-name="Trazado 106980" d="M99.059,186.51a2.992,2.992,0,0,1,0,.569,10.846,10.846,0,0,1-.226,1.618,19.444,19.444,0,0,1-1.98,5.677,21.6,21.6,0,0,1-5.65,6.9,19.543,19.543,0,0,1-4.52,2.775A34.194,34.194,0,0,1,81.26,205.8a19.417,19.417,0,0,0-5.143,1.943,8.2,8.2,0,0,0-3.308,3.8c-1.338,3.019-1.537,6.12-2.585,8.488a11.4,11.4,0,0,1-1.808,2.947,6.852,6.852,0,0,1-2.034,1.636,4.646,4.646,0,0,1-1.582.479,2.007,2.007,0,0,1-.569,0,6.228,6.228,0,0,0,2.061-.651,6.8,6.8,0,0,0,1.907-1.645,11.39,11.39,0,0,0,1.69-2.9c.976-2.314,1.13-5.424,2.486-8.551A8.759,8.759,0,0,1,75.81,207.4a19.381,19.381,0,0,1,5.388-2.007,35.251,35.251,0,0,0,5.333-1.727,20.338,20.338,0,0,0,4.42-2.712,22.092,22.092,0,0,0,5.613-6.716,20.628,20.628,0,0,0,2.106-5.55C98.932,187.3,99,186.51,99.059,186.51Z" transform="translate(-23.878 -167.797)" fill="#5e6178"/>
        <path id="Trazado_106981" data-name="Trazado 106981" d="M150.08,204.661a4.673,4.673,0,0,0-.732-.732,4.2,4.2,0,0,0-2.712-.678c-.588,0-1.256.1-1.98.154a16.481,16.481,0,0,1-2.314,0,15.611,15.611,0,0,1-12.267-7.656,14.878,14.878,0,0,1-1.2-2.649,3.435,3.435,0,0,1-.253-1.04,33.536,33.536,0,0,0,1.754,3.516,15.964,15.964,0,0,0,7.006,6.093,16.271,16.271,0,0,0,5,1.293,15.6,15.6,0,0,0,2.251.054c.714,0,1.392-.1,2.007-.1a4.249,4.249,0,0,1,2.775.9,2.133,2.133,0,0,1,.515.624A.264.264,0,0,1,150.08,204.661Z" transform="translate(-30.063 -168.33)" fill="#5e6178"/>
        <path id="Trazado_106982" data-name="Trazado 106982" d="M144.591,189.957a2.711,2.711,0,0,1-.542,0,10.621,10.621,0,0,1-1.519-.235,11.2,11.2,0,0,1-4.981-2.712,11.751,11.751,0,0,1-2.368-3.146c-.66-1.257-1.2-2.712-1.808-4.077a11.751,11.751,0,0,0-2.775-3.941,11.182,11.182,0,0,0-4.52-2.377,17.654,17.654,0,0,0-9.943.669,64.129,64.129,0,0,0-7.665,3.254,56.319,56.319,0,0,1-5.18,2.278c-.624.235-1.121.389-1.455.5a2.114,2.114,0,0,1-.524.127,1.988,1.988,0,0,1,.488-.226l1.428-.569c1.22-.515,2.956-1.329,5.089-2.414a57.628,57.628,0,0,1,7.675-3.408,17.672,17.672,0,0,1,10.215-.714,11.634,11.634,0,0,1,4.764,2.477,12.267,12.267,0,0,1,2.847,4.113c.66,1.446,1.193,2.838,1.808,4.077a11.272,11.272,0,0,0,7.033,5.867A15.973,15.973,0,0,0,144.591,189.957Z" transform="translate(-27.44 -166.454)" fill="#5e6178"/>
        <path id="Trazado_106983" data-name="Trazado 106983" d="M76.42,187.013a3.7,3.7,0,0,1,.226-.994,11.751,11.751,0,0,1,1.229-2.531,12.276,12.276,0,0,1,16.461-4.158,11.137,11.137,0,0,1,2.287,1.645,3.752,3.752,0,0,1,.687.777,20.211,20.211,0,0,0-3.128-2.115,12.33,12.33,0,0,0-16.027,4.041,20.5,20.5,0,0,0-1.736,3.336Z" transform="translate(-25.049 -166.954)" fill="#5e6178"/>
        <path id="Trazado_106984" data-name="Trazado 106984" d="M62.364,301.4a4.945,4.945,0,0,0,1.121-.19,6.987,6.987,0,0,0,2.875-1.392,9.69,9.69,0,0,0,2.974-4.077,10.287,10.287,0,0,0,.705-3.119,13.315,13.315,0,0,0-.244-3.543,24.515,24.515,0,0,0-3.245-7.521c-1.546-2.531-3.48-5.062-5.162-7.982a24.676,24.676,0,0,1-2.133-4.728,17.664,17.664,0,0,1-.8-5.351,19.57,19.57,0,0,1,3.336-10.757,18.45,18.45,0,0,1,3.923-4.249,31.746,31.746,0,0,1,4.809-2.847,24.615,24.615,0,0,0,4.52-2.766,9.853,9.853,0,0,0,2.884-4.068,18.522,18.522,0,0,0,.542-9.238c-.452-2.938-1.121-5.641-1.374-8.181a20.791,20.791,0,0,1,.334-6.852,14.282,14.282,0,0,1,1.808-4.818,6.653,6.653,0,0,1,2.35-2.3,3.479,3.479,0,0,1,.777-.334.814.814,0,0,1,.289-.081,5.425,5.425,0,0,0-1.021.5,6.87,6.87,0,0,0-2.242,2.287,14.725,14.725,0,0,0-1.808,4.764,21.5,21.5,0,0,0-.253,6.762c.271,2.5.9,5.2,1.437,8.136a19.028,19.028,0,0,1-.515,9.528,10.3,10.3,0,0,1-3.019,4.23,25.085,25.085,0,0,1-4.529,2.875,28.465,28.465,0,0,0-4.719,2.847,17.9,17.9,0,0,0-3.76,4.113,19.173,19.173,0,0,0-3.272,10.486,17.32,17.32,0,0,0,.768,5.216,23.575,23.575,0,0,0,2.088,4.619c1.645,2.893,3.571,5.424,5.107,8.009a24.47,24.47,0,0,1,3.245,7.647,14.047,14.047,0,0,1,.235,3.616,10.666,10.666,0,0,1-.768,3.164A9.853,9.853,0,0,1,66.5,299.99a6.843,6.843,0,0,1-3.037,1.365,4.365,4.365,0,0,1-1.1.045Z" transform="translate(-23.323 -169.766)" fill="#5e6178"/>
        <path id="Trazado_106985" data-name="Trazado 106985" d="M144.518,273.284a6.572,6.572,0,0,0,1.564-2.441,11.471,11.471,0,0,0-.633-7.774c-.588-1.582-1.392-3.272-1.98-5.207a13.73,13.73,0,0,1-.569-3.082v-1.654a11.062,11.062,0,0,1,.289-1.663,20.574,20.574,0,0,1,3.092-6.382c1.374-2.043,2.956-4.023,4.429-6.147a20.311,20.311,0,0,0,3.272-6.671,10.242,10.242,0,0,0-.732-6.734,24.632,24.632,0,0,0-3.516-5.243c-1.256-1.537-2.513-2.929-3.471-4.348a18.16,18.16,0,0,1-2.179-4.068,10.3,10.3,0,0,1-.669-3.417,7.475,7.475,0,0,1,.3-2.188,3.914,3.914,0,0,1,.271-.705,9.427,9.427,0,0,0-.38,2.893,10.558,10.558,0,0,0,.732,3.327,18.749,18.749,0,0,0,2.206,3.968,54.374,54.374,0,0,0,3.5,4.285,24.578,24.578,0,0,1,3.616,5.306,10.648,10.648,0,0,1,.777,7.024,20.465,20.465,0,0,1-3.336,6.852c-1.473,2.133-3.064,4.113-4.42,6.129a20.04,20.04,0,0,0-3.055,6.219c-.1.551-.235,1.076-.289,1.609s0,1.067-.063,1.582a13,13,0,0,0,.542,3c.56,1.889,1.338,3.616,1.916,5.207a11.516,11.516,0,0,1,.488,7.946,5.505,5.505,0,0,1-1.166,1.808,4.234,4.234,0,0,1-.416.389.841.841,0,0,1-.117.181Z" transform="translate(-31.435 -169.627)" fill="#5e6178"/>
        <path id="Trazado_106986" data-name="Trazado 106986" d="M39.418,291.4a2.711,2.711,0,0,1-.362-.759,5.152,5.152,0,0,1-.136-2.432,8.922,8.922,0,0,1,1.492-3.543c.814-1.257,1.953-2.531,2.911-4.131a11.9,11.9,0,0,0,1.5-5.794,53.226,53.226,0,0,0-.524-6.988,20.881,20.881,0,0,1,.316-7.819,16.488,16.488,0,0,1,4.393-7.141,65.394,65.394,0,0,1,6.328-5.424,56.406,56.406,0,0,0,5.839-5.153c3.471-3.516,6-7.295,7.1-10.847a21.693,21.693,0,0,0,.9-4.926,25.482,25.482,0,0,0-.072-3.806c-.054-.515-.1-.967-.154-1.374s-.108-.732-.154-1.012l-.09-.624a.9.9,0,0,1,0-.217.8.8,0,0,1,.063.208l.136.615c.054.28.136.615.208,1s.127.9.19,1.383a24.8,24.8,0,0,1,.163,3.842,21.857,21.857,0,0,1-.9,5.008,28.454,28.454,0,0,1-7.105,11.1,55.8,55.8,0,0,1-5.821,5.207,70.008,70.008,0,0,0-6.382,5.424,16.181,16.181,0,0,0-4.294,6.933,20.538,20.538,0,0,0-.325,7.647,54.175,54.175,0,0,1,.488,7.06,12.33,12.33,0,0,1-1.573,5.939c-1,1.627-2.169,2.875-2.992,4.113a9.365,9.365,0,0,0-1.528,3.426,5.243,5.243,0,0,0,.054,2.368A3.652,3.652,0,0,1,39.418,291.4Z" transform="translate(-21.439 -170.957)" fill="#5e6178"/>
        <path id="Trazado_106987" data-name="Trazado 106987" d="M90.9,305.489a22.509,22.509,0,0,0,2.179-3.616,18.523,18.523,0,0,0,1.428-4.692,17.663,17.663,0,0,0-3.354-13.641,75.933,75.933,0,0,0-5.993-6.861,28.455,28.455,0,0,1-5.749-8.325,13.315,13.315,0,0,1-1.094-5.288,11.272,11.272,0,0,1,1.464-5.36c1.808-3.3,4.619-5.776,6.472-8.7a12.881,12.881,0,0,0,1.98-4.619,15.023,15.023,0,0,0,.054-4.845,32.307,32.307,0,0,0-2.775-8.6,75.75,75.75,0,0,1-3.1-7.4c-1.636-4.619-1.175-8.895,0-11.372a8.841,8.841,0,0,1,1.69-2.6,6.274,6.274,0,0,1,.814-.741s-.262.271-.732.8a8.831,8.831,0,0,0-1.636,2.658,15.688,15.688,0,0,0,.172,11.191,78.907,78.907,0,0,0,3.137,7.3,32.126,32.126,0,0,1,2.893,8.705,14.97,14.97,0,0,1-.054,5,13.134,13.134,0,0,1-2.034,4.8c-1.925,2.974-4.673,5.424-6.472,8.66a10.956,10.956,0,0,0-1.419,5.143,13.36,13.36,0,0,0,1.067,5.107,28.321,28.321,0,0,0,5.641,8.217,75.3,75.3,0,0,1,5.993,6.924,17.934,17.934,0,0,1,1.745,18.621,16.272,16.272,0,0,1-1.636,2.712l-.515.642Z" transform="translate(-25.232 -169.941)" fill="#5e6178"/>
        <path id="Trazado_106988" data-name="Trazado 106988" d="M87.9,373.574,103.746,335.4l53.179,24.352L127.24,428.624,73.22,408.981Z" transform="translate(-24.742 -182.099)" fill="#d9a171"/>
        <g id="Grupo_57844" data-name="Grupo 57844" transform="translate(48.478 153.301)" opacity="0.3">
          <path id="Trazado_106989" data-name="Trazado 106989" d="M87.9,373.574,103.746,335.4l53.179,24.352L127.24,428.624,73.22,408.981Z" transform="translate(-73.22 -335.4)" fill="#344154"/>
        </g>
        <path id="Trazado_106990" data-name="Trazado 106990" d="M162.666,362.34,132.98,431.212l10.676,3.8,29.27-67.733Z" transform="translate(-30.482 -184.686)" fill="#d9a171"/>
        <g id="Grupo_57845" data-name="Grupo 57845" transform="translate(102.498 177.654)" opacity="0.5">
          <path id="Trazado_106991" data-name="Trazado 106991" d="M162.666,362.34,132.98,431.212l10.676,3.8,29.27-67.733Z" transform="translate(-132.98 -362.34)" fill="#344154"/>
        </g>
        <path id="Trazado_106992" data-name="Trazado 106992" d="M115.49,337.775l3.634-7.295,49.654,24.1-2.531,6.49Z" transform="translate(-28.802 -181.626)" fill="#e0e0e0"/>
        <path id="Trazado_106993" data-name="Trazado 106993" d="M109.32,336.119l1.437-3.3L167.417,359.5l-1.031,2.884Z" transform="translate(-28.209 -181.851)" fill="#fafafa"/>
        <path id="Trazado_106994" data-name="Trazado 106994" d="M165.138,377.47c.118.054-4.158,10.54-9.573,23.43s-9.889,23.295-10.016,23.24,4.167-10.54,9.573-23.43S165.021,377.416,165.138,377.47Z" transform="translate(-31.689 -186.14)" fill="#fff" stroke="#5e6178" stroke-miterlimit="10" stroke-width="0"/>
        <path id="Trazado_106995" data-name="Trazado 106995" d="M111.992,352.58l.154.072.5.208,1.953.859,7.4,3.29,25.97,11.688.19.1-.081.2c-3.128,7.15-6.572,15.033-10.169,23.322l-.09.208-.226-.09h-.063l-35.417-15.069-.172-.072.072-.181c3.028-7.467,5.55-13.559,7.232-17.907.9-2.1,1.546-3.742,2.016-4.9l.524-1.266a2.2,2.2,0,0,1,.2-.416s-.054.163-.172.47-.289.759-.506,1.311c-.452,1.175-1.1,2.847-1.934,4.981l-7.042,17.871-.1-.253,35.444,15h.072l-.316.127c3.616-8.271,7.087-16.154,10.224-23.3l.108.289L122.035,357.29l-7.385-3.426-1.971-.9-.515-.244Z" transform="translate(-27.5 -183.749)" fill="#fff" stroke="#5e6178" stroke-miterlimit="10" stroke-width="0"/>
        <path id="Trazado_106996" data-name="Trazado 106996" d="M139.058,385.507a3.616,3.616,0,0,1-.334-.732l-.814-2.142c-.714-1.925-1.672-4.52-2.829-7.7l.262.136-9.943,3.254-.181.054-.1-.163-.85-1.338-3.046-5.071.289.108-11.679,4.52-3.417,1.266a7.548,7.548,0,0,1-1.256.407,7.139,7.139,0,0,1,1.193-.551l3.363-1.4,11.616-4.619.19-.072.1.163,3.11,5.017c.28.479.579.9.85,1.374l-.28-.1,9.943-3.191.19-.063.063.19,2.667,7.756c.3.9.524,1.618.714,2.188a5.046,5.046,0,0,1,.181.714Z" transform="translate(-27.81 -185.562)" fill="#fff" stroke="#5e6178" stroke-miterlimit="10" stroke-width="0"/>
        <path id="Trazado_106997" data-name="Trazado 106997" d="M131.463,370.014s-.054-.181-.154-.47a2.151,2.151,0,0,0-.741-1,1.853,1.853,0,0,0-1.736-.208,1.808,1.808,0,0,0,0,3.363,1.88,1.88,0,0,0,1.736-.217,2.052,2.052,0,0,0,.741-1c.1-.289.108-.461.154-.461s.072.172,0,.506a2.061,2.061,0,0,1-.723,1.22,2.16,2.16,0,0,1-2.079.371,2.215,2.215,0,0,1-1.374-2.82,2.188,2.188,0,0,1,1.374-1.374,2.133,2.133,0,0,1,2.079.362,2.061,2.061,0,0,1,.723,1.22.768.768,0,0,1,0,.515Z" transform="translate(-29.923 -185.21)" fill="#fff" stroke="#5e6178" stroke-miterlimit="10" stroke-width="0"/>
        <path id="Trazado_106998" data-name="Trazado 106998" d="M158.965,359.632s-3.616-7.042-10.169-4.664c-2.567.9-8.325,18.3-8.325,18.3l3.7-1.175,2.314,3.86s7.394-18.214,8.533-18.079Z" transform="translate(-31.201 -183.931)" fill="#d9a171"/>
        <path id="Trazado_106999" data-name="Trazado 106999" d="M136.872,400.911a10.846,10.846,0,0,1-1.555-.524l-4.194-1.573c-3.534-1.338-8.407-3.236-13.767-5.351s-10.169-4.05-13.722-5.487L99.5,386.267a9.607,9.607,0,0,1-1.482-.687,11.753,11.753,0,0,1,1.564.524l4.194,1.564c3.534,1.356,8.4,3.236,13.767,5.36s10.178,4.05,13.7,5.469l4.14,1.708a10.623,10.623,0,0,1,1.482.705Z" transform="translate(-27.124 -186.919)" fill="#fff" stroke="#5e6178" stroke-miterlimit="10" stroke-width="0"/>
        <path id="Trazado_107000" data-name="Trazado 107000" d="M134.481,404.2a9.6,9.6,0,0,1-1.564-.515l-4.194-1.573c-3.534-1.347-8.407-3.236-13.767-5.351s-10.178-4.059-13.722-5.478L97.1,389.608a10.4,10.4,0,0,1-1.482-.678,9.6,9.6,0,0,1,1.564.515l4.194,1.573c3.534,1.338,8.4,3.227,13.767,5.342s10.169,4.05,13.7,5.487l4.131,1.708A12.909,12.909,0,0,1,134.481,404.2Z" transform="translate(-26.893 -187.241)" fill="#fff" stroke="#5e6178" stroke-miterlimit="10" stroke-width="0"/>
        <path id="Trazado_107001" data-name="Trazado 107001" d="M133.171,408.58a8.771,8.771,0,0,1-1.564-.506l-4.194-1.573c-3.534-1.347-8.407-3.236-13.767-5.351s-10.224-4.059-13.722-5.487l-4.14-1.736a9.943,9.943,0,0,1-1.473-.687,9.623,9.623,0,0,1,1.564.524l4.194,1.573c3.534,1.338,8.4,3.227,13.767,5.342s10.169,4.05,13.7,5.478l4.131,1.717a13.146,13.146,0,0,1,1.5.705Z" transform="translate(-26.768 -187.655)" fill="#fff" stroke="#5e6178" stroke-miterlimit="10" stroke-width="0"/>
        <path id="Trazado_107002" data-name="Trazado 107002" d="M109.168,398.2l8,4.014s6.328-3.1,9.537-3.562,16.822,1.293,16.822,1.293a3.426,3.426,0,0,1-2.368,3.7c-1.22.371-7.946-.045-7.946-.045h0a3.39,3.39,0,0,0-.343,4.773,3.453,3.453,0,0,0,1.275.9c3.417,1.41,7.394,3.091,7.855,3.39s5.424-.569,9.085-1.3c2.2-.443,3.778,2.359,2.079,3.815a1.085,1.085,0,0,1-.56.271s3.281,1.971-2.386,4.438c0,0-1.916,4.42-5.424,4.728,0,0-4.14,4.158-6.734,4.845s-19.417-5.74-19.417-5.74L102.28,415.23Z" transform="translate(-27.533 -188.131)" fill="#ffbe9d"/>
        <path id="Trazado_107003" data-name="Trazado 107003" d="M137.515,429.5c-3.7,0-18.784-5.731-18.983-5.794L102.18,415.19h0l6.96-17.03h0l7.982,4.013c.3-.136,6.472-3.11,9.537-3.562a10.354,10.354,0,0,1,1.5-.081c4.619,0,15.213,1.365,15.367,1.374h0a3.48,3.48,0,0,1-2.386,3.7c-1.193.371-7.656,0-7.946-.045a3.363,3.363,0,0,0,.9,5.641c3.336,1.383,7.4,3.091,7.864,3.4s3.616-.208,9.039-1.311a2.867,2.867,0,0,1,.479-.045,2.4,2.4,0,0,1,2.106,1.365,2.043,2.043,0,0,1-.488,2.531,1.1,1.1,0,0,1-.524.28,1.961,1.961,0,0,1,.9,1.546c-.072.985-1.193,1.962-3.345,2.893a11.153,11.153,0,0,1-1.4,2.251,6.138,6.138,0,0,1-4.068,2.477c-.181.181-4.221,4.176-6.734,4.845A2,2,0,0,1,137.515,429.5ZM102.261,415.19l16.343,8.479c.154.054,15.213,5.785,18.92,5.785a2.241,2.241,0,0,0,.488-.054c2.549-.669,6.68-4.8,6.725-4.836h0a6.12,6.12,0,0,0,4.041-2.468,10.847,10.847,0,0,0,1.4-2.242h0c2.142-.9,3.254-1.9,3.317-2.856a1.925,1.925,0,0,0-.9-1.546h0a1.2,1.2,0,0,0,.56-.271,2.034,2.034,0,0,0,.47-2.486,2.314,2.314,0,0,0-2.531-1.293,68.921,68.921,0,0,1-8.6,1.383,1.022,1.022,0,0,1-.515-.081c-.371-.235-3.091-1.41-7.855-3.39a3.408,3.408,0,0,1-1.808-4.466,3.363,3.363,0,0,1,.9-1.256h0c.063,0,6.734.425,7.937.045a3.155,3.155,0,0,0,2.188-2.124,3.977,3.977,0,0,0,.172-1.491c-.506-.063-10.766-1.374-15.3-1.374a10.362,10.362,0,0,0-1.5.081c-3.128.461-9.464,3.543-9.537,3.571h0l-7.973-4Z" transform="translate(-27.524 -188.127)" fill="#eb996e"/>
        <path id="Trazado_107004" data-name="Trazado 107004" d="M135.7,416.43a10.9,10.9,0,0,0,2.6,1.808,16.8,16.8,0,0,0,7.232,2.4,15.458,15.458,0,0,0,7.394-1.943,10.422,10.422,0,0,0,2.712-1.663,13.974,13.974,0,0,0-2.92,1.139,17.283,17.283,0,0,1-7.141,1.654,18.811,18.811,0,0,1-7.033-2.1,13.746,13.746,0,0,0-2.847-1.293Z" transform="translate(-30.743 -189.882)" fill="#eb996e"/>
        <path id="Trazado_107005" data-name="Trazado 107005" d="M134.93,421.309c-.072.081.714.9,2.287,1.763a20.837,20.837,0,0,0,2.856,1.3,9.871,9.871,0,0,0,3.851.741,17.356,17.356,0,0,0,3.778-.859l2.938-.976a9.427,9.427,0,0,0,2.649-1.094,10.414,10.414,0,0,0-2.775.542c-.85.208-1.808.479-2.992.8a19.655,19.655,0,0,1-3.616.768,10.15,10.15,0,0,1-3.553-.633,29.359,29.359,0,0,1-2.838-1.121C135.9,421.842,134.993,421.219,134.93,421.309Z" transform="translate(-30.669 -190.35)" fill="#eb996e"/>
        <path id="Trazado_107006" data-name="Trazado 107006" d="M134.5,427c-.136.3,2.866,1.455,6.554,2.6a3.2,3.2,0,0,0,1.6.054,10.859,10.859,0,0,0,1.329-.3,13.114,13.114,0,0,0,2.151-.8c1.166-.57,1.808-1.139,1.708-1.22a9.886,9.886,0,0,0-1.934.7,21.446,21.446,0,0,1-2.106.6,10.075,10.075,0,0,1-1.266.244,2.712,2.712,0,0,1-1.211,0c-1.853-.606-3.616-1.067-4.8-1.392A8.265,8.265,0,0,0,134.5,427Z" transform="translate(-30.628 -190.897)" fill="#eb996e"/>
        <path id="Trazado_107007" data-name="Trazado 107007" d="M53.126,283.81s-9.392,6.011-15.024,22.77c-4.755,14.138-14.707,37.062-17.979,53.333-2.4,11.878,3.227,25.943,18.025,29.957l56.126,16.868,8.56-21.062L52.5,360.094l13.8-31.43Z" transform="translate(-19.59 -177.143)" fill="#d9a171"/>
        <path id="Trazado_107008" data-name="Trazado 107008" d="M34.6,396.05a1.807,1.807,0,0,1,.316.081l.9.244,3.48,1.031,12.872,3.869L95.806,414.59l-.289.136,5.424-13.415c1.058-2.585,2.106-5.143,3.119-7.656l.118.307c-10.513-5.189-20.248-10.269-28.773-14.7s-15.882-8.135-21.532-10.983h0a10.594,10.594,0,0,0-5.613.407,11.932,11.932,0,0,0-3.7,2.07,11.1,11.1,0,0,0-1.157,1,8.267,8.267,0,0,0-.777.814l-.461.515c-.1.108-.163.163-.163.154s0-.063.136-.181l.434-.542a9.393,9.393,0,0,1,.759-.832,9.529,9.529,0,0,1,1.139-.994,11.968,11.968,0,0,1,3.7-2.16,10.848,10.848,0,0,1,5.776-.551h0c5.677,2.775,13.044,6.472,21.6,10.847s18.3,9.419,28.818,14.626l.2.1-.081.208-3.119,7.656-5.424,13.433-.081.2-.208-.063-43.6-13.469-12.827-4.014-3.444-1.1-.9-.289Z" transform="translate(-21.032 -185.212)" fill="#344154"/>
        <path id="Trazado_107009" data-name="Trazado 107009" d="M72.146,314.9a2.026,2.026,0,0,1,.172.5,10.413,10.413,0,0,1,.307,1.473,18.422,18.422,0,0,1,0,5.55,35.733,35.733,0,0,1-2.179,7.937c-1.112,2.884-2.522,5.966-3.959,9.247-2.893,6.472-5.55,12.312-7.449,16.642l-2.305,5.017c-.271.542-.479.994-.66,1.347a2.8,2.8,0,0,1-.244.461,1.609,1.609,0,0,1,.163-.5l.569-1.383c.533-1.266,1.275-2.983,2.169-5.08,1.853-4.321,4.465-10.169,7.313-16.642,1.437-3.254,2.866-6.328,4-9.184a37.17,37.17,0,0,0,2.26-7.855,20.456,20.456,0,0,0,.136-5.424c-.054-.642-.172-1.139-.226-1.473a3.072,3.072,0,0,1-.063-.633Z" transform="translate(-23.071 -180.13)" fill="#344154"/>
        <path id="Trazado_107010" data-name="Trazado 107010" d="M45.925,323.09c.072,0,.208,1.121.542,2.92a53.468,53.468,0,0,0,1.736,6.942,52.656,52.656,0,0,0,2.712,6.59,29.006,29.006,0,0,1,1.275,2.712,7.376,7.376,0,0,1-.479-.642c-.289-.425-.669-1.067-1.1-1.808a40.678,40.678,0,0,1-4.447-13.559c-.118-.9-.19-1.654-.208-2.16A2.2,2.2,0,0,1,45.925,323.09Z" transform="translate(-22.116 -180.916)" fill="#fafafa"/>
        <path id="Trazado_107011" data-name="Trazado 107011" d="M49.718,335.143a28.022,28.022,0,0,0,1.428-2.54,11.408,11.408,0,0,0,.66-6.915l-.054-.226.434.081a13.559,13.559,0,0,0-2.414,6.4c-.181,1.763,0,2.866-.081,2.875a2.26,2.26,0,0,1-.172-.768,10.512,10.512,0,0,1-.081-2.133,13.008,13.008,0,0,1,2.314-6.662l.316-.434.118.524.054.244a10.911,10.911,0,0,1-.832,7.15,9.355,9.355,0,0,1-1.157,1.853A3.638,3.638,0,0,1,49.718,335.143Z" transform="translate(-22.455 -181.083)" fill="#fafafa"/>
        <path id="Trazado_107012" data-name="Trazado 107012" d="M45.824,331.411a2.441,2.441,0,0,1-.814-.289,14.16,14.16,0,0,1-2.043-1.139,16.633,16.633,0,0,1-4.059-3.806,8.6,8.6,0,0,1-.615-.9A1.51,1.51,0,0,1,38.123,324a.9.9,0,0,1,.606-.47,1.138,1.138,0,0,1,.669.09,5.3,5.3,0,0,1,.9.606,17.069,17.069,0,0,1,1.573,1.338,15.829,15.829,0,0,1,2.215,2.712,13,13,0,0,1,1.148,2.007,2.712,2.712,0,0,1,.28.823c-.09,0-.551-1.094-1.681-2.712a16.852,16.852,0,0,0-2.215-2.522,16.162,16.162,0,0,0-1.546-1.284,5.713,5.713,0,0,0-.859-.542c-.307-.136-.569-.072-.669.136a1.094,1.094,0,0,0,.163.85,7.852,7.852,0,0,0,.569.859,17.447,17.447,0,0,0,3.878,3.815C44.739,330.859,45.86,331.338,45.824,331.411Z" transform="translate(-21.364 -180.957)" fill="#fafafa"/>
        <path id="Trazado_107013" data-name="Trazado 107013" d="M47.068,340.521a1.97,1.97,0,0,1-.669.235,8.187,8.187,0,0,1-1.934.163,8.9,8.9,0,0,1-5.876-2.522l-.289-.289.4-.108.624-.172a9.121,9.121,0,0,1,6.716,1.13,7.683,7.683,0,0,1,1.618,1.347c.334.371.479.6.452.615a17.512,17.512,0,0,0-2.251-1.645,9.238,9.238,0,0,0-6.427-.9l-.6.163.1-.4a8.94,8.94,0,0,0,5.577,2.54A18.976,18.976,0,0,0,47.068,340.521Z" transform="translate(-21.388 -182.312)" fill="#fafafa"/>
        <path id="Trazado_107014" data-name="Trazado 107014" d="M53.37,393.274a5.213,5.213,0,0,1,.714-.371c.47-.2,1.166-.488,2.025-.786a40.611,40.611,0,0,1,14.1-2.179,19.278,19.278,0,0,1,2.169.136,3.264,3.264,0,0,1,.786.145,24.829,24.829,0,0,1-2.956.063,53.277,53.277,0,0,0-7.1.588,56.956,56.956,0,0,0-6.933,1.573,24.673,24.673,0,0,1-2.811.832Z" transform="translate(-22.835 -187.336)" fill="#fafafa"/>
        <path id="Trazado_107015" data-name="Trazado 107015" d="M65.993,391.11a2.948,2.948,0,0,1-.253.768,9.474,9.474,0,0,1-1.139,1.808,10.947,10.947,0,0,1-6.011,3.968l-.235.063-.524.127.253-.47a12.891,12.891,0,0,1,4.872-5.1,10.377,10.377,0,0,1,1.943-.9,2.394,2.394,0,0,1,.759-.181c0,.081-1.03.416-2.531,1.374a13.559,13.559,0,0,0-4.619,5.044l-.262-.353.235-.054a11.354,11.354,0,0,0,5.83-3.688A27.112,27.112,0,0,0,65.993,391.11Z" transform="translate(-23.263 -187.45)" fill="#fafafa"/>
        <path id="Trazado_107016" data-name="Trazado 107016" d="M60.814,389.726c-.054.081-.985-.714-2.775-1.6a17.928,17.928,0,0,0-3.082-1.238,16.2,16.2,0,0,0-1.962-.443,7.968,7.968,0,0,0-1.04-.127,1.058,1.058,0,0,0-.823.253c-.145.181-.072.434.181.642a4.223,4.223,0,0,0,.9.515,15.3,15.3,0,0,0,1.808.8,16.534,16.534,0,0,0,3.3.85c1.916.289,3.137.19,3.155.28a3.1,3.1,0,0,1-.9.127,13.382,13.382,0,0,1-2.332-.072,15.63,15.63,0,0,1-3.408-.759,18.62,18.62,0,0,1-1.916-.8,5.487,5.487,0,0,1-.9-.588,1.212,1.212,0,0,1-.389-.56.814.814,0,0,1,.154-.741,1.5,1.5,0,0,1,1.211-.434,6.458,6.458,0,0,1,1.094.136,15.225,15.225,0,0,1,2.016.488,15.919,15.919,0,0,1,3.227,1.329,13.4,13.4,0,0,1,1.953,1.311,2.712,2.712,0,0,1,.533.624Z" transform="translate(-22.569 -186.943)" fill="#fafafa"/>
        <path id="Trazado_107017" data-name="Trazado 107017" d="M69.532,386.784a18.376,18.376,0,0,0-1.067-2.332,8.985,8.985,0,0,0-4.764-3.824l.316-.262a3.1,3.1,0,0,0,.118.606,9.229,9.229,0,0,0,3.76,5.3,18.407,18.407,0,0,0,2.486,1.275,2.16,2.16,0,0,1-.759-.127,7.929,7.929,0,0,1-1.916-.859,9.112,9.112,0,0,1-4.077-5.478,2.911,2.911,0,0,0-.127-.633l-.072-.4.389.127a8.922,8.922,0,0,1,4.9,4.1,7.575,7.575,0,0,1,.723,1.808A1.808,1.808,0,0,1,69.532,386.784Z" transform="translate(-23.801 -186.388)" fill="#fafafa"/>
        <path id="Trazado_107018" data-name="Trazado 107018" d="M64.028,325.992a13.2,13.2,0,0,0,.9-2.459,7.34,7.34,0,0,0-1.3-5.939H64l-.081.09a5.74,5.74,0,0,0-1.1,5.894,14.048,14.048,0,0,0,1.184,2.4,5.044,5.044,0,0,1-1.492-2.269,5.939,5.939,0,0,1-.443-2.965,6.228,6.228,0,0,1,1.51-3.363l.081-.09.19-.217.181.235a7.1,7.1,0,0,1,1.428,3.317,7.412,7.412,0,0,1-.163,2.956,6.247,6.247,0,0,1-.8,1.853C64.227,325.829,64.046,326.046,64.028,325.992Z" transform="translate(-23.667 -180.338)" fill="#fafafa"/>
        <path id="Trazado_107019" data-name="Trazado 107019" d="M86.789,401.115a12.655,12.655,0,0,0,.9-2.459,7.3,7.3,0,0,0-1.3-5.966h.4l-.072.09a5.767,5.767,0,0,0-1.112,5.894,15.521,15.521,0,0,0,1.184,2.377,5,5,0,0,1-1.5-2.287,5.749,5.749,0,0,1-.443-2.965,6.156,6.156,0,0,1,1.51-3.363l.072-.09.2-.217.172.235a7.033,7.033,0,0,1,1.419,3.354,7.232,7.232,0,0,1-.172,2.956,6,6,0,0,1-.786,1.853A3.678,3.678,0,0,1,86.789,401.115Z" transform="translate(-25.855 -187.548)" fill="#fafafa"/>
        <path id="Trazado_107020" data-name="Trazado 107020" d="M31.509,364.892c-.045-.09,1.428-.759,3.616-2.142a12.266,12.266,0,0,0,3.3-2.992A7.123,7.123,0,0,0,39.9,354.7c-.244-.181.325.244.262.208h-.353a.8.8,0,0,0-.353.054l-.7.154a9.856,9.856,0,0,0-1.311.47,9.628,9.628,0,0,0-2.242,1.356,9.41,9.41,0,0,0-2.712,3.516,12.357,12.357,0,0,0-.9,4.032,3.462,3.462,0,0,1-.072-1.139,9.211,9.211,0,0,1,.678-3.028,9.41,9.41,0,0,1,2.712-3.7,9.744,9.744,0,0,1,3.7-1.935c.244-.063.479-.127.732-.172l.371-.063h.38l.262.2a7.412,7.412,0,0,1-1.591,5.424,12.348,12.348,0,0,1-3.462,3,26.806,26.806,0,0,1-2.775,1.428A5.712,5.712,0,0,1,31.509,364.892Z" transform="translate(-20.734 -183.93)" fill="#fafafa"/>
      </g>
      <g id="freepik--Plant--inject-103" transform="translate(301.013 146.088)">
        <path id="Trazado_107021" data-name="Trazado 107021" d="M465.547,368.743a.971.971,0,0,0-.09-.2l-.316-.579c-.289-.515-.741-1.257-1.383-2.169a23.3,23.3,0,0,0-6.825-6.472,16.678,16.678,0,0,0-6.12-2.251,15.033,15.033,0,0,0-7.448.786,11.959,11.959,0,0,0-6.328,5.207c-1.464,2.558-1.934,5.55-2.775,8.416a15.2,15.2,0,0,1-1.808,4.014,12.14,12.14,0,0,1-3.019,2.983c-1.139.841-2.332,1.6-3.408,2.477a14.724,14.724,0,0,0-2.766,2.992,18.5,18.5,0,0,0-2.838,6.933,24.308,24.308,0,0,0-.38,6.472,50.112,50.112,0,0,0,1.663,9.247c.28,1.085.524,1.907.678,2.468a5.43,5.43,0,0,0,.289.841,4.442,4.442,0,0,0-.181-.9c-.145-.606-.344-1.437-.588-2.486a52.428,52.428,0,0,1-1.492-9.247,24.206,24.206,0,0,1,.434-6.409,18.078,18.078,0,0,1,2.766-6.734,14.934,14.934,0,0,1,2.712-2.9c1.058-.85,2.242-1.591,3.408-2.45a12.285,12.285,0,0,0,3.137-3.091,15.2,15.2,0,0,0,1.808-4.158c.9-2.911,1.329-5.867,2.775-8.316a11.634,11.634,0,0,1,6.093-5.026,14.834,14.834,0,0,1,7.232-.8,16.615,16.615,0,0,1,6,2.151,23.791,23.791,0,0,1,6.852,6.246c.651.9,1.13,1.6,1.446,2.088a4.725,4.725,0,0,0,.47.877Z" transform="translate(-359.063 -330.253)" fill="#e0e0e0"/>
        <path id="Trazado_107022" data-name="Trazado 107022" d="M428.9,381.61c.777-.732,1.157-.217,2.224,0a6.6,6.6,0,0,1,2.866,1.428,12.014,12.014,0,0,1,3.914,12.655,9.41,9.41,0,0,1-8.651-14.138" transform="translate(-359.831 -332.589)" fill="#e0e0e0"/>
        <path id="Trazado_107023" data-name="Trazado 107023" d="M464.8,365.207c.4-.994.9-.705,2.007-.985a6.5,6.5,0,0,1,3.2.063,12.013,12.013,0,0,1,8.976,9.745,9.419,9.419,0,0,1-13.867-9.039" transform="translate(-363.368 -330.939)" fill="#e0e0e0"/>
        <path id="Trazado_107024" data-name="Trazado 107024" d="M420.926,403.34a10.847,10.847,0,0,1,17.085.832,13.441,13.441,0,0,1-8.859,3.5,13.785,13.785,0,0,1-8.922-3.616" transform="translate(-359.087 -334.351)" fill="#e0e0e0"/>
        <path id="Trazado_107025" data-name="Trazado 107025" d="M422.8,385.826a11.019,11.019,0,0,1-11.29-10.757,10.674,10.674,0,0,1,.2-2.4A9.88,9.88,0,0,1,423.2,385.717" transform="translate(-358.249 -331.742)" fill="#e0e0e0"/>
        <path id="Trazado_107026" data-name="Trazado 107026" d="M435.031,366.772a11.037,11.037,0,0,1-14.246-6.328,11.273,11.273,0,0,1-.615-2.368,9.862,9.862,0,0,1,15.159,8.479" transform="translate(-359.081 -330.216)" fill="#e0e0e0"/>
        <path id="Trazado_107027" data-name="Trazado 107027" d="M440.806,361.442a11,11,0,0,1,14.228,6.328,10.6,10.6,0,0,1,.633,2.4,9.895,9.895,0,0,1-15.177-8.506" transform="translate(-361.033 -330.617)" fill="#e0e0e0"/>
        <path id="Trazado_107028" data-name="Trazado 107028" d="M445.084,356.391a11,11,0,0,1-6.915-13.921,10.733,10.733,0,0,1,1.058-2.26,9.88,9.88,0,0,1,6.237,16.208" transform="translate(-360.755 -328.649)" fill="#e0e0e0"/>
        <path id="Trazado_107029" data-name="Trazado 107029" d="M458.73,357.17a11.01,11.01,0,0,1,6.6-14.1,10.487,10.487,0,0,1,2.4-.579,9.88,9.88,0,0,1-8.777,15" transform="translate(-362.722 -328.868)" fill="#e0e0e0"/>
        <path id="Trazado_107030" data-name="Trazado 107030" d="M406.048,441.939,399.82,402.87l47.692.579-4.7,37.975" transform="translate(-357.127 -334.667)" fill="#344154"/>
        <path id="Trazado_107031" data-name="Trazado 107031" d="M429.382,394.226a8.135,8.135,0,0,0,7.91.669,8.551,8.551,0,0,0,4.33-6.843,9.157,9.157,0,0,0-12.411,3.67,9.3,9.3,0,0,0-.75,1.808" transform="translate(-359.878 -333.137)" fill="#d9a171"/>
        <path id="Trazado_107032" data-name="Trazado 107032" d="M453.5,403.508a8.135,8.135,0,0,0,7.91.678,8.56,8.56,0,0,0,4.33-6.843,9.184,9.184,0,0,0-13.161,5.469" transform="translate(-362.194 -334.031)" fill="#d9a171"/>
        <path id="Trazado_107033" data-name="Trazado 107033" d="M439.961,383.2a8.135,8.135,0,0,0,6.246,4.917,8.578,8.578,0,0,0,7.394-3.336,9.157,9.157,0,0,0-12.4-3.76,9.7,9.7,0,0,0-1.609,1.094" transform="translate(-360.947 -332.465)" fill="#d9a171"/>
        <path id="Trazado_107034" data-name="Trazado 107034" d="M447.985,394.269a8.136,8.136,0,0,0-7.123,3.516,8.6,8.6,0,0,0-.163,8.135,9.148,9.148,0,0,0,8.425-11.489" transform="translate(-360.963 -333.84)" fill="#d9a171"/>
        <path id="Trazado_107035" data-name="Trazado 107035" d="M457.31,411.234a8.135,8.135,0,0,0,.19,7.937,8.578,8.578,0,0,0,7.277,3.571,9.771,9.771,0,0,0-.452-7.891c-1.266-2.287-3.516-3.417-6.328-4.05" transform="translate(-362.558 -335.429)" fill="#d9a171"/>
        <path id="Trazado_107036" data-name="Trazado 107036" d="M468.279,408.988a5.559,5.559,0,0,0-1.808-1.2,8.137,8.137,0,0,0-2.594-.452,30.476,30.476,0,0,0-3.516.208,10.169,10.169,0,0,1-4.33-.371,6.644,6.644,0,0,1-3.616-3.462,20.183,20.183,0,0,1-1.546-5.27,14.988,14.988,0,0,0-1.808-5.424,18.829,18.829,0,0,0-4.032-4.095A19.6,19.6,0,0,1,441.17,385a12.872,12.872,0,0,1-1.916-8.976,12.6,12.6,0,0,1,2.332-5.776,10.074,10.074,0,0,1,1.148-1.257,3.1,3.1,0,0,1,.452-.389,1.809,1.809,0,0,1-.38.452,12.2,12.2,0,0,0-1.049,1.32,12.845,12.845,0,0,0-2.151,5.695,12.655,12.655,0,0,0,1.953,8.66,19.663,19.663,0,0,0,3.8,3.806,18.983,18.983,0,0,1,4.14,4.2,15.574,15.574,0,0,1,1.907,5.6,19.362,19.362,0,0,0,1.464,5.162,6.273,6.273,0,0,0,3.3,3.272,10.322,10.322,0,0,0,4.167.407,29.253,29.253,0,0,1,3.561-.136,7.585,7.585,0,0,1,2.64.56,4.393,4.393,0,0,1,1.437.9,2.026,2.026,0,0,1,.289.334C468.261,408.925,468.3,408.979,468.279,408.988Z" transform="translate(-360.9 -331.376)" fill="#d9a171"/>
        <path id="Trazado_107037" data-name="Trazado 107037" d="M468.279,408.988a5.559,5.559,0,0,0-1.808-1.2,8.137,8.137,0,0,0-2.594-.452,30.476,30.476,0,0,0-3.516.208,10.169,10.169,0,0,1-4.33-.371,6.644,6.644,0,0,1-3.616-3.462,20.183,20.183,0,0,1-1.546-5.27,14.988,14.988,0,0,0-1.808-5.424,18.829,18.829,0,0,0-4.032-4.095A19.6,19.6,0,0,1,441.17,385a12.872,12.872,0,0,1-1.916-8.976,12.6,12.6,0,0,1,2.332-5.776,10.074,10.074,0,0,1,1.148-1.257,3.1,3.1,0,0,1,.452-.389,1.809,1.809,0,0,1-.38.452,12.2,12.2,0,0,0-1.049,1.32,12.845,12.845,0,0,0-2.151,5.695,12.655,12.655,0,0,0,1.953,8.66,19.663,19.663,0,0,0,3.8,3.806,18.983,18.983,0,0,1,4.14,4.2,15.574,15.574,0,0,1,1.907,5.6,19.362,19.362,0,0,0,1.464,5.162,6.273,6.273,0,0,0,3.3,3.272,10.322,10.322,0,0,0,4.167.407,29.253,29.253,0,0,1,3.561-.136,7.585,7.585,0,0,1,2.64.56,4.393,4.393,0,0,1,1.437.9,2.026,2.026,0,0,1,.289.334C468.261,408.925,468.3,408.979,468.279,408.988Z" transform="translate(-360.9 -331.376)" fill="#d9a171"/>
        <path id="Trazado_107038" data-name="Trazado 107038" d="M368.924,416.363a12.068,12.068,0,0,0-16.334-11.887,20.158,20.158,0,0,0,15.9,11.751" transform="translate(-352.59 -334.746)" fill="#d9a171"/>
        <path id="Trazado_107039" data-name="Trazado 107039" d="M366.983,419.451c-2.323,2.558-2.179,6.68-.515,9.708s4.52,5.207,7.394,7.132a15.7,15.7,0,0,0-6.743-17.772" transform="translate(-353.804 -336.171)" fill="#d9a171"/>
        <path id="Trazado_107040" data-name="Trazado 107040" d="M379.655,406.247A13.93,13.93,0,0,0,394.9,418.713l.579-.072c-.9-3.742-2.4-7.521-5.3-10.07s-7.467-3.489-10.667-1.347" transform="translate(-355.176 -334.971)" fill="#d9a171"/>
        <path id="Trazado_107041" data-name="Trazado 107041" d="M377.781,401.335c-.579-3.408-3.959-5.885-7.394-6.21s-6.861,1.157-9.627,3.236a12.492,12.492,0,0,0,17.094,1.681" transform="translate(-353.375 -333.919)" fill="#d9a171"/>
        <path id="Trazado_107042" data-name="Trazado 107042" d="M359.571,434.031c-3.272,2.775-4.095,7.774-2.775,11.86s4.52,7.349,8.135,9.735c1.383-4.05,2.242-8.389,1.51-12.61s-3.263-8.316-7.177-10.007" transform="translate(-352.936 -337.562)" fill="#d9a171"/>
        <path id="Trazado_107043" data-name="Trazado 107043" d="M379,390.962a10.061,10.061,0,0,1,15.946-.9,8.7,8.7,0,0,1-15.72.407" transform="translate(-355.127 -333.101)" fill="#d9a171"/>
        <path id="Trazado_107044" data-name="Trazado 107044" d="M381.676,379.44a13.08,13.08,0,0,1-16.325-8.714,14.312,14.312,0,0,1-.371-1.519,29.505,29.505,0,0,1,7.882.108,12.863,12.863,0,0,1,6.978,3.435,6.915,6.915,0,0,1,1.853,6.68" transform="translate(-353.78 -331.413)" fill="#d9a171"/>
        <path id="Trazado_107045" data-name="Trazado 107045" d="M391.393,375.986a10.694,10.694,0,0,1-1.519-15.042,11.757,11.757,0,0,1,1.455-1.464A22.454,22.454,0,0,1,396,369.423a8.407,8.407,0,0,1,0,4.131,3.815,3.815,0,0,1-2.893,2.712" transform="translate(-355.94 -330.499)" fill="#d9a171"/>
        <g id="Grupo_57846" data-name="Grupo 57846" transform="translate(0 68.945)" opacity="0.4">
          <path id="Trazado_107046" data-name="Trazado 107046" d="M368.924,416.363a12.068,12.068,0,0,0-16.334-11.887,20.158,20.158,0,0,0,15.9,11.751" transform="translate(-352.59 -403.691)" fill="#344154"/>
        </g>
        <g id="Grupo_57847" data-name="Grupo 57847" transform="translate(11.424 82.349)" opacity="0.4">
          <path id="Trazado_107047" data-name="Trazado 107047" d="M366.983,419.451c-2.323,2.558-2.179,6.68-.515,9.708s4.52,5.207,7.394,7.132a15.7,15.7,0,0,0-6.743-17.772" transform="translate(-365.228 -418.52)" fill="#344154"/>
        </g>
        <g id="Grupo_57848" data-name="Grupo 57848" transform="translate(24.334 71.065)" opacity="0.4">
          <path id="Trazado_107048" data-name="Trazado 107048" d="M379.655,406.247A13.93,13.93,0,0,0,394.9,418.713l.579-.072c-.9-3.742-2.4-7.521-5.3-10.07s-7.467-3.489-10.667-1.347" transform="translate(-379.51 -406.036)" fill="#344154"/>
        </g>
        <g id="Grupo_57849" data-name="Grupo 57849" transform="translate(7.385 61.161)" opacity="0.4">
          <path id="Trazado_107049" data-name="Trazado 107049" d="M377.781,401.335c-.579-3.408-3.959-5.885-7.394-6.21s-6.861,1.157-9.627,3.236a12.492,12.492,0,0,0,17.094,1.681" transform="translate(-360.76 -395.08)" fill="#344154"/>
        </g>
        <g id="Grupo_57850" data-name="Grupo 57850" transform="translate(3.259 95.448)" opacity="0.4">
          <path id="Trazado_107050" data-name="Trazado 107050" d="M359.571,434.031c-3.272,2.775-4.095,7.774-2.775,11.86s4.52,7.349,8.135,9.735c1.383-4.05,2.242-8.389,1.51-12.61s-3.263-8.316-7.177-10.007" transform="translate(-356.195 -433.01)" fill="#344154"/>
        </g>
        <g id="Grupo_57851" data-name="Grupo 57851" transform="translate(23.873 53.459)" opacity="0.4">
          <path id="Trazado_107051" data-name="Trazado 107051" d="M379,390.962a10.061,10.061,0,0,1,15.946-.9,8.7,8.7,0,0,1-15.72.407" transform="translate(-379 -386.559)" fill="#344154"/>
        </g>
        <g id="Grupo_57852" data-name="Grupo 57852" transform="translate(11.2 37.581)" opacity="0.4">
          <path id="Trazado_107052" data-name="Trazado 107052" d="M381.676,379.44a13.08,13.08,0,0,1-16.325-8.714,14.312,14.312,0,0,1-.371-1.519,29.505,29.505,0,0,1,7.882.108,12.863,12.863,0,0,1,6.978,3.435,6.915,6.915,0,0,1,1.853,6.68" transform="translate(-364.98 -368.994)" fill="#344154"/>
        </g>
        <g id="Grupo_57853" data-name="Grupo 57853" transform="translate(31.525 28.981)" opacity="0.4">
          <path id="Trazado_107053" data-name="Trazado 107053" d="M391.393,375.986a10.694,10.694,0,0,1-1.519-15.042,11.757,11.757,0,0,1,1.455-1.464A22.454,22.454,0,0,1,396,369.423a8.407,8.407,0,0,1,0,4.131,3.815,3.815,0,0,1-2.893,2.712" transform="translate(-387.465 -359.48)" fill="#344154"/>
        </g>
        <path id="Trazado_107054" data-name="Trazado 107054" d="M401.748,401.66a.688.688,0,0,1,0-.271,5.425,5.425,0,0,1,.045-.786c.045-.678.108-1.7.126-3.01a26.883,26.883,0,0,0-1.808-10.847,16.479,16.479,0,0,0-4.357-6.138,11.6,11.6,0,0,0-7.937-2.911,9.8,9.8,0,0,0-4.393,1.13,8.886,8.886,0,0,0-3.444,3.3c-1.727,2.847-2.169,6.472-2.007,9.943s.624,7.069.226,10.486a15.639,15.639,0,0,1-1.3,4.863,10.286,10.286,0,0,1-2.929,3.842,14.825,14.825,0,0,1-4.086,2.1,20.04,20.04,0,0,0-3.86,1.745,13.9,13.9,0,0,0-5.053,5.55,13.333,13.333,0,0,0-1.464,6.029,14.311,14.311,0,0,0,.768,4.619,16.733,16.733,0,0,0,1.808,3.616,1.238,1.238,0,0,1-.172-.2c-.1-.145-.28-.353-.461-.651a12.656,12.656,0,0,1-1.356-2.712,13.893,13.893,0,0,1-.9-4.728,13.559,13.559,0,0,1,1.428-6.192,14.318,14.318,0,0,1,5.161-5.722c2.359-1.564,5.424-1.953,7.864-3.842s3.7-5.107,4.032-8.389-.117-6.825-.244-10.413.262-7.232,2.088-10.251a9.356,9.356,0,0,1,3.7-3.471,10.3,10.3,0,0,1,4.682-1.157,12.013,12.013,0,0,1,8.235,3.064,17.048,17.048,0,0,1,4.411,6.328,22.4,22.4,0,0,1,1.492,6.183,34.029,34.029,0,0,1,.145,4.8c-.054,1.32-.154,2.341-.235,3.019a6.582,6.582,0,0,1-.09.786A.9.9,0,0,1,401.748,401.66Z" transform="translate(-353.224 -332.2)" fill="#d9a171"/>
        <g id="Grupo_57854" data-name="Grupo 57854" transform="translate(5.965 44.987)" opacity="0.4">
          <path id="Trazado_107055" data-name="Trazado 107055" d="M401.748,401.66a.688.688,0,0,1,0-.271,5.425,5.425,0,0,1,.045-.786c.045-.678.108-1.7.126-3.01a26.883,26.883,0,0,0-1.808-10.847,16.479,16.479,0,0,0-4.357-6.138,11.6,11.6,0,0,0-7.937-2.911,9.8,9.8,0,0,0-4.393,1.13,8.886,8.886,0,0,0-3.444,3.3c-1.727,2.847-2.169,6.472-2.007,9.943s.624,7.069.226,10.486a15.639,15.639,0,0,1-1.3,4.863,10.286,10.286,0,0,1-2.929,3.842,14.825,14.825,0,0,1-4.086,2.1,20.04,20.04,0,0,0-3.86,1.745,13.9,13.9,0,0,0-5.053,5.55,13.333,13.333,0,0,0-1.464,6.029,14.311,14.311,0,0,0,.768,4.619,16.733,16.733,0,0,0,1.808,3.616,1.238,1.238,0,0,1-.172-.2c-.1-.145-.28-.353-.461-.651a12.656,12.656,0,0,1-1.356-2.712,13.893,13.893,0,0,1-.9-4.728,13.559,13.559,0,0,1,1.428-6.192,14.318,14.318,0,0,1,5.161-5.722c2.359-1.564,5.424-1.953,7.864-3.842s3.7-5.107,4.032-8.389-.117-6.825-.244-10.413.262-7.232,2.088-10.251a9.356,9.356,0,0,1,3.7-3.471,10.3,10.3,0,0,1,4.682-1.157,12.013,12.013,0,0,1,8.235,3.064,17.048,17.048,0,0,1,4.411,6.328,22.4,22.4,0,0,1,1.492,6.183,34.029,34.029,0,0,1,.145,4.8c-.054,1.32-.154,2.341-.235,3.019a6.582,6.582,0,0,1-.09.786A.9.9,0,0,1,401.748,401.66Z" transform="translate(-359.189 -377.188)" fill="#344154"/>
        </g>
        <path id="Trazado_107056" data-name="Trazado 107056" d="M477.777,392.267a10.061,10.061,0,0,0,.705-3.5,8.813,8.813,0,0,0-.9-4.032,8.66,8.66,0,0,0-6.96-4.619,9.943,9.943,0,0,0-3.417.407c-2.341.606-4.628,1.944-7.4,2.486a8.705,8.705,0,0,1-4.312,0,6.481,6.481,0,0,1-3.507-2.775c-1.663-2.576-2.133-5.821-4.14-8.2a8.217,8.217,0,0,0-3.779-2.468,10.521,10.521,0,0,0-4.4-.443,11.281,11.281,0,0,0-7.295,3.715,17.319,17.319,0,0,0-3.616,6.716,20.572,20.572,0,0,0-.814,6.671,74.839,74.839,0,0,0,1.211,9.726c.2,1.121.353,2,.461,2.649a4.063,4.063,0,0,0,.108.687,1.018,1.018,0,0,1,0,.235.569.569,0,0,0-.081-.226,3.619,3.619,0,0,1-.145-.678c-.136-.642-.325-1.519-.551-2.63a65.983,65.983,0,0,1-1.41-9.763,20.546,20.546,0,0,1,.768-6.8,17.609,17.609,0,0,1,3.7-6.924,13.333,13.333,0,0,1,3.354-2.712,11.589,11.589,0,0,1,8.877-.85,8.787,8.787,0,0,1,4,2.621c2.133,2.549,2.585,5.812,4.176,8.262a5.993,5.993,0,0,0,3.227,2.612,8.334,8.334,0,0,0,4.059.108c2.658-.515,4.981-1.808,7.394-2.441a10.36,10.36,0,0,1,3.571-.389,8.678,8.678,0,0,1,8.054,9.039,8.245,8.245,0,0,1-.515,2.64,4.242,4.242,0,0,1-.407.868Z" transform="translate(-359.785 -331.359)" fill="#d9a171"/>
        <path id="Trazado_107057" data-name="Trazado 107057" d="M452.265,374.895a9.257,9.257,0,0,0,8.506.57,8.6,8.6,0,0,0,4.33-6.843,9.148,9.148,0,0,0-13.161,5.469" transform="translate(-362.133 -331.27)" fill="#d9a171"/>
        <path id="Trazado_107058" data-name="Trazado 107058" d="M462.26,384.643a9.256,9.256,0,0,0,3.95,7.557,8.551,8.551,0,0,0,8.136.136,9.166,9.166,0,0,0-9.609-8.687,9.3,9.3,0,0,0-1.916.307" transform="translate(-363.124 -332.82)" fill="#d9a171"/>
        <path id="Trazado_107059" data-name="Trazado 107059" d="M479.565,381.877a9.311,9.311,0,0,0,8.524-.353,8.578,8.578,0,0,0,3.571-7.232,9.753,9.753,0,0,0-7.9.443,9.609,9.609,0,0,0-4.619,6.409" transform="translate(-364.746 -331.862)" fill="#d9a171"/>
        <path id="Trazado_107060" data-name="Trazado 107060" d="M437.314,368.172c-2.287-1.98-3.815-5.424-3.372-8.027a8.57,8.57,0,0,1,5.252-6.165,9.139,9.139,0,0,1,.181,12.926,8.951,8.951,0,0,1-1.528,1.266" transform="translate(-360.397 -329.971)" fill="#d9a171"/>
        <path id="Trazado_107061" data-name="Trazado 107061" d="M369.92,355.991a.905.905,0,0,1,.072-.226c.081-.154.19-.344.307-.588.289-.506.741-1.238,1.392-2.151a23.071,23.071,0,0,1,6.825-6.472,16.7,16.7,0,0,1,6.12-2.26,15.032,15.032,0,0,1,7.394.786,12.013,12.013,0,0,1,6.328,5.207c1.464,2.558,1.934,5.55,2.775,8.425a15.611,15.611,0,0,0,1.808,4.013,12.457,12.457,0,0,0,3.028,2.974c1.139.841,2.332,1.6,3.4,2.477a14.59,14.59,0,0,1,2.775,3,18.522,18.522,0,0,1,2.838,6.933,25.031,25.031,0,0,1,.38,6.472,49.505,49.505,0,0,1-1.672,9.247c-.28,1.067-.515,1.9-.687,2.468a4,4,0,0,1-.28.841,6.722,6.722,0,0,1,.19-.9c.136-.615.344-1.446.579-2.495a52.366,52.366,0,0,0,1.5-9.238,24.525,24.525,0,0,0-.434-6.4,17.962,17.962,0,0,0-2.775-6.743,14.021,14.021,0,0,0-2.712-2.893c-1.058-.85-2.242-1.6-3.408-2.45a12.654,12.654,0,0,1-3.146-3.1,15.52,15.52,0,0,1-1.808-4.149c-.859-2.911-1.338-5.876-2.775-8.325a11.625,11.625,0,0,0-6.084-5.017,14.753,14.753,0,0,0-7.232-.8,16.542,16.542,0,0,0-6,2.142,23.955,23.955,0,0,0-6.816,6.291c-.651.9-1.139,1.6-1.446,2.088a5.63,5.63,0,0,1-.434.85Z" transform="translate(-354.255 -329.026)" fill="#d9a171"/>
        <path id="Trazado_107062" data-name="Trazado 107062" d="M410.372,368.839c-.786-.741-1.166-.226-2.224,0a6.6,6.6,0,0,0-2.865,1.428,12.022,12.022,0,0,0-3.914,12.655,9.4,9.4,0,0,0,9.943-8.859,9.3,9.3,0,0,0-1.275-5.279" transform="translate(-357.229 -331.361)" fill="#d9a171"/>
        <path id="Trazado_107063" data-name="Trazado 107063" d="M374.013,352.427c-.4-.994-.9-.7-2.007-.985a6.608,6.608,0,0,0-3.2.054,12.1,12.1,0,0,0-8.976,9.754A9.419,9.419,0,0,0,373.7,352.21" transform="translate(-353.285 -329.711)" fill="#d9a171"/>
        <path id="Trazado_107064" data-name="Trazado 107064" d="M417.456,390.6a10.847,10.847,0,0,0-17.076.832,13.4,13.4,0,0,0,8.859,3.5,13.758,13.758,0,0,0,8.922-3.616" transform="translate(-357.18 -333.127)" fill="#d9a171"/>
        <path id="Trazado_107065" data-name="Trazado 107065" d="M416.227,373.039a11.01,11.01,0,0,0,11.3-10.739,11.188,11.188,0,0,0-.2-2.4,9.889,9.889,0,0,0-11.471,13.026" transform="translate(-358.61 -330.517)" fill="#d9a171"/>
        <path id="Trazado_107066" data-name="Trazado 107066" d="M403.677,353.993a11.01,11.01,0,0,0,14.237-6.328,10.686,10.686,0,0,0,.624-2.359,9.876,9.876,0,0,0-15.168,8.47" transform="translate(-357.468 -328.99)" fill="#d9a171"/>
        <path id="Trazado_107067" data-name="Trazado 107067" d="M397.9,348.692a11.01,11.01,0,0,0-14.237,6.328,11.128,11.128,0,0,0-.624,2.4,9.871,9.871,0,0,0,15.168-8.515" transform="translate(-355.515 -329.392)" fill="#d9a171"/>
        <path id="Trazado_107068" data-name="Trazado 107068" d="M394.138,343.61a11,11,0,0,0,6.915-13.939A10.847,10.847,0,0,0,400,327.42a9.889,9.889,0,0,0-6.255,16.217" transform="translate(-356.317 -327.42)" fill="#d9a171"/>
        <path id="Trazado_107069" data-name="Trazado 107069" d="M380.4,344.439a11.01,11.01,0,0,0-6.59-14.111,11.517,11.517,0,0,0-2.4-.579,9.871,9.871,0,0,0,8.777,14.987" transform="translate(-354.26 -327.644)" fill="#d9a171"/>
        <path id="Trazado_107070" data-name="Trazado 107070" d="M399.15,441.08l3.652,4.529h44.881l3.064-4.529Z" transform="translate(-357.062 -338.337)" fill="#344154"/>
        <path id="Trazado_107071" data-name="Trazado 107071" d="M449.9,440.973c0,.154-11.028.262-24.642.262s-24.633-.108-24.633-.262,11.028-.253,24.633-.253S449.9,440.865,449.9,440.973Z" transform="translate(-357.204 -338.303)" fill="#5e6178"/>
        <path id="Trazado_107072" data-name="Trazado 107072" d="M445.155,422.109a1.942,1.942,0,0,1-.289.371,11.091,11.091,0,0,1-.9.9,16.751,16.751,0,0,1-4.014,2.775,17.672,17.672,0,0,1-7.015,1.808,16.956,16.956,0,0,1-4.276-.362,24.811,24.811,0,0,1-4.375-1.446c-2.893-1.238-5.55-2.63-8.09-3.444a13.8,13.8,0,0,0-6.978-.678,9.04,9.04,0,0,0-4.285,1.989c-.85.75-1.175,1.3-1.22,1.266s.063-.145.226-.4a5.424,5.424,0,0,1,.859-1.012,8.85,8.85,0,0,1,4.339-2.206,13.948,13.948,0,0,1,7.232.579c2.63.814,5.279,2.215,8.135,3.426a25.565,25.565,0,0,0,4.276,1.437,17.175,17.175,0,0,0,11.028-1.284,21.127,21.127,0,0,0,5.351-3.724Z" transform="translate(-357.499 -336.451)" fill="#5e6178"/>
        <path id="Trazado_107073" data-name="Trazado 107073" d="M445.546,418.3a1.848,1.848,0,0,1-.307.344,11.879,11.879,0,0,1-.976.9,18.315,18.315,0,0,1-4.167,2.576,19.209,19.209,0,0,1-11.354,1.4,29.19,29.19,0,0,1-4.438-1.256c-2.956-1.076-5.677-2.305-8.271-3.037a16.488,16.488,0,0,0-7.051-.642,10.6,10.6,0,0,0-4.447,1.708c-.9.651-1.338,1.139-1.374,1.1a1.863,1.863,0,0,1,.289-.371,7.232,7.232,0,0,1,.976-.9,10.269,10.269,0,0,1,4.52-1.9,16.325,16.325,0,0,1,7.232.551c2.649.714,5.424,1.943,8.325,3a29.1,29.1,0,0,0,4.348,1.247,19.208,19.208,0,0,0,4.194.307,19.67,19.67,0,0,0,6.924-1.546A24.405,24.405,0,0,0,445.546,418.3Z" transform="translate(-357.447 -336.126)" fill="#5e6178"/>
      </g>
      <g id="freepik--Desk--inject-103" transform="translate(4.971 253.232)">
        <path id="Trazado_107074" data-name="Trazado 107074" d="M431.866,446.194c0,.136-91.082.244-203.388.244S25.09,446.33,25.09,446.194s91.054-.244,203.388-.244S431.866,446.068,431.866,446.194Z" transform="translate(-25.09 -445.95)" fill="#344154"/>
      </g>
    </g>
    <g id="Grupo_57856" data-name="Grupo 57856" transform="translate(149.074 118.573)">
      <path id="Trazado_107075" data-name="Trazado 107075" d="M219.1,189.732a2.887,2.887,0,0,0,1.957-.666,2.29,2.29,0,0,0,.777-1.763h4.081a5.552,5.552,0,0,1-.9,3.04,5.954,5.954,0,0,1-2.429,2.137,7.523,7.523,0,0,1-3.414.763,7.106,7.106,0,0,1-5.552-2.221,8.786,8.786,0,0,1-2.013-6.135V184.6a8.7,8.7,0,0,1,2.082-5.968,7.907,7.907,0,0,1,10.451-.5,6.232,6.232,0,0,1,1.874,4.636h-4.136a2.97,2.97,0,0,0-.777-2.068,2.651,2.651,0,0,0-2-.791,2.609,2.609,0,0,0-2.29,1.1,6.482,6.482,0,0,0-.777,3.595v.458a6.634,6.634,0,0,0,.763,3.623,2.651,2.651,0,0,0,2.3,1.055Z" transform="translate(-184.634 -169.801)" fill="#344154"/>
      <path id="Trazado_107076" data-name="Trazado 107076" d="M223.71,174.16a2.11,2.11,0,0,1,.652-1.61,2.776,2.776,0,0,1,3.553,0,2.29,2.29,0,0,1,0,3.234,2.776,2.776,0,0,1-3.539,0A2.124,2.124,0,0,1,223.71,174.16Zm4.566,20.5H223.9V178.379h4.372Z" transform="translate(-179.932 -171.537)" fill="#344154"/>
      <path id="Trazado_107077" data-name="Trazado 107077" d="M236.6,189.736a2.776,2.776,0,0,0,1.957-.666,2.29,2.29,0,0,0,.777-1.763h4.081a5.455,5.455,0,0,1-.9,3.04,5.871,5.871,0,0,1-2.443,2.165,7.523,7.523,0,0,1-3.414.763,7.12,7.12,0,0,1-5.552-2.221,8.855,8.855,0,0,1-2.012-6.135v-.292a8.7,8.7,0,0,1,2-6.01,7.009,7.009,0,0,1,5.552-2.235,6.856,6.856,0,0,1,4.9,1.735,6.135,6.135,0,0,1,1.874,4.636h-4.081a2.97,2.97,0,0,0-.777-2.068,2.609,2.609,0,0,0-1.985-.791,2.651,2.651,0,0,0-2.3,1.1,6.481,6.481,0,0,0-.777,3.595v.458a6.5,6.5,0,0,0,.777,3.623A2.651,2.651,0,0,0,236.6,189.736Z" transform="translate(-177.848 -169.804)" fill="#344154"/>
      <path id="Trazado_107078" data-name="Trazado 107078" d="M245.728,194.764H241.37V171.64h4.358Z" transform="translate(-173.08 -171.64)" fill="#344154"/>
      <path id="Trazado_107079" data-name="Trazado 107079" d="M246.619,184.638a9.632,9.632,0,0,1,.944-4.317,6.843,6.843,0,0,1,2.679-2.929,7.856,7.856,0,0,1,4.081-1.041,7.384,7.384,0,0,1,5.344,2.013A8.092,8.092,0,0,1,262,183.846v1.11a8.508,8.508,0,0,1-2.1,6.024,8.092,8.092,0,0,1-11.229,0,8.647,8.647,0,0,1-2.11-6.135Zm4.358.319a6.107,6.107,0,0,0,.874,3.553,3.151,3.151,0,0,0,4.969,0,6.774,6.774,0,0,0,.888-3.886,6.093,6.093,0,0,0-.888-3.525,2.9,2.9,0,0,0-2.5-1.249,2.776,2.776,0,0,0-2.471,1.235,6.773,6.773,0,0,0-.874,3.872Z" transform="translate(-171.07 -169.814)" fill="#344154"/>
      <path id="Trazado_107080" data-name="Trazado 107080" d="M199.679,216.374a2.776,2.776,0,0,0,1.957-.666,2.3,2.3,0,0,0,.777-1.763h4.081a5.552,5.552,0,0,1-.9,3.04,6.065,6.065,0,0,1-2.429,2.137,7.7,7.7,0,0,1-3.414.75,7.092,7.092,0,0,1-5.552-2.207,8.8,8.8,0,0,1-2.013-6.149v-.208a8.7,8.7,0,0,1,2-6.01,6.94,6.94,0,0,1,5.552-2.235,6.8,6.8,0,0,1,4.9,1.735,6.079,6.079,0,0,1,1.874,4.622h-4.081a3,3,0,0,0-.777-2.068,2.609,2.609,0,0,0-1.985-.791,2.637,2.637,0,0,0-2.3,1.11,6.454,6.454,0,0,0-.777,3.595v.458a6.412,6.412,0,0,0,.777,3.609A2.651,2.651,0,0,0,199.679,216.374Z" transform="translate(-192.169 -159.454)" fill="#344154"/>
      <path id="Trazado_107081" data-name="Trazado 107081" d="M203.8,211.318a9.632,9.632,0,0,1,.944-4.317,6.8,6.8,0,0,1,2.679-2.942,7.814,7.814,0,0,1,4.081-1.027,7.384,7.384,0,0,1,5.371,2.013,8.134,8.134,0,0,1,2.332,5.482v1.11a8.48,8.48,0,0,1-2.1,6.01,8.12,8.12,0,0,1-11.229,0,8.675,8.675,0,0,1-2.11-6.149Zm4.358.305a6.079,6.079,0,0,0,.874,3.553,3.123,3.123,0,0,0,4.969,0,6.69,6.69,0,0,0,.888-3.872,6.149,6.149,0,0,0-.888-3.539,2.9,2.9,0,0,0-2.5-1.249,2.776,2.776,0,0,0-2.471,1.249,6.759,6.759,0,0,0-.874,3.831Z" transform="translate(-187.671 -159.463)" fill="#344154"/>
      <path id="Trazado_107082" data-name="Trazado 107082" d="M220.867,203.31l.125,1.888A5.7,5.7,0,0,1,225.683,203a4.691,4.691,0,0,1,3.886,1.527,7.12,7.12,0,0,1,1.3,4.553v10.576h-4.358V209.237a2.776,2.776,0,0,0-.6-2.013,2.693,2.693,0,0,0-2-.625,3,3,0,0,0-2.776,1.568v11.492H216.8V203.31Z" transform="translate(-182.612 -159.478)" fill="#344154"/>
      <path id="Trazado_107083" data-name="Trazado 107083" d="M234.866,200.34v4h2.776v3.192h-2.776v8.133a2,2,0,0,0,.333,1.291,1.763,1.763,0,0,0,1.388.389,7.038,7.038,0,0,0,1.277-.1v3.289a8.856,8.856,0,0,1-2.637.389q-4.58,0-4.664-4.622V207.53H228.19v-3.192h2.373v-4Z" transform="translate(-178.193 -160.505)" fill="#344154"/>
      <path id="Trazado_107084" data-name="Trazado 107084" d="M246.428,219.654a4.759,4.759,0,0,1-.444-1.457,5.246,5.246,0,0,1-4.164,1.749,5.774,5.774,0,0,1-3.956-1.388,4.469,4.469,0,0,1-1.582-3.5,4.594,4.594,0,0,1,1.915-3.97,9.494,9.494,0,0,1,5.552-1.388h2v-.93a2.776,2.776,0,0,0-.569-1.818,2.318,2.318,0,0,0-1.832-.666,2.526,2.526,0,0,0-1.721.527A1.777,1.777,0,0,0,241,208.2h-4.358a4.386,4.386,0,0,1,.874-2.623,5.745,5.745,0,0,1,2.54-1.888,9.008,9.008,0,0,1,3.581-.68,7.107,7.107,0,0,1,4.747,1.513,5.3,5.3,0,0,1,1.763,4.247v7.065a7.675,7.675,0,0,0,.652,3.5v.319Zm-3.595-3.081a3.859,3.859,0,0,0,1.777-.43,2.776,2.776,0,0,0,1.194-1.152v-2.776h-1.582c-2.179,0-3.331.749-3.47,2.262v.25a1.721,1.721,0,0,0,.569,1.388,2.234,2.234,0,0,0,1.513.458Z" transform="translate(-175.056 -159.472)" fill="#344154"/>
      <path id="Trazado_107085" data-name="Trazado 107085" d="M263.371,213.429a9.925,9.925,0,0,1-1.666,6.107,5.552,5.552,0,0,1-4.664,2.179,5.066,5.066,0,0,1-4.233-2.026l-.194,1.735H248.7V198.3h4.344v8.328A5,5,0,0,1,257,204.879a5.552,5.552,0,0,1,4.677,2.179,9.855,9.855,0,0,1,1.693,6.163Zm-4.344-.319a6.44,6.44,0,0,0-.791-3.609,2.651,2.651,0,0,0-2.332-1.138,2.887,2.887,0,0,0-2.859,1.707V216.5a2.915,2.915,0,0,0,2.887,1.721,2.693,2.693,0,0,0,2.776-2.082,10.786,10.786,0,0,0,.319-2.984Z" transform="translate(-170.236 -161.297)" fill="#344154"/>
      <path id="Trazado_107086" data-name="Trazado 107086" d="M265.728,221.479H261.37V198.3h4.358Z" transform="translate(-165.321 -161.297)" fill="#344154"/>
      <path id="Trazado_107087" data-name="Trazado 107087" d="M274.75,219.89a7.953,7.953,0,0,1-5.829-2.193,7.8,7.8,0,0,1-2.249-5.857v-.416a9.94,9.94,0,0,1,.944-4.386,6.94,6.94,0,0,1,2.693-2.984,7.606,7.606,0,0,1,3.97-1.041,6.773,6.773,0,0,1,5.26,2.1,8.606,8.606,0,0,1,1.915,5.982v1.777H271.086a4,4,0,0,0,1.277,2.554,3.762,3.762,0,0,0,2.679.972,4.705,4.705,0,0,0,3.928-1.818l2.137,2.387a6.51,6.51,0,0,1-2.651,2.165,8.718,8.718,0,0,1-3.706.763Zm-.486-13.38a2.776,2.776,0,0,0-2.11.874,4.691,4.691,0,0,0-1.027,2.512h6.052v-.347a3.234,3.234,0,0,0-.777-2.249,2.776,2.776,0,0,0-2.137-.791Z" transform="translate(-163.267 -159.472)" fill="#344154"/>
    </g>
  </g>
</svg>
