<svg id="Grupo_57864" data-name="Grupo 57864" xmlns="http://www.w3.org/2000/svg" width="120" height="120" viewBox="0 0 120 120">
  <g id="Grupo_57861" data-name="Grupo 57861">
    <rect id="Rectángulo_8375" data-name="Rectángulo 8375" width="120" height="120" fill="#d9a171" opacity="0"/>
  </g>
  <g id="Grupo_57862" data-name="Grupo 57862" transform="translate(10.543 9.318)">
    <path id="Trazado_107100" data-name="Trazado 107100" d="M637.507,1935.793c0-26.825,22.092-48.577,49.363-48.626,27.124-.049,49.357,21.605,49.55,48.273a48.091,48.091,0,0,1-15.171,35.4,330.623,330.623,0,0,0-67.153-.147,3.03,3.03,0,0,1-2.452-.859A48.051,48.051,0,0,1,637.507,1935.793Z" transform="translate(-637.507 -1884.716)" fill="#6595bf"/>
    <path id="Trazado_107101" data-name="Trazado 107101" d="M729.174,1891.5v78.389a45.972,45.972,0,0,1-67.73,0V1891.5a7.923,7.923,0,0,1,7.741-8.093h52.249A7.923,7.923,0,0,1,729.174,1891.5Z" transform="translate(-645.851 -1883.405)" fill="#e8c7aa"/>
    <path id="Trazado_107102" data-name="Trazado 107102" d="M667.763,1973.914a53.691,53.691,0,0,1-6.32-4.966V1891.41c0-4.421,3.99-8,8.91-8h6.32c-4.921,0-8.91,3.584-8.91,8Z" transform="translate(-645.851 -1883.405)" fill="#e1b48d"/>
    <path id="Trazado_107103" data-name="Trazado 107103" d="M732.852,1963.169v2.227a1.114,1.114,0,0,1-1.114,1.114H682.733a1.114,1.114,0,0,1-1.114-1.114v-2.227a1.114,1.114,0,0,1,1.114-1.114h49.005A1.114,1.114,0,0,1,732.852,1963.169Zm-7.8,7.8H682.733a1.114,1.114,0,0,0-1.114,1.114v2.227a1.114,1.114,0,0,0,1.114,1.114h42.323a1.114,1.114,0,0,0,1.114-1.114v-2.227A1.114,1.114,0,0,0,725.055,1970.965Zm-15.592,8.909H682.733a1.114,1.114,0,0,0-1.114,1.115v2.227a1.114,1.114,0,0,0,1.114,1.114h26.731a1.114,1.114,0,0,0,1.113-1.114v-2.227A1.114,1.114,0,0,0,709.464,1979.875Zm-25.617,22.276a2.227,2.227,0,1,0,2.227,2.227A2.228,2.228,0,0,0,683.847,2002.15Zm6.683,0a2.227,2.227,0,1,0,2.227,2.227A2.227,2.227,0,0,0,690.529,2002.15Zm6.683,0a2.227,2.227,0,1,0,2.227,2.227A2.228,2.228,0,0,0,697.212,2002.15Z" transform="translate(-657.962 -1921.056)" fill="#d9a171"/>
    <path id="Trazado_107104" data-name="Trazado 107104" d="M714.249,1893.677v7.548a2.227,2.227,0,0,1-2.228,2.227h-62.37a2.227,2.227,0,0,1-2.227-2.227v-7.548a10.273,10.273,0,0,1,10.272-10.272h66.825A10.273,10.273,0,0,0,714.249,1893.677Z" transform="translate(-640.964 -1883.405)" fill="#f0d9c6"/>
    <path id="Trazado_107105" data-name="Trazado 107105" d="M719.017,1893.677v7.548a2.227,2.227,0,0,1-2.228,2.227H661.1v-9.775a10.273,10.273,0,0,1,10.273-10.272h57.915A10.273,10.273,0,0,0,719.017,1893.677Z" transform="translate(-645.732 -1883.405)" fill="#f7ece3"/>
    <path id="Trazado_107106" data-name="Trazado 107106" d="M777.9,2007.379a22.869,22.869,0,1,1-22.869-22.869A22.869,22.869,0,0,1,777.9,2007.379Z" transform="translate(-680.738 -1928.884)" fill="#344154"/>
    <path id="Trazado_107107" data-name="Trazado 107107" d="M774.407,2021.4a22.87,22.87,0,1,1-31.527-31.528,22.871,22.871,0,0,0,31.527,31.528Z" transform="translate(-680.738 -1930.754)" fill="#27313f"/>
    <path id="Trazado_107108" data-name="Trazado 107108" d="M782.137,2001.112l-23.85,23.85a3.342,3.342,0,0,1-4.725,0l-10.485-10.485a3.341,3.341,0,0,1,0-4.725l1.575-1.575a3.341,3.341,0,0,1,4.725,0l5.76,5.76a1.114,1.114,0,0,0,1.575,0l19.125-19.126a3.341,3.341,0,0,1,4.725,0l1.575,1.575A3.341,3.341,0,0,1,782.137,2001.112Z" transform="translate(-684.201 -1932.134)" fill="#fff"/>
    <path id="Trazado_107109" data-name="Trazado 107109" d="M783.695,1996.386a3.341,3.341,0,0,1,0,4.725l-22.508,22.508a22.916,22.916,0,0,1-14.619-15.749,3.339,3.339,0,0,1,4.367.305l5.76,5.76a1.113,1.113,0,0,0,1.575,0l19.125-19.124a3.341,3.341,0,0,1,4.725,0Z" transform="translate(-685.759 -1932.134)" fill="#fff"/>
  </g>
  <g id="Grupo_57863" data-name="Grupo 57863" transform="translate(35.138 33.562)">
    <path id="Trazado_107110" data-name="Trazado 107110" d="M693.337,1944.117H681.5v-1.649l6.251-6.947a14.769,14.769,0,0,0,1.916-2.561,4.27,4.27,0,0,0,.528-2.04,3.241,3.241,0,0,0-.856-2.32,2.994,2.994,0,0,0-2.283-.906,3.546,3.546,0,0,0-2.661.974,3.721,3.721,0,0,0-.949,2.71h-2.295a5.325,5.325,0,0,1,1.607-4.031,5.953,5.953,0,0,1,4.3-1.538,5.722,5.722,0,0,1,3.982,1.321,4.506,4.506,0,0,1,1.464,3.517q0,2.667-3.4,6.351l-4.838,5.247h9.068Z" transform="translate(-681.155 -1925.808)" fill="#344154"/>
    <path id="Trazado_107111" data-name="Trazado 107111" d="M714.956,1927.479l-7.479,16.771H705.07l7.455-16.175H702.75v-1.885h12.206Z" transform="translate(-688.683 -1925.941)" fill="#344154"/>
  </g>
</svg>
