<svg xmlns="http://www.w3.org/2000/svg" width="436.36" height="407.683" viewBox="0 0 436.36 407.683">
  <g id="Capa_2" data-name="Capa 2" transform="translate(-34.18 -65.21)">
    <g id="Grupo_57907" data-name="Grupo 57907">
      <g id="Grupo_57875" data-name="Grupo 57875">
        <g id="Grupo_57874" data-name="Grupo 57874">
          <path id="Trazado_107252" data-name="Trazado 107252" d="M39,445.57v25.07h5.79a35.44,35.44,0,0,1,0-7.95c.56-3,6.84-10.58,6.66-17.12Z" fill="#aed3f2"/>
          <path id="Trazado_107253" data-name="Trazado 107253" d="M85.27,445.57v25.07h5.79a34.81,34.81,0,0,1,0-7.95c.55-3,6.84-10.58,6.65-17.12Z" fill="#839eb6"/>
          <path id="Trazado_107254" data-name="Trazado 107254" d="M130.6,445.57v25.07h-5.79a35.44,35.44,0,0,0,0-7.95c-.55-3-6.84-10.58-6.66-17.12Z" fill="#aed3f2"/>
          <path id="Trazado_107255" data-name="Trazado 107255" d="M170.69,445.57v25.07H164.9a34.811,34.811,0,0,0,0-7.95c-.55-3-6.84-10.58-6.65-17.12Z" fill="#839eb6"/>
          <rect id="Rectángulo_8379" data-name="Rectángulo 8379" width="138.72" height="124.57" transform="translate(35.01 321.81)" fill="#aed3f2"/>
          <path id="Trazado_107256" data-name="Trazado 107256" d="M136.36,321.81l1.03,124.57h36.34V321.8Z" fill="#839eb6"/>
          <rect id="Rectángulo_8380" data-name="Rectángulo 8380" width="89.06" height="31.7" transform="translate(41.25 330.97)" fill="#aed3f2"/>
          <rect id="Rectángulo_8381" data-name="Rectángulo 8381" width="89.06" height="31.7" transform="translate(41.25 368.99)" fill="#aed3f2"/>
          <rect id="Rectángulo_8382" data-name="Rectángulo 8382" width="89.06" height="31.7" transform="translate(41.25 407)" fill="#aed3f2"/>
          <g id="Grupo_57873" data-name="Grupo 57873">
            <path id="Trazado_107257" data-name="Trazado 107257" d="M75.39,286.01l-3.84,35.65h49.22l4.08-35.65Z" fill="#839eb6"/>
            <path id="Trazado_107258" data-name="Trazado 107258" d="M77.42,288.57l-3.74,31.2H118.1l3.59-31.2Z" fill="#fff"/>
            <path id="Trazado_107259" data-name="Trazado 107259" d="M84.89,293.82l-2.3,20.7h28.04l1.43-20.7Z" fill="#aed3f2"/>
          </g>
          <path id="Trazado_107260" data-name="Trazado 107260" d="M123.09,301.36l10.17,20.44-12.49-.14,2.32-20.3" fill="#aed3f2"/>
        </g>
        <path id="Trazado_107261" data-name="Trazado 107261" d="M89,348.48a3.25,3.25,0,1,1-.952-2.308A3.26,3.26,0,0,1,89,348.48Z" fill="#839eb6"/>
        <path id="Trazado_107262" data-name="Trazado 107262" d="M89,386.87a3.26,3.26,0,1,1-3.26-3.26A3.26,3.26,0,0,1,89,386.87Z" fill="#839eb6"/>
        <path id="Trazado_107263" data-name="Trazado 107263" d="M89,425.26A3.26,3.26,0,1,1,85.78,422,3.26,3.26,0,0,1,89,425.26Z" fill="#839eb6"/>
      </g>
      <g id="Grupo_57876" data-name="Grupo 57876">
        <path id="Trazado_107264" data-name="Trazado 107264" d="M130.18,119.31l-78.66-.77,2.2,102.5,78.64.29Z" fill="#839eb6"/>
        <path id="Trazado_107265" data-name="Trazado 107265" d="M125.1,123.88l-68.85-1.79,1.99,92.96,68.83.85Z" fill="#fafafa"/>
        <path id="Trazado_107266" data-name="Trazado 107266" d="M113.35,137.76,67.67,137l1.39,64.98L114.7,201Z" fill="#aed3f2"/>
        <path id="Trazado_107267" data-name="Trazado 107267" d="M69.06,201.98l44.93-34.36L67.67,137Z" fill="#aed3f2"/>
      </g>
      <g id="Grupo_57877" data-name="Grupo 57877">
        <path id="Trazado_107268" data-name="Trazado 107268" d="M468.62,65.88l-69-.67,1.92,89.92,69,.25Z" fill="#839eb6"/>
        <path id="Trazado_107269" data-name="Trazado 107269" d="M464.17,69.89l-60.41-1.57,1.75,81.56,60.39.74Z" fill="#fafafa"/>
        <path id="Trazado_107270" data-name="Trazado 107270" d="M453.86,82.07l-40.08-.66,1.22,57,40.05-.86Z" fill="#aed3f2"/>
        <path id="Trazado_107271" data-name="Trazado 107271" d="M415,138.41l39.42-30.14L413.78,81.41Z" fill="#aed3f2"/>
      </g>
      <g id="Grupo_57878" data-name="Grupo 57878">
        <path id="Trazado_107272" data-name="Trazado 107272" d="M391.32,404c-.29.89,10,40,10,40l7.06-1.48L398.68,404Z" fill="#aed3f2"/>
        <path id="Trazado_107273" data-name="Trazado 107273" d="M446.03,398.38l-14.12,45.6h8.24l13.53-42.36Z" fill="#aed3f2"/>
        <path id="Trazado_107274" data-name="Trazado 107274" d="M458.97,391.33,442.8,443.98h8.23l15.59-49.42Z" fill="#aed3f2"/>
        <path id="Trazado_107275" data-name="Trazado 107275" d="M396.32,440.74l8.24,28.53h41.47l7.65-28.53Z" fill="#839eb6"/>
        <path id="Trazado_107276" data-name="Trazado 107276" d="M417.72,440.74a1.322,1.322,0,0,1-.09-.29l-.22-.88-.8-3.36-2.85-12.46c-2.37-10.59-5.65-25.22-9.31-41.55l.26.2h-7.27l.26-.32c3.68,16.35,7,31,9.36,41.59,1.16,5.26,2.1,9.52,2.76,12.49l.72,3.39c.07.37.13.66.17.89a1.4,1.4,0,0,1,.05.3,1.647,1.647,0,0,1-.1-.29c-.05-.23-.13-.51-.22-.87-.19-.81-.47-1.94-.81-3.37-.7-3-1.69-7.21-2.92-12.46-2.42-10.59-5.78-25.22-9.52-41.55l-.07-.32h7.79v.2c3.6,16.35,6.82,31,9.15,41.59,1.13,5.26,2.05,9.52,2.69,12.49.3,1.45.54,2.59.71,3.39l.17.89A1.729,1.729,0,0,1,417.72,440.74Z" fill="#839eb6"/>
      </g>
      <path id="Trazado_107277" data-name="Trazado 107277" d="M458.24,470.46c0,.15-94.94.26-212,.26s-212.06-.11-212.06-.26,94.92-.26,212.06-.26S458.24,470.32,458.24,470.46Z" fill="#344154"/>
      <g id="Grupo_57879" data-name="Grupo 57879">
        <path id="Trazado_107278" data-name="Trazado 107278" d="M430.94,197.52a3.77,3.77,0,0,0-.71-.22,4.92,4.92,0,0,0-2.16,0,7.76,7.76,0,0,0-3.16,1.61,16.91,16.91,0,0,0-3.2,3.73c-2,3.14-3.66,7.48-5.54,12.54a183.505,183.505,0,0,0-5.64,17.63h0a5.22,5.22,0,0,1-1.17,1.44,2.29,2.29,0,0,1-1.82.58,3.31,3.31,0,0,1-1.67-1c-.47-.44-.91-.9-1.35-1.36a30.849,30.849,0,0,0-2.77-2.71,5.12,5.12,0,0,0-3.5-1.43,4.74,4.74,0,0,0-3.22,2.14,8,8,0,0,0-1.1,4c-.17,2.87.65,5.75,1.16,8.75s1.12,6.05,1.71,9.18c.29,1.57.58,3.15.88,4.76l.45,2.41a3.11,3.11,0,0,1-.29,2.56,1.27,1.27,0,0,1-1.33.46,3.33,3.33,0,0,1-1.18-.62l-2-1.52a45.48,45.48,0,0,0-4.24-2.85,16.05,16.05,0,0,0-4.74-2,5.5,5.5,0,0,0-2.52,0,3.82,3.82,0,0,0-2.06,1.38,8.53,8.53,0,0,0-1.34,5,27.791,27.791,0,0,0,.52,5.42,69,69,0,0,0,3,10.78,14.567,14.567,0,0,1,.87,2.78,2,2,0,0,1-.37,1.54,1.331,1.331,0,0,1-.29.29.87.87,0,0,1-.39.23,1.18,1.18,0,0,1-.87-.19,15.552,15.552,0,0,1-2.31-1.84l-2.14-2a31.308,31.308,0,0,0-4.55-3.66,9.69,9.69,0,0,0-2.62-1.2,3.29,3.29,0,0,0-2.68.34,3.9,3.9,0,0,0-1.51,2.31,11.88,11.88,0,0,0-.36,2.93,24.8,24.8,0,0,0,.76,6,52.22,52.22,0,0,0,4.34,11.5,86.317,86.317,0,0,0,6.47,10.75,62.111,62.111,0,0,0,3.9,5l4.06,5v.06l-.23-.09,6.35-.93a56.208,56.208,0,0,0,6.32-1,86.574,86.574,0,0,0,12-3.61,52,52,0,0,0,10.95-5.58,25.361,25.361,0,0,0,4.58-3.92,11.812,11.812,0,0,0,1.7-2.41,3.82,3.82,0,0,0,.44-2.73,3.22,3.22,0,0,0-1.75-2,9.219,9.219,0,0,0-2.75-.88,31.551,31.551,0,0,0-5.83-.35h-2.92a14.79,14.79,0,0,1-2.95-.2,1.17,1.17,0,0,1-.77-.44,1,1,0,0,1-.14-.43,1.864,1.864,0,0,1,0-.41,2,2,0,0,1,.76-1.39,13.862,13.862,0,0,1,2.52-1.47,70.293,70.293,0,0,0,9.5-5.93,27.624,27.624,0,0,0,4-3.66,8.44,8.44,0,0,0,2.36-4.61,3.74,3.74,0,0,0-.59-2.4,5.65,5.65,0,0,0-1.86-1.71,16.26,16.26,0,0,0-4.84-1.72,43.917,43.917,0,0,0-5.05-.74l-2.53-.24a3.44,3.44,0,0,1-1.29-.34,1.27,1.27,0,0,1-.67-1.24,3.12,3.12,0,0,1,1.52-2.08l1.95-1.49,3.85-2.92,7.45-5.65c2.38-1.88,4.93-3.46,6.73-5.69a8.12,8.12,0,0,0,1.85-3.69,4.7,4.7,0,0,0-1-3.74,3.42,3.42,0,0,0-1.63-1,7.851,7.851,0,0,0-1.92-.31,31,31,0,0,0-3.87.13c-.64.05-1.27.1-1.91.1a3.34,3.34,0,0,1-1.89-.41,2.27,2.27,0,0,1-.95-1.65,5,5,0,0,1,.1-1.85h0c3.22-6.1,5.63-11.82,7.67-16.81s3.72-9.29,4.34-13a16.629,16.629,0,0,0,.2-4.9,8.07,8.07,0,0,0-1.16-3.34,4.85,4.85,0,0,0-1.55-1.51,3.429,3.429,0,0,0-.67-.32,2.451,2.451,0,0,1,.69.28,4.64,4.64,0,0,1,1.6,1.5,8.09,8.09,0,0,1,1.22,3.37,16.838,16.838,0,0,1-.16,5c-.6,3.72-2.3,8-4.29,13a179.809,179.809,0,0,1-7.62,16.88h0a5,5,0,0,0-.1,1.72,2,2,0,0,0,.82,1.43,3,3,0,0,0,1.71.35c.62,0,1.25-.05,1.88-.1a29.764,29.764,0,0,1,3.92-.15,8.181,8.181,0,0,1,2,.32,3.77,3.77,0,0,1,1.8,1.08,5,5,0,0,1,1,4,8.37,8.37,0,0,1-1.92,3.87c-1.84,2.3-4.42,3.89-6.79,5.77l-7.42,5.66-3.85,2.93c-.64.49-1.29,1-2,1.48a4.88,4.88,0,0,0-.89.79,2,2,0,0,0-.46,1,.82.82,0,0,0,.46.82,2.839,2.839,0,0,0,1.12.28l2.52.24a45.594,45.594,0,0,1,5.11.74,16.35,16.35,0,0,1,5,1.77,5.92,5.92,0,0,1,2,1.85,4.17,4.17,0,0,1,.68,2.68,9,9,0,0,1-2.47,4.89,29.682,29.682,0,0,1-4.1,3.73,70.506,70.506,0,0,1-9.56,6,13.84,13.84,0,0,0-2.42,1.41,1.49,1.49,0,0,0-.6,1,1.091,1.091,0,0,0,0,.31c0,.08,0,.27.07.25a.92.92,0,0,0,.47.22,14.551,14.551,0,0,0,2.83.17h2.92a32.851,32.851,0,0,1,5.92.35,10.13,10.13,0,0,1,2.9.93,3.74,3.74,0,0,1,2,2.37,4.39,4.39,0,0,1-.47,3.08,12.459,12.459,0,0,1-1.78,2.52,25.517,25.517,0,0,1-4.67,4,53,53,0,0,1-11.05,5.65,87.7,87.7,0,0,1-12.11,3.63,57.775,57.775,0,0,1-6.29,1.08l-6.37.93h-.15l-.09-.11-.05-.06-4.06-5a61.319,61.319,0,0,1-3.91-5.05,86.222,86.222,0,0,1-6.51-10.82A52.341,52.341,0,0,1,365,285.94a25.18,25.18,0,0,1-.77-6.1,12.759,12.759,0,0,1,.38-3.06,4.34,4.34,0,0,1,1.72-2.59,3.73,3.73,0,0,1,3.08-.4,9.9,9.9,0,0,1,2.77,1.25,32.843,32.843,0,0,1,4.62,3.72l2.14,2a14,14,0,0,0,2.21,1.77.87.87,0,0,0,.49.16,2.156,2.156,0,0,0,.22-.14,1.519,1.519,0,0,0,.22-.22,1.49,1.49,0,0,0,.26-1.18,14.16,14.16,0,0,0-.84-2.67,70.119,70.119,0,0,1-3.06-10.86,27.65,27.65,0,0,1-.52-5.51,8.86,8.86,0,0,1,1.45-5.28,4.19,4.19,0,0,1,2.3-1.54,6.29,6.29,0,0,1,2.73,0,16.709,16.709,0,0,1,4.88,2,45.618,45.618,0,0,1,4.27,2.89l2,1.51a3,3,0,0,0,1,.55.82.82,0,0,0,.89-.29,2,2,0,0,0,.34-1,5,5,0,0,0-.13-1.18l-.45-2.41c-.29-1.6-.59-3.18-.87-4.75q-.87-4.69-1.7-9.18c-.49-3-1.32-5.9-1.14-8.85a8.48,8.48,0,0,1,1.17-4.15,5.12,5.12,0,0,1,3.49-2.3,3.83,3.83,0,0,1,2.06.42,8.121,8.121,0,0,1,1.7,1.1,33.141,33.141,0,0,1,2.8,2.75c.44.46.87.92,1.32,1.34a3.09,3.09,0,0,0,1.5.89,2,2,0,0,0,1.57-.51,4.86,4.86,0,0,0,1.09-1.34h0a183.383,183.383,0,0,1,5.72-17.64c1.9-5,3.55-9.4,5.63-12.55a16.63,16.63,0,0,1,3.26-3.74,7.85,7.85,0,0,1,3.22-1.6,4.74,4.74,0,0,1,2.19,0A3.1,3.1,0,0,1,430.94,197.52Z" fill="#344154"/>
        <path id="Trazado_107279" data-name="Trazado 107279" d="M425.7,211.13a2,2,0,0,1-.1.32l-.35.94c-.32.85-.78,2.06-1.37,3.6-1.21,3.15-2.95,7.65-5.09,13.2l-16.61,43.64c-6.46,17.06-12.37,32.47-16.75,43.59-2.19,5.56-4,10.06-5.25,13.15l-1.46,3.56-.39.92a1.55,1.55,0,0,1-.15.31,1.1,1.1,0,0,1,.1-.33l.34-.94c.33-.85.79-2.06,1.38-3.6,1.21-3.14,2.94-7.65,5.08-13.2,4.26-11.19,10.13-26.61,16.62-43.64s12.37-32.47,16.75-43.59c2.19-5.56,4-10.05,5.24-13.15.63-1.52,1.12-2.71,1.46-3.56.17-.38.3-.69.4-.92A1.261,1.261,0,0,1,425.7,211.13Z" fill="#344154"/>
        <path id="Trazado_107280" data-name="Trazado 107280" d="M426.24,245.63a17.451,17.451,0,0,1-2.51,1.49l-6.12,3.41c-2.4,1.33-4.58,2.51-6.18,3.32a12.471,12.471,0,0,1-2.68,1.16,22,22,0,0,1,2.5-1.49l6.11-3.45c2.39-1.33,4.59-2.49,6.2-3.28a14.761,14.761,0,0,1,2.68-1.16Z" fill="#344154"/>
        <path id="Trazado_107281" data-name="Trazado 107281" d="M407.94,254.41c-.13.06-2.5-4.47-5.31-10.14s-5-10.3-4.84-10.36,2.5,4.47,5.31,10.13S408.07,254.35,407.94,254.41Z" fill="#344154"/>
        <path id="Trazado_107282" data-name="Trazado 107282" d="M399.2,281a14.7,14.7,0,0,1-2.2-2c-1.3-1.3-3-3.14-4.85-5.29s-3.35-4.16-4.41-5.65a15.369,15.369,0,0,1-1.61-2.5,17.8,17.8,0,0,1,1.9,2.27c1.14,1.44,2.72,3.42,4.52,5.55s3.49,4,4.72,5.37A19.435,19.435,0,0,1,399.2,281Z" fill="#344154"/>
        <path id="Trazado_107283" data-name="Trazado 107283" d="M417.49,276.75a14.088,14.088,0,0,1-2.63.77c-1.65.41-3.93,1-6.45,1.51s-4.81,1-6.48,1.35a14.221,14.221,0,0,1-2.71.41,14.091,14.091,0,0,1,2.63-.77c1.65-.41,3.93-.94,6.45-1.5s4.81-1,6.48-1.36a14.224,14.224,0,0,1,2.71-.41Z" fill="#344154"/>
        <path id="Trazado_107284" data-name="Trazado 107284" d="M412.76,301.24a24.559,24.559,0,0,1-3.4.91c-2.11.49-5,1.14-8.28,1.83s-6.18,1.28-8.32,1.68a21.819,21.819,0,0,1-3.47.54,22.893,22.893,0,0,1,3.4-.9c2.11-.5,5-1.15,8.28-1.83s6.18-1.28,8.31-1.68A24.7,24.7,0,0,1,412.76,301.24Z" fill="#344154"/>
        <path id="Trazado_107285" data-name="Trazado 107285" d="M389.82,305.93a3.651,3.651,0,0,1-.75-.68c-.46-.47-1.11-1.15-1.9-2-1.57-1.72-3.68-4.14-5.9-6.92s-4.13-5.36-5.46-7.27c-.67-1-1.19-1.74-1.54-2.29a3.849,3.849,0,0,1-.5-.88,3.841,3.841,0,0,1,.66.76l1.68,2.19c1.4,1.85,3.35,4.4,5.57,7.17s4.27,5.22,5.77,7a30.273,30.273,0,0,1,2.37,2.92Z" fill="#344154"/>
      </g>
      <g id="Grupo_57881" data-name="Grupo 57881">
        <path id="Trazado_107286" data-name="Trazado 107286" d="M379.81,372.91c-17.36-14-19.88-37.92-17.7-59.14.37-3.54.23-7.3,2.14-10.3s6-4.86,9.06-3.14c2.55,1.42,3.49,4.56,4.79,7.2a20.77,20.77,0,0,0,7.78,8.52c2.17,1.33,4.92,2.23,7.24,1.16,3.17-1.48,3.82-5.69,4.05-9.22q.6-9.87,1.23-19.74c.22-3.53.45-7.14,1.78-10.41s4-6.22,7.39-6.93,7.44,1.51,7.91,5a32.479,32.479,0,0,1-.2,4.4c0,1.48.57,3.14,1.93,3.65s2.87-.4,4-1.36c3.89-3.31,6.68-7.73,9.3-12.14s5.19-8.93,8.76-12.59,8.35-6.42,13.43-6.36,10.25,3.55,11.18,8.6-2.31,9.91-5.74,13.72a78.928,78.928,0,0,1-17.48,14.51,6.56,6.56,0,0,0-2.95,2.77c-.92,2.3,1.15,4.79,3.42,5.72,2.57,1.06,5.44,1,8.17,1.49s5.63,1.93,6.49,4.61c1.2,3.7-2.08,7.28-5.22,9.55a67.75,67.75,0,0,1-20.76,10.16c-2.66.77-5.45,1.42-7.67,3.1s-3.7,4.77-2.61,7.34,4.29,3.59,7,3.27,5.29-1.62,7.95-2.42c5-1.5,11.22-.74,14,3.67,1.85,2.89,1.77,6.74.51,10a25.84,25.84,0,0,1-5.95,8.35,68,68,0,0,1-30.38,18.38c-11.52,3.13-22,3.47-32.92-1.39" fill="#d9a171"/>
        <g id="Grupo_57880" data-name="Grupo 57880" opacity="0.1">
          <path id="Trazado_107287" data-name="Trazado 107287" d="M379.81,372.91c-17.36-14-19.88-37.92-17.7-59.14.37-3.54.23-7.3,2.14-10.3s6-4.86,9.06-3.14c2.55,1.42,3.49,4.56,4.79,7.2a20.77,20.77,0,0,0,7.78,8.52c2.17,1.33,4.92,2.23,7.24,1.16,3.17-1.48,3.82-5.69,4.05-9.22q.6-9.87,1.23-19.74c.22-3.53.45-7.14,1.78-10.41s4-6.22,7.39-6.93,7.44,1.51,7.91,5a32.479,32.479,0,0,1-.2,4.4c0,1.48.57,3.14,1.93,3.65s2.87-.4,4-1.36c3.89-3.31,6.68-7.73,9.3-12.14s5.19-8.93,8.76-12.59,8.35-6.42,13.43-6.36,10.25,3.55,11.18,8.6-2.31,9.91-5.74,13.72a78.928,78.928,0,0,1-17.48,14.51,6.56,6.56,0,0,0-2.95,2.77c-.92,2.3,1.15,4.79,3.42,5.72,2.57,1.06,5.44,1,8.17,1.49s5.63,1.93,6.49,4.61c1.2,3.7-2.08,7.28-5.22,9.55a67.75,67.75,0,0,1-20.76,10.16c-2.66.77-5.45,1.42-7.67,3.1s-3.7,4.77-2.61,7.34,4.29,3.59,7,3.27,5.29-1.62,7.95-2.42c5-1.5,11.22-.74,14,3.67,1.85,2.89,1.77,6.74.51,10a25.84,25.84,0,0,1-5.95,8.35,68,68,0,0,1-30.38,18.38c-11.52,3.13-22,3.47-32.92-1.39" fill="#d9a171"/>
        </g>
        <path id="Trazado_107288" data-name="Trazado 107288" d="M378.45,388.66a155.331,155.331,0,0,1,7.77-28.7,314.649,314.649,0,0,1,14.89-33.19l4.35-8.5c1.43-2.78,2.85-5.55,4.41-8.16a157.23,157.23,0,0,1,9.82-14.53c3.34-4.47,6.68-8.58,9.83-12.41s6.16-7.33,9-10.41a125.356,125.356,0,0,1,14.66-13.51c1.85-1.46,3.32-2.54,4.33-3.26l1.15-.81a1.84,1.84,0,0,1,.41-.25l-.37.31-1.11.86c-1,.75-2.43,1.87-4.25,3.35a131.745,131.745,0,0,0-14.48,13.63c-2.85,3.09-5.84,6.6-9,10.44s-6.44,8-9.77,12.43a159.564,159.564,0,0,0-9.74,14.49c-1.55,2.6-2.95,5.34-4.39,8.14s-2.88,5.62-4.34,8.49a323.1,323.1,0,0,0-14.91,33.1,157.607,157.607,0,0,0-7.87,28.56" fill="#344154"/>
        <path id="Trazado_107289" data-name="Trazado 107289" d="M410.06,310.09a6.4,6.4,0,0,1-.24-1.52c-.12-1-.25-2.43-.37-4.2-.26-3.55-.45-8.46-.64-13.88s-.44-10.32-.76-13.85c-.15-1.77-.28-3.2-.39-4.19a6.62,6.62,0,0,1-.09-1.54,7.591,7.591,0,0,1,.34,1.51c.19,1,.39,2.4.6,4.17.43,3.54.76,8.45.95,13.87s.33,10.19.45,13.88c.06,1.67.12,3.08.16,4.21A8,8,0,0,1,410.06,310.09Z" fill="#344154"/>
        <path id="Trazado_107290" data-name="Trazado 107290" d="M456,304.73a11,11,0,0,1-1.82.09c-1.18,0-2.87.05-5,.15-4.19.16-10,.59-16.32,1.34s-12.07,1.7-16.19,2.49c-2.06.39-3.72.74-4.87,1a9.282,9.282,0,0,1-1.8.31,10.381,10.381,0,0,1,1.74-.56c1.13-.31,2.78-.74,4.84-1.18,4.11-.92,9.83-1.93,16.21-2.69a160.27,160.27,0,0,1,16.37-1.16c2.11,0,3.81,0,5,.06a9.68,9.68,0,0,1,1.84.15Z" fill="#344154"/>
        <path id="Trazado_107291" data-name="Trazado 107291" d="M386.83,359.17a2.79,2.79,0,0,1-.27-.58c-.18-.46-.4-1-.67-1.69-.56-1.48-1.33-3.63-2.25-6.31-1.83-5.35-4.13-12.82-6.56-21.09s-4.65-15.76-6.37-21.14c-.84-2.61-1.54-4.76-2-6.36l-.55-1.74a2.351,2.351,0,0,1-.15-.62,2.469,2.469,0,0,1,.27.58l.67,1.69c.57,1.47,1.33,3.63,2.25,6.3,1.83,5.35,4.13,12.82,6.56,21.1s4.65,15.75,6.37,21.13c.84,2.62,1.54,4.77,2.05,6.37l.55,1.74A2.351,2.351,0,0,1,386.83,359.17Z" fill="#344154"/>
        <path id="Trazado_107292" data-name="Trazado 107292" d="M448.47,343.87a2.72,2.72,0,0,1-.62.2l-1.79.47-6.6,1.65c-5.57,1.39-13.25,3.41-21.73,5.64s-16.18,4.19-21.79,5.47c-2.8.64-5.07,1.13-6.65,1.44l-1.81.35a2.821,2.821,0,0,1-.65.08,2,2,0,0,1,.62-.21l1.79-.47,6.6-1.65c5.57-1.39,13.25-3.4,21.73-5.64s16.18-4.18,21.78-5.46c2.81-.64,5.08-1.14,6.66-1.45l1.81-.35A2.42,2.42,0,0,1,448.47,343.87Z" fill="#344154"/>
      </g>
      <g id="Grupo_57889" data-name="Grupo 57889">
        <rect id="Rectángulo_8383" data-name="Rectángulo 8383" width="242.51" height="332.3" transform="translate(141.35 96.86)" fill="#5e6178"/>
        <path id="Trazado_107293" data-name="Trazado 107293" d="M374.27,409.4H161.54V110.3H374.27V409.4Z" fill="#839eb6"/>
        <path id="Trazado_107294" data-name="Trazado 107294" d="M370.91,403.86H160.09V106.34H370.91V403.86Z" fill="#aed3f2"/>
        <g id="Grupo_57882" data-name="Grupo 57882">
          <path id="Trazado_107295" data-name="Trazado 107295" d="M348.25,380.7l-24.28,19.77H156.16V107.09H368.89V363.98Z" fill="#fafafa"/>
          <path id="Trazado_107296" data-name="Trazado 107296" d="M348.25,380.7s.43-.37,1.3-1.08l3.89-3.18,15.4-12.53v.06c0-42.19-.08-136-.15-256.88l.24.24H156.2l.26-.26V400.45l-.21-.21,167.81.12h-.05l18.23-14.79,4.57-3.69,1.53-1.22s-.49.43-1.5,1.26l-4.54,3.72L324,400.54h0l-167.81.12H156V106.81H369.1v.23C369.05,228,369,321.78,369,364h0l-15.45,12.47-3.91,3.15C348.7,380.36,348.25,380.7,348.25,380.7Z" fill="#344154"/>
        </g>
        <path id="Trazado_107297" data-name="Trazado 107297" d="M233.82,86.59H292a14.15,14.15,0,0,1,14.15,14.15v15.69H219.07V101.35a14.76,14.76,0,0,1,14.75-14.76Z" fill="#d9a171"/>
        <path id="Trazado_107298" data-name="Trazado 107298" d="M240.39,86.59l-3.18-16.1h50.13l-2.79,16.1Z" fill="#d9a171"/>
        <g id="Grupo_57883" data-name="Grupo 57883">
          <path id="Trazado_107299" data-name="Trazado 107299" d="M214.25,189.67H178.41V153.83h35.84Zm-34.84-1h33.84V154.83H179.41Z" fill="#d9a171"/>
          <path id="Trazado_107300" data-name="Trazado 107300" d="M340.89,162.49c0,.14-24.95.26-55.71.26s-55.72-.12-55.72-.26,24.94-.26,55.72-.26S340.89,162.35,340.89,162.49Z" fill="#344154"/>
          <path id="Trazado_107301" data-name="Trazado 107301" d="M340.89,169.94c0,.14-24.95.26-55.71.26s-55.72-.12-55.72-.26,24.94-.26,55.72-.26S340.89,169.79,340.89,169.94Z" fill="#344154"/>
          <path id="Trazado_107302" data-name="Trazado 107302" d="M340.89,177.38c0,.15-24.95.26-55.71.26s-55.72-.11-55.72-.26,24.94-.26,55.72-.26S340.89,177.24,340.89,177.38Z" fill="#344154"/>
          <path id="Trazado_107303" data-name="Trazado 107303" d="M340.89,184.83c0,.14-24.95.26-55.71.26s-55.72-.12-55.72-.26,24.94-.26,55.72-.26S340.89,184.69,340.89,184.83Z" fill="#344154"/>
        </g>
        <g id="Grupo_57884" data-name="Grupo 57884">
          <path id="Trazado_107304" data-name="Trazado 107304" d="M214.25,244.91H178.41V209.07h35.84Zm-34.84-1h33.84V210.07H179.41Z" fill="#d9a171"/>
          <path id="Trazado_107305" data-name="Trazado 107305" d="M185.54,227.72l4.75-5.1,7.93,6.34,18.15-17.62,4.35,5.12L197.87,239Z" fill="#d9a171"/>
          <path id="Trazado_107306" data-name="Trazado 107306" d="M340.89,217.72c0,.15-24.95.26-55.71.26s-55.72-.11-55.72-.26,24.94-.26,55.72-.26S340.89,217.58,340.89,217.72Z" fill="#344154"/>
          <path id="Trazado_107307" data-name="Trazado 107307" d="M340.89,225.17c0,.14-24.95.26-55.71.26s-55.72-.12-55.72-.26,24.94-.26,55.72-.26S340.89,225,340.89,225.17Z" fill="#344154"/>
          <path id="Trazado_107308" data-name="Trazado 107308" d="M340.89,232.62c0,.14-24.95.26-55.71.26s-55.72-.12-55.72-.26,24.94-.26,55.72-.26S340.89,232.47,340.89,232.62Z" fill="#344154"/>
          <path id="Trazado_107309" data-name="Trazado 107309" d="M340.89,240.06c0,.15-24.95.26-55.71.26s-55.72-.11-55.72-.26,24.94-.26,55.72-.26S340.89,239.92,340.89,240.06Z" fill="#344154"/>
        </g>
        <g id="Grupo_57885" data-name="Grupo 57885">
          <path id="Trazado_107310" data-name="Trazado 107310" d="M214.25,298.35H178.41V262.52h35.84Zm-34.84-1h33.84V263.52H179.41Z" fill="#d9a171"/>
          <path id="Trazado_107311" data-name="Trazado 107311" d="M185.54,281.17l4.75-5.11,7.93,6.35,18.15-17.62,4.35,5.12-22.85,22.54Z" fill="#d9a171"/>
          <path id="Trazado_107312" data-name="Trazado 107312" d="M340.89,271.17c0,.14-24.95.26-55.71.26s-55.72-.12-55.72-.26,24.94-.26,55.72-.26S340.89,271,340.89,271.17Z" fill="#344154"/>
          <path id="Trazado_107313" data-name="Trazado 107313" d="M340.89,278.62c0,.14-24.95.26-55.71.26s-55.72-.12-55.72-.26,24.94-.26,55.72-.26S340.89,278.47,340.89,278.62Z" fill="#344154"/>
          <path id="Trazado_107314" data-name="Trazado 107314" d="M340.89,286.07c0,.14-24.95.26-55.71.26s-55.72-.12-55.72-.26,24.94-.27,55.72-.27S340.89,285.92,340.89,286.07Z" fill="#344154"/>
          <path id="Trazado_107315" data-name="Trazado 107315" d="M340.89,293.51c0,.15-24.95.26-55.71.26s-55.72-.11-55.72-.26,24.94-.26,55.72-.26S340.89,293.37,340.89,293.51Z" fill="#344154"/>
        </g>
        <g id="Grupo_57886" data-name="Grupo 57886">
          <path id="Trazado_107316" data-name="Trazado 107316" d="M214.25,350H178.41V314.12h35.84Zm-34.84-1h33.84V315.12H179.41Z" fill="#d9a171"/>
          <path id="Trazado_107317" data-name="Trazado 107317" d="M185.54,332.78l4.75-5.11,7.93,6.34,18.15-17.62,4.35,5.12-22.85,22.55Z" fill="#d9a171"/>
          <path id="Trazado_107318" data-name="Trazado 107318" d="M340.89,322.78c0,.14-24.95.26-55.71.26s-55.72-.12-55.72-.26,24.94-.26,55.72-.26S340.89,322.63,340.89,322.78Z" fill="#344154"/>
          <path id="Trazado_107319" data-name="Trazado 107319" d="M340.89,330.22c0,.15-24.95.26-55.71.26s-55.72-.11-55.72-.26,24.94-.26,55.72-.26S340.89,330.08,340.89,330.22Z" fill="#344154"/>
          <path id="Trazado_107320" data-name="Trazado 107320" d="M340.89,337.67c0,.14-24.95.26-55.71.26s-55.72-.12-55.72-.26,24.94-.26,55.72-.26S340.89,337.53,340.89,337.67Z" fill="#344154"/>
          <path id="Trazado_107321" data-name="Trazado 107321" d="M340.89,345.12c0,.14-24.95.26-55.71.26s-55.72-.12-55.72-.26,24.94-.26,55.72-.26S340.89,345,340.89,345.12Z" fill="#344154"/>
        </g>
        <path id="Trazado_107322" data-name="Trazado 107322" d="M330.64,351.9l-23.32,48.3h16.65Z" fill="#839eb6"/>
        <g id="Grupo_57887" data-name="Grupo 57887">
          <path id="Trazado_107323" data-name="Trazado 107323" d="M323.97,400.47l6.67-48.3,38.25,11.81Z" fill="#fafafa"/>
          <path id="Trazado_107324" data-name="Trazado 107324" d="M324,400.47l12.86-10.58c8-6.55,19.15-15.68,31.9-26.11l.08.44-14.76-4.55-23.48-7.26.32-.2c-2,14-3.72,26-4.93,34.59-1.21,8.3-1.83,12.59-2,13.67a1.913,1.913,0,0,0,0-.21l.09-.67c.08-.63.19-1.5.34-2.63.31-2.35.76-5.72,1.32-10l4.66-34.86v-.29l.28.09,23.48,7.23,14.84,4.6.46.14-.37.3-32.28,26-9.43,7.57-2.51,2-.65.51C324,400.43,324,400.48,324,400.47Z" fill="#344154"/>
        </g>
        <g id="Grupo_57888" data-name="Grupo 57888" opacity="0.3">
          <path id="Trazado_107325" data-name="Trazado 107325" d="M283.88,70.49l-2.77,16.1h3.44l2.79-16.1h-4.39" fill="#d9a171"/>
        </g>
      </g>
      <g id="Grupo_57906" data-name="Grupo 57906">
        <g id="Grupo_57890" data-name="Grupo 57890">
          <path id="Trazado_107326" data-name="Trazado 107326" d="M137,240.3h0a9,9,0,0,0,9.68-8.63c.19-4.9.35-9.85.35-9.85s7.42-.69,8-8,.29-24.3.29-24.3h0a25.58,25.58,0,0,0-25.86,1.66l.46,25.85v13.9C130,235.57,132.39,239.94,137,240.3Z" fill="#ffbf9d"/>
          <path id="Trazado_107327" data-name="Trazado 107327" d="M147.71,204.82a3.76,3.76,0,0,0-5-1.09,4.26,4.26,0,0,0-1.42,5.33,5.63,5.63,0,0,0,3.6,2.73,2.82,2.82,0,0,1,2.21,3,9.36,9.36,0,0,1-2.58,5.12,13.53,13.53,0,0,1-8.5,4c-3.13.37-6.71-.28-8.53-2.85-1.32-1.87-1.42-4.31-1.47-6.61l-.33-16.24a23.2,23.2,0,0,1,.37-5.83,7.85,7.85,0,0,1,3.07-4.82c1.79-1.17,4-1.27,6.09-1.93,2.54-.82,4.7-2.51,7.08-3.73s5.3-1.94,7.68-.74c1.72.86,2.87,2.57,4.54,3.52,2.37,1.35,5.6,1,6.76,4.53a6.05,6.05,0,0,1,0,3.74c-1.61,4.75-7.5,6.66-11.74,4.61-.08.8.71,2.59-.13,5.14-.28.81-.37,2.05-1.64,2.07" fill="#344154"/>
          <path id="Trazado_107328" data-name="Trazado 107328" d="M127.44,189.7a24.6,24.6,0,0,0,2.36-7.37,8.43,8.43,0,0,0-2.31-7.13,6.91,6.91,0,0,0-4.84-1.71,8.16,8.16,0,0,0-7.38,5.84,8.83,8.83,0,0,0,3,9,9.55,9.55,0,0,0,9.51,1.24" fill="#344154"/>
          <path id="Trazado_107329" data-name="Trazado 107329" d="M128.89,187a2.88,2.88,0,0,1-1.09,2.37,2.84,2.84,0,0,1-2.39,1,16.559,16.559,0,0,0,2-1.39A11.285,11.285,0,0,0,128.89,187Z" fill="#d9a171"/>
          <path id="Trazado_107330" data-name="Trazado 107330" d="M126.47,188.82a7,7,0,0,1-2,1.46,5.71,5.71,0,0,1-2.63.74,3.66,3.66,0,0,1-3.07-1.37,4.1,4.1,0,0,1-.54-3.32,6.3,6.3,0,0,1,1.24-2.43,7.8,7.8,0,0,1,1.73-1.76,21.851,21.851,0,0,1-1.44,2,6.55,6.55,0,0,0-1.06,2.32,3.74,3.74,0,0,0,.49,2.91,3.22,3.22,0,0,0,2.65,1.2,5.72,5.72,0,0,0,2.46-.59C125.65,189.3,126.42,188.74,126.47,188.82Z" fill="#344154"/>
          <path id="Trazado_107331" data-name="Trazado 107331" d="M114,197.11a4,4,0,0,1,.36.82,8.35,8.35,0,0,0,1.08,2.09,3,3,0,0,0,2.87,1.32,3.92,3.92,0,0,0,2.77-2.78,28.18,28.18,0,0,0,.75-4.27,6.58,6.58,0,0,1,1.4-3.36,3.61,3.61,0,0,1,2.14-1.22,1.45,1.45,0,0,1,.9.07c0,.05-.32,0-.86.13a3.58,3.58,0,0,0-1.9,1.26,6.53,6.53,0,0,0-1.2,3.2,26.51,26.51,0,0,1-.74,4.36,4.36,4.36,0,0,1-3.17,3.09,2.9,2.9,0,0,1-2-.39,4.29,4.29,0,0,1-1.27-1.19,7.29,7.29,0,0,1-1-2.25,3,3,0,0,1-.13-.88Z" fill="#344154"/>
        </g>
        <path id="Trazado_107332" data-name="Trazado 107332" d="M110.38,258.81s-3.74,27.42,0,30.89,7.35,2.33,7.35,2.33l7.12-6,1.41-27.26Z" fill="#ffbf9d"/>
        <g id="Grupo_57891" data-name="Grupo 57891">
          <path id="Trazado_107333" data-name="Trazado 107333" d="M187.84,181.83l4.75-5.11,7.93,6.35,18.15-17.63,4.35,5.13-22.85,22.54Z" fill="#d9a171"/>
          <path id="Trazado_107334" data-name="Trazado 107334" d="M210.19,183.22l-6.9,4.43c-.31-2.72-2.39-5.43-2.28-4.06s0,8.48,0,8.48L188.71,218c-1.67,4.1-5.06,6.68-7.59,7.29l-11.48,3.42,4.49,15.18,16-5.29a13.79,13.79,0,0,0,8.75-8.78l11-33.52a51.559,51.559,0,0,0,1.78-6.61C212.09,186.86,210.19,183.22,210.19,183.22Z" fill="#ffbf9d"/>
        </g>
        <g id="Grupo_57895" data-name="Grupo 57895">
          <g id="Grupo_57893" data-name="Grupo 57893">
            <path id="Trazado_107335" data-name="Trazado 107335" d="M153.66,466.4l-.17-7.68L139.1,459l.14,11.24h.89c4,.16,20.21.52,22.85-.33C165.92,469,153.66,466.4,153.66,466.4Z" fill="#d9a171"/>
            <g id="Grupo_57892" data-name="Grupo 57892" opacity="0.5">
              <path id="Trazado_107336" data-name="Trazado 107336" d="M144.45,470a5,5,0,0,0-1.89-3,4.82,4.82,0,0,0-3.37-1l.06,4Z" fill="#fff"/>
            </g>
          </g>
          <g id="Grupo_57894" data-name="Grupo 57894" opacity="0.4">
            <path id="Trazado_107337" data-name="Trazado 107337" d="M159.65,467.86s4.31,1.17,3.78,1.88-16.94,1-24.19.45v-.33l19.16-.13S158.82,467.91,159.65,467.86Z" fill="#fff"/>
          </g>
          <path id="Trazado_107338" data-name="Trazado 107338" d="M139,469.86h.96l2.61.08c2.21,0,5.26.06,8.64,0s6.42-.16,8.63-.27l2.61-.15.71-.05h-.71l-2.62.09c-2.21.08-5.26.17-8.63.22s-6.42.05-8.63,0H139Z" fill="#344154"/>
          <path id="Trazado_107339" data-name="Trazado 107339" d="M158.41,470a6,6,0,0,1,.47-1.26,5.449,5.449,0,0,1,.88-1,1.86,1.86,0,0,0-1,.92A2,2,0,0,0,158.41,470Z" fill="#344154"/>
          <path id="Trazado_107340" data-name="Trazado 107340" d="M154.13,467.87a1.826,1.826,0,0,0,.45-.56c.21-.33.34-.63.3-.65s-.24.22-.45.56S154.09,467.84,154.13,467.87Z" fill="#344154"/>
          <path id="Trazado_107341" data-name="Trazado 107341" d="M153,467.27a2.059,2.059,0,0,0,.5-.35c.24-.23.42-.43.39-.47s-.26.12-.51.35S152.93,467.23,153,467.27Z" fill="#344154"/>
          <path id="Trazado_107342" data-name="Trazado 107342" d="M152.2,465.92a1.65,1.65,0,0,0,.75.09.39.39,0,1,0,0-.18A2.05,2.05,0,0,0,152.2,465.92Z" fill="#344154"/>
          <path id="Trazado_107343" data-name="Trazado 107343" d="M151.94,465a1.48,1.48,0,0,0,.84.23,1.42,1.42,0,0,0,.86-.13,5,5,0,0,0-.85,0,4.262,4.262,0,0,0-.85-.1Z" fill="#344154"/>
          <path id="Trazado_107344" data-name="Trazado 107344" d="M154.6,466.61a2.94,2.94,0,0,0,.93,0,5.76,5.76,0,0,0,1-.24,2.2,2.2,0,0,0,.56-.24.48.48,0,0,0,.22-.29.35.35,0,0,0-.14-.36,1.69,1.69,0,0,0-2.09.52,1.579,1.579,0,0,0-.29.62v.25a2.521,2.521,0,0,1,.4-.79,1.72,1.72,0,0,1,.79-.53,1.45,1.45,0,0,1,1.1.06c.15.11.09.28-.07.38a2.422,2.422,0,0,1-.52.23,5.409,5.409,0,0,1-.94.26C155,466.57,154.6,466.58,154.6,466.61Z" fill="#344154"/>
          <path id="Trazado_107345" data-name="Trazado 107345" d="M154.84,466.65a.87.87,0,0,0,.1-.65,1.57,1.57,0,0,0-.26-.67,1,1,0,0,0-.78-.46.38.38,0,0,0-.28.44,1.08,1.08,0,0,0,.17.41,2.859,2.859,0,0,0,.44.55,1.26,1.26,0,0,0,.53.36,6.155,6.155,0,0,1-.44-.45,3.271,3.271,0,0,1-.4-.55c-.13-.19-.22-.54,0-.58s.47.2.62.38a1.51,1.51,0,0,1,.27.6,3.67,3.67,0,0,1,.03.62Z" fill="#344154"/>
          <path id="Trazado_107346" data-name="Trazado 107346" d="M139.26,465.92a5.922,5.922,0,0,1,1.06,0,4.62,4.62,0,0,1,2.34.92,4.81,4.81,0,0,1,1.48,2c.23.62.25,1,.29,1a.93.93,0,0,0,0-.29,3.469,3.469,0,0,0-.17-.78,4.51,4.51,0,0,0-1.49-2.12,4.44,4.44,0,0,0-2.43-.9,3.721,3.721,0,0,0-.79,0,.9.9,0,0,0-.29.17Z" fill="#344154"/>
          <path id="Trazado_107347" data-name="Trazado 107347" d="M140.66,459.91a25.691,25.691,0,0,0-.08,3,22.92,22.92,0,0,0,.1,2.95,27.164,27.164,0,0,0,.07-2.95,24.27,24.27,0,0,0-.09-3Z" fill="#344154"/>
          <path id="Trazado_107348" data-name="Trazado 107348" d="M146.24,468.56a8.74,8.74,0,0,0,2.1.18,7.85,7.85,0,0,0,2.1-.21h-2.1A18.325,18.325,0,0,0,146.24,468.56Z" fill="#344154"/>
          <path id="Trazado_107349" data-name="Trazado 107349" d="M143.42,468.6s.08.2.18.41.15.4.2.4.07-.23,0-.47S143.45,468.56,143.42,468.6Z" fill="#344154"/>
          <path id="Trazado_107350" data-name="Trazado 107350" d="M142.34,467.29a.861.861,0,0,0,.21.33c.15.14.3.24.33.21s-.06-.18-.21-.33S142.37,467.26,142.34,467.29Z" fill="#344154"/>
          <path id="Trazado_107351" data-name="Trazado 107351" d="M140.81,466.71c0,.05.2.05.41.12s.37.18.4.14-.08-.22-.35-.31S140.79,466.67,140.81,466.71Z" fill="#344154"/>
          <path id="Trazado_107352" data-name="Trazado 107352" d="M139.72,466.44c0,.05.07.12.19.17a.35.35,0,0,0,.24,0,.342.342,0,0,0-.18-.16C139.85,466.4,139.74,466.4,139.72,466.44Z" fill="#344154"/>
        </g>
        <g id="Grupo_57899" data-name="Grupo 57899">
          <g id="Grupo_57897" data-name="Grupo 57897">
            <path id="Trazado_107353" data-name="Trazado 107353" d="M102.9,463.94l4.88-5.93L96.72,448.8l-7.22,8.61.65.61c2.91,2.71,15,13.57,17.53,14.66C110.53,473.88,102.9,463.94,102.9,463.94Z" fill="#d9a171"/>
            <g id="Grupo_57896" data-name="Grupo 57896" opacity="0.5">
              <path id="Trazado_107354" data-name="Trazado 107354" d="M93.58,460.66a5,5,0,0,0,.55-3.53,4.87,4.87,0,0,0-1.91-3l-2.58,3.09Z" fill="#fff"/>
            </g>
          </g>
          <g id="Grupo_57898" data-name="Grupo 57898" opacity="0.4">
            <path id="Trazado_107355" data-name="Trazado 107355" d="M106.49,469s2.5,3.69,1.64,3.89S94.66,462.53,89.5,457.41l.22-.24,14.61,12.4S105.83,468.45,106.49,469Z" fill="#fff"/>
          </g>
          <path id="Trazado_107356" data-name="Trazado 107356" d="M89.55,457l.18.18.51.49,1.94,1.76c1.65,1.48,3.95,3.48,6.53,5.65s5,4.06,6.72,5.42l2.08,1.59.57.42a.819.819,0,0,0,.21.14l-.19-.16c-.16-.14-.34-.29-.55-.45l-2-1.64c-1.73-1.38-4.1-3.3-6.69-5.46s-4.89-4.15-6.56-5.6l-2-1.72-.54-.46A1,1,0,0,0,89.55,457Z" fill="#344154"/>
          <path id="Trazado_107357" data-name="Trazado 107357" d="M104.18,469.74a5.881,5.881,0,0,1,1.18-.65,5.629,5.629,0,0,1,1.32-.19,1.91,1.91,0,0,0-1.38,0,2,2,0,0,0-1.12.84Z" fill="#344154"/>
          <path id="Trazado_107358" data-name="Trazado 107358" d="M102.3,465.37a1.7,1.7,0,0,0,.71-.14c.37-.12.66-.25.64-.3a1.669,1.669,0,0,0-.7.14C102.58,465.19,102.29,465.32,102.3,465.37Z" fill="#344154"/>
          <path id="Trazado_107359" data-name="Trazado 107359" d="M101.8,464.15c0,.05.28.08.61.06s.6-.06.6-.11a1.28,1.28,0,0,0-.61-.06C102.07,464.05,101.8,464.1,101.8,464.15Z" fill="#344154"/>
          <path id="Trazado_107360" data-name="Trazado 107360" d="M102.11,462.63a3.387,3.387,0,0,0,.51.56c.31.27.6.46.63.42s-.2-.29-.51-.55A2,2,0,0,0,102.11,462.63Z" fill="#344154"/>
          <path id="Trazado_107361" data-name="Trazado 107361" d="M102.53,461.74a1.44,1.44,0,0,0,.48.72,1.52,1.52,0,0,0,.74.47,6.027,6.027,0,0,0-.62-.6C102.79,462,102.57,461.71,102.53,461.74Z" fill="#344154"/>
          <path id="Trazado_107362" data-name="Trazado 107362" d="M103.48,464.72a2.8,2.8,0,0,0,.72.58,5.59,5.59,0,0,0,.89.47,3,3,0,0,0,.58.18.53.53,0,0,0,.36-.07.38.38,0,0,0,.13-.38,1.69,1.69,0,0,0-1.93-1,1.641,1.641,0,0,0-.62.28c-.13.1-.19.17-.18.18a2.67,2.67,0,0,1,.83-.34,1.64,1.64,0,0,1,.93.11,1.47,1.47,0,0,1,.8.77.23.23,0,0,1-.3.24,2.573,2.573,0,0,1-.54-.16,5.753,5.753,0,0,1-.89-.42C103.77,464.92,103.5,464.69,103.48,464.72Z" fill="#344154"/>
          <path id="Trazado_107363" data-name="Trazado 107363" d="M103.64,464.9a.968.968,0,0,0,.49-.42,1.61,1.61,0,0,0,.24-.68,1,1,0,0,0-.29-.86.37.37,0,0,0-.49.15,1,1,0,0,0-.15.42,2.88,2.88,0,0,0,0,.71,1.23,1.23,0,0,0,.17.62s0-.24,0-.63a3.379,3.379,0,0,1,.06-.67c0-.24.19-.56.39-.44a.82.82,0,0,1,.22.69,1.51,1.51,0,0,1-.19.63A2.811,2.811,0,0,1,103.64,464.9Z" fill="#344154"/>
          <path id="Trazado_107364" data-name="Trazado 107364" d="M92.3,454.19a5.275,5.275,0,0,1,.79.71,4.5,4.5,0,0,1,1,4.72,9,9,0,0,1-.45,1,1.477,1.477,0,0,0,.19-.22,3.542,3.542,0,0,0,.38-.7,4.39,4.39,0,0,0-1-4.85,3.91,3.91,0,0,0-.62-.49C92.4,454.22,92.31,454.18,92.3,454.19Z" fill="#344154"/>
          <path id="Trazado_107365" data-name="Trazado 107365" d="M97.28,450.55a22.857,22.857,0,0,0-2,2.19,24.361,24.361,0,0,0-1.85,2.3,27.459,27.459,0,0,0,2-2.19,25.611,25.611,0,0,0,1.85-2.3Z" fill="#344154"/>
          <path id="Trazado_107366" data-name="Trazado 107366" d="M95.87,460.74a7.71,7.71,0,0,0,1.48,1.51,8.12,8.12,0,0,0,1.72,1.21s-.73-.6-1.61-1.35S95.9,460.71,95.87,460.74Z" fill="#344154"/>
          <path id="Trazado_107367" data-name="Trazado 107367" d="M93.7,458.93s-.06.2-.13.43-.15.41-.11.44.21-.13.28-.39S93.75,458.92,93.7,458.93Z" fill="#344154"/>
          <path id="Trazado_107368" data-name="Trazado 107368" d="M93.73,457.24a.613.613,0,0,0,0,.39c.07.22.07.37.12.37s.07-.18,0-.39S93.78,457.23,93.73,457.24Z" fill="#344154"/>
          <path id="Trazado_107369" data-name="Trazado 107369" d="M93,455.8a2.72,2.72,0,0,1,.24.36c.11.2.16.37.21.37s.09-.23-.06-.47S93,455.75,93,455.8Z" fill="#344154"/>
          <path id="Trazado_107370" data-name="Trazado 107370" d="M92.31,454.89v.24a.185.185,0,0,0,.19.16c.04-.02,0-.13,0-.24S92.35,454.86,92.31,454.89Z" fill="#344154"/>
        </g>
        <g id="Grupo_57900" data-name="Grupo 57900">
          <path id="Trazado_107371" data-name="Trazado 107371" d="M132.83,303.26s-4.78,20.26-3.43,24.27,10.13,6.33,10.13,6.33l-.3,55.48-48.52,60L108.63,464s52.53-60.1,57.16-71-2.95-90.65-2.95-90.65Z" fill="#344154"/>
          <path id="Trazado_107372" data-name="Trazado 107372" d="M157.62,295,160,463.53l-24.68.12L122.92,326.4h0c-2.62-2.5-6.3-6.79-5.8-16.33l.61-11.09Z" fill="#344154"/>
          <path id="Trazado_107373" data-name="Trazado 107373" d="M131.59,398.73s0-.09.14-.25l.47-.69,1.84-2.6,6.69-9.27v.13c-.54-5.85-1.19-12.95-1.89-20.6-.9-10-1.62-19.1-2.05-25.68-.22-3.29-.36-6-.44-7.8,0-.88-.05-1.59-.07-2.12a3.77,3.77,0,0,1,0-.74,3.54,3.54,0,0,1,.09.73c0,.54.1,1.24.17,2.12.15,1.89.36,4.54.61,7.78.52,6.57,1.3,15.65,2.2,25.67.67,7.67,1.36,14.76,1.8,20.63v.13l-6.85,9.16-1.92,2.53-.52.66a1.32,1.32,0,0,1-.27.21Z" fill="#5e6178"/>
          <path id="Trazado_107374" data-name="Trazado 107374" d="M139.17,329.11a33.309,33.309,0,0,1-6.54-1,33.761,33.761,0,0,1-6.37-1.73,54.318,54.318,0,0,1,6.48,1.22,54,54,0,0,1,6.43,1.51Z" fill="#5e6178"/>
          <path id="Trazado_107375" data-name="Trazado 107375" d="M156.08,386.64a25.14,25.14,0,0,0-6.67-1.73,25.38,25.38,0,0,0-6.86.66,5.809,5.809,0,0,1,1.93-.75,15.13,15.13,0,0,1,9.81.78A5.62,5.62,0,0,1,156.08,386.64Z" fill="#5e6178"/>
          <path id="Trazado_107376" data-name="Trazado 107376" d="M164.78,394.45c.12.09-6.83,9.41-15.51,20.82s-15.8,20.59-15.92,20.5,6.83-9.41,15.51-20.82S164.67,394.37,164.78,394.45Z" fill="#5e6178"/>
          <path id="Trazado_107377" data-name="Trazado 107377" d="M161.44,307.52a4.25,4.25,0,0,1-1.39,1.83A6.87,6.87,0,0,1,150,308.29a4.16,4.16,0,0,1-1-2.08,21.623,21.623,0,0,0,1.26,1.85,6.86,6.86,0,0,0,9.55,1C160.91,308.23,161.36,307.46,161.44,307.52Z" fill="#5e6178"/>
        </g>
        <path id="Trazado_107378" data-name="Trazado 107378" d="M127.71,220.81a21.53,21.53,0,0,1-1.17-30" fill="#344154"/>
        <g id="Grupo_57905" data-name="Grupo 57905">
          <g id="Grupo_57904" data-name="Grupo 57904">
            <path id="Trazado_107379" data-name="Trazado 107379" d="M113.85,236.53s-5.37,6.06-6.48,29.23c0,0,15.28,2.9,15.55,2.06S113.85,236.53,113.85,236.53Z" fill="#d9a171"/>
            <g id="Grupo_57901" data-name="Grupo 57901" opacity="0.3">
              <path id="Trazado_107380" data-name="Trazado 107380" d="M113.85,236.53s-5.37,6.06-6.48,29.23c0,0,15.28,2.9,15.55,2.06S113.85,236.53,113.85,236.53Z" fill="#d9a171"/>
            </g>
            <g id="Grupo_57903" data-name="Grupo 57903">
              <path id="Trazado_107381" data-name="Trazado 107381" d="M116.32,304h46.89l-.76-7.32s-5.36-27.87-5.32-28.24l.85-1.77a17.71,17.71,0,0,0,.2-14.75h0l23-7.85-5.62-18.94c-10.42,1.76-26.17,3.72-26.17,3.72l-2.34.2s-16.26.84-16.6.89c-6.8.82-14.72,1.34-17.61,8.62-1.55,3.89-.08,9.73,2.45,15.75l6,18.5c2.4,10.17-1.43,9.69-3.53,19.92C117.41,294.29,116.29,302.59,116.32,304Z" fill="#d9a171"/>
              <g id="Grupo_57902" data-name="Grupo 57902" opacity="0.3">
                <path id="Trazado_107382" data-name="Trazado 107382" d="M116.32,304h46.89l-.76-7.32s-5.36-27.87-5.32-28.24l.85-1.77a17.71,17.71,0,0,0,.2-14.75h0l23-7.85-5.62-18.94c-10.42,1.76-26.17,3.72-26.17,3.72l-2.34.2s-16.26.84-16.6.89c-6.8.82-14.72,1.34-17.61,8.62-1.55,3.89-.08,9.73,2.45,15.75l6,18.5c2.4,10.17-1.43,9.69-3.53,19.92C117.41,294.29,116.29,302.59,116.32,304Z" fill="#d9a171"/>
              </g>
            </g>
            <path id="Trazado_107383" data-name="Trazado 107383" d="M180.93,244.39a4.209,4.209,0,0,1-1,.43c-.67.24-1.64.58-2.84,1-2.4.81-5.73,1.89-9.41,3.06s-7,2.35-9.31,3.32c-1.17.47-2.1.89-2.76,1.17a4,4,0,0,1-1,.4,4.08,4.08,0,0,1,.93-.58c.63-.34,1.54-.81,2.7-1.33a88.8,88.8,0,0,1,9.3-3.47c3.68-1.18,7-2.2,9.46-2.92,1.21-.36,2.2-.64,2.89-.82a4.569,4.569,0,0,1,1.04-.26Z" fill="#344154"/>
          </g>
          <path id="Trazado_107384" data-name="Trazado 107384" d="M178.2,234.3c0,.15-13.86.26-31,.26s-31-.11-31-.26,13.86-.26,31-.26S178.2,234.16,178.2,234.3Z" fill="#fafafa"/>
          <path id="Trazado_107385" data-name="Trazado 107385" d="M179.63,243.51c0,.15-15.43.26-34.45.26s-34.46-.11-34.46-.26,15.42-.26,34.46-.26S179.63,243.37,179.63,243.51Z" fill="#fafafa"/>
          <path id="Trazado_107386" data-name="Trazado 107386" d="M114.56,254a8,8,0,0,1-2.87.26,8,8,0,0,1-2.87-.26,8.22,8.22,0,0,1,2.87-.26,8.27,8.27,0,0,1,2.87.26Z" fill="#fafafa"/>
          <path id="Trazado_107387" data-name="Trazado 107387" d="M159.62,254.31c0,.14-10.09.26-22.53.26s-22.53-.12-22.53-.26,10.09-.26,22.53-.26S159.62,254.17,159.62,254.31Z" fill="#fafafa"/>
          <path id="Trazado_107388" data-name="Trazado 107388" d="M158.63,265.11c0,.14-9,.26-20.22.26s-20.23-.12-20.23-.26,9.06-.26,20.23-.26S158.63,265,158.63,265.11Z" fill="#fafafa"/>
          <path id="Trazado_107389" data-name="Trazado 107389" d="M158.34,275.11c0,.14-8.21.26-18.33.26s-18.33-.12-18.33-.26,8.2-.26,18.33-.26S158.34,275,158.34,275.11Z" fill="#fafafa"/>
          <path id="Trazado_107390" data-name="Trazado 107390" d="M159.94,283.21c0,.14-8.78.26-19.61.26s-19.61-.12-19.61-.26,8.78-.26,19.61-.26S159.94,283.06,159.94,283.21Z" fill="#fafafa"/>
          <path id="Trazado_107391" data-name="Trazado 107391" d="M162.48,293.53c0,.14-10,.26-22.31.26s-22.3-.12-22.3-.26,10-.26,22.3-.26S162.48,293.38,162.48,293.53Z" fill="#fafafa"/>
          <path id="Trazado_107392" data-name="Trazado 107392" d="M121,272a3.73,3.73,0,0,1-.42-.92c-.27-.72-.6-1.57-1-2.56-.83-2.17-2-5.15-3.2-8.47s-2.21-6.37-2.84-8.61c-.31-1.12-.55-2-.68-2.66a3.34,3.34,0,0,1-.16-1c.07,0,.48,1.36,1.2,3.55s1.76,5.22,3,8.54,2.32,6.32,3,8.52c.38,1.1.66,2,.84,2.62a4.36,4.36,0,0,1,.26.99Z" fill="#344154"/>
        </g>
      </g>
    </g>
  </g>
</svg>
