<svg id="Capa_2" data-name="Capa 2" xmlns="http://www.w3.org/2000/svg" width="500" height="500" viewBox="0 0 500 500">
  <g id="Grupo_57620" data-name="Grupo 57620">
    <rect id="Rectángulo_8266" data-name="Rectángulo 8266" width="500" height="500" fill="#d9a171" opacity="0"/>
    <g id="Grupo_57619" data-name="Grupo 57619">
      <g id="freepik--background-complete--inject-131">
        <rect id="Rectángulo_8267" data-name="Rectángulo 8267" width="34.94" height="0.26" transform="translate(427.4 436.85)" fill="#ebebeb"/>
        <rect id="Rectángulo_8268" data-name="Rectángulo 8268" width="9.17" height="0.26" transform="translate(327.98 439.71)" fill="#ebebeb"/>
        <rect id="Rectángulo_8269" data-name="Rectángulo 8269" width="20.24" height="0.26" transform="translate(406.1 427.06)" fill="#ebebeb"/>
        <rect id="Rectángulo_8270" data-name="Rectángulo 8270" width="45.56" height="0.26" transform="translate(43.09 428.83)" fill="#ebebeb"/>
        <rect id="Rectángulo_8271" data-name="Rectángulo 8271" width="6.68" height="0.26" transform="translate(98.05 428.83)" fill="#ebebeb"/>
        <rect id="Rectángulo_8272" data-name="Rectángulo 8272" width="98.82" height="0.26" transform="translate(126.44 433.28)" fill="#ebebeb"/>
        <path id="Trazado_106154" data-name="Trazado 106154" d="M237.76,372.83H34.08a6,6,0,0,1-6-6V80.48a6,6,0,0,1,6-6H237.76a6,6,0,0,1,6,6h0V366.8a6,6,0,0,1-6,6.03ZM34.08,74.72a5.77,5.77,0,0,0-5.75,5.76V366.8a5.75,5.75,0,0,0,5.75,5.76H237.76a5.77,5.77,0,0,0,5.76-5.76V80.48a5.77,5.77,0,0,0-5.76-5.76Z" fill="#ebebeb"/>
        <path id="Trazado_106155" data-name="Trazado 106155" d="M465.93,372.83H262.24a6,6,0,0,1-6-6V80.48a6,6,0,0,1,6-6H465.93a6,6,0,0,1,6,6V366.8a6,6,0,0,1-6,6.03ZM262.24,74.72a5.77,5.77,0,0,0-5.76,5.76V366.8a5.77,5.77,0,0,0,5.76,5.76H465.93a5.76,5.76,0,0,0,5.76-5.76V80.48a5.77,5.77,0,0,0-5.76-5.76Z" fill="#aed3f2"/>
        <path id="Trazado_106156" data-name="Trazado 106156" d="M471.72,345.47v44.1h-7.54c-15.48,0-38-.32-60.67-1.48-7.74-.39-15.52-.89-23.05-1.5L374,386l-1.05-.09c-2.2-.21-4.37-.44-6.5-.67-17.74-2-32.92-4.79-41.39-8.85h0l-.9-.45-.7-.38-.75-.43-.7-.46-.62-.44c-.22-.15-.4-.31-.59-.45l-.54-.48-.5-.47c-.16-.16-.37-.42-.53-.62l-.28-.38a4.127,4.127,0,0,1-.32-.49,5.9,5.9,0,0,1-.47-1.06,4.274,4.274,0,0,1-.15-.51,3.118,3.118,0,0,1-.08-.52,5.37,5.37,0,0,1,.16-2.11,1.14,1.14,0,0,1,.13-.38c.05-.13.16-.43.25-.64l.14-.28c.05-.09.23-.44.37-.67a14.5,14.5,0,0,1,2.46-2.95s.39-.21,1.24-.59l.66-.27q1.23-.53,3.36-1.29h0l.6-.21.65-.22c.87-.31,1.85-.62,2.93-1l1.7-.51,1.28-.36c1.13-.33,2.36-.66,3.67-1l1.11-.28,2.11-.53c1.28-.32,2.64-.63,4.06-.94l2.81-.6h0l1.9-.39c2.61-.53,5.43-1.05,8.44-1.57l1.69-.3,6.71-1,1.58-.23,2.26-.32,2.66-.36,1.06-.14q3.17-.41,6.49-.79h.37l2.27-.25q4-.45,8.38-.85h0l1.74-.16,2.34-.21,2.11-.18,2.11-.17c1.46-.13,2.93-.23,4.44-.35q6.25-.45,13.1-.84L423,346c1.38-.07,2.8-.14,4.22-.19l2.11-.09,3.4-.13,3.16-.12,4.15-.12c4-.12,8.05-.21,12.25-.28l4.87-.07,1.94.06,5,.17Z" fill="#e6e6e6"/>
        <path id="Trazado_106157" data-name="Trazado 106157" d="M464.18,323.89a30.4,30.4,0,0,1,7.54-2.57V361.4l-7.54-.24-7.38-.24c-4,0-7.81.11-11.55.2l-3.71.09q-8.21.23-15.74.56c-1.16,0-2.31.1-3.45.16l-3.38.17-2.54.13-4,.24-3.62.23-3.53.24-2.31.17-1.81.14c-3,.23-5.92.48-8.73.74l-2.5.23-2.44.24-4,.42-1.26.14-1.71.19-3.71.44-1.45.18L374,366l-1.05.13h0l-.45.05-1.38.18-1.21.17h0l-2.74.39-.69.1-2.95.44c-2.11.32-4.15.66-6.08,1l-2.21.39-2,.37-2,.37-1.78.34-2.48.51-1,.21c-4.22.91-7.85,1.8-10.91,2.62l-1.37.38-2.34.68c-.59.17-1.14.35-1.68.52s-.82.25-1.2.39l-.95.32c-.48.14-.92.3-1.33.45l-1.13.41h0a38.9,38.9,0,0,0-4.16,1.75c-5.13,4.91-4.78,7-.1,9.94.58.37,1.22.76,1.94,1.16H275.26V301.45a25.92,25.92,0,0,1,7.52,1.71c11.39,4.52,17.72,16.24,39.42,21.18,6.68,1.53,13.12-2.86,18.81-6.68s12.77-7.51,19.07-4.83a16.63,16.63,0,0,1,6.42,5.43c2.11,2.67,4,5.66,6.5,7.9a11.267,11.267,0,0,0,1.06.85,12.12,12.12,0,0,0,6.48,2.52c9.88.89,20.67-9.15,31-6.69,5,1.18,8.73,5,12.56,8.61,1.13,1.06,2.27,2.11,3.44,3.09a18.72,18.72,0,0,0,7.73,4.07c3,.65,8.85-2.7,14.23-6.13,4-2.59,7.8-5.21,9.87-6.23C460.93,325.46,462.55,324.64,464.18,323.89Z" fill="#e6e6e6"/>
        <path id="Trazado_106158" data-name="Trazado 106158" d="M464.18,345.22l7.54.25v16l-7.54-.24L456.8,361c-4,0-7.81.11-11.55.2l-3.71.09q-8.21.22-15.74.56c-1.16,0-2.31.1-3.45.16l-3.38.17-2.54.14-4,.23-3.62.23-3.53.24-2.31.17-1.81.14c-3,.23-5.92.48-8.73.74l-2.5.23-2.44.24-4,.42-1.26.14-1.71.19-3.71.44-1.45.18L374,366l-1.05.14-.45.06-1.38.18-1.21.17h0l-2.74.39-.69.1-2.95.44c-2.11.33-4.15.66-6.08,1l-2.21.39-2,.37-2,.37-1.78.35-2.48.5-1,.21c-4.22.91-7.85,1.8-10.91,2.62l-1.37.38-2.34.69c-.59.16-1.14.34-1.68.51l-1.2.39-.95.32c-.48.15-.92.31-1.33.45l-1.13.41h0l-.9-.45-.69-.38-.75-.43-.71-.45-.62-.45c-.21-.15-.4-.3-.59-.45l-.54-.48a5.5,5.5,0,0,1-.49-.47c-.16-.16-.37-.41-.53-.61l-.29-.38a6.909,6.909,0,0,1-.79-1.55,4.444,4.444,0,0,1-.15-.52,5.06,5.06,0,0,0-.08-.52,5.21,5.21,0,0,1,.17-2.11,1,1,0,0,1,.13-.38c.05-.12.15-.43.25-.64a1,1,0,0,1,.14-.27,3.554,3.554,0,0,1,.36-.68,15.058,15.058,0,0,1,2.46-2.94s.39-.21,1.25-.59l.65-.28c.82-.35,1.94-.78,3.37-1.28h0l.6-.22.64-.22c.88-.3,1.86-.62,2.93-1l1.7-.5,1.29-.37q1.69-.5,3.66-1l1.12-.29,2.11-.53c1.27-.31,2.63-.63,4.06-.93l2.8-.61h0l1.9-.39c2.62-.52,5.44-1.05,8.44-1.57l1.69-.29c2.11-.35,4.38-.7,6.72-1.06L368,351l2.27-.32,2.66-.36,1-.13q3.17-.42,6.49-.79h.38l2.27-.26c2.69-.29,5.47-.58,8.37-.85h0l1.74-.16,2.34-.21,2.11-.18,2.11-.17c1.46-.13,2.94-.23,4.44-.35q6.26-.45,13.11-.84l5.75-.3,4.21-.19,2.11-.09,3.4-.13,3.17-.11,4.14-.13q5.94-.18,12.26-.27l4.86-.08,1.94.07Z" fill="#fafafa"/>
        <path id="Trazado_106159" data-name="Trazado 106159" d="M471.72,389.57v-7.63a70.246,70.246,0,0,0-7.54-2c-2.34-.49-4.93-.91-7.8-1.27-16-2-45-6.09-75.95-10.62l-6.49-.95-1.05-.15-3-.45h0l-3.43-.51c-13.49-2-27-4-39.77-5.91h0l-43.94-6.62-7.53-1.14v37.07h7.53l83.72.1h14l83.72.11h7.53Z" fill="#f0f0f0"/>
        <path id="Trazado_106160" data-name="Trazado 106160" d="M471.72,312.29v41.84c-2.19.27-4.68.48-7.54.59q-1.85.09-3.9.09c-4.75,0-10.33-.17-16.88-.75h-.14c-7-.6-15.11-1.62-24.5-3.16h-.29c-5.07-.86-10.55-1.86-16.33-3,0,0,.74-.18,2.11-.63a84.241,84.241,0,0,0,23.32-12.59,98.321,98.321,0,0,0,19.75-19.91,28.756,28.756,0,0,1,3.29-3.77l.25-.23c.37-.34.75-.67,1.12-1a15.524,15.524,0,0,1,1.67-1.22,11.46,11.46,0,0,1,10.54-1.26A21.34,21.34,0,0,1,471.72,312.29Z" fill="#ebebeb"/>
        <path id="Trazado_106161" data-name="Trazado 106161" d="M443.23,354.05h0A33.15,33.15,0,0,0,457.08,335l.74-2.71,2.51,22.68S450.46,354.92,443.23,354.05Z" fill="#fafafa"/>
        <path id="Trazado_106162" data-name="Trazado 106162" d="M453.58,308.46s-3.59,5.33,1.84,4.8c2.21-.22-.17,6.54-3.77,14.63-7.26,16.31-15.82,25.43-32.91,23-6.15-.88-27.26-2.64-27.26-2.64h0a188,188,0,0,0,59.36-37.58,15.178,15.178,0,0,1,2.25-1.74Z" fill="#fafafa"/>
        <rect id="Rectángulo_8273" data-name="Rectángulo 8273" width="91.12" height="7.71" transform="translate(376.01 82.9)" fill="#fafafa"/>
        <rect id="Rectángulo_8274" data-name="Rectángulo 8274" width="91.12" height="7.71" transform="translate(380.23 388.09)" fill="#fafafa"/>
        <path id="Trazado_106163" data-name="Trazado 106163" d="M372.94,75.36v327h98.78v-327Zm91.24,319.48H380.46V82.89h83.72Z" fill="#aed3f2"/>
        <rect id="Rectángulo_8275" data-name="Rectángulo 8275" width="91.12" height="7.71" transform="translate(285.65 82.9)" fill="#fafafa"/>
        <rect id="Rectángulo_8276" data-name="Rectángulo 8276" width="91.12" height="7.71" transform="translate(282.48 388.09)" fill="#fafafa"/>
        <path id="Trazado_106164" data-name="Trazado 106164" d="M281.76,75.36v327h98.77v-327Zm8.91,8.54L373,82.85v312l-82.28,1.06Z" fill="#839eb6"/>
        <rect id="Rectángulo_8277" data-name="Rectángulo 8277" width="197.71" height="88.75" rx="20.75" transform="translate(32.24 118.46)" fill="#4c708f"/>
        <rect id="Rectángulo_8278" data-name="Rectángulo 8278" width="197.71" height="88.75" rx="20.75" transform="translate(42.65 119.12)" fill="#aed3f2"/>
        <path id="Trazado_106165" data-name="Trazado 106165" d="M230.14,160.6H51.71V142a14.5,14.5,0,0,1,14.5-14.49H215.65A14.49,14.49,0,0,1,230.14,142Z" fill="#839eb6"/>
        <path id="Trazado_106166" data-name="Trazado 106166" d="M215.65,198.18H66.25a14.49,14.49,0,0,1-14.49-14.49h0V165.07H230.14V183.7a14.48,14.48,0,0,1-14.49,14.48Z" fill="#839eb6"/>
        <rect id="Rectángulo_8279" data-name="Rectángulo 8279" width="25.28" height="26.92" transform="translate(99.1 133.9)" fill="#e6e6e6"/>
        <rect id="Rectángulo_8280" data-name="Rectángulo 8280" width="6.48" height="26.92" transform="translate(124.39 133.9)" fill="#aed3f2"/>
        <rect id="Rectángulo_8281" data-name="Rectángulo 8281" width="19" height="31.07" transform="translate(92.47 129.74)" fill="#e6e6e6"/>
        <rect id="Rectángulo_8282" data-name="Rectángulo 8282" width="5.5" height="31.07" transform="translate(111.46 129.74)" fill="#aed3f2"/>
        <rect id="Rectángulo_8283" data-name="Rectángulo 8283" width="16.01" height="26.92" transform="translate(89.86 133.9)" fill="#ebebeb"/>
        <rect id="Rectángulo_8284" data-name="Rectángulo 8284" width="3.66" height="26.92" transform="translate(105.87 133.9)" fill="#aed3f2"/>
        <rect id="Rectángulo_8285" data-name="Rectángulo 8285" width="21" height="22.36" transform="translate(71.76 138.45)" fill="#e6e6e6"/>
        <rect id="Rectángulo_8286" data-name="Rectángulo 8286" width="5.38" height="22.36" transform="translate(92.76 138.45)" fill="#aed3f2"/>
        <rect id="Rectángulo_8287" data-name="Rectángulo 8287" width="15.78" height="25.81" transform="translate(66.25 135.01)" fill="#e6e6e6"/>
        <rect id="Rectángulo_8288" data-name="Rectángulo 8288" width="4.57" height="25.81" transform="translate(82.02 135.01)" fill="#aed3f2"/>
        <rect id="Rectángulo_8289" data-name="Rectángulo 8289" width="15.33" height="22.36" transform="translate(62.05 138.45)" fill="#e6e6e6"/>
        <rect id="Rectángulo_8290" data-name="Rectángulo 8290" width="3.04" height="22.36" transform="translate(77.39 138.45)" fill="#f0f0f0"/>
        <rect id="Rectángulo_8291" data-name="Rectángulo 8291" width="25.28" height="26.92" transform="translate(177.8 170.25)" fill="#e6e6e6"/>
        <rect id="Rectángulo_8292" data-name="Rectángulo 8292" width="6.48" height="26.92" transform="translate(203.09 170.25)" fill="#aed3f2"/>
        <rect id="Rectángulo_8293" data-name="Rectángulo 8293" width="19" height="31.07" transform="translate(171.17 166.09)" fill="#e6e6e6"/>
        <rect id="Rectángulo_8294" data-name="Rectángulo 8294" width="5.5" height="31.07" transform="translate(190.15 166.09)" fill="#aed3f2"/>
        <rect id="Rectángulo_8295" data-name="Rectángulo 8295" width="25.28" height="26.92" transform="translate(91.52 170.25)" fill="#e6e6e6"/>
        <rect id="Rectángulo_8296" data-name="Rectángulo 8296" width="6.48" height="26.92" transform="translate(116.81 170.25)" fill="#aed3f2"/>
        <rect id="Rectángulo_8297" data-name="Rectángulo 8297" width="19" height="31.07" transform="translate(84.9 166.09)" fill="#e6e6e6"/>
        <rect id="Rectángulo_8298" data-name="Rectángulo 8298" width="5.5" height="31.07" transform="translate(103.89 166.09)" fill="#aed3f2"/>
        <rect id="Rectángulo_8299" data-name="Rectángulo 8299" width="16.01" height="26.92" transform="translate(168.55 170.25)" fill="#ebebeb"/>
        <rect id="Rectángulo_8300" data-name="Rectángulo 8300" width="3.66" height="26.92" transform="translate(184.56 170.25)" fill="#aed3f2"/>
        <rect id="Rectángulo_8301" data-name="Rectángulo 8301" width="21" height="22.36" transform="translate(150.45 174.81)" fill="#e6e6e6"/>
        <rect id="Rectángulo_8302" data-name="Rectángulo 8302" width="5.38" height="22.36" transform="translate(171.45 174.81)" fill="#aed3f2"/>
        <rect id="Rectángulo_8303" data-name="Rectángulo 8303" width="15.78" height="25.81" transform="translate(144.94 171.36)" fill="#e6e6e6"/>
        <rect id="Rectángulo_8304" data-name="Rectángulo 8304" width="4.57" height="25.81" transform="translate(160.71 171.36)" fill="#aed3f2"/>
        <rect id="Rectángulo_8305" data-name="Rectángulo 8305" width="15.33" height="22.36" transform="translate(140.74 174.81)" fill="#e6e6e6"/>
        <rect id="Rectángulo_8306" data-name="Rectángulo 8306" width="3.04" height="22.36" transform="translate(156.08 174.81)" fill="#f0f0f0"/>
        <path id="Trazado_106167" data-name="Trazado 106167" d="M178,134.71a2.72,2.72,0,0,1,2.89-1.43,2.84,2.84,0,0,1,2.11,2.49,2.43,2.43,0,0,1,2.74-.08,2.73,2.73,0,0,1,1.06,2.66,2,2,0,0,1,2.82.42,1.627,1.627,0,0,1,.11.17,2.27,2.27,0,0,1-.9,3,1.45,1.45,0,0,1-.07,2.89,1.56,1.56,0,0,1,1.53,1.4,1.64,1.64,0,0,1-1.06,1.71,1.31,1.31,0,0,1,.49,1.8,1,1,0,0,1-.17.24,1.19,1.19,0,0,1-1.67-.21,1.47,1.47,0,0,1-.21-.39.38.38,0,0,1-.52.16l-.09-.06a.44.44,0,0,1,.07-.62h.05a.71.71,0,0,1-1,0,.65.65,0,0,1-.23-.37,1.79,1.79,0,0,1-1.54,2,1.72,1.72,0,0,1-.87-.1,1.06,1.06,0,0,1-.52,1.4l-.19.07a2.56,2.56,0,0,1-1.75-.34,3.71,3.71,0,0,0-1.71-.58,5.79,5.79,0,0,0-1.53.42,4.61,4.61,0,0,1-4.66-1.22,2,2,0,0,1-2.81.18,1.83,1.83,0,0,1-.51-.69,1.41,1.41,0,0,1-1.62,1.15,1.39,1.39,0,0,1-1.12-1v.85a1.77,1.77,0,0,1-1.81-2.37,1.79,1.79,0,0,1-1.72-1.56,1.85,1.85,0,0,1,1.29-2,3.5,3.5,0,0,1-.08-6.64,1.67,1.67,0,0,1,1.6.21,1.06,1.06,0,0,1,0,1.49h0a3.21,3.21,0,0,1,1.37-3.61,2.87,2.87,0,0,1,3.61.77,1.76,1.76,0,0,1,0-2,1.56,1.56,0,0,1,1.79-.6,1.8,1.8,0,0,1,2-1.48,1.88,1.88,0,0,1,1.47,2,.91.91,0,0,1,1.1-.68.93.93,0,0,1,.55.38C178.69,134.47,178,134.71,178,134.71Z" fill="#ebebeb"/>
        <path id="Trazado_106168" data-name="Trazado 106168" d="M177.63,143.35a1.68,1.68,0,0,1,1.25-.29,1.14,1.14,0,0,1,.89.84.89.89,0,0,1-.6,1.06c-.52.11-1-.31-1.55-.24l-.55.17a3.67,3.67,0,0,1-2.7-1.33.78.78,0,0,1-.06-.78,1.07,1.07,0,0,1,1.05-.34,4.28,4.28,0,0,1,2.11.89l-.06-.36Z" fill="#fafafa"/>
        <path id="Trazado_106169" data-name="Trazado 106169" d="M166.71,142.71a1.91,1.91,0,0,1,.66-.35.69.69,0,0,1,.68.19.67.67,0,0,1-.19.91,1.9,1.9,0,0,1-1,.32c-.34,0-.79.07-1-.24a.6.6,0,0,1,.17-.69,1.74,1.74,0,0,1,.68-.34Z" fill="#fafafa"/>
        <path id="Trazado_106170" data-name="Trazado 106170" d="M184,137a2.44,2.44,0,0,1,1.41,1.68c0,.22,0,.51-.16.62a.61.61,0,0,1-.46,0l-2-.44a2.84,2.84,0,0,1,.91.48,1,1,0,0,1,.35.92.94.94,0,0,1-.94.62,2,2,0,0,1-1.06-.44,1.39,1.39,0,0,1-.7-1.05c0-.44.53-.84.86-.56a7.51,7.51,0,0,1-2.11-1,2,2,0,0,1-.62-.58.88.88,0,0,1-.07-.83c.69-1.24,1.56.59,2,.75C182.11,137.51,183,136.58,184,137Z" fill="#fafafa"/>
        <path id="Trazado_106171" data-name="Trazado 106171" d="M187.13,142.33a.65.65,0,0,1-.18.69.42.42,0,0,1-.6-.06v-.07a2.39,2.39,0,0,1,1.22.68c.27.37.21,1.06-.25,1.18a1.15,1.15,0,0,1-.83-.18,15.3,15.3,0,0,1-2.11-1.38c.2.47-.28,1-.78,1.06a2.4,2.4,0,0,1-1.39-.5c-.53-.31-1.13-.8-1-1.4a1,1,0,0,1,1.29-.6,2.94,2.94,0,0,1,1.26,1,.74.74,0,0,1,.61-1.06,1.5,1.5,0,0,1,1.26.58c-.55-.3-.68-1.05.06-1.2C186.22,141,187,141.92,187.13,142.33Z" fill="#fafafa"/>
        <path id="Trazado_106172" data-name="Trazado 106172" d="M171.84,140.54a.82.82,0,0,1,1,.53h0a.85.85,0,0,1-.57,1h-.09a1.31,1.31,0,0,1,.86.44.68.68,0,0,1,.17.51.6.6,0,0,1-.6.45,1.67,1.67,0,0,1-.78-.22,1.72,1.72,0,0,1,.77.22.49.49,0,0,1,.12.69h0a.6.6,0,0,1-.63.07,3,3,0,0,1-1.32-.74,1.33,1.33,0,0,1-1.06.47.76.76,0,0,1-.62-.87h0a.76.76,0,0,1,.67-.49,1.89,1.89,0,0,1,.88.13,1.64,1.64,0,0,1-.7-.77c-.1-.33.12-.79.48-.77s.6.57.91.77C171.71,141.6,171,140.85,171.84,140.54Z" fill="#fafafa"/>
        <path id="Trazado_106173" data-name="Trazado 106173" d="M179,138.86a1.58,1.58,0,0,1,.57,1.45,1.68,1.68,0,0,1-.85,1.49,1.37,1.37,0,0,1-1.72-.87,1.16,1.16,0,0,1,0-.18,1.9,1.9,0,0,1,1.05-1.94,1.05,1.05,0,0,1,.95.05Z" fill="#fafafa"/>
        <path id="Trazado_106174" data-name="Trazado 106174" d="M173.92,138.24l-.18.15a.94.94,0,0,1,1.32-.1.91.91,0,0,1-1.2,1.36.49.49,0,0,1-.12-.13,1.35,1.35,0,0,1-1.58-.29,1.05,1.05,0,0,1,.18-1.48h0a.84.84,0,0,1,1.13.39.73.73,0,0,1,.08.33l.21-.25Z" fill="#fafafa"/>
        <path id="Trazado_106175" data-name="Trazado 106175" d="M168.33,139.13a2.87,2.87,0,0,1,.86,1.23,1,1,0,0,1-.57,1.22,1.187,1.187,0,0,1-1.22-.7,1.47,1.47,0,0,1-.3-1.26c.14-.43.76-.69,1.06-.36Z" fill="#fafafa"/>
        <path id="Trazado_106176" data-name="Trazado 106176" d="M176.39,136.2a.83.83,0,0,1,1.13-.32h0a1.06,1.06,0,0,1,.35,1.2,1.23,1.23,0,0,1-1,.73c-.55.07-1.2-.38-1.06-.91a1.22,1.22,0,0,1-1.05.39,2.59,2.59,0,0,1-1.05-.41c-.46-.27-.95-.68-.9-1.21a1,1,0,0,1,.86-.79,1.69,1.69,0,0,1,1.16.43,9.456,9.456,0,0,0,.74.68.94.94,0,0,0,.94.14Z" fill="#fafafa"/>
        <path id="Trazado_106177" data-name="Trazado 106177" d="M169.51,160.81h13.86l1.35-13.97H168.15Z" fill="#f0f0f0"/>
        <path id="Trazado_106178" data-name="Trazado 106178" d="M167.07,147.56h18.86l.34-1.86H166.74Z" fill="#fafafa"/>
        <rect id="Rectángulo_8307" data-name="Rectángulo 8307" width="6.48" height="3.04" transform="translate(124.39 139.85)" fill="#fff"/>
        <rect id="Rectángulo_8308" data-name="Rectángulo 8308" width="5.78" height="3.04" transform="translate(103.75 180.11)" fill="#fff"/>
        <rect id="Rectángulo_8309" data-name="Rectángulo 8309" width="5.38" height="8.73" transform="translate(92.76 145.11)" fill="#fff"/>
        <rect id="Rectángulo_8310" data-name="Rectángulo 8310" width="5.38" height="4.77" transform="translate(203.63 182.2)" fill="#fff"/>
        <rect id="Rectángulo_8311" data-name="Rectángulo 8311" width="6.48" height="3.04" transform="translate(117.92 155.03)" fill="#fff"/>
        <rect id="Rectángulo_8312" data-name="Rectángulo 8312" width="6.48" height="15.12" transform="translate(116.81 175.82)" fill="#fff"/>
        <rect id="Rectángulo_8313" data-name="Rectángulo 8313" width="5.38" height="15.12" transform="translate(171.45 178.43)" fill="#fff"/>
        <rect id="Rectángulo_8314" data-name="Rectángulo 8314" width="2.05" height="18.96" transform="translate(77.88 140.16)" fill="#fff"/>
        <path id="Trazado_106179" data-name="Trazado 106179" d="M372.7,429.49l1.13,13.13h68.05l-24.73-13.13Z" fill="#ebebeb"/>
        <path id="Trazado_106180" data-name="Trazado 106180" d="M390.16,435.23l1.66,14.16,68.47-.13-19.95-14.03Z" fill="#e0e0e0"/>
        <path id="Trazado_106181" data-name="Trazado 106181" d="M392.47,421.83l-15.59,7.49s50.45,5.55,49.36,5.48-1.77-10.14-1.77-10.14Z" fill="#ebebeb"/>
        <path id="Trazado_106182" data-name="Trazado 106182" d="M413,429.61l-3.88,7.77h47.65c-.79,0-9.5-7.56-9.5-7.56Z" fill="#f0f0f0"/>
        <path id="Trazado_106183" data-name="Trazado 106183" d="M411.38,419.64l-6.61,7,46.47,6.38c-.77-.11-6.51-8.65-6.51-8.65Z" fill="#aed3f2"/>
        <path id="Trazado_106184" data-name="Trazado 106184" d="M407.13,424.07l-24.2,6.77s26.3,8.57,37.43,8c6.83-.38,16-10.4,16-10.4Z" fill="#fafafa"/>
        <path id="Trazado_106185" data-name="Trazado 106185" d="M115.08,429.71l-1.13,13.14H45.89l24.74-13.14Z" fill="#ebebeb"/>
        <path id="Trazado_106186" data-name="Trazado 106186" d="M114.49,435.46l-1.66,14.16-68.47-.13,19.95-14.03Z" fill="#e0e0e0"/>
        <path id="Trazado_106187" data-name="Trazado 106187" d="M95.35,422.07l15.59,7.49S60.5,435.1,61.59,435s1.77-10.14,1.77-10.14Z" fill="#ebebeb"/>
        <path id="Trazado_106188" data-name="Trazado 106188" d="M74.78,429.84l3.88,7.73H31c.79,0,9.49-7.56,9.49-7.56Z" fill="#f0f0f0"/>
        <path id="Trazado_106189" data-name="Trazado 106189" d="M76.37,419.87l6.6,7L36.5,433.28c.78-.11,6.51-8.65,6.51-8.65Z" fill="#aed3f2"/>
        <path id="Trazado_106190" data-name="Trazado 106190" d="M80.65,424.3l24.2,6.75s-26.3,8.58-37.44,8c-6.83-.38-16-10.4-16-10.4Z" fill="#fafafa"/>
        <rect id="Rectángulo_8315" data-name="Rectángulo 8315" width="57.5" height="14.31" transform="translate(42.01 426)" fill="#ebebeb"/>
        <rect id="Rectángulo_8316" data-name="Rectángulo 8316" width="57.5" height="14.31" transform="translate(42.2 426.06)" fill="#fff" opacity="0.1"/>
        <rect id="Rectángulo_8317" data-name="Rectángulo 8317" width="44.14" height="14.31" transform="translate(42.01 426.06)" fill="#fff" opacity="0.6"/>
        <path id="Trazado_106191" data-name="Trazado 106191" d="M42.28,438.49l57.23,1.78-.07-1.45-57.19-.74Z" fill="#e0e0e0"/>
        <path id="Trazado_106192" data-name="Trazado 106192" d="M99.51,431.88l-57.14-3.22v.48l57.14,3.82Z" fill="#e0e0e0"/>
        <path id="Trazado_106193" data-name="Trazado 106193" d="M99.51,427.55l-57.14,1.31v.47l57.14-.68Z" fill="#e0e0e0"/>
        <path id="Trazado_106194" data-name="Trazado 106194" d="M99.67,434.68l-57.15,2.79v-.41l57.15-3.33Z" fill="#e0e0e0"/>
        <path id="Trazado_106195" data-name="Trazado 106195" d="M42.15,426.19l57.13.05v.47H42.15Z" fill="#e0e0e0"/>
        <rect id="Rectángulo_8318" data-name="Rectángulo 8318" width="57.5" height="14.31" transform="translate(46.13 383.38)" fill="#e0e0e0"/>
        <rect id="Rectángulo_8319" data-name="Rectángulo 8319" width="57.5" height="14.31" transform="translate(46.47 383.95)" fill="#fff" opacity="0.5"/>
        <rect id="Rectángulo_8320" data-name="Rectángulo 8320" width="44.14" height="14.31" transform="translate(46.13 383.45)" fill="#fff" opacity="0.6"/>
        <path id="Trazado_106196" data-name="Trazado 106196" d="M46.41,395.87l57.22,1.79-.06-1.46-57.19-.75Z" fill="#e0e0e0"/>
        <path id="Trazado_106197" data-name="Trazado 106197" d="M103.63,389.26l-57.14-3.22v.49l57.14,3.82Z" fill="#e0e0e0"/>
        <path id="Trazado_106198" data-name="Trazado 106198" d="M103.63,384.94l-57.14,1.3v.48l57.14-.7Z" fill="#e0e0e0"/>
        <path id="Trazado_106199" data-name="Trazado 106199" d="M103.79,392.07l-57.14,2.78v-.41l57.14-3.32Z" fill="#e0e0e0"/>
        <rect id="Rectángulo_8321" data-name="Rectángulo 8321" width="57.5" height="14.31" transform="translate(45.42 411.5)" fill="#e0e0e0"/>
        <rect id="Rectángulo_8322" data-name="Rectángulo 8322" width="57.5" height="14.31" transform="translate(45.61 411.56)" fill="#fff" opacity="0.5"/>
        <rect id="Rectángulo_8323" data-name="Rectángulo 8323" width="44.14" height="14.31" transform="translate(45.54 411.56)" fill="#fff" opacity="0.6"/>
        <path id="Trazado_106200" data-name="Trazado 106200" d="M102.67,423.56l-57.19.75-.06,1.46,57.22-1.78Z" fill="#e0e0e0"/>
        <path id="Trazado_106201" data-name="Trazado 106201" d="M45.78,411.69l57.14.04v.47H45.78Z" fill="#e0e0e0"/>
        <path id="Trazado_106202" data-name="Trazado 106202" d="M45.42,418.46l57.13-3.82v-.49l-57.13,3.22Z" fill="#e0e0e0"/>
        <path id="Trazado_106203" data-name="Trazado 106203" d="M102.92,413.05l-57.14,1.31v.47l57.14-.7Z" fill="#e0e0e0"/>
        <path id="Trazado_106204" data-name="Trazado 106204" d="M103.08,420.18l-57.15,2.78v-.41l57.15-3.32Z" fill="#e0e0e0"/>
        <path id="Trazado_106205" data-name="Trazado 106205" d="M100.92,398l-57.48.3-.08,14.02h57.56Z" fill="#e0e0e0"/>
        <rect id="Rectángulo_8324" data-name="Rectángulo 8324" width="57.5" height="14.31" transform="translate(43.43 398.01)" fill="#fff" opacity="0.5"/>
        <rect id="Rectángulo_8325" data-name="Rectángulo 8325" width="44.14" height="14.31" transform="translate(43.36 398.01)" fill="#fff" opacity="0.6"/>
        <path id="Trazado_106206" data-name="Trazado 106206" d="M89.23,398.3H43.44v1.46h44.8Z" fill="#e0e0e0"/>
        <path id="Trazado_106207" data-name="Trazado 106207" d="M100.59,404.15l-57.15.54v.43h57.15Z" fill="#e0e0e0"/>
        <path id="Trazado_106208" data-name="Trazado 106208" d="M43.44,410.78,100.59,408v.42l-57.15,3.31Z" fill="#e0e0e0"/>
        <path id="Trazado_106209" data-name="Trazado 106209" d="M43.44,405.4l57.15,1.14v.41l-57.15-.6Z" fill="#e0e0e0"/>
        <rect id="Rectángulo_8326" data-name="Rectángulo 8326" width="57.14" height="7.2" transform="translate(58.46 366.88)" fill="#e0e0e0"/>
        <rect id="Rectángulo_8327" data-name="Rectángulo 8327" width="57.14" height="7.2" transform="translate(58.46 366.88)" fill="#fff" opacity="0.5"/>
        <rect id="Rectángulo_8328" data-name="Rectángulo 8328" width="45.54" height="7.2" transform="translate(58.46 366.88)" fill="#fff" opacity="0.6"/>
        <path id="Trazado_106210" data-name="Trazado 106210" d="M115.64,371.99l-57.14.29v.21h57.14Z" fill="#e0e0e0"/>
        <path id="Trazado_106211" data-name="Trazado 106211" d="M58.5,369.3l57.14-1.45v.21L58.5,369.79Z" fill="#e0e0e0"/>
        <path id="Trazado_106212" data-name="Trazado 106212" d="M58.32,368.9l57.14.59v.22l-57.14-.31Z" fill="#e0e0e0"/>
        <rect id="Rectángulo_8329" data-name="Rectángulo 8329" width="57.14" height="3.47" transform="translate(50.47 363.71)" fill="#e0e0e0"/>
        <rect id="Rectángulo_8330" data-name="Rectángulo 8330" width="57.14" height="3.44" transform="translate(50.47 363.73)" fill="#fff" opacity="0.5"/>
        <rect id="Rectángulo_8331" data-name="Rectángulo 8331" width="45.54" height="3.66" transform="translate(50.47 363.52)" fill="#fff" opacity="0.6"/>
        <path id="Trazado_106213" data-name="Trazado 106213" d="M50.5,366.35l57.14-1.46v.23L50.5,366.85Z" fill="#e0e0e0"/>
        <path id="Trazado_106214" data-name="Trazado 106214" d="M50.5,364.61l57.14.59v.22L50.5,365.1Z" fill="#e0e0e0"/>
        <rect id="Rectángulo_8332" data-name="Rectángulo 8332" width="57.14" height="3.47" transform="translate(55.8 360.16)" fill="#e0e0e0"/>
        <rect id="Rectángulo_8333" data-name="Rectángulo 8333" width="57.14" height="3.44" transform="translate(55.8 360.19)" fill="#fff" opacity="0.5"/>
        <rect id="Rectángulo_8334" data-name="Rectángulo 8334" width="45.54" height="3.66" transform="translate(55.8 359.98)" fill="#fff" opacity="0.6"/>
        <path id="Trazado_106215" data-name="Trazado 106215" d="M55.83,361.73l57.15.7-.01.22-57.15-.43Z" fill="#e0e0e0"/>
        <path id="Trazado_106216" data-name="Trazado 106216" d="M55.83,361.06l57.14.59v.23l-57.14-.32Z" fill="#e0e0e0"/>
        <rect id="Rectángulo_8335" data-name="Rectángulo 8335" width="57.14" height="9.28" transform="translate(54.6 374.09)" fill="#e0e0e0"/>
        <rect id="Rectángulo_8336" data-name="Rectángulo 8336" width="57.14" height="9.28" transform="translate(54.6 374.09)" fill="#fff" opacity="0.5"/>
        <rect id="Rectángulo_8337" data-name="Rectángulo 8337" width="44.09" height="9.28" transform="translate(54.6 374.09)" fill="#fff" opacity="0.6"/>
        <path id="Trazado_106217" data-name="Trazado 106217" d="M111.38,376.97l-57.14-.33v-.25h57.14Z" fill="#e0e0e0"/>
        <path id="Trazado_106218" data-name="Trazado 106218" d="M54.63,378.32,111.78,380v-.25l-57.15-2Z" fill="#e0e0e0"/>
        <path id="Trazado_106219" data-name="Trazado 106219" d="M111.78,374.09H57.87l1.21,1.15h52.7Z" fill="#e0e0e0"/>
        <path id="Trazado_106220" data-name="Trazado 106220" d="M54.84,381.93l57.13-.69V381l-57.13.36Z" fill="#e0e0e0"/>
      </g>
      <g id="freepik--Shadow--inject-131">
        <ellipse id="freepik--path--inject-131" cx="204.53" cy="11.94" rx="204.53" ry="11.94" transform="translate(46.94 443.05)" fill="#f5f5f5"/>
      </g>
      <g id="freepik--paper-crumple--inject-131">
        <path id="Trazado_106221" data-name="Trazado 106221" d="M255.51,456.37l-8.58.51s-6.33-6.81-6.33-7.53,2.32-7,2.32-7l6.11-2.31s3.83,1.85,4.49,2.67,3,4.48,3,4.48a2.56,2.56,0,0,1,1.35,2.38c.08,1.84-1.93,4.6-1.93,4.6Z" fill="#d9a171"/>
        <path id="Trazado_106222" data-name="Trazado 106222" d="M255.51,456.37l-8.58.51s-6.33-6.81-6.33-7.53,2.32-7,2.32-7l6.11-2.31s3.83,1.85,4.49,2.67,3,4.48,3,4.48a2.56,2.56,0,0,1,1.35,2.38c.08,1.84-1.93,4.6-1.93,4.6Z" fill="#fff" opacity="0.8"/>
        <path id="Trazado_106223" data-name="Trazado 106223" d="M245.42,442.59l-.13,2-1.76,4.6,4.12,4.65,3,.44,4-2.52.16-2.56-2.91-.81-2,2,.63,2.48,2.34-1.24-1.69.34-.13-1.43,1.06-.93,1.93.34s.31,1.52.07,1.64-3.48,2.11-3.48,2.11l-2.35-.55-3.88-4.22,1.5-4Z" fill="#d9a171"/>
        <path id="Trazado_106224" data-name="Trazado 106224" d="M245.42,442.59l-.13,2-1.76,4.6,4.12,4.65,3,.44,4-2.52.16-2.56-2.91-.81-2,2,.63,2.48,2.34-1.24-1.69.34-.13-1.43,1.06-.93,1.93.34s.31,1.52.07,1.64-3.48,2.11-3.48,2.11l-2.35-.55-3.88-4.22,1.5-4Z" fill="#fff" opacity="0.6"/>
        <path id="Trazado_106225" data-name="Trazado 106225" d="M264.18,448.62,268,442s7.95-1.47,8.52-1.19,3.92,5,3.92,5l-1.3,5.63s-3.17,2-4.09,2.11-4.69.12-4.69.12a2.17,2.17,0,0,1-2.36-.12c-1.37-.81-2.4-3.59-2.4-3.59Z" fill="#d9a171"/>
        <path id="Trazado_106226" data-name="Trazado 106226" d="M264.18,448.62,268,442s7.95-1.47,8.52-1.19,3.92,5,3.92,5l-1.3,5.63s-3.17,2-4.09,2.11-4.69.12-4.69.12a2.17,2.17,0,0,1-2.36-.12c-1.37-.81-2.4-3.59-2.4-3.59Z" fill="#fff" opacity="0.8"/>
        <path id="Trazado_106227" data-name="Trazado 106227" d="M266,447.85l.9.77,1.67,2.82,6.33.43,3.05-1.6.74-4.09L276.08,445l-2.88,1.57.22,2.06,2.81.88.68-2.16-1.05,1.28-1.43-.63-.09-1.05,1.83-1.12s1.85.44,1.76.68-.78,3.43-.78,3.43l-2.5,1.11-5.76-.15-1.6-2.46Z" fill="#d9a171"/>
        <path id="Trazado_106228" data-name="Trazado 106228" d="M266,447.85l.9.77,1.67,2.82,6.33.43,3.05-1.6.74-4.09L276.08,445l-2.88,1.57.22,2.06,2.81.88.68-2.16-1.05,1.28-1.43-.63-.09-1.05,1.83-1.12s1.85.44,1.76.68-.78,3.43-.78,3.43l-2.5,1.11-5.76-.15-1.6-2.46Z" fill="#fff" opacity="0.6"/>
        <path id="Trazado_106229" data-name="Trazado 106229" d="M212,449.38l.42-1.71a8.28,8.28,0,0,1,4.7-5.85,16,16,0,0,1,3.88-1.31,37.4,37.4,0,0,1,3.89,4,3.17,3.17,0,0,1,.78,2.11l.05,5.28s-2.46,2.76-3.27,3-4.22,1-4.22,1a1.72,1.72,0,0,1-2.17.31c-1.42-.65-3-3.57-3-3.57h0a3.15,3.15,0,0,1-1.06-3.26Z" fill="#d9a171" opacity="0.8"/>
        <path id="Trazado_106230" data-name="Trazado 106230" d="M213.43,450.12l1,.69,2.11,2.84,5.83-.68,2.42-2.32-.23-4.67-2.6-.85-2.28,2.25.66,2.25,2.76.47.13-2.52-.68,1.61-1.45-.43-.3-1.17,1.4-1.59s1.78.15,1.75.42.05,3.94.05,3.94l-2,1.7-5.28.87-1.92-2.44Z" fill="#d9a171"/>
        <path id="Trazado_106231" data-name="Trazado 106231" d="M213.43,450.12l1,.69,2.11,2.84,5.83-.68,2.42-2.32-.23-4.67-2.6-.85-2.28,2.25.66,2.25,2.76.47.13-2.52-.68,1.61-1.45-.43-.3-1.17,1.4-1.59s1.78.15,1.75.42.05,3.94.05,3.94l-2,1.7-5.28.87-1.92-2.44Z" fill="#d9a171" opacity="0.6"/>
        <path id="Trazado_106232" data-name="Trazado 106232" d="M212,449.38l.42-1.71a8.28,8.28,0,0,1,4.7-5.85,16,16,0,0,1,3.88-1.31,37.4,37.4,0,0,1,3.89,4,3.17,3.17,0,0,1,.78,2.11l.05,5.28s-2.46,2.76-3.27,3-4.22,1-4.22,1a1.72,1.72,0,0,1-2.17.31c-1.42-.65-3-3.57-3-3.57h0a3.15,3.15,0,0,1-1.06-3.26Z" fill="#fff" opacity="0.8"/>
        <path id="Trazado_106233" data-name="Trazado 106233" d="M213.16,450.71l1.05.57,2.47,2.55,5.7-1.36,2.11-2.6-.78-4.61-2.7-.52-2,2.51.92,2.11,2.8.14-.16-2.52-.5,1.67-1.48-.24-.45-1.13,1.22-1.72s1.79-.07,1.79.2.52,3.91.52,3.91l-1.74,2-5.14,1.5-2.25-2.19Z" fill="#d9a171"/>
        <path id="Trazado_106234" data-name="Trazado 106234" d="M213.16,450.71l1.05.57,2.47,2.55,5.7-1.36,2.11-2.6-.78-4.61-2.7-.52-2,2.51.92,2.11,2.8.14-.16-2.52-.5,1.67-1.48-.24-.45-1.13,1.22-1.72s1.79-.07,1.79.2.52,3.91.52,3.91l-1.74,2-5.14,1.5-2.25-2.19Z" fill="#fff" opacity="0.6"/>
      </g>
      <g id="freepik--Balloon--inject-131">
        <path id="Trazado_106235" data-name="Trazado 106235" d="M219.35,161.48a4.07,4.07,0,1,1,.74-.06,1.529,1.529,0,0,1-.3,0,3.155,3.155,0,0,1-.44.06Zm0-6.87H219a2.91,2.91,0,1,0,3.17,2.62h0a2.92,2.92,0,0,0-2.89-2.59Z" fill="#d9a171"/>
        <path id="Trazado_106236" data-name="Trazado 106236" d="M211.45,168.39a2.5,2.5,0,0,1-1.55-.54,2.45,2.45,0,0,1-.92-1.67,2.516,2.516,0,1,1,5-.56h0a2.48,2.48,0,0,1-2.17,2.75h-.31Zm0-3.92h-.16a1.44,1.44,0,0,0-.74,2.54,1.37,1.37,0,0,0,1.06.31,1.41,1.41,0,0,0,1-.53,1.39,1.39,0,0,0,.3-1h0a1.43,1.43,0,0,0-1.42-1.28Z" fill="#d9a171"/>
        <path id="Trazado_106237" data-name="Trazado 106237" d="M242,149.41a43.14,43.14,0,0,1-34.65-17.51h-1.46a38,38,0,0,1,0-76,24.269,24.269,0,0,1,3.78.2A48.17,48.17,0,0,1,297,67.58a43,43,0,0,1-33.61,76.17A43.14,43.14,0,0,1,242,149.41Zm-33.9-19.09.25.33a41.47,41.47,0,0,0,54.46,11.59l.25-.14h.28a42.379,42.379,0,0,0,6.84.58,41.49,41.49,0,0,0,25.64-74.11l-.2-.15-.08-.25a46.62,46.62,0,0,0-84.8-10.85l-.25.42H210a37.439,37.439,0,0,0-4.1-.25,36.46,36.46,0,0,0,0,72.86h1.79Z" fill="#d9a171"/>
        <g id="freepik--Coin--inject-53">
          <path id="Trazado_106238" data-name="Trazado 106238" d="M248.78,127.59a36.35,36.35,0,0,1-8.93-1.11.46.46,0,0,1-.34-.55.45.45,0,0,1,.55-.33h0a36,36,0,0,0,8.71,1.08H249a.45.45,0,0,1,.45.45.46.46,0,0,1-.45.46Zm4.75-.31a.46.46,0,0,1-.06-.91c.91-.12,1.82-.27,2.66-.46a.46.46,0,0,1,.54.36h0a.43.43,0,0,1-.34.53h0c-.91.2-1.82.35-2.73.48Zm5.35-1.13a.465.465,0,1,1-.13-.92A33.347,33.347,0,0,0,263,123.7a.47.47,0,0,1,.61.24h0a.46.46,0,0,1-.24.59,35.164,35.164,0,0,1-4.34,1.58h-.11Zm-27.37-3a.4.4,0,0,1-.22-.06,37.686,37.686,0,0,1-3.9-2.47.47.47,0,0,1-.1-.64.45.45,0,0,1,.64-.1h0a37.571,37.571,0,0,0,3.8,2.42.45.45,0,0,1,.18.61h0a.45.45,0,0,1-.39.23ZM271,119.91a.45.45,0,0,1-.46-.45.49.49,0,0,1,.17-.36,35.559,35.559,0,0,0,6.3-6.38.45.45,0,0,1,.64-.09.46.46,0,0,1,.09.64,36.47,36.47,0,0,1-6.46,6.56.42.42,0,0,1-.3.08ZM225.51,119a.44.44,0,0,1-.29-.11c-.7-.59-1.39-1.22-2-1.82a.46.46,0,0,1,0-.65.45.45,0,0,1,.64,0h0c.64.63,1.31,1.25,2,1.83a.45.45,0,0,1,0,.64.47.47,0,0,1-.32.12Zm-5-5.25a.42.42,0,0,1-.36-.19,35.689,35.689,0,0,1-4.7-7.91.457.457,0,1,1,.79-.46.359.359,0,0,1,0,.09,35.8,35.8,0,0,0,4.56,7.73.45.45,0,0,1-.08.64.54.54,0,0,1-.27.11Zm59.4-4.11a.449.449,0,0,1-.39-.68,26.142,26.142,0,0,0,1.26-2.39.45.45,0,0,1,.59-.26.46.46,0,0,1,.26.59v.06c-.39.83-.83,1.65-1.3,2.45a.45.45,0,0,1-.45.23Zm2.37-4.93h-.16a.46.46,0,0,1-.27-.59h0a33.875,33.875,0,0,0,1.35-4.29.47.47,0,0,1,.56-.33.45.45,0,0,1,.33.55h0a35.167,35.167,0,0,1-1.4,4.4.42.42,0,0,1-.43.28Zm-69-7.52a.46.46,0,0,1-.46-.39,38.619,38.619,0,0,1-.41-4.56.46.46,0,0,1,.45-.46.44.44,0,0,1,.46.44h0a37.281,37.281,0,0,0,.4,4.48.45.45,0,0,1-.38.52h0Zm71.36-5.87a.45.45,0,0,1-.45-.46v-.14A35.851,35.851,0,0,0,283,82a.472.472,0,0,1,.91-.25,37.25,37.25,0,0,1,1.25,9v.16a.46.46,0,0,1-.46.46Zm-71.74-1.4h0a.46.46,0,0,1-.43-.47h0c.05-.91.12-1.82.24-2.74a.45.45,0,0,1,.51-.39.46.46,0,0,1,.4.5h0c-.11.91-.19,1.83-.22,2.68a.48.48,0,0,1-.46.42Zm1.09-7.2h-.11a.46.46,0,0,1-.33-.56h0A36.61,36.61,0,0,1,217,73.6a.463.463,0,0,1,.81.45h0a35.83,35.83,0,0,0-3.34,8.34.46.46,0,0,1-.41.33ZM281.94,78a.48.48,0,0,1-.43-.28c-.33-.83-.72-1.65-1.12-2.46a.46.46,0,0,1,.81-.42h0c.42.82.81,1.67,1.16,2.52a.47.47,0,0,1-.24.59L282,78Zm-2.47-4.88a.44.44,0,0,1-.39-.22,34.244,34.244,0,0,0-2.57-3.65.462.462,0,1,1,.72-.58,37.352,37.352,0,0,1,2.65,3.75.45.45,0,0,1-.15.63h0a.39.39,0,0,1-.23.07Zm-56.71-6.18a.44.44,0,0,1-.31-.13.46.46,0,0,1,0-.64h0A33.432,33.432,0,0,1,225.84,63a.44.44,0,0,1,.63.05h0a.46.46,0,0,1-.06.64,35.49,35.49,0,0,0-3.31,3.06.44.44,0,0,1-.33.14ZM270.36,63a.47.47,0,0,1-.28-.09,35.12,35.12,0,0,0-7.8-4.47.46.46,0,0,1,.35-.84h0a36.4,36.4,0,0,1,8,4.57.46.46,0,0,1-.25.83Zm-42.07-.83a.46.46,0,0,1-.26-.83h0c.76-.52,1.54-1,2.34-1.5A.44.44,0,0,1,231,60h0a.47.47,0,0,1-.17.63c-.76.46-1.53.92-2.27,1.45a.5.5,0,0,1-.23.09Zm6.39-3.53a.46.46,0,0,1-.42-.28.45.45,0,0,1,.23-.59h0a36.07,36.07,0,0,1,8.87-2.51.46.46,0,1,1,.13.91,34.74,34.74,0,0,0-8.65,2.45h-.16ZM258.16,57H258c-.87-.24-1.75-.44-2.63-.6a.46.46,0,0,1-.37-.53h0a.43.43,0,0,1,.5-.36h0c.91.16,1.82.37,2.73.62a.45.45,0,0,1,.33.55h0a.46.46,0,0,1-.47.32Zm-5.37-1h0a35,35,0,0,0-4-.22h-.54a.44.44,0,0,1-.46-.42h0a.46.46,0,0,1,.45-.46h.55a34.539,34.539,0,0,1,4.06.23.45.45,0,0,1,.4.48h0a.46.46,0,0,1-.44.4Z" fill="#d9a171"/>
          <circle id="Elipse_4110" data-name="Elipse 4110" cx="30.35" cy="30.35" r="30.35" transform="translate(218.43 60.89)" fill="#d9a171"/>
          <circle id="Elipse_4111" data-name="Elipse 4111" cx="26" cy="26" r="26" transform="translate(222.78 65.24)" opacity="0.3"/>
          <path id="Trazado_106239" data-name="Trazado 106239" d="M250.45,103.81v3.94h-2.89v-3.94c-3.44-.21-6.77-1.33-8.6-2.91l1.58-3.55a13.5,13.5,0,0,0,7,2.67V93c-3.89-.91-8.07-2.21-8.07-7.09,0-3.58,2.6-6.71,8.07-7.23v-4h2.89v3.89a14.92,14.92,0,0,1,7.12,2.15l-1.41,3.55a14.22,14.22,0,0,0-5.68-1.9v7.09c3.89.91,8.14,2.18,8.14,7.06C258.6,100.16,256,103.22,250.45,103.81Zm-2.89-15V82.52c-2.49.4-3.54,1.66-3.54,3.21s1.51,2.42,3.54,3Zm6.54,8.12c0-1.73-1.54-2.53-3.65-3.13V100c2.56-.43,3.65-1.65,3.65-3.13Z" fill="#d9a171"/>
        </g>
      </g>
      <g id="freepik--Character--inject-131">
        <path id="Trazado_106240" data-name="Trazado 106240" d="M211,393.44h32.7L226.55,231.78c-.73-6.85-6.12-12.39-12.05-12.39H71.83L92.75,393.44Z" fill="#d9a171"/>
        <path id="Trazado_106241" data-name="Trazado 106241" d="M211,393.44h32.7L226.55,231.78c-.73-6.85-6.12-12.39-12.05-12.39H71.83L92.75,393.44Z" fill="#fff" opacity="0.1"/>
        <path id="Trazado_106242" data-name="Trazado 106242" d="M218.32,379.5h54l3.58-47.18.77-10.13h0l.35-4.65a28.161,28.161,0,0,1,.53-3.65l.19-.81a2.909,2.909,0,0,1,.15-.58A27.89,27.89,0,0,1,303,292.94H250.5a27.89,27.89,0,0,0-26.61,19.6,2.38,2.38,0,0,0-.16.58,26.069,26.069,0,0,0-.72,4.46l-.36,4.65h0Z" fill="#d9a171"/>
        <path id="Trazado_106243" data-name="Trazado 106243" d="M218.32,379.5h54l3.58-47.18.77-10.13h0l.35-4.65a28.161,28.161,0,0,1,.53-3.65l.19-.81a2.909,2.909,0,0,1,.15-.58A27.89,27.89,0,0,1,303,292.94H250.5a27.89,27.89,0,0,0-26.61,19.6,2.38,2.38,0,0,0-.16.58,26.069,26.069,0,0,0-.72,4.46l-.36,4.65h0Z" fill="#d9a171"/>
        <path id="Trazado_106244" data-name="Trazado 106244" d="M107.34,393.44H74.64L57.45,231.78c-.73-6.85,3.49-12.39,9.42-12.39H78.11c5.92,0,11.31,5.54,12,12.39Z" fill="#d9a171"/>
        <path id="Trazado_106245" data-name="Trazado 106245" d="M168.33,342.33H148.67c-4.78,0-8.65,4.47-8.65,10v17.19c0,5.52,3.87,10,8.65,10h19.66Z" fill="#d9a171"/>
        <g id="Grupo_57615" data-name="Grupo 57615" opacity="0.1">
          <path id="Trazado_106246" data-name="Trazado 106246" d="M168.33,342.33H148.67c-4.78,0-8.65,4.47-8.65,10v17.19c0,5.52,3.87,10,8.65,10h19.66Z"/>
        </g>
        <rect id="Rectángulo_8338" data-name="Rectángulo 8338" width="111.94" height="37.17" rx="5.72" transform="translate(160.35 342.33)" fill="#d9a171"/>
        <path id="Trazado_106247" data-name="Trazado 106247" d="M44.43,320.76a27.91,27.91,0,0,0,23.14,27.48l5.06,67c.44,5.71,4.58,10.08,9.49,10.08h54c-5,0-9.09-4.37-9.49-10.08l-2.71-35.78-2.35-31.26a27.86,27.86,0,0,1-20-14.68c-.26-.48-.49-1-.71-1.5a27.39,27.39,0,0,1-2.41-11.3,27.9,27.9,0,0,1,.59-5.69c.15-.75.34-1.5.54-2.21a28.24,28.24,0,0,1,4.63-9.07h0a27.889,27.889,0,0,1,9.64-8,27.58,27.58,0,0,1,12.5-3h-54A27.93,27.93,0,0,0,50.2,303.63h0A27.87,27.87,0,0,0,44.43,320.76Z" fill="#d9a171"/>
        <path id="Trazado_106248" data-name="Trazado 106248" d="M44.43,320.76a27.91,27.91,0,0,0,23.14,27.48l5.06,67c.44,5.71,4.58,10.08,9.49,10.08h54c-5,0-9.09-4.37-9.49-10.08l-2.71-35.78-2.35-31.26a27.86,27.86,0,0,1-20-14.68c-.26-.48-.49-1-.71-1.5a27.39,27.39,0,0,1-2.41-11.3,27.9,27.9,0,0,1,.59-5.69c.15-.75.34-1.5.54-2.21a28.24,28.24,0,0,1,4.63-9.07h0a27.889,27.889,0,0,1,9.64-8,27.58,27.58,0,0,1,12.5-3h-54A27.93,27.93,0,0,0,50.2,303.63h0A27.87,27.87,0,0,0,44.43,320.76Z" opacity="0.1"/>
        <path id="Trazado_106249" data-name="Trazado 106249" d="M98.41,320.76a27.91,27.91,0,0,0,23.13,27.48l5.07,67c.44,5.71,4.58,10.08,9.49,10.08h159c5,0,9.08-4.37,9.5-10.08l5.08-67.15a27.88,27.88,0,1,0-31.88-35.66,3.772,3.772,0,0,0-.16.6,26.669,26.669,0,0,0-.71,4.44l-.36,4.66h0l-4.33,57.3H159l-4.69-62c-.68-8.75-5.37-16.05-11.9-19.51a27.63,27.63,0,0,0-14.41-5c-.55-.05-1.06-.07-1.67-.07a27.46,27.46,0,0,0-12.11,2.79l-.35.16a28.131,28.131,0,0,0-9.65,7.95h0A27.84,27.84,0,0,0,98.41,320.76Z" fill="#d9a171"/>
        <circle id="Elipse_4112" data-name="Elipse 4112" cx="10.34" cy="10.34" r="10.34" transform="translate(114.944 320.377) rotate(-45)" opacity="0.1"/>
        <path id="Trazado_106250" data-name="Trazado 106250" d="M327.22,304.65a27.87,27.87,0,0,0-49.38,7.83,2.261,2.261,0,0,0-.16.58,26.9,26.9,0,0,0-.71,4.46l-.36,4.66h0l-4.33,57.31h-7.1a7.16,7.16,0,0,0,7.07-7.17V349.51a7.17,7.17,0,0,0-7.15-7.19H162.43c12.43,2.94,25.32,7.09,32.28,17.57,3.85,5.8,5.21,12.61,5.9,19.61.46,4.58.63,9.25,1,13.8,1,11.47,4.78,24.38,15.26,29.1,7.16,3.23,30.24,1.68,38.07,2.11a27,27,0,0,1,5.73.89h34.42c5,0,9.1-4.37,9.5-10.06l5.08-67.17a27.86,27.86,0,0,0,17.46-43.48Zm-19.55,26.06a10.34,10.34,0,1,0-.02,0Z" opacity="0.1"/>
        <path id="Trazado_106251" data-name="Trazado 106251" d="M90.79,446.25H89a2.1,2.1,0,0,1-2-1.85l-2.7-19H95.45l-2.7,19A2.1,2.1,0,0,1,90.79,446.25Z" fill="#d9a171"/>
        <path id="Trazado_106252" data-name="Trazado 106252" d="M90.79,446.25H89a2.1,2.1,0,0,1-2-1.85l-2.7-19H95.45l-2.7,19A2.1,2.1,0,0,1,90.79,446.25Z" opacity="0.5"/>
        <path id="Trazado_106253" data-name="Trazado 106253" d="M288.39,446.25h-1.83a2.11,2.11,0,0,1-2-1.85l-2.7-19h11.16l-2.71,19A2.09,2.09,0,0,1,288.39,446.25Z" fill="#d9a171"/>
        <path id="Trazado_106254" data-name="Trazado 106254" d="M288.39,446.25h-1.83a2.11,2.11,0,0,1-2-1.85l-2.7-19h11.16l-2.71,19A2.09,2.09,0,0,1,288.39,446.25Z" opacity="0.5"/>
        <path id="Trazado_106255" data-name="Trazado 106255" d="M231.23,446.25h-1.84a2.09,2.09,0,0,1-1.95-1.85l-2.71-19H235.9l-2.71,19A2.1,2.1,0,0,1,231.23,446.25Z" fill="#d9a171"/>
        <path id="Trazado_106256" data-name="Trazado 106256" d="M231.23,446.25h-1.84a2.09,2.09,0,0,1-1.95-1.85l-2.71-19H235.9l-2.71,19A2.1,2.1,0,0,1,231.23,446.25Z" opacity="0.5"/>
        <path id="Trazado_106257" data-name="Trazado 106257" d="M146.51,446.25h-1.83a2.09,2.09,0,0,1-2-1.85l-2.71-19h11.17l-2.71,19A2.11,2.11,0,0,1,146.51,446.25Z" fill="#d9a171"/>
        <path id="Trazado_106258" data-name="Trazado 106258" d="M146.51,446.25h-1.83a2.09,2.09,0,0,1-2-1.85l-2.71-19h11.17l-2.71,19A2.11,2.11,0,0,1,146.51,446.25Z" opacity="0.5"/>
        <rect id="Rectángulo_8339" data-name="Rectángulo 8339" width="8.1" height="1.27" transform="translate(90.37 214.6)" fill="#d9a171"/>
        <rect id="Rectángulo_8340" data-name="Rectángulo 8340" width="31.7" height="1.27" transform="translate(107.33 214.6)" fill="#d9a171"/>
        <g id="freepik--group--inject-131">
          <path id="Trazado_106259" data-name="Trazado 106259" d="M294.57,420.56l2.95,19.33h-9.35l-6.14-19.33Z" fill="#ffc3bd"/>
          <path id="Trazado_106260" data-name="Trazado 106260" d="M298.71,435.58l-12.49-.31a.71.71,0,0,0-.78.61v9.25a2.09,2.09,0,0,0,2.05,1.87c4.35,0,6.41-.15,11.9,0a139.845,139.845,0,0,0,17.48-1.18c4.45-.76,3.25-4.93,1.24-5-9.09-.33-14.16-2.22-17.42-4.57A3.36,3.36,0,0,0,298.71,435.58Z" fill="#344154"/>
          <path id="Trazado_106261" data-name="Trazado 106261" d="M295.75,428.31l-1.18-7.75H282.03l3.02,9.66Z" opacity="0.2"/>
          <path id="Trazado_106262" data-name="Trazado 106262" d="M212.32,312.19s75.94.76,77.16,24.82c1.69,34.6,7.53,87.36,7.53,87.36l-14.34,3.94S262.24,376,261.44,349c-21.37-4.22-76.33,0-82.79-14a37.84,37.84,0,0,1-2.43-22.76Z" fill="#5e6178"/>
          <path id="Trazado_106263" data-name="Trazado 106263" d="M306.54,420.56l10.22,15.29-5.85,8.41-13.95-15.25Z" fill="#ffc3bd"/>
          <path id="Trazado_106264" data-name="Trazado 106264" d="M302.21,434.75l-5.25-5.74,8.71-9.71,5.62,8.36Z" opacity="0.2"/>
          <path id="Trazado_106265" data-name="Trazado 106265" d="M316.26,435.12l-8.15,6.05a.79.79,0,0,0-.33,1.05h0l4.76,8.6a2,2,0,0,0,2.78.56c3.79-2.52,5.49-3.92,10.33-7,3-1.91,6.82-4.15,10.94-6.8s1.53-6.4-.42-5.61c-8.83,3.45-11.72,2.57-15.83,2.29a12.741,12.741,0,0,0-4.08.86Z" fill="#344154"/>
          <path id="Trazado_106266" data-name="Trazado 106266" d="M310,424.11l-11.23,9.05s-29.79-17.34-54.41-63l.31-.57c-22.15-1.73-80.31-21.32-86.5-34.76a37.61,37.61,0,0,1-2.43-22.74h36.08S236.21,331.9,255.05,350C275.63,366.59,310,424.11,310,424.11Z" fill="#7e8193"/>
        </g>
        <g id="freepik--group--inject-131-2" data-name="freepik--group--inject-131">
          <path id="Trazado_106267" data-name="Trazado 106267" d="M213.5,316.68h0a97,97,0,0,1-32.7-.29l-23.28-4.22c0-5.21.69-22.29,1.64-43.8A340.632,340.632,0,0,0,157.49,224v-.13a7,7,0,0,1,6.47-7.38h.13c3.53-.23,8-.38,12.28-.24A220.994,220.994,0,0,1,201,218.36a66.773,66.773,0,0,1,8,2.11,10.56,10.56,0,0,1,7.39,7.9C218.88,240.47,221.44,264.64,213.5,316.68Z" fill="#fff"/>
          <path id="Trazado_106268" data-name="Trazado 106268" d="M175.59,215.31c-4.55-.15-9.22,0-13,.25h-.35a7.32,7.32,0,0,0-6.6,7.95c1,10.67,2.52,29.54,1.77,46.78-.53,40-1.84,41.55-1.84,41.55l.44.49c5.63,6.16,24.26,9.68,32.57,8.55h0c-1.4-15.45-2.82-72.34-4.59-95.53-.34-4.53-5.49-6.93-6-10Z" fill="#344154"/>
          <path id="Trazado_106269" data-name="Trazado 106269" d="M158.64,263.83c.23-12.92-.63-26.12-1.43-35.73a2.179,2.179,0,0,1,.34-.4c2.82-3.09,12.56,2.37,11.94,14.69C168.92,254.1,163.17,261.7,158.64,263.83Z" opacity="0.3"/>
          <path id="Trazado_106270" data-name="Trazado 106270" d="M157.42,272.42l1,7.26a5.86,5.86,0,0,0,6.61,5h0c5.12-.71,13.09-1.93,21.61-3.63C201.21,278.15,157.42,272.42,157.42,272.42Z" opacity="0.3"/>
          <path id="Trazado_106271" data-name="Trazado 106271" d="M218.77,313.26h0a12.94,12.94,0,0,1-11.53,7.11H203.1c1.05-68.09,1.05-84.39-3.46-102.83a110.552,110.552,0,0,1,11.55,2.11,12.37,12.37,0,0,1,8.1,9.06C221.94,239.07,217.35,255.81,218.77,313.26Z" fill="#344154"/>
          <path id="Trazado_106272" data-name="Trazado 106272" d="M191.45,224.3c-12.26-.35-16.09-8-16.09-8,5.81-4.9,4.95-19.52,3.79-27.61l6.13,6,8.35,8.2a31.811,31.811,0,0,0-.87,3.59,15.672,15.672,0,0,0-.28,2.64v.18c0,3.71,1.68,7,7.3,8.83C199.78,218.1,201.89,224.55,191.45,224.3Z" fill="#f7978d"/>
          <path id="Trazado_106273" data-name="Trazado 106273" d="M193.63,202.86a31.815,31.815,0,0,0-.87,3.59,15.671,15.671,0,0,0-.28,2.64v.18c-3.28-1-7.38-4.87-7.61-8.34a16.281,16.281,0,0,1,.15-3.42Z" opacity="0.2"/>
          <path id="Trazado_106274" data-name="Trazado 106274" d="M172.94,215.15l3.88-1.06a37.07,37.07,0,0,0,13.82,10.16,14.34,14.34,0,0,0-5.81,6C172.2,224.78,172.94,215.15,172.94,215.15Z" fill="#fff"/>
          <path id="Trazado_106275" data-name="Trazado 106275" d="M199.78,217.41l-3.45-1s-2,7.18-5.71,7.91c6.09,3,6.87,6.16,6.87,6.16C206.81,228.28,199.78,217.41,199.78,217.41Z" fill="#fff"/>
          <path id="Trazado_106276" data-name="Trazado 106276" d="M197.94,185.12s3.46,4.22,6.85-.78c-3.16-4.84-1.36-5.59-1.75-9.49A12.53,12.53,0,0,0,196.2,164l-4,.63C178.25,169.25,197.94,185.12,197.94,185.12Z" fill="#344154"/>
          <path id="Trazado_106277" data-name="Trazado 106277" d="M173.23,175.84a14.24,14.24,0,0,1,15.66-12.66h0c11.44.94,18.14,15.6,19.12,25.44a14.05,14.05,0,0,1-20.54,14.07c-7-3.61-9-9.63-13.14-19.61a14.29,14.29,0,0,1-1.1-7.24Z" fill="#f7978d"/>
          <path id="Trazado_106278" data-name="Trazado 106278" d="M178.55,191.9s3.88,3,6.58-2c-3.67-3.6-2-4.61-2.86-8a10.26,10.26,0,0,0-8-8.22L170.45,175C154.42,184.3,178.55,191.9,178.55,191.9Z" fill="#344154"/>
          <path id="Trazado_106279" data-name="Trazado 106279" d="M178.55,191.9s3.88,3,6.58-2c-3.67-3.6-2-4.61-2.86-8a10.26,10.26,0,0,0-8-8.22L170.45,175C154.42,184.3,178.55,191.9,178.55,191.9Z" fill="#fff" opacity="0.2"/>
          <path id="Trazado_106280" data-name="Trazado 106280" d="M201.31,192.74c.28.73.89,1.17,1.36,1s.64-.93.36-1.64-.87-1.18-1.35-1S201,192,201.31,192.74Z" fill="#344154"/>
          <path id="Trazado_106281" data-name="Trazado 106281" d="M200.27,187.38a5,5,0,0,0,3.7-2,33,33,0,0,1-6.48-5.83Z" fill="#ff5652"/>
          <path id="Trazado_106282" data-name="Trazado 106282" d="M174.79,185.61c2.6-.78,5.9,2.11,7.39,4.37,1.63,2.52,1,5.18-1.8,4.93a10.19,10.19,0,0,1-6.06-3.16C172.28,189.63,172.21,186.39,174.79,185.61Z" fill="#f7978d"/>
          <path id="Trazado_106283" data-name="Trazado 106283" d="M191.34,180.24c.55-.17,1.27.45,1.52,1.2a1.39,1.39,0,0,1-.49,1.74c-.5.18-1.16-.39-1.52-1.19a1.23,1.23,0,0,1,.49-1.75Z" fill="#344154"/>
          <path id="Trazado_106284" data-name="Trazado 106284" d="M200.6,176.83c.55-.17,1.22.36,1.5,1.2s.09,1.65-.46,1.81-1.22-.37-1.51-1.2S200.05,177,200.6,176.83Z" fill="#344154"/>
          <path id="Trazado_106285" data-name="Trazado 106285" d="M198,173.81a.57.57,0,0,0,.49.05,4.32,4.32,0,0,1,3.81,0,.5.5,0,0,0,.68-.14h0a.53.53,0,0,0-.18-.71h0a5.34,5.34,0,0,0-4.74,0,.54.54,0,0,0-.27.69.86.86,0,0,0,.21.11Z" fill="#344154"/>
          <path id="Trazado_106286" data-name="Trazado 106286" d="M188.18,179.38a.54.54,0,0,0,.41-.26,4.35,4.35,0,0,1,3-2.35.49.49,0,0,0,.45-.53h0a.52.52,0,0,0-.58-.44h0a5.28,5.28,0,0,0-3.77,2.89.51.51,0,0,0,.23.69.49.49,0,0,0,.26,0Z" fill="#344154"/>
          <path id="Trazado_106287" data-name="Trazado 106287" d="M199.67,169c-.1-1.27.56-4.11-.3-6a7.41,7.41,0,0,0-4.5-3.92c-3-.88-6.08.18-9,1.23a6.18,6.18,0,0,0-1.93,1,1.85,1.85,0,0,0,.7,3.37c.7.21,6.14.75,8.44,1.27C194.09,166.16,198.11,167.22,199.67,169Z" fill="#344154"/>
          <path id="Trazado_106288" data-name="Trazado 106288" d="M166.18,167.77c-3.49,3.54-6.23,11.92-3.77,16,1.05,1.72,5.89,3,5.89,3l6.53-5.89a15.69,15.69,0,0,0,6.1-9,8.56,8.56,0,0,1,8.82-6.35c1.06.07,2.44.11,2.73-.89s-1.4-2.64-2.62-3.47C185.07,157.85,176.87,156.9,166.18,167.77Z" fill="#344154"/>
          <path id="Trazado_106289" data-name="Trazado 106289" d="M181.1,171.31c2.11-5,5.39-5.89,10-5.8a4.2,4.2,0,0,0-1.85-2.6C185.24,160.39,181.32,167.87,181.1,171.31Z" opacity="0.2"/>
          <path id="Trazado_106290" data-name="Trazado 106290" d="M165.71,231.54c0,1.24.16,2.79.24,4.22l.31,4.4c.27,2.93.54,5.83.92,8.71s.82,5.72,1.43,8.44a48,48,0,0,0,2.2,7.68c.41,1.05,4.22-.25,14.69,3.51a29.718,29.718,0,0,0,7.53,1.41c1.41.1,2.81.12,4.22.11l2.11-.06,2-.11,2.26,7.24c-.91.41-1.65.69-2.45,1.05a19.006,19.006,0,0,1-2.42.89,40.837,40.837,0,0,1-5,1.23c-3.59.69-28.81,3.17-33.43-1.91-4.15-6.2-7.31-20.37-8.27-27.14-.5-3.29-.92-6.49-1.18-9.68-.14-1.66-.24-3.17-.33-4.84a15.809,15.809,0,0,0-.08-1.67c-.41-7.88-.07-18.11,10.86-18.9h0Z" fill="#344154"/>
          <path id="Trazado_106291" data-name="Trazado 106291" d="M198.26,262.28l26,12.65a1,1,0,0,0,.42.12l2.54.16-1.51-1.86a1.12,1.12,0,0,0-.36-.29l-25.71-13.4a1.14,1.14,0,0,0-1.52.43l-.36.59a1.16,1.16,0,0,0,.46,1.58Z" fill="#d9a171"/>
          <path id="Trazado_106292" data-name="Trazado 106292" d="M198.26,262.28l26,12.65a1,1,0,0,0,.42.12l2.54.16-1.51-1.86a1.12,1.12,0,0,0-.36-.29l-25.71-13.4a1.14,1.14,0,0,0-1.52.43l-.36.59a1.16,1.16,0,0,0,.46,1.58Z" opacity="0.6"/>
          <path id="Trazado_106293" data-name="Trazado 106293" d="M204.23,267.78l5.65-1.91,2.88,9.5a13,13,0,0,1-8.61,2,4,4,0,0,1-3.24-3.16l-.16-.82a4.69,4.69,0,0,1-.07-1.12,5.09,5.09,0,0,1,3.55-4.49Z" fill="#f7978d"/>
          <path id="Trazado_106294" data-name="Trazado 106294" d="M218.84,268.38l-.71,6.2-5.37.74-2.88-9.45Z" fill="#f7978d"/>
          <path id="Trazado_106295" data-name="Trazado 106295" d="M193,204.57l2.2,6.66,10.09-.38-4-10.07a31.06,31.06,0,0,1-8.29,3.79Z" fill="#f7978d"/>
          <path id="Trazado_106296" data-name="Trazado 106296" d="M205.33,210.85l6.26-.05,2.26-5.6-12.53-4.42Z" fill="#f7978d"/>
          <path id="Trazado_106297" data-name="Trazado 106297" d="M216.44,246.27l12.66,13c7.16,3.36,13.57-.6,12.35-8.44a2.07,2.07,0,0,0-.15-.77c-18-30-29.25-30-29.25-30S207.6,230.36,216.44,246.27Z" fill="#344154"/>
          <path id="Trazado_106298" data-name="Trazado 106298" d="M221.05,240.27l1.31,6.33a25.74,25.74,0,0,0,6.75,12.74h0s3,1.58,5.27,1.2S221.05,240.27,221.05,240.27Z" opacity="0.3"/>
          <path id="Trazado_106299" data-name="Trazado 106299" d="M209.88,211.15s15.9,47.8,24.49,49.36,18.45-17.46-20-56.82Z" fill="#344154"/>
        </g>
      </g>
      <g id="freepik--Desk--inject-131">
        <g id="freepik--Group--inject-131-3" data-name="freepik--Group--inject-131">
          <path id="Trazado_106300" data-name="Trazado 106300" d="M364.49,295.61V460.69h-3.67L356.2,295.61Z" fill="#d9a171"/>
          <path id="Trazado_106301" data-name="Trazado 106301" d="M364.49,295.61V460.69h-3.67L356.2,295.61Z" fill="#fff" opacity="0.6"/>
          <path id="Trazado_106302" data-name="Trazado 106302" d="M345.51,299.96V452.89h-3.67l-4.62-152.93Z" fill="#d9a171"/>
          <path id="Trazado_106303" data-name="Trazado 106303" d="M345.51,299.96V452.89h-3.67l-4.62-152.93Z" fill="#fff" opacity="0.3"/>
          <path id="Trazado_106304" data-name="Trazado 106304" d="M144.21,294.56V452.89h3.69l4.61-158.33Z" fill="#d9a171"/>
          <path id="Trazado_106305" data-name="Trazado 106305" d="M144.21,294.56V452.89h3.69l4.61-158.33Z" fill="#fff" opacity="0.3"/>
          <path id="Trazado_106306" data-name="Trazado 106306" d="M165.04,302.07V460.74h3.67l4.62-158.67Z" fill="#d9a171"/>
          <g id="Grupo_57616" data-name="Grupo 57616" opacity="0.6">
            <path id="Trazado_106307" data-name="Trazado 106307" d="M165.04,302.07V460.74h3.67l4.62-158.67Z" fill="#fff"/>
          </g>
          <rect id="Rectángulo_8341" data-name="Rectángulo 8341" width="273.68" height="6.92" transform="translate(118.84 289.6)" fill="#d9a171"/>
          <rect id="Rectángulo_8342" data-name="Rectángulo 8342" width="273.68" height="6.92" transform="translate(118.84 289.6)" fill="#fff" opacity="0.6"/>
          <path id="Trazado_106308" data-name="Trazado 106308" d="M136.85,303.92h236.3l9.59-7.4H127.26Z" fill="#d9a171"/>
          <path id="Trazado_106309" data-name="Trazado 106309" d="M136.85,303.92h236.3l9.59-7.4H127.26Z" opacity="0.5"/>
        </g>
        <path id="Trazado_106310" data-name="Trazado 106310" d="M392.82,288.32a1.37,1.37,0,0,1-1.37-1.37h0a1.34,1.34,0,0,1,.1-.52l30.81-83.7a1.38,1.38,0,0,1,2.53,1.05L394.1,287.46A1.38,1.38,0,0,1,392.82,288.32Z" fill="#344154"/>
        <path id="Trazado_106311" data-name="Trazado 106311" d="M422,199a1.47,1.47,0,0,1-.75-.44L368.9,140.62a1.36,1.36,0,1,1,2-1.82h0l52.38,57.88a1.37,1.37,0,0,1-.12,1.93h0a1.35,1.35,0,0,1-1.17.31Z" fill="#344154"/>
        <path id="Trazado_106312" data-name="Trazado 106312" d="M370.31,136.26a4.33,4.33,0,1,1-5.09,3.39h0a4.32,4.32,0,0,1,5.09-3.39Z" fill="#344154"/>
        <path id="Trazado_106313" data-name="Trazado 106313" d="M362.15,169.76A9.7,9.7,0,1,1,367,156.92h0a9.71,9.71,0,0,1-4.85,12.84Z" fill="#d9a171"/>
        <path id="Trazado_106314" data-name="Trazado 106314" d="M362.15,169.76A9.7,9.7,0,1,1,367,156.92h0a9.71,9.71,0,0,1-4.85,12.84Z" fill="#fff" opacity="0.7"/>
        <path id="Trazado_106315" data-name="Trazado 106315" d="M367.07,145.19a20.74,20.74,0,0,0-28.17,8.19h0l36.41,20.05a20.78,20.78,0,0,0-8.16-28.22h0Z" fill="#344154"/>
        <path id="Trazado_106316" data-name="Trazado 106316" d="M383.14,289.6v-6.84h12.52v21.16H383.14v-7.4h9.8V289.6Z" fill="#344154"/>
        <path id="Trazado_106317" data-name="Trazado 106317" d="M365.22,139.64l-5.48,7.89,8.23,3.68,4.56-8.23Z" fill="#344154"/>
        <path id="Trazado_106318" data-name="Trazado 106318" d="M419.27,192.22l-1.84,15.43,5.36,2.77,5.01-10.18Z" fill="#344154"/>
        <path id="Trazado_106319" data-name="Trazado 106319" d="M363.85,274.41l8.55,14.77H355.9Z" fill="#d9a171"/>
        <path id="Trazado_106320" data-name="Trazado 106320" d="M363.85,274.41l8.55,14.77H355.9Z" fill="#fff" opacity="0.3"/>
        <path id="Trazado_106321" data-name="Trazado 106321" d="M347,288.72a53.994,53.994,0,0,0,8.9.57,56.526,56.526,0,0,0,9.1-.55,1.11,1.11,0,0,0,.25.51c.47.58,2.11,0,2.11,0s.85-1.53.38-2.11c-.11-.13-.33-.14-.37-.29-.4-1.25,1.13-3.63,1.59-6.22s-.22-5,.62-6.21c.34-.51,1-.76,1.06-1.35s-.47-.85-.63-1.35c-.39-1.26,1.13-3.64,1.6-6.23s-.22-5,.62-6.21c.09-.16.32-.17.46-.29.69-.58.38-2.11.38-2.11s-1.42-.59-2.11,0c-.17.14-.22.41-.41.5-1.76.88-5.05-.57-8.9-.58s-7.66,1.44-9.1.55c-.16-.09-.13-.35-.25-.5-.48-.59-2.11,0-2.11,0s-.85,1.53-.37,2.11c.1.13.32.14.36.3.4,1.24-1.13,3.64-1.58,6.21s.21,5-.62,6.23c-.34.5-1,.75-1.06,1.35s.46.84.62,1.35c.4,1.24-1.13,3.64-1.59,6.21s.22,5-.62,6.22c-.1.15-.33.16-.47.29-.69.59-.37,2.11-.37,2.11s1.42.58,2.11,0a2.2,2.2,0,0,0,.4-.51Z" fill="#344154"/>
        <path id="Trazado_106322" data-name="Trazado 106322" d="M346.22,288.72a54.1,54.1,0,0,0,8.9.57,56.646,56.646,0,0,0,9.11-.55,1.09,1.09,0,0,0,.24.51c.47.58,2.11,0,2.11,0s.85-1.53.38-2.11c-.11-.13-.33-.14-.37-.29-.4-1.25,1.13-3.63,1.58-6.22s-.21-5,.62-6.21c.34-.51,1-.76,1.06-1.35s-.46-.85-.61-1.35c-.4-1.26,1.12-3.64,1.59-6.23s-.22-5,.62-6.21c.1-.16.32-.17.47-.29.68-.58.37-2.11.37-2.11s-1.43-.59-2.1,0c-.17.14-.24.41-.42.5-1.76.88-5-.57-8.9-.58s-7.66,1.44-9.11.55c-.15-.09-.12-.35-.24-.5-.48-.59-2.1,0-2.1,0s-.86,1.53-.38,2.11c.1.13.32.14.36.3.41,1.24-1.12,3.64-1.58,6.21s.21,5-.62,6.23c-.34.5-1,.75-1.05,1.35s.45.84.61,1.35c.4,1.24-1.13,3.64-1.59,6.21s.22,5-.62,6.22c-.1.15-.32.16-.47.29-.69.59-.38,2.11-.38,2.11s1.43.58,2.11,0a2.24,2.24,0,0,0,.41-.51Z" fill="#d9a171"/>
        <path id="Trazado_106323" data-name="Trazado 106323" d="M347.52,277.7l1.66-9.35a12,12,0,0,1,11.37-9.64h0c5.34,0,8.9,4.34,7.95,9.67l-1.67,9.34a12,12,0,0,1-11.37,9.65h0C350.12,287.36,346.58,283,347.52,277.7Z" fill="#fff" opacity="0.5"/>
        <rect id="Rectángulo_8343" data-name="Rectángulo 8343" width="10.91" height="8.67" transform="translate(305.81 281.91)" fill="#d9a171"/>
        <rect id="Rectángulo_8344" data-name="Rectángulo 8344" width="8.67" height="5.62" transform="translate(306.95 283.6)" fill="#d9a171"/>
        <rect id="Rectángulo_8345" data-name="Rectángulo 8345" width="8.67" height="5.62" transform="translate(306.95 283.6)" fill="#344154"/>
        <path id="Trazado_106324" data-name="Trazado 106324" d="M312.8,281.91h-3.09a2.12,2.12,0,0,1-2.11-2.11h0a2.11,2.11,0,0,1,2.11-2.11h3.09a2.1,2.1,0,0,1,2.11,2.11h0A2.11,2.11,0,0,1,312.8,281.91Z" fill="#d9a171"/>
        <path id="Trazado_106325" data-name="Trazado 106325" d="M314.76,269.29a4.841,4.841,0,0,0,1,1.13,1.56,1.56,0,0,1-1-1.13Z" fill="#d9a171"/>
        <path id="Trazado_106326" data-name="Trazado 106326" d="M321.29,273.51c-2.63,3.79-7,.07-9.12,6.42.11-.4,2.47-7.38,2.59-7.76,11.43-36.49,19.2-39,19.2-39s-2.84,7.54-4.64,20.78A42.47,42.47,0,0,1,321.29,273.51Z" fill="#d9a171"/>
        <path id="Trazado_106327" data-name="Trazado 106327" d="M334,233.11s-10.17,9.72-21.79,47.32c0,0,.79-5-.89-6.59-3.87-3.58-1.24-16.1,8.16-28.06,7.3-9.29,14.43-12.78,14.52-12.66Z" fill="#d9a171"/>
        <path id="Trazado_106328" data-name="Trazado 106328" d="M334,233.11s-5.41,3.74-9.49,12.42-11.11,28.74-11.11,28.74l-3.16,9.44-1.29,3.88.59.09a12.259,12.259,0,0,1,1.55-3.09l4.8-12.66S325.31,239.45,334,233.11Z" fill="#d9a171"/>
        <path id="Trazado_106329" data-name="Trazado 106329" d="M334,233.11s-5.41,3.74-9.49,12.42-11.11,28.74-11.11,28.74l-3.16,9.44-1.29,3.88.59.09a12.259,12.259,0,0,1,1.55-3.09l4.4-12.82S325.31,239.45,334,233.11Z" fill="#fff" opacity="0.5"/>
        <path id="Trazado_106330" data-name="Trazado 106330" d="M312.8,281.91h-3.09a2.12,2.12,0,0,1-2.11-2.11h0a2.11,2.11,0,0,1,2.11-2.11h3.09a2.1,2.1,0,0,1,2.11,2.11h0A2.11,2.11,0,0,1,312.8,281.91Z" opacity="0.6"/>
        <path id="Trazado_106331" data-name="Trazado 106331" d="M315.63,289.22H307V283.6h0a7.94,7.94,0,0,0,8.63,0h.05Z" opacity="0.8"/>
        <path id="Trazado_106332" data-name="Trazado 106332" d="M278.57,289.19h-67s1.56-8.15,2.44-8.33,12.28-9.18,24.91-4.14c2.75,1,4.74,1.93,6.17,2.53,1.43-.6,3.43-1.44,6.18-2.53,12.66-5,24,3.95,24.91,4.14S278.57,289.19,278.57,289.19Z" fill="#d9a171"/>
        <path id="Trazado_106333" data-name="Trazado 106333" d="M278.57,289.19h-67V289c.25-1.26,1.6-8,2.41-8.13l.15-.06c1.59-.79,12.59-8.93,24.73-4.08,2.77,1,4.76,1.92,6.19,2.53,1.43-.61,3.42-1.44,6.18-2.53,12.65-5,24,3.95,24.91,4.14S278.57,289.19,278.57,289.19Z" fill="#fff" opacity="0.6"/>
        <path id="Trazado_106334" data-name="Trazado 106334" d="M286.22,289.19H218.38s1.57-8.24,2.47-8.44,12.43-8.05,25.2-2.95c2.78,1.11,6.25,5.43,6.25,5.43s3.46-4.32,6.26-5.43c12.79-5.1,24.26,2.76,25.21,2.95S286.22,289.19,286.22,289.19Z" fill="#d9a171"/>
        <path id="Trazado_106335" data-name="Trazado 106335" d="M286.22,289.19H218.38s1.57-8.24,2.47-8.44,12.43-8.05,25.2-2.95c2.78,1.11,6.25,5.43,6.25,5.43s3.46-4.32,6.26-5.43c12.79-5.1,24.26,2.76,25.21,2.95S286.22,289.19,286.22,289.19Z" fill="#fff" opacity="0.8"/>
        <path id="Trazado_106336" data-name="Trazado 106336" d="M252.6,285.5l-2.15,3.91h5.1Z" fill="#d9a171"/>
        <g id="Grupo_57617" data-name="Grupo 57617" opacity="0.3">
          <path id="Trazado_106337" data-name="Trazado 106337" d="M252.6,285.5l-2.15,3.91h5.1Z"/>
        </g>
        <path id="Trazado_106338" data-name="Trazado 106338" d="M220.75,280.8a15,15,0,0,0-1.05,2.9c-.64,2.48-1.3,5.49-1.3,5.49h-6.84V289c.24-1.26,1.59-8,2.4-8.13l.15-.06Z" opacity="0.1"/>
        <path id="Trazado_106339" data-name="Trazado 106339" d="M288.81,291.7l-33.26.77-.07-.07a3.74,3.74,0,0,0-4.95,0l-.07.07L216.2,292l-8.65-.1.65-3h42.22a3.7,3.7,0,0,1,5.09,0l32.43-.05Z" fill="#d9a171"/>
        <g id="Grupo_57618" data-name="Grupo 57618" opacity="0.3">
          <path id="Trazado_106340" data-name="Trazado 106340" d="M216.86,288.95l-.66,3.06-8.65-.09.65-2.97Z"/>
        </g>
        <path id="Trazado_106341" data-name="Trazado 106341" d="M255.55,283.68s5.21-6,11.54-4.88C267.09,278.8,262.66,278.25,255.55,283.68Z" fill="#d9a171"/>
        <path id="Trazado_106342" data-name="Trazado 106342" d="M255.55,283.68s5.21-6,11.54-4.88C267.09,278.8,262.66,278.25,255.55,283.68Z" fill="#fff" opacity="0.4"/>
        <path id="Trazado_106343" data-name="Trazado 106343" d="M243.12,286.44s-7-3.79-12.52-.55C230.6,285.89,234.59,283.83,243.12,286.44Z" fill="#d9a171"/>
        <path id="Trazado_106344" data-name="Trazado 106344" d="M243.12,286.44s-7-3.79-12.52-.55C230.6,285.89,234.59,283.83,243.12,286.44Z" fill="#fff" opacity="0.4"/>
        <path id="Trazado_106345" data-name="Trazado 106345" d="M249.73,284.43s-5.59-5.66-11.83-4.15C237.9,280.21,242.28,279.41,249.73,284.43Z" fill="#d9a171"/>
        <path id="Trazado_106346" data-name="Trazado 106346" d="M249.73,284.43s-5.59-5.66-11.83-4.15C237.9,280.21,242.28,279.41,249.73,284.43Z" fill="#fff" opacity="0.4"/>
        <path id="Trazado_106347" data-name="Trazado 106347" d="M263.87,283.58s7-3.82,12.52-.6C276.39,283,272.41,280.93,263.87,283.58Z" fill="#d9a171"/>
        <path id="Trazado_106348" data-name="Trazado 106348" d="M263.87,283.58s7-3.82,12.52-.6C276.39,283,272.41,280.93,263.87,283.58Z" fill="#fff" opacity="0.4"/>
        <path id="Trazado_106349" data-name="Trazado 106349" d="M132.42,274.23l.58,1a4,4,0,0,1,.49,1.87V283c0,3.58,3.92,6.51,8.75,6.51h1.28c3.51,0,6.53-1.56,7.91-3.78a2.84,2.84,0,0,0,1.11-.49l3.4-2.54a1.76,1.76,0,0,0,.79-1.41v-3.17c0-1-1.2-2-2.67-2h-1.75c-.09-.21.1-.55.36-.89l.08-.07a9.88,9.88,0,0,1,.93-.9h.06s-.15-.74-1.94-.37c-.52.12-1.06.25-1.47.37H150a7.36,7.36,0,0,0-4.66-.07,7.49,7.49,0,0,0-4.3,0h0a7.53,7.53,0,0,0-4.53.11h-.61c-.45-.12-1-.25-1.48-.36C132.58,273.49,132.42,274.23,132.42,274.23Zm19.75,10.1c0-.07.06-4.7.08-6.68,0-.48.53-.87,1.18-.87h.75c.93,0,1.68.57,1.68,1.26v2.89c0,1,0,.91-1,1.6Z" fill="#d9a171"/>
        <path id="Trazado_106350" data-name="Trazado 106350" d="M154.06,276.14h-1.75c-.1-.21.1-.55.36-.89l.08-.07a9.884,9.884,0,0,1,.93-.9h.06s-.15-.75-1.94-.37c-.53.12-1.06.24-1.47.37H150a7.26,7.26,0,0,0-4.65-.07,7.49,7.49,0,0,0-4.3,0,7.53,7.53,0,0,0-4.53.11h-.62c-.44-.12-.95-.25-1.47-.37-1.79-.38-1.95.37-1.95.37l.58,1.06a3.81,3.81,0,0,1,.49,1.87v5.87c0,3.59,3.92,6.52,8.74,6.52h1.28c3.52,0,6.54-1.56,7.92-3.79a2.819,2.819,0,0,0,1.11-.48l3.41-2.54a1.83,1.83,0,0,0,.79-1.42v-3.16a2.54,2.54,0,0,0-2.74-2.11Zm1.8,4.79c0,1,0,.91-1,1.6l-2.75,1.8c0-.07.07-4.7.08-6.68a1.06,1.06,0,0,1,1.19-.87h.75c.93,0,1.68.57,1.68,1.26Z" fill="#fff" opacity="0.8"/>
        <path id="Trazado_106351" data-name="Trazado 106351" d="M135,255.34c.44,2.28,2.27,4,4.11,5.43s3.87,2.75,5,4.77,1.05,5-.95,6.24a6.94,6.94,0,0,0,2.76-9.43A6.83,6.83,0,0,0,143.8,260c-1.66-1.17-3.86-1.62-5.27-3.17a6.09,6.09,0,0,1-1.19-5.09,29.191,29.191,0,0,1,1.54-4.35C136.43,248,134.49,252.78,135,255.34Z" fill="#d9a171"/>
        <path id="Trazado_106352" data-name="Trazado 106352" d="M140.81,249.23a16.46,16.46,0,0,0,2.11-5.61c.24-2-2.11-5.33-2.11-5.33A8.44,8.44,0,0,1,143.33,250a9.373,9.373,0,0,1-.57.79,15.511,15.511,0,0,1-3.55,3.16C138.91,252.28,140,250.67,140.81,249.23Z" fill="#d9a171"/>
        <path id="Trazado_106353" data-name="Trazado 106353" d="M135,255.34c.44,2.28,2.27,4,4.11,5.43s3.87,2.75,5,4.77,1.05,5-.95,6.24a6.94,6.94,0,0,0,2.76-9.43A6.83,6.83,0,0,0,143.8,260c-1.66-1.17-3.86-1.62-5.27-3.17a6.09,6.09,0,0,1-1.19-5.09,29.191,29.191,0,0,1,1.54-4.35C136.43,248,134.49,252.78,135,255.34Z" fill="#fff" opacity="0.8"/>
        <path id="Trazado_106354" data-name="Trazado 106354" d="M140.81,249.23a16.46,16.46,0,0,0,2.11-5.61c.24-2-2.11-5.33-2.11-5.33A8.44,8.44,0,0,1,143.33,250a9.373,9.373,0,0,1-.57.79,15.511,15.511,0,0,1-3.55,3.16C138.91,252.28,140,250.67,140.81,249.23Z" fill="#fff" opacity="0.8"/>
      </g>
    </g>
  </g>
</svg>
