<svg xmlns="http://www.w3.org/2000/svg" width="741.667" height="415.896" viewBox="0 0 741.667 415.896">
  <g id="Capa_2" data-name="Capa 2" transform="translate(-114 -29.48)">
    <g id="Grupo_57210" data-name="Grupo 57210">
      <path id="Trazado_106616" data-name="Trazado 106616" d="M390.59,123a2.68,2.68,0,0,0-2.55-1.12,4.07,4.07,0,0,0-2.5,1.43,8.64,8.64,0,0,0-1.45,2.54,11,11,0,0,0-.92,4.74,46.373,46.373,0,0,1-4.9-5.2l-.4-.51,4.19-2.91a9.09,9.09,0,0,0,2.51-2.27,3,3,0,0,0,.23-3.21,2.66,2.66,0,0,0-2.56-1.11,4.08,4.08,0,0,0-2.49,1.42,8.6,8.6,0,0,0-1.45,2.55,10.93,10.93,0,0,0-.92,4.89,47.537,47.537,0,0,1-4.23-6.7l4.13-3.11a9.06,9.06,0,0,0,2.42-2.36,3,3,0,0,0,.11-3.22,2.69,2.69,0,0,0-2.6-1,4.1,4.1,0,0,0-2.44,1.52,8.7,8.7,0,0,0-1.35,2.6,11.15,11.15,0,0,0-.76,4.62,48.149,48.149,0,0,1-2.21-5.3c-.18-.53-.36-1.07-.52-1.62l4.14-3.33a9,9,0,0,0,2.34-2.44,3,3,0,0,0,0-3.22,2.67,2.67,0,0,0-2.63-.93,4,4,0,0,0-2.39,1.6,8.71,8.71,0,0,0-1.27,2.64,12,12,0,0,0-.64,4.14,43.569,43.569,0,0,1-1.12-5.66c.67-1.59,1.33-3.19,2-4.78a9,9,0,0,0,.9-3.26,3,3,0,0,0-1.53-2.84A2.67,2.67,0,0,0,367,92a4,4,0,0,0-1.34,2.54,8.76,8.76,0,0,0,.14,2.93,10.5,10.5,0,0,0,2.11,4.93h0a45.806,45.806,0,0,0,1.2,6,11.369,11.369,0,0,0-3.25-3,8.79,8.79,0,0,0-2.65-1.24,4.08,4.08,0,0,0-2.86.28,2.69,2.69,0,0,0-1.45,2.39,3.08,3.08,0,0,0,2.05,2.49,9,9,0,0,0,3.36.39h5.18a47.5,47.5,0,0,0,2.75,7,11.26,11.26,0,0,0-4.05-2.21,8.64,8.64,0,0,0-2.88-.54,4,4,0,0,0-2.7,1,2.69,2.69,0,0,0-.81,2.67,3,3,0,0,0,2.61,1.9,8.76,8.76,0,0,0,3.35-.45l5-1.33a2.126,2.126,0,0,0,.11.21,46.892,46.892,0,0,0,4.15,6.54,10.58,10.58,0,0,0-4.88-1.64,8.67,8.67,0,0,0-2.92,0,4,4,0,0,0-2.45,1.51,2.69,2.69,0,0,0-.25,2.78,3,3,0,0,0,2.93,1.33,9,9,0,0,0,3.19-1.11l4.78-2.4.07.09h0a46.913,46.913,0,0,0,5.09,5.55,11.58,11.58,0,0,0-4.65.13,8.9,8.9,0,0,0-2.81,1,4.1,4.1,0,0,0-1.88,2.24,2.71,2.71,0,0,0,.65,2.77,3.09,3.09,0,0,0,3.26.34,9.069,9.069,0,0,0,2.72-2.1l3.49-3.48.12-.09a44.809,44.809,0,0,0,6.71,4.89c.25.15.53-.22.28-.37a44.44,44.44,0,0,1-6.6-4.79l4-2.76a8.77,8.77,0,0,0,2.51-2.26,3,3,0,0,0,.21-3.13Z" fill="#bedcf5"/>
      <path id="Trazado_106617" data-name="Trazado 106617" d="M671.56,120.88c-.08-2-3.25-3.47-7.08-3.32-3.2.12-5.85,1.34-6.6,2.89l-.37-.08a28.229,28.229,0,0,1-9.18-3.6h0l.81-.93a71.582,71.582,0,0,0,5.1-7,9.75,9.75,0,0,0,4.63,1.19,45.057,45.057,0,0,0,5.45.19,36.709,36.709,0,0,0,4.19-.29.879.879,0,0,0,0,.15c.68,1.87,4.16,2.3,7.76,1s6-3.91,5.28-5.77-4.16-2.3-7.76-1c-2.82,1-4.89,2.85-5.32,4.48-1.29.15-2.59.25-3.89.29a45.079,45.079,0,0,1-4.93-.12c-1.6-.12-3.47-.16-4.85-1.08,1.91-3,3.71-6.14,5.58-9.2h.13a19.34,19.34,0,0,0,9.28-.59c.5-.16,1-.34,1.5-.52,1.32,1.09,4.18,1.18,7.13.1,3.6-1.32,6-3.91,5.28-5.77s-4.16-2.29-7.76-1-5.86,3.79-5.33,5.64A18.59,18.59,0,0,1,661,97.63c1-1.65,2.06-3.28,3.17-4.87A55.337,55.337,0,0,1,670,85.61c1.57.78,4.48-.19,7-2.44,2.84-2.58,4.07-5.86,2.74-7.33s-4.71-.58-7.56,2c-2.67,2.41-3.92,5.45-3,7a69.571,69.571,0,0,0-8.78,11.63,22.225,22.225,0,0,1-.83-4.52c-.22-1.75-.43-3.5-.56-5.26-.08-1.16-.12-2.32-.11-3.48,1.4-.92,2.5-3.4,2.65-6.37.19-3.83-1.26-7-3.24-7.12s-3.75,2.93-3.94,6.76,1.26,7,3.24,7.12h.17c0,1.11.05,2.21.13,3.31.13,1.77.33,3.53.55,5.28a19.8,19.8,0,0,0,1.14,5.34.159.159,0,0,0,.07.13c-.58.95-1.16,1.91-1.73,2.87-1.3,2.17-2.59,4.35-3.94,6.49a41.619,41.619,0,0,1-5-12.7c1.41-1,2.23-3.76,1.89-6.92-.4-3.82-2.33-6.75-4.3-6.54s-3.24,3.48-2.84,7.29,2.25,6.61,4.18,6.54a42.31,42.31,0,0,0,5.14,13,.52.52,0,0,0,.29.24c-.89,1.39-1.81,2.75-2.78,4.08s-2.2,2.87-3.39,4.21l-.08-.13a34.489,34.489,0,0,1-5.25-8.34c-.35-.8-.69-1.62-1-2.47,1.09-1.29,1.41-4,.67-6.9-.94-3.72-3.27-6.34-5.19-5.85s-2.71,3.9-1.77,7.62,3.27,6.34,5.2,5.85h.15c.25.68.52,1.35.8,2a35.592,35.592,0,0,0,5.55,8.91.55.55,0,0,0,.2.15,62.262,62.262,0,0,1-5.69,5.44l-1.17,1a.744.744,0,0,0-.07-.12,32.333,32.333,0,0,1-3.23-4.64c.89-1.38,1.11-3.9.43-6.57-.95-3.72-3.27-6.34-5.19-5.85s-2.72,3.9-1.77,7.62,3.27,6.34,5.19,5.85a1.909,1.909,0,0,0,.53-.22,33.376,33.376,0,0,0,3.2,4.56v.05a128.6,128.6,0,0,1-11.3,7.78c-.61.38-.11,1.39.5,1a129.4,129.4,0,0,0,11.83-8.16,31.749,31.749,0,0,0,4.11,2.61,2.2,2.2,0,0,0-.05.25c-.18,2,2.77,3.86,6.6,4.21s7.07-1,7.25-2.94-2.77-3.86-6.6-4.21c-2.95-.27-5.55.45-6.67,1.7a29.678,29.678,0,0,1-3.74-2.35,65,65,0,0,0,6.85-6.42.6.6,0,0,0,.14.13,29.15,29.15,0,0,0,9.89,3.82h.06c.22,1.91,3.33,3.32,7.07,3.18S671.63,122.86,671.56,120.88Z" fill="#aed3f2"/>
      <path id="Trazado_106618" data-name="Trazado 106618" d="M614.72,317.38c.25-2.15,2.68-3.5,4.82-3.23a9.18,9.18,0,0,1,5.38,3.34,36.1,36.1,0,0,1,5.4,8.54c-.1-3.24-.08-6.48,0-9.72q.12-3.19.38-6.41a24.55,24.55,0,0,1-13.1-5.87c-1.38-1.21-2.72-2.84-2.5-4.67.26-2.13,2.69-3.49,4.82-3.22a9,9,0,0,1,5.37,3.31,36.911,36.911,0,0,1,5.55,8.84,126.08,126.08,0,0,1,3.3-19.5A24.58,24.58,0,0,1,622.39,281c-1.18-1.42-2.24-3.24-1.73-5,.59-2.06,3.2-3,5.27-2.42a9.16,9.16,0,0,1,4.78,4.13,35.768,35.768,0,0,1,4,9.25c1.83-6.71,4.33-13.51,8.5-19.09l.27-.35A24.65,24.65,0,0,1,632.73,258c-1-1.57-1.75-3.53-1-5.2.88-2,3.6-2.53,5.56-1.65a9.09,9.09,0,0,1,4.14,4.77,37.878,37.878,0,0,1,2.74,10.61c5-6.33,11.18-11.76,16-18.24a24.61,24.61,0,0,1-10.93-9.58c-1-1.57-1.75-3.53-1-5.21.88-2,3.61-2.53,5.57-1.64a9.15,9.15,0,0,1,4.14,4.76,39.261,39.261,0,0,1,2.78,10.91,43.577,43.577,0,0,0,3.17-5.17,32.921,32.921,0,0,0,3.36-11.86,24.64,24.64,0,0,1-13.41-6.5c-1.33-1.27-2.6-3-2.3-4.78.34-2.12,2.83-3.37,5-3a9.11,9.11,0,0,1,5.23,3.54,39.467,39.467,0,0,1,5.56,10,42.779,42.779,0,0,0-3.36-19.68,24.73,24.73,0,0,1-11.57-7c-1.25-1.36-2.4-3.12-2-4.91.48-2.1,3-3.19,5.13-2.7a9.06,9.06,0,0,1,5,3.86,35.36,35.36,0,0,1,4.4,8.88.81.81,0,0,1,.25.32A44.74,44.74,0,0,1,669,224.72a35.332,35.332,0,0,1,0,3.71,24.64,24.64,0,0,1,8.31-10.21c1.51-1.06,3.41-2,5.13-1.34,2,.75,2.76,3.43,2,5.45a9.11,9.11,0,0,1-4.49,4.44,40,40,0,0,1-11.05,3.56,33,33,0,0,1-1.38,7.65,37.281,37.281,0,0,1-5.25,10.26,24.62,24.62,0,0,1,12.38-5.56c1.82-.25,3.93-.2,5.17,1.16,1.45,1.58.89,4.31-.7,5.76a9.11,9.11,0,0,1-6,1.9c-4.12.08-7.81-.89-11.77-2-3.81,5.08-8.48,9.61-12.65,14.31-1.31,1.47-2.57,3-3.74,4.54A24.59,24.59,0,0,1,658.22,262c1.82-.26,3.93-.21,5.17,1.14,1.45,1.59.9,4.32-.69,5.76a9.13,9.13,0,0,1-6,1.92c-4.21.09-8-.92-12-2a39.2,39.2,0,0,0-3.32,5.32,66.1,66.1,0,0,0-4.26,10.77c-.3,1-.58,2-.85,3a24.55,24.55,0,0,1,11.24-7.24c1.76-.54,3.85-.81,5.28.34,1.68,1.34,1.55,4.12.2,5.8a9.17,9.17,0,0,1-5.65,2.81,39.641,39.641,0,0,1-11.51-.08,122,122,0,0,0-3.17,19.07,24.58,24.58,0,0,1,9.63-10.07c1.6-.91,3.57-1.64,5.23-.84,1.93.94,2.42,3.68,1.47,5.61a9.05,9.05,0,0,1-4.88,4c-3.76,1.59-7.52,2.06-11.55,2.52-.07.85-.14,1.7-.2,2.55-.3,4.68-.4,9.38-.24,14.07a24.58,24.58,0,0,1,9.46-9.75c1.6-.91,3.58-1.64,5.23-.84,1.94.94,2.42,3.68,1.48,5.61a9.13,9.13,0,0,1-4.89,4,39.91,39.91,0,0,1-11.22,2.48A109.246,109.246,0,0,0,634,343.83c.22,1.09-1.49,1.35-1.71.26A109.867,109.867,0,0,1,630.4,328a24.81,24.81,0,0,1-13.17-5.93C615.84,320.85,614.5,319.21,614.72,317.38Z" fill="#aed3f2"/>
      <g id="Grupo_57172" data-name="Grupo 57172">
        <path id="Trazado_106619" data-name="Trazado 106619" d="M660.72,411.73A51.421,51.421,0,0,0,673,403.62l.19-.16c1.15-1,2.25-2.06,3.28-3.13a6.42,6.42,0,0,1-4.18-4.39,6.11,6.11,0,0,0,7.16,1,1.141,1.141,0,0,0,.3-.23,79.526,79.526,0,0,0,6-8.16l.12-.21a68.1,68.1,0,0,0,4.59-8.37l.07-.15-.16-.05a74.641,74.641,0,0,0-17.61-2.62h-.22a69.724,69.724,0,0,0-8.2.26,5.13,5.13,0,0,0-4.1,4.13,3.66,3.66,0,0,1,.43-3.68,52,52,0,0,0-13.75,4.06l-.38.19-.26.12a48.532,48.532,0,0,0-6.62,3.89l-.19.13c-14.33,10-21.55,25.74-22.29,27.43l-.06.15.15.05a72.679,72.679,0,0,0,13.73,2.4h.22a70.079,70.079,0,0,0,7.52.21h.4a62,62,0,0,0,11.1-1.29c-.55-1.29-1-2.36-1-2.36l4.5,1.47a48.571,48.571,0,0,0,6.98-2.58ZM683.31,380a.611.611,0,1,1-.76.42.63.63,0,0,1,.76-.42Zm-2.09.12a.717.717,0,1,1,0-.05Zm-21.93,3.82a.49.49,0,1,1,0-.05Zm-3-1a1.317,1.317,0,1,1-.04-.06Zm18.29,17.7a.31.31,0,0,1-.15.42.33.33,0,0,1-.43-.15.32.32,0,0,1,.17-.42.3.3,0,0,1,.37.09Zm3.67-6.13a.844.844,0,1,1-.04-.06Zm-2.82.28a.32.32,0,0,1-.15.42.33.33,0,0,1-.43-.15.32.32,0,0,1,.16-.43.31.31,0,0,1,.38.1Z" fill="#e8c7aa"/>
        <path id="Trazado_106620" data-name="Trazado 106620" d="M664.83,400.11l1.12,5h-.21L664.58,400l-9-3.87-10.37,4.8,10.12,4.49-.08.19L645,401.05l-18,8.33,12.12,7.11h-.4L631,412l.18,4.3H631l-.18-4.43-4-2.36-9.6,4.45-.09-.2L631,407.27l2.05-6.35.21.06-2,6.17,9.65-4.47,2.2-8.44c-.84-1.85-2.61-5.71-3.67-8l.19-.13c1.11,2.4,3,6.53,3.57,7.77l3-11.66.26-.12-5.34,20.44,19.25-8.92.6-6.53h.21l-.59,6.41,8.16-3.78,3.71-12.6h.22l-1.84,6.27c2.14-1.19,5.2-2.9,5.36-3l.07.07h0l.07-.07v.1c0,.06,0,.13-5.63,3.22l-1.74,5.91,21.28-9.85.16.05-.07.15-16.7,7.73,12.11.64-.12.21-12.41-.65L655.86,396l17.31,7.45-.19.16Z" fill="#fff"/>
      </g>
      <g id="Grupo_57173" data-name="Grupo 57173">
        <path id="Trazado_106621" data-name="Trazado 106621" d="M655.36,375.11a51.313,51.313,0,0,0,6-13.4.289.289,0,0,1,.07-.23c.44-1.48.8-3,1.1-4.4a6.4,6.4,0,0,1-5.88-1.49,6.09,6.09,0,0,0,6.59-3,.75.75,0,0,0,.13-.35,76.835,76.835,0,0,0,.73-10.11,2.162,2.162,0,0,1,0-.25,68.576,68.576,0,0,0-.6-9.53c0-.11,0-.16,0-.16h-.16a74.86,74.86,0,0,0-16.28,7.2,1.994,1.994,0,0,1-.19.12,69.523,69.523,0,0,0-6.79,4.6,5.14,5.14,0,0,0-1.26,5.68,3.62,3.62,0,0,1-1.6-3.34,52.139,52.139,0,0,0-9.45,10.79c-.07.12-.16.24-.22.37l-.15.24a48.515,48.515,0,0,0-3.53,6.82l-.08.21c-6.75,16.14-4.45,33.28-4.18,35.1v.16h.16a72,72,0,0,0,12.86-5.3l.19-.1a71.663,71.663,0,0,0,6.47-3.85l.34-.22a61.5,61.5,0,0,0,8.68-7c-1.15-.79-2.08-1.47-2.08-1.47l4.6-1.17A48.929,48.929,0,0,0,655.36,375.11Zm2.09-38.93a.61.61,0,1,1-.41.76.62.62,0,0,1,.41-.76Zm-1.7,1.22a.963.963,0,1,1-1.33.28A1,1,0,0,1,655.75,337.4Zm-16.49,15a.662.662,0,0,1-.72,1.11.65.65,0,0,1-.2-.9.67.67,0,0,1,.92-.26Zm-3.11.78a.45.45,0,1,1,0-.05Zm24.92,5.17a.32.32,0,0,1,.1.44.321.321,0,1,1-.1-.49Zm-.17-7.14a.74.74,0,1,1-.829,0,.74.74,0,0,1,.829,0Zm-2.24,1.75a.32.32,0,0,1,.1.43.319.319,0,1,1-.54-.34.31.31,0,0,1,.44-.14Z" fill="#bedcf5"/>
        <path id="Trazado_106622" data-name="Trazado 106622" d="M652.61,363.1l3.64,3.64-.16.14-3.74-3.75-9.66,1.53-6.2,9.61,11-1.61v.2l-11.13,1.65L625.6,391.16l14-.47-.34.22-8.91.3,2.44,3.55-.19.1-2.52-3.64-4.67.16-5.74,8.89-.18-.12,8.34-12.93-1.68-6.46.22-.06L628,387l5.8-9-2.65-8.31c-1.7-1.11-5.27-3.43-7.37-4.78l.08-.21c2.23,1.44,6,3.91,7.18,4.66l-3.65-11.48.15-.24L634,377.8,645.45,360l-3-5.84.19-.09,2.93,5.73,4.87-7.56-3.6-12.63a1.994,1.994,0,0,0,.19-.12l1.79,6.28c1.18-2.15,2.85-5.22,2.91-5.42h.1v-.09l.07.06c0,.07,0,.13-3,5.74l1.7,5.93,12.71-19.71h.16v.16l-10,15.46,10.57-5.93a2.176,2.176,0,0,0,0,.25l-10.83,6.08-10.45,16.18,18.61-2.94a.31.31,0,0,1-.07.23Z" fill="#fff"/>
      </g>
      <g id="Grupo_57174" data-name="Grupo 57174">
        <path id="Trazado_106623" data-name="Trazado 106623" d="M392.65,177.81a51.27,51.27,0,0,0-6.81-13,2.428,2.428,0,0,0-.14-.2c-.89-1.25-1.82-2.45-2.77-3.58a6.44,6.44,0,0,1-4.8,3.7,6.08,6.08,0,0,0,1.73-7,1,1,0,0,0-.19-.32,77.561,77.561,0,0,0-7.49-6.82,1.734,1.734,0,0,1-.2-.15,69.52,69.52,0,0,0-7.86-5.42l-.15-.08-.06.15a74.6,74.6,0,0,0-4.41,17.24v.23a70.06,70.06,0,0,0-.59,8.18,5.13,5.13,0,0,0,3.69,4.5,3.63,3.63,0,0,1-3.62-.81,51.71,51.71,0,0,0,2.64,14.1,3.25,3.25,0,0,0,.15.4l.09.27a48.739,48.739,0,0,0,3.18,7l.11.19c8.51,15.29,23.4,24.08,25,25l.14.08a1.148,1.148,0,0,0,.07-.15,72.07,72.07,0,0,0,3.78-13.39c0-.08,0-.14,0-.21a68.806,68.806,0,0,0,1-7.47v-.4a61.689,61.689,0,0,0-.15-11.17c-1.33.42-2.44.73-2.44.73L394.5,185a49,49,0,0,0-1.85-7.19Zm-29.3-25.73a.613.613,0,0,1,1.14.45.6.6,0,0,1-.79.34.61.61,0,0,1-.35-.79Zm-.09,2.09a.963.963,0,1,1-.61,1.22A1,1,0,0,1,363.26,154.17Zm1.55,22.21a.66.66,0,1,1-.379.335.66.66,0,0,1,.379-.335Zm-1.31,2.92a1.15,1.15,0,1,1-.71,1.46A1.15,1.15,0,0,1,363.5,179.3ZM383,162.92a.3.3,0,0,1,.4.19.31.31,0,0,1-.19.41.33.33,0,0,1-.41-.21.31.31,0,0,1,.2-.39Zm-5.72-4.28a.574.574,0,1,1-.02,0Zm0,2.83a.323.323,0,1,1,.21.61.34.34,0,0,1-.42-.2.33.33,0,0,1,.18-.41Z" fill="#e8c7aa"/>
        <path id="Trazado_106624" data-name="Trazado 106624" d="M381.51,172.53l5.12-.6v.21l-5.26.62-4.78,8.54,3.72,10.81,5.5-9.6.18.1-5.59,9.77,6.44,18.73,8.32-11.33v.4l-5.28,7.19,4.3.28v.21l-4.42-.27L387,211.36l3.44,10-.21.08-5-14.55-6.11-2.68.09-.21,5.93,2.62-3.46-10.06-8.17-3.06-8.32,2.83-.11-.19c2.51-.87,6.81-2.33,8.1-2.76l-11.28-4.23-.09-.27,19.78,7.41-6.9-20.07-6.5-1.22.05-.2,6.31,1.24-2.93-8.51-12.14-5v-.23l6,2.48c-1-2.26-2.34-5.47-2.46-5.65l.08-.05h0l-.06-.08h.1c.06,0,.13,0,2.63,5.93l5.7,2.33L363.91,145l.06-.15.15.08,6,17.4,1.88-12a1.735,1.735,0,0,0,.2.15l-1.93,12.27L376.51,181l9.19-16.45a2.426,2.426,0,0,1,.14.2Z" fill="#fff"/>
      </g>
      <g id="Grupo_57175" data-name="Grupo 57175">
        <path id="Trazado_106625" data-name="Trazado 106625" d="M366.12,192.46a51.491,51.491,0,0,0-12.71-7.37l-.23-.09c-1.42-.58-2.85-1.1-4.26-1.55a6.41,6.41,0,0,1-2.08,5.7,6.09,6.09,0,0,0-2.28-6.86.91.91,0,0,0-.34-.17,78.82,78.82,0,0,0-10-1.76h-.24a71.307,71.307,0,0,0-9.55-.38h-.16a.62.62,0,0,0,0,.16,73.74,73.74,0,0,0,5.49,16.93,1.993,1.993,0,0,0,.1.21,67.463,67.463,0,0,0,3.88,7.22,5.14,5.14,0,0,0,5.52,1.84,3.65,3.65,0,0,1-3.49,1.25,51.779,51.779,0,0,0,9.77,10.5,4.184,4.184,0,0,0,.33.26l.23.18a47.763,47.763,0,0,0,6.42,4.2l.2.11c15.36,8.37,32.65,7.84,34.49,7.75h.16v-.16a71.357,71.357,0,0,0-4-13.33,1.8,1.8,0,0,0-.08-.21,70.078,70.078,0,0,0-3.16-6.83l-.19-.36a60.909,60.909,0,0,0-6.1-9.35c-.9,1.06-1.67,1.91-1.67,1.91l-.69-4.69A48.752,48.752,0,0,0,366.12,192.46Zm-38.51-6.07a.614.614,0,1,1,.72.48.62.62,0,0,1-.72-.48Zm1,1.81a.94.94,0,0,1,1.34-.15.961.961,0,1,1-1.3.15Zm13.18,17.94a.434.434,0,1,0,.03,0Zm.45,3.17a.813.813,0,1,0,.04,0ZM350,185.05a.31.31,0,0,1,.44-.05.313.313,0,1,1-.39.49.31.31,0,0,1-.05-.44Zm-7.12-.56a.72.72,0,0,1,1-.11.73.73,0,0,1,.12,1,.74.74,0,0,1-1,.12.73.73,0,0,1-.13-1.01Zm1.51,2.4a.31.31,0,0,1,.44,0,.33.33,0,0,1,.06.45.32.32,0,0,1-.46.05.31.31,0,0,1-.05-.5Z" fill="#bedcf5"/>
        <path id="Trazado_106626" data-name="Trazado 106626" d="M353.89,194l4-3.24.12.17-4.11,3.35.53,9.76,8.92,7.15-.48-11.06h.2l.5,11.25L379,223.71l1-14,.19.36-.62,8.9,3.78-2.07a1.8,1.8,0,0,1,.08.21l-3.88,2.12-.32,4.67,8.26,6.62-.14.17-12-9.62-6.6,1v-.22l6.41-1-8.3-6.65-8.57,1.8c-1.29,1.59-4,4.9-5.52,6.85l-.2-.11c1.66-2.07,4.51-5.6,5.38-6.66l-11.8,2.46-.23-.18L366.6,214l-16.55-13.27-6.12,2.36-.07-.19,6-2.33-7-5.62-12.92,2.29a2,2,0,0,1-.1-.21l6.43-1.13c-2-1.39-4.9-3.37-5.1-3.46v-.09h-.09l.07-.07c.06,0,.13,0,5.39,3.61l6.07-1.08-18.29-14.67a.62.62,0,0,1,0-.16h.16l14.36,11.51L334,180.34h.24l4.93,11.4,15,12.05-1-18.81.23.09Z" fill="#fff"/>
      </g>
      <g id="Grupo_57178" data-name="Grupo 57178">
        <rect id="Rectángulo_8194" data-name="Rectángulo 8194" width="180.87" height="260.97" rx="18.09" transform="translate(217.9 163.85)" fill="#344154"/>
        <rect id="Rectángulo_8195" data-name="Rectángulo 8195" width="138.24" height="50.39" rx="6.46" transform="translate(239.22 185.81)" fill="#fff"/>
        <path id="Trazado_106627" data-name="Trazado 106627" d="M398.77,249.12V406.73a18.09,18.09,0,0,1-1.42,7h0a18.835,18.835,0,0,1-1.18,2.33h0a18.913,18.913,0,0,1-2.08,2.77h0c-.19.21-.39.43-.59.63a18,18,0,0,1-12.79,5.3H235l-.69-.06h-.35l-.72-.09-.79-.14-.27-.06a3.32,3.32,0,0,1-.68-.15h0l-.84-.24c-.57-.18-1.12-.38-1.66-.61a14.437,14.437,0,0,1-1.59-.76l-.75-.43c-.26-.16-.51-.32-.76-.5a7.749,7.749,0,0,1-.66-.46c-.25-.18-.48-.37-.71-.56l-.65-.56c-.29-.26-.56-.53-.83-.8l-.46-.5a18.319,18.319,0,0,1-2.71-3.95c-.09-.18-.18-.37-.26-.55s-.2-.42-.28-.63-.17-.43-.26-.64a18.16,18.16,0,0,1-1.13-6.32V249.12Z" fill="#5d6776"/>
        <path id="Trazado_106628" data-name="Trazado 106628" d="M398.77,181.93v224.8a17.94,17.94,0,0,1-1.42,7,18.09,18.09,0,0,0,1.42-7V249.12H388.15V171.31A18,18,0,0,0,387,165a18.08,18.08,0,0,1,11.77,16.93Z" fill="#f04ac6"/>
        <path id="Trazado_106629" data-name="Trazado 106629" d="M398.77,249.12V406.73a18.09,18.09,0,0,1-1.42,7h0a16.414,16.414,0,0,1-1.18,2.33h0a17.589,17.589,0,0,1-2.08,2.77h0c-.19.21-.39.43-.59.63a18,18,0,0,1-12.79,5.3H235l-.69-.06h-.35l-.72-.09-.79-.14-.27-.06a3.32,3.32,0,0,1-.68-.15h0l-.84-.24a13.719,13.719,0,0,1-1.66-.61,14.436,14.436,0,0,1-1.59-.76l-.75-.43c-.26-.16-.51-.32-.76-.5a7.749,7.749,0,0,1-.66-.46c-.25-.18-.48-.37-.71-.56l-.65-.56c-.29-.26-.56-.53-.83-.8l-.46-.5a18.319,18.319,0,0,1-2.71-3.95c-.09-.18-.18-.37-.26-.55s-.2-.42-.28-.63-.17-.43-.26-.64a18,18,0,0,0,6.33,1.14h144.7a18.09,18.09,0,0,0,18.09-18.09v-147Z" fill="#69492c"/>
        <g id="Grupo_57176" data-name="Grupo 57176">
          <path id="Trazado_106630" data-name="Trazado 106630" d="M259.37,280.69H247.25a9.33,9.33,0,0,1-9.32-9.33h0a9.33,9.33,0,0,1,9.32-9.33h12.12a9.33,9.33,0,0,1,9.33,9.33h0A9.33,9.33,0,0,1,259.37,280.69Z" fill="#fff"/>
          <path id="Trazado_106631" data-name="Trazado 106631" d="M297,280.69H284.91a9.33,9.33,0,0,1-9.32-9.33h0a9.33,9.33,0,0,1,9.32-9.33H297a9.33,9.33,0,0,1,9.32,9.33h0A9.33,9.33,0,0,1,297,280.69Z" fill="#fff"/>
          <path id="Trazado_106632" data-name="Trazado 106632" d="M334.7,280.69H322.58a9.33,9.33,0,0,1-9.33-9.33h0a9.33,9.33,0,0,1,9.33-9.33H334.7a9.33,9.33,0,0,1,9.33,9.33h0A9.33,9.33,0,0,1,334.7,280.69Z" fill="#fff"/>
          <rect id="Rectángulo_8196" data-name="Rectángulo 8196" width="25.18" height="47.56" rx="3.86" transform="translate(352.63 262.03)" fill="#fff"/>
          <rect id="Rectángulo_8197" data-name="Rectángulo 8197" width="25.18" height="26.11" rx="5.49" transform="translate(352.63 314.13)" fill="#fff"/>
          <rect id="Rectángulo_8198" data-name="Rectángulo 8198" width="25.18" height="26.11" rx="5.49" transform="translate(352.63 343.1)" fill="#fff"/>
          <rect id="Rectángulo_8199" data-name="Rectángulo 8199" width="25.18" height="26.11" rx="5.49" transform="translate(352.63 374)" fill="#fff"/>
        </g>
        <rect id="Rectángulo_8200" data-name="Rectángulo 8200" width="30.78" height="30.78" rx="15.39" transform="translate(239.21 291.01)" fill="#fff"/>
        <rect id="Rectángulo_8201" data-name="Rectángulo 8201" width="30.77" height="30.78" rx="15.385" transform="translate(275.91 291.01)" fill="#fff"/>
        <rect id="Rectángulo_8202" data-name="Rectángulo 8202" width="30.78" height="30.78" rx="15.39" transform="translate(312.6 291.01)" fill="#fff"/>
        <rect id="Rectángulo_8203" data-name="Rectángulo 8203" width="30.78" height="30.78" rx="15.39" transform="translate(239.21 332.54)" fill="#fff"/>
        <rect id="Rectángulo_8204" data-name="Rectángulo 8204" width="30.77" height="30.78" rx="15.385" transform="translate(275.91 332.54)" fill="#fff"/>
        <rect id="Rectángulo_8205" data-name="Rectángulo 8205" width="30.78" height="30.78" rx="15.39" transform="translate(312.6 332.54)" fill="#fff"/>
        <rect id="Rectángulo_8206" data-name="Rectángulo 8206" width="30.78" height="30.78" rx="15.39" transform="translate(239.21 374.06)" fill="#fff"/>
        <rect id="Rectángulo_8207" data-name="Rectángulo 8207" width="30.77" height="30.78" rx="15.385" transform="translate(275.91 374.06)" fill="#fff"/>
        <rect id="Rectángulo_8208" data-name="Rectángulo 8208" width="30.78" height="30.78" rx="15.39" transform="translate(312.6 374.06)" fill="#fff"/>
        <path id="Trazado_106633" data-name="Trazado 106633" d="M371,178.06H338.7a3.88,3.88,0,0,1-3.88-3.88h0a3.88,3.88,0,0,1,3.88-3.87H371a3.87,3.87,0,0,1,3.87,3.87h0a3.88,3.88,0,0,1-3.87,3.88Z" fill="#fff"/>
        <rect id="Rectángulo_8209" data-name="Rectángulo 8209" width="169.83" height="6.48" transform="translate(218.32 249.11)" fill="#e1b48d"/>
        <g id="Grupo_57177" data-name="Grupo 57177">
          <path id="Trazado_106634" data-name="Trazado 106634" d="M273,199.11v24.83h-6.86V207.67a21.463,21.463,0,0,1-3.23,2.05,25.842,25.842,0,0,1-3.9,1.5v-5.57a16.329,16.329,0,0,0,5.38-2.68,11,11,0,0,0,3-3.86Z" fill="#839eb6"/>
          <path id="Trazado_106635" data-name="Trazado 106635" d="M300.18,223.94H279.83a12.72,12.72,0,0,1,2.12-5.67A28.619,28.619,0,0,1,288.6,212a20.329,20.329,0,0,0,3.82-3.36,3.83,3.83,0,0,0,.83-2.19,2.53,2.53,0,0,0-.83-1.9,2.84,2.84,0,0,0-2.07-.79,2.9,2.9,0,0,0-2.12.81,5,5,0,0,0-1.11,2.88l-6.8-.55a10.86,10.86,0,0,1,1.47-4.47,6.76,6.76,0,0,1,3-2.46,13.6,13.6,0,0,1,5.37-.86,15,15,0,0,1,5.57.82,6.76,6.76,0,0,1,3.13,2.5,6.63,6.63,0,0,1,1.14,3.79,7.67,7.67,0,0,1-1.31,4.26A17.74,17.74,0,0,1,294,215c-1.37.94-2.28,1.6-2.74,2s-1,.87-1.63,1.48h10.6Z" fill="#839eb6"/>
          <path id="Trazado_106636" data-name="Trazado 106636" d="M309.66,206.59l-6.42-1.15a8.1,8.1,0,0,1,3.08-4.7,10.87,10.87,0,0,1,6.43-1.63q4.78,0,6.91,1.78a5.58,5.58,0,0,1,2.14,4.48,5,5,0,0,1-.87,2.87,7.41,7.41,0,0,1-2.61,2.24,8,8,0,0,1,2.16.82,5.33,5.33,0,0,1,1.89,2,6,6,0,0,1,.68,2.93,8.21,8.21,0,0,1-1.12,4.09,7.48,7.48,0,0,1-3.21,3,12.25,12.25,0,0,1-5.52,1.06,14.31,14.31,0,0,1-5.25-.78,8,8,0,0,1-3.17-2.29,10.62,10.62,0,0,1-1.9-3.79l6.78-.9a5.27,5.27,0,0,0,1.24,2.84,3.176,3.176,0,0,0,4.41-.21,3.86,3.86,0,0,0,.91-2.67,3.67,3.67,0,0,0-.88-2.63A3.09,3.09,0,0,0,313,213a8.441,8.441,0,0,0-2.2.4l.35-4.85a6,6,0,0,0,.88.09,3.15,3.15,0,0,0,2.23-.85,2.72,2.72,0,0,0,.89-2,2.38,2.38,0,0,0-.67-1.78,2.48,2.48,0,0,0-1.83-.67,2.66,2.66,0,0,0-1.95.73,4.33,4.33,0,0,0-1.04,2.52Z" fill="#839eb6"/>
          <path id="Trazado_106637" data-name="Trazado 106637" d="M337.49,219.38H325.13V213.8l12.36-14.69h5.91v15h3.06v5.26H343.4v4.56h-5.91Zm0-5.26v-7.69L331,214.12Z" fill="#839eb6"/>
          <path id="Trazado_106638" data-name="Trazado 106638" d="M351.33,199.53h16.1v5.41H356.52l-.58,3.66a12.059,12.059,0,0,1,2.24-.8,9.769,9.769,0,0,1,2.19-.26,8.23,8.23,0,0,1,5.95,2.21,7.46,7.46,0,0,1,2.28,5.58,9.41,9.41,0,0,1-1.18,4.55,8,8,0,0,1-3.33,3.33,11.65,11.65,0,0,1-5.52,1.15,16.089,16.089,0,0,1-4.14-.46,8.24,8.24,0,0,1-4.89-3.42,11,11,0,0,1-1.25-2.87l6.87-.75a4.13,4.13,0,0,0,1.16,2.51,3.09,3.09,0,0,0,2.18.86,2.93,2.93,0,0,0,2.34-1.08,4.76,4.76,0,0,0,.93-3.2,4.63,4.63,0,0,0-.93-3.2,3.22,3.22,0,0,0-2.49-1,4,4,0,0,0-1.89.49,5.31,5.31,0,0,0-1.5,1.26l-5.78-.83Z" fill="#839eb6"/>
        </g>
      </g>
      <g id="Grupo_57196" data-name="Grupo 57196">
        <g id="Grupo_57179" data-name="Grupo 57179">
          <path id="Trazado_106639" data-name="Trazado 106639" d="M558.76,54.88h-25a25.4,25.4,0,0,0-50.8,0H458a7.37,7.37,0,0,0-7.37,7.37V83.13a3.33,3.33,0,0,0,3.34,3.34H562.79a3.34,3.34,0,0,0,3.35-3.34V62.25A7.38,7.38,0,0,0,558.76,54.88ZM508.36,50a6,6,0,1,1,6-6,6,6,0,0,1-6,6Z" fill="#344154"/>
          <rect id="Rectángulo_8210" data-name="Rectángulo 8210" width="252.59" height="361" rx="8.45" transform="translate(382.07 63.54)" fill="#aed3f2"/>
          <rect id="Rectángulo_8211" data-name="Rectángulo 8211" width="227.12" height="333.15" rx="6.09" transform="translate(393.26 80.08)" fill="#fff"/>
          <path id="Trazado_106640" data-name="Trazado 106640" d="M561.91,62.2V80.48a6.18,6.18,0,0,1-6.17,6.18H461a6.18,6.18,0,0,1-6.17-6.18V62.2h-3.17V81.07a8.76,8.76,0,0,0,8.76,8.76h95.93a8.76,8.76,0,0,0,8.75-8.76V62.2Z" fill="#344154"/>
          <rect id="Rectángulo_8212" data-name="Rectángulo 8212" width="159.08" height="11.92" rx="4.24" transform="translate(428.82 59.65)" fill="#344154"/>
        </g>
        <g id="Grupo_57181" data-name="Grupo 57181">
          <g id="Grupo_57180" data-name="Grupo 57180">
            <rect id="Rectángulo_8213" data-name="Rectángulo 8213" width="9.82" height="10.83" transform="translate(422.2 221.42)" fill="#e8c7aa"/>
            <rect id="Rectángulo_8214" data-name="Rectángulo 8214" width="9.82" height="32.6" transform="translate(439.72 199.65)" fill="#e8c7aa"/>
            <rect id="Rectángulo_8215" data-name="Rectángulo 8215" width="9.82" height="20.37" transform="translate(457.24 211.88)" fill="#e8c7aa"/>
            <rect id="Rectángulo_8216" data-name="Rectángulo 8216" width="9.82" height="41.73" transform="translate(474.76 190.52)" fill="#e8c7aa"/>
          </g>
          <path id="Trazado_106641" data-name="Trazado 106641" d="M414.31,236.06V146.84H411.9v91.63h85.77v-2.41Z" fill="#aed3f2"/>
          <path id="Trazado_106642" data-name="Trazado 106642" d="M483,172.46l-5.24-.81-5.24-.81c-.31-.05-.46.31-.28.64l2.17,3.94-10.66,5.73-3.3-3.11-1-.93-1.22.6L443,185.3l-3.79-2.08-.79-.43-.7.27-17.12,6.56a.45.45,0,0,0-.28.51.44.44,0,0,0,.53.34l3.49-.72L438,187l4.06,2.23.9.49.91-.46,14.91-7.43,3.33,3.14,1,1,1.24-.66,11.91-6.41.74,1.34,1.45,2.62c.15.29.46.37.62.21a.21.21,0,0,0,.06-.1l2.14-4.84,2-4.58.11-.25a.59.59,0,0,0-.38-.84Z" fill="#aed3f2"/>
        </g>
        <g id="Grupo_57183" data-name="Grupo 57183">
          <rect id="Rectángulo_8217" data-name="Rectángulo 8217" width="12.14" height="12.14" rx="2.73" transform="translate(522.69 159.42)" fill="#aed3f2"/>
          <g id="Grupo_57182" data-name="Grupo 57182">
            <path id="Trazado_106643" data-name="Trazado 106643" d="M599,163.12H540.65a.78.78,0,0,1-.78-.78h0a.78.78,0,0,1,.78-.78H599a.78.78,0,0,1,.78.78h0A.78.78,0,0,1,599,163.12Z" fill="#aed3f2"/>
            <path id="Trazado_106644" data-name="Trazado 106644" d="M556,169.43H540.65a.78.78,0,0,1-.78-.78h0a.78.78,0,0,1,.78-.78H556a.78.78,0,0,1,.78.78h0A.78.78,0,0,1,556,169.43Z" fill="#aed3f2"/>
            <path id="Trazado_106645" data-name="Trazado 106645" d="M590.81,169.43H562.44a.78.78,0,0,1-.78-.78h0a.78.78,0,0,1,.78-.78h28.37a.78.78,0,0,1,.78.78h0A.78.78,0,0,1,590.81,169.43Z" fill="#aed3f2"/>
          </g>
        </g>
        <g id="Grupo_57185" data-name="Grupo 57185">
          <rect id="Rectángulo_8218" data-name="Rectángulo 8218" width="12.14" height="12.14" rx="2.73" transform="translate(522.69 186.59)" fill="#aed3f2"/>
          <g id="Grupo_57184" data-name="Grupo 57184">
            <path id="Trazado_106646" data-name="Trazado 106646" d="M599,190.29H540.65a.78.78,0,0,1-.78-.79h0a.78.78,0,0,1,.78-.78H599a.78.78,0,0,1,.78.78h0a.78.78,0,0,1-.78.79Z" fill="#aed3f2"/>
            <path id="Trazado_106647" data-name="Trazado 106647" d="M556,196.59H540.65a.78.78,0,0,1-.78-.78h0a.78.78,0,0,1,.78-.78H556a.78.78,0,0,1,.78.78h0A.78.78,0,0,1,556,196.59Z" fill="#aed3f2"/>
            <path id="Trazado_106648" data-name="Trazado 106648" d="M590.81,196.59H562.44a.78.78,0,0,1-.78-.78h0a.78.78,0,0,1,.78-.78h28.37a.78.78,0,0,1,.78.78h0A.78.78,0,0,1,590.81,196.59Z" fill="#aed3f2"/>
          </g>
        </g>
        <g id="Grupo_57187" data-name="Grupo 57187">
          <rect id="Rectángulo_8219" data-name="Rectángulo 8219" width="12.14" height="12.14" rx="2.73" transform="translate(522.69 213.75)" fill="#aed3f2"/>
          <g id="Grupo_57186" data-name="Grupo 57186">
            <path id="Trazado_106649" data-name="Trazado 106649" d="M599,217.45H540.65a.78.78,0,0,1-.78-.78h0a.78.78,0,0,1,.78-.79H599a.78.78,0,0,1,.78.79h0a.78.78,0,0,1-.78.78Z" fill="#aed3f2"/>
            <path id="Trazado_106650" data-name="Trazado 106650" d="M556,223.76H540.65a.78.78,0,0,1-.78-.78h0a.78.78,0,0,1,.78-.79H556a.78.78,0,0,1,.78.79h0A.78.78,0,0,1,556,223.76Z" fill="#aed3f2"/>
            <path id="Trazado_106651" data-name="Trazado 106651" d="M590.81,223.76H562.44a.78.78,0,0,1-.78-.79h0a.78.78,0,0,1,.78-.78h28.37a.78.78,0,0,1,.78.78h0a.78.78,0,0,1-.78.79Z" fill="#aed3f2"/>
          </g>
        </g>
        <g id="Grupo_57188" data-name="Grupo 57188">
          <rect id="Rectángulo_8220" data-name="Rectángulo 8220" width="47.39" height="7.71" rx="2.66" transform="translate(417.14 254.91)" fill="#aed3f2"/>
          <rect id="Rectángulo_8221" data-name="Rectángulo 8221" width="33.21" height="7.71" rx="2.66" transform="translate(515.61 254.91)" fill="#aed3f2"/>
          <rect id="Rectángulo_8222" data-name="Rectángulo 8222" width="33.21" height="7.71" rx="2.66" transform="translate(560.7 254.91)" fill="#aed3f2"/>
          <rect id="Rectángulo_8223" data-name="Rectángulo 8223" width="24.41" height="7.71" rx="2.66" transform="translate(475.17 254.91)" fill="#aed3f2"/>
        </g>
        <g id="Grupo_57189" data-name="Grupo 57189">
          <rect id="Rectángulo_8224" data-name="Rectángulo 8224" width="47.39" height="7.71" rx="2.66" transform="translate(417.14 270.33)" fill="#bedcf5"/>
          <rect id="Rectángulo_8225" data-name="Rectángulo 8225" width="33.21" height="7.71" rx="2.66" transform="translate(515.61 270.33)" fill="#bedcf5"/>
          <rect id="Rectángulo_8226" data-name="Rectángulo 8226" width="33.21" height="7.71" rx="2.66" transform="translate(560.7 270.33)" fill="#e8c7aa"/>
          <rect id="Rectángulo_8227" data-name="Rectángulo 8227" width="24.41" height="7.71" rx="2.66" transform="translate(475.17 270.33)" fill="#aed3f2"/>
        </g>
        <g id="Grupo_57190" data-name="Grupo 57190">
          <rect id="Rectángulo_8228" data-name="Rectángulo 8228" width="47.39" height="7.71" rx="2.66" transform="translate(417.14 285.74)" fill="#bedcf5"/>
          <rect id="Rectángulo_8229" data-name="Rectángulo 8229" width="33.21" height="7.71" rx="2.66" transform="translate(515.61 285.74)" fill="#aed3f2"/>
          <rect id="Rectángulo_8230" data-name="Rectángulo 8230" width="33.21" height="7.71" rx="2.66" transform="translate(560.7 285.74)" fill="#e8c7aa"/>
          <rect id="Rectángulo_8231" data-name="Rectángulo 8231" width="24.41" height="7.71" rx="2.66" transform="translate(475.17 285.74)" fill="#e8c7aa"/>
        </g>
        <g id="Grupo_57191" data-name="Grupo 57191">
          <rect id="Rectángulo_8232" data-name="Rectángulo 8232" width="47.39" height="7.71" rx="2.66" transform="translate(417.14 301.16)" fill="#aed3f2"/>
          <rect id="Rectángulo_8233" data-name="Rectángulo 8233" width="33.21" height="7.71" rx="2.66" transform="translate(515.61 301.16)" fill="#aed3f2"/>
          <rect id="Rectángulo_8234" data-name="Rectángulo 8234" width="33.21" height="7.71" rx="2.66" transform="translate(560.7 301.16)" fill="#aed3f2"/>
          <rect id="Rectángulo_8235" data-name="Rectángulo 8235" width="24.41" height="7.71" rx="2.66" transform="translate(475.17 301.16)" fill="#bedcf5"/>
        </g>
        <g id="Grupo_57192" data-name="Grupo 57192">
          <rect id="Rectángulo_8236" data-name="Rectángulo 8236" width="47.39" height="7.71" rx="2.66" transform="translate(417.14 316.58)" fill="#e8c7aa"/>
          <rect id="Rectángulo_8237" data-name="Rectángulo 8237" width="33.21" height="7.71" rx="2.66" transform="translate(515.61 316.58)" fill="#bedcf5"/>
          <rect id="Rectángulo_8238" data-name="Rectángulo 8238" width="33.21" height="7.71" rx="2.66" transform="translate(560.7 316.58)" fill="#aed3f2"/>
          <rect id="Rectángulo_8239" data-name="Rectángulo 8239" width="24.41" height="7.71" rx="2.66" transform="translate(475.17 316.58)" fill="#e8c7aa"/>
        </g>
        <g id="Grupo_57195" data-name="Grupo 57195">
          <rect id="Rectángulo_8240" data-name="Rectángulo 8240" width="23.78" height="21.53" rx="3.36" transform="translate(417.14 341.89)" fill="#aed3f2"/>
          <rect id="Rectángulo_8241" data-name="Rectángulo 8241" width="23.78" height="21.53" rx="3.36" transform="translate(417.14 372.72)" fill="#aed3f2"/>
          <g id="Grupo_57193" data-name="Grupo 57193">
            <path id="Trazado_106652" data-name="Trazado 106652" d="M535.21,351.05H451.35a1.13,1.13,0,0,1-1-1.2h0a1.13,1.13,0,0,1,1-1.2h83.86a1.13,1.13,0,0,1,1,1.2h0a1.13,1.13,0,0,1-1,1.2Z" fill="#aed3f2"/>
            <path id="Trazado_106653" data-name="Trazado 106653" d="M500.38,360.07h-49a1.13,1.13,0,0,1-1-1.2h0a1.13,1.13,0,0,1,1-1.2h49a1.13,1.13,0,0,1,1,1.2h0A1.13,1.13,0,0,1,500.38,360.07Z" fill="#aed3f2"/>
            <path id="Trazado_106654" data-name="Trazado 106654" d="M569.74,360.07h-60.9a1.13,1.13,0,0,1-1-1.2h0a1.13,1.13,0,0,1,1-1.2h60.9a1.13,1.13,0,0,1,1,1.2h0a1.13,1.13,0,0,1-1,1.2Z" fill="#aed3f2"/>
            <path id="Trazado_106655" data-name="Trazado 106655" d="M592.88,360.07H577.37a1.13,1.13,0,0,1-1-1.2h0a1.13,1.13,0,0,1,1-1.2h15.51a1.13,1.13,0,0,1,1,1.2h0a1.13,1.13,0,0,1-1,1.2Z" fill="#aed3f2"/>
            <path id="Trazado_106656" data-name="Trazado 106656" d="M592.88,351.05H543.31a1.13,1.13,0,0,1-1-1.2h0a1.13,1.13,0,0,1,1-1.2h49.57a1.13,1.13,0,0,1,1,1.2h0a1.13,1.13,0,0,1-1,1.2Z" fill="#aed3f2"/>
          </g>
          <g id="Grupo_57194" data-name="Grupo 57194">
            <path id="Trazado_106657" data-name="Trazado 106657" d="M535.21,380.18H451.35a1.13,1.13,0,0,1-1-1.2h0a1.12,1.12,0,0,1,1-1.2h83.86a1.12,1.12,0,0,1,1,1.2h0a1.13,1.13,0,0,1-1,1.2Z" fill="#aed3f2"/>
            <path id="Trazado_106658" data-name="Trazado 106658" d="M500.38,389.19h-49a1.12,1.12,0,0,1-1-1.2h0a1.13,1.13,0,0,1,1-1.2h49a1.13,1.13,0,0,1,1,1.2h0a1.12,1.12,0,0,1-1,1.2Z" fill="#aed3f2"/>
            <path id="Trazado_106659" data-name="Trazado 106659" d="M569.74,389.19h-60.9a1.12,1.12,0,0,1-1-1.2h0a1.13,1.13,0,0,1,1-1.2h60.9a1.13,1.13,0,0,1,1,1.2h0a1.12,1.12,0,0,1-1,1.2Z" fill="#aed3f2"/>
            <path id="Trazado_106660" data-name="Trazado 106660" d="M592.88,389.19H577.37a1.12,1.12,0,0,1-1-1.2h0a1.13,1.13,0,0,1,1-1.2h15.51a1.13,1.13,0,0,1,1,1.2h0A1.12,1.12,0,0,1,592.88,389.19Z" fill="#aed3f2"/>
            <path id="Trazado_106661" data-name="Trazado 106661" d="M592.88,380.18H543.31a1.13,1.13,0,0,1-1-1.2h0a1.12,1.12,0,0,1,1-1.2h49.57a1.12,1.12,0,0,1,1,1.2h0a1.13,1.13,0,0,1-1,1.2Z" fill="#aed3f2"/>
          </g>
        </g>
        <path id="Trazado_106662" data-name="Trazado 106662" d="M432.71,347.91l-4.77,6.62-3.3-3.11-2,2.53,5.6,3.72q3.58-3.84,7.18-7.67Z" fill="#fff"/>
        <path id="Trazado_106663" data-name="Trazado 106663" d="M433.22,378.61l-4.77,6.62-3.3-3.12c-.66.85-1.33,1.69-2,2.53l5.6,3.72,7.18-7.67Z" fill="#fff"/>
      </g>
      <path id="Trazado_106664" data-name="Trazado 106664" d="M686.24,176.19V172.6a1.5,1.5,0,0,0-3,0v3.59h-3.6a1.5,1.5,0,0,0,0,3h3.6v3.58a1.475,1.475,0,1,0,2.95,0v-3.58h3.58a1.5,1.5,0,0,0,0-3Z" fill="#dbdfff"/>
      <path id="Trazado_106665" data-name="Trazado 106665" d="M330.3,130.39V126.8a1.48,1.48,0,1,0-2.95,0v3.59h-3.59a1.5,1.5,0,0,0,0,3h3.59v3.59a1.48,1.48,0,0,0,2.95,0v-3.59h3.59a1.5,1.5,0,0,0,0-3Z" fill="#dbdfff"/>
      <g id="Grupo_57197" data-name="Grupo 57197">
        <path id="Trazado_106666" data-name="Trazado 106666" d="M733.81,237h0a1.52,1.52,0,0,1,1.51-1.52H746a1.51,1.51,0,0,1,1.51,1.52h0a1.5,1.5,0,0,1-1.51,1.51H735.32A1.51,1.51,0,0,1,733.81,237Z" fill="#dbdfff"/>
        <path id="Trazado_106667" data-name="Trazado 106667" d="M733.81,242.91h0a1.52,1.52,0,0,1,1.51-1.52H746a1.51,1.51,0,0,1,1.51,1.52h0a1.51,1.51,0,0,1-1.51,1.52H735.32a1.52,1.52,0,0,1-1.51-1.52Z" fill="#dbdfff"/>
      </g>
      <g id="Grupo_57198" data-name="Grupo 57198">
        <path id="Trazado_106668" data-name="Trazado 106668" d="M305.39,94.7h0a1.52,1.52,0,0,1,1.52-1.51h10.62a1.52,1.52,0,0,1,1.52,1.51h0a1.52,1.52,0,0,1-1.52,1.52H306.91a1.52,1.52,0,0,1-1.52-1.52Z" fill="#dbdfff"/>
        <path id="Trazado_106669" data-name="Trazado 106669" d="M305.39,100.66h0a1.52,1.52,0,0,1,1.52-1.52h10.62a1.52,1.52,0,0,1,1.52,1.52h0a1.52,1.52,0,0,1-1.52,1.51H306.91a1.52,1.52,0,0,1-1.52-1.51Z" fill="#dbdfff"/>
      </g>
      <path id="Trazado_106670" data-name="Trazado 106670" d="M439.8,109a9.48,9.48,0,0,1,1-4.18,6.75,6.75,0,0,1,2.94-3.06,9.7,9.7,0,0,1,4.67-1.06,8.51,8.51,0,0,1,6.26,2.26,9.15,9.15,0,0,1,0,12.11,8.51,8.51,0,0,1-6.26,2.26,9.59,9.59,0,0,1-4.67-1.07,6.72,6.72,0,0,1-2.94-3,9.52,9.52,0,0,1-1-4.26Zm6.07.05a6.83,6.83,0,0,0,.86,3.88,1.89,1.89,0,0,0,1.64.8,1.83,1.83,0,0,0,1.62-.8,6.83,6.83,0,0,0,.86-3.88,6.94,6.94,0,0,0-.86-3.89,1.83,1.83,0,0,0-1.62-.77,1.89,1.89,0,0,0-1.64.77,6.87,6.87,0,0,0-.86,3.84Zm20.79-8.35h4.56L453,134.45h-4.51Zm-4.05,25.42a9.6,9.6,0,0,1,.95-4.2,6.67,6.67,0,0,1,2.94-3,9.6,9.6,0,0,1,4.66-1.08,8.55,8.55,0,0,1,6.28,2.27,9.15,9.15,0,0,1,0,12.11,8.51,8.51,0,0,1-6.28,2.27,9.6,9.6,0,0,1-4.66-1.07,6.74,6.74,0,0,1-2.94-3.06,9.561,9.561,0,0,1-.95-4.28Zm6.07,0a6.75,6.75,0,0,0,.86,3.88,1.84,1.84,0,0,0,1.62.78,1.9,1.9,0,0,0,1.64-.78,6.83,6.83,0,0,0,.86-3.88,7,7,0,0,0-.86-3.91,1.89,1.89,0,0,0-1.64-.77,1.82,1.82,0,0,0-1.62.79,6.79,6.79,0,0,0-.86,3.89Z" fill="#dbdfff"/>
      <path id="Trazado_106671" data-name="Trazado 106671" d="M718.43,333.28a3.619,3.619,0,0,1,.37-1.61,2.56,2.56,0,0,1,1.13-1.17,3.681,3.681,0,0,1,1.8-.42,3.29,3.29,0,0,1,2.41.88,3.52,3.52,0,0,1,0,4.66,3.28,3.28,0,0,1-2.41.87,3.68,3.68,0,0,1-1.8-.41,2.559,2.559,0,0,1-1.13-1.17,3.641,3.641,0,0,1-.37-1.63Zm2.34,0a2.641,2.641,0,0,0,.33,1.5.73.73,0,0,0,.63.31.71.71,0,0,0,.62-.31,3.46,3.46,0,0,0,0-3,.7.7,0,0,0-.62-.3.72.72,0,0,0-.63.3,2.61,2.61,0,0,0-.33,1.52Zm8-3.22h1.75l-7,13h-1.74Zm-1.56,9.8a3.761,3.761,0,0,1,.36-1.62,2.579,2.579,0,0,1,1.13-1.18,3.8,3.8,0,0,1,1.8-.41,3.31,3.31,0,0,1,2.42.87,3.54,3.54,0,0,1,0,4.67,3.31,3.31,0,0,1-2.42.87,3.68,3.68,0,0,1-1.8-.41,2.58,2.58,0,0,1-1.13-1.18,3.679,3.679,0,0,1-.35-1.59Zm2.33,0a2.64,2.64,0,0,0,.33,1.5.72.72,0,0,0,.63.3.74.74,0,0,0,.63-.3,3.57,3.57,0,0,0,0-3,.74.74,0,0,0-.63-.3.7.7,0,0,0-.63.31,2.63,2.63,0,0,0-.32,1.52Z" fill="#dbdfff"/>
      <g id="Grupo_57201" data-name="Grupo 57201">
        <g id="Grupo_57199" data-name="Grupo 57199">
          <path id="Trazado_106672" data-name="Trazado 106672" d="M779.26,200.83c.69-2.71,1.84-5.29,2.64-8,1.79-6,1.75-12.41,2.81-18.6s3.56-12.62,8.85-16l-3.93-9.3c-4.09-3.35-3.69-10.39.17-14s10-4,14.84-1.76a10.52,10.52,0,0,1,5.24,4.66,44.3,44.3,0,0,1,1.57,4.81c1.18,3.06,3.73,5.33,6,7.72s4.38,5.27,4.33,8.55c0,2.22-1.12,5.29-1.36,7.5-.6,5.59,5.18,6.81,9.21,10.74s7,11.42,6,17c-.47,2.48-2,4.61-3.18,6.83a30.827,30.827,0,0,0-3,7.77c-.76,3.32-1,6.78-2.29,9.93s-4.07,6-7.47,6.08c-4.33.09-7.53-4.18-11.75-5.14-4.89-1.12-9.62,2.41-14.62,2.77s-9.9-2.66-12.45-7A19.52,19.52,0,0,1,779.26,200.83Z" fill="#344154"/>
          <path id="Trazado_106673" data-name="Trazado 106673" d="M816.68,254c-7-18.64-8.53-28.9-.69-45.23,10.47-21.8-1.94-35.29-1.94-35.29l-11.53-4.88h-9.78c-11.53,4.16-26,7.79-16.55,39.66,6.08,20.55-1.7,31.1-9.43,45.74Z" fill="#3e3279"/>
          <path id="Trazado_106674" data-name="Trazado 106674" d="M816.68,254.83c-7-18.81-8.53-29.18-.69-45.66,10.47-22-1.94-35.64-1.94-35.64l-11.53-4.92c-3.08,5-6.29,6.37-9.78,0-13.71,3.26-25.27,9-16.55,40,5.85,20.82-1.7,31.41-9.43,46.18Z" fill="#fff"/>
          <path id="Trazado_106675" data-name="Trazado 106675" d="M780.6,345.74v4.2a32.11,32.11,0,0,0,3,13.14c4,8.68,11.47,28.46,16.61,64.38,0,0,10.23,3.33,10.9-.1,8.43-42.39,1-54.15-4.51-73.54a65.785,65.785,0,0,1,.71-8.08c4.15-28.07,24.05-48.66,9.39-91.73-.06-.21-.12-.43-.2-.64l-10,.35H788.66l-.06.29c-5.1,23.49-7,50.58-7.68,71.15h0C780.66,333.22,780.6,340.27,780.6,345.74Z" fill="#ffcbc7"/>
          <path id="Trazado_106676" data-name="Trazado 106676" d="M757,427.46c6-33.06,5.33-43,.23-69.29,3.12-4.47,6.16-8.56,9.1-12.43,5.37-7.09,10.35-13.54,14.57-20.58,9.5-15.88,15.13-34.84,12.7-71.15a1.417,1.417,0,0,0,0-.29v-.1l-26.6-.25c-.14.21-.3.41-.45.64-21.63,30.15-28.74,66.82-32.29,91.73-.57,4-1,7.69-1.47,11a15.27,15.27,0,0,0,.33,5.51c5.69,22.21,13,43.66,12.9,65.19Z" fill="#ffcbc7"/>
          <path id="Trazado_106677" data-name="Trazado 106677" d="M734.22,345.74c25.38-1.12,37.17,2.67,62.61,1.36,7.33-14.22,15.33-35,16-42.77,2.12-22.72-17.3-12.51-22.27-27-1.7-5-2.13-13.52-1.64-23.92H766.51C744.88,283.73,737.77,320.67,734.22,345.74Z" fill="#344154"/>
          <path id="Trazado_106678" data-name="Trazado 106678" d="M790.61,277.29c5,14.53,24.39,4.32,22.27,27-.72,7.81-8.72,28.55-16,42.77a69.089,69.089,0,0,0,10.46-1.36c4.15-28.27,24.05-49,9.4-92.37H789C788.48,263.77,788.91,272.31,790.61,277.29Z" fill="#382d80"/>
          <path id="Trazado_106679" data-name="Trazado 106679" d="M789,253.37h27.72l-13.63-82.6C796.48,193.48,790.14,228.66,789,253.37Z" fill="#e5e0ff"/>
          <path id="Trazado_106680" data-name="Trazado 106680" d="M725.81,184.37s.43,1.53,1.21,4c3.18,10.22,12.37,36.74,22.57,40.57,7.74,2.9,27.37-20.45,27.5-23.08l3.1-32.23C769,186.37,758.84,199,753,211.31c-4.33-9.86-12.55-17.11-17.43-26.17a32.5,32.5,0,0,1-1.67-3.47s3.73-7.43,1.57-9.71c-1.92-2-4.47,3.53-5.27,2.73S726,160,723.59,163.48C718.24,171.26,725.81,184.37,725.81,184.37Z" fill="#ffcbc7"/>
          <path id="Trazado_106681" data-name="Trazado 106681" d="M792.54,160.26l.1,4.31.1,4c-.2,7.33,9.09,7.12,9.78,0l-1.74-7.94-.87-4-.31-1.39-2.6,1.9Z" fill="#ffcbc7"/>
          <path id="Trazado_106682" data-name="Trazado 106682" d="M796,274.15a8.57,8.57,0,0,0,7.3,7.21,48.619,48.619,0,0,0,10.31.37,55.431,55.431,0,0,0,10.55-1.7c-10.59-34-4.08-50-3.59-70.36v-.06c.23-10-1-21.18-6.47-36.12l-11.53-4.88C803.29,208.45,789.9,233.8,796,274.15Z" fill="#aed3f2"/>
          <path id="Trazado_106683" data-name="Trazado 106683" d="M727,188.37c3.18,10.22,12.37,36.74,22.57,40.57,2.25.84,5.47-.51,8.94-3a69.354,69.354,0,0,0,10.92-9.9c4.35-4.73,7.58-9.16,7.64-10.22l4.26-33.46c-12.1,8.43-20.59,24-28.23,37-4.32-9.86-12.71-15.2-17.59-24.26Z" fill="#aed3f2"/>
          <path id="Trazado_106684" data-name="Trazado 106684" d="M792.74,168.61S781.88,167.83,775,179c-10.76,17.46-1.56,30.35-8.24,60.54-2.4,10.85-9,22-16.28,39.16,7.09,2,14.18,3.91,21.41,2.88a8.62,8.62,0,0,0,7.18-6.5C788.88,234.57,781.78,211.34,792.74,168.61Z" fill="#aed3f2"/>
          <path id="Trazado_106685" data-name="Trazado 106685" d="M806.64,199c14.78,26.23-5.35,54.69,6.92,82.7a55.431,55.431,0,0,0,10.55-1.7c-10.59-34-4.08-50-3.59-70.36v-.06Z" fill="#e63ec2"/>
          <path id="Trazado_106686" data-name="Trazado 106686" d="M817,252.17a4.35,4.35,0,0,0-.08,4.63c1.18,2.15,2.74,5.17,2.74,6.31,0,1.84-2.39,6.45-1.72,7.8,3.12,6.26,13.72-4.62,8.47-16.41,0,0,3.21-2.37,7.49-6,8.45-7.21,21.13-19.35,21.72-27.93,1-14.92-41.6-47.06-41.6-47.06l2.55,31.25c8.64,7.87,12.45,10.47,23.62,17-6.41,5-11.25,12-15.66,18.86C822,244.7,819.54,248.7,817,252.17Z" fill="#ffcbc7"/>
          <path id="Trazado_106687" data-name="Trazado 106687" d="M815.31,205.21c8.64,7.88,13.74,10,24.91,16.57-6.41,5-11.25,12-15.66,18.86l9.37,7.84c8.45-7.21,21.13-19.35,21.72-27.93,1-14.92-41.6-47.06-41.6-47.06Z" fill="#aed3f2"/>
          <path id="Trazado_106688" data-name="Trazado 106688" d="M758.53,226a69.36,69.36,0,0,0,10.92-9.9s.33-9.55.7-18C761.6,203.42,767.47,216.05,758.53,226Z" fill="#e63ec2"/>
          <path id="Trazado_106689" data-name="Trazado 106689" d="M757.28,426.05l2.23,7.31-1.4,11.36-2.25.11-2.05-9.95-3.63,6.6a6.19,6.19,0,0,1-4.46,3.5c-5.3.68-15.67.86-16.1-2.62s9.61-3.73,12.54-7.66a24.831,24.831,0,0,0,3.81-8.94Z" fill="#344154"/>
          <path id="Trazado_106690" data-name="Trazado 106690" d="M810.85,426.05l2.24,7.31-1.4,11.36-2.25.11-2.05-9.95-3.63,6.6a6.19,6.19,0,0,1-4.46,3.5c-5.31.68-15.67.86-16.1-2.62s9.61-3.73,12.54-7.66a24.829,24.829,0,0,0,3.81-8.94Z" fill="#344154"/>
          <path id="Trazado_106691" data-name="Trazado 106691" d="M792.54,160.26l.1,4.31a10.43,10.43,0,0,0,4.9-.82,5.51,5.51,0,0,0,3.24-3.08l-.87-4-2.9.43Z" fill="#f0b6b2"/>
          <path id="Trazado_106692" data-name="Trazado 106692" d="M790.53,141.68s3.93,7.49,10.27,8c0,0,4.77-1.49,5.47-.1,1.53,3.07-3.55,5.76-3.55,5.76-.84,3.82-6.74,8.81-10.85,7.48C784.48,160.4,790.53,141.68,790.53,141.68Z" fill="#ffcbc7"/>
        </g>
        <g id="Grupo_57200" data-name="Grupo 57200">
          <path id="Trazado_106693" data-name="Trazado 106693" d="M790,150.5a.75.75,0,0,0,.75.74.74.74,0,1,0-.75-.74Z" fill="#344154"/>
          <path id="Trazado_106694" data-name="Trazado 106694" d="M789.25,149.7c.09.1.65-.37,1.45-.42s1.41.35,1.5.24-.06-.23-.33-.4a1.968,1.968,0,0,0-2.35.14C789.28,149.47,789.2,149.66,789.25,149.7Z" fill="#344154"/>
          <path id="Trazado_106695" data-name="Trazado 106695" d="M796.36,151.16a.76.76,0,1,0,.81-.7h0A.76.76,0,0,0,796.36,151.16Z" fill="#344154"/>
          <path id="Trazado_106696" data-name="Trazado 106696" d="M795.9,150.35c.1.1.65-.36,1.46-.41s1.4.34,1.48.23-.06-.22-.31-.4a1.965,1.965,0,0,0-2.36.15C795.94,150.12,795.86,150.31,795.9,150.35Z" fill="#344154"/>
          <path id="Trazado_106697" data-name="Trazado 106697" d="M793.48,157.61a6.429,6.429,0,0,0-1.31-.16c-.2,0-.41,0-.46-.18a1,1,0,0,1,.11-.64l.55-1.65c.38-1.17.71-2.23.94-3a6.715,6.715,0,0,0,.3-1.27,5.483,5.483,0,0,0-.51,1.2c-.28.76-.65,1.81-1,3-.18.57-.35,1.11-.53,1.65a1.25,1.25,0,0,0-.07.83.67.67,0,0,0,.69.3,5.5,5.5,0,0,0,1.29-.08Z" fill="#344154"/>
          <path id="Trazado_106698" data-name="Trazado 106698" d="M794.62,158.42c.81-.54-2.25,1.33-3.89,1.33a2.24,2.24,0,0,0,2.67.74C795.1,159.78,794.62,158.42,794.62,158.42Z" fill="#fff"/>
        </g>
      </g>
      <g id="Grupo_57203" data-name="Grupo 57203">
        <rect id="Rectángulo_8242" data-name="Rectángulo 8242" width="23.47" height="272.88" transform="translate(688.865 435.366) rotate(-170.42)" fill="#ffda99"/>
        <path id="Trazado_106699" data-name="Trazado 106699" d="M711.13,162.39l7.54-11.63,3.25-5,5.28-8.14,2.32,9.42,1.3,5.25,3.44,14Z" fill="#ffcbc7"/>
        <path id="Trazado_106700" data-name="Trazado 106700" d="M667.81,418.52h20.36a1.55,1.55,0,0,1,1.55,1.55V440H666.25V420.07a1.55,1.55,0,0,1,1.55-1.55Z" transform="translate(1275.08 965.38) rotate(-170.42)" fill="#aed3f2"/>
        <g id="Grupo_57202" data-name="Grupo 57202">
          <rect id="Rectángulo_8243" data-name="Rectángulo 8243" width="244.061" height="1.888" transform="translate(691.516 403.642) rotate(-80.256)" fill="#f7c777"/>
          <rect id="Rectángulo_8244" data-name="Rectángulo 8244" width="242.97" height="1.88" transform="translate(681.339 403.765) rotate(-80.42)" fill="#f7c777"/>
          <rect id="Rectángulo_8245" data-name="Rectángulo 8245" width="242.97" height="1.88" transform="translate(674.389 402.602) rotate(-80.42)" fill="#f7c777"/>
        </g>
        <path id="Trazado_106701" data-name="Trazado 106701" d="M667.83,407.65a2.36,2.36,0,0,0,1.47,2.57l-.32,1.94a2.33,2.33,0,0,0-.77,4.51v.05l.46.08h0l22.21,3.74h0l.47.08h0a2.34,2.34,0,0,0,.77-4.52l.32-1.93a2.34,2.34,0,0,0,.76-4.52l.33-1.94a2.33,2.33,0,0,0,.76-4.51v-.05l-23.14-3.9v.05a2.33,2.33,0,0,0-.76,4.51l-.33,1.94a2.34,2.34,0,0,0-2.23,1.9Z" fill="#344154"/>
        <path id="Trazado_106702" data-name="Trazado 106702" d="M718.67,150.76l3.25-5,5.28-8.14,2.32,9.42,1.3,5.25a23.73,23.73,0,0,1-7.18-.11,22.739,22.739,0,0,1-4.97-1.42Z" fill="#344154"/>
      </g>
      <path id="Trazado_106703" data-name="Trazado 106703" d="M707.3,204.32a3.71,3.71,0,1,1,3.71-3.71,3.71,3.71,0,0,1-3.71,3.71Zm0-6.11a2.4,2.4,0,1,0,2.4,2.4,2.4,2.4,0,0,0-2.4-2.4Z" fill="#ffbfeb"/>
      <path id="Trazado_106704" data-name="Trazado 106704" d="M659.76,319.1a3.71,3.71,0,1,1,3.71-3.7,3.71,3.71,0,0,1-3.71,3.7Zm0-6.1a2.4,2.4,0,1,0,2.4,2.4A2.4,2.4,0,0,0,659.76,313Z" fill="#ffbfeb"/>
      <path id="Trazado_106705" data-name="Trazado 106705" d="M715.54,279.15a3.71,3.71,0,1,1,3.71-3.71,3.71,3.71,0,0,1-3.71,3.71Zm0-6.11a1,1,0,1,0,0-.04Z" fill="#ffbfeb"/>
      <path id="Trazado_106706" data-name="Trazado 106706" d="M283,142.11a3.71,3.71,0,1,1,3.71-3.71A3.71,3.71,0,0,1,283,142.11Zm0-6.11a2.4,2.4,0,1,0,2.4,2.4A2.4,2.4,0,0,0,283,136Z" fill="#ffbfeb"/>
      <path id="Trazado_106707" data-name="Trazado 106707" d="M349,69.32a3.71,3.71,0,1,1,3.71-3.71A3.71,3.71,0,0,1,349,69.32Zm0-6.11a2.4,2.4,0,1,0,2.4,2.4,2.4,2.4,0,0,0-2.4-2.4Z" fill="#ffbfeb"/>
      <g id="Grupo_57209" data-name="Grupo 57209">
        <g id="Grupo_57208" data-name="Grupo 57208">
          <path id="Trazado_106708" data-name="Trazado 106708" d="M199.86,346.45a185.12,185.12,0,0,0,10.5,64.91q2,5.86,4.51,11.72L213,435.63h36.29l-23.42-14c-.54-3.34-1-6.79-1.36-10.3-2.46-23.74-1.41-50-.71-61.8a30.2,30.2,0,0,0-2-12.55c-6.3-16.45-23.26-62.07-28.73-90.28H153.26C146.43,291.88,164.82,311.34,199.86,346.45Z" fill="#ffbf9d"/>
          <path id="Trazado_106709" data-name="Trazado 106709" d="M170.9,315.28c7.63,9.67,17.38,19.58,29,31.17-.25,23.18,1.34,49.49,8.65,70.28l18.14-1c-2.47-23.74,1.7-63.4-2-78.41-4.23-17.1-26.08-62.43-31.55-90.64H153.26C148.69,277,155.42,295.69,170.9,315.28Z" fill="#6595bf"/>
          <path id="Trazado_106710" data-name="Trazado 106710" d="M170.88,315.21v.07c7.63,9.67,17.38,19.58,29,31.17-.25,23.18,1.34,49.49,8.65,70.28l5.38-.28c-7.58-19.57-9.68-45.21-8.82-71.35-39.57-32.22-13.3-43.84-25.61-67.19Z" fill="#334b60"/>
          <path id="Trazado_106711" data-name="Trazado 106711" d="M225.84,421.66c8.73,4.47,24,3.23,24.86,14H213a33.57,33.57,0,0,1,1.31-14,34.739,34.739,0,0,0,11.53,0Z" fill="#344154"/>
          <g id="Grupo_57204" data-name="Grupo 57204">
            <path id="Trazado_106712" data-name="Trazado 106712" d="M119.1,420c-1.57,3.4-3,6.56-4.57,9.87l30.39,7.27c-6.13-5.09-12.3-10.08-18.41-15.24,2.34-4.73,5.19-11.42,7.72-15.71,10.15-17.18,21.64-32.4,33.26-48.44a28.27,28.27,0,0,0,5.41-12.48c5.42-31.59,4.73-64.18,10.43-95.83-9-1.4-18-2.75-27-4.13-25,39.12-19.75,60-9.24,102-12.47,16.87-19.34,35.93-24.34,56.31C121.76,407.81,120,415.33,119.1,420Z" fill="#ffbf9d"/>
            <path id="Trazado_106713" data-name="Trazado 106713" d="M172.87,345.32a27.6,27.6,0,0,1-5.46,12.58c-13.17,18.44-23.5,39.43-35.09,59-5-1.14-9.94-2.33-14.92-3.49,5.76-22.82,15.42-47,29.72-66.09-10.49-42-15.8-62.83,9.23-102h0L187,250c-.14.77-.28,1.55-.43,2.33v.06C181.15,283.24,178.31,314.5,172.87,345.32Z" fill="#4c708f"/>
            <path id="Trazado_106714" data-name="Trazado 106714" d="M180.82,253.61c-3.28,4.61-.19,13.86-3.79,18.89-9.32,13-21.85,3.37-29.92,8.62-13.71,8.93,1.53,49.64,4.54,60.66.09.33,2.21,7.67,3.6,7.52-6.32.76-4.08-3.71-12.17,10-3.65,6.19-22.53,42.32-23.24,53.79-1.61,1.57-1.51,0-2.44.32,5.77-22.86,15.42-47,29.72-66.11-10.48-42-15.8-62.84,9.24-102,9.95,2.28,22.4.75,32.12,3C189.63,248.62,183,250.6,180.82,253.61Z" fill="#6595bf"/>
            <path id="Trazado_106715" data-name="Trazado 106715" d="M128.1,418.85c8.53,6,20.34,7.75,21.13,19.33L114,429.74a36.7,36.7,0,0,1,5.75-12.86C122.29,419.11,124.75,419.59,128.1,418.85Z" fill="#344154"/>
          </g>
          <g id="Grupo_57206" data-name="Grupo 57206">
            <path id="Trazado_106716" data-name="Trazado 106716" d="M269,178.59s-2.64,1.39-3.46,1.93c-1.52-2.66-1.74-5.2-3.17-7.72,0,0,3.73-1,4.09-1.74,1.18-2.44,2.24-6.93,4.7-7.53s.48,5.41.48,5.41,5.86-1.67,9.33-4.9C290.17,155.46,287.16,173.75,269,178.59Z" fill="#ffbf9d"/>
            <path id="Trazado_106717" data-name="Trazado 106717" d="M268,180.14c-6,4-31.91,20.13-41.59,20.88-11,.87-39.56-10.74-39.56-10.74l1.19-31.06c5.3-.79,38,25.65,38,25.65l37.44-14.25C265,173.14,266.5,177.47,268,180.14Z" fill="#d9a171"/>
            <g id="Grupo_57205" data-name="Grupo 57205">
              <path id="Trazado_106718" data-name="Trazado 106718" d="M204.56,168.49c-7.36-5.22-14.3-9.6-16.5-9.27v.06C191.8,160.64,198.17,164.4,204.56,168.49Z" fill="#384c78"/>
              <path id="Trazado_106719" data-name="Trazado 106719" d="M266.49,177c-6.64,5-31.1,20-40.44,21.31-9.78,1.32-34.11-6.5-39.17-8.18v.11s28.56,11.61,39.56,10.74c9.68-.75,35.57-16.85,41.59-20.88a32.115,32.115,0,0,1-1.54-3.1Z" fill="#a37955"/>
            </g>
          </g>
          <path id="Trazado_106720" data-name="Trazado 106720" d="M204.14,198l-11,48.74H153.26s-6.6-46.86,3.51-71.41c4.56-11.06,19.5-15.83,20.44-16.13h0l11.11.65Z" fill="#ffbf9d"/>
          <path id="Trazado_106721" data-name="Trazado 106721" d="M203.68,200l-9.31,41.1a7.21,7.21,0,0,1-7,5.66c-5.78,2.66-14,1.74-22.78,0A12.68,12.68,0,0,1,152,235c-1.27-15.52-2.18-42.84,4.76-59.67,3.56-8.65,13.49-13.47,18.08-15.29a12.31,12.31,0,0,1,4.53-.85h8.6C189.31,159.24,204,196,204,196a13,13,0,0,1-.32,4Z" fill="#fff"/>
          <rect id="Rectángulo_8246" data-name="Rectángulo 8246" width="42.27" height="6.27" transform="translate(160.19 243.05)" fill="#182f57"/>
          <path id="Trazado_106722" data-name="Trazado 106722" d="M185.81,270.93A5.89,5.89,0,0,0,189.9,275a18.21,18.21,0,0,0,7.74.4l.33-.06a34.083,34.083,0,0,0,6.15-1.64V212.92s.26-11.17,0-14.88c-1.15-16.39.48-35.65-15.09-38.73a3,3,0,0,0-1.08-.08C199.86,209.52,180.17,250.05,185.81,270.93Z" fill="#d9a171"/>
          <path id="Trazado_106723" data-name="Trazado 106723" d="M141.46,276.93c8.36,1.82,17.71,1,24.91,0a11.67,11.67,0,0,0,9.89-12.51c-2.5-34.58,7.44-68.46,1-105.17h0c-.94.29-16,5-20.43,16.12-8.43,20.85-11.72,67-18.15,97a3.8,3.8,0,0,0,2.78,4.56Z" fill="#d9a171"/>
          <path id="Trazado_106724" data-name="Trazado 106724" d="M148,248.43a50.14,50.14,0,0,0,18.88,0v-2.89a69.249,69.249,0,0,1-18.88,0Z" fill="#e1b48d"/>
          <g id="Grupo_57207" data-name="Grupo 57207">
            <path id="Trazado_106725" data-name="Trazado 106725" d="M256.89,238.65a34.261,34.261,0,0,0-5.94,0l.27-9.82s4.49,1.13,5.67.33c1.93-1.3,5-4.68,8.31-5.15s-1.77,5.38-1.77,5.38,7.13,1.76,13.05,0S281.13,242.2,256.89,238.65Z" fill="#ffbf9d"/>
            <path id="Trazado_106726" data-name="Trazado 106726" d="M253.71,228.37v12.1c-11.9,1.12-43.42,1.83-54.19-1.81-13.6-4.62-41.83-46.12-41.83-46.12l15-26c11.61,13.59,36.06,54.2,36.06,54.2Z" fill="#d9a171"/>
            <path id="Trazado_106727" data-name="Trazado 106727" d="M201.26,232.75c-12.36-3.76-43.57-40.21-43.57-40.21s28.23,41.5,41.83,46.12c10.77,3.64,42.29,2.93,54.19,1.81v-4.35C241.34,237.6,211.92,236,201.26,232.75Z" fill="#a37955"/>
          </g>
          <path id="Trazado_106728" data-name="Trazado 106728" d="M181.51,151.46s-9.51,0-11.79-11.1,6.79-15,12.75-14.92a15.71,15.71,0,0,0,12.53-6s5.28,7.21,2.24,13.53C194.61,138.49,181.51,151.46,181.51,151.46Z" fill="#344154"/>
          <path id="Trazado_106729" data-name="Trazado 106729" d="M188.85,146.23l-.21,3.2-.56,8.57-.09,1.3c-.17,6.8-10.22,4-10.74-.08l1.65-6.77,1.22-5,.42-1.74.72-2.95Z" fill="#ffbf9d"/>
          <path id="Trazado_106730" data-name="Trazado 106730" d="M188.64,149.43l-.56,8.57c-2.53-.52-6.37-1.7-8.31-4.34-.31-.41-.59-.81-.87-1.21l1.22-5,.42-1.74Z" fill="#f0b4b4"/>
          <path id="Trazado_106731" data-name="Trazado 106731" d="M192.48,131.69a2.56,2.56,0,0,1,3.85,2.12c.34,7,0,18.31-5.44,20.16-8,2.7-13.69-7.85-13.69-7.85s-3.42-4.89-1-6.56,4.69,2.44,4.69,2.44C181.27,134.24,187.71,134.65,192.48,131.69Z" fill="#ffbf9d"/>
        </g>
        <path id="Trazado_106732" data-name="Trazado 106732" d="M192.06,145.2a3.35,3.35,0,0,0,2.78-.51,21.55,21.55,0,0,1-3-5.05Z" fill="#ff9a6c"/>
        <path id="Trazado_106733" data-name="Trazado 106733" d="M187.79,138.82c.39,0,.72.55.73,1.08s-.31,1-.67,1-.66-.48-.73-1.07S187.4,138.81,187.79,138.82Z" fill="#344154"/>
        <path id="Trazado_106734" data-name="Trazado 106734" d="M194.41,138.51c.39,0,.71.48.73,1.07s-.29,1.08-.67,1.07-.71-.49-.72-1.08S194,138.5,194.41,138.51Z" fill="#344154"/>
        <path id="Trazado_106735" data-name="Trazado 106735" d="M193.38,136.05a.36.36,0,0,0,.3.13,2.93,2.93,0,0,1,2.44.78.33.33,0,0,0,.47,0h0a.34.34,0,0,0,0-.48h0a3.59,3.59,0,0,0-3-1,.36.36,0,0,0-.31.39A.4.4,0,0,0,193.38,136.05Z" fill="#344154"/>
        <path id="Trazado_106736" data-name="Trazado 106736" d="M193.94,148.53a.33.33,0,0,0-.32,0,2.92,2.92,0,0,1-2.56.11.34.34,0,0,0-.46.12h0a.35.35,0,0,0,.14.47h0a3.62,3.62,0,0,0,3.19-.14.35.35,0,0,0,.15-.47A.39.39,0,0,0,193.94,148.53Z" fill="#344154"/>
        <path id="Trazado_106737" data-name="Trazado 106737" d="M185.94,137.62a.35.35,0,0,0,.32-.08,2.92,2.92,0,0,1,2.39-.9.34.34,0,0,0,.4-.25h0a.36.36,0,0,0-.28-.4h0a3.54,3.54,0,0,0-3,1.09.34.34,0,0,0,0,.49A.27.27,0,0,0,185.94,137.62Z" fill="#344154"/>
      </g>
    </g>
  </g>
</svg>
