<svg xmlns="http://www.w3.org/2000/svg" width="356.689" height="745.382" viewBox="0 0 356.689 745.382">
  <g id="freepik--Character--inject-1" transform="translate(-6394.52 -1816.334)">
    <path id="Trazado_107692" data-name="Trazado 107692" d="M6579,2332.188l-19.123,2.153-7.054-43.375,19.123-2.153Z" transform="translate(68.761 205.228)" fill="#ffc3bd"/>
    <path id="Trazado_107693" data-name="Trazado 107693" d="M6637.97,2335.35h-19.1l-4.741-44.222h19.1Z" transform="translate(95.391 206.234)" fill="#ffc3bd"/>
    <path id="Trazado_107694" data-name="Trazado 107694" d="M6627.066,2320.41h23.267a1.672,1.672,0,0,1,1.627,1.305l3.778,16.97a2.793,2.793,0,0,1-2.133,3.325,2.839,2.839,0,0,1-.661.064c-7.488-.115-12.961-.549-22.4-.549-5.795,0-23.291.595-31.307.595s-9.16-7.925-5.771-8.633c14.7-3.23,25.785-7.673,30.5-11.909A4.589,4.589,0,0,1,6627.066,2320.41Z" transform="translate(85.639 218.953)" fill="#344154"/>
    <path id="Trazado_107695" data-name="Trazado 107695" d="M6568.381,2318.967l20.61-2.289a1.649,1.649,0,0,1,1.765,1.122l5.656,16.42a2.77,2.77,0,0,1-2.29,3.687c-7.488.733-18.32,1.512-27.733,2.588-10.992,1.238-12.824,4.191-25.764,3.871-7.854-.184-9.847-8.153-6.55-8.794,15.023-2.909,17.908-5.176,29.772-14.542A8.744,8.744,0,0,1,6568.381,2318.967Z" transform="translate(59.956 217.326)" fill="#344154"/>
    <path id="Trazado_107696" data-name="Trazado 107696" d="M6624.2,1937.6c-6.413,5.29-12.733,9.893-19.259,14.61s-13.191,9.16-20.062,13.351-13.9,8.291-21.3,11.978a154.165,154.165,0,0,1-23.5,9.87c-2.13.664-4.214,1.237-6.618,1.809a63.617,63.617,0,0,1-7.123,1.145c-4.306.482-8.337.664-12.367.87-8.038.367-16.03.344-23.816.3-15.756-.184-31.375-.94-47.084-2.291l-.229-14.337c15.412-1.969,30.893-3.686,46.214-5.4,7.649-.846,15.3-1.763,22.741-2.747,3.732-.5,7.421-1.1,10.81-1.741a43.873,43.873,0,0,0,4.351-1.007c1.328-.459,2.978-.985,4.58-1.6a156.209,156.209,0,0,0,19.031-9.3c6.344-3.642,12.663-7.558,18.894-11.7s12.436-8.45,18.6-12.825,12.274-9.022,18.046-13.42Z" transform="translate(20.992 42.927)" fill="#ffc3bd"/>
    <path id="Trazado_107697" data-name="Trazado 107697" d="M6602.891,1927.773c-2.748,18.046-40.74,45.642-40.74,45.642l-27.275-33.825a452.732,452.732,0,0,1,37.947-36.091C6585.074,1893.467,6605.868,1908.124,6602.891,1927.773Z" transform="translate(60.965 36.451)" fill="#d9a171"/>
    <path id="Trazado_107698" data-name="Trazado 107698" d="M6450.159,1960.174l-10.832-7.717-1.19,24.388s6,0,8.313-4.4Z" transform="translate(18.946 59.127)" fill="#ffc3bd"/>
    <path id="Trazado_107699" data-name="Trazado 107699" d="M6432.806,1947.507l-2.222,23.886,10.832,7.6,1.191-24.39Z" transform="translate(15.666 56.977)" fill="#ffc3bd"/>
    <path id="Trazado_107700" data-name="Trazado 107700" d="M6552.837,2290.982l3.618,22.351,19.123-2.153-3.619-22.351Z" transform="translate(68.767 205.235)" fill="#344154" opacity="0.2" style="isolation: isolate"/>
    <path id="Trazado_107701" data-name="Trazado 107701" d="M6633.229,2291.128h-19.1l2.45,22.81h19.1Z" transform="translate(95.391 206.234)" fill="#344154" opacity="0.2" style="isolation: isolate"/>
    <path id="Trazado_107702" data-name="Trazado 107702" d="M6661.686,1905.029a10.9,10.9,0,0,1,8.268,13.011c-.021.1-.044.2-.069.294a448.69,448.69,0,0,0-9.345,52.192c-1.809,14.794-2.884,28.924-3.548,41.726-1.6,30-.94,52.879-1.832,60.642l-101.887-7.053c-10.353-81.07,1.763-132.826,8.587-153.827a18.183,18.183,0,0,1,14.886-12.459c3.916-.5,8.588-1.007,13.534-1.305,1.718,0,3.482-.161,5.245-.207a379.243,379.243,0,0,1,43.352,2.909c2.726.321,5.474.733,8.153,1.145C6652.366,1903.037,6657.472,1904.09,6661.686,1905.029Z" transform="translate(67.21 35.492)" fill="#344154"/>
    <path id="Trazado_107703" data-name="Trazado 107703" d="M6624.544,1865.921c-3.71,13.74-8.222,39.069.871,49.054-23.611,15.893-38.681,38.244-43.032,33.389-2.289-2.542-3.252-32.061-.274-36.411,15.8-2.635,16.215-14.176,14.269-25.192Z" transform="translate(80.672 21.539)" fill="#ffc3bd"/>
    <path id="Trazado_107704" data-name="Trazado 107704" d="M6623.634,1896.144s-38.5,17.039-43.512,55.1c10.58-12.275,34.008-25.626,34.008-25.626l-10.328-2.955a105.564,105.564,0,0,1,20.291-5.474c-1.146-5.267,4.969-15.755,4.969-15.755Z" transform="translate(80.62 34.667)" fill="#d9a171"/>
    <path id="Trazado_107705" data-name="Trazado 107705" d="M6592.363,1895.713s5.106,21.756-8.862,55.719c-2.176-12.962-11.313-34.65-11.313-34.65l9.436,2.542s-.48-4.373-8.107-10.213c2.841-5.451,11.726-11.887,11.726-11.887Z" transform="translate(77.173 34.48)" fill="#d9a171"/>
    <path id="Trazado_107706" data-name="Trazado 107706" d="M6608.194,1871.844l-16.672,12.321a43.342,43.342,0,0,1,.8,7.786c6-.435,14.612-6.389,15.665-12.572A20.8,20.8,0,0,0,6608.194,1871.844Z" transform="translate(85.572 24.112)" fill="#344154" opacity="0.2" style="isolation: isolate"/>
    <path id="Trazado_107707" data-name="Trazado 107707" d="M6580.063,1838.173c-9.321.389-14.45,16.442-5.016,29.772S6592.59,1837.647,6580.063,1838.173Z" transform="translate(76.236 9.484)" fill="#344154"/>
    <path id="Trazado_107708" data-name="Trazado 107708" d="M6625.1,1855.488c1.1,18.917,2.7,29.931-5.61,40.695-12.527,16.214-36.757,10.421-43.513-7.786-6.045-16.4-6.87-44.589,10.648-54.252a25.855,25.855,0,0,1,38.475,21.343Z" transform="translate(77.117 6.299)" fill="#ffc3bd"/>
    <path id="Trazado_107709" data-name="Trazado 107709" d="M6630.7,1876.306c-14.335-9.16-19.4-21.229-20.5-27.3-5.565,1.305-33.185,14.015-41.681,0s2.29-22.26,18.093-13.626c-7.031-12.413-.642-18.482,21.458-19.031s19.121,12.275,19.121,12.275,16.72-7.282,22.65,5.542C6656.694,1848.917,6644.052,1874.086,6630.7,1876.306Z" transform="translate(74.286 0)" fill="#344154"/>
    <path id="Trazado_107710" data-name="Trazado 107710" d="M6605.893,1824.809c.206,0,8.359,1.969,17.771-7.489-1.672,8.061-16.283,13.443-16.283,13.443Z" transform="translate(91.812 0.428)" fill="#344154"/>
    <path id="Trazado_107711" data-name="Trazado 107711" d="M6618.5,1841.978c-8.794-3.045-19.466,10.008-15.527,25.764S6630.382,1846.078,6618.5,1841.978Z" transform="translate(90.178 10.946)" fill="#344154"/>
    <path id="Trazado_107712" data-name="Trazado 107712" d="M6622.317,1862.022a17.906,17.906,0,0,1-7.328,11.633c-5.175,3.619-9.847-.5-10.146-6.48-.273-5.382,2.107-13.741,8.13-14.978S6623.257,1856.25,6622.317,1862.022Z" transform="translate(91.349 15.499)" fill="#ffc3bd"/>
    <path id="Trazado_107713" data-name="Trazado 107713" d="M6589.252,2230.092c4.581-55.834,38.245-210.438,38.245-210.438l-66.984-4.626s-25.834,153.437-27.8,211.7c-2.062,60.573,22.306,195.163,22.306,195.163l32.062-3.663S6584.627,2286.176,6589.252,2230.092Z" transform="translate(59.97 86.306)" fill="#d9a171"/>
    <path id="Trazado_107714" data-name="Trazado 107714" d="M6589.252,2230.092c4.581-55.834,38.245-210.438,38.245-210.438l-66.984-4.626s-25.834,153.437-27.8,211.7c-2.062,60.573,22.306,195.163,22.306,195.163l32.062-3.663S6584.627,2286.176,6589.252,2230.092Z" transform="translate(59.97 86.306)" fill="#fff" stroke="#5e6178" stroke-miterlimit="10" stroke-width="0" opacity="0.5" style="isolation: isolate"/>
    <path id="Trazado_107715" data-name="Trazado 107715" d="M6584.7,2054.751c-13.512,17.267-13.741,77.864-8.52,122.7,4.97-32.337,12.8-73.283,19.694-107.635Z" transform="translate(77.533 103.56)" fill="#344154" opacity="0.2" style="isolation: isolate"/>
    <path id="Trazado_107716" data-name="Trazado 107716" d="M6577.249,2016.752s7.236,163.468,15.3,218.819c8.816,60.619,31.237,193.218,31.237,193.218h34.97s-5.748-124.788-10.375-184.354c-5.243-67.833-5.382-223.011-5.382-223.011Z" transform="translate(79.371 87.054)" fill="#d9a171"/>
    <path id="Trazado_107717" data-name="Trazado 107717" d="M6577.249,2016.752s7.236,163.468,15.3,218.819c8.816,60.619,31.237,193.218,31.237,193.218h34.97s-5.748-124.788-10.375-184.354c-5.243-67.833-5.382-223.011-5.382-223.011Z" transform="translate(79.371 87.054)" fill="#fff" stroke="#5e6178" stroke-miterlimit="10" stroke-width="0" opacity="0.5" style="isolation: isolate"/>
    <path id="Trazado_107718" data-name="Trazado 107718" d="M6608.24,2308.443h41.177v-12.3l-46.031-.8Z" transform="translate(90.723 208.065)" fill="#d9a171"/>
    <path id="Trazado_107719" data-name="Trazado 107719" d="M6549.043,2306.233l38.29-4.352-1.4-12.366-42.871,4.19Z" transform="translate(64.524 205.533)" fill="#d9a171"/>
    <path id="Trazado_107720" data-name="Trazado 107720" d="M6590.737,1854.83c.182,1.535-.482,2.886-1.489,3s-1.946-1.031-2.152-2.566.48-2.862,1.488-2.976S6590.553,1853.318,6590.737,1854.83Z" transform="translate(83.632 15.614)" fill="#344154"/>
    <path id="Trazado_107721" data-name="Trazado 107721" d="M6578.705,1856.283c.184,1.535-.48,2.863-1.489,3s-1.946-1.03-2.129-2.565.48-2.862,1.465-2.976S6578.477,1854.748,6578.705,1856.283Z" transform="translate(78.419 16.245)" fill="#344154"/>
    <path id="Trazado_107722" data-name="Trazado 107722" d="M6583.2,1855.591a55.263,55.263,0,0,1-5.747,13.946,8.9,8.9,0,0,0,7.486.48Z" transform="translate(79.461 17.052)" fill="#ed847e"/>
    <path id="Trazado_107723" data-name="Trazado 107723" d="M6595.385,1851.069a.9.9,0,0,1-.917-.228,7.23,7.23,0,0,0-6.114-2.291.914.914,0,0,1-1.133-.627.9.9,0,0,1-.034-.2.869.869,0,0,1,.658-1.04.6.6,0,0,1,.074-.013,8.909,8.909,0,0,1,7.74,2.817.893.893,0,0,1,.02,1.262l-.02.02A1.064,1.064,0,0,1,6595.385,1851.069Z" transform="translate(83.679 13.145)" fill="#344154"/>
    <path id="Trazado_107724" data-name="Trazado 107724" d="M6588.436,1872.57h0a13.877,13.877,0,0,0,9.893-8.13.481.481,0,0,0-.275-.618.506.506,0,0,0-.642.3,13.12,13.12,0,0,1-9.159,7.489.49.49,0,0,0,.184.961Z" transform="translate(83.988 20.615)" fill="#344154"/>
    <path id="Trazado_107725" data-name="Trazado 107725" d="M6572.252,1854.106a.743.743,0,0,1-.549,0,.915.915,0,0,1-.572-1.145,9.02,9.02,0,0,1,5.839-5.839.9.9,0,0,1,1.094.634l.007.03a.871.871,0,0,1-.611,1.069l-.03.007h0a7.192,7.192,0,0,0-4.58,4.58A.821.821,0,0,1,6572.252,1854.106Z" transform="translate(76.695 13.36)" fill="#344154"/>
    <path id="Trazado_107726" data-name="Trazado 107726" d="M6613.34,2324.181a5.739,5.739,0,0,1-3.663-.985,2.7,2.7,0,0,1-.939-2.289,1.4,1.4,0,0,1,.778-1.283c2.107-1.1,8.269,2.7,8.955,3.137a.414.414,0,0,1,.205.458.433.433,0,0,1-.343.367A22.359,22.359,0,0,1,6613.34,2324.181Zm-2.84-3.962a1.317,1.317,0,0,0-.572.115.546.546,0,0,0-.3.526,1.852,1.852,0,0,0,.618,1.648c1.053.871,3.549,1.008,6.871.344A18.476,18.476,0,0,0,6610.5,2320.219Z" transform="translate(93.043 218.525)" fill="#d9a171"/>
    <path id="Trazado_107727" data-name="Trazado 107727" d="M6617.068,2324.862a.412.412,0,0,1-.229,0c-1.969-1.077-5.793-5.267-5.382-7.374a1.489,1.489,0,0,1,1.443-1.191,2.425,2.425,0,0,1,1.923.572c2.291,1.809,2.68,7.328,2.68,7.558a.363.363,0,0,1-.435.435Zm-3.778-7.741h-.184c-.595,0-.641.344-.664.459-.252,1.259,2.289,4.419,4.146,5.908a10.732,10.732,0,0,0-2.29-5.977A1.6,1.6,0,0,0,6613.29,2317.121Z" transform="translate(94.217 217.157)" fill="#d9a171"/>
    <path id="Trazado_107728" data-name="Trazado 107728" d="M6559.989,2321.167h0c-2.976.963-8.335,2.291-10.625.71a2.474,2.474,0,0,1-1.076-2.084,1.436,1.436,0,0,1,.6-1.282c2.152-1.512,10.236,1.466,11.129,1.809a.481.481,0,0,1,.3.436A.433.433,0,0,1,6559.989,2321.167Zm-10.557-1.969h0a.6.6,0,0,0-.229.526,1.626,1.626,0,0,0,.71,1.374c1.282.916,4.421.733,8.543-.435-3.321-1.031-7.7-2.153-9.023-1.466Z" transform="translate(66.79 217.943)" fill="#d9a171"/>
    <path id="Trazado_107729" data-name="Trazado 107729" d="M6558.761,2322.674a.5.5,0,0,1-.365,0c-2.405-.756-7.4-4.35-7.283-6.526,0-.527.3-1.191,1.511-1.443a3.261,3.261,0,0,1,2.59.48c2.633,1.718,3.732,6.871,3.777,6.871a.5.5,0,0,1-.138.435Zm-6.435-6.87c-.3.16-.321.344-.321.436,0,1.305,3.39,4.168,5.887,5.313a10.585,10.585,0,0,0-3.184-5.565,2.29,2.29,0,0,0-1.878-.366,1.561,1.561,0,0,0-.5.159Z" transform="translate(68.018 216.436)" fill="#d9a171"/>
    <path id="Trazado_107730" data-name="Trazado 107730" d="M6670.713,1922.722c-.48,7.466-1.352,14.405-2.291,21.573s-2.128,14.2-3.479,21.3a251.07,251.07,0,0,1-11.749,42.551l-2.29,5.336-.572,1.328-.138.343-.229.5-.687,1.42a23.08,23.08,0,0,1-3.16,4.581,27.96,27.96,0,0,1-6.87,5.679,40.809,40.809,0,0,1-6.573,3.183,85.931,85.931,0,0,1-23.5,4.924,196.9,196.9,0,0,1-43.694-1.626l.526-14.335,10.1-1.146c3.389-.389,6.756-.915,10.1-1.374,6.686-.984,13.306-2.083,19.625-3.549a74.776,74.776,0,0,0,16.879-5.588,9.353,9.353,0,0,0,3.688-2.817c0-.343-.664,1.1.183-1.19l1.512-4.421a288.787,288.787,0,0,0,8.475-38.61c1.1-6.641,2.015-13.351,2.93-20.084s1.626-13.581,2.291-20.017Z" transform="translate(74.259 45.326)" fill="#ffc3bd"/>
    <path id="Trazado_107731" data-name="Trazado 107731" d="M6654.557,1916.43c9.346,15.665,1.375,64.947,1.375,64.947l-49.009-9.16s-2.656-28.214,6.688-49.878C6623.756,1898.842,6643.245,1897.422,6654.557,1916.43Z" transform="translate(92.11 37.786)" fill="#d9a171"/>
    <path id="Trazado_107732" data-name="Trazado 107732" d="M6601.245,2062.579l-25.992-120.917a24.459,24.459,0,0,0-22.74-18.711h-99.575a24.508,24.508,0,0,1,22.742,18.711l25.969,120.917a24.507,24.507,0,0,0,22.74,18.711h99.6A24.485,24.485,0,0,1,6601.245,2062.579Z" transform="translate(25.374 46.311)" fill="#344154"/>
    <path id="Trazado_107733" data-name="Trazado 107733" d="M6601.245,2062.579l-25.992-120.917a24.459,24.459,0,0,0-22.74-18.711h-99.575a24.508,24.508,0,0,1,22.742,18.711l25.969,120.917a24.507,24.507,0,0,0,22.74,18.711h99.6A24.485,24.485,0,0,1,6601.245,2062.579Z" transform="translate(25.374 46.311)" fill="#d9a171" opacity="0.7" style="isolation: isolate"/>
    <rect id="Rect치ngulo_8525" data-name="Rect치ngulo 8525" width="28.489" height="2.299" transform="translate(6436.911 2143.309) rotate(-84.857)" fill="#d9a171"/>
    <rect id="Rect치ngulo_8526" data-name="Rect치ngulo 8526" width="11.931" height="2.29" transform="matrix(0.092, -0.996, 0.996, 0.092, 6433.228, 2168.902)" fill="#d9a171"/>
    <path id="Trazado_107734" data-name="Trazado 107734" d="M6466.979,1922.951h99.575a20.91,20.91,0,0,0-20.406,18.711l-25.832,280.95a20.929,20.929,0,0,1-20.427,18.71h-62.154a16.81,16.81,0,0,1-17.121-16.492,17,17,0,0,1,.105-2.218l25.833-280.95A20.932,20.932,0,0,1,6466.979,1922.951Z" transform="translate(11.333 46.311)" fill="#d9a171"/>
    <path id="Trazado_107735" data-name="Trazado 107735" d="M6494.206,2131.867a16.806,16.806,0,0,0,17.016,18.71h-99.6a16.776,16.776,0,0,1-16.991-18.71Z" transform="translate(0 137.057)" fill="#344154"/>
    <path id="Trazado_107736" data-name="Trazado 107736" d="M6494.206,2131.867a16.806,16.806,0,0,0,17.016,18.71h-99.6a16.776,16.776,0,0,1-16.991-18.71Z" transform="translate(0 137.057)" fill="#d9a171" opacity="0.7" style="isolation: isolate"/>
    <g id="Grupo_57956" data-name="Grupo 57956" transform="translate(6447.052 1992.598)" opacity="0.5">
      <path id="Trazado_107737" data-name="Trazado 107737" d="M6517.74,1947.374h-67.511a3.665,3.665,0,0,1-3.711-3.617,3.792,3.792,0,0,1,.023-.459h0a4.581,4.581,0,0,1,4.443-4.076h67.4a3.665,3.665,0,0,1,3.709,3.618,3.784,3.784,0,0,1-.023.459h0A4.58,4.58,0,0,1,6517.74,1947.374Z" transform="translate(-6424.464 -1939.221)" fill="#fff" stroke="#5e6178" stroke-miterlimit="10" stroke-width="0"/>
      <path id="Trazado_107738" data-name="Trazado 107738" d="M6516.245,1962.733h-67.4a3.665,3.665,0,0,1-3.733-3.594,3.62,3.62,0,0,1,.023-.482h0a4.58,4.58,0,0,1,4.443-4.076h67.4a3.664,3.664,0,0,1,3.731,3.594,3.608,3.608,0,0,1-.022.482h0A4.579,4.579,0,0,1,6516.245,1962.733Z" transform="translate(-6425.075 -1932.55)" fill="#fff" stroke="#5e6178" stroke-miterlimit="10" stroke-width="0"/>
      <path id="Trazado_107739" data-name="Trazado 107739" d="M6498.345,1978.108h-50.909a3.663,3.663,0,0,1-3.71-3.618,3.61,3.61,0,0,1,.022-.459h0a4.581,4.581,0,0,1,4.442-4.077h50.863a3.664,3.664,0,0,1,3.732,3.595,3.443,3.443,0,0,1-.023.482h0A4.577,4.577,0,0,1,6498.345,1978.108Z" transform="translate(-6425.679 -1925.871)" fill="#fff" stroke="#5e6178" stroke-miterlimit="10" stroke-width="0"/>
      <path id="Trazado_107740" data-name="Trazado 107740" d="M6463.3,1993.541h-17.244a3.668,3.668,0,0,1-3.731-3.6,3.74,3.74,0,0,1,.021-.456h0a4.579,4.579,0,0,1,4.442-4.076h17.269a3.662,3.662,0,0,1,3.709,3.617,3.44,3.44,0,0,1-.022.459h0A4.581,4.581,0,0,1,6463.3,1993.541Z" transform="translate(-6426.288 -1919.157)" fill="#fff" stroke="#5e6178" stroke-miterlimit="10" stroke-width="0"/>
      <path id="Trazado_107741" data-name="Trazado 107741" d="M6512.054,2008.843h-67.444a3.665,3.665,0,0,1-3.711-3.617,3.792,3.792,0,0,1,.023-.459h0a4.58,4.58,0,0,1,4.442-4.076h67.376a3.664,3.664,0,0,1,3.732,3.595,3.46,3.46,0,0,1-.023.482h0A4.58,4.58,0,0,1,6512.054,2008.843Z" transform="translate(-6426.906 -1912.521)" fill="#fff" stroke="#5e6178" stroke-miterlimit="10" stroke-width="0"/>
      <path id="Trazado_107742" data-name="Trazado 107742" d="M6484.138,2024.218h-40.879a3.664,3.664,0,0,1-3.732-3.594,3.619,3.619,0,0,1,.022-.482h0a4.581,4.581,0,0,1,4.443-4.076h40.855a3.687,3.687,0,0,1,3.729,3.643,3.372,3.372,0,0,1-.02.433h0A4.579,4.579,0,0,1,6484.138,2024.218Z" transform="translate(-6427.503 -1905.842)" fill="#fff" stroke="#5e6178" stroke-miterlimit="10" stroke-width="0"/>
      <path id="Trazado_107743" data-name="Trazado 107743" d="M6509.243,2039.578h-67.4a3.666,3.666,0,0,1-3.709-3.619,3.994,3.994,0,0,1,.022-.458h0a4.579,4.579,0,0,1,4.442-4.076h67.329a3.686,3.686,0,0,1,3.73,3.643,3.569,3.569,0,0,1-.02.433h0A4.582,4.582,0,0,1,6509.243,2039.578Z" transform="translate(-6428.105 -1899.171)" fill="#fff" stroke="#5e6178" stroke-miterlimit="10" stroke-width="0"/>
      <path id="Trazado_107744" data-name="Trazado 107744" d="M6491.329,2054.953h-50.864a3.664,3.664,0,0,1-3.732-3.595,3.442,3.442,0,0,1,.023-.481h0a4.578,4.578,0,0,1,4.442-4.077h50.863a3.663,3.663,0,0,1,3.732,3.594,3.8,3.8,0,0,1-.022.482h0A4.581,4.581,0,0,1,6491.329,2054.953Z" transform="translate(-6428.716 -1892.492)" fill="#fff" stroke="#5e6178" stroke-miterlimit="10" stroke-width="0"/>
      <path id="Trazado_107745" data-name="Trazado 107745" d="M6456.326,2070.328h-17.268a3.684,3.684,0,0,1-3.729-3.643,3.558,3.558,0,0,1,.02-.433h0a4.581,4.581,0,0,1,4.465-4.076h17.246a3.665,3.665,0,0,1,3.731,3.594,3.613,3.613,0,0,1-.022.482h0A4.579,4.579,0,0,1,6456.326,2070.328Z" transform="translate(-6429.325 -1885.814)" fill="#fff" stroke="#5e6178" stroke-miterlimit="10" stroke-width="0"/>
      <path id="Trazado_107746" data-name="Trazado 107746" d="M6505.045,2085.687H6437.67a3.664,3.664,0,0,1-3.732-3.593,3.6,3.6,0,0,1,.023-.482h0a4.579,4.579,0,0,1,4.441-4.077h67.4a3.665,3.665,0,0,1,3.711,3.617,3.8,3.8,0,0,1-.023.459h0A4.579,4.579,0,0,1,6505.045,2085.687Z" transform="translate(-6429.93 -1879.142)" fill="#fff" stroke="#5e6178" stroke-miterlimit="10" stroke-width="0"/>
      <path id="Trazado_107747" data-name="Trazado 107747" d="M6477.122,2101.063h-40.857a3.665,3.665,0,0,1-3.731-3.595,3.455,3.455,0,0,1,.022-.482h0a4.58,4.58,0,0,1,4.442-4.076h40.856a3.665,3.665,0,0,1,3.732,3.595,3.617,3.617,0,0,1-.023.482h0A4.581,4.581,0,0,1,6477.122,2101.063Z" transform="translate(-6430.54 -1872.464)" fill="#fff" stroke="#5e6178" stroke-miterlimit="10" stroke-width="0"/>
      <path id="Trazado_107748" data-name="Trazado 107748" d="M6502.251,2116.479h-67.375a3.663,3.663,0,0,1-3.731-3.595,3.623,3.623,0,0,1,.022-.482h0a4.578,4.578,0,0,1,4.442-4.053h67.4a3.664,3.664,0,0,1,3.707,3.62,3.558,3.558,0,0,1-.021.433h0A4.58,4.58,0,0,1,6502.251,2116.479Z" transform="translate(-6431.144 -1865.757)" fill="#fff" stroke="#5e6178" stroke-miterlimit="10" stroke-width="0"/>
    </g>
    <path id="Trazado_107749" data-name="Trazado 107749" d="M6576.5,1994.321l-14.633-12.71-6.871,23.4s14.863,8.061,19.994.664Z" transform="translate(69.704 71.791)" fill="#ffc3bd"/>
    <path id="Trazado_107750" data-name="Trazado 107750" d="M6550.127,1980.972l-4.763,19.626,13.832,4.695,6.848-23.4Z" transform="translate(65.522 71.513)" fill="#ffc3bd"/>
  </g>
</svg>
