<svg xmlns="http://www.w3.org/2000/svg" width="474.44" height="438.965" viewBox="0 0 474.44 438.965">
  <g id="graficos_cf13_Recuperado__cuotas_copia" data-name="graficos cf13 [Recuperado]_cuotas copia" transform="translate(-10.42 -30.498)">
    <g id="freepik--background-complete--inject-45">
      <path id="Trazado_109028" data-name="Trazado 109028" d="M89.2,43.87h57.92s-5.12-9.32-20-8c-14.24,1.3-15-4.59-22.2-5.31S91.61,35.42,89.2,43.87Z" fill="#f5f5f5"/>
      <path id="Trazado_109029" data-name="Trazado 109029" d="M270.28,129.82h100s-8.84-16.1-34.58-13.75c-24.59,2.25-25.84-7.89-38.34-9.15S274.49,115.26,270.28,129.82Z" fill="#ebebeb"/>
      <circle id="Elipse_4173" data-name="Elipse 4173" cx="9.92" cy="9.92" r="9.92" transform="translate(450.28 120.54)" fill="#ebebeb"/>
      <path id="Trazado_109030" data-name="Trazado 109030" d="M460.11,149.79a42.456,42.456,0,0,1-.2-5.75,42.461,42.461,0,0,1,.2-5.75,42.465,42.465,0,0,1,.2,5.75A42.466,42.466,0,0,1,460.11,149.79Z" fill="#ebebeb"/>
      <path id="Trazado_109031" data-name="Trazado 109031" d="M478.93,130.45a88.838,88.838,0,0,1-12,0,92.251,92.251,0,0,1,12,0Z" fill="#ebebeb"/>
      <path id="Trazado_109032" data-name="Trazado 109032" d="M460.24,113.66a35.812,35.812,0,0,1,.19,5.28,35.588,35.588,0,0,1-.19,5.26,34.281,34.281,0,0,1-.2-5.26,34.491,34.491,0,0,1,.2-5.28Z" fill="#ebebeb"/>
      <path id="Trazado_109033" data-name="Trazado 109033" d="M454.89,131.16a99.821,99.821,0,0,1-12.71,0,103.657,103.657,0,0,1,12.71,0Z" fill="#ebebeb"/>
      <path id="Trazado_109034" data-name="Trazado 109034" d="M455.73,127.28a30.441,30.441,0,0,1-3.61-3.29,29.6,29.6,0,0,1-3.29-3.61,30.44,30.44,0,0,1,3.61,3.29,30.439,30.439,0,0,1,3.29,3.61Z" fill="#ebebeb"/>
      <path id="Trazado_109035" data-name="Trazado 109035" d="M470.74,120.53a17.48,17.48,0,0,1-2.52,2.84,17.12,17.12,0,0,1-2.81,2.57,18.5,18.5,0,0,1,2.53-2.85,18.91,18.91,0,0,1,2.8-2.56Z" fill="#ebebeb"/>
      <path id="Trazado_109036" data-name="Trazado 109036" d="M471.45,141.81a29,29,0,0,1-3.47-3.18,27.5,27.5,0,0,1-3.18-3.47,26.818,26.818,0,0,1,3.47,3.18,28.2,28.2,0,0,1,3.18,3.47Z" fill="#ebebeb"/>
      <path id="Trazado_109037" data-name="Trazado 109037" d="M458,134.42a50.848,50.848,0,0,1-4.26,4.55,50.581,50.581,0,0,1-4.51,4.27,47.723,47.723,0,0,1,4.25-4.51A49.73,49.73,0,0,1,458,134.42Z" fill="#ebebeb"/>
      <path id="Trazado_109038" data-name="Trazado 109038" d="M95.37,207.42h48.69s-4.31-7.84-16.85-6.7c-12,1.09-12.63-3.85-18.68-4.47S97.4,200.31,95.37,207.42Z" fill="#ebebeb"/>
      <path id="Trazado_109039" data-name="Trazado 109039" d="M483.16,449.08a1.814,1.814,0,0,1-.2.21l-.64.56c-.3.23-.68.49-1.13.81a16.723,16.723,0,0,1-1.67.9,18.789,18.789,0,0,1-5,1.51,28.3,28.3,0,0,1-6.88.19,54.322,54.322,0,0,1-8.21-1.47c-2.91-.69-6-1.53-9.3-2.1a32.359,32.359,0,0,0-10.44-.19,81.464,81.464,0,0,0-11,2.6,79.078,79.078,0,0,1-11.05,2.58,32.67,32.67,0,0,1-10.58-.26q-4.69-.9-9.29-2.27c-2.87-.83-5.55-1.58-8-2.14a42.747,42.747,0,0,0-6.75-1h-2.81a22.791,22.791,0,0,0-2.33.28l-1.81.4-1.3.45-.81.27-.29.08.27-.13.79-.31c.35-.14.78-.32,1.31-.5l1.8-.44a20.724,20.724,0,0,1,2.35-.32c.9-.11,1.81,0,2.83-.08a41.091,41.091,0,0,1,6.82.9c2.49.54,5.19,1.27,8.06,2.08a91.894,91.894,0,0,0,9.27,2.22,32.6,32.6,0,0,0,10.43.24,79.366,79.366,0,0,0,11-2.58,79.147,79.147,0,0,1,11.05-2.6,32.392,32.392,0,0,1,10.58.22c3.32.58,6.41,1.44,9.31,2.15a54.539,54.539,0,0,0,8.12,1.52,28.739,28.739,0,0,0,6.81-.13,19.189,19.189,0,0,0,4.93-1.41A16.888,16.888,0,0,0,483.16,449.08Z" fill="#e0e0e0"/>
      <path id="Trazado_109040" data-name="Trazado 109040" d="M142.52,463.55a1.308,1.308,0,0,1-.21.2l-.64.57c-.3.23-.67.5-1.14.81a17.17,17.17,0,0,1-6.63,2.42,28.3,28.3,0,0,1-6.88.19,54.539,54.539,0,0,1-8.21-1.47c-2.91-.7-6-1.54-9.3-2.1A32.09,32.09,0,0,0,99.07,464a83,83,0,0,0-11,2.59A79.243,79.243,0,0,1,77,469.16a33,33,0,0,1-10.58-.27,89.653,89.653,0,0,1-9.28-2.27c-2.88-.82-5.56-1.58-8-2.13a40.519,40.519,0,0,0-6.76-1c-1,0-1.94-.06-2.8,0a20.314,20.314,0,0,0-2.33.29l-1.8.39-1.31.45-.81.27A1.47,1.47,0,0,1,33,465l.26-.12.79-.32c.35-.13.79-.31,1.3-.49l1.8-.44a18.873,18.873,0,0,1,2.36-.33c.9-.11,1.8,0,2.83-.08a41.109,41.109,0,0,1,6.81.9c2.49.53,5.19,1.27,8.07,2.08a88.007,88.007,0,0,0,9.26,2.22,32.651,32.651,0,0,0,10.44.24,80.042,80.042,0,0,0,11-2.5,80.1,80.1,0,0,1,11-2.6,32.331,32.331,0,0,1,10.57.22c3.34.59,6.42,1.44,9.32,2.15a54.538,54.538,0,0,0,8.12,1.52,28.127,28.127,0,0,0,6.8-.13,18.94,18.94,0,0,0,5-1.41,17.571,17.571,0,0,0,3.79-2.36Z" fill="#e0e0e0"/>
      <path id="Trazado_109041" data-name="Trazado 109041" d="M298.47,453.33a11.663,11.663,0,0,0-1.66-1.19,12.75,12.75,0,0,0-5.24-1.67,25.593,25.593,0,0,0-8.18.61,66.239,66.239,0,0,1-10,1.81c-3.66.19-7.05-.84-10.07-1.57a37.24,37.24,0,0,0-4.32-.91,17.329,17.329,0,0,0-3.81-.05,10.6,10.6,0,0,0-5.16,1.8,15.046,15.046,0,0,0-1.51,1.37,5.6,5.6,0,0,1,1.4-1.51,10.37,10.37,0,0,1,5.23-2,17,17,0,0,1,3.9,0,32.549,32.549,0,0,1,4.38.84c3,.72,6.36,1.74,9.92,1.52a72.547,72.547,0,0,0,9.92-1.75,25.179,25.179,0,0,1,8.3-.52,12.24,12.24,0,0,1,5.3,1.85,7.629,7.629,0,0,1,1.19.95,3.322,3.322,0,0,1,.41.42Z" fill="#e0e0e0"/>
      <rect id="Rectángulo_8656" data-name="Rectángulo 8656" width="3.08" height="112.09" transform="translate(339.12 210.48)" fill="#e0e0e0"/>
      <rect id="Rectángulo_8657" data-name="Rectángulo 8657" width="3.08" height="112.09" transform="translate(331.69 210.48)" fill="#e0e0e0"/>
      <rect id="Rectángulo_8658" data-name="Rectángulo 8658" width="3.08" height="112.09" transform="translate(303.46 210.48)" fill="#e0e0e0"/>
      <rect id="Rectángulo_8659" data-name="Rectángulo 8659" width="3.08" height="112.09" transform="translate(368.09 210.48)" fill="#e0e0e0"/>
      <rect id="Rectángulo_8660" data-name="Rectángulo 8660" width="32.05" height="3.16" transform="translate(339.12 210.48)" fill="#e0e0e0"/>
      <rect id="Rectángulo_8661" data-name="Rectángulo 8661" width="218.97" height="3.65" transform="translate(265.89 218.11)" fill="#e0e0e0"/>
      <rect id="Rectángulo_8662" data-name="Rectángulo 8662" width="66.16" height="3.41" transform="translate(303.46 266.53)" fill="#e0e0e0"/>
      <rect id="Rectángulo_8663" data-name="Rectángulo 8663" width="2.755" height="52.529" transform="matrix(0.849, -0.529, 0.529, 0.849, 305.115, 221.782)" fill="#e0e0e0"/>
      <rect id="Rectángulo_8664" data-name="Rectángulo 8664" width="2.75" height="52.53" transform="matrix(0.849, -0.529, 0.529, 0.849, 339.147, 224.575)" fill="#e0e0e0"/>
      <rect id="Rectángulo_8665" data-name="Rectángulo 8665" width="49.1" height="15.52" transform="translate(288.56 202.59)" fill="#e0e0e0"/>
      <path id="Trazado_109042" data-name="Trazado 109042" d="M434.36,220.42l-77.39-59.26-27.58,46.06-1.02-.62,28.26-47.2.53.41,77.93,59.66Z" fill="#e0e0e0"/>
      <path id="Trazado_109043" data-name="Trazado 109043" d="M339,223l17.8-65.07,15.09,62.59Zm17.73-60.28-16.14,59,29.8-2.24Z" fill="#e0e0e0"/>
    </g>
    <g id="freepik--Sea--inject-45">
      <path id="Trazado_109044" data-name="Trazado 109044" d="M117.56,426.44l-1.8-.88a13.84,13.84,0,0,0-5.08-1.51,16.821,16.821,0,0,0-3.68.28c-1.33.2-2.69.44-4.21.78a50.428,50.428,0,0,1-9.71,1.56c-3.55.06-6.8-1-9.71-1.65a33.213,33.213,0,0,0-4.19-.78,17.408,17.408,0,0,0-3.68,0,10.57,10.57,0,0,0-5,1.75,17.82,17.82,0,0,0-1.46,1.28,2.272,2.272,0,0,1,.29-.4,6.4,6.4,0,0,1,1.06-1,10.29,10.29,0,0,1,5-2,16.4,16.4,0,0,1,3.77-.07,33.577,33.577,0,0,1,4.24.75c3,.67,6.15,1.67,9.61,1.61a53.474,53.474,0,0,0,9.63-1.52c1.48-.32,2.91-.55,4.24-.75a18.19,18.19,0,0,1,3.76-.23,13.37,13.37,0,0,1,5.15,1.69c.56.31,1,.55,1.27.73a2,2,0,0,1,.5.36Z" fill="#344154"/>
      <path id="Trazado_109045" data-name="Trazado 109045" d="M62.73,400.74a12.685,12.685,0,0,0-1.65-1.16,12.86,12.86,0,0,0-5.2-1.62,25.84,25.84,0,0,0-8.13.6,67.516,67.516,0,0,1-10,1.75c-3.62.19-7-.82-10-1.53a39.458,39.458,0,0,0-4.3-.87,17.16,17.16,0,0,0-3.79-.06,10.79,10.79,0,0,0-5.13,1.76A17.922,17.922,0,0,0,13,401a5.93,5.93,0,0,1,1.4-1.47,10.47,10.47,0,0,1,5.2-1.93,16.7,16.7,0,0,1,3.87,0,35.612,35.612,0,0,1,4.36.81c3,.7,6.27,1.69,9.86,1.48a72.615,72.615,0,0,0,9.91-1.7,25.7,25.7,0,0,1,8.25-.51,12.4,12.4,0,0,1,5.26,1.8,7.7,7.7,0,0,1,1.2.93,2.86,2.86,0,0,1,.42.33Z" fill="#344154"/>
      <path id="Trazado_109046" data-name="Trazado 109046" d="M483.14,433.39a5.09,5.09,0,0,1-.77-.19c-.5-.13-1.22-.36-2.16-.65-1.87-.58-4.54-1.54-7.92-2.46a38.233,38.233,0,0,0-5.6-1.1,28.521,28.521,0,0,0-6.53,0c-4.6.49-9.54,1.87-14.88,2.53a28.74,28.74,0,0,1-7.86,0c-2.51-.33-4.91-.83-7.17-1.29a49.439,49.439,0,0,0-12.16-1.45,20.57,20.57,0,0,0-8,1.81,19.389,19.389,0,0,0-1.94,1.1,5.872,5.872,0,0,1-.67.43,11.4,11.4,0,0,1,2.53-1.69,20.15,20.15,0,0,1,8.07-2,49.378,49.378,0,0,1,12.27,1.36c4.54.93,9.58,2.07,14.9,1.26s10.24-2,14.88-2.51a29.4,29.4,0,0,1,6.63,0,39.052,39.052,0,0,1,5.65,1.16c3.37,1,6,2,7.88,2.63l2.14.73A4,4,0,0,1,483.14,433.39Z" fill="#344154"/>
    </g>
    <g id="freepik--Crane--inject-45">
      <rect id="Rectángulo_8666" data-name="Rectángulo 8666" width="348.24" height="21.33" transform="translate(10.42 330.99)" fill="#344154"/>
      <path id="Trazado_109047" data-name="Trazado 109047" d="M133,331.44H99.47v-44H133Zm-32.64-.9H132.1v-42.2H100.37Z" fill="#344154"/>
      <rect id="Rectángulo_8667" data-name="Rectángulo 8667" width="27.14" height="45.63" transform="translate(132.56 287.89)" fill="#344154"/>
      <rect id="Rectángulo_8668" data-name="Rectángulo 8668" width="3.23" height="167.16" transform="translate(206.9 166.85)" fill="#344154"/>
      <rect id="Rectángulo_8669" data-name="Rectángulo 8669" width="3.23" height="167.16" transform="translate(214.65 166.85)" fill="#344154"/>
      <rect id="Rectángulo_8670" data-name="Rectángulo 8670" width="3.23" height="167.16" transform="translate(244.2 166.85)" fill="#344154"/>
      <rect id="Rectángulo_8671" data-name="Rectángulo 8671" width="3.23" height="167.16" transform="translate(176.58 166.85)" fill="#344154"/>
      <rect id="Rectángulo_8672" data-name="Rectángulo 8672" width="33.53" height="3.32" transform="translate(176.58 166.85)" fill="#344154"/>
      <rect id="Rectángulo_8673" data-name="Rectángulo 8673" width="229.09" height="3.81" transform="translate(57.63 174.84)" fill="#344154"/>
      <rect id="Rectángulo_8674" data-name="Rectángulo 8674" width="69.23" height="3.57" transform="translate(178.2 225.49)" fill="#344154"/>
      <rect id="Rectángulo_8675" data-name="Rectángulo 8675" width="54.87" height="2.88" transform="translate(215.239 225.752) rotate(-58.33)" fill="#344154"/>
      <rect id="Rectángulo_8676" data-name="Rectángulo 8676" width="54.87" height="2.88" transform="translate(178.126 224.397) rotate(-58.33)" fill="#344154"/>
      <rect id="Rectángulo_8677" data-name="Rectángulo 8677" width="51.38" height="16.24" transform="translate(211.64 158.6)" fill="#344154"/>
      <path id="Trazado_109048" data-name="Trazado 109048" d="M110.36,177.1l-.55-.71,81.94-62.73,29.46,49.22-.76.47L191.5,115Z" fill="#344154"/>
      <path id="Trazado_109049" data-name="Trazado 109049" d="M210,179.72l-34-2.56,15.57-64.64Zm-32.88-3.38,31.63,2.38-17.13-62.58Z" fill="#344154"/>
      <path id="Trazado_109050" data-name="Trazado 109050" d="M42.13,240.23l2.74-14.82,16.88-50.72.85.29L45.73,225.63l-2.51,13.68,56.07-.98L77.34,174.98l.85-.29,22.36,64.51Z" fill="#344154"/>
      <rect id="Rectángulo_8678" data-name="Rectángulo 8678" width="21.92" height="26.63" transform="translate(28.18 226.34)" fill="#344154"/>
      <rect id="Rectángulo_8679" data-name="Rectángulo 8679" width="61.3" height="26.63" transform="translate(50.11 226.34)" fill="#344154"/>
      <path id="Trazado_109051" data-name="Trazado 109051" d="M39.6,253c-.13,0-.23-5.92-.23-13.2s.1-13.2.23-13.2.24,5.9.24,13.2S39.73,253,39.6,253Z" fill="#455a64"/>
      <path id="Trazado_109052" data-name="Trazado 109052" d="M50.11,253c-.13,0-.24-5.92-.24-13.2s.11-13.2.24-13.2.23,5.9.23,13.2S50.23,253,50.11,253Z" fill="#455a64"/>
      <path id="Trazado_109053" data-name="Trazado 109053" d="M108,249.93V244.5c0-3.52,0-8.59-.08-14.91l.15.16-55.23.08.23-.23h0v20.36l-.3-.18,39.52.11,11.53.06h.12L92.38,250l-39.68.1h-.23V229.49h0l.24-.24,55.24.08h.16v.15c0,6.31-.06,11.46-.09,15v5a1.4,1.4,0,0,1-.02.45Z" fill="#455a64"/>
      <path id="Trazado_109054" data-name="Trazado 109054" d="M57,249.93c-.14,0-.24-4.56-.24-10.19s.1-10.19.24-10.19.23,4.56.23,10.19S57.11,249.93,57,249.93Z" fill="#455a64"/>
      <path id="Trazado_109055" data-name="Trazado 109055" d="M62.18,249.93c-.14,0-.24-4.56-.24-10.19s.1-10.19.24-10.19.23,4.56.23,10.19S62.3,249.93,62.18,249.93Z" fill="#455a64"/>
      <path id="Trazado_109056" data-name="Trazado 109056" d="M67.37,249.93c-.12,0-.23-4.56-.23-10.19s.11-10.19.23-10.19.24,4.56.24,10.19S67.5,249.93,67.37,249.93Z" fill="#455a64"/>
      <path id="Trazado_109057" data-name="Trazado 109057" d="M72.57,249.93c-.13,0-.24-4.56-.24-10.19s.11-10.19.24-10.19.23,4.56.23,10.19S72.7,249.93,72.57,249.93Z" fill="#455a64"/>
      <path id="Trazado_109058" data-name="Trazado 109058" d="M77.76,249.93c-.13,0-.24-4.56-.24-10.19s.11-10.19.24-10.19.23,4.56.23,10.19S77.93,249.93,77.76,249.93Z" fill="#455a64"/>
      <path id="Trazado_109059" data-name="Trazado 109059" d="M83,249.93c-.13,0-.24-4.56-.24-10.19s.11-10.19.24-10.19.24,4.56.24,10.19S83.09,249.93,83,249.93Z" fill="#455a64"/>
      <path id="Trazado_109060" data-name="Trazado 109060" d="M88.16,249.93c-.14,0-.24-4.56-.24-10.19s.1-10.19.24-10.19.23,4.56.23,10.19S88.28,249.93,88.16,249.93Z" fill="#455a64"/>
      <path id="Trazado_109061" data-name="Trazado 109061" d="M93.35,249.93c-.14,0-.24-4.56-.24-10.19s.1-10.19.24-10.19.23,4.56.23,10.19S93.48,249.93,93.35,249.93Z" fill="#455a64"/>
      <path id="Trazado_109062" data-name="Trazado 109062" d="M98.54,249.93c-.12,0-.23-4.56-.23-10.19s.11-10.19.23-10.19.24,4.56.24,10.19S98.67,249.93,98.54,249.93Z" fill="#455a64"/>
      <path id="Trazado_109063" data-name="Trazado 109063" d="M103.74,249.93c-.13,0-.24-4.56-.24-10.19s.11-10.19.24-10.19.23,4.56.23,10.19S103.87,249.93,103.74,249.93Z" fill="#455a64"/>
    </g>
    <g id="freepik--Container--inject-45">
      <path id="Trazado_109064" data-name="Trazado 109064" d="M416.25,309.02h-9V293.65h6.36Z" fill="#d9a171"/>
      <rect id="Rectángulo_8680" data-name="Rectángulo 8680" width="21.92" height="26.63" transform="translate(204.05 316.65)" fill="#d9a171"/>
      <rect id="Rectángulo_8681" data-name="Rectángulo 8681" width="21.92" height="26.63" transform="translate(204.05 316.65)" fill="#fff" opacity="0.4"/>
      <rect id="Rectángulo_8682" data-name="Rectángulo 8682" width="61.3" height="26.63" transform="translate(225.97 316.65)" fill="#d9a171"/>
      <rect id="Rectángulo_8683" data-name="Rectángulo 8683" width="61.3" height="26.63" transform="translate(225.97 316.65)" fill="#fff" opacity="0.2"/>
      <path id="Trazado_109065" data-name="Trazado 109065" d="M215.46,343.28c-.12,0-.23-5.92-.23-13.2s.11-13.19.23-13.19.24,5.9.24,13.19S215.6,343.28,215.46,343.28Z" fill="#344154"/>
      <path id="Trazado_109066" data-name="Trazado 109066" d="M283.83,340.24a2.294,2.294,0,0,1,0-.37v-5.1c0-3.52-.06-8.59-.09-14.9l.16.16-55.24.08c-.21.2.28-.29.23-.24h0v20.37l-.23-.22,39.52.09,11.53.07h.11l-11.49.06-39.67.11h-.22V319.87h0c-.06.05.45-.45.24-.23l55.24.07h.16v.16c0,6.31-.07,11.45-.09,15v5A3.541,3.541,0,0,1,283.83,340.24Z" fill="#344154"/>
      <path id="Trazado_109067" data-name="Trazado 109067" d="M232.85,340.24c-.13,0-.24-4.56-.24-10.19s.11-10.18.24-10.18.23,4.56.23,10.18S233,340.24,232.85,340.24Z" fill="#344154"/>
      <path id="Trazado_109068" data-name="Trazado 109068" d="M238.05,340.24c-.14,0-.25-4.56-.25-10.19s.11-10.18.25-10.18.23,4.56.23,10.18S238.17,340.24,238.05,340.24Z" fill="#344154"/>
      <path id="Trazado_109069" data-name="Trazado 109069" d="M243.24,340.24c-.13,0-.23-4.56-.23-10.19s.1-10.18.23-10.18.24,4.56.24,10.18S243.37,340.24,243.24,340.24Z" fill="#344154"/>
      <path id="Trazado_109070" data-name="Trazado 109070" d="M248.44,340.24c-.14,0-.24-4.56-.24-10.19s.1-10.18.24-10.18.23,4.56.23,10.18S248.56,340.24,248.44,340.24Z" fill="#344154"/>
      <path id="Trazado_109071" data-name="Trazado 109071" d="M253.63,340.24c-.13,0-.24-4.56-.24-10.19s.11-10.18.24-10.18.23,4.56.23,10.18S253.75,340.24,253.63,340.24Z" fill="#344154"/>
      <path id="Trazado_109072" data-name="Trazado 109072" d="M258.82,340.24c-.12,0-.23-4.56-.23-10.19s.11-10.18.23-10.18.24,4.56.24,10.18S259,340.24,258.82,340.24Z" fill="#344154"/>
      <path id="Trazado_109073" data-name="Trazado 109073" d="M264,340.24c-.13,0-.24-4.56-.24-10.19s.11-10.18.24-10.18.23,4.56.23,10.18S264.15,340.24,264,340.24Z" fill="#344154"/>
      <path id="Trazado_109074" data-name="Trazado 109074" d="M269.22,340.24c-.14,0-.24-4.56-.24-10.19s.1-10.18.24-10.18.23,4.56.23,10.18S269.34,340.24,269.22,340.24Z" fill="#344154"/>
      <path id="Trazado_109075" data-name="Trazado 109075" d="M274.41,340.24c-.13,0-.23-4.56-.23-10.19s.1-10.18.23-10.18.24,4.56.24,10.18S274.54,340.24,274.41,340.24Z" fill="#344154"/>
      <path id="Trazado_109076" data-name="Trazado 109076" d="M279.61,340.24c-.13,0-.24-4.56-.24-10.19s.11-10.18.24-10.18.23,4.56.23,10.18S279.73,340.24,279.61,340.24Z" fill="#344154"/>
      <rect id="Rectángulo_8684" data-name="Rectángulo 8684" width="21.92" height="26.63" transform="translate(276.48 263.55)" fill="#d9a171"/>
      <rect id="Rectángulo_8685" data-name="Rectángulo 8685" width="21.92" height="26.63" transform="translate(276.48 263.55)" fill="#fff" opacity="0.4"/>
      <rect id="Rectángulo_8686" data-name="Rectángulo 8686" width="61.3" height="26.63" transform="translate(298.4 263.55)" fill="#d9a171"/>
      <rect id="Rectángulo_8687" data-name="Rectángulo 8687" width="61.3" height="26.63" transform="translate(298.4 263.55)" fill="#fff" opacity="0.2"/>
      <path id="Trazado_109077" data-name="Trazado 109077" d="M287.89,290.18c-.12,0-.23-5.91-.23-13.2s.11-13.2.23-13.2.24,5.91.24,13.2S288,290.18,287.89,290.18Z" fill="#344154"/>
      <path id="Trazado_109078" data-name="Trazado 109078" d="M356.26,287.14a1.149,1.149,0,0,1,0-.37v-5.1c0-3.52-.06-8.59-.09-14.9l.16.16-55.25.08.24-.24h0v20.36l-.23-.22,39.52.1,11.53.06h.1l-11.47.06-39.68.11h-.22V266.78h0c-.06.05.44-.45.23-.24l55.25.08h.15v.16c0,6.31-.06,11.45-.08,15,0,1.72,0,3.06-.05,4v1A.4.4,0,0,1,356.26,287.14Z" fill="#344154"/>
      <path id="Trazado_109079" data-name="Trazado 109079" d="M305.28,287.14c-.13,0-.24-4.56-.24-10.19s.11-10.18.24-10.18.23,4.56.23,10.18S305.4,287.14,305.28,287.14Z" fill="#344154"/>
      <path id="Trazado_109080" data-name="Trazado 109080" d="M310.47,287.14c-.13,0-.23-4.56-.23-10.19s.1-10.18.23-10.18.23,4.56.23,10.18S310.56,287.14,310.47,287.14Z" fill="#344154"/>
      <path id="Trazado_109081" data-name="Trazado 109081" d="M315.66,287.14c-.12,0-.23-4.56-.23-10.19s.11-10.18.23-10.18.24,4.56.24,10.18S315.8,287.14,315.66,287.14Z" fill="#344154"/>
      <path id="Trazado_109082" data-name="Trazado 109082" d="M320.86,287.14c-.13,0-.24-4.56-.24-10.19s.11-10.18.24-10.18.24,4.56.24,10.18S321,287.14,320.86,287.14Z" fill="#344154"/>
      <path id="Trazado_109083" data-name="Trazado 109083" d="M326.06,287.14c-.14,0-.24-4.56-.24-10.19s.1-10.18.24-10.18.23,4.56.23,10.18S326.19,287.14,326.06,287.14Z" fill="#344154"/>
      <path id="Trazado_109084" data-name="Trazado 109084" d="M331.3,287.14c-.14,0-.24-4.56-.24-10.19s.1-10.18.24-10.18.23,4.56.23,10.18S331.38,287.14,331.3,287.14Z" fill="#344154"/>
      <path id="Trazado_109085" data-name="Trazado 109085" d="M336.45,287.14c-.13,0-.24-4.56-.24-10.19s.11-10.18.24-10.18.23,4.56.23,10.18S336.57,287.14,336.45,287.14Z" fill="#344154"/>
      <path id="Trazado_109086" data-name="Trazado 109086" d="M341.64,287.14c-.13,0-.23-4.56-.23-10.19s.1-10.18.23-10.18.23,4.56.23,10.18S341.78,287.14,341.64,287.14Z" fill="#344154"/>
      <path id="Trazado_109087" data-name="Trazado 109087" d="M346.83,287.14c-.12,0-.23-4.56-.23-10.19s.11-10.18.23-10.18.24,4.56.24,10.18S347,287.14,346.83,287.14Z" fill="#344154"/>
      <path id="Trazado_109088" data-name="Trazado 109088" d="M352,287.14c-.14,0-.25-4.56-.25-10.19s.11-10.18.25-10.18.23,4.56.23,10.18A100.214,100.214,0,0,1,352,287.14Z" fill="#344154"/>
      <rect id="Rectángulo_8688" data-name="Rectángulo 8688" width="21.92" height="26.63" transform="translate(87.77 330.12)" fill="#d9a171"/>
      <rect id="Rectángulo_8689" data-name="Rectángulo 8689" width="21.92" height="26.63" transform="translate(87.77 330.12)" fill="#fff" opacity="0.4"/>
      <rect id="Rectángulo_8690" data-name="Rectángulo 8690" width="61.3" height="26.63" transform="translate(109.69 330.12)" fill="#d9a171"/>
      <rect id="Rectángulo_8691" data-name="Rectángulo 8691" width="61.3" height="26.63" transform="translate(109.69 330.12)" fill="#fff" opacity="0.2"/>
      <path id="Trazado_109089" data-name="Trazado 109089" d="M99.18,356.75c-.12,0-.23-5.91-.23-13.2s.11-13.19.23-13.19.24,5.9.24,13.19S99.31,356.75,99.18,356.75Z" fill="#344154"/>
      <path id="Trazado_109090" data-name="Trazado 109090" d="M167.55,353.71a1.15,1.15,0,0,1,0-.37v-5.1c0-3.52-.06-8.59-.09-14.9l.16.16-55.25.08.24-.24h0v20.37l-.23-.22,39.52.1,11.54.07h.09l-11.47.06-39.68.11h-.22V333.34h0c-.06,0,.44-.45.23-.23l55.25.07h.15v.16c0,6.31-.06,11.45-.08,15,0,1.72,0,3.06-.05,4v1A.44.44,0,0,1,167.55,353.71Z" fill="#344154"/>
      <path id="Trazado_109091" data-name="Trazado 109091" d="M116.57,353.71c-.14,0-.24-4.56-.24-10.19s.1-10.18.24-10.18.23,4.51.23,10.18S116.7,353.71,116.57,353.71Z" fill="#344154"/>
      <path id="Trazado_109092" data-name="Trazado 109092" d="M121.76,353.71c-.13,0-.23-4.56-.23-10.19s.1-10.18.23-10.18.23,4.51.23,10.18S121.89,353.71,121.76,353.71Z" fill="#344154"/>
      <path id="Trazado_109093" data-name="Trazado 109093" d="M127,353.71c-.12,0-.23-4.56-.23-10.19s.11-10.18.23-10.18.24,4.51.24,10.18S127.09,353.71,127,353.71Z" fill="#344154"/>
      <path id="Trazado_109094" data-name="Trazado 109094" d="M132.15,353.71c-.13,0-.24-4.56-.24-10.19s.11-10.18.24-10.18.23,4.51.23,10.18S132.28,353.71,132.15,353.71Z" fill="#344154"/>
      <path id="Trazado_109095" data-name="Trazado 109095" d="M137.35,353.71c-.13,0-.23-4.56-.23-10.19s.1-10.18.23-10.18.23,4.51.23,10.18S137.44,353.71,137.35,353.71Z" fill="#344154"/>
      <path id="Trazado_109096" data-name="Trazado 109096" d="M142.54,353.71c-.13,0-.23-4.56-.23-10.19s.1-10.18.23-10.18.24,4.51.24,10.18S142.67,353.71,142.54,353.71Z" fill="#344154"/>
      <path id="Trazado_109097" data-name="Trazado 109097" d="M147.74,353.71c-.13,0-.24-4.56-.24-10.19s.11-10.18.24-10.18.23,4.51.23,10.18S147.86,353.71,147.74,353.71Z" fill="#344154"/>
      <path id="Trazado_109098" data-name="Trazado 109098" d="M152.93,353.71c-.13,0-.23-4.56-.23-10.19s.1-10.18.23-10.18.24,4.51.24,10.18S153.06,353.71,152.93,353.71Z" fill="#344154"/>
      <path id="Trazado_109099" data-name="Trazado 109099" d="M158.12,353.71c-.12,0-.23-4.56-.23-10.19s.11-10.18.23-10.18.24,4.51.24,10.18S158.26,353.71,158.12,353.71Z" fill="#344154"/>
      <path id="Trazado_109100" data-name="Trazado 109100" d="M163.32,353.71c-.13,0-.24-4.56-.24-10.19s.11-10.18.24-10.18.23,4.51.23,10.18S163.45,353.71,163.32,353.71Z" fill="#344154"/>
      <rect id="Rectángulo_8692" data-name="Rectángulo 8692" width="21.92" height="26.63" transform="translate(229.09 290.32)" fill="#344154"/>
      <rect id="Rectángulo_8693" data-name="Rectángulo 8693" width="61.3" height="26.63" transform="translate(251.02 290.32)" fill="#344154"/>
      <path id="Trazado_109101" data-name="Trazado 109101" d="M240.51,316.94c-.13,0-.23-5.9-.23-13.19s.1-13.2.23-13.2.23,5.91.23,13.2S240.64,316.94,240.51,316.94Z" fill="#455a64"/>
      <path id="Trazado_109102" data-name="Trazado 109102" d="M251.05,316.94c-.14,0-.23-5.9-.23-13.19s.09-13.2.23-13.2.23,5.91.23,13.2S251.15,316.94,251.05,316.94Z" fill="#455a64"/>
      <path id="Trazado_109103" data-name="Trazado 109103" d="M308.87,313.9v-5.47c0-3.52-.05-8.58-.09-14.9l.17.17-55.24.07c-.22.21.28-.29.23-.24h0v20.36l-.23-.23,39.52.11,11.53.06h0l-11.48.06-39.67.1h-.23V293.55h0l.24-.23,55.24.07h.16v.16c0,6.36-.07,11.46-.09,15v5a1.6,1.6,0,0,1-.06.35Z" fill="#455a64"/>
      <path id="Trazado_109104" data-name="Trazado 109104" d="M257.89,313.9c-.12,0-.23-4.56-.23-10.18s.11-10.19.23-10.19.24,4.57.24,10.19S258,313.9,257.89,313.9Z" fill="#455a64"/>
      <path id="Trazado_109105" data-name="Trazado 109105" d="M263.09,313.9c-.13,0-.24-4.56-.24-10.18s.11-10.19.24-10.19.23,4.57.23,10.19S263.22,313.9,263.09,313.9Z" fill="#455a64"/>
      <path id="Trazado_109106" data-name="Trazado 109106" d="M268.29,313.9c-.14,0-.23-4.56-.23-10.18s.09-10.19.23-10.19.23,4.57.23,10.19S268.42,313.9,268.29,313.9Z" fill="#455a64"/>
      <path id="Trazado_109107" data-name="Trazado 109107" d="M273.48,313.9c-.13,0-.23-4.56-.23-10.18s.1-10.19.23-10.19.24,4.57.24,10.19S273.59,313.9,273.48,313.9Z" fill="#455a64"/>
      <path id="Trazado_109108" data-name="Trazado 109108" d="M278.68,313.9c-.13,0-.24-4.56-.24-10.18s.11-10.19.24-10.19.23,4.57.23,10.19S278.8,313.9,278.68,313.9Z" fill="#455a64"/>
      <path id="Trazado_109109" data-name="Trazado 109109" d="M283.87,313.9c-.13,0-.23-4.56-.23-10.18s.1-10.19.23-10.19.23,4.57.23,10.19S284,313.9,283.87,313.9Z" fill="#455a64"/>
      <path id="Trazado_109110" data-name="Trazado 109110" d="M289.06,313.9c-.12,0-.23-4.56-.23-10.18s.11-10.19.23-10.19.24,4.57.24,10.19S289.2,313.9,289.06,313.9Z" fill="#455a64"/>
      <path id="Trazado_109111" data-name="Trazado 109111" d="M294.26,313.9c-.13,0-.24-4.56-.24-10.18s.11-10.19.24-10.19.24,4.57.24,10.19S294.39,313.9,294.26,313.9Z" fill="#455a64"/>
      <path id="Trazado_109112" data-name="Trazado 109112" d="M299.46,313.9c-.14,0-.23-4.56-.23-10.18s.09-10.19.23-10.19.23,4.57.23,10.19S299.59,313.9,299.46,313.9Z" fill="#455a64"/>
      <path id="Trazado_109113" data-name="Trazado 109113" d="M304.65,313.9c-.13,0-.23-4.56-.23-10.18s.1-10.19.23-10.19.24,4.57.24,10.19S304.78,313.9,304.65,313.9Z" fill="#455a64"/>
      <rect id="Rectángulo_8694" data-name="Rectángulo 8694" width="21.92" height="26.63" transform="translate(176.07 344.14)" fill="#d9a171"/>
      <rect id="Rectángulo_8695" data-name="Rectángulo 8695" width="61.3" height="26.63" transform="translate(198 344.14)" fill="#d9a171"/>
      <rect id="Rectángulo_8696" data-name="Rectángulo 8696" width="61.3" height="26.63" transform="translate(198 344.14)" opacity="0.4"/>
      <path id="Trazado_109114" data-name="Trazado 109114" d="M187.49,370.76c-.13,0-.23-5.9-.23-13.2s.1-13.19.23-13.19.24,5.91.24,13.19S187.62,370.76,187.49,370.76Z" fill="#344154"/>
      <path id="Trazado_109115" data-name="Trazado 109115" d="M255.85,367.72v-5.47c0-3.52,0-8.58-.08-14.9l.15.16-55.23.08.23-.24h0v20.37l-.22-.22,39.52.11,11.52.06h0l-11.48.06-39.68.11h-.23v-20.6h0l.24-.24,55.24.08H256v.16c0,6.31-.06,11.45-.09,15v5a1.41,1.41,0,0,1-.06.48Z" fill="#344154"/>
      <path id="Trazado_109116" data-name="Trazado 109116" d="M204.88,367.72c-.14,0-.24-4.56-.24-10.19s.1-10.18.24-10.18.23,4.56.23,10.18S205,367.72,204.88,367.72Z" fill="#344154"/>
      <path id="Trazado_109117" data-name="Trazado 109117" d="M210.07,367.72c-.14,0-.24-4.56-.24-10.19s.1-10.18.24-10.18.23,4.56.23,10.18S210.2,367.72,210.07,367.72Z" fill="#344154"/>
      <path id="Trazado_109118" data-name="Trazado 109118" d="M215.26,367.72c-.12,0-.23-4.56-.23-10.19s.11-10.18.23-10.18.24,4.56.24,10.18S215.39,367.72,215.26,367.72Z" fill="#344154"/>
      <path id="Trazado_109119" data-name="Trazado 109119" d="M220.46,367.72c-.13,0-.24-4.56-.24-10.19s.11-10.18.24-10.18.23,4.56.23,10.18S220.59,367.72,220.46,367.72Z" fill="#344154"/>
      <path id="Trazado_109120" data-name="Trazado 109120" d="M225.65,367.72c-.13,0-.23-4.56-.23-10.19s.1-10.18.23-10.18.23,4.56.23,10.18S225.8,367.72,225.65,367.72Z" fill="#344154"/>
      <path id="Trazado_109121" data-name="Trazado 109121" d="M230.84,367.72c-.12,0-.23-4.56-.23-10.19s.11-10.18.23-10.18.25,4.56.25,10.18A96.53,96.53,0,0,1,230.84,367.72Z" fill="#344154"/>
      <path id="Trazado_109122" data-name="Trazado 109122" d="M236.05,367.72c-.14,0-.24-4.56-.24-10.19s.1-10.18.24-10.18.23,4.56.23,10.18S236.17,367.72,236.05,367.72Z" fill="#344154"/>
      <path id="Trazado_109123" data-name="Trazado 109123" d="M241.24,367.72c-.14,0-.23-4.56-.23-10.19s.09-10.18.23-10.18.23,4.56.23,10.18S241.37,367.72,241.24,367.72Z" fill="#344154"/>
      <path id="Trazado_109124" data-name="Trazado 109124" d="M246.43,367.72c-.12,0-.23-4.56-.23-10.19s.11-10.18.23-10.18.24,4.56.24,10.18S246.54,367.72,246.43,367.72Z" fill="#344154"/>
      <path id="Trazado_109125" data-name="Trazado 109125" d="M251.63,367.72c-.13,0-.24-4.56-.24-10.19s.11-10.18.24-10.18.23,4.56.23,10.18S251.76,367.72,251.63,367.72Z" fill="#344154"/>
      <rect id="Rectángulo_8697" data-name="Rectángulo 8697" width="21.92" height="26.63" transform="translate(246.13 343.27)" fill="#344154"/>
      <rect id="Rectángulo_8698" data-name="Rectángulo 8698" width="61.3" height="26.63" transform="translate(268.05 343.27)" fill="#344154"/>
      <path id="Trazado_109126" data-name="Trazado 109126" d="M257.54,369.9c-.13,0-.23-5.92-.23-13.2s.1-13.2.23-13.2.24,5.9.24,13.2S257.67,369.9,257.54,369.9Z" fill="#455a64"/>
      <path id="Trazado_109127" data-name="Trazado 109127" d="M268.05,369.9c-.13,0-.24-5.92-.24-13.2s.11-13.2.24-13.2.23,5.9.23,13.2S268.18,369.9,268.05,369.9Z" fill="#455a64"/>
      <path id="Trazado_109128" data-name="Trazado 109128" d="M325.89,366.86v-1.44c0-.94,0-2.3-.05-4,0-3.51,0-8.58-.08-14.9l.16.16-55.24.08.23-.23h0v20.36l-.22-.23,39.52.1,11.52.07h.11l-11.48.06-39.67.11h-.23V346.5h0s.44-.45.24-.25l55.23.09h.17v.15c0,6.31-.07,11.46-.09,15v5A2,2,0,0,1,325.89,366.86Z" fill="#455a64"/>
      <path id="Trazado_109129" data-name="Trazado 109129" d="M274.93,366.86c-.14,0-.24-4.56-.24-10.19s.1-10.19.24-10.19.23,4.56.23,10.19S275.05,366.86,274.93,366.86Z" fill="#455a64"/>
      <path id="Trazado_109130" data-name="Trazado 109130" d="M280.12,366.86c-.14,0-.23-4.56-.23-10.19s.09-10.19.23-10.19.23,4.56.23,10.19S280.25,366.86,280.12,366.86Z" fill="#455a64"/>
      <path id="Trazado_109131" data-name="Trazado 109131" d="M285.31,366.86c-.12,0-.23-4.56-.23-10.19s.11-10.19.23-10.19.24,4.56.24,10.19S285.44,366.86,285.31,366.86Z" fill="#455a64"/>
      <path id="Trazado_109132" data-name="Trazado 109132" d="M290.51,366.86c-.13,0-.24-4.56-.24-10.19s.11-10.19.24-10.19.23,4.56.23,10.19S290.64,366.86,290.51,366.86Z" fill="#455a64"/>
      <path id="Trazado_109133" data-name="Trazado 109133" d="M295.7,366.86c-.13,0-.23-4.56-.23-10.19s.1-10.19.23-10.19.23,4.56.23,10.19S295.84,366.86,295.7,366.86Z" fill="#455a64"/>
      <path id="Trazado_109134" data-name="Trazado 109134" d="M300.9,366.86c-.13,0-.23-4.56-.23-10.19s.1-10.19.23-10.19.24,4.56.24,10.19S301,366.86,300.9,366.86Z" fill="#455a64"/>
      <path id="Trazado_109135" data-name="Trazado 109135" d="M306.1,366.86c-.14,0-.24-4.56-.24-10.19s.1-10.19.24-10.19.23,4.56.23,10.19S306.22,366.86,306.1,366.86Z" fill="#455a64"/>
      <path id="Trazado_109136" data-name="Trazado 109136" d="M311.29,366.86c-.13,0-.23-4.56-.23-10.19s.1-10.19.23-10.19.23,4.56.23,10.19S311.46,366.86,311.29,366.86Z" fill="#455a64"/>
      <path id="Trazado_109137" data-name="Trazado 109137" d="M316.48,366.86c-.12,0-.23-4.56-.23-10.19s.11-10.19.23-10.19.24,4.56.24,10.19S316.61,366.86,316.48,366.86Z" fill="#455a64"/>
      <path id="Trazado_109138" data-name="Trazado 109138" d="M321.68,366.86c-.13,0-.24-4.56-.24-10.19s.11-10.19.24-10.19.23,4.56.23,10.19S321.81,366.86,321.68,366.86Z" fill="#455a64"/>
      <rect id="Rectángulo_8699" data-name="Rectángulo 8699" width="21.92" height="26.63" transform="translate(263.36 290.43)" fill="#455a64"/>
      <rect id="Rectángulo_8700" data-name="Rectángulo 8700" width="61.3" height="26.63" transform="translate(285.28 290.43)" fill="#455a64"/>
      <path id="Trazado_109139" data-name="Trazado 109139" d="M274.77,317.06c-.12,0-.23-5.92-.23-13.2s.11-13.2.23-13.2.24,5.91.24,13.2S274.91,317.06,274.77,317.06Z" fill="#344154"/>
      <path id="Trazado_109140" data-name="Trazado 109140" d="M285.31,317.06c-.12,0-.23-5.92-.23-13.2s.11-13.2.23-13.2.24,5.91.24,13.2S285.41,317.06,285.31,317.06Z" fill="#344154"/>
      <path id="Trazado_109141" data-name="Trazado 109141" d="M343.14,314a2.294,2.294,0,0,1,0-.37v-5.1c0-3.52-.06-8.59-.09-14.9l.16.16-55.25.08.24-.24h0V314l-.23-.23,39.52.1L339,314h.09l-11.47.06-39.68.11h-.22V293.65h0l.23-.23,55.25.07h.16v.16c-.05,6.31-.07,11.45-.09,15v5a.38.38,0,0,1-.13.35Z" fill="#344154"/>
      <path id="Trazado_109142" data-name="Trazado 109142" d="M292.16,314c-.13,0-.24-4.56-.24-10.19s.11-10.18.24-10.18.23,4.56.23,10.18S292.28,314,292.16,314Z" fill="#344154"/>
      <path id="Trazado_109143" data-name="Trazado 109143" d="M297.35,314c-.13,0-.23-4.56-.23-10.19s.1-10.18.23-10.18.23,4.56.23,10.18S297.49,314,297.35,314Z" fill="#344154"/>
      <path id="Trazado_109144" data-name="Trazado 109144" d="M302.54,314c-.12,0-.23-4.56-.23-10.19s.11-10.18.23-10.18.24,4.56.24,10.18S302.68,314,302.54,314Z" fill="#344154"/>
      <path id="Trazado_109145" data-name="Trazado 109145" d="M307.75,314c-.14,0-.24-4.56-.24-10.19s.1-10.18.24-10.18.23,4.56.23,10.18S307.85,314,307.75,314Z" fill="#344154"/>
      <path id="Trazado_109146" data-name="Trazado 109146" d="M312.94,314c-.14,0-.23-4.56-.23-10.19s.09-10.18.23-10.18.23,4.56.23,10.18S313.07,314,312.94,314Z" fill="#344154"/>
      <path id="Trazado_109147" data-name="Trazado 109147" d="M318.13,314c-.12,0-.23-4.56-.23-10.19s.11-10.18.23-10.18.24,4.56.24,10.18S318.26,314,318.13,314Z" fill="#344154"/>
      <path id="Trazado_109148" data-name="Trazado 109148" d="M323.33,314c-.13,0-.24-4.56-.24-10.19s.11-10.18.24-10.18.23,4.56.23,10.18S323.46,314,323.33,314Z" fill="#344154"/>
      <path id="Trazado_109149" data-name="Trazado 109149" d="M328.52,314c-.13,0-.23-4.56-.23-10.19s.1-10.18.23-10.18.24,4.56.24,10.18S328.66,314,328.52,314Z" fill="#344154"/>
      <path id="Trazado_109150" data-name="Trazado 109150" d="M333.72,314c-.13,0-.24-4.56-.24-10.19s.11-10.18.24-10.18.24,4.56.24,10.18S333.85,314,333.72,314Z" fill="#344154"/>
      <path id="Trazado_109151" data-name="Trazado 109151" d="M338.92,314c-.14,0-.24-4.56-.24-10.19s.1-10.18.24-10.18.23,4.56.23,10.18S339,314,338.92,314Z" fill="#344154"/>
      <rect id="Rectángulo_8701" data-name="Rectángulo 8701" width="21.92" height="26.63" transform="translate(230.55 316.65)" fill="#d9a171"/>
      <rect id="Rectángulo_8702" data-name="Rectángulo 8702" width="61.3" height="26.63" transform="translate(252.47 316.65)" fill="#d9a171"/>
      <rect id="Rectángulo_8703" data-name="Rectángulo 8703" width="61.3" height="26.63" transform="translate(252.47 316.65)" opacity="0.4"/>
      <path id="Trazado_109152" data-name="Trazado 109152" d="M242,343.28c-.13,0-.23-5.92-.23-13.2s.1-13.19.23-13.19.24,5.9.24,13.19S242.1,343.28,242,343.28Z" fill="#344154"/>
      <path id="Trazado_109153" data-name="Trazado 109153" d="M310.33,340.24v-5.47c0-3.52-.06-8.59-.09-14.9l.16.16-55.24.08c-.21.2.28-.29.23-.24h0v20.37l-.23-.22,39.52.09,11.53.07h.11l-11.49.06-39.67.11h-.22V319.87h0c0,.05.45-.45.24-.23l55.24.07h.16v.16c0,6.31-.07,11.45-.09,15v5a3.55,3.55,0,0,1-.16.37Z" fill="#344154"/>
      <path id="Trazado_109154" data-name="Trazado 109154" d="M259.35,340.24c-.13,0-.24-4.56-.24-10.19s.11-10.18.24-10.18.23,4.56.23,10.18S259.48,340.24,259.35,340.24Z" fill="#344154"/>
      <path id="Trazado_109155" data-name="Trazado 109155" d="M264.57,340.24c-.13,0-.23-4.56-.23-10.19s.1-10.18.23-10.18.24,4.56.24,10.18S264.67,340.24,264.57,340.24Z" fill="#344154"/>
      <path id="Trazado_109156" data-name="Trazado 109156" d="M269.74,340.24c-.13,0-.23-4.56-.23-10.19s.1-10.18.23-10.18.24,4.56.24,10.18S269.87,340.24,269.74,340.24Z" fill="#344154"/>
      <path id="Trazado_109157" data-name="Trazado 109157" d="M274.94,340.24c-.13,0-.24-4.56-.24-10.19s.11-10.18.24-10.18.23,4.56.23,10.18S275.06,340.24,274.94,340.24Z" fill="#344154"/>
      <path id="Trazado_109158" data-name="Trazado 109158" d="M280.13,340.24c-.13,0-.24-4.56-.24-10.19s.11-10.18.24-10.18.23,4.56.23,10.18S280.25,340.24,280.13,340.24Z" fill="#344154"/>
      <path id="Trazado_109159" data-name="Trazado 109159" d="M285.31,340.24c-.12,0-.23-4.56-.23-10.19s.11-10.18.23-10.18.24,4.56.24,10.18a101.666,101.666,0,0,1-.24,10.19Z" fill="#344154"/>
      <path id="Trazado_109160" data-name="Trazado 109160" d="M290.52,340.24c-.13,0-.24-4.56-.24-10.19s.11-10.18.24-10.18.24,4.56.24,10.18S290.65,340.24,290.52,340.24Z" fill="#344154"/>
      <path id="Trazado_109161" data-name="Trazado 109161" d="M295.72,340.24c-.14,0-.24-4.56-.24-10.19s.1-10.18.24-10.18.23,4.56.23,10.18S295.84,340.24,295.72,340.24Z" fill="#344154"/>
      <path id="Trazado_109162" data-name="Trazado 109162" d="M300.91,340.24c-.13,0-.23-4.56-.23-10.19s.1-10.18.23-10.18.24,4.56.24,10.18S301,340.24,300.91,340.24Z" fill="#344154"/>
      <path id="Trazado_109163" data-name="Trazado 109163" d="M306.11,340.24c-.13,0-.24-4.56-.24-10.19s.11-10.18.24-10.18.23,4.56.23,10.18S306.23,340.24,306.11,340.24Z" fill="#344154"/>
      <rect id="Rectángulo_8704" data-name="Rectángulo 8704" width="21.92" height="26.63" transform="translate(292.16 316.54)" fill="#84aacc"/>
      <rect id="Rectángulo_8705" data-name="Rectángulo 8705" width="61.3" height="26.63" transform="translate(314.08 316.54)" fill="#6595bf"/>
      <path id="Trazado_109164" data-name="Trazado 109164" d="M303.57,343.16c-.12,0-.23-5.9-.23-13.19s.11-13.2.23-13.2.24,5.91.24,13.2S303.7,343.16,303.57,343.16Z" fill="#344154"/>
      <path id="Trazado_109165" data-name="Trazado 109165" d="M314.08,343.16c-.13,0-.24-5.9-.24-13.19s.11-13.2.24-13.2.23,5.91.23,13.2S314.21,343.16,314.08,343.16Z" fill="#344154"/>
      <path id="Trazado_109166" data-name="Trazado 109166" d="M371.94,340.12a1.149,1.149,0,0,1,0-.37v-5.09c0-3.53-.06-8.59-.09-14.91l.16.17-55.25.07.24-.24h0v20.36l-.23-.22,39.52.11,11.53.06h.1l-11.47.06-39.68.1h-.22V319.77h0l.23-.23,55.25.07h.15v.16c0,6.36-.06,11.46-.08,15v5C372.1,340.06,371.94,340.13,371.94,340.12Z" fill="#344154"/>
      <path id="Trazado_109167" data-name="Trazado 109167" d="M321,340.12c-.13,0-.24-4.56-.24-10.18s.11-10.19.24-10.19.23,4.57.23,10.19S321.08,340.12,321,340.12Z" fill="#344154"/>
      <path id="Trazado_109168" data-name="Trazado 109168" d="M326.15,340.12c-.13,0-.23-4.56-.23-10.18s.1-10.19.23-10.19.23,4.57.23,10.19S326.28,340.12,326.15,340.12Z" fill="#344154"/>
      <path id="Trazado_109169" data-name="Trazado 109169" d="M331.34,340.12c-.12,0-.23-4.56-.23-10.18s.11-10.19.23-10.19.24,4.57.24,10.19S331.48,340.12,331.34,340.12Z" fill="#344154"/>
      <path id="Trazado_109170" data-name="Trazado 109170" d="M336.54,340.12c-.13,0-.24-4.56-.24-10.18s.11-10.19.24-10.19.23,4.57.23,10.19S336.71,340.12,336.54,340.12Z" fill="#344154"/>
      <path id="Trazado_109171" data-name="Trazado 109171" d="M341.74,340.12c-.14,0-.24-4.56-.24-10.18s.1-10.19.24-10.19.23,4.57.23,10.19S341.87,340.12,341.74,340.12Z" fill="#344154"/>
      <path id="Trazado_109172" data-name="Trazado 109172" d="M346.93,340.12c-.13,0-.23-4.56-.23-10.18s.1-10.19.23-10.19.24,4.57.24,10.19S347.06,340.12,346.93,340.12Z" fill="#344154"/>
      <path id="Trazado_109173" data-name="Trazado 109173" d="M352.13,340.12c-.13,0-.24-4.56-.24-10.18s.11-10.19.24-10.19.23,4.57.23,10.19S352.25,340.12,352.13,340.12Z" fill="#344154"/>
      <path id="Trazado_109174" data-name="Trazado 109174" d="M357.32,340.12c-.13,0-.23-4.56-.23-10.18s.1-10.19.23-10.19.23,4.57.23,10.19S357.45,340.12,357.32,340.12Z" fill="#344154"/>
      <path id="Trazado_109175" data-name="Trazado 109175" d="M362.51,340.12c-.12,0-.23-4.56-.23-10.18s.11-10.19.23-10.19.24,4.57.24,10.19S362.65,340.12,362.51,340.12Z" fill="#344154"/>
      <path id="Trazado_109176" data-name="Trazado 109176" d="M367.71,340.12c-.13,0-.24-4.56-.24-10.18s.11-10.19.24-10.19.24,4.57.24,10.19S367.84,340.12,367.71,340.12Z" fill="#344154"/>
      <rect id="Rectángulo_8706" data-name="Rectángulo 8706" width="21.92" height="26.63" transform="translate(98.72 276.26)" fill="#84aacc"/>
      <rect id="Rectángulo_8707" data-name="Rectángulo 8707" width="61.3" height="26.63" transform="translate(120.65 276.26)" fill="#6595bf"/>
      <path id="Trazado_109177" data-name="Trazado 109177" d="M110.15,302.88c-.14,0-.24-5.91-.24-13.2s.1-13.2.24-13.2.23,5.91.23,13.2S110.27,302.88,110.15,302.88Z" fill="#344154"/>
      <path id="Trazado_109178" data-name="Trazado 109178" d="M120.65,302.88c-.12,0-.23-5.91-.23-13.2s.11-13.2.23-13.2.24,5.91.24,13.2S120.78,302.88,120.65,302.88Z" fill="#344154"/>
      <path id="Trazado_109179" data-name="Trazado 109179" d="M178.5,299.84v-5.47c0-3.51,0-8.59-.08-14.9l.15.16-55.23.07.23-.23h0v20.35l-.22-.23,39.52.11,11.52.07h.11l-11.48.06-39.67.1H123V279.5h0c0,.05.45-.45.25-.24l55.23.08h.17v.16c0,6.31-.07,11.46-.09,15v5a1.08,1.08,0,0,1-.06.34Z" fill="#344154"/>
      <path id="Trazado_109180" data-name="Trazado 109180" d="M127.52,299.84c-.13,0-.23-4.56-.23-10.18s.1-10.19.23-10.19.24,4.56.24,10.19S127.66,299.84,127.52,299.84Z" fill="#344154"/>
      <path id="Trazado_109181" data-name="Trazado 109181" d="M132.72,299.84c-.13,0-.23-4.56-.23-10.18s.1-10.19.23-10.19.24,4.56.24,10.19S132.85,299.84,132.72,299.84Z" fill="#344154"/>
      <path id="Trazado_109182" data-name="Trazado 109182" d="M137.92,299.84c-.13,0-.24-4.56-.24-10.18s.11-10.19.24-10.19.23,4.56.23,10.19S138,299.84,137.92,299.84Z" fill="#344154"/>
      <path id="Trazado_109183" data-name="Trazado 109183" d="M143.11,299.84c-.12,0-.23-4.56-.23-10.18s.11-10.19.23-10.19.24,4.56.24,10.19S143.25,299.84,143.11,299.84Z" fill="#344154"/>
      <path id="Trazado_109184" data-name="Trazado 109184" d="M148.31,299.84c-.13,0-.24-4.56-.24-10.18s.11-10.19.24-10.19.23,4.56.23,10.19S148.44,299.84,148.31,299.84Z" fill="#344154"/>
      <path id="Trazado_109185" data-name="Trazado 109185" d="M153.51,299.84c-.14,0-.25-4.56-.25-10.18s.11-10.19.25-10.19.23,4.56.23,10.19a99.945,99.945,0,0,1-.23,10.18Z" fill="#344154"/>
      <path id="Trazado_109186" data-name="Trazado 109186" d="M158.7,299.84c-.13,0-.23-4.56-.23-10.18s.1-10.19.23-10.19.24,4.56.24,10.19S158.83,299.84,158.7,299.84Z" fill="#344154"/>
      <path id="Trazado_109187" data-name="Trazado 109187" d="M163.9,299.84c-.14,0-.24-4.56-.24-10.18s.1-10.19.24-10.19.23,4.56.23,10.19S164,299.84,163.9,299.84Z" fill="#344154"/>
      <path id="Trazado_109188" data-name="Trazado 109188" d="M169.09,299.84c-.13,0-.24-4.56-.24-10.18s.11-10.19.24-10.19.23,4.56.23,10.19S169.22,299.84,169.09,299.84Z" fill="#344154"/>
      <path id="Trazado_109189" data-name="Trazado 109189" d="M174.28,299.84c-.12,0-.23-4.56-.23-10.18s.11-10.19.23-10.19.24,4.56.24,10.19S174.41,299.84,174.28,299.84Z" fill="#344154"/>
      <rect id="Rectángulo_8708" data-name="Rectángulo 8708" width="21.92" height="26.63" transform="translate(293.55 289.58)" fill="#344154"/>
      <rect id="Rectángulo_8709" data-name="Rectángulo 8709" width="61.3" height="26.63" transform="translate(315.47 289.58)" fill="#344154"/>
      <path id="Trazado_109190" data-name="Trazado 109190" d="M305,316.19c-.14,0-.24-5.9-.24-13.19s.1-13.2.24-13.2.23,5.91.23,13.2S305.1,316.19,305,316.19Z" fill="#455a64"/>
      <path id="Trazado_109191" data-name="Trazado 109191" d="M315.47,316.19c-.12,0-.23-5.9-.23-13.19s.11-13.2.23-13.2.24,5.91.24,13.2S315.6,316.19,315.47,316.19Z" fill="#455a64"/>
      <path id="Trazado_109192" data-name="Trazado 109192" d="M373.32,313.15v-5.42c0-3.52,0-8.59-.08-14.9l.15.16-55.23.07c-.21.22.28-.28.23-.22h0v20.35l-.23-.22,39.52.11,11.54.06h4.18a.53.53,0,0,1-.25,0h-3.83l-11.48.06-39.68.11h-.22V292.8h0l.23-.24,55.24.08h.16v.16c0,6.35-.06,11.46-.08,15v5A1.171,1.171,0,0,1,373.32,313.15Z" fill="#455a64"/>
      <path id="Trazado_109193" data-name="Trazado 109193" d="M322.35,313.15c-.13,0-.23-4.55-.23-10.18s.1-10.18.23-10.18.24,4.56.24,10.18S322.48,313.15,322.35,313.15Z" fill="#455a64"/>
      <path id="Trazado_109194" data-name="Trazado 109194" d="M327.55,313.15c-.13,0-.24-4.55-.24-10.18s.11-10.18.24-10.18.23,4.56.23,10.18S327.69,313.15,327.55,313.15Z" fill="#455a64"/>
      <path id="Trazado_109195" data-name="Trazado 109195" d="M332.74,313.15c-.13,0-.23-4.55-.23-10.18s.1-10.18.23-10.18.24,4.56.24,10.18S332.87,313.15,332.74,313.15Z" fill="#455a64"/>
      <path id="Trazado_109196" data-name="Trazado 109196" d="M337.93,313.15c-.12,0-.23-4.55-.23-10.18s.11-10.18.23-10.18.24,4.56.24,10.18S338.07,313.15,337.93,313.15Z" fill="#455a64"/>
      <path id="Trazado_109197" data-name="Trazado 109197" d="M343.13,313.15c-.13,0-.24-4.55-.24-10.18s.11-10.18.24-10.18.23,4.56.23,10.18S343.26,313.15,343.13,313.15Z" fill="#455a64"/>
      <path id="Trazado_109198" data-name="Trazado 109198" d="M348.33,313.15c-.13,0-.23-4.55-.23-10.18s.1-10.18.23-10.18.23,4.56.23,10.18S348.43,313.15,348.33,313.15Z" fill="#455a64"/>
      <path id="Trazado_109199" data-name="Trazado 109199" d="M353.52,313.15c-.13,0-.23-4.55-.23-10.18s.1-10.18.23-10.18.24,4.56.24,10.18S353.65,313.15,353.52,313.15Z" fill="#455a64"/>
      <path id="Trazado_109200" data-name="Trazado 109200" d="M358.72,313.15c-.13,0-.24-4.55-.24-10.18s.11-10.18.24-10.18.23,4.56.23,10.18S358.84,313.15,358.72,313.15Z" fill="#455a64"/>
      <path id="Trazado_109201" data-name="Trazado 109201" d="M363.91,313.15c-.13,0-.23-4.55-.23-10.18s.1-10.18.23-10.18.24,4.56.24,10.18S364.05,313.15,363.91,313.15Z" fill="#455a64"/>
      <path id="Trazado_109202" data-name="Trazado 109202" d="M369.1,313.15c-.12,0-.23-4.55-.23-10.18s.11-10.18.23-10.18.24,4.56.24,10.18S369.24,313.15,369.1,313.15Z" fill="#455a64"/>
      <rect id="Rectángulo_8710" data-name="Rectángulo 8710" width="21.92" height="26.63" transform="translate(296.99 343.16)" fill="#d9a171"/>
      <rect id="Rectángulo_8711" data-name="Rectángulo 8711" width="61.3" height="26.63" transform="translate(318.92 343.16)" fill="#d9a171"/>
      <rect id="Rectángulo_8712" data-name="Rectángulo 8712" width="61.3" height="26.63" transform="translate(318.92 343.16)" opacity="0.4"/>
      <path id="Trazado_109203" data-name="Trazado 109203" d="M308.41,369.79c-.13,0-.23-5.92-.23-13.2s.1-13.2.23-13.2.24,5.91.24,13.2S308.54,369.79,308.41,369.79Z" fill="#344154"/>
      <path id="Trazado_109204" data-name="Trazado 109204" d="M376.77,366.75v-5.47c0-3.52,0-8.59-.08-14.9l.15.15-55.23.09.23-.24h0v20.37l-.23-.23,39.52.1,11.53.07h.11l-11.48.06-39.68.11h-.22V346.38h0c0,.05.45-.45.24-.23l55.24.07H377v.16c0,6.31-.06,11.45-.09,15v5A1.541,1.541,0,0,1,376.77,366.75Z" fill="#344154"/>
      <path id="Trazado_109205" data-name="Trazado 109205" d="M325.8,366.75c-.14,0-.24-4.56-.24-10.19s.1-10.18.24-10.18.23,4.55.23,10.18S325.89,366.75,325.8,366.75Z" fill="#344154"/>
      <path id="Trazado_109206" data-name="Trazado 109206" d="M331,366.75c-.13,0-.23-4.56-.23-10.19s.1-10.18.23-10.18.24,4.55.24,10.18S331.12,366.75,331,366.75Z" fill="#344154"/>
      <path id="Trazado_109207" data-name="Trazado 109207" d="M336.18,366.75c-.12,0-.23-4.56-.23-10.19s.11-10.18.23-10.18.24,4.55.24,10.18S336.31,366.75,336.18,366.75Z" fill="#344154"/>
      <path id="Trazado_109208" data-name="Trazado 109208" d="M341.38,366.75c-.13,0-.24-4.56-.24-10.19s.11-10.18.24-10.18.23,4.55.23,10.18S341.5,366.75,341.38,366.75Z" fill="#344154"/>
      <path id="Trazado_109209" data-name="Trazado 109209" d="M346.57,366.75c-.12,0-.23-4.56-.23-10.19s.11-10.18.23-10.18.24,4.55.24,10.18S346.71,366.75,346.57,366.75Z" fill="#344154"/>
      <path id="Trazado_109210" data-name="Trazado 109210" d="M351.77,366.75c-.13,0-.24-4.56-.24-10.19s.11-10.18.24-10.18.24,4.55.24,10.18S351.9,366.75,351.77,366.75Z" fill="#344154"/>
      <path id="Trazado_109211" data-name="Trazado 109211" d="M357,366.75c-.14,0-.24-4.56-.24-10.19s.1-10.18.24-10.18.23,4.55.23,10.18S357.09,366.75,357,366.75Z" fill="#344154"/>
      <path id="Trazado_109212" data-name="Trazado 109212" d="M362.16,366.75c-.13,0-.23-4.56-.23-10.19s.1-10.18.23-10.18.24,4.55.24,10.18S362.29,366.75,362.16,366.75Z" fill="#344154"/>
      <path id="Trazado_109213" data-name="Trazado 109213" d="M367.36,366.75c-.12,0-.23-4.56-.23-10.19s.11-10.18.23-10.18.24,4.55.24,10.18S367.48,366.75,367.36,366.75Z" fill="#344154"/>
      <path id="Trazado_109214" data-name="Trazado 109214" d="M372.55,366.75c-.13,0-.24-4.56-.24-10.19s.11-10.18.24-10.18.23,4.55.23,10.18S372.68,366.75,372.55,366.75Z" fill="#344154"/>
      <path id="Trazado_109215" data-name="Trazado 109215" d="M286.46,361.55h-4.65l-12.69.07-41.84.08c-21.64,0-40.57-.05-50.67-.12l.12-.12c0,2.71,0,4.83-.06,6.31h0v-6.43h.12c10.13-.07,29-.11,50.68-.11l41.83.07,12.69.07h4.35Z" fill="#344154"/>
      <path id="Trazado_109216" data-name="Trazado 109216" d="M277.35,369.08a30.121,30.121,0,0,1,0-7.47,30.121,30.121,0,0,1,0,7.47Z" fill="#344154"/>
      <path id="Trazado_109217" data-name="Trazado 109217" d="M262,369.08a29.18,29.18,0,0,1,0-7.47,30.121,30.121,0,0,1,0,7.47Z" fill="#344154"/>
      <path id="Trazado_109218" data-name="Trazado 109218" d="M246.66,369.08a30.119,30.119,0,0,1,0-7.47,30.12,30.12,0,0,1,0,7.47Z" fill="#344154"/>
      <path id="Trazado_109219" data-name="Trazado 109219" d="M231.3,369.08a30.12,30.12,0,0,1,0-7.47A29.18,29.18,0,0,1,231.3,369.08Z" fill="#344154"/>
      <path id="Trazado_109220" data-name="Trazado 109220" d="M216,369.08a29.18,29.18,0,0,1,0-7.47,30.121,30.121,0,0,1,0,7.47Z" fill="#344154"/>
      <path id="Trazado_109221" data-name="Trazado 109221" d="M200.61,369.08a29.18,29.18,0,0,1,0-7.47A30.12,30.12,0,0,1,200.61,369.08Z" fill="#344154"/>
      <path id="Trazado_109222" data-name="Trazado 109222" d="M185.23,369.08a30.119,30.119,0,0,1,0-7.47,30.12,30.12,0,0,1,0,7.47Z" fill="#344154"/>
      <path id="Trazado_109223" data-name="Trazado 109223" d="M396.3,368.81a3.676,3.676,0,0,1,0-.47V367c0-1.26,0-3.06-.06-5.41l.11.11c-9.65.08-29,.12-51.3.12l-41.4-.06-12.54-.08h-3.42l3.42-.05,12.54-.07,41.4-.07c22.27,0,41.65.05,51.3.12h.12v6.77A3,3,0,0,1,396.3,368.81Z" fill="#344154"/>
      <path id="Trazado_109224" data-name="Trazado 109224" d="M356.54,369.11a30.122,30.122,0,0,1,0-7.47,29.18,29.18,0,0,1,0,7.47Z" fill="#344154"/>
      <path id="Trazado_109225" data-name="Trazado 109225" d="M341.15,369.11a30.122,30.122,0,0,1,0-7.47,29.18,29.18,0,0,1,0,7.47Z" fill="#344154"/>
      <path id="Trazado_109226" data-name="Trazado 109226" d="M325.8,369.11a30.12,30.12,0,0,1,0-7.47A29.18,29.18,0,0,1,325.8,369.11Z" fill="#344154"/>
      <path id="Trazado_109227" data-name="Trazado 109227" d="M310.45,369.11a30.12,30.12,0,0,1,0-7.47,30.123,30.123,0,0,1,0,7.47Z" fill="#344154"/>
      <path id="Trazado_109228" data-name="Trazado 109228" d="M295.11,369.11a29.181,29.181,0,0,1,0-7.47,30.121,30.121,0,0,1,0,7.47Z" fill="#344154"/>
      <path id="Trazado_109229" data-name="Trazado 109229" d="M174.65,357.51a3.676,3.676,0,0,1,0-.47v-1.38c0-1.25,0-3.06-.05-5.41l.11.11c-10.2.07-31.27.12-55.56.12-23.34,0-43.7,0-54.28-.11l.11-.12v8.51a5.231,5.231,0,0,1,0-.56v-1.64c0-1.46,0-3.61-.06-6.31v-.12H65c10.59-.07,31-.12,54.29-.12,24.28,0,45.35.06,55.55.13h.11V357a2.289,2.289,0,0,1-.3.51Z" fill="#344154"/>
      <path id="Trazado_109230" data-name="Trazado 109230" d="M165.55,357.81a30.2,30.2,0,0,1,0-7.48A29.26,29.26,0,0,1,165.55,357.81Z" fill="#344154"/>
      <path id="Trazado_109231" data-name="Trazado 109231" d="M150.21,357.81a30.2,30.2,0,0,1,0-7.48A30.2,30.2,0,0,1,150.21,357.81Z" fill="#344154"/>
      <path id="Trazado_109232" data-name="Trazado 109232" d="M134.85,357.81a30.2,30.2,0,0,1,0-7.48,29.261,29.261,0,0,1,0,7.48Z" fill="#344154"/>
      <path id="Trazado_109233" data-name="Trazado 109233" d="M119.51,357.81a29.259,29.259,0,0,1,0-7.48A30.2,30.2,0,0,1,119.51,357.81Z" fill="#344154"/>
      <path id="Trazado_109234" data-name="Trazado 109234" d="M104.16,357.81a30.2,30.2,0,0,1,0-7.48,30.2,30.2,0,0,1,0,7.48Z" fill="#344154"/>
      <path id="Trazado_109235" data-name="Trazado 109235" d="M88.8,357.81a30.2,30.2,0,0,1,0-7.48A29.261,29.261,0,0,1,88.8,357.81Z" fill="#344154"/>
      <path id="Trazado_109236" data-name="Trazado 109236" d="M73.42,357.81a30.2,30.2,0,0,1,0-7.48,30.2,30.2,0,0,1,0,7.48Z" fill="#344154"/>
      <rect id="Rectángulo_8713" data-name="Rectángulo 8713" width="21.92" height="26.63" transform="translate(98.72 302.88)" fill="#d9a171"/>
      <rect id="Rectángulo_8714" data-name="Rectángulo 8714" width="61.3" height="26.63" transform="translate(120.65 302.88)" fill="#d9a171"/>
      <rect id="Rectángulo_8715" data-name="Rectángulo 8715" width="61.3" height="26.63" transform="translate(120.65 302.88)" opacity="0.4"/>
      <path id="Trazado_109237" data-name="Trazado 109237" d="M110.15,329.51c-.14,0-.24-5.91-.24-13.2s.1-13.2.24-13.2.23,5.92.23,13.2S110.27,329.51,110.15,329.51Z" fill="#344154"/>
      <path id="Trazado_109238" data-name="Trazado 109238" d="M178.5,326.47V321c0-3.52,0-8.58-.08-14.9l.15.16-55.23.08.23-.24h0v20.37l-.22-.22,39.52.1,11.52.06h3.91a1.309,1.309,0,0,1,.28,0H174.5l-11.48.06-39.67.11H123V306h0s.45-.45.25-.24l55.23.08h.17V306c0,6.31-.07,11.45-.09,15v5a1.49,1.49,0,0,1-.06.47Z" fill="#344154"/>
      <path id="Trazado_109239" data-name="Trazado 109239" d="M127.52,326.47c-.13,0-.23-4.56-.23-10.19s.1-10.18.23-10.18.24,4.56.24,10.18S127.66,326.47,127.52,326.47Z" fill="#344154"/>
      <path id="Trazado_109240" data-name="Trazado 109240" d="M132.72,326.47c-.13,0-.23-4.56-.23-10.19s.1-10.18.23-10.18.24,4.56.24,10.18S132.85,326.47,132.72,326.47Z" fill="#344154"/>
      <path id="Trazado_109241" data-name="Trazado 109241" d="M137.92,326.47c-.13,0-.24-4.56-.24-10.19s.11-10.18.24-10.18.23,4.56.23,10.18S138,326.47,137.92,326.47Z" fill="#344154"/>
      <path id="Trazado_109242" data-name="Trazado 109242" d="M143.11,326.47c-.12,0-.23-4.56-.23-10.19s.11-10.18.23-10.18.24,4.56.24,10.18S143.25,326.47,143.11,326.47Z" fill="#344154"/>
      <path id="Trazado_109243" data-name="Trazado 109243" d="M148.31,326.47c-.13,0-.24-4.56-.24-10.19s.11-10.18.24-10.18.23,4.56.23,10.18S148.44,326.47,148.31,326.47Z" fill="#344154"/>
      <path id="Trazado_109244" data-name="Trazado 109244" d="M153.51,326.47c-.14,0-.25-4.56-.25-10.19s.11-10.18.25-10.18.23,4.56.23,10.18a100.07,100.07,0,0,1-.23,10.19Z" fill="#344154"/>
      <path id="Trazado_109245" data-name="Trazado 109245" d="M158.7,326.47c-.13,0-.23-4.56-.23-10.19s.1-10.18.23-10.18.24,4.56.24,10.18S158.83,326.47,158.7,326.47Z" fill="#344154"/>
      <path id="Trazado_109246" data-name="Trazado 109246" d="M163.9,326.47c-.14,0-.24-4.56-.24-10.19s.1-10.18.24-10.18.23,4.56.23,10.18S164,326.47,163.9,326.47Z" fill="#344154"/>
      <path id="Trazado_109247" data-name="Trazado 109247" d="M169.09,326.47c-.13,0-.24-4.56-.24-10.19s.11-10.18.24-10.18.23,4.56.23,10.18S169.22,326.47,169.09,326.47Z" fill="#344154"/>
      <path id="Trazado_109248" data-name="Trazado 109248" d="M174.28,326.47c-.12,0-.23-4.56-.23-10.19s.11-10.18.23-10.18.24,4.56.24,10.18S174.41,326.47,174.28,326.47Z" fill="#344154"/>
      <path id="Trazado_109249" data-name="Trazado 109249" d="M397.07,369.5V308.46H457.6v61.6" fill="#6595bf"/>
      <rect id="Rectángulo_8716" data-name="Rectángulo 8716" width="3.37" height="7.34" transform="translate(438.08 362.16)" fill="#344154"/>
      <rect id="Rectángulo_8717" data-name="Rectángulo 8717" width="2.12" height="5.24" transform="translate(401.97 352.27)" fill="#344154"/>
      <rect id="Rectángulo_8718" data-name="Rectángulo 8718" width="2.12" height="5.24" transform="translate(401.97 361.55)" fill="#344154"/>
      <rect id="Rectángulo_8719" data-name="Rectángulo 8719" width="2.12" height="5.24" transform="translate(414.13 352.27)" fill="#344154"/>
      <rect id="Rectángulo_8720" data-name="Rectángulo 8720" width="2.12" height="5.24" transform="translate(414.13 361.47)" fill="#344154"/>
      <rect id="Rectángulo_8721" data-name="Rectángulo 8721" width="2.12" height="5.24" transform="translate(426.3 352.27)" fill="#344154"/>
      <rect id="Rectángulo_8722" data-name="Rectángulo 8722" width="2.12" height="5.24" transform="translate(426.3 361.39)" fill="#344154"/>
      <rect id="Rectángulo_8723" data-name="Rectángulo 8723" width="2.12" height="5.24" transform="translate(438.46 352.27)" fill="#344154"/>
      <rect id="Rectángulo_8724" data-name="Rectángulo 8724" width="2.12" height="5.24" transform="translate(450.61 352.27)" fill="#344154"/>
      <rect id="Rectángulo_8725" data-name="Rectángulo 8725" width="2.12" height="5.24" transform="translate(450.61 361.09)" fill="#344154"/>
      <rect id="Rectángulo_8726" data-name="Rectángulo 8726" width="3.37" height="7.34" transform="translate(437.83 328.91)" fill="#344154"/>
      <rect id="Rectángulo_8727" data-name="Rectángulo 8727" width="2.12" height="5.24" transform="translate(401.97 314.85)" fill="#344154"/>
      <rect id="Rectángulo_8728" data-name="Rectángulo 8728" width="2.12" height="5.24" transform="translate(401.97 324.13)" fill="#344154"/>
      <rect id="Rectángulo_8729" data-name="Rectángulo 8729" width="2.12" height="5.24" transform="translate(414.13 314.85)" fill="#344154"/>
      <rect id="Rectángulo_8730" data-name="Rectángulo 8730" width="2.12" height="5.24" transform="translate(414.13 324.05)" fill="#344154"/>
      <rect id="Rectángulo_8731" data-name="Rectángulo 8731" width="2.12" height="5.24" transform="translate(426.3 314.85)" fill="#344154"/>
      <rect id="Rectángulo_8732" data-name="Rectángulo 8732" width="2.12" height="5.24" transform="translate(426.3 323.97)" fill="#344154"/>
      <rect id="Rectángulo_8733" data-name="Rectángulo 8733" width="2.12" height="5.24" transform="translate(438.46 314.85)" fill="#344154"/>
      <rect id="Rectángulo_8734" data-name="Rectángulo 8734" width="2.12" height="5.24" transform="translate(450.61 314.85)" fill="#344154"/>
      <rect id="Rectángulo_8735" data-name="Rectángulo 8735" width="2.12" height="5.24" transform="translate(450.61 323.67)" fill="#344154"/>
      <path id="Trazado_109250" data-name="Trazado 109250" d="M118.16,427.25s9.47-34.69-24.76-42.59c-32-7.39-31.22-27.15-31.22-27.15H176.85v12H478.67s-1.65,38.87-30,57.75" fill="#4c708f"/>
      <path id="Trazado_109251" data-name="Trazado 109251" d="M119,411H464.84s-9.55,12.93-16.14,16.28H118.16A89.532,89.532,0,0,0,119,411Z" fill="#344154"/>
      <path id="Trazado_109252" data-name="Trazado 109252" d="M455.91,336.25a3.118,3.118,0,0,1-.05-.68v-1.94l.09.09c-5.15.09-17.55.15-32,.15s-26.9-.06-32.05-.15l.09-.09v1.94a3.122,3.122,0,0,1-.05.68,5.17,5.17,0,0,1,0-.68c0-.48,0-1.13-.05-1.94h.09c5.15-.09,17.56-.15,32.05-.15s26.88.06,32,.15H456v1.93a4.344,4.344,0,0,1-.09.69Z" fill="#344154"/>
      <path id="Trazado_109253" data-name="Trazado 109253" d="M399.82,337a3.51,3.51,0,0,1-.23-1.72c0-1,.11-1.72.23-1.72a3.443,3.443,0,0,1,.24,1.72A3.76,3.76,0,0,1,399.82,337Z" fill="#344154"/>
      <path id="Trazado_109254" data-name="Trazado 109254" d="M408.26,337a3.51,3.51,0,0,1-.23-1.72c0-1,.11-1.72.23-1.72a3.443,3.443,0,0,1,.24,1.72C408.5,336.23,408.4,337,408.26,337Z" fill="#344154"/>
      <path id="Trazado_109255" data-name="Trazado 109255" d="M416.75,337c-.14,0-.24-.77-.24-1.72s.1-1.72.24-1.72.23.77.23,1.72a3.54,3.54,0,0,1-.23,1.72Z" fill="#344154"/>
      <path id="Trazado_109256" data-name="Trazado 109256" d="M425.22,337c-.13,0-.23-.77-.23-1.72s.1-1.72.23-1.72.24.77.24,1.72S425.35,337,425.22,337Z" fill="#344154"/>
      <path id="Trazado_109257" data-name="Trazado 109257" d="M433.7,337c-.13,0-.23-.77-.23-1.72s.1-1.72.23-1.72.23.77.23,1.72S433.83,337,433.7,337Z" fill="#344154"/>
      <path id="Trazado_109258" data-name="Trazado 109258" d="M442.2,337a3.51,3.51,0,0,1-.23-1.72c0-1,.11-1.72.23-1.72a3.443,3.443,0,0,1,.24,1.72A3.61,3.61,0,0,1,442.2,337Z" fill="#344154"/>
      <path id="Trazado_109259" data-name="Trazado 109259" d="M450.65,337c-.13,0-.23-.77-.23-1.72s.1-1.72.23-1.72.24.77.24,1.72S450.79,337,450.65,337Z" fill="#344154"/>
      <rect id="Rectángulo_8736" data-name="Rectángulo 8736" width="67.03" height="6.69" transform="translate(390.56 336.25)" fill="#344154"/>
      <path id="Trazado_109260" data-name="Trazado 109260" d="M407.25,299.11h7.3l.8,4.63h-8.1Z" fill="#fff" opacity="0.4"/>
      <path id="Trazado_109261" data-name="Trazado 109261" d="M478.38,368.81a3.846,3.846,0,0,1,0-.48v-1.41c0-1.26,0-3.06-.07-5.35l.13.13c-8.11.07-22.7.11-39.3.11l-32.91-.06-10-.09h-3.41a.49.49,0,0,1-.24,0h3.65l10-.07,32.91-.08c16.6,0,31.17,0,39.3.11h.13c0,2.28,0,4.08-.06,5.34v1.41a3,3,0,0,1-.13.44Z" fill="#344154"/>
      <path id="Trazado_109262" data-name="Trazado 109262" d="M469.25,369.11a30.12,30.12,0,0,1,0-7.47,30.121,30.121,0,0,1,0,7.47Z" fill="#344154"/>
      <path id="Trazado_109263" data-name="Trazado 109263" d="M453.92,369.11a29.178,29.178,0,0,1,0-7.47,29.18,29.18,0,0,1,0,7.47Z" fill="#344154"/>
      <path id="Trazado_109264" data-name="Trazado 109264" d="M438.6,369.11a29.18,29.18,0,0,1,0-7.47,30.121,30.121,0,0,1,0,7.47Z" fill="#344154"/>
      <path id="Trazado_109265" data-name="Trazado 109265" d="M423.27,369.11a29.18,29.18,0,0,1,0-7.47,30.121,30.121,0,0,1,0,7.47Z" fill="#344154"/>
      <path id="Trazado_109266" data-name="Trazado 109266" d="M407.88,369.11a29.181,29.181,0,0,1,0-7.47A29.181,29.181,0,0,1,407.88,369.11Z" fill="#344154"/>
      <path id="Trazado_109267" data-name="Trazado 109267" d="M392.53,369.11a30.122,30.122,0,0,1,0-7.47,30.12,30.12,0,0,1,0,7.47Z" fill="#344154"/>
      <path id="Trazado_109268" data-name="Trazado 109268" d="M377.18,369.11a30.12,30.12,0,0,1,0-7.47A29.18,29.18,0,0,1,377.18,369.11Z" fill="#344154"/>
    </g>
  </g>
</svg>
