<svg xmlns="http://www.w3.org/2000/svg" width="412.037" height="393.348" viewBox="0 0 412.037 393.348">
  <g id="amortizacion_calculo_copia_2" data-name="amortizacion_calculo copia 2" transform="translate(-30.648 -31.273)">
    <g id="freepik--background-simple--inject-104" transform="translate(30.648 31.273)">
      <path id="Trazado_108679" data-name="Trazado 108679" d="M155.877,54.654S87.9,89.282,54.024,142.664s-31.257,121.946,9.96,172.978,119.932,44.279,185.9,76.547,138.687,25.634,169.861-42.775-15.829-93.952-23.93-173.142S316.379-18.749,155.877,54.654Z" transform="translate(-30.648 -31.273)" fill="#d9a171"/>
      <path id="Trazado_108680" data-name="Trazado 108680" d="M155.877,54.654S87.9,89.282,54.024,142.664s-31.257,121.946,9.96,172.978,119.932,44.279,185.9,76.547,138.687,25.634,169.861-42.775-15.829-93.952-23.93-173.142S316.379-18.749,155.877,54.654Z" transform="translate(-30.648 -31.273)" fill="#fff" opacity="0.7"/>
    </g>
    <g id="freepik--Plants--inject-104" transform="translate(134.605 50.415)">
      <path id="Trazado_108681" data-name="Trazado 108681" d="M382.174,59.005c.911,1.6,4.411,3.964,4.42,3.964s.829-2.734.911-2.934c.374-2.1-.146-6.379-2.251-7.463a2.825,2.825,0,0,0-3.782,1.276c-.046.091-.082.191-.118.282C380.7,55.67,381.345,57.629,382.174,59.005Z" transform="translate(-165.698 -52.278)" fill="#344154"/>
      <path id="Trazado_108682" data-name="Trazado 108682" d="M419.36,86.425s2.233-1.823,2.36-1.959c1.467-1.54,3.39-5.386,2.251-7.463a2.816,2.816,0,0,0-3.855-1.039,2,2,0,0,0-.292.191c-1.385.911-1.932,2.953-2,4.556C417.756,82.543,419.36,86.425,419.36,86.425Z" transform="translate(-168.957 -54.346)" fill="#344154"/>
      <path id="Trazado_108683" data-name="Trazado 108683" d="M363.423,89.528c1.294,1.248,4.976,2.542,5.249,2.634a52.5,52.5,0,0,0-1.823,6.379c-.273,1.258-.5,2.552-.729,3.846v-1.221c-.191-2.123-1.823-6.106-4.146-6.643a2.825,2.825,0,0,0-3.281,2.287,2.29,2.29,0,0,0,0,.246c-.191,1.659.966,3.4,2.105,4.493s4.3,2.306,5.13,2.6l-.246,1.485c-.365,2.388-.738,4.766-1.157,7.09-.146.829-.319,1.613-.5,2.424v-1.066c-.191-2.114-1.823-6.1-4.146-6.634a2.825,2.825,0,0,0-3.281,2.278c0,.091,0,.173,0,.255-.2,1.659.966,3.4,2.105,4.5s3.973,2.16,4.985,2.488c-.21.829-.41,1.659-.647,2.415-.173.529-.3,1.048-.5,1.576s-.374,1.03-.565,1.54c-.392.966-.784,1.987-1.2,2.916-.273.656-.556,1.276-.829,1.9.155-.829.428-2.406.437-2.552.137-2.123-.911-6.3-3.1-7.163a2.816,2.816,0,0,0-3.645,1.64,2.74,2.74,0,0,0-.128.41c-.447,1.659.437,3.5,1.4,4.757s4.356,3.162,4.766,3.39c-.465,1.03-.911,2.023-1.367,2.962-1.3,2.734-2.488,4.976-3.463,6.762l1.3.911c.911-1.823,2.141-4.228,3.435-7.1.474-1.039.957-2.169,1.449-3.317a29.162,29.162,0,0,0,3.545.647,19.688,19.688,0,0,0,2.087,5.258c-.957.611-1.886,1.185-2.779,1.722-2.533,1.513-4.766,2.734-6.507,3.645l1.4,1.012c1.659-.911,3.645-2.087,5.814-3.49.966-.611,2-1.285,3.044-1.987.31.337,2.861,3.08,4.474,3.754,1.467.629,3.508,1,4.976.164a2.825,2.825,0,0,0,1.157-3.827,2.316,2.316,0,0,0-.146-.255c-1.4-1.932-5.7-1.823-7.728-1.194-.128,0-1.367.6-2.151.975l1.276-.829c.838-.583,1.713-1.2,2.624-1.823l1.3-1a16.8,16.8,0,0,0,1.312-1.1c.993-.829,1.968-1.823,2.925-2.734.519.756,2.4,3.417,3.764,4.256s3.317,1.513,4.884.911a2.816,2.816,0,0,0,1.713-3.645,1.827,1.827,0,0,0-.118-.282c-1.084-2.123-5.349-2.688-7.463-2.342-.128,0-1.6.437-2.424.683.574-.574,1.148-1.157,1.7-1.768,1.613-1.759,3.189-3.581,4.775-5.386l1.458-1.659c.191.273,2.36,3.481,3.882,4.42,1.358.829,3.317,1.5,4.884.911a2.834,2.834,0,0,0,1.722-3.645.714.714,0,0,0-.118-.273c-1.094-2.114-5.358-2.734-7.463-2.342-.155,0-2.287.629-2.816.829,1.075-1.2,2.151-2.406,3.262-3.536a50.5,50.5,0,0,1,4.848-4.411c.082.128,2.333,3.49,3.891,4.447,1.358.829,3.317,1.513,4.884.911a2.8,2.8,0,0,0,1.558-3.9c-1.084-2.123-5.349-2.734-7.463-2.351-.146,0-1.759.483-2.533.711l-.055-.109a36.534,36.534,0,0,1,5.522-3.4c1.066-.547,2.1-1.012,3.126-1.44.355.674,2.014,3.709,3.317,4.73s3.135,1.868,4.757,1.422a2.807,2.807,0,0,0,2.114-3.363,3.073,3.073,0,0,0-.091-.31c-.829-2.233-5.03-3.262-7.153-3.153-.109,0-1.285.2-2.132.355.465-.191.911-.392,1.385-.556,1.668-.647,3.271-1.13,4.684-1.549.829-.228,1.522-.428,2.205-.6.693.483,3.5,2.351,5.1,2.652s3.645.219,4.875-.911a2.843,2.843,0,0,0,.31-3.991l-.21-.219c-1.823-1.577-5.969-.574-7.8.51-.155.091-2.488,1.823-2.433,1.823h0c-.656.146-1.367.319-2.132.529-1.412.383-3.016.829-4.72,1.449a48.939,48.939,0,0,0-5.413,2.224,36.805,36.805,0,0,0-5.632,3.317.073.073,0,0,0-.064,0c.41-.565,1.522-2.169,1.595-2.306,1-1.877,1.823-6.1.182-7.81a2.807,2.807,0,0,0-3.982,0,1.559,1.559,0,0,0-.2.228c-1.094,1.285-1.075,3.353-.729,4.912.392,1.75,2.734,4.848,2.934,5.094a52.286,52.286,0,0,0-5.048,4.356q-1.376,1.367-2.734,2.807a11.262,11.262,0,0,0,.683-1.012c1-1.877,1.823-6.087.182-7.81a2.816,2.816,0,0,0-3.982,0c-.073.073-.137.155-.2.228-1.094,1.33-1.094,3.4-.729,4.957s2.315,4.256,2.834,4.976l-1.021,1.112c-1.659,1.823-3.235,3.563-4.875,5.267-.574.6-1.166,1.166-1.75,1.741l.583-.911c1-1.886,1.823-6.1.191-7.819a2.834,2.834,0,0,0-4.01.055c-.064.073-.128.137-.182.21-1.094,1.285-1.075,3.363-.729,4.912s2.114,4,2.734,4.839c-.629.574-1.239,1.139-1.868,1.659-.428.346-.829.711-1.285,1.039l-1.312,1.267c-.866.6-1.759,1.212-2.615,1.823-.583.392-1.166.756-1.741,1.121.583-.592,1.659-1.777,1.777-1.886a10.935,10.935,0,0,0,1.9-5.194,2.27,2.27,0,0,0,.337-.529,2.807,2.807,0,0,0-1.13-3.809,1.7,1.7,0,0,0-.292-.137c-2.233-.829-5.759,1.6-7.09,3.271-.082.091-.829,1.258-1.258,2,.191-.474.392-.911.592-1.431.392-.966.765-1.95,1.166-3l.519-1.558c.191-.519.319-1.094.492-1.659.346-1.285.647-2.6.911-3.928.829.337,3.891,1.531,5.468,1.467s3.6-.565,4.556-1.941a2.825,2.825,0,0,0-.538-3.955l-.292-.191c-2.087-1.166-5.951.7-7.518,2.16-.1.091-1.1,1.248-1.659,1.9.155-.829.319-1.595.447-2.415.383-2.342.693-4.739,1-7.126.1-.729.21-1.458.31-2.187.31.128,3.882,1.613,5.677,1.549,1.586-.055,3.6-.574,4.556-1.95a2.8,2.8,0,0,0-.538-3.946,3.3,3.3,0,0,0-.292-.2c-2.078-1.166-5.941.711-7.509,2.16-.118.109-1.567,1.823-1.9,2.233.228-1.6.465-3.208.775-4.766a47.51,47.51,0,0,1,1.6-6.242c.137.055,3.864,1.659,5.7,1.558,1.586-.055,3.6-.565,4.556-1.941a2.816,2.816,0,0,0-.483-4.073,2.1,2.1,0,0,0-.3-.191c-2.078-1.176-5.941.7-7.5,2.151-.109.091-1.212,1.376-1.722,2l-.118-.064a36.736,36.736,0,0,1,2.734-5.9c.583-1.03,1.194-2,1.823-2.925.656.365,3.718,1.987,5.367,2.105s3.645-.164,4.757-1.422a2.807,2.807,0,0,0-.137-3.973,1.694,1.694,0,0,0-.2-.173c-1.941-1.394-6,.046-7.709,1.3l-1.586,1.476c.292-.41.574-.829.829-1.23,1.057-1.467,2.105-2.734,3.044-3.864.538-.647,1.048-1.2,1.522-1.731.829,0,4.21,0,5.714-.592a5.72,5.72,0,0,0,3.563-3.463,2.825,2.825,0,0,0-1.932-3.49h-.182c-2.36-.337-5.285,2.807-6.224,4.72-.082.164-1.057,2.9-1,2.9h.046c-.474.5-.966,1.03-1.495,1.659-.966,1.1-2.05,2.36-3.135,3.809a46.34,46.34,0,0,0-3.317,4.839,36.146,36.146,0,0,0-2.871,5.878v.073c0-.693.073-2.643.055-2.8-.191-2.123-1.823-6.106-4.146-6.634a2.816,2.816,0,0,0-3.281,2.26V85C361.136,86.712,362.284,88.434,363.423,89.528Z" transform="translate(-163.241 -53.677)" fill="#344154"/>
      <path id="Trazado_108684" data-name="Trazado 108684" d="M306.608,97.191c1.75-.638,4.7-3.645,4.7-3.645s-2.542-1.358-2.734-1.412c-2-.756-6.288-1.03-7.773.829a2.807,2.807,0,0,0,.519,3.937,3.643,3.643,0,0,0,.31.21C303.063,98.03,305.114,97.747,306.608,97.191Z" transform="translate(-158.524 -55.763)" fill="#344154"/>
      <path id="Trazado_108685" data-name="Trazado 108685" d="M340.446,65.677S339.07,63.189,338.961,63c-1.248-1.722-4.675-4.329-6.944-3.59a2.825,2.825,0,0,0-1.7,3.645.86.86,0,0,0,.109.273c.683,1.54,2.561,2.424,4.1,2.8C336.336,66.525,340.446,65.677,340.446,65.677Z" transform="translate(-161.178 -52.9)" fill="#344154"/>
      <path id="Trazado_108686" data-name="Trazado 108686" d="M304.511,120.956c1.458-1.039,3.408-4.411,3.554-4.684a49.311,49.311,0,0,0,5.987,2.953c1.194.51,2.415.984,3.645,1.431-.592-.128-1.112-.228-1.194-.237-2.123-.2-6.379.665-7.29,2.861a2.825,2.825,0,0,0,1.586,3.645l.292.1c1.595.492,3.508-.319,4.8-1.248s3.025-3.773,3.472-4.556l1.422.519c2.269.829,4.556,1.586,6.743,2.433.775.3,1.531.629,2.287.911-.529-.118-.966-.2-1.039-.21-2.123-.2-6.333.665-7.29,2.861a2.825,2.825,0,0,0,1.586,3.645l.292.1c1.595.5,3.508-.319,4.8-1.239s2.861-3.5,3.39-4.4c.765.355,1.54.7,2.26,1.075.483.264.975.492,1.449.784l1.422.829c.911.565,1.823,1.139,2.643,1.722.592.392,1.148.784,1.713,1.166-.775-.3-2.3-.911-2.424-.911-2.069-.51-6.379-.3-7.627,1.731A2.834,2.834,0,0,0,332,136.1l.273.137c1.513.738,3.517.219,4.939-.492,1.567-.793,3.918-3.7,4.2-4.064.911.647,1.823,1.285,2.67,1.9,2.424,1.823,4.456,3.381,6.005,4.648l1.148-1.1c-1.6-1.267-3.754-2.889-6.333-4.7-.911-.647-1.959-1.34-3.007-2.032a27.771,27.771,0,0,0,1.285-3.363,19.536,19.536,0,0,0,5.559-1.075c.419,1.048.829,2.069,1.176,3.044,1.021,2.734,1.823,5.185,2.406,7.081l1.258-1.2c-.611-1.823-1.385-3.937-2.351-6.379-.419-1.066-.911-2.205-1.385-3.317.392-.246,3.563-2.251,4.556-3.718.911-1.33,1.659-3.262,1.066-4.848a2.816,2.816,0,0,0-3.536-1.823l-.292.109c-2.151,1.012-2.861,5.258-2.588,7.372,0,.118.346,1.458.556,2.3-.2-.474-.392-.911-.6-1.422-.428-.966-.911-1.9-1.358-2.916-.246-.492-.492-.984-.747-1.476s-.556-.984-.829-1.476q-1.021-1.722-2.187-3.4c.829-.374,3.8-1.722,4.875-2.907s2.105-2.98,1.823-4.629a2.825,2.825,0,0,0-3.217-2.36,1.766,1.766,0,0,0-.3.064c-2.287.674-3.645,4.757-3.645,6.889,0,.137.137,1.659.228,2.488-.465-.674-.911-1.34-1.422-2-1.431-1.914-2.925-3.8-4.42-5.7l-1.358-1.741c.3-.128,3.855-1.659,5.058-2.989,1.066-1.185,2.1-2.98,1.823-4.629A2.807,2.807,0,0,0,340,94.1l-.31.055c-2.278.683-3.645,4.766-3.645,6.9,0,.155.191,2.36.273,2.916-.993-1.276-1.968-2.561-2.889-3.873a49.652,49.652,0,0,1-3.363-5.468c.137-.064,3.855-1.659,5.085-3.016,1.066-1.176,2.105-2.98,1.823-4.629a2.834,2.834,0,0,0-3.235-2.351,1.412,1.412,0,0,0-.283.055c-2.3.683-3.645,4.775-3.645,6.9,0,.137.155,1.823.246,2.606h-.137a35.985,35.985,0,0,1-2.333-6.042c-.346-1.139-.611-2.251-.829-3.317.72-.228,4.01-1.294,5.249-2.4s2.415-2.734,2.287-4.411a2.816,2.816,0,0,0-2.943-2.734,1.677,1.677,0,0,0-.3,0c-2.351.419-4.146,4.338-4.42,6.443,0,.118-.046,1.3-.055,2.169-.091-.5-.2-1-.283-1.476-.319-1.777-.51-3.417-.656-4.875-.082-.829-.137-1.577-.173-2.287.583-.583,2.953-3,3.536-4.556s.911-3.545,0-4.976a2.807,2.807,0,0,0-3.836-1.039,3.643,3.643,0,0,0-.31.21c-1.886,1.458-1.659,5.75-.957,7.755.073.173,1.358,2.734,1.385,2.734h0c0,.683.073,1.4.137,2.205.118,1.458.264,3.117.547,4.9a51.157,51.157,0,0,0,1.185,5.732,36.635,36.635,0,0,0,2.351,6.1v.064c-.474-.51-1.823-1.9-1.968-2-1.659-1.33-5.65-2.943-7.646-1.659a2.825,2.825,0,0,0-.674,3.937l.164.21c1.057,1.3,3.1,1.659,4.693,1.659,1.823-.073,5.276-1.823,5.55-1.941a50.755,50.755,0,0,0,3.317,5.8c.72,1.075,1.485,2.141,2.26,3.189l-.829-.829c-1.659-1.33-5.65-2.934-7.646-1.659a2.843,2.843,0,0,0-.683,3.937,1.924,1.924,0,0,0,.173.21c1.066,1.312,3.1,1.659,4.693,1.659s4.611-1.476,5.4-1.823l.911,1.2c1.449,1.923,2.916,3.836,4.283,5.759.483.683.911,1.367,1.385,2.041-.374-.383-.7-.693-.756-.738-1.659-1.33-5.65-2.934-7.636-1.659a2.816,2.816,0,0,0-.683,3.928,1.365,1.365,0,0,0,.164.219c1.075,1.312,3.117,1.659,4.693,1.659s4.329-1.34,5.267-1.823c.437.711.911,1.422,1.285,2.141.255.483.547.911.775,1.449s.483.993.72,1.485c.428.966.829,1.941,1.258,2.889.273.656.529,1.285.775,1.923-.465-.683-1.422-2-1.513-2.087a10.935,10.935,0,0,0-4.757-2.834,2.953,2.953,0,0,0-4.411,0,1.4,1.4,0,0,0-.191.264c-1.239,2.032.51,5.96,1.9,7.573.091.1,1.094,1.021,1.741,1.595l-1.294-.829c-.911-.574-1.823-1.112-2.734-1.659l-1.44-.829c-.474-.282-1-.51-1.522-.775-1.185-.583-2.424-1.112-3.645-1.659.5-.775,2.214-3.536,2.488-5.121s.118-3.645-1.057-4.848a2.825,2.825,0,0,0-3.973-.228l-.228.228c-1.531,1.823-.41,5.978.729,7.782.064.109,1.03,1.312,1.567,1.968-.756-.31-1.5-.611-2.287-.911-2.242-.829-4.556-1.549-6.816-2.306l-2.105-.7c.182-.273,2.306-3.518,2.579-5.285.237-1.576.1-3.645-1.075-4.848a2.825,2.825,0,0,0-3.991-.21l-.2.21c-1.54,1.823-.41,5.978.729,7.782.082.137,1.467,1.823,1.823,2.287-1.54-.529-3.062-1.057-4.556-1.659a49.548,49.548,0,0,1-5.8-2.734c.091-.128,2.315-3.5,2.588-5.313.237-1.567.1-3.645-1.066-4.848a2.825,2.825,0,0,0-3.982-.219,1.648,1.648,0,0,0-.219.219c-1.531,1.823-.4,5.969.738,7.782.064.118,1.121,1.431,1.659,2.05l-.082.1a36.087,36.087,0,0,1-5.395-3.645c-.911-.756-1.75-1.54-2.552-2.324.483-.583,2.643-3.317,3.071-4.894s.51-3.645-.529-4.976A2.816,2.816,0,0,0,299,99.058a2.313,2.313,0,0,0-.219.182c-1.722,1.659-1.057,5.9-.137,7.81l1.157,1.823c-.346-.365-.72-.72-1.057-1.066-1.239-1.3-2.306-2.57-3.235-3.709-.519-.647-.984-1.239-1.412-1.823.173-.829.829-4.146.465-5.723s-1.212-3.445-2.734-4.155a2.825,2.825,0,0,0-3.909,1.54c-.765,2.251,1.777,5.723,3.49,6.989.146.118,2.652,1.567,2.661,1.531h0c.4.556.829,1.139,1.321,1.759.911,1.166,1.941,2.5,3.162,3.791a49.663,49.663,0,0,0,4.155,4.155,37.208,37.208,0,0,0,5.212,3.855h.064c-.665-.164-2.588-.574-2.734-.583-2.123-.2-6.379.665-7.29,2.861a2.834,2.834,0,0,0,1.595,3.645l.273.091C301.339,122.7,303.244,121.885,304.511,120.956Z" transform="translate(-157.419 -53.347)" fill="#344154"/>
      <path id="Trazado_108687" data-name="Trazado 108687" d="M150.548,359.962c1.449.492,3.909,2.871,3.909,2.871s-2.059,1.148-2.2,1.2c-1.613.647-5.112.911-6.379-.556a2.3,2.3,0,0,1,.392-3.235l.191-.137A4.784,4.784,0,0,1,150.548,359.962Z" transform="translate(-144.785 -79.544)" fill="#344154"/>
      <path id="Trazado_108688" data-name="Trazado 108688" d="M178.727,385.045s-1.084,2.105-1.166,2.224c-.993,1.431-3.745,3.645-5.6,3.044a2.306,2.306,0,0,1-1.467-2.9.7.7,0,0,1,.1-.246,4.816,4.816,0,0,1,3.317-2.36C175.364,384.435,178.727,385.045,178.727,385.045Z" transform="translate(-147.003 -81.772)" fill="#344154"/>
      <path id="Trazado_108689" data-name="Trazado 108689" d="M158.062,351.406a15.719,15.719,0,0,1,2.989,3.754,43.267,43.267,0,0,1,4.839-2.488c.957-.428,1.95-.829,2.943-1.23-.483.118-.911.21-.966.219-1.731.2-5.185-.437-6-2.205a2.315,2.315,0,0,1,1.221-3.016l.246-.091a4.886,4.886,0,0,1,3.955.911A15.419,15.419,0,0,1,170.2,350.9l1.148-.437c1.823-.7,3.645-1.385,5.468-2.114.629-.264,1.23-.538,1.823-.829l-.829.182c-1.731.191-5.185-.447-6-2.214a2.315,2.315,0,0,1,1.239-3.025l.228-.082a4.866,4.866,0,0,1,3.955.911,14.2,14.2,0,0,1,2.843,3.536c.611-.3,1.239-.6,1.823-.911.392-.228.829-.419,1.176-.665l1.139-.711c.72-.474,1.449-.966,2.132-1.449l1.376-.984c-.629.264-1.823.756-1.959.775-1.668.456-5.194.365-6.26-1.276a2.306,2.306,0,0,1,.729-3.18l.255-.137a4.857,4.857,0,0,1,4.046.319,16.607,16.607,0,0,1,3.5,3.253c.747-.556,1.467-1.084,2.141-1.6,1.959-1.495,3.581-2.834,4.83-3.891l.957.911c-1.294,1.057-3.016,2.424-5.1,3.946-.747.556-1.576,1.13-2.415,1.713a26.253,26.253,0,0,1,1.112,2.734,17.18,17.18,0,0,1,4.556.784c.328-.829.629-1.7.911-2.488.829-2.287,1.394-4.274,1.823-5.8l1.048.966c-.465,1.458-1.066,3.244-1.823,5.249-.328.911-.693,1.823-1.075,2.734a15.906,15.906,0,0,1,3.764,2.953A4.62,4.62,0,0,1,199.67,354a2.287,2.287,0,0,1-2.852,1.567,1.035,1.035,0,0,1-.237-.082c-1.823-.784-2.442-4.246-2.251-5.969,0-.1.255-1.194.428-1.886l-.474,1.185c-.328.784-.674,1.567-1.048,2.406-.2.392-.4.829-.592,1.2s-.437.829-.656,1.23c-.538.911-1.112,1.886-1.722,2.807a15.391,15.391,0,0,1,4.037,2.3,4.839,4.839,0,0,1,1.531,3.745,2.305,2.305,0,0,1-2.588,2,2.387,2.387,0,0,1-.246-.055c-1.877-.51-3.044-3.827-3.126-5.559,0-.109.082-1.376.146-2.05-.374.547-.738,1.1-1.13,1.659-1.139,1.586-2.333,3.153-3.518,4.72l-1.075,1.449c.246.1,3.171,1.294,4.146,2.36a4.73,4.73,0,0,1,1.54,3.754,2.305,2.305,0,0,1-2.588,1.977l-.246-.046c-1.877-.51-3.044-3.827-3.117-5.568,0-.128.109-1.932.173-2.4-.829,1.066-1.567,2.132-2.3,3.208a41.285,41.285,0,0,0-2.661,4.556c.118.046,3.18,1.276,4.21,2.369a4.71,4.71,0,0,1,1.54,3.745,2.315,2.315,0,0,1-2.6,1.987l-.237-.046c-1.877-.51-3.044-3.827-3.126-5.568,0-.109.091-1.495.155-2.141h-.109a29.334,29.334,0,0,0-1.823,4.985c-.264.911-.456,1.823-.638,2.734a15.584,15.584,0,0,1,4.338,1.823,4.748,4.748,0,0,1,1.941,3.554,2.315,2.315,0,0,1-2.36,2.26h-.237c-1.932-.31-3.454-3.472-3.727-5.194,0-.091-.055-1.057-.073-1.768-.073.41-.155.829-.219,1.212-.219,1.458-.346,2.8-.447,3.991-.055.683-.082,1.294-.109,1.877a14.606,14.606,0,0,1,2.971,3.645,4.835,4.835,0,0,1,.082,4.046,2.315,2.315,0,0,1-3.144.911l-.173-.109c-1.567-1.157-1.458-4.666-.911-6.315.046-.146,1.048-2.287,1.075-2.26h0a18.019,18.019,0,0,1,.064-1.823c.073-1.194.173-2.542.365-4.01a42.826,42.826,0,0,1,.829-4.693,30.694,30.694,0,0,1,1.713-5.067v-.064c-.383.428-1.476,1.586-1.576,1.659-1.34,1.121-4.556,2.488-6.215,1.458a2.315,2.315,0,0,1-.629-3.208l.146-.191a4.807,4.807,0,0,1,3.8-1.4c1.467,0,4.338,1.385,4.556,1.495a41,41,0,0,1,2.643-4.757,31.879,31.879,0,0,1,1.823-2.661c-.337.365-.647.683-.693.72-1.34,1.121-4.556,2.488-6.215,1.458a2.306,2.306,0,0,1-.638-3.2,1.058,1.058,0,0,1,.146-.191,4.754,4.754,0,0,1,3.809-1.4A15.493,15.493,0,0,1,184,363.79l.711-.993c1.157-1.6,2.306-3.18,3.4-4.775.383-.565.738-1.13,1.1-1.7a6.272,6.272,0,0,1-.611.62c-1.33,1.121-4.556,2.5-6.215,1.467a2.324,2.324,0,0,1-.629-3.217L181.9,355a4.8,4.8,0,0,1,3.8-1.394,14.836,14.836,0,0,1,4.329,1.385c.346-.6.7-1.194,1.021-1.777.2-.41.419-.784.6-1.2s.383-.829.565-1.221c.328-.784.683-1.6.975-2.378.219-.538.41-1.066.611-1.586-.374.565-1.139,1.659-1.2,1.731a8.8,8.8,0,0,1-3.836,2.387,2.424,2.424,0,0,1-3.645.082l-.155-.191c-1.048-1.668.319-4.884,1.431-6.224.064-.073.866-.829,1.394-1.34l-1.048.72c-.7.465-1.44.911-2.205,1.422l-1.166.693c-.374.228-.829.428-1.212.656-.975.492-1.968.911-2.989,1.394a15.137,15.137,0,0,1,2.087,4.146,4.745,4.745,0,0,1-.784,3.973,2.306,2.306,0,0,1-3.244.228l-.182-.182c-1.285-1.458-.428-4.866.465-6.379.055-.091.829-1.094,1.239-1.659-.611.255-1.212.519-1.823.765-1.823.693-3.645,1.34-5.531,2l-1.695.611a16.3,16.3,0,0,1,2.187,4.274,4.74,4.74,0,0,1-.829,3.982,2.324,2.324,0,0,1-3.271.219l-.164-.164c-1.276-1.476-.428-4.884.465-6.379.064-.1,1.166-1.54,1.467-1.9-1.239.456-2.488.911-3.645,1.422a38.4,38.4,0,0,0-4.72,2.324c.064.1,1.941,2.816,2.2,4.292a4.666,4.666,0,0,1-.829,3.982,2.306,2.306,0,0,1-3.262.21.975.975,0,0,1-.173-.164c-1.276-1.467-.419-4.875.474-6.379.064-.091.911-1.185,1.3-1.695l-.073-.082a28.843,28.843,0,0,0-4,3.217c-.729.638-1.4,1.285-2.032,1.932a15.693,15.693,0,0,1,2.588,3.946,4.748,4.748,0,0,1-.346,4.046,2.3,2.3,0,0,1-3.2.574,1.672,1.672,0,0,1-.2-.155c-1.44-1.321-.966-4.793-.246-6.379,0-.082.538-.911.911-1.513-.282.292-.574.6-.829.911-.993,1.084-1.823,2.141-2.579,3.071-.41.547-.784,1.039-1.121,1.5a15.564,15.564,0,0,1,.474,4.675,4.766,4.766,0,0,1-2.169,3.426,2.306,2.306,0,0,1-3.117-.966,1.721,1.721,0,0,1-.1-.228c-.665-1.823,1.358-4.7,2.734-5.8.128-.091,2.141-1.321,2.151-1.285h0c.31-.456.656-.911,1.039-1.458.729-.966,1.549-2.032,2.5-3.144a39.433,39.433,0,0,1,3.317-3.445,29.345,29.345,0,0,1,4.219-3.271h.046c-.547.146-2.105.5-2.214.519-1.741.191-5.185-.437-6-2.214a2.305,2.305,0,0,1,1.239-3.016l.228-.091a5.212,5.212,0,0,1,3.946.957Z" transform="translate(-144.727 -77.485)" fill="#344154"/>
      <path id="Trazado_108690" data-name="Trazado 108690" d="M202.125,372.072c1.422-.556,4.839-.355,4.839-.355s-.829,2.214-.911,2.351c-.829,1.531-3.262,4.037-5.185,3.7a2.287,2.287,0,0,1-1.823-2.734,2.388,2.388,0,0,1,.055-.246,4.957,4.957,0,0,1,3.025-2.716Z" transform="translate(-149.542 -80.618)" fill="#344154"/>
      <path id="Trazado_108691" data-name="Trazado 108691" d="M239.913,372.67s.538,2.287.556,2.433c.182,1.731-.5,5.185-2.278,5.969a2.315,2.315,0,0,1-3.007-1.267,1.222,1.222,0,0,1-.082-.237,4.83,4.83,0,0,1,.975-3.937C236.951,374.383,239.913,372.67,239.913,372.67Z" transform="translate(-152.738 -80.706)" fill="#344154"/>
      <path id="Trazado_108692" data-name="Trazado 108692" d="M203.742,357.86a15.781,15.781,0,0,1,4.711.911,41.842,41.842,0,0,1,2.032-5.058c.456-.911.911-1.9,1.449-2.852-.292.4-.556.756-.6.829-1.185,1.276-4.219,3.035-5.987,2.214a2.3,2.3,0,0,1-1.03-3.089,1.824,1.824,0,0,1,.128-.228,4.686,4.686,0,0,1,3.645-1.823,15.22,15.22,0,0,1,4.556.911l.592-1.084c.911-1.731,1.9-3.445,2.734-5.167.31-.592.592-1.2.911-1.823l-.519.683c-1.185,1.276-4.219,3.044-5.987,2.214a2.324,2.324,0,0,1-1.039-3.1c.046-.073.082-.155.128-.219a4.8,4.8,0,0,1,3.645-1.823,14.215,14.215,0,0,1,4.456.829c.273-.638.556-1.267.829-1.886.164-.428.337-.829.465-1.267s.273-.829.41-1.285c.228-.829.474-1.659.674-2.488.146-.565.282-1.112.4-1.668-.3.611-.911,1.777-.975,1.868-.984,1.449-3.718,3.645-5.586,3.1a2.305,2.305,0,0,1-1.485-2.907c0-.082.064-.155.091-.228a4.784,4.784,0,0,1,3.281-2.378,15.725,15.725,0,0,1,4.775.182c.21-.911.41-1.768.592-2.6.51-2.415.911-4.5,1.13-6.106l1.3.046c-.292,1.659-.72,3.8-1.312,6.306-.21.911-.456,1.886-.729,2.88a25.431,25.431,0,0,1,2.624,1.349,16.769,16.769,0,0,1,3.964-2.36c-.31-.911-.629-1.713-.911-2.488-.911-2.251-1.713-4.146-2.378-5.632l1.422.055c.592,1.412,1.3,3.153,2.041,5.167.319.911.656,1.823.975,2.8a15.888,15.888,0,0,1,4.775-.2,4.948,4.948,0,0,1,3.326,2.378,2.315,2.315,0,0,1-1.166,3.053,2.133,2.133,0,0,1-.219.082c-1.877.556-4.62-1.659-5.6-3.071-.055-.091-.592-1.084-.911-1.713.128.4.264.793.392,1.2.264.829.51,1.659.765,2.488.118.428.228.829.346,1.3s.191.911.292,1.358c.21,1.066.374,2.151.519,3.253a14.972,14.972,0,0,1,4.556-.911,4.984,4.984,0,0,1,3.645,1.823,2.315,2.315,0,0,1-.683,3.2l-.21.118c-1.759.829-4.8-.911-5.987-2.2-.073-.091-.829-1.1-1.23-1.659.082.647.164,1.312.228,1.987.164,1.941.282,3.909.392,5.869,0,.6.091,1.2.128,1.823a15.267,15.267,0,0,1,4.7-.911,5.049,5.049,0,0,1,3.645,1.823,2.315,2.315,0,0,1-.683,3.2l-.21.118c-1.759.829-4.8-.911-5.987-2.205-.091-.091-1.176-1.54-1.431-1.923.091,1.321.2,2.624.346,3.918a43.224,43.224,0,0,0,.911,5.185c.118,0,3.253-1.094,4.739-.911a5.049,5.049,0,0,1,3.645,1.823,2.315,2.315,0,0,1-.656,3.189l-.237.128c-1.759.838-4.8-.911-6-2.2-.082-.082-.911-1.194-1.276-1.722l-.1.046a29.542,29.542,0,0,0,1.823,4.985c.419.911.829,1.659,1.3,2.488a15.183,15.183,0,0,1,4.5-1.4,4.756,4.756,0,0,1,3.791,1.44,2.3,2.3,0,0,1-.31,3.235l-.21.155c-1.659,1.021-4.875-.392-6.2-1.531-.073-.055-.738-.765-1.212-1.285.21.346.419.72.62,1.057.775,1.248,1.558,2.351,2.26,3.317.4.547.784,1.039,1.13,1.494a14.263,14.263,0,0,1,4.62.829A4.833,4.833,0,0,1,248.8,378.2a2.306,2.306,0,0,1-1.823,2.734h-.246c-1.941.137-4.155-2.6-4.8-4.21-.055-.137-.683-2.415-.647-2.415h0c-.346-.437-.72-.911-1.112-1.412-.729-.957-1.531-2.041-2.342-3.317a45.646,45.646,0,0,1-2.388-4.146,29.756,29.756,0,0,1-1.987-4.985v-.064c0,.574-.091,2.169-.118,2.287-.282,1.722-1.823,4.866-3.773,5.158a2.324,2.324,0,0,1-2.57-2.032,2.059,2.059,0,0,1,0-.237,4.774,4.774,0,0,1,1.977-3.536A16.473,16.473,0,0,1,233.4,360.2a40.634,40.634,0,0,1-1.157-5.349c-.146-1.057-.264-2.114-.365-3.18a8.206,8.206,0,0,1-.064,1c-.282,1.713-1.823,4.857-3.773,5.149a2.315,2.315,0,0,1-2.542-2.059v-.237a4.83,4.83,0,0,1,1.987-3.536,15.855,15.855,0,0,1,4.3-1.823c0-.4-.073-.829-.1-1.221-.173-1.959-.319-3.918-.538-5.8-.073-.674-.164-1.34-.264-2a2.816,2.816,0,0,1-.046.829c-.292,1.713-1.823,4.866-3.773,5.149a2.306,2.306,0,0,1-2.57-2.014,2.228,2.228,0,0,1,0-.246,4.717,4.717,0,0,1,1.977-3.536,14.225,14.225,0,0,1,4.146-1.768c-.118-.683-.237-1.349-.383-2-.109-.447-.182-.911-.31-1.312l-.374-1.294c-.255-.829-.529-1.659-.829-2.451-.182-.547-.374-1.066-.565-1.586.082.665.21,1.987.21,2.1a9.022,9.022,0,0,1-1.358,4.31,4.851,4.851,0,0,1-.055.51,2.3,2.3,0,0,1-2.634,1.9l-.255-.055c-1.823-.565-2.934-3.909-2.962-5.65,0-.109.109-1.221.182-1.923-.109.4-.21.829-.319,1.212-.237.838-.483,1.668-.747,2.5l-.447,1.267c-.146.437-.328.866-.492,1.3-.419,1-.911,2-1.358,2.989a15.555,15.555,0,0,1,4.274,1.823,4.793,4.793,0,0,1,1.987,3.536,2.305,2.305,0,0,1-2.324,2.287h-.246c-1.932-.283-3.5-3.426-3.782-5.14,0-.109-.091-1.358-.118-2.05-.3.6-.592,1.194-.911,1.823-.911,1.7-1.932,3.417-2.907,5.112-.31.529-.592,1.048-.911,1.567a16.739,16.739,0,0,1,4.438,1.823,4.582,4.582,0,0,1,1.987,3.536,2.3,2.3,0,0,1-2.342,2.278h-.228c-1.932-.283-3.5-3.426-3.791-5.14,0-.137-.118-1.941-.118-2.406-.656,1.157-1.294,2.315-1.823,3.472a39.234,39.234,0,0,0-2.087,4.848,16.456,16.456,0,0,1,4.465,1.823,4.787,4.787,0,0,1,1.987,3.536,2.3,2.3,0,0,1-2.315,2.278h-.255c-1.932-.273-3.5-3.426-3.791-5.13,0-.118-.091-1.494-.118-2.151h-.1a30.526,30.526,0,0,0-1.185,5.167c-.137.966-.219,1.886-.292,2.8a15.958,15.958,0,0,1,4.556,1.312,4.757,4.757,0,0,1,2.369,3.326,2.306,2.306,0,0,1-2.059,2.524h-.246c-1.95-.064-3.855-3.016-4.329-4.693,0-.091-.182-1.048-.292-1.741,0,.4-.055.829-.073,1.221-.046,1.476,0,2.825,0,4.019,0,.683.082,1.294.128,1.868a15.146,15.146,0,0,1,3.4,3.244,4.729,4.729,0,0,1,.574,4.01,2.315,2.315,0,0,1-3,1.294,1.627,1.627,0,0,1-.219-.109c-1.668-.911-2.032-4.447-1.668-6.16a18.851,18.851,0,0,1,.829-2.369h0c-.055-.556-.1-1.148-.155-1.823-.073-1.194-.146-2.552-.118-4.028a39.844,39.844,0,0,1,.273-4.775,30.311,30.311,0,0,1,1.084-5.231v-.064c-.328.474-1.267,1.759-1.358,1.823-1.185,1.267-4.219,3.035-5.987,2.205a2.306,2.306,0,0,1-1.03-3.1c0-.073.082-.146.128-.219C200.844,358.5,202.448,358,203.742,357.86Z" transform="translate(-149.619 -76.257)" fill="#344154"/>
    </g>
    <g id="freepik--Floor--inject-104" transform="translate(54.024 411.353)">
      <ellipse id="Elipse_4164" data-name="Elipse 4164" cx="177.516" cy="6.634" rx="177.516" ry="6.634" fill="#344154"/>
    </g>
    <g id="freepik--Calendar--inject-104" transform="translate(159.176 124.803)">
      <rect id="Rectángulo_8601" data-name="Rectángulo 8601" width="185.672" height="166.644" fill="#fff"/>
      <circle id="Elipse_4165" data-name="Elipse 4165" cx="9.468" cy="9.468" r="9.468" transform="translate(104.304 120.434)" fill="#d9a171"/>
      <path id="Trazado_108693" data-name="Trazado 108693" d="M321.84,160.44a2.433,2.433,0,0,1-1.03.319v-.683a1.249,1.249,0,0,0,1.258-.975h.583v7.4h-.811Z" transform="translate(-184.921 -136.145)" fill="#344154"/>
      <path id="Trazado_108694" data-name="Trazado 108694" d="M355.845,160.871c0,2.242-2.515,3.044-2.524,4.72v.118h2.424v.747H352.51v-.629c0-2.36,2.506-2.861,2.506-4.948,0-.765-.255-1.176-.866-1.176s-.866.437-.866,1.094v.656h-.775v-.638c0-1.185.519-1.886,1.659-1.886S355.845,159.741,355.845,160.871Z" transform="translate(-187.734 -136.13)" fill="#344154"/>
      <path id="Trazado_108695" data-name="Trazado 108695" d="M188.176,189.268v.182a1.759,1.759,0,0,0-.683,2.378,1.822,1.822,0,0,0,.683.674v.574c0,1.176-.519,1.868-1.659,1.868s-1.668-.738-1.668-1.868v-.51h.765v.565c0,.656.282,1.057.911,1.057s.857-.383.857-1.176v-.51c0-.729-.3-1.066-.911-1.094h-.437v-.729h.483a.911.911,0,0,0,.911-.911.8.8,0,0,0,0-.146v-.337c0-.756-.255-1.185-.857-1.185s-.911.4-.911,1.075v.383H184.9v-.337c0-1.176.529-1.823,1.668-1.823S188.176,188.129,188.176,189.268Z" transform="translate(-172.858 -138.656)" fill="#344154"/>
      <path id="Trazado_108696" data-name="Trazado 108696" d="M210.443,193.425v1.485h-.8v-1.485H207.29v-.747l2.351-5.158h.911v5.158h.583v.747Zm-2.424-.738h1.622v-3.645Z" transform="translate(-174.849 -138.667)" fill="#344154"/>
      <path id="Trazado_108697" data-name="Trazado 108697" d="M236,190.5a1.176,1.176,0,0,1,1.1-.611c.957,0,1.376.693,1.376,1.759v1.44c0,1.176-.538,1.868-1.677,1.868s-1.659-.738-1.659-1.868v-.5h.784v.556c0,.656.273,1.057.911,1.057s.911-.4.911-1.057V191.7c0-.674-.273-1.075-.911-1.075a.811.811,0,0,0-.838.765v.21h-.775l.2-4.119h2.925v.747h-2.169Z" transform="translate(-177.32 -138.663)" fill="#344154"/>
      <path id="Trazado_108698" data-name="Trazado 108698" d="M264.275,189.249v.137H263.5v-.191c0-.665-.273-1.048-.911-1.048s-.911.4-.911,1.176v1.668a1.176,1.176,0,0,1,1.176-.8c.957,0,1.376.693,1.376,1.75v1.121c0,1.185-.565,1.877-1.695,1.877s-1.695-.747-1.695-1.877v-3.773c0-1.176.529-1.9,1.695-1.9A1.636,1.636,0,0,1,264.275,189.249Zm-2.542,2.734v1.112c0,.656.264,1.057.866,1.057s.911-.4.911-1.057v-1.112c0-.665-.292-1.066-.911-1.066S261.733,191.29,261.733,191.983Z" transform="translate(-179.6 -138.655)" fill="#344154"/>
      <path id="Trazado_108699" data-name="Trazado 108699" d="M293.755,188.227H291.24v-.747h3.344v.72l-1.9,6.671h-.857Z" transform="translate(-182.297 -138.663)" fill="#344154"/>
      <path id="Trazado_108700" data-name="Trazado 108700" d="M323.654,189.233v.237a1.467,1.467,0,0,1-.838,1.522,1.485,1.485,0,0,1,.838,1.567v.538a1.768,1.768,0,1,1-3.536,0V192.5a1.5,1.5,0,0,1,.848-1.567,1.458,1.458,0,0,1-.848-1.522v-.228a1.768,1.768,0,1,1,3.536,0Zm-2.661,0v.355c0,.711.337,1.03.911,1.03s.911-.319.911-1.03v-.355c0-.765-.337-1.112-.911-1.112s-.911.365-.911,1.13Zm0,3.189v.629c0,.765.328,1.176.911,1.176s.911-.355.911-1.176V192.5c0-.7-.31-1.057-.911-1.057s-.911.292-.911,1.057Z" transform="translate(-184.858 -138.658)" fill="#344154"/>
      <path id="Trazado_108701" data-name="Trazado 108701" d="M355.83,189.265v3.773c0,1.176-.538,1.9-1.722,1.9s-1.668-.729-1.668-1.823v-.128h.765v.182c0,.665.283,1.048.911,1.048s.911-.4.911-1.176V191.36a1.176,1.176,0,0,1-1.176.793c-.911,0-1.367-.683-1.367-1.75v-1.176c0-1.176.538-1.868,1.686-1.868S355.83,188.125,355.83,189.265Zm-2.588,0v1.1c0,.674.283,1.075.911,1.075s.911-.4.911-1.075v-1.1c0-.674-.282-1.075-.911-1.075s-.911.355-.911,1.021Z" transform="translate(-187.728 -138.653)" fill="#344154"/>
      <path id="Trazado_108702" data-name="Trazado 108702" d="M186.46,217.213a2.169,2.169,0,0,1-1.03.319V216.9a1.258,1.258,0,0,0,1.267-.993h.574v7.463h-.811Z" transform="translate(-172.909 -141.186)" fill="#344154"/>
      <path id="Trazado_108703" data-name="Trazado 108703" d="M188.75,217.653c0-1.176.565-1.823,1.695-1.823a1.608,1.608,0,0,1,1.695,1.823v3.8c0,1.185-.556,1.823-1.695,1.823a1.608,1.608,0,0,1-1.695-1.823Zm.811,3.864c0,.674.283,1.075.911,1.075s.911-.4.911-1.075v-3.909c0-.674-.273-1.075-.911-1.075s-.911.4-.911,1.075Z" transform="translate(-173.204 -141.179)" fill="#344154"/>
      <path id="Trazado_108704" data-name="Trazado 108704" d="M209.021,217.213a2.132,2.132,0,0,1-1.021.319V216.9a1.248,1.248,0,0,0,1.258-.993h.565v7.463H209Z" transform="translate(-174.912 -141.186)" fill="#344154"/>
      <path id="Trazado_108705" data-name="Trazado 108705" d="M212.9,217.213a2.132,2.132,0,0,1-1.021.319V216.9a1.248,1.248,0,0,0,1.258-.993h.583v7.463h-.82Z" transform="translate(-175.256 -141.186)" fill="#344154"/>
      <path id="Trazado_108706" data-name="Trazado 108706" d="M236.731,217.213a2.132,2.132,0,0,1-1.021.319V216.9a1.294,1.294,0,0,0,1.276-.993h.565v7.463h-.82Z" transform="translate(-177.37 -141.186)" fill="#344154"/>
      <path id="Trazado_108707" data-name="Trazado 108707" d="M242.433,217.662c0,2.233-2.515,3.035-2.524,4.72v.118h2.46v.82h-3.253v-.629c0-2.36,2.515-2.861,2.515-4.948,0-.747-.255-1.176-.911-1.176s-.857.437-.857,1.084v.665h-.784v-.6c0-1.185.519-1.886,1.668-1.886S242.433,216.532,242.433,217.662Z" transform="translate(-177.669 -141.179)" fill="#344154"/>
      <path id="Trazado_108708" data-name="Trazado 108708" d="M262.52,217.213a2.169,2.169,0,0,1-1.03.319V216.9a1.276,1.276,0,0,0,1.276-.993h.565v7.463h-.811Z" transform="translate(-179.658 -141.186)" fill="#344154"/>
      <path id="Trazado_108709" data-name="Trazado 108709" d="M268.166,217.641v.155a1.75,1.75,0,0,0-.683,2.369,1.823,1.823,0,0,0,.683.683v.592c0,1.185-.529,1.823-1.659,1.823s-1.668-.738-1.668-1.823v-.5h.765v.547c0,.674.292,1.075.911,1.075s.866-.392.866-1.176V220.8c0-.72-.31-1.066-.911-1.094h-.428v-.738h.483a.9.9,0,0,0,.911-1.021v-.328c0-.765-.264-1.176-.866-1.176s-.911.41-.911,1.066v.392h-.765v-.337c0-1.185.538-1.868,1.668-1.868S268.166,216.511,268.166,217.641Z" transform="translate(-179.955 -141.167)" fill="#344154"/>
      <path id="Trazado_108710" data-name="Trazado 108710" d="M292.82,217.213a2.169,2.169,0,0,1-1.03.319V216.9a1.276,1.276,0,0,0,1.276-.993h.565v7.463h-.811Z" transform="translate(-182.346 -141.186)" fill="#344154"/>
      <path id="Trazado_108711" data-name="Trazado 108711" d="M298.171,221.789v1.54h-.8v-1.485H295V221.1l2.36-5.167h.911V221.1h.592v.747Zm-2.424-.756h1.622v-3.59Z" transform="translate(-182.631 -141.187)" fill="#344154"/>
      <path id="Trazado_108712" data-name="Trazado 108712" d="M321.84,217.213a2.169,2.169,0,0,1-1.03.319V216.9a1.248,1.248,0,0,0,1.258-.993h.583v7.463h-.811Z" transform="translate(-184.921 -141.186)" fill="#344154"/>
      <path id="Trazado_108713" data-name="Trazado 108713" d="M325.026,218.883a1.176,1.176,0,0,1,1.094-.62c.957,0,1.376.7,1.376,1.759v1.431c0,1.185-.538,1.823-1.668,1.823s-1.668-.738-1.668-1.823v-.5h.765v.538c0,.674.283,1.075.911,1.075s.857-.4.857-1.075v-1.44c0-.656-.264-1.057-.857-1.057a.784.784,0,0,0-.838.738v.219h-.765l.2-4.119h2.916v.747h-2.187Z" transform="translate(-185.218 -141.179)" fill="#344154"/>
      <path id="Trazado_108714" data-name="Trazado 108714" d="M354.061,217.213a2.132,2.132,0,0,1-1.021.319V216.9a1.276,1.276,0,0,0,1.267-.993h.574v7.463h-.82Z" transform="translate(-187.781 -141.186)" fill="#344154"/>
      <path id="Trazado_108715" data-name="Trazado 108715" d="M359.745,217.637v.164h-.784v-.182c0-.674-.273-1.066-.911-1.066s-.911.4-.911,1.185V219.4a1.176,1.176,0,0,1,1.176-.793c.957,0,1.385.683,1.385,1.759v1.084c0,1.176-.565,1.823-1.695,1.823a1.615,1.615,0,0,1-1.7-1.823v-3.782c0-1.185.519-1.9,1.7-1.9A1.641,1.641,0,0,1,359.745,217.637Zm-2.552,2.734v1.1c0,.674.273,1.075.911,1.075s.911-.4.911-1.075v-1.1c0-.665-.292-1.075-.911-1.075s-.911.483-.911,1.112Z" transform="translate(-188.07 -141.172)" fill="#344154"/>
      <path id="Trazado_108716" data-name="Trazado 108716" d="M186.46,245.609a2.151,2.151,0,0,1-1.03.3v-.665a1.285,1.285,0,0,0,1.267-.984h.574v7.409h-.811Z" transform="translate(-172.909 -143.701)" fill="#344154"/>
      <path id="Trazado_108717" data-name="Trazado 108717" d="M191.284,244.989H188.76v-.729H192.1v.72l-1.9,6.689h-.829Z" transform="translate(-173.205 -143.701)" fill="#344154"/>
      <path id="Trazado_108718" data-name="Trazado 108718" d="M209.021,245.609a2.142,2.142,0,0,1-1.021.3v-.665a1.267,1.267,0,0,0,1.258-.984h.565v7.409H209Z" transform="translate(-174.912 -143.701)" fill="#344154"/>
      <path id="Trazado_108719" data-name="Trazado 108719" d="M214.754,246.008v.237a1.449,1.449,0,0,1-.838,1.513,1.513,1.513,0,0,1,.838,1.576v.547a1.768,1.768,0,0,1-3.536,0v-.547a1.513,1.513,0,0,1,.857-1.576,1.431,1.431,0,0,1-.857-1.513v-.237a1.768,1.768,0,0,1,3.536,0Zm-2.661,0v.365c0,.72.337,1.039.911,1.039s.911-.319.911-1.039v-.365c0-.756-.346-1.112-.911-1.112s-.911.374-.911,1.13Zm0,3.208v.62c0,.765.328,1.121.911,1.121s.911-.355.911-1.121v-.62c0-.72-.31-1.075-.911-1.075s-.911.374-.911,1.094Z" transform="translate(-175.196 -143.699)" fill="#344154"/>
      <path id="Trazado_108720" data-name="Trazado 108720" d="M236.731,245.609a2.114,2.114,0,0,1-1.021.3v-.665a1.285,1.285,0,0,0,1.276-.984h.565v7.409h-.82Z" transform="translate(-177.37 -143.701)" fill="#344154"/>
      <path id="Trazado_108721" data-name="Trazado 108721" d="M242.361,246.041v3.773c0,1.176-.529,1.914-1.7,1.914S238.98,251,238.98,249.9v-.146h.765v.191c0,.674.3,1.066.911,1.066s.911-.4.911-1.185v-1.659a1.166,1.166,0,0,1-1.176.775c-.957,0-1.385-.674-1.385-1.741v-1.185c0-1.176.556-1.823,1.686-1.823S242.361,244.929,242.361,246.041Zm-2.579,0v1.021c0,.665.282,1.066.911,1.066s.911-.4.911-1.066V245.95c0-.683-.273-1.066-.911-1.066s-.829.437-.829,1.121Z" transform="translate(-177.661 -143.696)" fill="#344154"/>
      <path id="Trazado_108722" data-name="Trazado 108722" d="M264.363,246.044c0,2.224-2.515,3.044-2.524,4.711v.118h2.442v.756H261v-.638c0-2.36,2.506-2.861,2.506-4.939,0-.765-.255-1.176-.866-1.176s-.866.437-.866,1.084v.656H261v-.6c0-1.176.519-1.886,1.659-1.886S264.363,244.923,264.363,246.044Z" transform="translate(-179.614 -143.69)" fill="#344154"/>
      <path id="Trazado_108723" data-name="Trazado 108723" d="M265.39,246.038c0-1.185.565-1.868,1.695-1.868s1.695.729,1.695,1.868v3.818c0,1.176-.565,1.868-1.695,1.868s-1.695-.738-1.695-1.868Zm.811,3.864c0,.674.283,1.075.911,1.075s.911-.4.911-1.075V246c0-.683-.273-1.084-.911-1.084s-.911.4-.911,1.084Z" transform="translate(-180.004 -143.693)" fill="#344154"/>
      <path id="Trazado_108724" data-name="Trazado 108724" d="M294.592,246.044c0,2.224-2.506,3.044-2.524,4.711v.118h2.442v.756h-3.253v-.638c0-2.36,2.515-2.861,2.515-4.939,0-.765-.264-1.176-.911-1.176s-.857.437-.857,1.084v.656h-.784v-.6c0-1.176.519-1.886,1.668-1.886S294.592,244.923,294.592,246.044Z" transform="translate(-182.296 -143.69)" fill="#344154"/>
      <path id="Trazado_108725" data-name="Trazado 108725" d="M297.32,245.609a2.151,2.151,0,0,1-1.03.3v-.665a1.285,1.285,0,0,0,1.267-.984h.592v7.409h-.82Z" transform="translate(-182.745 -143.701)" fill="#344154"/>
      <path id="Trazado_108726" data-name="Trazado 108726" d="M323.606,246.044c0,2.224-2.515,3.044-2.515,4.711v.118h2.433v.756h-3.208v-.638c0-2.36,2.506-2.861,2.506-4.939,0-.765-.246-1.176-.857-1.176s-.911.437-.911,1.084v.656h-.775v-.6c0-1.176.519-1.886,1.659-1.886S323.606,244.923,323.606,246.044Z" transform="translate(-184.874 -143.69)" fill="#344154"/>
      <path id="Trazado_108727" data-name="Trazado 108727" d="M328.093,246.044c0,2.224-2.515,3.044-2.515,4.711v.118h2.433v.756h-3.244v-.638c0-2.36,2.5-2.861,2.5-4.939,0-.765-.246-1.176-.857-1.176s-.911.437-.911,1.084v.656h-.765v-.6c0-1.176.51-1.886,1.649-1.886S328.093,244.923,328.093,246.044Z" transform="translate(-185.269 -143.69)" fill="#344154"/>
      <path id="Trazado_108728" data-name="Trazado 108728" d="M355.842,246.044c0,2.224-2.515,3.044-2.524,4.711v.118h2.424v.756h-3.235v-.638c0-2.36,2.506-2.861,2.506-4.939,0-.765-.255-1.176-.866-1.176s-.911.437-.911,1.084v.656h-.765v-.6c0-1.176.519-1.886,1.659-1.886S355.842,244.923,355.842,246.044Z" transform="translate(-187.73 -143.69)" fill="#344154"/>
      <path id="Trazado_108729" data-name="Trazado 108729" d="M360.284,246.035v.182a1.476,1.476,0,0,1-.911,1.531,1.485,1.485,0,0,1,.911,1.54v.565c0,1.176-.538,1.868-1.677,1.868s-1.668-.738-1.668-1.868v-.51h.82v.556c0,.674.264,1.075.857,1.075s.911-.392.911-1.185v-.565c0-.729-.31-1.084-.911-1.1h-.447v-.738h.492a.911.911,0,0,0,.911-.911v-.456c0-.775-.264-1.185-.911-1.185s-.857.41-.857,1.084v.383h-.811v-.346c0-1.176.538-1.823,1.668-1.823S360.284,244.923,360.284,246.035Z" transform="translate(-188.127 -143.69)" fill="#344154"/>
      <path id="Trazado_108730" data-name="Trazado 108730" d="M188.222,274.425c0,2.242-2.506,3.044-2.524,4.72v.118h2.442v.756h-3.253v-.638c0-2.36,2.515-2.852,2.515-4.939,0-.775-.264-1.185-.911-1.185s-.866.437-.866,1.1v.647h-.775v-.6c0-1.185.519-1.877,1.668-1.877S188.222,273.3,188.222,274.425Z" transform="translate(-172.858 -146.209)" fill="#344154"/>
      <path id="Trazado_108731" data-name="Trazado 108731" d="M192.372,278.555v1.494h-.8v-1.494h-2.36v-.747l2.36-5.158h.911v5.158h.592v.747Zm-2.433-.747h1.631v-3.645Z" transform="translate(-173.245 -146.22)" fill="#344154"/>
      <path id="Trazado_108732" data-name="Trazado 108732" d="M210.78,274.425c0,2.242-2.506,3.044-2.506,4.72v.118h2.406v.756h-3.253v-.638c0-2.36,2.515-2.852,2.515-4.939,0-.775-.246-1.185-.911-1.185s-.857.437-.857,1.1v.647h-.784v-.6c0-1.185.519-1.877,1.668-1.877A1.66,1.66,0,0,1,210.78,274.425Z" transform="translate(-174.858 -146.209)" fill="#344154"/>
      <path id="Trazado_108733" data-name="Trazado 108733" d="M212.777,275.707a1.157,1.157,0,0,1,1.094-.6c.957,0,1.376.693,1.376,1.741V278.3c0,1.185-.538,1.877-1.668,1.877s-1.659-.747-1.659-1.877V277.8h.765v.556c0,.656.283,1.057.911,1.057s.857-.4.857-1.057v-1.44c0-.674-.273-1.075-.857-1.075a.8.8,0,0,0-.838.765v.2h-.765l.2-4.11H215.1v.738h-2.214Z" transform="translate(-175.26 -146.225)" fill="#344154"/>
      <path id="Trazado_108734" data-name="Trazado 108734" d="M238.482,274.425c0,2.242-2.506,3.044-2.515,4.72v.118h2.424v.756h-3.244v-.638c0-2.36,2.515-2.852,2.515-4.939,0-.775-.264-1.185-.911-1.185s-.857.437-.857,1.1v.647h-.784v-.6c0-1.185.519-1.877,1.668-1.877S238.482,273.3,238.482,274.425Z" transform="translate(-177.317 -146.209)" fill="#344154"/>
      <path id="Trazado_108735" data-name="Trazado 108735" d="M242.985,274.415v.128H242.2v-.21c0-.665-.273-1.057-.911-1.057s-.911.392-.911,1.176v1.659a1.194,1.194,0,0,1,1.185-.8c.911,0,1.376.7,1.376,1.759v1.121c0,1.176-.565,1.877-1.695,1.877s-1.7-.747-1.7-1.877v-3.773c0-1.176.538-1.9,1.7-1.9A1.664,1.664,0,0,1,242.985,274.415Zm-2.552,2.734v1.112c0,.656.273,1.057.911,1.057s.911-.4.911-1.057v-1.112c0-.674-.292-1.075-.911-1.075S240.433,276.475,240.433,277.149Z" transform="translate(-177.71 -146.209)" fill="#344154"/>
      <path id="Trazado_108736" data-name="Trazado 108736" d="M264.363,274.425c0,2.242-2.515,3.044-2.524,4.72v.118h2.442v.756H261v-.638c0-2.36,2.506-2.852,2.506-4.939,0-.775-.255-1.185-.866-1.185s-.866.437-.866,1.1v.647H261v-.6c0-1.185.519-1.877,1.659-1.877S264.363,273.3,264.363,274.425Z" transform="translate(-179.614 -146.209)" fill="#344154"/>
      <path id="Trazado_108737" data-name="Trazado 108737" d="M267.915,273.388H265.4v-.738h3.344v.72l-1.886,6.68h-.82Z" transform="translate(-180.005 -146.22)" fill="#344154"/>
      <path id="Trazado_108738" data-name="Trazado 108738" d="M294.592,274.425c0,2.242-2.506,3.044-2.524,4.72v.118h2.442v.756h-3.253v-.638c0-2.36,2.515-2.852,2.515-4.939,0-.775-.264-1.185-.911-1.185s-.857.437-.857,1.1v.647h-.784v-.6c0-1.185.519-1.877,1.668-1.877S294.592,273.3,294.592,274.425Z" transform="translate(-182.296 -146.209)" fill="#344154"/>
      <path id="Trazado_108739" data-name="Trazado 108739" d="M299.134,274.4v.228a1.476,1.476,0,0,1-.848,1.531,1.513,1.513,0,0,1,.848,1.558v.556a1.768,1.768,0,0,1-3.536,0v-.556a1.476,1.476,0,0,1,.857-1.558,1.458,1.458,0,0,1-.857-1.531V274.4a1.768,1.768,0,0,1,3.536,0Zm-2.679,0v.392c0,.72.355,1.039.911,1.039s.911-.319.911-1.039v-.355c0-.765-.337-1.112-.911-1.112s-.911.374-.911,1.139Zm0,3.2v.629c0,.765.346,1.112.911,1.112s.911-.346.911-1.112V277.6c0-.72-.319-1.057-.911-1.057s-.911.365-.911,1.084Z" transform="translate(-182.683 -146.218)" fill="#344154"/>
      <path id="Trazado_108740" data-name="Trazado 108740" d="M323.606,274.425c0,2.242-2.515,3.044-2.515,4.72v.118h2.433v.756h-3.208v-.638c0-2.36,2.506-2.852,2.506-4.939,0-.775-.246-1.185-.857-1.185s-.911.437-.911,1.1v.647h-.775v-.6c0-1.185.519-1.877,1.659-1.877S323.606,273.3,323.606,274.425Z" transform="translate(-184.874 -146.209)" fill="#344154"/>
      <path id="Trazado_108741" data-name="Trazado 108741" d="M328.07,274.418V278.2c0,1.185-.529,1.914-1.7,1.914s-1.677-.729-1.677-1.868v-.128h.729v.191c0,.656.283,1.048.911,1.048s.911-.4.911-1.176v-1.668a1.194,1.194,0,0,1-1.185.784c-.911,0-1.376-.674-1.376-1.75v-1.176c0-1.185.556-1.823,1.695-1.823a1.668,1.668,0,0,1,1.695,1.868Zm-2.579,0v1.094c0,.674.292,1.075.911,1.075s.911-.4.911-1.075v-1.176c0-.683-.273-1.075-.911-1.075s-.911.437-.911,1.075Z" transform="translate(-185.264 -146.211)" fill="#344154"/>
      <path id="Trazado_108742" data-name="Trazado 108742" d="M355.8,274.414v.2a1.741,1.741,0,0,0-.683,2.369,1.649,1.649,0,0,0,.683.683v.565c0,1.185-.538,1.877-1.677,1.877s-1.659-.747-1.659-1.877v-.5h.775v.565c0,.656.273,1.057.857,1.057s.911-.392.911-1.176v-.565c0-.738-.31-1.075-.911-1.1h-.447v-.738h.492a.911.911,0,0,0,.911-.911.691.691,0,0,0,0-.137v-.346c0-.756-.255-1.176-.911-1.176s-.857.41-.857,1.084v.374h-.775v-.337c0-1.185.529-1.823,1.659-1.823S355.8,273.284,355.8,274.414Z" transform="translate(-187.729 -146.207)" fill="#344154"/>
      <path id="Trazado_108743" data-name="Trazado 108743" d="M356.93,274.422c0-1.176.556-1.823,1.686-1.823a1.613,1.613,0,0,1,1.722,1.495,1.548,1.548,0,0,1,0,.355v3.818c0,1.185-.565,1.877-1.713,1.877s-1.686-.747-1.686-1.877Zm.811,3.882c0,.656.282,1.057.911,1.057s.911-.4.911-1.057V274.34c0-.683-.283-1.084-.911-1.084s-.911.4-.911,1.084Z" transform="translate(-188.126 -146.215)" fill="#344154"/>
      <path id="Trazado_108744" data-name="Trazado 108744" d="M188.176,302.823v.191a1.741,1.741,0,0,0,0,3.053v.574c0,1.185-.519,1.823-1.659,1.823s-1.668-.729-1.668-1.823v-.5h.765v.547c0,.674.282,1.075.911,1.075s.857-.4.857-1.176V306c0-.729-.3-1.066-.911-1.094h-.437v-.738h.483c.556,0,.911-.365.911-1.021v-.328c0-.756-.255-1.176-.857-1.176s-.911.41-.911,1.075v.374H184.9v-.273c0-1.176.529-1.823,1.668-1.823S188.176,301.693,188.176,302.823Z" transform="translate(-172.858 -148.736)" fill="#344154"/>
      <path id="Trazado_108745" data-name="Trazado 108745" d="M190.95,302.379a2.387,2.387,0,0,1-1.03.319v-.674a1.267,1.267,0,0,0,1.267-.993h.574v7.409h-.811Z" transform="translate(-173.308 -148.738)" fill="#344154"/>
      <line id="Línea_350" data-name="Línea 350" x2="163.901" transform="translate(10.142 12.33)" fill="none" stroke="#b5b5b5" stroke-linecap="round" stroke-linejoin="round" stroke-width="1"/>
    </g>
    <g id="freepik--Character--inject-104" transform="translate(52.885 119.859)">
      <path id="Trazado_108746" data-name="Trazado 108746" d="M124.115,132.6a21.528,21.528,0,0,0-23.374-1.258c-5.951,3.718-7.782,10.434-9.45,15.018-3.317,9.113-10.443,14.58-18.162,19.82-7.463,5.112-17.159,12.612-12.047,22.846,2.315,4.629,5.212,7.819.829,15.346s-8.985,11.017-5.8,18.225,7.245,18.544,24.34,14.489,22.317-23.474,24.058-30.692,10.106-10.179,16.221-15.364,5.468-13.323,3.764-18.535c-1.321-4-2.816-9.687,1.759-14.216l.592.182s9.186-4.146,10.707-6.68S131.615,138.149,124.115,132.6Z" transform="translate(-55.05 -128.484)" fill="#344154" stroke="#263238" stroke-linecap="round" stroke-linejoin="round" stroke-width="1"/>
      <path id="Trazado_108747" data-name="Trazado 108747" d="M101.5,451.019s-6.115-4.037-6.944-5.586-2.971-9.468-2.971-9.468l-1.868-7.7L79.279,424.2l-1.431,6.142a37.114,37.114,0,0,0-2.9,3.645c-1.166,1.731-.911,5.121-.246,5.8L73,449.224l1.886.355,2.378-7.673c.756.62,1.613,1.349,2.542,2.178,2.406,2.114,3.326,7.855,5.714,8.293s15.756,1.376,16.3.547S101.5,451.019,101.5,451.019Z" transform="translate(-56.643 -154.722)" fill="#fff" stroke="#263238" stroke-miterlimit="10" stroke-width="1"/>
      <path id="Trazado_108748" data-name="Trazado 108748" d="M74.7,440.386,73,449.818l1.886.355,2.378-7.673c.756.62,1.613,1.349,2.542,2.178,2.406,2.114,3.326,7.855,5.714,8.293s15.756,1.376,16.3.547-.273-1.914-.273-1.914a67.538,67.538,0,0,1-5.613-4.146h-.693c-3.317.283-5.75.283-7.946-1.367s-9.4-15.191-9.4-15.191a37.114,37.114,0,0,0-2.9,3.645C73.784,436.313,74,439.7,74.7,440.386Z" transform="translate(-56.643 -155.317)" fill="#d9a171" stroke="#263238" stroke-miterlimit="10" stroke-width="1"/>
      <path id="Trazado_108749" data-name="Trazado 108749" d="M139.8,451.283s-6.3-4.666-7.4-6.033-4.657-8.73-4.657-8.73l-3.317-7.682-10.935-1.659-.273,6.306a36.676,36.676,0,0,0-2.187,4.146c-.829,1.914,0,5.212.829,5.759v9.6h1.85l.911-7.974c.829.474,1.823,1.03,2.907,1.659,2.734,1.668,4.647,7.135,7.126,7.135s14.8.273,15.346-.556S139.8,451.283,139.8,451.283Z" transform="translate(-59.986 -154.987)" fill="#fff" stroke="#263238" stroke-miterlimit="10" stroke-width="1"/>
      <path id="Trazado_108750" data-name="Trazado 108750" d="M111.884,443.945v9.587H113.8l.911-7.974c.829.474,1.823,1.03,2.9,1.659,2.734,1.659,4.657,7.135,7.126,7.135s14.8.273,15.346-.556-.273-1.914-.273-1.914-3.08-2.287-5.313-4.146c-1.577.738-3.518,1.659-4.274,1.932a5.65,5.65,0,0,1-4.666-.829c-1.094-.829-12.33-14.808-12.33-14.808a35.258,35.258,0,0,0-2.187,4.146C110.2,440.1,111.027,443.4,111.884,443.945Z" transform="translate(-59.987 -155.594)" fill="#d9a171" stroke="#263238" stroke-miterlimit="10" stroke-width="1"/>
      <path id="Trazado_108751" data-name="Trazado 108751" d="M129.657,254.18s7.008,21.278,7.008,36.87S133.6,347.5,133.6,347.5l-10.862,66.988-11.61.283s.911-23.01-.31-41.007a125.8,125.8,0,0,1,1.422-30.8l-1.659,8.994C110.247,353.828,91.2,415.2,91.2,415.2L79.1,413.27,82.69,384.5l6.333-36.624s-7.29-43.367-9.113-49.364-.829-20.959,2.169-27.593S92.4,256.413,92.4,256.413,121.5,258.19,129.657,254.18Z" transform="translate(-57.175 -139.637)" fill="#344154" stroke="#263238" stroke-linecap="round" stroke-linejoin="round" stroke-width="1"/>
      <path id="Trazado_108752" data-name="Trazado 108752" d="M116.19,352.271s4.556-11.418,4.556-15.975.565-42.247.565-42.247" transform="translate(-60.475 -143.174)" fill="none" stroke="gray" stroke-linecap="round" stroke-linejoin="round" stroke-width="1"/>
      <line id="Línea_351" data-name="Línea 351" y1="6.352" x2="6.588" transform="translate(61.101 151.45)" fill="none" stroke="gray" stroke-linecap="round" stroke-linejoin="round" stroke-width="1"/>
      <path id="Trazado_108753" data-name="Trazado 108753" d="M93.362,184.945s10.1-4.465,15.164-4.465,11.929,7.946,13.669,9.5,12.184,19.848,13.15,24.686-2.816,59.725-2.816,59.725-13.031,4.219-22.782,3.827-26.281-1.312-26.281-1.312-1.276-51.368-3.226-62.878-4.083-19.082-2.333-21.962S93.362,184.945,93.362,184.945Z" transform="translate(-57.021 -133.097)" fill="#fff" stroke="#263238" stroke-linecap="round" stroke-linejoin="round" stroke-width="1"/>
      <path id="Trazado_108754" data-name="Trazado 108754" d="M163.262,253.091l3.408-7.545-3.9-.246Z" transform="translate(-64.608 -138.849)" fill="#344154" stroke="#263238" stroke-linecap="round" stroke-linejoin="round" stroke-width="1"/>
      <path id="Trazado_108755" data-name="Trazado 108755" d="M166.247,236.04s.975-6.579,1.95-7.791a28.988,28.988,0,0,1,4.866-4.146c1.713-1.212,2.442-5.1,3.408-2.916s.975,3.645,0,4.383A14.207,14.207,0,0,0,174.284,228l3.162,4.146s-.483,5.121-3.408,8.037-4.629,3.9-6.087,3.9S158,247.249,158,247.249l.492-9.249S164.115,237.434,166.247,236.04Z" transform="translate(-64.185 -136.651)" fill="#ffbf9d" stroke="#263238" stroke-miterlimit="10" stroke-width="1"/>
      <path id="Trazado_108756" data-name="Trazado 108756" d="M184.8,212.851l-13.633,26.3-1.713-2.442,13.4-25.078h.975Z" transform="translate(-65.201 -135.861)" fill="#344154" stroke="#263238" stroke-linecap="round" stroke-linejoin="round" stroke-width="1"/>
      <path id="Trazado_108757" data-name="Trazado 108757" d="M179.325,230.939s3.408-6.333,3.408-9.012-1.95-.483-2.187.729-4.146,7.29-4.146,7.29Z" transform="translate(-65.817 -136.662)" fill="#ffbf9d" stroke="#263238" stroke-miterlimit="10" stroke-width="1"/>
      <path id="Trazado_108758" data-name="Trazado 108758" d="M178.339,230.609l-6.579-2.679s-1.458.729-.729,1.95,5.613,3.9,5.613,3.9l1.458,1.458S179.323,232.55,178.339,230.609Z" transform="translate(-65.323 -137.307)" fill="#ffbf9d" stroke="#263238" stroke-linecap="round" stroke-linejoin="round" stroke-width="1"/>
      <path id="Trazado_108759" data-name="Trazado 108759" d="M177.363,234.215l-5.513-2.224a1.112,1.112,0,0,0-1.33.374,1.148,1.148,0,0,0,0,1.33c.656,1.094,4.693,3.39,5.468,3.818a1.232,1.232,0,0,1,.246.182h0a1.1,1.1,0,0,0,1.577,0,1.084,1.084,0,0,0,.328-.656,4.848,4.848,0,0,0-.1-2.078A1.148,1.148,0,0,0,177.363,234.215Z" transform="translate(-65.277 -137.66)" fill="#ffbf9d" stroke="#263238" stroke-linecap="round" stroke-linejoin="round" stroke-width="1"/>
      <path id="Trazado_108760" data-name="Trazado 108760" d="M175.2,237.577l-4.7-1.9a.911.911,0,0,0-1.121.31.957.957,0,0,0,0,1.13c.565.911,3.991,2.88,4.647,3.253a.911.911,0,0,1,.21.155h0a.911.911,0,0,0,1.349,0,.975.975,0,0,0,.273-.556,4.092,4.092,0,0,0-.082-1.759A.993.993,0,0,0,175.2,237.577Z" transform="translate(-65.177 -137.987)" fill="#ffbf9d" stroke="#263238" stroke-linecap="round" stroke-linejoin="round" stroke-width="1"/>
      <path id="Trazado_108761" data-name="Trazado 108761" d="M161.191,238.89l.246,13.633L142.2,256.906V239.373Z" transform="translate(-62.783 -138.28)" fill="#d9a171" stroke="#263238" stroke-miterlimit="10" stroke-width="1"/>
      <path id="Trazado_108762" data-name="Trazado 108762" d="M122.188,190.981a61.219,61.219,0,0,1,9.186,22.782c2.369,13.341,2.2,77.832,2.2,77.832l10.124-3.2a235.786,235.786,0,0,1-3.317-31.7c-.237-10.188,1.376-20.622,1.376-25.99,0-13.669-2.907-21.415-5.276-27.338s-9.113-15.756-11.683-17.187a11.254,11.254,0,0,0-4.784-1.449Z" transform="translate(-60.814 -133.474)" fill="#d9a171" stroke="#263238" stroke-miterlimit="10" stroke-width="1"/>
      <path id="Trazado_108763" data-name="Trazado 108763" d="M92.759,185.38s11.692,11.847,14.653,23.137,1.823,86.935,1.823,86.935-4.748.3-16.9.3a100.239,100.239,0,0,1-21.871-2.488s9.113-48.908,9.113-49.774-3.007-38.538-3.308-42.055-.592-5.34-.592-6.224S77.2,188.606,92.759,185.38Z" transform="translate(-56.418 -133.532)" fill="#d9a171" stroke="#263238" stroke-miterlimit="10" stroke-width="1"/>
      <path id="Trazado_108764" data-name="Trazado 108764" d="M117.412,181.448l-1.066,10.935s-9.778-7.071-11.063-8.593a11.846,11.846,0,0,1-1.823-4.319L104.581,165s6.543,10.571,8.2,11.683S117.275,180.054,117.412,181.448Z" transform="translate(-59.346 -131.724)" fill="#fff" stroke="#263238" stroke-linecap="round" stroke-linejoin="round" stroke-width="1"/>
      <path id="Trazado_108765" data-name="Trazado 108765" d="M102.3,173.919s7.29,6.78,10.553,8.3,3.508.492,6.27.492,3.518.756,3.518,2.488-.756,4.556-.756,6.024.5,5.276-6.78,4.556-14.307-5.522-16.585-8.037a11.919,11.919,0,0,1-2.734-5.267l2.269-2.488a14.116,14.116,0,0,1,.747-4.556C99.534,173.664,102.3,173.919,102.3,173.919Z" transform="translate(-58.664 -132.514)" fill="#fff" stroke="#263238" stroke-linecap="round" stroke-linejoin="round" stroke-width="1"/>
      <path id="Trazado_108766" data-name="Trazado 108766" d="M129.128,145.8s-14.881,8.776-19.337,10.853l-2.488.7s-3.208-4.611-4.757-3.645a4.884,4.884,0,0,0-1.531,5.7,9.869,9.869,0,0,0,3.317,3.891s.146,6.68,1.121,9.186,11.19,8.484,12.849,8.757,3.208,0,4.046-1.531,6.106-7.782,8.475-16.4S131.779,147.194,129.128,145.8Z" transform="translate(-59.097 -130.02)" fill="#ffbf9d" stroke="#263238" stroke-linecap="round" stroke-linejoin="round" stroke-width="1"/>
      <path id="Trazado_108767" data-name="Trazado 108767" d="M127.847,161.22l.419,8.074-4.456-.975" transform="translate(-61.151 -131.388)" fill="none" stroke="#263238" stroke-linecap="round" stroke-linejoin="round" stroke-width="1"/>
      <path id="Trazado_108768" data-name="Trazado 108768" d="M117.71,170.08s.966,1.248,4.976,2.643" transform="translate(-60.61 -132.175)" fill="none" stroke="#263238" stroke-linecap="round" stroke-linejoin="round" stroke-width="1"/>
      <path id="Trazado_108769" data-name="Trazado 108769" d="M117,160.16s1.1,2.36,5.14,1.522" transform="translate(-60.547 -131.294)" fill="none" stroke="#263238" stroke-linecap="round" stroke-linejoin="round" stroke-width="1"/>
      <path id="Trazado_108770" data-name="Trazado 108770" d="M129.92,163.66a2.4,2.4,0,0,0,2.916.984" transform="translate(-61.693 -131.605)" fill="none" stroke="#263238" stroke-linecap="round" stroke-linejoin="round" stroke-width="1"/>
      <path id="Trazado_108771" data-name="Trazado 108771" d="M118.2,155.815a8.384,8.384,0,0,1,6.534,0" transform="translate(-60.653 -130.85)" fill="none" stroke="#263238" stroke-linecap="round" stroke-linejoin="round" stroke-width="1"/>
      <path id="Trazado_108772" data-name="Trazado 108772" d="M134.043,159.2c-.556-1.54-3.053-2.1-3.053-2.1" transform="translate(-61.788 -131.023)" fill="none" stroke="#263238" stroke-linecap="round" stroke-linejoin="round" stroke-width="1"/>
      <path id="Trazado_108773" data-name="Trazado 108773" d="M105.256,162.6l-4.739,1.112-2.5,8.074" transform="translate(-58.863 -131.511)" fill="none" stroke="#263238" stroke-linecap="round" stroke-linejoin="round" stroke-width="1"/>
      <path id="Trazado_108774" data-name="Trazado 108774" d="M164.228,217.517c-.911-.064-10.935-1.139-12.229-1.34a5.454,5.454,0,0,0-4.01,1.823c-.747.911-8.293,9.45-10.079,11.5l-7.29,3.891,3.08,6.835,7.19-7.573a12.273,12.273,0,0,0,1.3-.519c1.084-.547,2.306-2.852,2.306-2.852a17.752,17.752,0,0,0,3.189-.073c.747-.21,3.253-2.315,3.937-2.315s5.231-.073,5.978-2.315-6.178.21-6.178.21l2.843-5.85s5.714,1.221,8.429.538S165.112,217.59,164.228,217.517Z" transform="translate(-61.755 -136.263)" fill="#ffbf9d" stroke="#263238" stroke-miterlimit="10" stroke-width="1"/>
      <path id="Trazado_108775" data-name="Trazado 108775" d="M149.68,218s3.317-2.141,3.645-2a56.973,56.973,0,0,1,3.508,5.413c.191.383-2.615,2.734-3.062,3.126s-.665.729-1.33.191a5.723,5.723,0,0,1-1.148-1.33" transform="translate(-63.447 -136.249)" fill="#ffbf9d" stroke="#263238" stroke-miterlimit="10" stroke-width="1"/>
      <path id="Trazado_108776" data-name="Trazado 108776" d="M148.12,220.386s3.536-2.014,3.918-1.886,2.734,3.782,2.615,4.265-1.659,3.153-2.2,3.089a9.65,9.65,0,0,1-1.95-.829" transform="translate(-63.308 -136.47)" fill="#ffbf9d" stroke="#263238" stroke-miterlimit="10" stroke-width="1"/>
      <path id="Trazado_108777" data-name="Trazado 108777" d="M147,223.448a15.11,15.11,0,0,1,2.962-1.248c.911-.118,2.069,2.078,2.889,3.144s1.923,1.823,1.13,2.333-2.67-1.212-3.153-1.367a6.06,6.06,0,0,1-1.367-.984L147,228.642" transform="translate(-63.209 -136.799)" fill="#ffbf9d" stroke="#263238" stroke-miterlimit="10" stroke-width="1"/>
      <path id="Trazado_108778" data-name="Trazado 108778" d="M77.376,192.927s-5.75,4.73-6.379,14.927c-.474,7.29,4.228,48.3,5.723,50.211s7.518,3.645,10.1,1.932,45.564-20.176,45.564-20.176l-3.527-10.89-34.975,7.955s-1.075-32.45-2.834-39.112-2.57-7.946-3.645-8.375" transform="translate(-56.462 -133.889)" fill="#d9a171" stroke="#263238" stroke-miterlimit="10" stroke-width="1"/>
    </g>
    <g id="Grupo_58228" data-name="Grupo 58228" transform="translate(330.749 180.241)">
      <path id="Trazado_108779" data-name="Trazado 108779" d="M443.9,343.473l-73.54-14.07a4.155,4.155,0,0,1-3.3-4.857L390.756,200.9a5.9,5.9,0,0,1,6.9-4.675l70.086,13.45a5.9,5.9,0,0,1,4.684,6.889L448.731,340.211A4.146,4.146,0,0,1,443.9,343.473Z" transform="translate(-360.592 -194.868)" fill="#5e6178"/>
      <g id="Grupo_58191" data-name="Grupo 58191" transform="translate(6.329 1.212)" opacity="0.4">
        <path id="Trazado_108780" data-name="Trazado 108780" d="M443.84,343.45l-73.549-14.07a4.155,4.155,0,0,1-3.3-4.884l23.693-123.641a5.9,5.9,0,0,1,6.889-4.675l70.1,13.5a5.887,5.887,0,0,1,4.675,6.889L448.661,340.206a4.128,4.128,0,0,1-4.821,3.244Z" transform="translate(-366.914 -196.075)" fill="#d9a171"/>
      </g>
      <g id="Grupo_58227" data-name="Grupo 58227">
        <path id="Trazado_108781" data-name="Trazado 108781" d="M436.881,342.1l-73.549-14.079a4.146,4.146,0,0,1-3.29-4.848L383.69,199.534a5.9,5.9,0,0,1,6.889-4.684L460.7,208.273a5.9,5.9,0,0,1,4.675,6.9L441.684,338.8a4.146,4.146,0,0,1-4.8,3.3Z" transform="translate(-359.969 -194.746)" fill="#5e6178"/>
        <rect id="Rectángulo_8602" data-name="Rectángulo 8602" width="28.049" height="12.393" rx="2.42" transform="matrix(0.982, 0.188, -0.188, 0.982, 16.191, 104.656)" fill="#5e6178"/>
        <g id="Grupo_58192" data-name="Grupo 58192" transform="translate(13.861 104.656)" opacity="0.2">
          <rect id="Rectángulo_8603" data-name="Rectángulo 8603" width="28.049" height="12.393" rx="2.42" transform="matrix(0.982, 0.188, -0.188, 0.982, 2.331, 0)" fill="#d9a171"/>
        </g>
        <g id="Grupo_58193" data-name="Grupo 58193" transform="translate(23.394 13.409)">
          <rect id="Rectángulo_8604" data-name="Rectángulo 8604" width="27.894" height="71.107" transform="matrix(0.188, -0.982, 0.982, 0.188, 0.089, 27.527)" fill="#fafafa"/>
          <path id="Trazado_108782" data-name="Trazado 108782" d="M455.544,250.331l.082-.483c.064-.328.155-.8.264-1.422.237-1.248.583-3.08,1.021-5.468.911-4.72,2.187-11.564,3.8-20.048l.064.1-69.84-13.332h0l.146-.091c-1.823,9.577-3.645,18.836-5.249,27.393l-.091-.137,50.038,9.632,14.58,2.816,3.891.756,1,.2.346.073-.337-.055-.993-.182-3.873-.729-14.517-2.734-50.12-9.541h-.118v-.109c1.631-8.557,3.408-17.815,5.24-27.393v-.118H391l69.822,13.4h.082v.082c-1.649,8.5-2.98,15.355-3.891,20.048-.465,2.351-.82,4.183-1.066,5.422l-.273,1.4C455.58,250.176,455.544,250.331,455.544,250.331Z" transform="translate(-385.64 -209.46)" fill="#344154"/>
        </g>
        <g id="Grupo_58195" data-name="Grupo 58195" transform="translate(21.145 52.249)">
          <rect id="Rectángulo_8605" data-name="Rectángulo 8605" width="12.083" height="12.083" rx="2.08" transform="matrix(0.982, 0.188, -0.188, 0.982, 4.105, 0.367)" fill="#5e6178"/>
          <g id="Grupo_58194" data-name="Grupo 58194" transform="translate(1.832 0.367)" opacity="0.2">
            <rect id="Rectángulo_8606" data-name="Rectángulo 8606" width="12.083" height="12.083" rx="2.08" transform="matrix(0.982, 0.188, -0.188, 0.982, 2.273, 0)" fill="#d9a171"/>
          </g>
          <rect id="Rectángulo_8607" data-name="Rectángulo 8607" width="12.083" height="12.083" rx="2.08" transform="matrix(0.982, 0.188, -0.188, 0.982, 2.273, 0)" fill="#344154"/>
          <path id="Trazado_108783" data-name="Trazado 108783" d="M392.188,257.191l-.911,4.948-1.148-.219.775-4.028-.993-.191.173-.911Z" transform="translate(-383.77 -252.5)" fill="#fff"/>
        </g>
        <g id="Grupo_58197" data-name="Grupo 58197" transform="translate(37.704 55.425)">
          <rect id="Rectángulo_8608" data-name="Rectángulo 8608" width="12.083" height="12.083" rx="2.08" transform="matrix(0.982, 0.188, -0.188, 0.982, 4.096, 0.356)" fill="#5e6178"/>
          <g id="Grupo_58196" data-name="Grupo 58196" transform="translate(1.823 0.356)" opacity="0.2">
            <rect id="Rectángulo_8609" data-name="Rectángulo 8609" width="12.083" height="12.083" rx="2.08" transform="matrix(0.982, 0.188, -0.188, 0.982, 2.273, 0)" fill="#d9a171"/>
          </g>
          <rect id="Rectángulo_8610" data-name="Rectángulo 8610" width="12.083" height="12.083" rx="2.08" transform="matrix(0.982, 0.188, -0.188, 0.982, 2.273, 0)" fill="#344154"/>
          <path id="Trazado_108784" data-name="Trazado 108784" d="M411.308,265.045l-.182.911-3.736-.72.146-.738,2.251-1.44c.519-.328.647-.574.693-.811.073-.392-.155-.665-.674-.765a1.212,1.212,0,0,0-1.121.3l-.729-.7a2.333,2.333,0,0,1,2.141-.538c1.1.21,1.722.911,1.558,1.823a2,2,0,0,1-1.13,1.4l-1.34.857Z" transform="translate(-401.88 -256.002)" fill="#fff"/>
        </g>
        <g id="Grupo_58199" data-name="Grupo 58199" transform="translate(54.859 58.712)">
          <rect id="Rectángulo_8611" data-name="Rectángulo 8611" width="12.083" height="12.083" rx="2.08" transform="matrix(0.982, 0.188, -0.188, 0.982, 4.107, 0.347)" fill="#5e6178"/>
          <g id="Grupo_58198" data-name="Grupo 58198" transform="translate(1.834 0.347)" opacity="0.2">
            <rect id="Rectángulo_8612" data-name="Rectángulo 8612" width="12.083" height="12.083" rx="2.08" transform="matrix(0.982, 0.188, -0.188, 0.982, 2.273, 0)" fill="#d9a171"/>
          </g>
          <rect id="Rectángulo_8613" data-name="Rectángulo 8613" width="12.083" height="12.083" rx="2.08" transform="matrix(0.982, 0.188, -0.188, 0.982, 2.273, 0)" fill="#344154"/>
          <path id="Trazado_108785" data-name="Trazado 108785" d="M430.193,268.041c-.164.838-.911,1.476-2.36,1.212a3.536,3.536,0,0,1-1.823-.911l.62-.793a2.451,2.451,0,0,0,1.321.72c.574.109.975-.055,1.048-.465s-.155-.656-.811-.784l-.519-.1.146-.756,1.239-.911-2.105-.4.173-.911,3.463.665-.146.738-1.358,1.057a1.44,1.44,0,0,1,1.112,1.64Z" transform="translate(-420.687 -259.597)" fill="#fff"/>
        </g>
        <g id="Grupo_58202" data-name="Grupo 58202" transform="translate(72.06 61.999)">
          <rect id="Rectángulo_8614" data-name="Rectángulo 8614" width="12.083" height="12.083" rx="2.08" transform="matrix(0.982, 0.188, -0.188, 0.982, 4.06, 0.357)" fill="#5e6178"/>
          <g id="Grupo_58200" data-name="Grupo 58200" transform="translate(1.788 0.357)" opacity="0.2">
            <rect id="Rectángulo_8615" data-name="Rectángulo 8615" width="12.083" height="12.083" rx="2.08" transform="matrix(0.982, 0.188, -0.188, 0.982, 2.273, 0)" fill="#d9a171"/>
          </g>
          <rect id="Rectángulo_8616" data-name="Rectángulo 8616" width="12.083" height="12.083" rx="2.08" transform="matrix(0.982, 0.188, -0.188, 0.982, 2.273, 0)" fill="#344154"/>
          <g id="Grupo_58201" data-name="Grupo 58201" transform="translate(4.38 3.382)">
            <rect id="Rectángulo_8617" data-name="Rectángulo 8617" width="0.465" height="5.395" transform="matrix(0.188, -0.982, 0.982, 0.188, 0, 3.2)" fill="#fff"/>
            <path id="Trazado_108786" data-name="Trazado 108786" d="M448.052,267.811a.911.911,0,1,1-.158-1.041A.911.911,0,0,1,448.052,267.811Z" transform="translate(-444.071 -266.492)" fill="#fff"/>
            <path id="Trazado_108787" data-name="Trazado 108787" d="M447.082,272.9a.877.877,0,1,1-.693-1.021A.911.911,0,0,1,447.082,272.9Z" transform="translate(-443.985 -266.969)" fill="#fff"/>
          </g>
        </g>
        <g id="Grupo_58204" data-name="Grupo 58204" transform="translate(16.563 69.782)">
          <g id="Grupo_58203" data-name="Grupo 58203" transform="translate(3.319 0.378)" opacity="0.2">
            <path id="Trazado_108788" data-name="Trazado 108788" d="M392.215,285.454l-9.4-1.823a1.267,1.267,0,0,1-1-1.476l1.823-9.4a1.258,1.258,0,0,1,1.467-1l9.4,1.823a1.248,1.248,0,0,1,1,1.467l-1.823,9.4a1.239,1.239,0,0,1-1.467,1Z" transform="translate(-381.786 -271.736)" fill="#d9a171"/>
          </g>
          <rect id="Rectángulo_8618" data-name="Rectángulo 8618" width="12.062" height="12.062" rx="2.076" transform="matrix(0.982, 0.19, -0.19, 0.982, 2.296, 0)" fill="#344154"/>
          <path id="Trazado_108789" data-name="Trazado 108789" d="M389.073,280.478l-.811-.155-.191,1.039-1.121-.21.2-1.039-2.67-.51.155-.775,2.925-2.688,1.2.228-2.734,2.561,1.321.255.182-.911,1.075.2-.173.911.8.155Z" transform="translate(-378.706 -271.749)" fill="#fff"/>
        </g>
        <g id="Grupo_58206" data-name="Grupo 58206" transform="translate(34.375 72.815)">
          <rect id="Rectángulo_8619" data-name="Rectángulo 8619" width="12.083" height="12.083" rx="2.08" transform="matrix(0.982, 0.188, -0.188, 0.982, 4.105, 0.356)" fill="#5e6178"/>
          <g id="Grupo_58205" data-name="Grupo 58205" transform="translate(1.832 0.356)" opacity="0.2">
            <rect id="Rectángulo_8620" data-name="Rectángulo 8620" width="12.083" height="12.083" rx="2.08" transform="matrix(0.982, 0.188, -0.188, 0.982, 2.273, 0)" fill="#d9a171"/>
          </g>
          <rect id="Rectángulo_8621" data-name="Rectángulo 8621" width="12.083" height="12.083" rx="2.08" transform="matrix(0.982, 0.188, -0.188, 0.982, 2.273, 0)" fill="#344154"/>
          <path id="Trazado_108790" data-name="Trazado 108790" d="M407.162,283.376c-.173.911-.957,1.513-2.369,1.248a3.535,3.535,0,0,1-1.823-.911l.62-.793a2.415,2.415,0,0,0,1.321.72c.574.109.966-.064,1.048-.465s-.128-.693-1.03-.866l-1.267-.246.793-2.734,3.1.611-.173.911-2.069-.392-.255.911.4.082C406.87,281.763,407.326,282.5,407.162,283.376Z" transform="translate(-398.159 -275.066)" fill="#fff"/>
        </g>
        <g id="Grupo_58208" data-name="Grupo 58208" transform="translate(51.53 76.102)">
          <rect id="Rectángulo_8622" data-name="Rectángulo 8622" width="12.083" height="12.083" rx="2.08" transform="matrix(0.982, 0.188, -0.188, 0.982, 4.107, 0.347)" fill="#5e6178"/>
          <g id="Grupo_58207" data-name="Grupo 58207" transform="translate(1.834 0.347)" opacity="0.2">
            <rect id="Rectángulo_8623" data-name="Rectángulo 8623" width="12.083" height="12.083" rx="2.08" transform="matrix(0.982, 0.188, -0.188, 0.982, 2.273, 0)" fill="#d9a171"/>
          </g>
          <rect id="Rectángulo_8624" data-name="Rectángulo 8624" width="12.083" height="12.083" rx="2.08" transform="matrix(0.982, 0.188, -0.188, 0.982, 2.273, 0)" fill="#344154"/>
          <path id="Trazado_108791" data-name="Trazado 108791" d="M426.39,287.066a1.722,1.722,0,0,1-2.187,1.285c-1.367-.255-2.05-1.276-1.741-2.871a2.451,2.451,0,0,1,3.034-2.187,2.734,2.734,0,0,1,1.312.611l-.583.756a1.677,1.677,0,0,0-.911-.428,1.34,1.34,0,0,0-1.668,1.176,1.7,1.7,0,0,1,1.312-.21,1.595,1.595,0,0,1,1.431,1.868Zm-1.121-.155a.756.756,0,0,0-.693-.911.784.784,0,0,0-1,.574.775.775,0,0,0,.729.911.747.747,0,0,0,.966-.574Z" transform="translate(-417.037 -278.698)" fill="#fff"/>
        </g>
        <g id="Grupo_58211" data-name="Grupo 58211" transform="translate(68.686 79.389)">
          <rect id="Rectángulo_8625" data-name="Rectángulo 8625" width="12.083" height="12.083" rx="2.08" transform="matrix(0.982, 0.188, -0.188, 0.982, 4.105, 0.356)" fill="#5e6178"/>
          <g id="Grupo_58209" data-name="Grupo 58209" transform="translate(1.832 0.356)" opacity="0.2">
            <rect id="Rectángulo_8626" data-name="Rectángulo 8626" width="12.083" height="12.083" rx="2.08" transform="matrix(0.982, 0.188, -0.188, 0.982, 2.273, 0)" fill="#d9a171"/>
          </g>
          <rect id="Rectángulo_8627" data-name="Rectángulo 8627" width="12.083" height="12.083" rx="2.08" transform="matrix(0.982, 0.188, -0.188, 0.982, 2.273, 0)" fill="#344154"/>
          <g id="Grupo_58210" data-name="Grupo 58210" transform="translate(4.711 4.679)">
            <rect id="Rectángulo_8628" data-name="Rectángulo 8628" width="5.395" height="0.465" transform="matrix(0.836, -0.549, 0.549, 0.836, 0, 3.665)" fill="#fff"/>
            <rect id="Rectángulo_8629" data-name="Rectángulo 8629" width="0.465" height="5.395" transform="matrix(0.827, -0.562, 0.562, 0.827, 0.674, 0.261)" fill="#fff"/>
          </g>
        </g>
        <g id="Grupo_58213" data-name="Grupo 58213" transform="translate(14.512 86.891)">
          <rect id="Rectángulo_8630" data-name="Rectángulo 8630" width="12.083" height="12.083" rx="2.08" transform="matrix(0.982, 0.188, -0.188, 0.982, 4.105, 0.356)" fill="#5e6178"/>
          <g id="Grupo_58212" data-name="Grupo 58212" transform="translate(1.832 0.356)" opacity="0.2">
            <rect id="Rectángulo_8631" data-name="Rectángulo 8631" width="12.083" height="12.083" rx="2.08" transform="matrix(0.982, 0.188, -0.188, 0.982, 2.273, 0)" fill="#d9a171"/>
          </g>
          <rect id="Rectángulo_8632" data-name="Rectángulo 8632" width="12.083" height="12.083" rx="2.08" transform="matrix(0.982, 0.188, -0.188, 0.982, 2.273, 0)" fill="#344154"/>
          <path id="Trazado_108792" data-name="Trazado 108792" d="M385.582,295.329l-.137.747-2.643,3.855-1.248-.246,2.542-3.645-1.64-.31-.146.8-1.021-.191.328-1.741Z" transform="translate(-376.372 -290.496)" fill="#fff"/>
        </g>
        <g id="Grupo_58215" data-name="Grupo 58215" transform="translate(31.062 90.065)">
          <rect id="Rectángulo_8633" data-name="Rectángulo 8633" width="12.083" height="12.083" rx="2.08" transform="matrix(0.982, 0.188, -0.188, 0.982, 4.114, 0.358)" fill="#5e6178"/>
          <g id="Grupo_58214" data-name="Grupo 58214" transform="translate(1.841 0.358)" opacity="0.2">
            <rect id="Rectángulo_8634" data-name="Rectángulo 8634" width="12.083" height="12.083" rx="2.08" transform="matrix(0.982, 0.188, -0.188, 0.982, 2.273, 0)" fill="#d9a171"/>
          </g>
          <rect id="Rectángulo_8635" data-name="Rectángulo 8635" width="12.083" height="12.083" rx="2.08" transform="matrix(0.982, 0.188, -0.188, 0.982, 2.273, 0)" fill="#344154"/>
          <path id="Trazado_108793" data-name="Trazado 108793" d="M403.949,302.516c-.173.911-1.121,1.367-2.378,1.121s-1.968-.984-1.823-1.914a1.267,1.267,0,0,1,.966-1.021,1.185,1.185,0,0,1-.374-1.13c.164-.866,1.048-1.267,2.169-1.048s1.823.911,1.649,1.823a1.185,1.185,0,0,1-.775.911A1.276,1.276,0,0,1,403.949,302.516Zm-1.148-.255c.082-.437-.228-.775-.8-.911s-.966.091-1.048.529.21.784.775.911.984-.091,1.075-.529Zm-1.294-2.4c-.073.374.182.665.647.756s.82-.082.911-.456-.191-.683-.656-.775S401.58,299.454,401.507,299.864Z" transform="translate(-394.559 -294.014)" fill="#fff"/>
        </g>
        <g id="Grupo_58217" data-name="Grupo 58217" transform="translate(48.226 93.354)">
          <rect id="Rectángulo_8636" data-name="Rectángulo 8636" width="12.083" height="12.083" rx="2.08" transform="matrix(0.982, 0.188, -0.188, 0.982, 4.107, 0.347)" fill="#5e6178"/>
          <g id="Grupo_58216" data-name="Grupo 58216" transform="translate(1.834 0.347)" opacity="0.2">
            <rect id="Rectángulo_8637" data-name="Rectángulo 8637" width="12.083" height="12.083" rx="2.08" transform="matrix(0.982, 0.188, -0.188, 0.982, 2.273, 0)" fill="#d9a171"/>
          </g>
          <rect id="Rectángulo_8638" data-name="Rectángulo 8638" width="12.083" height="12.083" rx="2.08" transform="matrix(0.982, 0.188, -0.188, 0.982, 2.273, 0)" fill="#344154"/>
          <path id="Trazado_108794" data-name="Trazado 108794" d="M422.807,304.938a2.451,2.451,0,0,1-3.035,2.187,2.733,2.733,0,0,1-1.312-.6l.592-.765a1.6,1.6,0,0,0,.911.428,1.34,1.34,0,0,0,1.668-1.176,1.7,1.7,0,0,1-1.312.21,1.6,1.6,0,0,1-1.412-1.823,1.731,1.731,0,0,1,2.187-1.285C422.433,302.323,423.107,303.343,422.807,304.938Zm-1.121-1.112a.765.765,0,0,0-.72-.911.756.756,0,1,0-.264,1.476.775.775,0,0,0,.984-.565Z" transform="translate(-413.384 -297.619)" fill="#fff"/>
        </g>
        <g id="Grupo_58219" data-name="Grupo 58219" transform="translate(65.392 96.632)">
          <rect id="Rectángulo_8639" data-name="Rectángulo 8639" width="12.083" height="12.083" rx="2.08" transform="matrix(0.982, 0.188, -0.188, 0.982, 4.105, 0.356)" fill="#5e6178"/>
          <g id="Grupo_58218" data-name="Grupo 58218" transform="translate(1.832 0.356)" opacity="0.2">
            <rect id="Rectángulo_8640" data-name="Rectángulo 8640" width="12.083" height="12.083" rx="2.08" transform="matrix(0.982, 0.188, -0.188, 0.982, 2.273, 0)" fill="#d9a171"/>
          </g>
          <rect id="Rectángulo_8641" data-name="Rectángulo 8641" width="12.083" height="12.083" rx="2.08" transform="matrix(0.982, 0.188, -0.188, 0.982, 2.273, 0)" fill="#344154"/>
          <rect id="Rectángulo_8642" data-name="Rectángulo 8642" width="0.465" height="5.395" transform="translate(4.39 6.754) rotate(-79.17)" fill="#fff"/>
        </g>
        <g id="Grupo_58221" data-name="Grupo 58221" transform="translate(44.895 110.751)">
          <rect id="Rectángulo_8643" data-name="Rectángulo 8643" width="12.083" height="12.083" rx="2.08" transform="matrix(0.982, 0.188, -0.188, 0.982, 4.107, 0.347)" fill="#5e6178"/>
          <g id="Grupo_58220" data-name="Grupo 58220" transform="translate(1.834 0.347)" opacity="0.2">
            <rect id="Rectángulo_8644" data-name="Rectángulo 8644" width="12.083" height="12.083" rx="2.08" transform="matrix(0.982, 0.188, -0.188, 0.982, 2.273, 0)" fill="#d9a171"/>
          </g>
          <rect id="Rectángulo_8645" data-name="Rectángulo 8645" width="12.083" height="12.083" rx="2.08" transform="matrix(0.982, 0.188, -0.188, 0.982, 2.273, 0)" fill="#344154"/>
        </g>
        <g id="Grupo_58224" data-name="Grupo 58224" transform="translate(62.052 114.029)">
          <rect id="Rectángulo_8646" data-name="Rectángulo 8646" width="12.083" height="12.083" rx="2.08" transform="matrix(0.982, 0.188, -0.188, 0.982, 4.105, 0.356)" fill="#d9a171"/>
          <g id="Grupo_58222" data-name="Grupo 58222" transform="translate(1.832 0.356)" opacity="0.4">
            <rect id="Rectángulo_8647" data-name="Rectángulo 8647" width="12.083" height="12.083" rx="2.08" transform="matrix(0.982, 0.188, -0.188, 0.982, 2.273, 0)" fill="#d9a171"/>
          </g>
          <rect id="Rectángulo_8648" data-name="Rectángulo 8648" width="12.083" height="12.083" rx="2.08" transform="matrix(0.982, 0.188, -0.188, 0.982, 2.273, 0)" fill="#d9a171"/>
          <g id="Grupo_58223" data-name="Grupo 58223" transform="translate(4.15 5.66)">
            <rect id="Rectángulo_8649" data-name="Rectángulo 8649" width="0.465" height="5.395" transform="translate(0.383 0.456) rotate(-79.17)" fill="#fff"/>
            <rect id="Rectángulo_8650" data-name="Rectángulo 8650" width="0.465" height="5.395" transform="translate(0 2.477) rotate(-79.17)" fill="#fff"/>
          </g>
        </g>
        <rect id="Rectángulo_8651" data-name="Rectángulo 8651" width="29.17" height="12.393" rx="2.5" transform="matrix(0.982, 0.188, -0.188, 0.982, 12.86, 104.018)" fill="#344154"/>
        <path id="Trazado_108795" data-name="Trazado 108795" d="M387.4,317.857c.31-1.631,1.394-2.378,2.606-2.151s1.941,1.33,1.631,2.962-1.385,2.388-2.606,2.16S387.084,319.488,387.4,317.857Zm3.089.592c.21-1.121-.1-1.668-.665-1.823s-1.057.283-1.267,1.412.091,1.668.656,1.768,1.057-.191,1.276-1.358Z" transform="translate(-362.396 -205.475)" fill="#fff"/>
        <g id="Grupo_58225" data-name="Grupo 58225" transform="translate(49.286 115.107)">
          <rect id="Rectángulo_8652" data-name="Rectángulo 8652" width="5.395" height="0.465" transform="matrix(0.203, -0.979, 0.979, 0.203, 1.94, 5.283)" fill="#fff"/>
          <rect id="Rectángulo_8653" data-name="Rectángulo 8653" width="0.465" height="5.395" transform="translate(0 2.385) rotate(-79.17)" fill="#fff"/>
        </g>
        <g id="Grupo_58226" data-name="Grupo 58226" transform="translate(51.971 32.354)">
          <path id="Trazado_108796" data-name="Trazado 108796" d="M419.205,230.624l-1.422,7.4-.346-.064,1.385-7.026L417,230.578l.055-.328Z" transform="translate(-417 -230.25)" fill="#344154"/>
          <path id="Trazado_108797" data-name="Trazado 108797" d="M424.906,239.094l-.064.328-5.012-.957.055-.255,3.745-2.624c1.075-.729,1.376-1.23,1.485-1.823.191-.984-.374-1.75-1.668-2a2.734,2.734,0,0,0-2.388.456l-.164-.282a3.19,3.19,0,0,1,2.661-.51c1.422.273,2.178,1.166,1.95,2.36-.137.7-.474,1.276-1.631,2.059l-3.445,2.351Z" transform="translate(-417.251 -230.346)" fill="#344154"/>
          <path id="Trazado_108798" data-name="Trazado 108798" d="M431.487,238.54c-.237,1.23-1.267,1.932-2.9,1.622a3.435,3.435,0,0,1-2.369-1.522l.237-.219a3.089,3.089,0,0,0,2.187,1.4c1.412.273,2.287-.282,2.5-1.349s-.383-1.9-1.95-2.2l-.41-.082.046-.255,2.88-2.561-4.073-.784.055-.328,4.556.911-.046.255-2.889,2.57C431.032,236.3,431.724,237.309,431.487,238.54Z" transform="translate(-417.818 -230.429)" fill="#344154"/>
          <path id="Trazado_108799" data-name="Trazado 108799" d="M439.4,240.038l-1.6-.31-.41,2.132-.346-.064.41-2.132-4.247-.811.046-.255,5.048-4.228.41.082-4.994,4.137,3.782.72.365-1.877.346.064-.355,1.877,1.6.31Z" transform="translate(-418.437 -230.616)" fill="#344154"/>
          <path id="Trazado_108800" data-name="Trazado 108800" d="M441.406,242.959a2.113,2.113,0,0,1-.137.374l-.647,1.349-.283-.055.611-1.394a.364.364,0,0,1-.237-.41.346.346,0,0,1,.41-.283.364.364,0,0,1,.282.419Z" transform="translate(-419.071 -231.34)" fill="#344154"/>
          <path id="Trazado_108801" data-name="Trazado 108801" d="M449.127,241.9l-1.6-.3-.41,2.132-.346-.073.41-2.132-4.247-.811.046-.255,5.048-4.228.41.082-4.985,4.174,3.782.72.365-1.877.346.064-.355,1.886,1.6.3Z" transform="translate(-419.301 -230.781)" fill="#344154"/>
          <path id="Trazado_108802" data-name="Trazado 108802" d="M455.24,243.056c-.228,1.2-1.239,1.977-2.925,1.659A3.4,3.4,0,0,1,450,243.192l.255-.21a3.1,3.1,0,0,0,2.169,1.4c1.449.273,2.306-.346,2.506-1.394s-.328-1.95-2.442-2.351l-1.44-.273,1.057-3.417,3.818.729-.064.328-3.518-.674-.857,2.734,1.139.219C454.839,240.759,455.468,241.752,455.24,243.056Z" transform="translate(-419.928 -230.844)" fill="#344154"/>
        </g>
      </g>
    </g>
  </g>
</svg>
