<svg xmlns="http://www.w3.org/2000/svg" width="113.158" height="54.727" viewBox="0 0 113.158 54.727">
  <g id="Grupo_63669" data-name="Grupo 63669" transform="translate(-21.842 -4.646)">
    <path id="Trazado_140893" data-name="Trazado 140893" d="M10.8,19.337a1.879,1.879,0,0,0-.732-1.593,9.607,9.607,0,0,0-2.637-1.172,18.691,18.691,0,0,1-3.015-1.215q-3.027-1.636-3.027-4.407A4.292,4.292,0,0,1,2.2,8.381,5.3,5.3,0,0,1,4.535,6.617a8.776,8.776,0,0,1,3.412-.635,7.988,7.988,0,0,1,3.394.69,5.4,5.4,0,0,1,2.313,1.947,5.1,5.1,0,0,1,.824,2.856H10.815a2.4,2.4,0,0,0-.769-1.9A3.161,3.161,0,0,0,7.886,8.9,3.377,3.377,0,0,0,5.8,9.468a1.79,1.79,0,0,0-.745,1.5,1.715,1.715,0,0,0,.873,1.453,9.861,9.861,0,0,0,2.57,1.1,11.1,11.1,0,0,1,4.553,2.332,4.643,4.643,0,0,1,1.428,3.467,4.277,4.277,0,0,1-1.746,3.619,7.642,7.642,0,0,1-4.7,1.312A9.075,9.075,0,0,1,4.3,23.493a5.911,5.911,0,0,1-2.57-2.057,5.268,5.268,0,0,1-.885-3.027H4.517q0,2.942,3.516,2.942a3.42,3.42,0,0,0,2.039-.531A1.728,1.728,0,0,0,10.8,19.337Zm17.139-4.443H17.029V12.013H27.942Zm0,5.286H17.029V17.3H27.942ZM40.5,10.792l.11,1.526a4.611,4.611,0,0,1,3.8-1.77,3.832,3.832,0,0,1,3.125,1.233,5.752,5.752,0,0,1,1.05,3.687V24H45.056V15.533a2.3,2.3,0,0,0-.488-1.633,2.183,2.183,0,0,0-1.624-.508,2.426,2.426,0,0,0-2.234,1.272V24H37.183V10.792Zm10.913,5.981a18.734,18.734,0,0,1,.745-5.322,14.045,14.045,0,0,1,2.2-4.474,8.2,8.2,0,0,1,3.149-2.7l.684,1.9a8.5,8.5,0,0,0-2.783,4.077,18.878,18.878,0,0,0-1,6.445v.378a19.239,19.239,0,0,0,.989,6.47,8.662,8.662,0,0,0,2.8,4.138l-.684,1.868a8.208,8.208,0,0,1-3.094-2.631,13.81,13.81,0,0,1-2.191-4.352,18.622,18.622,0,0,1-.806-5.151Zm11.865-5.981.11,1.526a4.611,4.611,0,0,1,3.8-1.77,3.832,3.832,0,0,1,3.125,1.233,5.752,5.752,0,0,1,1.05,3.687V24H67.834V15.533a2.3,2.3,0,0,0-.488-1.633,2.183,2.183,0,0,0-1.624-.508,2.426,2.426,0,0,0-2.234,1.272V24H59.961V10.792Zm17.871,3.259h4.407v3.186H81.152v4.98H77.8v-4.98H73.376V14.051H77.8V9.278h3.357ZM96.106,24H92.578V10.383l-4.211,1.3V8.839L95.728,6.2h.378Zm12-6.946a17.777,17.777,0,0,1-.793,5.31,14.414,14.414,0,0,1-2.283,4.5,8.224,8.224,0,0,1-3.186,2.686l-.684-1.868a8.584,8.584,0,0,0,2.734-4.028,18.654,18.654,0,0,0,1.038-6.262v-.647a19.076,19.076,0,0,0-.995-6.433,8.948,8.948,0,0,0-2.777-4.175l.684-1.868a8.227,8.227,0,0,1,3.131,2.612,14.228,14.228,0,0,1,2.283,4.407,17.65,17.65,0,0,1,.848,5.212Z" transform="translate(21 0.373)" fill="#12263f"/>
    <path id="Trazado_140894" data-name="Trazado 140894" d="M90.719,24H78.537V21.583l5.75-6.128A14.184,14.184,0,0,0,86.038,13.2a3.628,3.628,0,0,0,.568-1.831,2.715,2.715,0,0,0-.6-1.862A2.159,2.159,0,0,0,84.3,8.827a2.329,2.329,0,0,0-1.886.824,3.264,3.264,0,0,0-.69,2.167h-3.54a5.827,5.827,0,0,1,.775-2.966,5.463,5.463,0,0,1,2.191-2.106,6.66,6.66,0,0,1,3.21-.763A6.306,6.306,0,0,1,88.626,7.3a4.664,4.664,0,0,1,1.52,3.723,5.976,5.976,0,0,1-.684,2.686A14.924,14.924,0,0,1,87.118,16.9l-4.041,4.26h7.642Z" transform="translate(0 35.373)" fill="#12263f"/>
    <line id="Línea_285" data-name="Línea 285" x2="82" transform="translate(53 30.373)" fill="none" stroke="#6595bf" stroke-width="3"/>
  </g>
</svg>
