<svg xmlns="http://www.w3.org/2000/svg" width="493.232" height="368.584" viewBox="0 0 493.232 368.584">
  <g id="Capa_2" data-name="Capa 2" transform="translate(-0.048 -40.006)">
    <g id="Grupo_57830" data-name="Grupo 57830">
      <path id="Trazado_106822" data-name="Trazado 106822" d="M353.85,349.06c1.17-2.11,4.25-2.48,6.34-1.3s3.35,3.45,4.16,5.72a40.38,40.38,0,0,1,2,11.11c1.26-3.4,2.65-6.74,4.14-10q1.47-3.27,3.09-6.46a27.48,27.48,0,0,1-11.06-11.59c-.91-1.84-1.61-4.09-.61-5.88,1.16-2.1,4.25-2.48,6.34-1.3s3.34,3.43,4.15,5.69a40.581,40.581,0,0,1,2,11.47A140.33,140.33,0,0,1,386,327.73a27.36,27.36,0,0,1-8.89-13c-.62-2-.95-4.29.32-5.9,1.49-1.89,4.59-1.77,6.47-.28s2.76,3.91,3.2,6.27a40,40,0,0,1,.19,11.24c4.72-6.17,10.17-12.13,16.84-16.14l.42-.25a27.4,27.4,0,0,1-7.06-14.31c-.33-2-.32-4.38,1.16-5.8,1.74-1.65,4.8-1.09,6.45.65s2.16,4.27,2.26,6.67A42.4,42.4,0,0,1,405.74,309c7.83-4.43,16.51-7.43,24.17-12.12a27.48,27.48,0,0,1-7.25-14.51c-.33-2-.32-4.38,1.16-5.8,1.74-1.65,4.8-1.09,6.45.65s2.16,4.27,2.26,6.67a43.551,43.551,0,0,1-1.72,12.44,47.605,47.605,0,0,0,5.45-4,36.5,36.5,0,0,0,8.48-10.84,27.47,27.47,0,0,1-11.08-12.35c-.84-1.87-1.44-4.15-.36-5.9,1.25-2.05,4.35-2.29,6.39-1a10.316,10.316,0,0,1,3.91,5.86c1.3,4.2,1.46,8.28,1.54,12.64A47.759,47.759,0,0,0,450,258.93a27.48,27.48,0,0,1-9-12.12c-.72-1.93-1.17-4.24,0-5.92,1.38-2,4.48-2,6.44-.62a9.955,9.955,0,0,1,3.53,6.1,39.44,39.44,0,0,1,.8,11,.94.94,0,0,1,.12.43A49.58,49.58,0,0,1,449,276.21c-.45,1.3-1,2.58-1.51,3.85A27.48,27.48,0,0,1,460.37,273c2-.46,4.35-.6,5.86.79,1.77,1.62,1.41,4.71-.22,6.47s-4.12,2.44-6.51,2.7c-4.45.47-8.55-.2-12.92-1a37,37,0,0,1-4.65,7.32,41.71,41.71,0,0,1-9.76,8.39,27.45,27.45,0,0,1,15.14-.52c2,.5,4.15,1.44,4.86,3.37.83,2.25-.9,4.83-3.16,5.65s-4.77.29-7-.57c-4.3-1.65-7.71-4.21-11.35-7-6.07,3.65-12.81,6.36-19.09,9.45-2,1-3.92,2-5.79,3.11a27.42,27.42,0,0,1,16.37-1c2,.5,4.15,1.44,4.86,3.36.84,2.26-.89,4.84-3.14,5.66s-4.78.3-7-.56c-4.39-1.68-7.87-4.32-11.6-7.16a42.523,42.523,0,0,0-5.68,4.09,74.384,74.384,0,0,0-8.94,9.33q-1.1,1.33-2.13,2.7a27.42,27.42,0,0,1,14.66-2.74c2.05.19,4.33.79,5.32,2.58,1.17,2.1-.14,4.92-2.24,6.08s-4.68,1-7,.51c-4.33-.93-8-2.83-11.85-4.92A135.172,135.172,0,0,0,376,347.51a27.5,27.5,0,0,1,14.19-6.35c2-.26,4.39-.19,5.76,1.34,1.61,1.79.95,4.83-.84,6.42s-4.33,2-6.73,2.07c-4.56.05-8.64-1.05-13-2.27-.43.85-.86,1.7-1.27,2.55A156,156,0,0,0,368,365.71a27.449,27.449,0,0,1,13.89-6.09c2-.27,4.39-.19,5.76,1.34,1.6,1.79.95,4.83-.85,6.42s-4.33,2-6.73,2.06c-4.43.05-8.41-1-12.63-2.16a121.336,121.336,0,0,0-4.78,17.24c-.24,1.22-2.11.76-1.87-.45a122,122,0,0,1,4.83-17.41A27.61,27.61,0,0,1,354.47,355C353.55,353.13,352.86,350.87,353.85,349.06Z" fill="#aed3f2"/>
      <g id="Grupo_57807" data-name="Grupo 57807">
        <g id="Grupo_57805" data-name="Grupo 57805">
          <path id="Trazado_106823" data-name="Trazado 106823" d="M475.14,316.06a17.36,17.36,0,0,0-8.15-4.27,15.52,15.52,0,0,0,3.61-7.9.74.74,0,1,0-1.46-.2c-1.08,11.86-15.38,11.47-21.37,19.37a32,32,0,0,1,.43-12.52,17,17,0,0,0,10.21-4.06,15.881,15.881,0,0,1,3.09-2.65c.86-.46.36-1.89-.5-1.42-3.71,2.92-7.28,6.47-12.37,6.54A31.58,31.58,0,0,1,456,296.29c.45-4.82-6.58,6.14-6.79,7.24a15,15,0,0,1-1.26-8.27.74.74,0,1,0-1.46-.19,16.64,16.64,0,0,0,1.93,10.22,32.181,32.181,0,0,0-2.55,12,16.68,16.68,0,0,1-10-12.91c-.8-5.65,1.44-12.26-1.24-17.54-.51-.82-1.73.12-1.22.93,2.59,6.35-.56,13.78,1.81,20.22-5.2-2.52-11.24-3.95-16.88-1.27-.88.42-.38,1.84.51,1.42,5.87-2.83,12-.64,17.27,2,2,3.87,5.47,7.53,9.74,8.75,1,14.55,9.11,24.28-1.75,38.45a.751.751,0,0,0,1.12,1c8.21-9.32,6.36-22.3,2.9-33.05,2.76-5.27,8.86-6.67,13.59-9.2,3.09-1.76,4.17-3.93,7.87-1.66a13.68,13.68,0,0,1,4.57,3C474.84,318,475.8,316.73,475.14,316.06Z" fill="#212c82"/>
          <g id="Grupo_57804" data-name="Grupo 57804">
            <path id="Trazado_106824" data-name="Trazado 106824" d="M430.57,284a3.28,3.28,0,1,1,6,2.65C434.8,290.81,428.68,288.11,430.57,284Z" fill="#e8c7aa"/>
            <path id="Trazado_106825" data-name="Trazado 106825" d="M413.66,306c1.77-4.16,7.89-1.46,6,2.65a3.28,3.28,0,1,1-6-2.65Z" fill="#e8c7aa"/>
            <path id="Trazado_106826" data-name="Trazado 106826" d="M443.25,291.34a3.29,3.29,0,1,1,.188,3.435,3.29,3.29,0,0,1-.188-3.435Z" fill="#e8c7aa"/>
            <path id="Trazado_106827" data-name="Trazado 106827" d="M454.44,292.47a3.28,3.28,0,1,1,6,2.65C458.67,299.28,452.55,296.58,454.44,292.47Z" fill="#e8c7aa"/>
            <path id="Trazado_106828" data-name="Trazado 106828" d="M458.68,300.82a3.28,3.28,0,1,1,1.675,4.326,3.279,3.279,0,0,1-1.675-4.326Z" fill="#e8c7aa"/>
            <path id="Trazado_106829" data-name="Trazado 106829" d="M468.29,300.67a3.28,3.28,0,1,1,6,2.65C472.52,307.48,466.4,304.78,468.29,300.67Z" fill="#e8c7aa"/>
            <path id="Trazado_106830" data-name="Trazado 106830" d="M472.77,315.45c1.77-4.16,7.89-1.46,6,2.65a3.28,3.28,0,1,1-6-2.65Z" fill="#e8c7aa"/>
          </g>
        </g>
        <g id="Grupo_57806" data-name="Grupo 57806">
          <path id="Trazado_106831" data-name="Trazado 106831" d="M459.22,402.84c-6.13,1.23-12,1.58-17.47,0-3.32-19.93-4.25-39.95,0-59.62a49.07,49.07,0,0,0,17.47,0C463.34,362.9,462.68,383.08,459.22,402.84Z" fill="#a66d58"/>
          <path id="Trazado_106832" data-name="Trazado 106832" d="M459.22,402.85c-6.13,1.22-12,1.57-17.47,0q-.3-1.8-.57-3.6c13.24-5.48,17.11-28,18.09-55.74C463.39,363.48,462.62,383.21,459.22,402.85Z" fill="#53372c"/>
          <path id="Trazado_106833" data-name="Trazado 106833" d="M461.13,355.1c-7.31-3.7-14.61,11.22-21.91,6.41,0-.7.1-1.4.15-2.09,7.16,4.45,14.31-9.8,21.47-6.64C460.94,353.56,461,354.33,461.13,355.1Z" fill="#fff"/>
          <path id="Trazado_106834" data-name="Trazado 106834" d="M461.74,361.69c-7.6-4.95-15.2,11.39-22.79,5.87,0-.71,0-1.43.06-2.14,7.52,5.34,15-10.61,22.55-6C461.63,360.16,461.68,360.93,461.74,361.69Z" fill="#fff"/>
          <path id="Trazado_106835" data-name="Trazado 106835" d="M462,368.14c-7.71-5.6-15.41,11.28-23.11,5.65v-2.21c7.68,5.66,15.37-11.13,23-5.68A15.282,15.282,0,0,1,462,368.14Z" fill="#fff"/>
        </g>
      </g>
      <path id="Trazado_106836" data-name="Trazado 106836" d="M207.55,283.38a4.51,4.51,0,0,0-4.3-1.87,6.85,6.85,0,0,0-4.2,2.4,14.71,14.71,0,0,0-2.44,4.27,18.6,18.6,0,0,0-1.55,8,76.558,76.558,0,0,1-8.23-8.75l-.68-.86,7-4.89a15.07,15.07,0,0,0,4.21-3.81,5.12,5.12,0,0,0,.4-5.4,4.51,4.51,0,0,0-4.3-1.88,6.83,6.83,0,0,0-4.2,2.4,14.76,14.76,0,0,0-2.44,4.28,18.23,18.23,0,0,0-1.54,8.23,79.619,79.619,0,0,1-7.12-11.28l6.95-5.23a14.939,14.939,0,0,0,4.07-4,5.11,5.11,0,0,0,.18-5.41,4.51,4.51,0,0,0-4.37-1.71,6.86,6.86,0,0,0-4.1,2.56,14.44,14.44,0,0,0-2.27,4.37,18.89,18.89,0,0,0-1.28,7.77,79.744,79.744,0,0,1-3.72-8.91c-.31-.9-.6-1.81-.88-2.73l7-5.61a15.06,15.06,0,0,0,3.94-4.1,5.14,5.14,0,0,0,0-5.42,4.51,4.51,0,0,0-4.43-1.56,6.81,6.81,0,0,0-4,2.69,14.66,14.66,0,0,0-2.12,4.44,19.82,19.82,0,0,0-1.09,7,75.217,75.217,0,0,1-1.88-9.52q1.68-4,3.37-8a15.25,15.25,0,0,0,1.51-5.49,5.13,5.13,0,0,0-2.57-4.77,4.51,4.51,0,0,0-4.63.73,6.87,6.87,0,0,0-2.25,4.28,14.36,14.36,0,0,0,.24,4.93,17.53,17.53,0,0,0,3.54,8.29h0a76,76,0,0,0,2,10.13,19.41,19.41,0,0,0-5.46-5,14.7,14.7,0,0,0-4.47-2.08,6.88,6.88,0,0,0-4.81.47,4.52,4.52,0,0,0-2.43,4,5.14,5.14,0,0,0,3.45,4.18,15.321,15.321,0,0,0,5.65.67l8.71-.08a77.392,77.392,0,0,0,4.63,11.74,19.05,19.05,0,0,0-6.82-3.72,14.919,14.919,0,0,0-4.84-.91,6.83,6.83,0,0,0-4.54,1.66,4.5,4.5,0,0,0-1.36,4.49,5.12,5.12,0,0,0,4.38,3.19,14.86,14.86,0,0,0,5.63-.75l8.42-2.24.18.35a80.749,80.749,0,0,0,7,11,17.88,17.88,0,0,0-8.2-2.76,14.511,14.511,0,0,0-4.92.09,6.86,6.86,0,0,0-4.12,2.54,4.51,4.51,0,0,0-.41,4.67,5.13,5.13,0,0,0,4.93,2.25,15,15,0,0,0,5.36-1.89l8-4,.11.14v.08h.06a79.75,79.75,0,0,0,8.57,9.34,19.29,19.29,0,0,0-7.82.22,15.08,15.08,0,0,0-4.73,1.67,7,7,0,0,0-3.16,3.78,4.56,4.56,0,0,0,1.09,4.65,5.2,5.2,0,0,0,5.48.58,15.41,15.41,0,0,0,4.59-3.54l5.85-5.86.21-.14a75.648,75.648,0,0,0,11.28,8.22c.42.25.9-.36.47-.61a75.83,75.83,0,0,1-11.09-8.06l6.68-4.64a15.25,15.25,0,0,0,4.22-3.81A5.15,5.15,0,0,0,207.55,283.38Z" fill="#aed3f2"/>
      <g id="Grupo_57808" data-name="Grupo 57808">
        <path id="Trazado_106837" data-name="Trazado 106837" d="M291.48,230.62c5.52,8.2,25.14,15,26.72,24.91-10.68,4.49-14.52-11.9-22.39-16.75-7.86-3.73-6.64,21.35,2.48,30.44,7.14,7.72,19,1.38,39.88,7,17.89,4.53,19.62,10.31,29.49,9,18.07-2.48,30.46-24.28,28.9-26-.64-.7-3.23,2.18-11,4.8-.51.84-32.06,7.27-23.39-3,11.92-8.41,24.7,4.49,37.51-8.55,9.59-9.78,5.25-29,3.78-29.09-.25,10.24-24,21.64-35,19.52-6.47-1.82-2.06-5.26,3.66-7.34,17.91-9.33,28-13,32.7-28.6,5.78-19.11-13.38-29.19-21.62-50.1,0,0-27.57.47-40,14.2-11.94,13.22,4.38,24.74,3.41,36.78.1,5.25-6.1,7.88-9.9,5.41-7.32-3-10.06-13.13-12-20.43-3.14-12.08-1.46-17-4-17.88-6.69-2.61-18.86,19.84-12.95,29.38,1.77,13.25,26.89,23.07,24,37.41-10.29,2.54-27.37-20.91-30.5-31.89-1-6,.81-10.53-.23-10.89C295.93,202.86,287,222.93,291.48,230.62Z" fill="#aed3f2"/>
        <path id="Trazado_106838" data-name="Trazado 106838" d="M298.15,252.13a19,19,0,0,0,5,7.65,20.12,20.12,0,0,0,7.62,4.41,68.937,68.937,0,0,0,9.54,2.05,90.46,90.46,0,0,1,10.29,2.43,45,45,0,0,1,4.54,1.55,4.67,4.67,0,0,1,2.86,2.62h0c-.07.24-.14.47-.22.71-.27.78-.56,1.55-.89,2.32l.34.08a43.009,43.009,0,0,0,1.49-4.26h0a7,7,0,0,1,1.28-1.48,3.65,3.65,0,0,1,1.61-1,7.88,7.88,0,0,1,2.82.16c.9.17,1.82.37,2.72.58,6.34,1.49,12.51,3.84,19,4.51,5.36.55,11,0,15.63-3,.18-.12,0-.41-.21-.28a20.43,20.43,0,0,1-9,3c-6.2.64-12.29-.95-18.22-2.61-3.28-.93-6.56-1.89-9.92-2.51-1.24-.23-2.68-.49-3.81.2A6.851,6.851,0,0,0,339,270.8a82.566,82.566,0,0,0,1.86-12.52l.06-.59h0A17.25,17.25,0,0,1,348,252c5.7-2.6,12-2.46,18.1-2.08,1.67.1,3.35.21,5,.29a34.231,34.231,0,0,0,4.75,0c2.69-.26,5.48-1.29,7-3.64.12-.19-.15-.41-.27-.22-1.92,3-5.63,3.61-8.91,3.61-6.53,0-13.09-1.23-19.59-.15-5,.83-10.07,3.12-13.19,7.22a66.3,66.3,0,0,1,1.94-11.7,37.454,37.454,0,0,1,2.35-6h0v-.07c.87-1.75,1.84-3.45,2.86-5.11,1.72-2.77,3.55-5.45,5.3-8.2a32.1,32.1,0,0,1,9.29-4.25c5.83-1.82,12.09-2.64,17.44-5.76,4.76-2.78,8.8-8.05,7.83-13.84,0-.22-.38-.18-.34,0a11.87,11.87,0,0,1-2.51,9c-3.73,5-9.92,6.91-15.69,8.39-5.32,1.36-10.93,2.63-15.57,5.69.22-.35.45-.7.67-1.06a57.262,57.262,0,0,0,5.27-11.27c2.73-8.1,3.81-16.62,4.86-25.07a.172.172,0,0,0-.34-.05c-.13,1-.25,2.07-.39,3.1-1,8.13-2.3,16.34-5.23,24,0-2.22-1-4.37-1.87-6.37-1.12-2.49-2.3-5.44-1.07-8.11a.175.175,0,0,0-.32-.14c-1.16,2.5-.27,5.33.77,7.71s2.5,5.15,2.07,7.94h0a65.18,65.18,0,0,1-5.84,10.85c-2.14,3.31-4.4,6.56-6.32,10-.19.33-.36.67-.54,1a13.09,13.09,0,0,0-2.5-9c-2.05-3-5-5.24-7.85-7.42a53.312,53.312,0,0,1-7.86-7.15,45.281,45.281,0,0,1-9.61-18c-.05-.22-.38-.09-.32.13a45.361,45.361,0,0,0,4.22,10.37,46.12,46.12,0,0,0,5.84,8.18,56.348,56.348,0,0,0,7.69,6.87c2.86,2.2,5.81,4.45,7.8,7.52,1.85,2.82,3,6.46,1.93,9.79a39.8,39.8,0,0,0-3.1,8.9,122.211,122.211,0,0,0-1.53,13.1l-.12,1.1a15.63,15.63,0,0,0-4.1-5.9,35.232,35.232,0,0,0-6.32-4.34,77.838,77.838,0,0,1-6.71-4.22,59.05,59.05,0,0,1-11.15-10.56.172.172,0,1,0-.28.2,60.183,60.183,0,0,0,5.77,6.17,58.115,58.115,0,0,0,5.87,4.76c2.12,1.5,4.33,2.8,6.57,4.09a31.909,31.909,0,0,1,6.34,4.46,14.67,14.67,0,0,1,3.9,6.05h0a54.826,54.826,0,0,1-1.85,9.55,5,5,0,0,0-2.67-2.36,38.216,38.216,0,0,0-5.09-1.75,89,89,0,0,0-10.06-2.36,64.549,64.549,0,0,1-9.74-2.13,19.6,19.6,0,0,1-7.64-4.62,18.861,18.861,0,0,1-4.49-7.15.17.17,0,0,0-.3.14Z" fill="#fff"/>
      </g>
      <g id="Grupo_57809" data-name="Grupo 57809">
        <rect id="Rectángulo_8360" data-name="Rectángulo 8360" width="149.12" height="140.48" rx="5.28" transform="translate(198.96 263.02)" fill="#e8c7aa"/>
        <path id="Trazado_106839" data-name="Trazado 106839" d="M341.68,263H205.35a6.33,6.33,0,0,0-4.57,1.94H327.69a6.44,6.44,0,0,1,6.39,6.48V399a6.51,6.51,0,0,1-1.83,4.53h9.43a6.43,6.43,0,0,0,6.39-6.48V269.5a6.43,6.43,0,0,0-6.39-6.5Z" fill="#e85fa2"/>
      </g>
      <g id="Grupo_57815" data-name="Grupo 57815">
        <path id="Trazado_106840" data-name="Trazado 106840" d="M227.79,273.49c-42.54,41.53-14.24,65.24-79.7,116.42-14.2-5.35-28.32.9-37.8,8.83-13.92,11.64,17.32,1.51,38.62,8.31,38.32-15.89,68-36.54,81.29-82.5Z" fill="#d9a171"/>
        <path id="Trazado_106841" data-name="Trazado 106841" d="M306.76,225.47c-6.7-27-.84-44.92-25.34-49.52-6.44-1.21-4.62-6.69-16.65-12.15-36.76-16.69-64.65,22.47-40.57,55,12.52,16.94-3.32,16.92-9.2,52.15-4.71,28.29,44.75,26.43,43.72,32.4-1.57,9,.07,18.21,2.38,27,1,3.92,3.07,21.22,5.37,24.48,9.45,13.39,31.69,4,44.89,13.18,13.7,9.5,5.32,17.33,20.35,24.22,35.27,12,50.49-13.73,40.82-45.65C362.36,315.22,391.72,335,396.88,306,397.5,251.05,318.8,274,306.76,225.47Z" fill="#344154"/>
        <g id="Grupo_57812" data-name="Grupo 57812">
          <path id="Trazado_106842" data-name="Trazado 106842" d="M270.38,283.21h-26.8c-1.29,0,2.35-22.28,2.35-22.28V246.18l19.15-4.65,5,19,.24,20Z" fill="#ffbf9d"/>
          <path id="Trazado_106843" data-name="Trazado 106843" d="M270.34,280.52l-3.73,1s-.56-24.07-4.88-29.5c-3.14-3.94-11.47-2.59-15.77-1.56V246.2l19.15-4.65,5,19Z" fill="#ebb0b0"/>
          <path id="Trazado_106844" data-name="Trazado 106844" d="M301.87,405.51c.44,1,.88,2.07,1.32,3.08H210.35l-.4-.22c.65-1,1.27-1.91,1.85-2.86,36.52-58.76-36.59-106.59,34.13-144.58l4.12,18.39L265.35,265l4.75-4.47c15.65.61,28,3.33,36.66,8.4C280.23,316.59,287.83,371.46,301.87,405.51Z" fill="#d9a171"/>
          <g id="Grupo_57810" data-name="Grupo 57810">
            <path id="Trazado_106845" data-name="Trazado 106845" d="M246.65,290.82a3.07,3.07,0,1,1,3.06,3.06A3.07,3.07,0,0,1,246.65,290.82Z" fill="#a66d58"/>
            <path id="Trazado_106846" data-name="Trazado 106846" d="M244.44,302.52a3.06,3.06,0,1,1,.893,2.17,3.07,3.07,0,0,1-.893-2.17Z" fill="#a66d58"/>
            <circle id="Elipse_4121" data-name="Elipse 4121" cx="3.07" cy="3.07" r="3.07" transform="translate(243.58 311.75)" fill="#a66d58"/>
          </g>
          <path id="Trazado_106847" data-name="Trazado 106847" d="M245.93,260.93l4.12,18.39-4.12,1.32-7.69-11.04Z" fill="#fff"/>
          <path id="Trazado_106848" data-name="Trazado 106848" d="M274.24,268.37,254.19,281.5l-4.14-2.18,20.06-18.84Z" fill="#fff"/>
          <g id="Grupo_57811" data-name="Grupo 57811">
            <path id="Trazado_106849" data-name="Trazado 106849" d="M245.11,290.82a3.07,3.07,0,1,1,3.07,3.06,3.07,3.07,0,0,1-3.07-3.06Z" fill="#fff"/>
            <path id="Trazado_106850" data-name="Trazado 106850" d="M242.9,302.52a3.07,3.07,0,1,1,3.07,3.07,3.07,3.07,0,0,1-3.07-3.07Z" fill="#fff"/>
            <circle id="Elipse_4122" data-name="Elipse 4122" cx="3.07" cy="3.07" r="3.07" transform="translate(242.04 311.75)" fill="#fff"/>
          </g>
        </g>
        <path id="Trazado_106851" data-name="Trazado 106851" d="M303,408.59H285c0-1-.06-2.07-.1-3.08-1.88-45.06-18.31-62.15-4.11-100.6l15.25-4c-14.94,37-2,85.57,5.69,104.58A21,21,0,0,0,303,408.59Z" fill="#a66d58"/>
        <path id="Trazado_106852" data-name="Trazado 106852" d="M346,368.67c-1.56,16.91-53.3,14.07-75.52,12.06-6.1-.55-10-1-10-1-13.08,2.51-23.05,19.37-26.7,13.49-11.84-19.08,6.34-26.45,23.92-26.84l8.92-2.56,43.21-12.44-22-27.64c-15.85-18.93-5-71.67,19-54.84C322,279.57,347.94,347.11,346,368.67Z" fill="#ffbf9d"/>
        <path id="Trazado_106853" data-name="Trazado 106853" d="M346,368.67c-1.56,16.91-53.3,14.07-75.52,12.06l-3.83-17,43.21-12.44-22-27.64c-19.89-23.41-5-71.67,19-54.84C322,279.57,347.94,347.11,346,368.67Z" fill="#d9a171"/>
        <path id="Trazado_106854" data-name="Trazado 106854" d="M306.73,268.86a20.279,20.279,0,0,0-4.16-2.3c15.38,15.08,38.9,77.39,37,97.94-1.44,15.63-45.72,14.38-70,12.52l.83,3.71c22.22,2,74,4.85,75.52-12.06C347.94,347.11,322,279.57,306.73,268.86Z" fill="#a66d58"/>
        <path id="Trazado_106855" data-name="Trazado 106855" d="M275,223.63s-3.62,13.53-12.45,20.11a20.434,20.434,0,0,1-2.16,1.4A16.4,16.4,0,0,1,249.33,247c-9.74-1.67-21.12-9.22-24.14-29.87-2.78-18.92,1-22.7,2.62-23.45h0a1.79,1.79,0,0,1,.66-.18s14.08,6.65,28.8-8.54c0,0,5.89,18.41,13.79,25.8C287.28,199.08,281.1,221,275,223.63Z" fill="#ffbf9d"/>
        <path id="Trazado_106856" data-name="Trazado 106856" d="M275,223.63s-3.62,13.53-12.45,20.11c6.43-6,9.41-26.94,4.36-30.33-8.88-5.95-9.23-20.75-10.27-22.41s-7.41,5.91-15.93,6.06-12.93-3.4-12.93-3.4h0a1.791,1.791,0,0,1,.66-.18s14.08,6.65,28.8-8.54c0,0,5.89,18.41,13.79,25.8C287.28,199.08,281.1,221,275,223.63Z" fill="#d9a171"/>
        <path id="Trazado_106857" data-name="Trazado 106857" d="M277.45,228.73Z" fill="#b7d8f2"/>
        <g id="Grupo_57814" data-name="Grupo 57814">
          <g id="Grupo_57813" data-name="Grupo 57813">
            <path id="Trazado_106858" data-name="Trazado 106858" d="M246.21,405.45H111.67a9.66,9.66,0,0,1-9.61-8.64l-9.37-88.13A9.67,9.67,0,0,1,102.3,298H236.85a9.66,9.66,0,0,1,9.6,8.64l9.37,88.12a9.67,9.67,0,0,1-9.61,10.69Z" fill="#5e6178"/>
            <path id="Trazado_106859" data-name="Trazado 106859" d="M255.82,394.76l-9.37-88.12a9.66,9.66,0,0,0-9.6-8.64H229c10.25,101.38-11.83,97.25-57.49,97.25H101.89l.17,1.56a9.66,9.66,0,0,0,9.61,8.64H246.21a9.67,9.67,0,0,0,9.61-10.69Z" fill="#47495a"/>
            <circle id="Elipse_4123" data-name="Elipse 4123" cx="7.59" cy="7.59" r="7.59" transform="translate(166.67 344.13)" fill="#fff"/>
          </g>
          <rect id="Rectángulo_8361" data-name="Rectángulo 8361" width="76.65" height="11.68" rx="2.73" transform="translate(242.05 393.83)" fill="#7179a6"/>
        </g>
      </g>
      <g id="Grupo_57823" data-name="Grupo 57823">
        <g id="Grupo_57816" data-name="Grupo 57816">
          <path id="Trazado_106860" data-name="Trazado 106860" d="M30.44,306.77h0a1,1,0,0,1-.94-1c0-1.21,0-2.41.07-3.61a.966.966,0,0,1,1.93.07c0,1.19-.06,2.38-.08,3.58A1,1,0,0,1,30.44,306.77Z" fill="#6595bf"/>
          <path id="Trazado_106861" data-name="Trazado 106861" d="M30.86,295.9H30.8a1,1,0,0,1-.89-1c.15-2.42.35-4.87.58-7.29a1,1,0,0,1,1.91.19c-.23,2.39-.43,4.82-.58,7.22A1,1,0,0,1,30.86,295.9Zm1.42-14.49h-.13a1,1,0,0,1-.82-1.08c.32-2.41.68-4.84,1.08-7.23a1,1,0,1,1,1.89.31c-.39,2.37-.75,4.79-1.07,7.17a1,1,0,0,1-.95.83ZM34.68,267a.651.651,0,0,1-.19,0,1,1,0,0,1-.75-1.13c.49-2.38,1-4.79,1.58-7.14a1,1,0,1,1,1.87.45c-.56,2.33-1.09,4.71-1.57,7.07A1,1,0,0,1,34.68,267Zm3.39-14.16a.73.73,0,0,1-.25,0,1,1,0,0,1-.67-1.17c.64-2.34,1.34-4.7,2.07-7a.954.954,0,1,1,1.82.57c-.72,2.31-1.41,4.64-2,7a1,1,0,0,1-.97.64ZM42.43,239a.91.91,0,0,1-.32-.06,1,1,0,0,1-.58-1.22c.8-2.29,1.66-4.6,2.54-6.86a1,1,0,0,1,1.79.7c-.88,2.24-1.73,4.53-2.53,6.8A1,1,0,0,1,42.43,239Zm5.3-13.57a.941.941,0,0,1-.88-1.33l.61-1.41c.78-1.77,1.58-3.54,2.4-5.26a.957.957,0,1,1,1.73.82c-.8,1.71-1.6,3.46-2.37,5.21-.2.46-.41.93-.61,1.4a1,1,0,0,1-.88.56Zm6.21-13.17a.949.949,0,0,1-.85-1.4c1.11-2.16,2.27-4.33,3.45-6.44a1,1,0,0,1,1.68.93c-1.17,2.1-2.32,4.25-3.42,6.39a1,1,0,0,1-.86.51ZM61,199.53a.93.93,0,0,1-.5-.14,1,1,0,0,1-.32-1.31c1.25-2.08,2.56-4.16,3.89-6.2a1,1,0,1,1,1.6,1.05c-1.31,2-2.61,4.08-3.85,6.14A1,1,0,0,1,61,199.53Zm8-12.2a.94.94,0,0,1-.55-.17,1,1,0,0,1-.23-1.34c1.39-2,2.84-4,4.3-5.91A1,1,0,1,1,74,181.07c-1.45,1.92-2.89,3.89-4.26,5.86A1,1,0,0,1,69,187.33Zm8.77-11.62a.954.954,0,0,1-.74-1.56c1.52-1.89,3.1-3.77,4.7-5.61a1,1,0,0,1,1.44,1.26c-1.57,1.82-3.14,3.69-4.65,5.56a1,1,0,0,1-.76.35Zm9.55-11a1,1,0,0,1-.71-1.61c1.65-1.77,3.36-3.55,5.07-5.27A1,1,0,1,1,93,159.18c-1.7,1.71-3.39,3.47-5,5.23a1,1,0,0,1-.69.3Zm10.26-10.32a1,1,0,0,1-.65-1.66c1.77-1.67,3.59-3.32,5.41-4.92a1,1,0,1,1,1.26,1.44c-1.8,1.58-3.61,3.22-5.36,4.88a1,1,0,0,1-.67.26Zm10.94-9.62a1,1,0,0,1-.61-1.7c1.88-1.55,3.81-3.08,5.73-4.55a.959.959,0,1,1,1.17,1.52c-1.91,1.46-3.82,3-5.68,4.51a1,1,0,0,1-.62.22Zm11.56-8.86a1,1,0,0,1-.55-1.74c2-1.41,4-2.8,6-4.14a1,1,0,0,1,1.06,1.6c-2,1.33-4,2.71-6,4.1a1,1,0,0,1-.52.18Zm12.15-8a1,1,0,0,1-.51-1.77c2.07-1.27,4.19-2.52,6.3-3.72a1,1,0,0,1,1,1.67c-2.09,1.18-4.19,2.42-6.24,3.68a.93.93,0,0,1-.56.1Zm12.66-7.18a1,1,0,0,1-.44-1.81c2.15-1.12,4.35-2.22,6.54-3.27a1,1,0,1,1,.83,1.72c-2.17,1-4.35,2.14-6.48,3.25a.93.93,0,0,1-.46.07Zm13.13-6.3a1,1,0,0,1-.39-1.83c1.77-.78,3.57-1.54,5.36-2.27l1.39-.56a1,1,0,1,1,.71,1.78l-1.37.56c-1.78.72-3.57,1.47-5.32,2.24a.84.84,0,0,1-.4.04ZM171.54,109a1,1,0,0,1-.33-1.86c2.29-.83,4.62-1.62,6.93-2.36a1,1,0,0,1,.59,1.82c-2.29.74-4.6,1.53-6.87,2.34A.87.87,0,0,1,171.54,109Zm13.86-4.46a1,1,0,0,1-.26-1.88c2.34-.66,4.72-1.3,7.07-1.88a1,1,0,0,1,1.16.7.94.94,0,0,1-.7,1.16c-2.33.58-4.69,1.21-7,1.86a.75.75,0,0,1-.27.04Zm14.14-3.49a1,1,0,0,1-.2-1.9c2.37-.5,4.79-1,7.19-1.38a1,1,0,0,1,.33,1.89c-2.38.41-4.77.87-7.12,1.37Zm14.34-2.51a.96.96,0,0,1-.13-1.91c2.41-.33,4.85-.63,7.26-.88a1,1,0,1,1,.2,1.91c-2.39.25-4.81.54-7.19.87ZM228.37,97a1,1,0,0,1-.07-1.92c2.42-.17,4.88-.3,7.3-.38a1,1,0,1,1,.07,1.91c-2.4.09-4.84.22-7.24.39Z" fill="#6595bf"/>
          <path id="Trazado_106862" data-name="Trazado 106862" d="M246.56,96.52h-3.57a1,1,0,0,1,0-2h3.61a1,1,0,1,1,0,1.91Z" fill="#6595bf"/>
        </g>
        <g id="Grupo_57817" data-name="Grupo 57817">
          <path id="Trazado_106863" data-name="Trazado 106863" d="M246.31,114.73h-3.58a1,1,0,0,1,0-1.92h3.61a1,1,0,1,1,0,1.91Z" fill="#6595bf"/>
          <path id="Trazado_106864" data-name="Trazado 106864" d="M49.11,296.08H49a1,1,0,0,1-.89-1c.17-2.42.39-4.88.65-7.3a.94.94,0,0,1,1.05-.85A1,1,0,0,1,50.7,288c-.25,2.4-.47,4.83-.63,7.23A1,1,0,0,1,49.11,296.08Zm1.55-14.5h-.14a1,1,0,0,1-.81-1.09c.35-2.41.75-4.84,1.19-7.23a1,1,0,1,1,1.88.35c-.43,2.36-.82,4.77-1.17,7.16A1,1,0,0,1,50.66,281.58Zm2.63-14.34h-.21a1,1,0,0,1-.72-1.14c.53-2.38,1.11-4.77,1.73-7.12a.957.957,0,0,1,1.85.49c-.61,2.32-1.19,4.69-1.71,7.05A1,1,0,0,1,53.29,267.24ZM57,253.14a.92.92,0,0,1-.28,0,1,1,0,0,1-.64-1.19c.71-2.33,1.47-4.68,2.26-7a1,1,0,0,1,1.22-.59.94.94,0,0,1,.59,1.21c-.78,2.28-1.53,4.6-2.23,6.91a1,1,0,0,1-.92.66Zm4.76-13.79a.95.95,0,0,1-.9-1.3c.88-2.26,1.81-4.53,2.77-6.76a1,1,0,0,1,1.76.76c-1,2.21-1.87,4.46-2.74,6.69a1,1,0,0,1-.89.61ZM67.52,226a.951.951,0,0,1-.86-1.37c1-2.19,2.14-4.39,3.27-6.54a1,1,0,0,1,1.7.89c-1.12,2.13-2.21,4.31-3.24,6.48A1,1,0,0,1,67.52,226Zm6.76-12.89a1,1,0,0,1-.83-1.43c1.2-2.11,2.46-4.22,3.75-6.28a1,1,0,1,1,1.63,1c-1.28,2-2.53,4.13-3.72,6.22A1,1,0,0,1,74.28,213.11ZM82,200.75a.948.948,0,0,1-.79-1.49c1.36-2,2.78-4,4.21-6A1,1,0,0,1,87,194.4c-1.42,1.94-2.83,3.94-4.18,5.93A.92.92,0,0,1,82,200.75ZM90.58,189a.93.93,0,0,1-.59-.21,1,1,0,0,1-.16-1.35c1.51-1.91,3.08-3.81,4.65-5.66a.961.961,0,0,1,1.46,1.25c-1.56,1.82-3.11,3.71-4.61,5.6a.93.93,0,0,1-.75.37ZM100,177.91a1,1,0,0,1-.71-1.61c1.65-1.79,3.35-3.57,5.06-5.3a1,1,0,1,1,1.36,1.35c-1.69,1.71-3.38,3.48-5,5.25A1,1,0,0,1,100,177.91Zm10.25-10.37a.93.93,0,0,1-.69-.3.94.94,0,0,1,0-1.35c1.77-1.66,3.6-3.32,5.44-4.92a1,1,0,1,1,1.25,1.45c-1.81,1.58-3.63,3.22-5.38,4.86a.92.92,0,0,1-.58.26Zm11-9.57a.93.93,0,0,1-.74-.36,1,1,0,0,1,.14-1.35c1.89-1.52,3.84-3,5.79-4.5a1,1,0,0,1,1.15,1.54c-1.93,1.44-3.86,2.94-5.73,4.45a.94.94,0,0,1-.57.25ZM133,149.23a1,1,0,0,1-.55-1.75c2-1.38,4.06-2.75,6.11-4.06a1,1,0,0,1,1,1.62c-2,1.29-4.06,2.65-6,4A1,1,0,0,1,133,149.23Zm12.3-7.85a1,1,0,0,1-.48-1.78c2.1-1.24,4.25-2.44,6.39-3.6a1,1,0,0,1,.91,1.69c-2.12,1.14-4.25,2.34-6.33,3.56a1,1,0,0,1-.51.13Zm12.86-6.91a1,1,0,0,1-.42-1.82c2.19-1.07,4.43-2.11,6.65-3.1a.958.958,0,1,1,.78,1.75c-2.2,1-4.42,2-6.59,3.07a.87.87,0,0,1-.44.1Zm13.36-5.93a1,1,0,0,1-.36-1.85c2.26-.9,4.57-1.77,6.87-2.59a1,1,0,0,1,.64,1.8c-2.27.81-4.56,1.68-6.8,2.57a.91.91,0,0,1-.37.07Zm13.76-4.9a1,1,0,0,1-.29-1.88c2.33-.73,4.7-1.43,7.05-2.07a1,1,0,1,1,.51,1.85c-2.33.64-4.68,1.33-7,2a1,1,0,0,1-.29.1Zm14.09-3.86a1,1,0,0,1-.22-1.89c2.37-.55,4.78-1.06,7.16-1.53a.963.963,0,0,1,.37,1.89c-2.36.45-4.75,1-7.1,1.51a.75.75,0,0,1-.23.02ZM213.66,117a1,1,0,0,1-.15-1.91c2.4-.37,4.85-.7,7.26-1A.962.962,0,1,1,221,116c-2.39.28-4.81.61-7.18,1Zm14.48-1.69a1,1,0,0,1-.07-1.91c2.42-.19,4.88-.34,7.31-.44a1,1,0,1,1,.08,1.91c-2.41.1-4.85.25-7.24.44Z" fill="#6595bf"/>
          <path id="Trazado_106865" data-name="Trazado 106865" d="M48.65,307h0a1,1,0,0,1-.94-1c0-1.22,0-2.43.08-3.61a1,1,0,0,1,1-.93h0a1,1,0,0,1,.93,1c0,1.17-.07,2.37-.09,3.58a1,1,0,0,1-.98.96Z" fill="#6595bf"/>
        </g>
        <circle id="Elipse_4124" data-name="Elipse 4124" cx="33.42" cy="33.42" r="33.42" transform="translate(156.737 87.269) rotate(-45)" fill="#d9a171"/>
        <circle id="Elipse_4125" data-name="Elipse 4125" cx="33.42" cy="33.42" r="33.42" transform="translate(3.107 161.439) rotate(-22.5)" fill="#d0c9ff"/>
        <circle id="Elipse_4126" data-name="Elipse 4126" cx="23.34" cy="23.34" r="23.34" transform="translate(115.913 138.943) rotate(-22.5)" fill="#e8c7aa"/>
        <circle id="Elipse_4127" data-name="Elipse 4127" cx="23.34" cy="23.34" r="23.34" transform="translate(49.59 228.68)" fill="#d9a171"/>
        <path id="Trazado_106866" data-name="Trazado 106866" d="M152.9,156.39c0-3.46-2-5.39-5.94-6.93v-8.19a9.5,9.5,0,0,1,4.15,1.12l.84-2.5a10.59,10.59,0,0,0-5-1.16v-3.32h-2.5V139c-3.35.74-5.45,3.15-5.45,6.22s2.06,5,5.45,6.42v9.09a11,11,0,0,1-5.17-1.55l-.77,2.57a12.27,12.27,0,0,0,5.94,1.52v3.32H147V163C151,162.24,152.9,159.49,152.9,156.39Zm-10.79-11.57a3.41,3.41,0,0,1,2.35-3.2v6.7C142.85,147.41,142.11,146.41,142.11,144.82ZM147,160.37v-7.72c2,1,2.81,2.2,2.81,4a3.79,3.79,0,0,1-2.81,3.72Z" fill="#fff"/>
        <path id="Trazado_106867" data-name="Trazado 106867" d="M58.63,245.87a6.8,6.8,0,0,1,.69-3,4.84,4.84,0,0,1,2.1-2.19,6.94,6.94,0,0,1,3.35-.77,6,6,0,0,1,4.48,1.63,6.55,6.55,0,0,1,0,8.67,6,6,0,0,1-4.48,1.63,6.94,6.94,0,0,1-3.35-.77,4.84,4.84,0,0,1-2.1-2.19,6.81,6.81,0,0,1-.69-3.01Zm4.34,0a4.88,4.88,0,0,0,.62,2.78,1.35,1.35,0,0,0,1.18.57,1.32,1.32,0,0,0,1.16-.57,4.88,4.88,0,0,0,.62-2.78,5,5,0,0,0-.62-2.79,1.33,1.33,0,0,0-1.16-.55,1.36,1.36,0,0,0-1.18.55A4.92,4.92,0,0,0,63,245.9Zm14.91-6h3.27l-13.1,24.22H64.81ZM75,258.13a6.8,6.8,0,0,1,.68-3,4.76,4.76,0,0,1,2.1-2.18,6.84,6.84,0,0,1,3.34-.78,6.12,6.12,0,0,1,4.5,1.63,6.56,6.56,0,0,1,0,8.68,6.08,6.08,0,0,1-4.5,1.63,7,7,0,0,1-3.34-.77,4.83,4.83,0,0,1-2.1-2.19,6.77,6.77,0,0,1-.68-3.02Zm4.34,0a4.92,4.92,0,0,0,.62,2.79,1.31,1.31,0,0,0,1.16.55,1.36,1.36,0,0,0,1.18-.55,4.93,4.93,0,0,0,.61-2.79,5,5,0,0,0-.61-2.8,1.36,1.36,0,0,0-1.18-.55,1.31,1.31,0,0,0-1.16.57,4.88,4.88,0,0,0-.64,2.81Z" fill="#fff"/>
        <g id="Grupo_57819" data-name="Grupo 57819">
          <g id="Grupo_57818" data-name="Grupo 57818">
            <rect id="Rectángulo_8362" data-name="Rectángulo 8362" width="3.59" height="3.96" transform="translate(37.31 188)" fill="#dbdfff"/>
            <rect id="Rectángulo_8363" data-name="Rectángulo 8363" width="3.59" height="11.92" transform="translate(43.72 180.04)" fill="#dbdfff"/>
            <rect id="Rectángulo_8364" data-name="Rectángulo 8364" width="3.59" height="7.45" transform="translate(50.13 184.51)" fill="#dbdfff"/>
            <rect id="Rectángulo_8365" data-name="Rectángulo 8365" width="3.59" height="15.26" transform="translate(56.53 176.71)" fill="#dbdfff"/>
          </g>
          <path id="Trazado_106868" data-name="Trazado 106868" d="M34.43,193.35V160.74h-.88v33.5H64.91v-.89Z" fill="#dbdfff"/>
          <path id="Trazado_106869" data-name="Trazado 106869" d="M59.54,170.1l-1.92-.29-1.91-.3c-.12,0-.17.11-.11.23l.8,1.44-3.9,2.1-1.21-1.14-.36-.34-.44.22-5.56,2.78-1.39-.8-.29-.16L43,174l-6.27,2.4a.163.163,0,0,0,.1.31l1.27-.27,5-1,1.49.81.33.18.33-.16,5.45-2.72,1.22,1.15.37.35.45-.24,4.36-2.35.27.49.53,1c0,.11.17.14.23.08h0l.78-1.77.74-1.67v-.09a.23.23,0,0,0-.11-.4Z" fill="#dbdfff"/>
        </g>
        <circle id="Elipse_4128" data-name="Elipse 4128" cx="33.42" cy="33.42" r="33.42" transform="translate(0.048 179.534) rotate(-45)" fill="#6595bf"/>
        <g id="Grupo_57821" data-name="Grupo 57821">
          <g id="Grupo_57820" data-name="Grupo 57820">
            <rect id="Rectángulo_8366" data-name="Rectángulo 8366" width="4.44" height="4.9" transform="translate(33.44 190.91)" fill="#fff"/>
            <rect id="Rectángulo_8367" data-name="Rectángulo 8367" width="4.44" height="14.73" transform="translate(41.36 181.07)" fill="#fff"/>
            <rect id="Rectángulo_8368" data-name="Rectángulo 8368" width="4.44" height="9.21" transform="translate(49.27 186.59)" fill="#fff"/>
            <rect id="Rectángulo_8369" data-name="Rectángulo 8369" width="4.44" height="18.86" transform="translate(57.19 176.94)" fill="#fff"/>
          </g>
          <path id="Trazado_106870" data-name="Trazado 106870" d="M29.87,197.52V157.2H28.78v41.41H67.55v-1.09Z" fill="#fff"/>
          <path id="Trazado_106871" data-name="Trazado 106871" d="M60.91,168.78l-2.37-.37-2.37-.36c-.13,0-.2.13-.12.28l1,1.78-4.82,2.59-1.49-1.4-.45-.42-.55.27-6.87,3.43-1.72-.94-.35-.19-.32.12-7.74,3a.19.19,0,0,0-.12.22.2.2,0,0,0,.23.16l1.58-.33,6.16-1.26,1.84,1,.4.23.41-.21L50,173l1.51,1.42.46.44.56-.31,5.38-2.89.34.6.65,1.19c.07.13.21.17.28.09h0l1-2.19.92-2.07.05-.11a.27.27,0,0,0-.24-.39Z" fill="#fff"/>
        </g>
        <g id="Grupo_57822" data-name="Grupo 57822">
          <path id="Trazado_106872" data-name="Trazado 106872" d="M204.87,106.48a20.56,20.56,0,0,1-13.22-4.78l13.44-14.14,16.78,10a20.65,20.65,0,0,1-17,8.92Z" fill="#fff"/>
          <path id="Trazado_106873" data-name="Trazado 106873" d="M206.11,84.75V65.53a20.57,20.57,0,0,1,19.31,19.22Z" fill="#fff"/>
          <path id="Trazado_106874" data-name="Trazado 106874" d="M213.23,87.92h16a20.36,20.36,0,0,1-2.28,8.2Z" fill="#fff"/>
          <path id="Trazado_106875" data-name="Trazado 106875" d="M189.84,100a20.23,20.23,0,0,1-5.56-14,20.57,20.57,0,0,1,19.35-20.46v20Z" fill="#fff"/>
        </g>
      </g>
      <g id="Grupo_57824" data-name="Grupo 57824">
        <path id="Trazado_106876" data-name="Trazado 106876" d="M399.76,404.84H42.18a1.56,1.56,0,0,1,0-3.12H399.76a1.56,1.56,0,1,1,0,3.12Z" fill="#212c82"/>
        <path id="Trazado_106877" data-name="Trazado 106877" d="M491.72,404.84h-79a1.56,1.56,0,0,1,0-3.12h79a1.56,1.56,0,1,1,0,3.12Z" fill="#212c82"/>
      </g>
      <g id="Grupo_57827" data-name="Grupo 57827">
        <g id="Grupo_57825" data-name="Grupo 57825">
          <path id="Trazado_106878" data-name="Trazado 106878" d="M114.67,391.38v8.78H89.14a4.39,4.39,0,0,1,0-8.78Z" fill="#fff"/>
          <path id="Trazado_106879" data-name="Trazado 106879" d="M89.14,391.38c-3.83,0-6.53,4.94-2.08,8.78h27.61v1.74H40.62V389.65h74.05v1.73Z" fill="#e8c7aa"/>
          <path id="Trazado_106880" data-name="Trazado 106880" d="M84.75,395.78a4.39,4.39,0,0,0,4.39,4.38h25.53v1.74H89.14a6.13,6.13,0,0,1,0-12.25h25.53v1.73H89.14A4.4,4.4,0,0,0,84.75,395.78Z" fill="#f25ca9"/>
          <rect id="Rectángulo_8370" data-name="Rectángulo 8370" width="1.64" height="12.25" transform="translate(66.49 389.65)" fill="#fff"/>
          <rect id="Rectángulo_8371" data-name="Rectángulo 8371" width="1.64" height="12.25" transform="translate(62.38 389.65)" fill="#fff"/>
          <path id="Trazado_106881" data-name="Trazado 106881" d="M90.81,394.52v3.82l1.94-1.35,1.94,1.35v-3.82Z" fill="#e24897"/>
          <path id="Trazado_106882" data-name="Trazado 106882" d="M71.69,396.43A3.56,3.56,0,1,1,75.25,400a3.56,3.56,0,0,1-3.56-3.57Z" fill="#fff"/>
        </g>
        <g id="Grupo_57826" data-name="Grupo 57826">
          <path id="Trazado_106883" data-name="Trazado 106883" d="M47.63,379.13v8.78H73.15a4.39,4.39,0,0,0,0-8.78Z" fill="#fff"/>
          <path id="Trazado_106884" data-name="Trazado 106884" d="M73.15,379.13c3.83,0,6.53,4.94,2.09,8.78H47.63v1.74h74.05V377.4H47.63v1.73Z" fill="#d9a171"/>
          <path id="Trazado_106885" data-name="Trazado 106885" d="M77.54,383.53a4.39,4.39,0,0,1-4.39,4.38H47.63v1.74H73.15a6.13,6.13,0,0,0,0-12.25H47.63v1.73H73.15A4.4,4.4,0,0,1,77.54,383.53Z" fill="#a496ff"/>
          <rect id="Rectángulo_8372" data-name="Rectángulo 8372" width="1.64" height="12.25" transform="translate(95.81 389.65) rotate(180)" fill="#fff"/>
          <rect id="Rectángulo_8373" data-name="Rectángulo 8373" width="1.64" height="12.25" transform="translate(99.92 389.65) rotate(180)" fill="#fff"/>
          <path id="Trazado_106886" data-name="Trazado 106886" d="M71.49,382.28v3.81l-1.94-1.35-1.94,1.35v-3.81Z" fill="#e24897"/>
          <path id="Trazado_106887" data-name="Trazado 106887" d="M83.46,383.52a3.36,3.36,0,1,1,3.36,3.36,3.36,3.36,0,0,1-3.36-3.36Z" fill="#fff"/>
        </g>
      </g>
      <path id="Trazado_106888" data-name="Trazado 106888" d="M312.64,130.07v-4.63a1.9,1.9,0,1,0-3.8,0v4.63h-4.63a1.9,1.9,0,0,0,0,3.8h4.63v4.63a1.9,1.9,0,0,0,3.24,1.34,1.87,1.87,0,0,0,.56-1.34v-4.63h4.62a1.88,1.88,0,0,0,1.9-1.9,1.9,1.9,0,0,0-1.9-1.9Z" fill="#aed3f2"/>
      <path id="Trazado_106889" data-name="Trazado 106889" d="M438.42,208.13V203.5a1.91,1.91,0,0,0-3.81,0v4.63H430a1.9,1.9,0,0,0,0,3.8h4.63v4.62a1.91,1.91,0,0,0,1.9,1.91,1.93,1.93,0,0,0,1.35-.56,1.88,1.88,0,0,0,.55-1.35v-4.62H443a1.9,1.9,0,0,0,0-3.8Z" fill="#aed3f2"/>
      <g id="Grupo_57828" data-name="Grupo 57828">
        <path id="Trazado_106890" data-name="Trazado 106890" d="M110.77,196.92h0a1.85,1.85,0,0,1,1.86-1.85h13a1.85,1.85,0,0,1,1.85,1.85h0a1.85,1.85,0,0,1-1.85,1.85h-13a1.85,1.85,0,0,1-1.86-1.85Z" fill="#aed3f2"/>
        <path id="Trazado_106891" data-name="Trazado 106891" d="M110.77,204.18h0a1.85,1.85,0,0,1,1.86-1.85h13a1.85,1.85,0,0,1,1.85,1.85h0A1.85,1.85,0,0,1,125.6,206h-13a1.86,1.86,0,0,1-1.83-1.82Z" fill="#aed3f2"/>
      </g>
      <g id="Grupo_57829" data-name="Grupo 57829">
        <path id="Trazado_106892" data-name="Trazado 106892" d="M388.16,124.91h0c0-1,.55-1.85,1.23-1.85H398c.68,0,1.23.83,1.23,1.85h0c0,1-.55,1.85-1.23,1.85h-8.65C388.71,126.76,388.16,125.93,388.16,124.91Z" fill="#aed3f2"/>
        <path id="Trazado_106893" data-name="Trazado 106893" d="M388.16,132.18h0c0-1,.55-1.85,1.23-1.85H398c.68,0,1.23.82,1.23,1.85h0c0,1-.55,1.85-1.23,1.85h-8.65C388.71,134,388.16,133.2,388.16,132.18Z" fill="#aed3f2"/>
      </g>
      <path id="Trazado_106894" data-name="Trazado 106894" d="M407.43,382.69a10.06,10.06,0,1,1,10.05-10.05,10.06,10.06,0,0,1-10.05,10.05Zm0-16.56a6.51,6.51,0,1,0,6.51,6.51,6.51,6.51,0,0,0-6.51-6.51Z" fill="#aed3f2"/>
      <path id="Trazado_106895" data-name="Trazado 106895" d="M107.55,122.85a10.06,10.06,0,1,1,10-10,10.06,10.06,0,0,1-10,10Zm0-16.56a6.51,6.51,0,1,0,6.51,6.51,6.51,6.51,0,0,0-6.51-6.51Z" fill="#aed3f2"/>
      <path id="Trazado_106896" data-name="Trazado 106896" d="M201.08,183.43l3.27-3.27a1.9,1.9,0,1,0-2.69-2.69l-3.27,3.27-3.28-3.27a1.9,1.9,0,1,0-2.69,2.69l3.28,3.27-3.27,3.27a1.9,1.9,0,1,0,2.69,2.69l3.27-3.27,3.26,3.27A1.93,1.93,0,0,0,203,190a1.91,1.91,0,0,0,1.34-3.25Z" fill="#aed3f2"/>
      <path id="Trazado_106897" data-name="Trazado 106897" d="M48.23,326.64l3.28-3.27a1.9,1.9,0,1,0-2.69-2.69L45.54,324l-3.27-3.27a1.9,1.9,0,0,0-2.69,2.69l3.27,3.27-3.26,3.27a1.9,1.9,0,1,0,2.69,2.69l3.26-3.27,3.27,3.27a1.9,1.9,0,1,0,2.69-2.69Z" fill="#aed3f2"/>
    </g>
    <g id="Grupo_57831" data-name="Grupo 57831">
      <path id="Trazado_106898" data-name="Trazado 106898" d="M231.36,211.68a2.05,2.05,0,1,0,1.62-2.36,2,2,0,0,0-1.62,2.36Z" fill="#344154"/>
      <path id="Trazado_106899" data-name="Trazado 106899" d="M229,209.93c.3.22,1.55-1.31,3.7-1.88s4,.16,4.17-.18-.28-.57-1.1-.89a5.51,5.51,0,0,0-6.27,1.66C228.93,209.32,228.82,209.86,229,209.93Z" fill="#344154"/>
      <path id="Trazado_106900" data-name="Trazado 106900" d="M249,210a2.08,2.08,0,1,0,1.8-2.28h-.11A2.07,2.07,0,0,0,249,210Z" fill="#344154"/>
      <path id="Trazado_106901" data-name="Trazado 106901" d="M247.28,208.07c.32.21,1.58-1.32,3.72-1.88s4,.15,4.15-.18-.28-.57-1.07-.9a5.53,5.53,0,0,0-6.28,1.66C247.27,207.45,247.15,208,247.28,208.07Z" fill="#344154"/>
      <path id="Trazado_106902" data-name="Trazado 106902" d="M244.6,228.65a16.379,16.379,0,0,0-3.63.29c-.53.1-1.1.22-1.33-.25a2.59,2.59,0,0,1,0-1.76l.6-4.65c.42-3.32.74-6.32,1-8.5a15.47,15.47,0,0,0,.13-3.53,15.671,15.671,0,0,0-.73,3.46c-.35,2.16-.79,5.15-1.12,8.37-.18,1.61-.35,3.13-.54,4.67a3.25,3.25,0,0,0,.25,2.23,1.85,1.85,0,0,0,2,.44A17.74,17.74,0,0,0,244.6,228.65Z" fill="#344154"/>
      <path id="Trazado_106903" data-name="Trazado 106903" d="M248.11,230.17c1.91-1.88-5.38,4.74-9.8,5.63a6.25,6.25,0,0,0,7.61.54C250.12,233.52,248.11,230.17,248.11,230.17Z" fill="#fff"/>
    </g>
  </g>
</svg>
