<svg xmlns="http://www.w3.org/2000/svg" width="250" height="250" viewBox="0 0 250 250">
  <g id="Grupo_58371" data-name="Grupo 58371" transform="translate(-196.254 -3364.878)">
    <rect id="Rectángulo_8887" data-name="Rectángulo 8887" width="250" height="250" transform="translate(196.254 3364.878)" fill="none"/>
    <g id="Grupo_58366" data-name="Grupo 58366" transform="translate(202.013 3370.836)">
      <circle id="Elipse_4178" data-name="Elipse 4178" cx="108.937" cy="108.937" r="108.937" transform="translate(0 216.814) rotate(-84.345)" fill="#f2e9e4"/>
      <path id="Trazado_110214" data-name="Trazado 110214" d="M428.827,3488.713H423.14A103.249,103.249,0,1,1,392.9,3415.7a102.906,102.906,0,0,1,30.241,73.009h11.373a114.622,114.622,0,1,0-33.572,81.051,114.288,114.288,0,0,0,33.572-81.051Z" transform="translate(-200.748 -3369.572)" fill="#fff"/>
    </g>
    <g id="Grupo_58370" data-name="Grupo 58370" transform="translate(251.575 3392.598)">
      <path id="Trazado_110215" data-name="Trazado 110215" d="M305.1,3475.027a18.335,18.335,0,1,0-9.168-34.229v-8.553h46.093a18.382,18.382,0,0,0,15.023,15.025v18.847a18.379,18.379,0,0,0-15.023,15.023H295.928v-8.552a18.254,18.254,0,0,0,9.168,2.44Z" transform="translate(-237.866 -3383.351)" fill="#fff"/>
      <g id="Grupo_58369" data-name="Grupo 58369">
        <g id="Grupo_58367" data-name="Grupo 58367" transform="translate(3.056 3.056)">
          <path id="Trazado_110216" data-name="Trazado 110216" d="M351.461,3399.579a7.637,7.637,0,0,0-7.634-7.64h-25.98l-3.056,9.167H284.232l-3.056-9.167H255.2a7.639,7.639,0,0,0-7.64,7.636v168.077a7.639,7.639,0,0,0,7.636,7.64h88.625a7.637,7.637,0,0,0,7.639-7.635v-68.761h11.914l.52-.256,12.013-5.856v-67.23H351.461ZM366.74,3450v24.447a15.279,15.279,0,0,0-15.279,15.279H299.511v-18.335a15.279,15.279,0,1,0,0-18.335V3434.72h51.949A15.28,15.28,0,0,0,366.74,3450Z" transform="translate(-247.561 -3391.939)" fill="#aed3f2"/>
          <path id="Trazado_110217" data-name="Trazado 110217" d="M398.035,3459.115h12.223V3501.9H398.035Z" transform="translate(-226.906 -3382.718)" fill="#aed3f2"/>
        </g>
        <g id="Grupo_58368" data-name="Grupo 58368">
          <path id="Trazado_110218" data-name="Trazado 110218" d="M282.862,3542.412a3.056,3.056,0,0,0,0,6.113h24.447a3.056,3.056,0,0,0,0-6.113Z" transform="translate(-240.079 -3368.228)" fill="#344154"/>
          <path id="Trazado_110219" data-name="Trazado 110219" d="M431.282,3465.649H419.059A3.056,3.056,0,0,0,416,3468.7v3.056h-6.368a18.365,18.365,0,0,0-18.079-15.279H379.332v-30.559a3.056,3.056,0,0,0-3.056-3.056H354.885v-22.918a10.707,10.707,0,0,0-10.695-10.7H255.57a10.708,10.708,0,0,0-10.7,10.7v168.073a10.708,10.708,0,0,0,10.7,10.7h88.62a10.707,10.707,0,0,0,10.695-10.7v-65.7h6.223a10.711,10.711,0,0,0,10.585,9.167H416a3.056,3.056,0,0,0,3.056,3.056h12.223a3.056,3.056,0,0,0,3.056-3.056V3468.7A3.056,3.056,0,0,0,431.282,3465.649Zm-117.307-70.286-1.02,3.056h-26.15l-1.02-3.056Zm34.8,172.657a4.588,4.588,0,0,1-4.583,4.584H255.57a4.589,4.589,0,0,1-4.584-4.584V3399.948a4.588,4.588,0,0,1,4.584-4.584h23.771l2.36,7.079a3.057,3.057,0,0,0,2.9,2.089h30.558a3.055,3.055,0,0,0,2.9-2.089l2.361-7.079H344.19a4.588,4.588,0,0,1,4.583,4.584v22.918H302.936v-3.056a3.056,3.056,0,1,0-6.112,0v85.564a3.056,3.056,0,0,0,6.112,0v-3.056h45.838Zm-36.67-87.092a18.335,18.335,0,1,0-9.168-34.229v-8.553H349.03a18.382,18.382,0,0,0,15.023,15.025v18.847a18.379,18.379,0,0,0-15.023,15.023H302.936v-8.552a18.254,18.254,0,0,0,9.168,2.44Zm-9.168-10.257v-16.157a12.224,12.224,0,1,1,0,16.157Zm59.1,25.536h-59.1v-3.056H351.83a3.056,3.056,0,0,0,3.056-3.056,12.237,12.237,0,0,1,12.223-12.223,3.056,3.056,0,0,0,3.056-3.056V3450.37a3.056,3.056,0,0,0-3.056-3.056,12.236,12.236,0,0,1-12.223-12.225,3.056,3.056,0,0,0-3.056-3.055H302.936v-3.056H373.22V3490.1h-1.527a10.7,10.7,0,0,0-9.66,6.112Zm53.97,9.167h-44.31a4.584,4.584,0,1,1,0-9.167h13.751a3.056,3.056,0,1,0,0-6.112h-6.112v-27.5h12.224a12.237,12.237,0,0,1,12.223,12.223,3.056,3.056,0,0,0,3.056,3.056H416Zm12.223,3.056h-6.112v-36.67h6.112Z" transform="translate(-244.874 -3389.252)" fill="#344154"/>
        </g>
      </g>
    </g>
  </g>
</svg>
