<svg xmlns="http://www.w3.org/2000/svg" width="250" height="250" viewBox="0 0 250 250">
  <g id="Grupo_58378" data-name="Grupo 58378" transform="translate(-196.055 -3587.48)">
    <rect id="Rectángulo_8888" data-name="Rectángulo 8888" width="250" height="250" transform="translate(196.055 3587.48)" fill="none"/>
    <g id="Grupo_58372" data-name="Grupo 58372" transform="translate(201.294 3592.719)">
      <circle id="Elipse_4179" data-name="Elipse 4179" cx="109.504" cy="109.504" r="109.504" transform="translate(0 217.942) rotate(-84.345)" fill="#f2e9e4"/>
      <path id="Trazado_110220" data-name="Trazado 110220" d="M431.1,3712.48h-5.744a104.3,104.3,0,1,1-30.548-73.751,103.953,103.953,0,0,1,30.548,73.751h11.488a115.788,115.788,0,1,0-33.913,81.875,115.449,115.449,0,0,0,33.913-81.875Z" transform="translate(-201.294 -3592.719)" fill="#fff"/>
    </g>
    <g id="Grupo_58377" data-name="Grupo 58377" transform="translate(252.533 3614.182)">
      <path id="Trazado_110221" data-name="Trazado 110221" d="M369.2,3805.4H267.1v-6.569c14.765-1.768,25.534-17.474,24.052-35.082-1.277-15.167-11.335-27.161-24.052-28.682V3619.556H369.2Z" transform="translate(-237.533 -3614.182)" fill="#fff"/>
      <g id="Grupo_58376" data-name="Grupo 58376">
        <g id="Grupo_58373" data-name="Grupo 58373" transform="translate(37.624 69.441)">
          <path id="Trazado_110222" data-name="Trazado 110222" d="M275.157,3665.236h85.984v40.3H275.157Z" transform="translate(-275.157 -3665.236)" fill="#aed3f2"/>
          <path id="Trazado_110223" data-name="Trazado 110223" d="M331.584,3735.1h29.557v13.436H331.584Z" transform="translate(-275.157 -3665.236)" fill="#aed3f2"/>
        </g>
        <g id="Grupo_58375" data-name="Grupo 58375">
          <path id="Trazado_110224" data-name="Trazado 110224" d="M371.89,3614.182H264.409a2.959,2.959,0,0,0-2.687,3.171v117.482c-14.766,1.749-25.535,17.292-24.053,34.717,1.277,15.008,11.335,26.877,24.053,28.383v9.672a2.959,2.959,0,0,0,2.687,3.171H371.89a2.959,2.959,0,0,0,2.687-3.171V3617.353a2.959,2.959,0,0,0-2.687-3.171Zm-128.978,152.2c0-14.011,9.625-25.368,21.5-25.368s21.5,11.357,21.5,25.368-9.624,25.367-21.5,25.367C252.542,3791.737,242.926,3780.388,242.912,3766.386Zm126.291,38.05H267.1v-6.5c14.765-1.749,25.534-17.292,24.052-34.717-1.277-15.008-11.335-26.877-24.052-28.383V3620.524H369.2Z" transform="translate(-237.533 -3614.182)" fill="#344154"/>
          <path id="Trazado_110225" data-name="Trazado 110225" d="M275.157,3708.228h85.984a2.688,2.688,0,0,0,2.688-2.687v-40.3a2.688,2.688,0,0,0-2.688-2.687H275.157a2.687,2.687,0,0,0-2.687,2.687v40.3A2.687,2.687,0,0,0,275.157,3708.228Zm2.687-29.557h61.8v24.183h-61.8Zm67.175,24.183v-24.183h13.435v24.183Zm13.435-29.557H345.019v-5.374h13.435Zm-18.809-5.374v5.374h-61.8v-5.374Z" transform="translate(-237.533 -3602.182)" fill="#344154"/>
          <path id="Trazado_110226" data-name="Trazado 110226" d="M361.141,3732.411H331.584a2.687,2.687,0,0,0-2.687,2.687v13.436a2.687,2.687,0,0,0,2.687,2.687h29.557a2.688,2.688,0,0,0,2.688-2.687V3735.1A2.688,2.688,0,0,0,361.141,3732.411Zm-2.687,13.436H334.271v-8.062h24.183Z" transform="translate(-237.533 -3590.182)" fill="#344154"/>
          <path id="Trazado_110227" data-name="Trazado 110227" d="M275.157,3748.534a8.072,8.072,0,0,1-8.061,8.061,2.687,2.687,0,0,1-5.374,0h-5.374a2.687,2.687,0,0,1,0-5.374H267.1a2.691,2.691,0,0,0,2.687-2.687,2.983,2.983,0,0,0-3.023-2.687h-5.038a8.061,8.061,0,0,1,0-16.123,2.687,2.687,0,0,1,5.374,0h5.374a2.687,2.687,0,1,1,0,5.374H261.722a2.687,2.687,0,0,0,0,5.374h5.038A8.346,8.346,0,0,1,275.157,3748.534Z" transform="translate(-237.533 -3584.182)" fill="#344154"/>
          <g id="Grupo_58374" data-name="Grupo 58374" transform="translate(75.759 10.593)">
            <path id="Trazado_110228" data-name="Trazado 110228" d="M318.765,3645.432a11.569,11.569,0,0,1,.524-3.643,9.325,9.325,0,0,1,1.98-2.965l2.542-2.616a5.862,5.862,0,0,0,1.63-3.951,4.507,4.507,0,0,0-1.067-3.186,4.026,4.026,0,0,0-3.1-1.152,4.671,4.671,0,0,0-3.183,1.048,3.542,3.542,0,0,0-1.2,2.814h-3.59a6.54,6.54,0,0,1,2.241-5.075,8.387,8.387,0,0,1,5.736-1.931,7.909,7.909,0,0,1,5.715,1.967,7.13,7.13,0,0,1,2.048,5.4q0,3.391-3.144,6.686l-2.116,2.093a6.517,6.517,0,0,0-1.417,4.515Zm-.155,6.166a2.146,2.146,0,0,1,.533-1.48,2.013,2.013,0,0,1,1.582-.6,2.045,2.045,0,0,1,1.592.6,2.121,2.121,0,0,1,.543,1.48,2.046,2.046,0,0,1-.543,1.459,2.084,2.084,0,0,1-1.592.578,1.921,1.921,0,0,1-2.115-2.037Z" transform="translate(-313.292 -3624.775)" fill="#344154"/>
          </g>
        </g>
      </g>
    </g>
  </g>
</svg>
