<svg xmlns="http://www.w3.org/2000/svg" width="250" height="250" viewBox="0 0 250 250">
  <g id="Grupo_58397" data-name="Grupo 58397" transform="translate(-925.568 -3215.911)">
    <rect id="Rect치ngulo_8891" data-name="Rect치ngulo 8891" width="250" height="250" transform="translate(925.568 3215.911)" fill="none"/>
    <g id="Grupo_58392" data-name="Grupo 58392">
      <circle id="Elipse_4182" data-name="Elipse 4182" cx="108.851" cy="108.851" r="108.851" transform="translate(931.521 3438.506) rotate(-84.345)" fill="#f2e9e4"/>
      <path id="Trazado_110252" data-name="Trazado 110252" d="M1159.418,3340.911h-5.682a103.169,103.169,0,1,1-30.217-72.951,102.824,102.824,0,0,1,30.217,72.951H1165.1a114.532,114.532,0,1,0-33.545,80.986,114.2,114.2,0,0,0,33.545-80.986Z" fill="#fff"/>
    </g>
    <g id="Grupo_58396" data-name="Grupo 58396">
      <g id="Grupo_58395" data-name="Grupo 58395">
        <g id="Grupo_58393" data-name="Grupo 58393">
          <path id="Trazado_110253" data-name="Trazado 110253" d="M983.392,3368.392h42.748v24.427H983.392Z" fill="#aed3f2"/>
          <path id="Trazado_110254" data-name="Trazado 110254" d="M1123.85,3374.5h18.321v12.213H1123.85Z" fill="#aed3f2"/>
          <path id="Trazado_110255" data-name="Trazado 110255" d="M1081.1,3398.926h42.748v9.161H1081.1Z" fill="#aed3f2"/>
          <path id="Trazado_110256" data-name="Trazado 110256" d="M958.965,3273.735v79.39h183.206v-79.39Zm54.961,30.535H971.178v-18.321h42.748Z" fill="#aed3f2"/>
        </g>
        <g id="Grupo_58394" data-name="Grupo 58394">
          <path id="Trazado_110257" data-name="Trazado 110257" d="M1142.171,3371.445H1126.9a3.053,3.053,0,0,0-3.054-3.053h-94.656a3.054,3.054,0,0,0-3.054-3.054H983.392a3.054,3.054,0,0,0-3.053,3.054v.939l-22.447,8.416a3.053,3.053,0,0,0,0,5.717l22.447,8.416v.939a3.053,3.053,0,0,0,3.053,3.054h42.748a3.053,3.053,0,0,0,3.054-3.054h73.282v3.054H1081.1a3.053,3.053,0,0,0-3.053,3.053v9.161a3.053,3.053,0,0,0,3.053,3.053h42.748a3.053,3.053,0,0,0,3.054-3.053v-9.161a3.053,3.053,0,0,0-3.054-3.053h-15.267v-3.054h15.267a3.054,3.054,0,0,0,3.054-3.053h15.267a3.053,3.053,0,0,0,3.053-3.054V3374.5a3.053,3.053,0,0,0-3.053-3.054Zm-161.832,13.916-12.68-4.755,12.68-4.756Zm42.748,4.405H986.446v-18.321h36.641Zm97.71,12.214v3.053h-36.642v-3.053Zm0-15.268h-91.6V3374.5h91.6Zm18.32-3.053H1126.9v-6.107h12.213Z" fill="#344154"/>
          <path id="Trazado_110258" data-name="Trazado 110258" d="M1142.171,3270.682H958.965a3.054,3.054,0,0,0-3.054,3.053v79.39a3.053,3.053,0,0,0,3.054,3.053h183.206a3.053,3.053,0,0,0,3.053-3.053v-79.39A3.053,3.053,0,0,0,1142.171,3270.682Zm-3.054,79.389h-177.1v-73.282h177.1Z" fill="#344154"/>
          <path id="Trazado_110259" data-name="Trazado 110259" d="M971.178,3307.323h42.748a3.053,3.053,0,0,0,3.054-3.053v-18.321a3.053,3.053,0,0,0-3.054-3.053H971.178a3.053,3.053,0,0,0-3.053,3.053v18.321A3.053,3.053,0,0,0,971.178,3307.323Zm3.054-18.32h36.641v12.213H974.232Z" fill="#344154"/>
          <path id="Trazado_110260" data-name="Trazado 110260" d="M970.856,3333.948a3.053,3.053,0,0,0,2.8-3.214,1.842,1.842,0,0,1,1.619-.447c1.507.44,2.816,2.15,4.028,3.863,1.613,2.279,3.62,5.115,6.921,6.349a9.742,9.742,0,0,0,3.441.616c4.021,0,7.768-2.315,10.446-3.969a116.337,116.337,0,0,1,17.366-8.807c4.184-1.7,8.987-3.218,12.886-1.645a19.906,19.906,0,0,1,4.758,3.2,26.082,26.082,0,0,0,5.94,3.96c6.239,2.737,13.183.69,17.863-1.088a87.528,87.528,0,0,0,19.187-10.175l.505-.356a17.107,17.107,0,0,1,4.025-2.359,3.429,3.429,0,0,1,3.007.144,3.054,3.054,0,1,0,3.755-4.816,9.269,9.269,0,0,0-8.74-1.107,22.294,22.294,0,0,0-5.573,3.15l-.487.344a81.4,81.4,0,0,1-17.848,9.465c-3.678,1.4-9.052,3.043-13.241,1.205a21.135,21.135,0,0,1-4.542-3.109,24.754,24.754,0,0,0-6.323-4.118c-3.126-1.262-7.939-2.214-17.466,1.649a122.426,122.426,0,0,0-18.279,9.271c-3.32,2.052-6.257,3.681-8.539,2.829-1.541-.576-2.829-2.4-4.074-4.157-1.754-2.478-3.908-5.205-7.3-6.2a7.981,7.981,0,0,0-7.083,1.472,6.107,6.107,0,0,0-2.344,5.256,3.049,3.049,0,0,0,3.286,2.795Z" fill="#344154"/>
          <path id="Trazado_110261" data-name="Trazado 110261" d="M1105.53,3289h24.427a3.053,3.053,0,0,0,0-6.107H1105.53a3.053,3.053,0,1,0,0,6.107Z" fill="#344154"/>
          <path id="Trazado_110262" data-name="Trazado 110262" d="M1129.957,3292.056h-12.214a3.054,3.054,0,0,0,0,6.107h12.214a3.054,3.054,0,0,0,0-6.107Z" fill="#344154"/>
        </g>
      </g>
      <rect id="Rect치ngulo_8892" data-name="Rect치ngulo 8892" width="36.641" height="12.214" transform="translate(974.232 3289.002)" fill="#fff" stroke="#344154" stroke-miterlimit="10" stroke-width="1"/>
    </g>
  </g>
</svg>
