<svg xmlns="http://www.w3.org/2000/svg" width="250" height="250" viewBox="0 0 250 250">
  <g id="Grupo_58434" data-name="Grupo 58434" transform="translate(-925.568 -5146.971)">
    <rect id="Rectángulo_8899" data-name="Rectángulo 8899" width="250" height="250" transform="translate(925.568 5146.971)" fill="none"/>
    <g id="Grupo_58427" data-name="Grupo 58427">
      <circle id="Elipse_4190" data-name="Elipse 4190" cx="108.851" cy="108.851" r="108.851" transform="translate(931.521 5369.566) rotate(-84.345)" fill="#f2e9e4"/>
      <path id="Trazado_110306" data-name="Trazado 110306" d="M1159.418,5271.971h-5.682a103.169,103.169,0,1,1-30.217-72.951,102.823,102.823,0,0,1,30.217,72.951H1165.1a114.531,114.531,0,1,0-33.545,80.986,114.2,114.2,0,0,0,33.545-80.986Z" fill="#fff"/>
    </g>
    <g id="Grupo_58433" data-name="Grupo 58433">
      <g id="Grupo_58428" data-name="Grupo 58428">
        <path id="Rectángulo_8900" data-name="Rectángulo 8900" d="M9.777,0H106.05a9.778,9.778,0,0,1,9.778,9.778V106.05a9.778,9.778,0,0,1-9.778,9.778H9.777A9.777,9.777,0,0,1,0,106.05V9.777A9.777,9.777,0,0,1,9.777,0Z" transform="translate(1034.797 5186.832)" fill="#aed3f2"/>
        <path id="Trazado_110307" data-name="Trazado 110307" d="M1140.847,5302.659v-3.053h-96.272a6.723,6.723,0,0,1-6.725-6.725v-96.272a6.724,6.724,0,0,1,6.725-6.724h96.272a6.68,6.68,0,0,1,2.616.527,6.753,6.753,0,0,1,2.961,2.44,6.669,6.669,0,0,1,1.147,3.757v96.272a6.686,6.686,0,0,1-.527,2.617,6.761,6.761,0,0,1-2.44,2.961,6.68,6.68,0,0,1-3.757,1.147v6.106a12.828,12.828,0,0,0,12.831-12.831v-96.272a12.829,12.829,0,0,0-12.831-12.831h-96.272a12.829,12.829,0,0,0-12.831,12.831v96.272a12.828,12.828,0,0,0,12.831,12.831h96.272Z" fill="#344154"/>
      </g>
      <g id="Grupo_58432" data-name="Grupo 58432">
        <g id="Grupo_58431" data-name="Grupo 58431">
          <g id="Grupo_58429" data-name="Grupo 58429">
            <path id="Trazado_110308" data-name="Trazado 110308" d="M950.51,5277.721v79.389h183.207v-79.389Zm54.962,30.534H962.724v-18.32h42.748Z" fill="#aed3f2"/>
          </g>
          <g id="Grupo_58430" data-name="Grupo 58430">
            <path id="Trazado_110309" data-name="Trazado 110309" d="M1133.717,5274.668H950.51a3.053,3.053,0,0,0-3.053,3.053v79.389a3.054,3.054,0,0,0,3.053,3.054h183.207a3.054,3.054,0,0,0,3.053-3.054v-79.389A3.053,3.053,0,0,0,1133.717,5274.668Zm-3.054,79.389h-177.1v-73.283h177.1Z" fill="#344154"/>
            <path id="Trazado_110310" data-name="Trazado 110310" d="M962.724,5311.309h42.748a3.054,3.054,0,0,0,3.054-3.054v-18.32a3.054,3.054,0,0,0-3.054-3.054H962.724a3.054,3.054,0,0,0-3.053,3.054v18.32A3.054,3.054,0,0,0,962.724,5311.309Zm3.054-18.321h36.641V5305.2H965.778Z" fill="#344154"/>
            <path id="Trazado_110311" data-name="Trazado 110311" d="M962.4,5337.934a3.053,3.053,0,0,0,2.8-3.215,1.846,1.846,0,0,1,1.619-.447c1.506.441,2.816,2.151,4.028,3.864,1.613,2.279,3.62,5.114,6.921,6.349a9.737,9.737,0,0,0,3.441.616c4.021,0,7.768-2.315,10.446-3.97a116.325,116.325,0,0,1,17.366-8.806c4.184-1.7,8.987-3.218,12.885-1.646a19.925,19.925,0,0,1,4.759,3.2,26.075,26.075,0,0,0,5.94,3.961c6.239,2.737,13.183.689,17.862-1.089a87.477,87.477,0,0,0,19.188-10.174l.5-.356a17.1,17.1,0,0,1,4.026-2.359,3.427,3.427,0,0,1,3.007.144,3.053,3.053,0,1,0,3.755-4.816,9.268,9.268,0,0,0-8.74-1.107,22.269,22.269,0,0,0-5.573,3.15l-.488.343a81.37,81.37,0,0,1-17.847,9.466c-3.678,1.4-9.052,3.043-13.241,1.2a21.127,21.127,0,0,1-4.542-3.108,24.753,24.753,0,0,0-6.323-4.118c-3.127-1.262-7.939-2.214-17.466,1.649a122.283,122.283,0,0,0-18.279,9.27c-3.321,2.053-6.258,3.682-8.539,2.83-1.541-.577-2.829-2.4-4.074-4.157-1.754-2.478-3.908-5.205-7.3-6.2a7.981,7.981,0,0,0-7.083,1.472,6.107,6.107,0,0,0-2.344,5.257,3.05,3.05,0,0,0,3.286,2.795Z" fill="#344154"/>
            <path id="Trazado_110312" data-name="Trazado 110312" d="M1097.075,5292.988H1121.5a3.053,3.053,0,0,0,0-6.107h-24.428a3.053,3.053,0,0,0,0,6.107Z" fill="#344154"/>
            <path id="Trazado_110313" data-name="Trazado 110313" d="M1121.5,5296.042h-12.214a3.053,3.053,0,1,0,0,6.106H1121.5a3.053,3.053,0,1,0,0-6.106Z" fill="#344154"/>
          </g>
        </g>
      </g>
      <path id="Trazado_110314" data-name="Trazado 110314" d="M1080.6,5232.4a9.173,9.173,0,0,1-9.161,9.16,3.053,3.053,0,0,1-6.106,0h-6.107a3.053,3.053,0,1,1,0-6.107h12.213a3.058,3.058,0,0,0,3.054-3.053,3.39,3.39,0,0,0-3.435-3.054h-5.725a9.16,9.16,0,1,1,0-18.32,3.053,3.053,0,1,1,6.106,0h6.107a3.053,3.053,0,1,1,0,6.107h-12.213a3.053,3.053,0,1,0,0,6.106h5.725A9.484,9.484,0,0,1,1080.6,5232.4Z" fill="#fff"/>
      <path id="Trazado_110315" data-name="Trazado 110315" d="M1139.74,5231.188h-16.33v-34.135H1107.38v34.135h-16.328l24.342,24.335Z" fill="#fff"/>
      <path id="Trazado_110316" data-name="Trazado 110316" d="M1139.74,5231.188v-1.909h-14.422v-32.226a1.907,1.907,0,0,0-1.908-1.909h-16.03a1.909,1.909,0,0,0-1.909,1.909v32.226h-14.419a1.908,1.908,0,0,0-1.35,3.258l24.342,24.336a1.908,1.908,0,0,0,2.7,0l24.347-24.336a1.909,1.909,0,0,0-1.349-3.258v1.909l-1.349-1.35-23,22.987L1095.66,5233.1h11.72a1.909,1.909,0,0,0,1.908-1.908v-32.227H1121.5v32.227a1.909,1.909,0,0,0,1.908,1.908h16.33v-1.908l-1.349-1.35Z" fill="#344154"/>
      <rect id="Rectángulo_8901" data-name="Rectángulo 8901" width="37.706" height="12.724" transform="translate(965.778 5292.988)" fill="#fff" stroke="#344154" stroke-miterlimit="10" stroke-width="1"/>
    </g>
  </g>
</svg>
