<svg xmlns="http://www.w3.org/2000/svg" width="250" height="250" viewBox="0 0 250 250">
  <g id="Grupo_58414" data-name="Grupo 58414" transform="translate(-925.568 -4148.465)">
    <rect id="Rectángulo_8896" data-name="Rectángulo 8896" width="250" height="250" transform="translate(925.568 4148.465)" fill="none"/>
    <g id="Grupo_58410" data-name="Grupo 58410">
      <circle id="Elipse_4185" data-name="Elipse 4185" cx="108.851" cy="108.851" r="108.851" transform="translate(931.521 4371.06) rotate(-84.345)" fill="#f2e9e4"/>
      <path id="Trazado_110280" data-name="Trazado 110280" d="M1159.418,4273.465h-5.682a103.169,103.169,0,1,1-30.217-72.951,102.822,102.822,0,0,1,30.217,72.951H1165.1a114.53,114.53,0,1,0-33.545,80.987,114.193,114.193,0,0,0,33.545-80.987Z" fill="#fff"/>
    </g>
    <g id="Grupo_58413" data-name="Grupo 58413">
      <path id="Trazado_110281" data-name="Trazado 110281" d="M1061.251,4291.786a3.051,3.051,0,0,0-2.159.894l-3.948,3.948-3.947-3.948a3.054,3.054,0,0,0-4.319,0h0l-3.947,3.948-3.948-3.948a3.053,3.053,0,0,0-4.318,0h0l-3.948,3.948-3.948-3.948a3.049,3.049,0,0,0-2.159-.894v-42.748h36.641Z" fill="#fff" stroke="#344154" stroke-miterlimit="10" stroke-width="1"/>
      <g id="Grupo_58412" data-name="Grupo 58412">
        <path id="Trazado_110282" data-name="Trazado 110282" d="M1088.732,4200.183a21.37,21.37,0,0,1,6.107.885V4189.5a7.631,7.631,0,0,0-7.629-7.634h-25.959l-3.053,9.16h-30.535l-3.053-9.16H998.656a7.632,7.632,0,0,0-7.634,7.629v167.944a7.632,7.632,0,0,0,7.629,7.633H1087.2a7.631,7.631,0,0,0,7.634-7.629V4242.045a21.376,21.376,0,1,1-6.107-41.862Zm-24.427,100.763-3.054-6.107-6.107,6.107-6.107-6.107-6.106,6.107-6.107-6.107-6.107,6.107-6.107-6.107-3.053,6.107v-54.962h42.748Z" fill="#aed3f2"/>
        <g id="Grupo_58411" data-name="Grupo 58411">
          <path id="Trazado_110283" data-name="Trazado 110283" d="M1055.144,4352.855h-24.427a3.053,3.053,0,1,0,0,6.106h24.427a3.053,3.053,0,1,0,0-6.106Z" fill="#344154"/>
          <path id="Trazado_110284" data-name="Trazado 110284" d="M1064.305,4242.931h-42.748a3.053,3.053,0,0,0-3.054,3.053v54.962a3.053,3.053,0,0,0,5.784,1.366l1.159-2.318,3.112,3.111a3.052,3.052,0,0,0,4.318,0h0l3.948-3.948,3.947,3.948a3.054,3.054,0,0,0,4.319,0h0l3.947-3.948,3.948,3.948a3.052,3.052,0,0,0,4.318,0h0l3.111-3.111,1.159,2.318a3.053,3.053,0,0,0,5.784-1.366v-54.962A3.053,3.053,0,0,0,1064.305,4242.931Zm-3.054,48.855a3.051,3.051,0,0,0-2.159.894l-3.948,3.948-3.947-3.948a3.054,3.054,0,0,0-4.319,0h0l-3.947,3.948-3.948-3.948a3.053,3.053,0,0,0-4.318,0h0l-3.948,3.948-3.948-3.948a3.049,3.049,0,0,0-2.159-.894v-42.748h36.641Z" fill="#344154"/>
          <path id="Trazado_110285" data-name="Trazado 110285" d="M1030.717,4267.358h24.427a3.053,3.053,0,1,0,0-6.107h-24.427a3.053,3.053,0,1,0,0,6.107Z" fill="#344154"/>
          <path id="Trazado_110286" data-name="Trazado 110286" d="M1030.717,4258.2h24.427a3.054,3.054,0,1,0,0-6.107h-24.427a3.054,3.054,0,1,0,0,6.107Z" fill="#344154"/>
          <path id="Trazado_110287" data-name="Trazado 110287" d="M1030.717,4276.519h24.427a3.053,3.053,0,1,0,0-6.107h-24.427a3.053,3.053,0,1,0,0,6.107Z" fill="#344154"/>
          <path id="Trazado_110288" data-name="Trazado 110288" d="M1030.717,4285.679h24.427a3.054,3.054,0,1,0,0-6.107h-24.427a3.054,3.054,0,1,0,0,6.107Z" fill="#344154"/>
          <path id="Trazado_110289" data-name="Trazado 110289" d="M1097.892,4198.919V4189.5a10.7,10.7,0,0,0-10.687-10.687H998.656a10.7,10.7,0,0,0-10.687,10.687v167.939a10.7,10.7,0,0,0,10.687,10.687H1087.2a10.7,10.7,0,0,0,10.687-10.687V4244.194a24.416,24.416,0,0,0,0-45.275Zm-40.877-14-1.02,3.053h-26.129l-1.019-3.053Zm34.771,172.519a4.585,4.585,0,0,1-4.581,4.58H998.656a4.584,4.584,0,0,1-4.58-4.58V4189.5a4.583,4.583,0,0,1,4.58-4.58h23.752l2.358,7.072a3.055,3.055,0,0,0,2.9,2.088H1058.2a3.055,3.055,0,0,0,2.9-2.088l2.359-7.072H1087.2a4.585,4.585,0,0,1,4.581,4.58v7.832a24.428,24.428,0,1,0,0,48.458Zm-3.054-117.558a18.321,18.321,0,1,1,18.321-18.32A18.32,18.32,0,0,1,1088.732,4239.877Z" fill="#344154"/>
        </g>
      </g>
      <path id="Trazado_110290" data-name="Trazado 110290" d="M1078.894,4214.107l18.409,18.408a2.481,2.481,0,0,0,3.508-3.508L1082.4,4210.6a2.481,2.481,0,0,0-3.509,3.509" fill="#344154"/>
      <path id="Trazado_110291" data-name="Trazado 110291" d="M1097.3,4210.6l-18.409,18.409a2.481,2.481,0,0,0,3.509,3.508l18.408-18.408a2.481,2.481,0,0,0-3.508-3.509" fill="#344154"/>
    </g>
  </g>
</svg>
