<svg xmlns="http://www.w3.org/2000/svg" width="940.75" height="439.85" viewBox="0 0 940.75 439.85">
  <g id="graficos_cf13_balance_" data-name="graficos cf13 balance]" transform="translate(-65 -14.35)">
    <g id="Grupo_58335" data-name="Grupo 58335">
      <rect id="Rectángulo_8867" data-name="Rectángulo 8867" width="227.3" height="154.48" rx="5.68" transform="translate(262.42 98.82)" fill="#6595bf"/>
      <rect id="Rectángulo_8868" data-name="Rectángulo 8868" width="210.9" height="135.31" transform="translate(270.62 108.41)" fill="#fff"/>
      <path id="Trazado_110094" data-name="Trazado 110094" d="M442.22,102.43H313.44l62.77-84.82ZM318.65,99.8h118.2L376.26,22Z" fill="#6595bf"/>
      <path id="Trazado_110095" data-name="Trazado 110095" d="M370.41,22.37a6.41,6.41,0,1,1,1.877,4.543,6.42,6.42,0,0,1-1.877-4.543Z" fill="#d9a171"/>
      <g id="Grupo_58328" data-name="Grupo 58328">
        <g id="Grupo_58327" data-name="Grupo 58327">
          <rect id="Rectángulo_8869" data-name="Rectángulo 8869" width="9.31" height="10.27" transform="translate(295.61 188.52)" fill="#aed3f2"/>
          <rect id="Rectángulo_8870" data-name="Rectángulo 8870" width="9.31" height="30.91" transform="translate(312.22 167.88)" fill="#aed3f2"/>
          <rect id="Rectángulo_8871" data-name="Rectángulo 8871" width="9.31" height="19.31" transform="translate(328.83 179.48)" fill="#aed3f2"/>
          <rect id="Rectángulo_8872" data-name="Rectángulo 8872" width="9.31" height="39.56" transform="translate(345.45 159.23)" fill="#aed3f2"/>
          <rect id="Rectángulo_8873" data-name="Rectángulo 8873" width="9.31" height="29.79" transform="translate(364.73 169)" fill="#aed3f2"/>
          <rect id="Rectángulo_8874" data-name="Rectángulo 8874" width="9.31" height="47.65" transform="translate(382.59 151.14)" fill="#aed3f2"/>
        </g>
        <path id="Trazado_110096" data-name="Trazado 110096" d="M288.14,202.41v-84.6h-2.29v86.88H411.56v-2.28Z" fill="#aed3f2"/>
        <path id="Trazado_110097" data-name="Trazado 110097" d="M376.14,133.76l-6.73-1-6.74-1c-.39-.06-.59.39-.36.82l2.79,5.06-13.7,7.37-4.24-4-1.27-1.2-1.57.78-19.55,9.75-4.87-2.67-1-.55-.9.35-22,8.43a.57.57,0,0,0,.33,1.09l4.48-.92,17.51-3.6,5.22,2.86,1.15.63,1.18-.59L345,145.73l4.28,4L350.6,151l1.59-.85,15.31-8.24.95,1.72L370.3,147c.2.36.6.47.8.26a.6.6,0,0,0,.09-.13l2.74-6.21,2.59-5.89.15-.33a.74.74,0,0,0-.53-.94Z" fill="#aed3f2"/>
      </g>
      <g id="Grupo_58330" data-name="Grupo 58330">
        <rect id="Rectángulo_8875" data-name="Rectángulo 8875" width="10.99" height="10.99" rx="2.71" transform="translate(285.85 209.6)" fill="#aed3f2"/>
        <g id="Grupo_58329" data-name="Grupo 58329">
          <path id="Trazado_110098" data-name="Trazado 110098" d="M413.68,213H302.88c-.82,0-1.49-.32-1.49-.71h0c0-.39.67-.7,1.49-.7h110.8c.82,0,1.48.31,1.48.7h0C415.16,212.63,414.5,213,413.68,213Z" fill="#aed3f2"/>
          <path id="Trazado_110099" data-name="Trazado 110099" d="M332.06,218.66H302.88c-.82,0-1.49-.32-1.49-.71h0c0-.39.67-.71,1.49-.71h29.18c.82,0,1.49.32,1.49.71h0C333.55,218.34,332.88,218.66,332.06,218.66Z" fill="#aed3f2"/>
          <path id="Trazado_110100" data-name="Trazado 110100" d="M398.05,218.66H344.23c-.82,0-1.48-.32-1.48-.71h0c0-.39.66-.71,1.48-.71h53.82c.82,0,1.48.32,1.48.71h0C399.53,218.34,398.87,218.66,398.05,218.66Z" fill="#aed3f2"/>
        </g>
      </g>
      <g id="Grupo_58332" data-name="Grupo 58332">
        <rect id="Rectángulo_8876" data-name="Rectángulo 8876" width="10.99" height="10.99" rx="2.71" transform="translate(285.85 225.49)" fill="#aed3f2"/>
        <g id="Grupo_58331" data-name="Grupo 58331">
          <path id="Trazado_110101" data-name="Trazado 110101" d="M413.68,228.84H302.88c-.82,0-1.49-.32-1.49-.71h0c0-.39.67-.71,1.49-.71h110.8c.82,0,1.48.32,1.48.71h0C415.16,228.52,414.5,228.84,413.68,228.84Z" fill="#aed3f2"/>
          <path id="Trazado_110102" data-name="Trazado 110102" d="M332.06,234.55H302.88c-.82,0-1.49-.32-1.49-.71h0c0-.39.67-.71,1.49-.71h29.18c.82,0,1.49.32,1.49.71h0C333.55,234.23,332.88,234.55,332.06,234.55Z" fill="#aed3f2"/>
          <path id="Trazado_110103" data-name="Trazado 110103" d="M398.05,234.55H344.23c-.82,0-1.48-.32-1.48-.71h0c0-.39.66-.71,1.48-.71h53.82c.82,0,1.48.32,1.48.71h0C399.53,234.23,398.87,234.55,398.05,234.55Z" fill="#aed3f2"/>
        </g>
      </g>
      <g id="Grupo_58333" data-name="Grupo 58333">
        <path id="Trazado_110104" data-name="Trazado 110104" d="M445.23,174.56a21.54,21.54,0,0,1-13.86-5l14.08-14.81L463,165.21a21.58,21.58,0,0,1-17.8,9.35Z" fill="#aed3f2"/>
        <path id="Trazado_110105" data-name="Trazado 110105" d="M446.53,151.79V131.66a21.56,21.56,0,0,1,20.22,20.13Z" fill="#aed3f2"/>
        <path id="Trazado_110106" data-name="Trazado 110106" d="M454,155.12h16.8a21.26,21.26,0,0,1-2.38,8.59Z" fill="#aed3f2"/>
        <path id="Trazado_110107" data-name="Trazado 110107" d="M429.48,167.77a21.22,21.22,0,0,1-5.82-14.68,21.55,21.55,0,0,1,20.26-21.43v20.91Z" fill="#aed3f2"/>
      </g>
      <g id="Grupo_58334" data-name="Grupo 58334">
        <path id="Trazado_110108" data-name="Trazado 110108" d="M445.92,225.89v5.19a21.63,21.63,0,0,1-13-4.82l3-4.28a16.25,16.25,0,0,0,10,3.91Z" fill="#aed3f2"/>
        <path id="Trazado_110109" data-name="Trazado 110109" d="M445.92,225.89v5.19a21.63,21.63,0,0,1-13-4.82l3-4.28a16.25,16.25,0,0,0,10,3.91Z" fill="#aed3f2"/>
        <path id="Trazado_110110" data-name="Trazado 110110" d="M435,221.09l-3,4.32a21.39,21.39,0,0,1-7-15.8c0-.19,0-.35,0-.51h5.21v.51A16.3,16.3,0,0,0,435,221.09Z" fill="#aed3f2"/>
        <path id="Trazado_110111" data-name="Trazado 110111" d="M435,221.09l-3,4.32a21.39,21.39,0,0,1-7-15.8c0-.19,0-.35,0-.51h5.21v.51A16.3,16.3,0,0,0,435,221.09Z" fill="#aed3f2"/>
        <path id="Trazado_110112" data-name="Trazado 110112" d="M441.27,194.19a16.37,16.37,0,0,0-11,13.62h-5.23a21.2,21.2,0,0,1,4.55-11.51,21.48,21.48,0,0,1,10-7Z" fill="#aed3f2"/>
        <path id="Trazado_110113" data-name="Trazado 110113" d="M441.27,194.19a16.37,16.37,0,0,0-11,13.62h-5.23a21.2,21.2,0,0,1,4.55-11.51,21.48,21.48,0,0,1,10-7Z" fill="#aed3f2"/>
        <path id="Trazado_110114" data-name="Trazado 110114" d="M468.15,209.61a21.44,21.44,0,0,1-.89,6.13l-4.83-2.1a16,16,0,0,0,.51-4,16.32,16.32,0,0,0-6.29-12.84l3.27-4a21.72,21.72,0,0,1,5.86,7.07,21.23,21.23,0,0,1,2.37,9.74Z" fill="#aed3f2"/>
        <path id="Trazado_110115" data-name="Trazado 110115" d="M468.15,209.61a21.44,21.44,0,0,1-.89,6.13l-4.83-2.1a16,16,0,0,0,.51-4,16.32,16.32,0,0,0-6.29-12.84l3.27-4a21.72,21.72,0,0,1,5.86,7.07,21.23,21.23,0,0,1,2.37,9.74Z" fill="#aed3f2"/>
        <path id="Trazado_110116" data-name="Trazado 110116" d="M466.85,217a21.58,21.58,0,0,1-19.63,14.11v-5.19a16.47,16.47,0,0,0,14.84-11Z" fill="#aed3f2"/>
        <path id="Trazado_110117" data-name="Trazado 110117" d="M466.85,217a21.58,21.58,0,0,1-19.63,14.11v-5.19a16.47,16.47,0,0,0,14.84-11Z" fill="#aed3f2"/>
        <path id="Trazado_110118" data-name="Trazado 110118" d="M458.88,192l-3.29,4a16.24,16.24,0,0,0-9-2.7h-1.1a15.6,15.6,0,0,0-3,.47l-1.61-4.94a21.769,21.769,0,0,1,5.34-.75h.33A21.46,21.46,0,0,1,458.88,192Z" fill="#aed3f2"/>
        <path id="Trazado_110119" data-name="Trazado 110119" d="M458.88,192l-3.29,4a16.24,16.24,0,0,0-9-2.7h-1.1a15.6,15.6,0,0,0-3,.47l-1.61-4.94a21.769,21.769,0,0,1,5.34-.75h.33A21.46,21.46,0,0,1,458.88,192Z" fill="#aed3f2"/>
      </g>
    </g>
    <g id="Grupo_58337" data-name="Grupo 58337">
      <path id="Trazado_110120" data-name="Trazado 110120" d="M236,279.68a8.52,8.52,0,0,0-8.17,3.84c-12.56,2.57-39.11,9.29-52.82,22.17l-.7-.4a1.32,1.32,0,0,0-1.8.48l-.24.42a1.31,1.31,0,0,0,.48,1.8h0c-.47.53-.93,1.07-1.36,1.63l-.75-.31a1.33,1.33,0,0,0-1.72.72l-.18.45a1.32,1.32,0,0,0,.72,1.72l.12.05a23,23,0,0,0-1.27,2.4l-.93-.15a1.31,1.31,0,0,0-1.51,1.08l-.08.48a1.32,1.32,0,0,0,1.08,1.52l.34.05a19.046,19.046,0,0,0-.53,2.38l-.6.05a1.32,1.32,0,0,0-1.21,1.41v.49a1.32,1.32,0,0,0,1.42,1.21h.08v.06a18.468,18.468,0,0,0,.11,2l-.61.18A1.32,1.32,0,0,0,165,327l.14.47a1.3,1.3,0,0,0,1.64.86l.2-.06c.14.57.29,1.14.47,1.7a1.32,1.32,0,0,0-.69,1.7l.19.45a1.32,1.32,0,0,0,1.6.76c.13.31.27.63.42.95a1.32,1.32,0,0,0-.63,1.67l.19.45a1.3,1.3,0,0,0,1.71.72l.15-.06c.15.28.3.56.46.83a1.31,1.31,0,0,0-.57,1.64l.18.45a1.31,1.31,0,0,0,1.72.72l.26-.11q.35.58.72,1.17a1.31,1.31,0,0,0-.69,1.7l.19.45a1.31,1.31,0,0,0,1.72.71l.46-.19.36.56c9.3,14.64,23.3,36.7,23.59,87.9h-6.34a11.94,11.94,0,0,0-12,11.94v2.21h45.51v-2.21a11.94,11.94,0,0,0-12-11.94H207c-.29-53-14.72-76.32-24.53-91.76a1.32,1.32,0,0,0,.23-1.35l-.19-.46a1.31,1.31,0,0,0-1.65-.73l-.76-1.21a1.31,1.31,0,0,0,.4-1.53l-.18-.45a1.33,1.33,0,0,0-1.72-.72l-.11.05-.47-.83a1.32,1.32,0,0,0,.55-1.63l-.19-.45a1.33,1.33,0,0,0-1.72-.72h-.09c-.15-.31-.29-.62-.43-.93l.13-.05A1.32,1.32,0,0,0,177,328l-.19-.45a1.31,1.31,0,0,0-1.71-.72c-.09-.33-.17-.67-.24-1a1.32,1.32,0,0,0,.66-1.56l-.14-.46a1.32,1.32,0,0,0-.79-.84q0-.24,0-.48a1.31,1.31,0,0,0,1.09-1.4v-.48a1.34,1.34,0,0,0-.54-1,7.319,7.319,0,0,1,.25-.75,1.29,1.29,0,0,0,1.08-1.07l.08-.49a1.25,1.25,0,0,0-.08-.72c.25-.43.52-.86.81-1.28a1.32,1.32,0,0,0,1.5-.79l.18-.45a1.3,1.3,0,0,0,0-.89c.32-.36.66-.71,1-1.06a1.32,1.32,0,0,0,1.64-.56l.24-.42a1.32,1.32,0,0,0,.16-.86c10.88-9.07,31.35-15.26,45.31-18.33a8.52,8.52,0,0,0,6.6,4.62l19.37,2.3,2-16.95Z" fill="#344154"/>
      <rect id="Rectángulo_8877" data-name="Rectángulo 8877" width="52.77" height="4.95" rx="1.39" transform="translate(229.85 450.51) rotate(180)" fill="#344154"/>
      <g id="Grupo_58336" data-name="Grupo 58336">
        <path id="Trazado_110121" data-name="Trazado 110121" d="M241.86,283h0a29.69,29.69,0,0,1,39.25-15l14,6.25a8.2,8.2,0,0,1,4.13,10.83l-17.57,39.28a8.2,8.2,0,0,1-10.83,4.13l-14-6.25A29.72,29.72,0,0,1,241.86,283Z" fill="#d9a171"/>
        <path id="Trazado_110122" data-name="Trazado 110122" d="M272.08,329.45c6,2.65,16.26-7.45,23-22.58s7.33-29.53,1.36-32.18c-4.41-2-11.18,3.05-17.14,11.91a71.2,71.2,0,0,0-5.84,10.66,72.54,72.54,0,0,0-3.56,9.79C266.77,318.17,267.43,327.38,272.08,329.45Z" fill="#a37955"/>
        <path id="Trazado_110123" data-name="Trazado 110123" d="M269.89,307.05a11.29,11.29,0,1,0,9.4-20.45,71.2,71.2,0,0,0-5.84,10.66,72.539,72.539,0,0,0-3.56,9.79Z" fill="#fff"/>
      </g>
    </g>
    <g id="Grupo_58342" data-name="Grupo 58342">
      <path id="Trazado_110124" data-name="Trazado 110124" d="M801,348.51a2.59,2.59,0,0,0-2.59,2.59v98.54a2.59,2.59,0,0,0,2.59,2.6h6.2a2.59,2.59,0,0,0,2.6-2.6v-3.4a2.59,2.59,0,0,1,2.59-2.59h78.5a2.59,2.59,0,0,1,2.59,2.59v3.4a2.59,2.59,0,0,0,2.59,2.6h6.21a2.59,2.59,0,0,0,2.59-2.6V351.1a2.59,2.59,0,0,0-2.59-2.59Z" fill="#6595bf"/>
      <rect id="Rectángulo_8878" data-name="Rectángulo 8878" width="90.74" height="17.06" rx="2.41" transform="translate(806.24 353.78)" fill="#fff"/>
      <path id="Trazado_110125" data-name="Trazado 110125" d="M894.27,353.78h0a2.621,2.621,0,0,1,.06.57v5.77a8.58,8.58,0,0,1-8.59,8.58H806.3a2.72,2.72,0,0,0,2.65,2.14h85.32a2.71,2.71,0,0,0,2.71-2.71V356.48a2.7,2.7,0,0,0-2.71-2.7Z" fill="#e0e3ff"/>
      <rect id="Rectángulo_8879" data-name="Rectángulo 8879" width="90.74" height="17.06" rx="2.41" transform="translate(806.24 379.12)" fill="#fff"/>
      <path id="Trazado_110126" data-name="Trazado 110126" d="M894.27,379.12h-.16a2.55,2.55,0,0,1,.17.92v8.57a5.78,5.78,0,0,1-5.78,5.78H806.41a2.69,2.69,0,0,0,2.54,1.79h85.32a2.71,2.71,0,0,0,2.71-2.71V381.83A2.71,2.71,0,0,0,894.27,379.12Z" fill="#e0e3ff"/>
      <rect id="Rectángulo_8880" data-name="Rectángulo 8880" width="41.14" height="33.4" rx="3.3" transform="translate(806.24 402.93)" fill="#fff"/>
      <path id="Trazado_110127" data-name="Trazado 110127" d="M844.23,403a3.808,3.808,0,0,1,0,.59v22.35a7.34,7.34,0,0,1-7.34,7.34H806.85a3.431,3.431,0,0,1-.56-.05,3.7,3.7,0,0,0,3.66,3.12h33.71a3.72,3.72,0,0,0,3.72-3.71v-26a3.7,3.7,0,0,0-3.15-3.64Z" fill="#e0e3ff"/>
      <rect id="Rectángulo_8881" data-name="Rectángulo 8881" width="41.31" height="33.4" rx="3.3" transform="translate(855.67 402.93)" fill="#fff"/>
      <path id="Trazado_110128" data-name="Trazado 110128" d="M894.27,403.07a3.63,3.63,0,0,1,.37,1.61v22.08a7.61,7.61,0,0,1-7.6,7.61h-30a3.74,3.74,0,0,1-1-.15,3.7,3.7,0,0,0,3.34,2.11h33.89a3.71,3.71,0,0,0,3.71-3.71v-26a3.72,3.72,0,0,0-2.71-3.55Z" fill="#e0e3ff"/>
      <g id="Grupo_58338" data-name="Grupo 58338">
        <path id="Trazado_110129" data-name="Trazado 110129" d="M848.91,362.9a3.77,3.77,0,1,1,1.1,2.676A3.78,3.78,0,0,1,848.91,362.9Z" fill="#6595bf"/>
        <path id="Trazado_110130" data-name="Trazado 110130" d="M853.93,359.34a3.77,3.77,0,0,1-2.33,6.74,4,4,0,0,1-1.25-.21,3.78,3.78,0,1,0,3.58-6.53Z" fill="#4c708f"/>
      </g>
      <g id="Grupo_58339" data-name="Grupo 58339">
        <path id="Trazado_110131" data-name="Trazado 110131" d="M848.91,386.88a3.77,3.77,0,1,1,1.1,2.676A3.78,3.78,0,0,1,848.91,386.88Z" fill="#6595bf"/>
        <path id="Trazado_110132" data-name="Trazado 110132" d="M853.93,383.32a3.77,3.77,0,0,1-2.33,6.74,4,4,0,0,1-1.25-.21,3.78,3.78,0,1,0,3.58-6.53Z" fill="#4c708f"/>
      </g>
      <g id="Grupo_58340" data-name="Grupo 58340">
        <path id="Trazado_110133" data-name="Trazado 110133" d="M822.27,419.63A3.78,3.78,0,1,1,826,423.4,3.78,3.78,0,0,1,822.27,419.63Z" fill="#6595bf"/>
        <path id="Trazado_110134" data-name="Trazado 110134" d="M827.29,416.07a3.77,3.77,0,0,1-2.33,6.74,3.689,3.689,0,0,1-1.25-.22,3.72,3.72,0,0,0,2.33.81,3.77,3.77,0,0,0,1.25-7.33Z" fill="#4c708f"/>
      </g>
      <g id="Grupo_58341" data-name="Grupo 58341">
        <path id="Trazado_110135" data-name="Trazado 110135" d="M872.55,419.63a3.78,3.78,0,1,1,3.78,3.77,3.78,3.78,0,0,1-3.78-3.77Z" fill="#6595bf"/>
        <path id="Trazado_110136" data-name="Trazado 110136" d="M877.57,416.07a3.77,3.77,0,0,1-2.33,6.74,3.689,3.689,0,0,1-1.25-.22,3.73,3.73,0,0,0,2.34.81,3.77,3.77,0,0,0,1.24-7.33Z" fill="#4c708f"/>
      </g>
    </g>
    <g id="Grupo_58345" data-name="Grupo 58345">
      <g id="Grupo_58343" data-name="Grupo 58343">
        <path id="Trazado_110137" data-name="Trazado 110137" d="M356.23,436.13v12.62H319.57a6.31,6.31,0,0,1,0-12.62Z" fill="#fff"/>
        <path id="Trazado_110138" data-name="Trazado 110138" d="M319.57,436.13c-5.5,0-9.38,7.09-3,12.62h39.66v2.49H249.87v-17.6H356.23v2.49Z" fill="#d9a171"/>
        <path id="Trazado_110139" data-name="Trazado 110139" d="M313.26,442.44a6.32,6.32,0,0,0,6.31,6.31h36.66v2.49H319.57a8.8,8.8,0,0,1,0-17.6h36.66v2.49H319.57A6.32,6.32,0,0,0,313.26,442.44Z" fill="#f25ca9"/>
        <rect id="Rectángulo_8882" data-name="Rectángulo 8882" width="2.36" height="17.59" transform="translate(287.03 433.64)" fill="#fff"/>
        <rect id="Rectángulo_8883" data-name="Rectángulo 8883" width="2.36" height="17.59" transform="translate(281.12 433.64)" fill="#fff"/>
        <path id="Trazado_110140" data-name="Trazado 110140" d="M321.96,440.65v5.47l2.78-1.93,2.79,1.93v-5.47Z" fill="#e24897"/>
        <circle id="Elipse_4175" data-name="Elipse 4175" cx="5.11" cy="5.11" r="5.11" transform="translate(294.51 438.27)" fill="#fff"/>
      </g>
      <g id="Grupo_58344" data-name="Grupo 58344">
        <path id="Trazado_110141" data-name="Trazado 110141" d="M259.94,418.54v12.61h36.65a6.31,6.31,0,1,0,0-12.61Z" fill="#fff"/>
        <path id="Trazado_110142" data-name="Trazado 110142" d="M296.59,418.54c5.51,0,9.39,7.09,3,12.61H259.94v2.49H366.3V416.05H259.94v2.49Z" fill="#6595bf"/>
        <path id="Trazado_110143" data-name="Trazado 110143" d="M302.9,424.85a6.31,6.31,0,0,1-6.31,6.3H259.94v2.49h36.65a8.8,8.8,0,1,0,0-17.59H259.94v2.49h36.65a6.32,6.32,0,0,1,6.31,6.31Z" fill="#a496ff"/>
        <rect id="Rectángulo_8884" data-name="Rectángulo 8884" width="2.36" height="17.59" transform="translate(329.14 433.64) rotate(180)" fill="#fff"/>
        <rect id="Rectángulo_8885" data-name="Rectángulo 8885" width="2.36" height="17.59" transform="translate(335.04 433.64) rotate(180)" fill="#fff"/>
        <path id="Trazado_110144" data-name="Trazado 110144" d="M294.21,423.05v5.48l-2.79-1.94-2.78,1.94v-5.48Z" fill="#e24897"/>
        <path id="Trazado_110145" data-name="Trazado 110145" d="M311.4,424.85a4.83,4.83,0,1,1,4.83,4.82,4.83,4.83,0,0,1-4.83-4.82Z" fill="#fff"/>
      </g>
    </g>
    <g id="Grupo_58347" data-name="Grupo 58347">
      <g id="Grupo_58346" data-name="Grupo 58346">
        <path id="Trazado_110146" data-name="Trazado 110146" d="M853.51,309.68a16.491,16.491,0,0,1-2.15-5.95l.15.2a4,4,0,0,0,4.69-.89,7.21,7.21,0,0,0,1.75-4.55,13.81,13.81,0,0,1-4,1.69,5.66,5.66,0,0,0-2.79,1.9,27.335,27.335,0,0,1,.09-5.51c.06-.57.16-1.14.25-1.71a4.6,4.6,0,0,0,5-.91,12.161,12.161,0,0,0,2.78-4.41,5.1,5.1,0,0,1-2.82,1.25,15.218,15.218,0,0,0-3.08.66,3.681,3.681,0,0,0-1.43,1c.49-2.52,1.06-5,1.5-7.55.09-.51.15-1,.22-1.55l.06.25a3.9,3.9,0,0,0,4.05.14,5.8,5.8,0,0,0,2.57-3.15,16.65,16.65,0,0,0,.8-4c-1.27,1.22-3.46.85-5,1.67a5,5,0,0,0-2.1,2.37l.09-.77a24.129,24.129,0,0,0,.19-3.61,9,9,0,0,0-1.09-3.9,4.73,4.73,0,0,0-.2-4.05,8.13,8.13,0,0,0-3.64-3.36,24.759,24.759,0,0,0-4.8-1.66,10.588,10.588,0,0,0-.2,5,6.9,6.9,0,0,0,2.7,4.19,5.39,5.39,0,0,0,5,.64l.41-.06a8.291,8.291,0,0,1,.85,3.27,22.42,22.42,0,0,1-.21,3.66,14.682,14.682,0,0,1-.18,1.61,13.06,13.06,0,0,0-3.21-2.46,7.53,7.53,0,0,0-4.69-.85c-1.82.31-3.56,1.46-5.36,1a13,13,0,0,0,5.78,4.75c2.4.88,5.38.6,7.13-1.17l.21-.19c-.1.82-.22,1.64-.36,2.45-.51,2.84-1.18,5.69-1.67,8.56l.05-.62a2.9,2.9,0,0,0-1.57-2.27,9.14,9.14,0,0,0-2.79-.91l-3.54-.75a.69.69,0,0,0-.45,0c-.21.1-.24.36-.24.59a5.75,5.75,0,0,0,2.81,4.73,6.21,6.21,0,0,0,5.55.33,33,33,0,0,0-.38,6.8,3.52,3.52,0,0,0-2.16-1.84,10.681,10.681,0,0,0-3.19-.37h-3.68a.57.57,0,0,0-.39.1.48.48,0,0,0-.06.48,6.61,6.61,0,0,0,3.7,4.29,7,7,0,0,0,5.77-.07l.07-1.77a21.069,21.069,0,0,0,.62,3.47,17.292,17.292,0,0,0,1.47,3.66,4.73,4.73,0,0,0-4-.45,11.909,11.909,0,0,1-4.31.76,5.76,5.76,0,0,0,9.52,1.79l-.49-.94a13.61,13.61,0,0,0,3,3.26c.51.39,1.14-.35.63-.74a11.764,11.764,0,0,1-1.52-1.37,2.36,2.36,0,0,0,1.73-.53,5.5,5.5,0,0,0,1.39-2.41l.88-2.44C857,307.12,854.8,308,853.51,309.68Z" fill="#9d8de0"/>
        <path id="Trazado_110147" data-name="Trazado 110147" d="M880.74,283.64c-1,.29-2,.38-2.94.58a5.29,5.29,0,0,0-2.68,1.23,2.56,2.56,0,0,0-.78,2.5,18.689,18.689,0,0,0-4.1,3.14,4.53,4.53,0,0,0,0-3.89,9.41,9.41,0,0,0-2.86-3.44,9.229,9.229,0,0,0-.83,4.69,3.72,3.72,0,0,0,3.07,3.24,24.063,24.063,0,0,0-2,2.57,26.281,26.281,0,0,0-1.54,2.61,3.18,3.18,0,0,0-.64-1.84,8.38,8.38,0,0,0-2.14-1.83.61.61,0,0,0-.58-.15.63.63,0,0,0-.26.35,3.72,3.72,0,0,0,2.82,4.91l.19-.18A32.334,32.334,0,0,0,863.7,303a3.909,3.909,0,0,0-1.33-1.44,10.241,10.241,0,0,0-2.77-1.11c.73.7.32,2,.74,2.88a2.17,2.17,0,0,0,1.29,1.1,4.88,4.88,0,0,0,1.66.2c-.25,1.08-.46,2.18-.64,3.27a6.026,6.026,0,0,1-.14,1,3.31,3.31,0,0,0-2.75-1.58,4.491,4.491,0,0,0,.87,2.08,1.68,1.68,0,0,0,1.73.52c-.21,1.67-.37,3.36-.52,5a3.24,3.24,0,0,0-2.42-1.15,4.58,4.58,0,0,0,.87,2.09,1.8,1.8,0,0,0,1.43.58,2.2,2.2,0,0,1-.05.57c0,.5.73.66.77.16v-.52a4.1,4.1,0,0,0,5-2.53,2.23,2.23,0,0,1-1.66.33,10.12,10.12,0,0,0-1.73-.16,1.56,1.56,0,0,0-1.39.87l-.14.16c.1-1.23.22-2.48.36-3.73a3.51,3.51,0,0,0,3.85.29,6.771,6.771,0,0,0,2.35-3.23,3,3,0,0,1-2.16.45,10.651,10.651,0,0,0-2.25-.15,2.2,2.2,0,0,0-1.57.86c.24-1.76.54-3.52.94-5.24v.49a3,3,0,0,0,3.17.88,5.06,5.06,0,0,0,2.66-2.15l-2.66-.17a4,4,0,0,0-3.09.67,34.817,34.817,0,0,1,1.64-5.16,3.3,3.3,0,0,0,2.11,1.43,5.17,5.17,0,0,0,2.75-.28,7.149,7.149,0,0,0,2.54-1.58,3.6,3.6,0,0,1-2.45-.23,18.532,18.532,0,0,0-2.33-.93,3,3,0,0,0-2,.1,22.31,22.31,0,0,1,3.27-5,2.16,2.16,0,0,0,.59,1.56,3.8,3.8,0,0,0,2.35,1,5.3,5.3,0,0,0,4.39-1.35L872.57,292a2.94,2.94,0,0,0-1.84-.31c.3-.3.6-.61.92-.89a16.5,16.5,0,0,1,2.9-2.08l.08.34a2.83,2.83,0,0,0,3.19.48A4.67,4.67,0,0,0,880,287,14.176,14.176,0,0,0,880.74,283.64Z" fill="#7d65e0"/>
        <path id="Trazado_110148" data-name="Trazado 110148" d="M845.83,313.35a8.841,8.841,0,0,1-2.38-1.35,2.19,2.19,0,0,0,1.2-1.14,3.42,3.42,0,0,0,.1-2.3,9.942,9.942,0,0,0-1-2.13A6.34,6.34,0,0,1,842.7,309a3.509,3.509,0,0,0-.47,1.88,16,16,0,0,1-2.65-3.81,1.64,1.64,0,0,0,1.58-.58,2.55,2.55,0,0,0,.35-2.12,7.09,7.09,0,0,0-.91-2,7,7,0,0,0-1.94,2.65c-.7-1.72-1.28-3.49-1.91-5.23a3.37,3.37,0,0,0,2.67-2,5.06,5.06,0,0,0-.19-4.08,5.74,5.74,0,0,0-3.12,4.36,26.428,26.428,0,0,0-1.47-3.09c-.24-.43-.5-.84-.77-1.24a3,3,0,0,0,.27-1.7,3.9,3.9,0,0,0-1.07-1.68,8.22,8.22,0,0,0-7-2.31c1.41,1.58,1.13,4.25,2.7,5.66a3.63,3.63,0,0,0,2.73.82,5.161,5.161,0,0,0,1.5-.37,20.7,20.7,0,0,1,2,3.83,4.68,4.68,0,0,0-2.66.23c-1.3.47-2.56,1.22-3.94,1.2a4.42,4.42,0,0,0,7.47.8l.25.66c.58,1.65,1.14,3.33,1.83,4.94a4.44,4.44,0,0,0-2.56-.77,12.7,12.7,0,0,0-3.16.55,3.91,3.91,0,0,0,6.35,1.63,17.7,17.7,0,0,0,2.43,3.77c.26.29.53.56.81.83a4.56,4.56,0,0,0-3.79.1,14,14,0,0,0-2.24,1.69,4.28,4.28,0,0,1-2.54,1.09c1.2,0,2.26.74,3.42,1a4.66,4.66,0,0,0,5.7-3.43,10.69,10.69,0,0,0,3.16,1.9C846.15,314.47,846.4,313.56,845.83,313.35Z" fill="#7d65e0"/>
      </g>
      <path id="Trazado_110149" data-name="Trazado 110149" d="M869.19,317.57l-.51,4.05-3.41,26.89H835.3l-3.76-26.89-.56-4.05Z" fill="#d9a171"/>
      <path id="Trazado_110150" data-name="Trazado 110150" d="M868.44,317.57H831.73c-2.47,0-4.46-1.62-4.46-3.63h0c0-2,2-3.64,4.46-3.64h36.71c2.46,0,4.46,1.63,4.46,3.64h0C872.9,316,870.9,317.57,868.44,317.57Z" fill="#d9a171"/>
      <path id="Trazado_110151" data-name="Trazado 110151" d="M831,317.57l.76,5.5c17.48-1.41,31.91,10,33.53,25.44,1.3-10.33,4.18-32.35,3.92-30.94Z" fill="#a37955"/>
    </g>
    <g id="Grupo_58361" data-name="Grupo 58361">
      <g id="Grupo_58357" data-name="Grupo 58357">
        <path id="Trazado_110152" data-name="Trazado 110152" d="M753.25,282.16V445a23.761,23.761,0,0,1-.659,5.558,22.748,22.748,0,0,1-1.18,3.642H518.84c-.25-.62-.49-1.26-.7-1.92s-.35-1.14-.48-1.72A23.762,23.762,0,0,1,517,445V282.16a23.74,23.74,0,0,1,23.23-23.78H729.45a23.8,23.8,0,0,1,23.8,23.78Z" fill="#d9a171"/>
        <path id="Trazado_110153" data-name="Trazado 110153" d="M753.25,282.16V445a23.761,23.761,0,0,1-.659,5.558,22.748,22.748,0,0,1-1.18,3.642H725.09a22.752,22.752,0,0,0,1.18-3.64,23.772,23.772,0,0,0,.66-5.56V282.16a23.79,23.79,0,0,0-23.8-23.79h26.32A23.8,23.8,0,0,1,753.25,282.16Z" fill="#a37955"/>
        <g id="Grupo_58355" data-name="Grupo 58355">
          <g id="Grupo_58348" data-name="Grupo 58348">
            <path id="Trazado_110154" data-name="Trazado 110154" d="M610.09,281.65c-2.87,25.18-11.1,50-22.79,74.55-15.15-36.58-24.66-70.64-20.79-107.89,3.69-1.1,39.55-.19,44.12.21a168.938,168.938,0,0,1-.54,33.13Z" fill="#fff"/>
            <path id="Trazado_110155" data-name="Trazado 110155" d="M576.6,268.38,581,279a3.11,3.11,0,0,0,2.89,1.94c2.25-.48,10.1,1.34,11.15-1.73,1.63-3.33,5-10.35,5-10.78-.7-.62-8.36-10.39-11.85-11.65-12.25-2-10.06-1.42-14.65,9.2Z" fill="#344154"/>
            <path id="Trazado_110156" data-name="Trazado 110156" d="M602.51,346.54l-7.04,10.2-.74,1.08-7.4,10.73-.03.04-.02-.04-6.47-10.29-.96-1.52-6.32-10.03.22-1.64,2.09-15.87.37-2.84v-.02l6.04-45.88.11-.89,10.58-.26.19,1.34,6.5,45.62v.07l.4,2.76,2.23,15.69Z" fill="#344154"/>
            <path id="Trazado_110157" data-name="Trazado 110157" d="M690.78,368.55h-19v85.6H512.16c-.42-.53-.92-1.17-1.49-1.92-.41-.52-.85-1.1-1.32-1.72-2.47-3.26-5.77-7.78-9.22-13-8.77-13.17-18.54-30.66-18.15-42.77,1.23-39.07,6.67-72.16,20.1-97.36a98.561,98.561,0,0,1,16-22.22,90.78,90.78,0,0,1,22.2-16.82A108.631,108.631,0,0,1,561,249.82h0c1.62-.5,3.28-1,5-1.4h.21l.3-.06c-.16,1.36-.3,2.72-.41,4.09l-.15,2c-.05.64-.09,1.27-.12,1.91s-.07,1.29-.1,1.94v.07h0v.09a.313.313,0,0,0,0,.1h0v1.54h0q-.15,5.22.06,10.44a.272.272,0,0,0,0,.09c0,1,.08,2,.13,3,0,.68.08,1.35.13,2q.38,5.55,1.1,11.08c.08.62.17,1.23.25,1.84.06.46.13.92.2,1.38l.21,1.38c.07.46.14.92.22,1.38s.15.92.24,1.37c.11.68.23,1.34.35,2q.1.64.24,1.29h0l.21,1.17.36,1.77c.12.59.24,1.17.37,1.76s.28,1.36.43,2,.31,1.36.47,2,.29,1.24.44,1.86q.78,3.27,1.67,6.56c.14.54.29,1.09.44,1.64q.54,1.94,1.11,3.87c.16.56.33,1.11.49,1.66.46,1.51.93,3,1.41,4.52h0c.17.52.34,1.05.52,1.56s.35,1.08.53,1.61.4,1.21.61,1.82.42,1.21.62,1.82c.33.95.66,1.91,1,2.86s.62,1.75.94,2.62c.06.17.11.32.18.48.31.87.63,1.74,1,2.61s.71,1.91,1.09,2.86c.21.59.44,1.17.67,1.75.34.88.68,1.76,1,2.63l.15.36c.4,1,.82,2.05,1.23,3.07.51,1.25,1,2.5,1.55,3.74h0c.16-.33.32-.63.47-1h0c.24-.49.47-1,.69-1.48a2.64,2.64,0,0,0,.18-.38c.27-.57.53-1.14.79-1.71.18-.39.36-.79.53-1.19.27-.58.54-1.17.8-1.76.17-.38.33-.76.49-1.14.59-1.31,1.16-2.63,1.72-3.95.26-.62.52-1.25.77-1.87.8-1.93,1.58-3.88,2.34-5.82.38-1,.76-1.94,1.12-2.92L598.3,330c.35-1,.7-1.94,1-2.92.1-.27.2-.55.29-.82.25-.7.49-1.41.72-2.11.33-1,.65-1.94,1-2.92q.88-2.73,1.69-5.48c.08-.23.14-.46.21-.69.29-1,.57-2,.84-2.95.5-1.78,1-3.58,1.42-5.36.22-.87.43-1.75.63-2.61.1-.39.18-.78.27-1.16a.55.55,0,0,1,.08-.35h0c.34-1.43.65-2.86.94-4.3.15-.71.29-1.41.43-2.12s.27-1.4.4-2.1v-.16c.13-.67.24-1.34.35-2a4.347,4.347,0,0,1,.11-.61c.11-.59.2-1.18.29-1.77h0l.18-1.16v-.22c.11-.75.22-1.48.32-2.23.14-1,.27-2,.38-3,.06-.44.12-.89.16-1.34,0-.24.06-.48.08-.72a1.329,1.329,0,0,0,0-.28c.05-.34.08-.69.11-1v-.33c.07-.69.14-1.38.2-2.08,0-.39.07-.79.1-1.18,0-.55.09-1.1.13-1.64s.09-1.36.13-2.05a5.257,5.257,0,0,1,.05-.88,2.3,2.3,0,0,0,0-.26h0v-.87a2.7,2.7,0,0,0,0-.29v-.95a.81.81,0,0,0,0-.16c0-.13,0-.27,0-.4a2.81,2.81,0,0,0,0-.3.865.865,0,0,0,0-.16v-.35h0a.43.43,0,0,0,0-.16.656.656,0,0,0,0-.15v-.08a1.334,1.334,0,0,0,0-.2v-1.08a.28.28,0,0,0,0-.13h0v-1.6a1.475,1.475,0,0,0,0-.3,4,4,0,0,0,0-.49.479.479,0,0,0,0-.17v-.7h0v-6.29c0-.59-.05-1.18-.08-1.77v-1.42c0-.82-.1-1.63-.15-2.45v-.34a3.529,3.529,0,0,0-.07-.86c-.07-.28,0-.57-.06-.86h.47c14.77,2.18,26.74,5.29,36.48,9.78a58.86,58.86,0,0,1,22.62,17.44h0c5.78,7.43,9.91,16.57,12.92,27.85C687.56,320.26,689.56,341.46,690.78,368.55Z" fill="#6595bf"/>
            <path id="Trazado_110158" data-name="Trazado 110158" d="M610.09,281.65,588,261.33s-21.73,13.45-21.73,14c-1.48-8.86-.52-18.17.21-27,3.69-1.1,39.55-.19,44.12.21a168.94,168.94,0,0,1-.51,33.11Z" fill="#6595bf"/>
          </g>
          <g id="Grupo_58350" data-name="Grupo 58350">
            <path id="Trazado_110159" data-name="Trazado 110159" d="M626.49,326.31l3.09,5c-2.82,2.11-39.79,30.26-42.33,32.26-2.44-2-36.65-30.1-39.25-32.26l14.07-22.63L529.92,276l32-26.91c1.65-.25,3-.52,4.49-.7-7.06,25.83,1.2,67.73,20.9,107.84,19.86-35.11,27.81-73.95,23.39-107.68,8.67,1.06,34.92,27,36.86,27.12-.58.6-31.57,32.46-32.15,33Z" fill="#4c708f"/>
            <g id="Grupo_58349" data-name="Grupo 58349">
              <path id="Trazado_110160" data-name="Trazado 110160" d="M587.3,356.2c-.67-.59-36.14-29.6-36.76-30.21,1.54-2.46,12-19.15,13.21-21.17l-29.23-29c.86-.19,30.82-28.22,32-27.55C562.56,283.39,571.87,319.49,587.3,356.2Z" fill="#a3bfd9"/>
              <path id="Trazado_110161" data-name="Trazado 110161" d="M615.83,308.23,626.93,326c-.56.4-39.09,29.8-39.63,30.21,16.73-35.3,26.42-71,23.33-107.68.37,0,.78.19,1.25.22L643,275.86l-29.23,29Z" fill="#a3bfd9"/>
            </g>
          </g>
          <g id="Grupo_58351" data-name="Grupo 58351">
            <path id="Trazado_110162" data-name="Trazado 110162" d="M607.48,248.26c-11.07,14.92-25.15,19.47-37.79,0,1.2-7.3,5-30.62,6.17-37.52l24.85-.16Z" fill="#ffbf9d"/>
            <path id="Trazado_110163" data-name="Trazado 110163" d="M607.48,248.26c-.92,1.19-1.9,2.33-2.82,3.41-4.37-14.8-9.87-21.91-32.28-19.73l3.48-21.2,24.85-.16Z" fill="#ffbdc8"/>
          </g>
          <path id="Trazado_110164" data-name="Trazado 110164" d="M638.66,168.76c19.59-8,25.55,23.69-9,25.52Z" fill="#ffbf9d"/>
          <path id="Trazado_110165" data-name="Trazado 110165" d="M541.57,167.83c-19.63-8.15-25.17,23.74,9.06,25.68Z" fill="#ffbf9d"/>
          <path id="Trazado_110166" data-name="Trazado 110166" d="M637.49,165c-2.56,45.3-26.48,62.87-49.45,61.65-21.63-1.15-42.33-18.44-46.18-61.65C543.29,89.32,635.7,88.42,637.49,165Z" fill="#ffbf9d"/>
          <path id="Trazado_110167" data-name="Trazado 110167" d="M640,150.72v.11a.2.2,0,0,0-.06-.17Z" fill="#754c24"/>
          <g id="Grupo_58354" data-name="Grupo 58354">
            <g id="Grupo_58353" data-name="Grupo 58353">
              <path id="Trazado_110168" data-name="Trazado 110168" d="M556.58,165.21a12.65,12.65,0,0,1,7.31-2.88,10.09,10.09,0,0,1,7.9,2.44,1.574,1.574,0,1,1-2.17,2.28.741.741,0,0,1-.12-.13c-2.43-2.84-8.34-2.88-11.87-.43h0a.83.83,0,0,1-1.15-.21.82.82,0,0,1,.1-1.07Z" fill="#344154"/>
              <path id="Trazado_110169" data-name="Trazado 110169" d="M620.64,167.38c-3.52-2.45-9.43-2.41-11.87.43a1.57,1.57,0,1,1-2.41-2l.12-.13a10.11,10.11,0,0,1,7.91-2.44,12.68,12.68,0,0,1,7.31,2.88.83.83,0,0,1-1,1.31Z" fill="#344154"/>
              <path id="Trazado_110170" data-name="Trazado 110170" d="M558,173.41a6.78,6.78,0,1,1,6.78,6.78,6.78,6.78,0,0,1-6.78-6.78Z" fill="#fdeaea"/>
              <path id="Trazado_110171" data-name="Trazado 110171" d="M607.21,174a6.78,6.78,0,1,1,6.78,6.78,6.78,6.78,0,0,1-6.78-6.78Z" fill="#fdeaea"/>
              <path id="Trazado_110172" data-name="Trazado 110172" d="M559.55,173.41a5.18,5.18,0,1,1,5.18,5.18A5.18,5.18,0,0,1,559.55,173.41Z" fill="#344154"/>
              <path id="Trazado_110173" data-name="Trazado 110173" d="M608.81,173.85A5.18,5.18,0,1,1,614,179a5.18,5.18,0,0,1-5.19-5.15Z" fill="#344154"/>
              <path id="Trazado_110174" data-name="Trazado 110174" d="M565.49,171.66a1.36,1.36,0,1,1,.97.407,1.37,1.37,0,0,1-.97-.407Z" fill="#fff"/>
              <path id="Trazado_110175" data-name="Trazado 110175" d="M614.53,172.21a1.393,1.393,0,1,1,1.97-.03,1.393,1.393,0,0,1-1.97.03Z" fill="#fff"/>
              <path id="Trazado_110176" data-name="Trazado 110176" d="M616.19,184.14c0-2.18,3.48-3.95,7.76-3.95s7.76,1.77,7.76,3.95-3.47,4-7.76,4S616.19,186.33,616.19,184.14Z" fill="#ffbdc8"/>
              <path id="Trazado_110177" data-name="Trazado 110177" d="M546.77,184.14c0-2.18,3.48-3.95,7.76-3.95s7.76,1.77,7.76,3.95-3.47,4-7.76,4S546.77,186.33,546.77,184.14Z" fill="#ffbdc8"/>
              <path id="Trazado_110178" data-name="Trazado 110178" d="M585.72,182.78c.2-.29.42-.56.64-.84l.23-.29.15-.19v-.05a5.843,5.843,0,0,0,.48-.74l.09-.2a2.267,2.267,0,0,1,.11-.43,1.21,1.21,0,0,1,2.33.64,6.86,6.86,0,0,1-1.65,2.87l-.14.18-.19.27a5.077,5.077,0,0,0-.35.59l-.08.18-.06.25v.35h0v.12a.36.36,0,0,0,.07.1h0l.1.1.27.16a.2.2,0,0,1,.08,0h0l.32.1c.25.07.49.13.74.18a8.711,8.711,0,0,0,1.46.21,14.1,14.1,0,0,0,1.72,0,1.21,1.21,0,0,1,1.21,1.2,1.23,1.23,0,0,1-1.21,1.21,14.66,14.66,0,0,1-4-.36,3.44,3.44,0,0,1-2.41-5.72Z" fill="#f5acb7"/>
              <g id="Grupo_58352" data-name="Grupo 58352">
                <path id="Trazado_110179" data-name="Trazado 110179" d="M604.72,196.15a14.13,14.13,0,0,1-4.65,8.79,11.409,11.409,0,0,1-1.08.87,14.16,14.16,0,0,1-22.36-9.69,1.21,1.21,0,0,1,1.52-1.31c.8.21,1.6.41,2.39.58a46.73,46.73,0,0,0,20.45,0c.73-.16,1.46-.35,2.2-.55a1.21,1.21,0,0,1,1.53,1.31Z" fill="#344154"/>
                <path id="Trazado_110180" data-name="Trazado 110180" d="M601,195.39h0a3.9,3.9,0,0,1-3.22,3.84,40.81,40.81,0,0,1-14,0,3.88,3.88,0,0,1-3.2-3.83h0A46.73,46.73,0,0,0,601,195.39Z" fill="#fff"/>
                <path id="Trazado_110181" data-name="Trazado 110181" d="M599,205.81a14.14,14.14,0,0,1-17.21-.45c1.66-2,4.81-3.28,8.43-3.28C594.1,202.08,597.46,203.61,599,205.81Z" fill="#ff66cf"/>
              </g>
            </g>
            <path id="Trazado_110182" data-name="Trazado 110182" d="M635.35,168.15l-6.61,3,.55-3.85a6.41,6.41,0,0,0-.39-3.33h0a6.22,6.22,0,0,0-.7-1.29h0a.239.239,0,0,0-.06-.09,7.36,7.36,0,0,0-5.06-3,66.079,66.079,0,0,0-18.26,0,7.34,7.34,0,0,0-5,3,6.61,6.61,0,0,0-1.19,4.69l.61,4.9c-1.61-.44-6.78-1.8-9.69-1.8a100.189,100.189,0,0,0-10.55.98l.57-4.05a6.55,6.55,0,0,0-1.14-4.73,7.38,7.38,0,0,0-5.06-3,66.08,66.08,0,0,0-18.26,0,7.29,7.29,0,0,0-5,3,6.67,6.67,0,0,0-1.2,4.69l.47,3.76L545,169l-2.84-1.23-.63-.28v.3l-.06.44.37.16.46.19,2.74,1.18,4.58,2,.63,5.09a7.44,7.44,0,0,0,1.53,3.66,8.06,8.06,0,0,0,6.41,3.11h12.18a7.94,7.94,0,0,0,7.93-6.64l.68-4.8a103.712,103.712,0,0,1,10.7-1.1c3,0,8.73,1.56,9.79,1.86l.49,3.91a7.89,7.89,0,0,0,7.94,6.77H620a8.13,8.13,0,0,0,6.46-3.17,7.42,7.42,0,0,0,1.46-3.47l.71-5,6.84-3.05Zm-56.45-1-1.37,9.61a7.22,7.22,0,0,1-7.24,6H558.11a7.43,7.43,0,0,1-5.6-2.5,6.7,6.7,0,0,1-1.64-3.62l-.71-5.64-.5-4a5.88,5.88,0,0,1,1.06-4.13,6.59,6.59,0,0,1,4.48-2.67,63,63,0,0,1,8.92-.62,67.617,67.617,0,0,1,9.17.63,6.74,6.74,0,0,1,4.59,2.74,5.83,5.83,0,0,1,1.02,4.25Zm49.7,0-1.37,9.61a6.74,6.74,0,0,1-1.6,3.47,7.44,7.44,0,0,1-5.63,2.54H607.82a7.18,7.18,0,0,1-7.25-6.12l-1.2-9.62a5.83,5.83,0,0,1,1.06-4.13,6.56,6.56,0,0,1,4.48-2.67,62.921,62.921,0,0,1,8.91-.62,67.76,67.76,0,0,1,9.18.63,6.74,6.74,0,0,1,4.59,2.74,6.17,6.17,0,0,1,.51.89,3.879,3.879,0,0,1,.32.86,5.49,5.49,0,0,1,.18,2.47Z" fill="#656ca1"/>
          </g>
          <path id="Trazado_110183" data-name="Trazado 110183" d="M546.37,182.39s-6.48-24,8.38-41.06c0,0,9,11.1,17.61,12.66,0,0-2.38-6.75-.3-9.8,0,0,6.33,10.32,14.57,12.53a37.363,37.363,0,0,1-1.07-5.33s6.8,5.07,18.44,4.55a18.59,18.59,0,0,1-6.8-11.63c3.29,3.68,12,8.89,17.12,8.31-.45-1.3-1.47-5.57.87-7.23,1.26-.89,3.89-3.56,8-.66,7.23,5.1,4.67,21.14,4.67,21.14,0-.58,6-9.2,5.42-11.44,2.05.88,3.78,27.46,1.32,30.5,0,0,14.75-23.3,2.17-57.32-9.92-26.81-35-29.25-39-24.07,0,0,.78-3,3.29-3.77,0,0-13.43-2.27-20.06,3.12,0,0-.06-2.64,1.37-3.59,0,0-27,5.22-32.29,18.2-.57,1.39-2.45-4.55-1.56-6.17,0,0-3.94,6.62-2.62,9,0,0-4.92.38-6.66,1.81,0,0,4.93,2,4.45,4s-4.31,2.73-8.51,15.17c-2.37,7-1.7,16.71-1.7,16.71l2.39-2.08S532.68,172.37,546.37,182.39Z" fill="#344154"/>
        </g>
        <path id="Trazado_110184" data-name="Trazado 110184" d="M709.09,421.93h0c-.25.28-.52.55-.8.81a90,90,0,0,1-18,12.77,191.9,191.9,0,0,1-18.49,8.93c-5.4,2.28-10.76,4.32-15.72,6.07-1.82.64-3.6,1.25-5.3,1.82q-3,1-5.63,1.82H629.73l-.55-1.82-.55-1.82-4.55-15L622,428.72h0l-3.35-11.06,2-1.39,24.1-16.48a18.41,18.41,0,0,0,6.08-23.41L644.21,363l-9.08-18.18L672.62,291a116.9,116.9,0,0,1,10.52,12.67C708.25,338.22,730.47,399.51,709.09,421.93Z" fill="#4c708f"/>
        <path id="Trazado_110185" data-name="Trazado 110185" d="M726,399.66v1.91a6.7,6.7,0,0,1-.05,1c-.05.33,0,.67-.06,1s-.05.66-.08,1q-.07,1-.21,1.92a7.431,7.431,0,0,1-.13.93c-.09.55-.18,1.09-.28,1.63-.16.81-.35,1.59-.54,2.35s-.43,1.5-.69,2.23c-.17.48-.35.95-.53,1.41l-.29.69c-.21.45-.42.89-.64,1.32s-.45.86-.7,1.26-.5.82-.76,1.21a21,21,0,0,1-2.73,3.21,90,90,0,0,1-18,12.77,212.994,212.994,0,0,1-28.48,12.9c-2,.74-3.87,1.44-5.72,2.1s-3.61,1.25-5.31,1.82q-3,1-5.63,1.82H639.72l-.55-1.82h0l-39.08-3.77.95-25.95,67-31.89L644.21,363l-15-17.45v-.05h0l-.48-.57h0l41.53-69.09h0A134.2,134.2,0,0,1,683,291.51c.65.92,1.29,1.84,1.94,2.79.2.28.39.57.58.86.46.66.92,1.34,1.37,2,.33.49.65,1,1,1.48s.65,1,1,1.5c.08.11.14.22.22.33.57.9,1.16,1.81,1.73,2.75l.18.28,1.17,1.91c2.35,3.85,4.68,7.89,6.94,12,.38.7.75,1.4,1.13,2.09s.75,1.4,1.11,2.11.74,1.41,1.11,2.13.73,1.42,1.09,2.13.62,1.23.92,1.85c.8,1.59,1.58,3.18,2.34,4.8l1,2c.34.73.68,1.47,1,2.2.67,1.46,1.32,2.91,2,4.38.32.74.64,1.47,1,2.22l.93,2.21q.91,2.22,1.8,4.44a.246.246,0,0,0,.08.22c.57,1.45,1.13,2.89,1.66,4.33s1,2.87,1.54,4.3c.26.73.51,1.47.76,2.2l.72,2.18.69,2.18q.34,1.1.66,2.16l.48,1.62q.69,2.42,1.31,4.79c.18.71.36,1.41.53,2.11l.48,2.08c.16.69.31,1.38.46,2.06s.28,1.37.41,2,.26,1.35.37,2,.23,1.33.34,2,.2,1.32.29,2c.17,1.22.31,2.42.44,3.61v.3c.06.6.11,1.21.15,1.8s.09,1.24.12,1.85.06,1.21.07,1.81S726,399,726,399.66Z" fill="#6595bf"/>
        <g id="Grupo_58356" data-name="Grupo 58356">
          <path id="Trazado_110186" data-name="Trazado 110186" d="M726,399.66v1.91a6.7,6.7,0,0,1-.05,1c-.05.33,0,.67-.06,1s-.05.66-.08,1q-.07,1-.21,1.92a7.431,7.431,0,0,1-.13.93c-.09.55-.17,1.09-.28,1.63-.16.81-.34,1.59-.54,2.35s-.43,1.5-.69,2.23c-.17.48-.34.95-.53,1.41l-.29.69c-.21.45-.41.89-.64,1.32s-.45.86-.7,1.26-.5.82-.76,1.21a21,21,0,0,1-2.73,3.21,90,90,0,0,1-18,12.77,212.994,212.994,0,0,1-28.48,12.9c-2,.74-3.87,1.44-5.72,2.1s-3.61,1.25-5.31,1.82q-3,1-5.63,1.82H639.72l-.91-3,2.65-.65a314.8,314.8,0,0,0,30.28-9.16c4.82-1.75,9.71-3.7,14.43-5.84,8.61-3.9,16.7-8.43,22.9-13.58h0l.86-.74c22.67-19.65-2.18-89.36-27-129.68.65.92,1.29,1.84,1.94,2.79.2.28.39.57.58.86.46.66.92,1.34,1.37,2,.33.49.65,1,1,1.48s.65,1,1,1.5c.08.11.14.22.22.33.57.9,1.16,1.81,1.73,2.75l.18.28,1.17,1.91c2.35,3.85,4.68,7.89,6.94,12,.38.7.75,1.4,1.13,2.09s.75,1.4,1.11,2.11.74,1.41,1.11,2.13.73,1.42,1.09,2.13.62,1.23.92,1.85c.8,1.59,1.58,3.18,2.34,4.8l1,2c.34.73.68,1.47,1,2.2.67,1.46,1.32,2.91,2,4.38.32.74.64,1.47,1,2.22l.93,2.21q.91,2.22,1.8,4.44a.246.246,0,0,0,.08.22c.57,1.45,1.13,2.89,1.66,4.33s1,2.87,1.54,4.3c.26.73.51,1.47.76,2.2l.72,2.18.69,2.18q.34,1.1.66,2.16l.48,1.62q.69,2.42,1.31,4.79c.18.71.36,1.41.53,2.11l.48,2.08c.16.69.31,1.38.46,2.06s.28,1.37.41,2,.26,1.35.37,2,.23,1.33.34,2,.2,1.32.29,2c.18,1.21.32,2.42.44,3.61v.3c.06.6.11,1.21.15,1.8s.09,1.24.12,1.85.06,1.21.07,1.81S726,399,726,399.66Z" fill="#4c708f"/>
          <path id="Trazado_110187" data-name="Trazado 110187" d="M629.21,345.57l-.53-.67-.02.04Z" fill="#4c708f"/>
        </g>
      </g>
      <g id="Grupo_58359" data-name="Grupo 58359">
        <g id="Grupo_58358" data-name="Grupo 58358">
          <path id="Trazado_110188" data-name="Trazado 110188" d="M609.05,452.24H415.18a13.91,13.91,0,0,1-13.84-12.45l-13.49-127a13.92,13.92,0,0,1,13.84-15.39H595.55a13.93,13.93,0,0,1,13.85,12.449l13.49,127a13.92,13.92,0,0,1-13.84,15.39Z" fill="#344154"/>
          <path id="Trazado_110189" data-name="Trazado 110189" d="M622.89,436.85l-13.49-127a13.93,13.93,0,0,0-13.85-12.45H584.23c14.78,146.07-17,140.12-82.84,140.12H401.1l.24,2.25a13.91,13.91,0,0,0,13.84,12.45H609.05a13.92,13.92,0,0,0,13.84-15.37Z" fill="#27313f"/>
          <circle id="Elipse_4176" data-name="Elipse 4176" cx="10.93" cy="10.93" r="10.93" transform="translate(494.44 363.9)" fill="#fff"/>
        </g>
        <rect id="Rectángulo_8886" data-name="Rectángulo 8886" width="110.44" height="16.83" rx="2.79" transform="translate(603.05 435.5)" fill="#27313f"/>
      </g>
      <g id="Grupo_58360" data-name="Grupo 58360">
        <path id="Trazado_110190" data-name="Trazado 110190" d="M946,450.51H127c-1.54,0-2.79.81-2.79,1.82s1.25,1.82,2.79,1.82H946c1.54,0,2.8-.81,2.8-1.82S947.51,450.51,946,450.51Z" fill="#344154"/>
        <path id="Trazado_110191" data-name="Trazado 110191" d="M189.22,454.15H149.48a1.83,1.83,0,1,1,0-3.65h39.74a1.83,1.83,0,1,1,0,3.65Z" fill="#344154"/>
      </g>
      <path id="Trazado_110192" data-name="Trazado 110192" d="M1003.93,454.15H962.74a1.81,1.81,0,0,1-1.82-1.82h0a1.81,1.81,0,0,1,1.82-1.82h41.19a1.81,1.81,0,0,1,1.82,1.82h0a1.81,1.81,0,0,1-1.82,1.82Z" fill="#344154"/>
      <path id="Trazado_110193" data-name="Trazado 110193" d="M108.06,454.15H66.87A1.82,1.82,0,0,1,65,452.33h0a1.82,1.82,0,0,1,1.83-1.82h41.19a1.81,1.81,0,0,1,1.82,1.82h0a1.81,1.81,0,0,1-1.78,1.82Z" fill="#344154"/>
    </g>
    <g id="Grupo_58362" data-name="Grupo 58362">
      <ellipse id="Elipse_4177" data-name="Elipse 4177" cx="63.84" cy="57.09" rx="63.84" ry="57.09" transform="translate(696.1 14.35)" fill="#d9a171"/>
      <path id="Trazado_110194" data-name="Trazado 110194" d="M806.27,32.19a52.74,52.74,0,0,1,11.54,32.73C817.81,96.45,789.23,122,754,122c-18.25,0-34.7-6.86-46.33-17.84,11.55,14.73,30.66,24.36,52.3,24.36,35.26,0,63.84-25.56,63.84-57.09C823.78,56.23,817.11,42.42,806.27,32.19Z" fill="#a37955"/>
      <path id="Trazado_110195" data-name="Trazado 110195" d="M699.73,117.87c0,4.56-4.38,8.26-9.78,8.26s-9.79-3.7-9.79-8.26,4.38-8.25,9.79-8.25S699.73,113.32,699.73,117.87Z" fill="#d9a171"/>
      <path id="Trazado_110196" data-name="Trazado 110196" d="M695.74,111.24a7.36,7.36,0,0,1,1.94,4.92c0,4.55-4.38,8.25-9.78,8.25a10.94,10.94,0,0,1-5.79-1.61,10.45,10.45,0,0,0,7.84,3.33c5.4,0,9.78-3.7,9.78-8.26a7.89,7.89,0,0,0-3.99-6.63Z" fill="#a37955"/>
      <path id="Trazado_110197" data-name="Trazado 110197" d="M678.25,136.78c0,3.67-3.53,6.64-7.88,6.64s-7.87-3-7.87-6.64,3.52-6.63,7.87-6.63S678.25,133.12,678.25,136.78Z" fill="#d9a171"/>
      <path id="Trazado_110198" data-name="Trazado 110198" d="M675,131.44a6,6,0,0,1,1.57,4c0,3.67-3.53,6.64-7.88,6.64a8.86,8.86,0,0,1-4.66-1.29,8.43,8.43,0,0,0,6.31,2.67c4.35,0,7.88-3,7.88-6.64a6.36,6.36,0,0,0-3.22-5.38Z" fill="#a37955"/>
    </g>
    <path id="Trazado_110199" data-name="Trazado 110199" d="M777.63,84.75c0-8.49-4.93-13.25-14.61-17V47.57a23,23,0,0,1,10.18,2.76l2.09-6.16A26.19,26.19,0,0,0,763,41.31V33.15h-6.17v8.74c-8.22,1.82-13.39,7.75-13.39,15.29S748.52,69.62,756.85,73V95.32a26.8,26.8,0,0,1-12.7-3.8l-1.91,6.34c3.07,2,9.06,3.66,14.61,3.72v8.16H763v-8.69C772.85,99.15,777.63,92.39,777.63,84.75ZM751.09,56.31a8.41,8.41,0,0,1,5.76-7.88V64.92C752.9,62.68,751.09,60.2,751.09,56.31ZM763,94.55v-19c4.87,2.53,6.89,5.41,6.89,9.79S767.43,93.09,763,94.55Z" fill="#fff"/>
    <path id="Trazado_110200" data-name="Trazado 110200" d="M344.78,306.48v-4.94a2.03,2.03,0,0,0-4.06,0v4.94h-4.94a2.03,2.03,0,0,0,0,4.06h4.94v4.94a2,2,0,0,0,2,2,2.07,2.07,0,0,0,1.44-.59,2,2,0,0,0,.59-1.44v-4.94h4.94a2.031,2.031,0,1,0,0-4.06Z" fill="#d9a171"/>
    <path id="Trazado_110201" data-name="Trazado 110201" d="M135.11,367.31v-4.94a2.035,2.035,0,0,0-4.07,0v4.94H126.1a2.035,2.035,0,0,0,0,4.07H131v4.93a2.02,2.02,0,0,0,4.04-.03v-4.93H140a2.02,2.02,0,0,0,.03-4.04Z" fill="#d9a171"/>
    <path id="Trazado_110202" data-name="Trazado 110202" d="M871.22,209.67v-4.94a2.03,2.03,0,1,0-4.06,0v4.94h-4.94a2.03,2.03,0,1,0,0,4.06h4.94v4.94a2,2,0,0,0,2,2,2.07,2.07,0,0,0,1.44-.59,2,2,0,0,0,.59-1.44V213.7h4.94a2,2,0,0,0,1.44-.59,2.07,2.07,0,0,0,.59-1.44,2,2,0,0,0-2-2Z" fill="#d9a171"/>
    <path id="Trazado_110203" data-name="Trazado 110203" d="M157.89,120.41v-4.94a2.03,2.03,0,0,0-4.06,0v4.94h-4.94a2.035,2.035,0,0,0,0,4.07h4.94v4.93a2,2,0,0,0,4,0v-4.93h4.94a2.036,2.036,0,1,0,0-4.07Z" fill="#d9a171"/>
    <path id="Trazado_110204" data-name="Trazado 110204" d="M938,379.12l3.49-3.49a2.029,2.029,0,0,0-2.87-2.87l-3.5,3.49-3.49-3.49a2.029,2.029,0,0,0-2.87,2.87l3.49,3.49-3.49,3.49a2.033,2.033,0,0,0,2.87,2.88L935.1,382l3.49,3.49a2.036,2.036,0,0,0,2.88-2.88Z" fill="#aed3f2"/>
    <path id="Trazado_110205" data-name="Trazado 110205" d="M931,156.92l3.5-3.5a2.029,2.029,0,0,0-2.87-2.87l-3.5,3.49-3.5-3.49a2.029,2.029,0,0,0-2.87,2.87l3.5,3.5-3.49,3.48a2,2,0,0,0,1.43,3.47,2.06,2.06,0,0,0,1.44-.59l3.49-3.49,3.49,3.49a2.06,2.06,0,0,0,1.44.59,2,2,0,0,0,1.43-3.47Z" fill="#aed3f2"/>
    <path id="Trazado_110206" data-name="Trazado 110206" d="M519.88,78.41l3.5-3.5A2.047,2.047,0,1,0,520.5,72L517,75.53,513.51,72a2.029,2.029,0,0,0-2.87,2.87l3.49,3.5-3.49,3.49a2.033,2.033,0,1,0,2.88,2.87L517,81.28l3.49,3.49a2.03,2.03,0,1,0,2.87-2.87Z" fill="#aed3f2"/>
    <path id="Trazado_110207" data-name="Trazado 110207" d="M206.34,214.89l3.49-3.49a2.029,2.029,0,1,0-2.87-2.87l-3.5,3.49L200,208.53a2.029,2.029,0,1,0-2.87,2.87l3.49,3.49-3.49,3.49a2.036,2.036,0,1,0,2.88,2.88l3.48-3.49,3.49,3.49a2.036,2.036,0,0,0,2.88-2.88Z" fill="#aed3f2"/>
    <path id="Trazado_110208" data-name="Trazado 110208" d="M257,369a6.52,6.52,0,0,1,.65-2.84,4.57,4.57,0,0,1,2-2.08,6.5,6.5,0,0,1,3.18-.73,5.83,5.83,0,0,1,4.26,1.54,6.25,6.25,0,0,1,0,8.24,5.79,5.79,0,0,1-4.26,1.54,6.61,6.61,0,0,1-3.18-.72,4.62,4.62,0,0,1-2-2.08A6.589,6.589,0,0,1,257,369Zm4.12,0a4.66,4.66,0,0,0,.59,2.65,1.29,1.29,0,0,0,1.12.54,1.25,1.25,0,0,0,1.1-.54,6.22,6.22,0,0,0,0-5.29,1.26,1.26,0,0,0-1.1-.53,1.31,1.31,0,0,0-1.12.53,4.64,4.64,0,0,0-.55,2.64Zm14.16-5.68h3.1l-12.44,23h-3.07Zm-2.76,17.3a6.41,6.41,0,0,1,.65-2.86,4.53,4.53,0,0,1,2-2.07,6.54,6.54,0,0,1,3.17-.74,5.81,5.81,0,0,1,4.28,1.55,6.25,6.25,0,0,1,0,8.24,5.81,5.81,0,0,1-4.28,1.55,6.54,6.54,0,0,1-3.17-.74,4.58,4.58,0,0,1-2-2.07,6.41,6.41,0,0,1-.61-2.85Zm4.13,0a4.65,4.65,0,0,0,.58,2.64,1.26,1.26,0,0,0,1.1.53,1.3,1.3,0,0,0,1.12-.53,4.64,4.64,0,0,0,.59-2.64,4.72,4.72,0,0,0-.59-2.66,1.3,1.3,0,0,0-1.12-.53,1.23,1.23,0,0,0-1.1.55,4.61,4.61,0,0,0-.54,2.68Z" fill="#aed3f2"/>
    <path id="Trazado_110209" data-name="Trazado 110209" d="M728.66,196.24a6.53,6.53,0,0,1,.65-2.85,4.67,4.67,0,0,1,2-2.08,6.67,6.67,0,0,1,3.18-.73,5.79,5.79,0,0,1,4.26,1.55,6.21,6.21,0,0,1,0,8.23,5.79,5.79,0,0,1-4.26,1.55,6.67,6.67,0,0,1-3.18-.73,4.67,4.67,0,0,1-2-2.08,6.551,6.551,0,0,1-.65-2.86Zm4.13,0a4.65,4.65,0,0,0,.58,2.64,1.29,1.29,0,0,0,1.12.54,1.23,1.23,0,0,0,1.1-.54,4.64,4.64,0,0,0,.59-2.64,4.7,4.7,0,0,0-.59-2.65,1.25,1.25,0,0,0-1.1-.53,1.31,1.31,0,0,0-1.12.53,4.67,4.67,0,0,0-.58,2.68Zm14.15-5.69H750l-12.44,23h-3.07Zm-2.76,17.3a6.469,6.469,0,0,1,.65-2.85,4.52,4.52,0,0,1,2-2.08,6.51,6.51,0,0,1,3.17-.74,5.8,5.8,0,0,1,4.27,1.55,6.22,6.22,0,0,1,0,8.24,5.8,5.8,0,0,1-4.27,1.55,6.51,6.51,0,0,1-3.17-.73,4.569,4.569,0,0,1-2-2.08,6.55,6.55,0,0,1-.65-2.83Zm4.13,0a4.52,4.52,0,0,0,.59,2.64,1.23,1.23,0,0,0,1.1.53,1.26,1.26,0,0,0,1.11-.53,4.6,4.6,0,0,0,.59-2.64,4.741,4.741,0,0,0-.59-2.66,1.28,1.28,0,0,0-1.11-.53,1.24,1.24,0,0,0-1.1.55,4.56,4.56,0,0,0-.59,2.7Z" fill="#aed3f2"/>
  </g>
</svg>
