<?xml version="1.0" encoding="utf-8"?>
<!-- Generator: Adobe Illustrator 25.3.1, SVG Export Plug-In . SVG Version: 6.00 Build 0)  -->
<svg version="1.1" id="Capa_1" xmlns="http://www.w3.org/2000/svg" xmlns:xlink="http://www.w3.org/1999/xlink" x="0px" y="0px"
	 viewBox="0 0 500 500" style="enable-background:new 0 0 500 500;" xml:space="preserve">
<style type="text/css">
	.st0{fill:#A66D58;}
	.st1{fill:#FFFFFF;}
	.st2{fill:#A37955;}
	.st3{fill:#D9A171;}
	.st4{fill:#F2E9E4;}
	.st5{fill:#E1B48D;}
	.st6{fill:#AED3F2;}
	.st7{fill:#6595BF;}
	.st8{fill:#5E6178;}
	.st9{fill:none;stroke:#6595BF;stroke-width:12;stroke-miterlimit:10;}
	.st10{fill:#344154;}
	.st11{fill:#FFBE9D;}
	.st12{fill:#EB996E;}
	.st13{fill:#FAFAFA;}
	.st14{opacity:0.3;}
	.st15{opacity:0.5;}
	.st16{fill:#E0E0E0;}
	.st17{opacity:0.4;}
</style>
<g id="Capa_2_1_">
	<g>
		<g>
			<g id="Grupo_53832">
				<circle id="Elipse_4076" class="st0" cx="359.4" cy="170.6" r="36.4"/>
				<path id="Trazado_100504" class="st1" d="M359.4,209.1c-21.3,0-38.5-17.2-38.5-38.5s17.2-38.5,38.5-38.5
					c21.3,0,38.5,17.2,38.5,38.5S380.7,209.1,359.4,209.1L359.4,209.1z M359.4,136.4c-18.9,0-34.3,15.4-34.3,34.3
					s15.4,34.3,34.3,34.3s34.3-15.4,34.3-34.3C393.7,151.7,378.3,136.4,359.4,136.4z"/>
			</g>
			<g id="Grupo_53832-2">
				<circle id="Elipse_4076-2" class="st2" cx="306.3" cy="78.4" r="35.9"/>
				<path id="Trazado_100504-2" class="st1" d="M306.3,116.3c-21,0-38-17-38-38s17-38,38-38s38,17,38,38S327.3,116.3,306.3,116.3z
					 M306.3,44.5c-18.7,0-33.8,15.2-33.8,33.8s15.2,33.8,33.8,33.8c18.7,0,33.8-15.2,33.8-33.8c0,0,0,0,0,0
					C340.2,59.7,325,44.5,306.3,44.5z"/>
			</g>
			<g id="Grupo_53832-3">
				<circle id="Elipse_4076-3" class="st3" cx="208.6" cy="43.3" r="35.9"/>
				<path id="Trazado_100504-3" class="st1" d="M208.6,81.3c-21,0-38-17-38-38s17-38,38-38s38,17,38,38S229.6,81.3,208.6,81.3z
					 M208.6,9.5c-18.7,0-33.8,15.2-33.8,33.8s15.2,33.8,33.8,33.8s33.8-15.2,33.8-33.8l0,0C242.4,24.7,227.3,9.5,208.6,9.5z"/>
			</g>
			<g id="Grupo_53832-4">
				<circle id="Elipse_4076-4" class="st4" cx="109.4" cy="77.2" r="35.9"/>
				<path id="Trazado_100504-4" class="st1" d="M109.4,115.2c-21,0-38-17-38-38s17-38,38-38s38,17,38,38S130.4,115.2,109.4,115.2z
					 M109.4,43.3c-18.7,0-33.8,15.2-33.8,33.8S90.7,111,109.4,111s33.8-15.2,33.8-33.8l0,0C143.3,58.5,128.1,43.3,109.4,43.3
					C109.4,43.3,109.4,43.3,109.4,43.3z"/>
			</g>
			<g id="Grupo_53832-5">
				<circle id="Elipse_4076-5" class="st5" cx="54.5" cy="163" r="35.9"/>
				<path id="Trazado_100504-5" class="st1" d="M54.5,201c-21,0-38-17-38-38s17-38,38-38s38,17,38,38S75.5,201,54.5,201L54.5,201z
					 M54.5,129.2c-18.7,0-33.8,15.2-33.8,33.8c0,18.7,15.2,33.8,33.8,33.8c18.7,0,33.8-15.2,33.8-33.8c0,0,0,0,0,0
					C88.3,144.3,73.2,129.2,54.5,129.2C54.5,129.1,54.5,129.1,54.5,129.2L54.5,129.2z"/>
			</g>
			<g id="Grupo_53832-6">
				<circle id="Elipse_4076-6" class="st3" cx="72.2" cy="265.3" r="35.9"/>
				<path id="Trazado_100504-6" class="st1" d="M72.2,303.3c-21,0-38-17-38-38s17-38,38-38s38,17,38,38S93.2,303.3,72.2,303.3z
					 M72.2,231.5c-18.7,0-33.9,15.1-33.9,33.8s15.1,33.9,33.8,33.9S106,284,106,265.4c0,0,0,0,0,0C106,246.6,90.9,231.5,72.2,231.5
					L72.2,231.5z"/>
			</g>
			<g id="Grupo_53832-7">
				<circle id="Elipse_4076-7" class="st6" cx="148" cy="334.8" r="35.9"/>
				<path id="Trazado_100504-7" class="st1" d="M148,372.8c-21,0-38-17-38-38s17-38,38-38s38,17,38,38S169,372.8,148,372.8
					L148,372.8z M148,300.9c-18.7,0-33.8,15.1-33.8,33.8c0,18.7,15.1,33.8,33.8,33.9s33.8-15.1,33.9-33.8c0,0,0,0,0,0
					C181.8,316.1,166.7,300.9,148,300.9z"/>
			</g>
			<g id="Grupo_53832-8">
				
					<ellipse id="Elipse_4076-8" transform="matrix(0.1602 -0.9871 0.9871 0.1602 -123.4083 535.571)" class="st7" cx="253" cy="340.3" rx="35.9" ry="35.9"/>
				<path id="Trazado_100504-8" class="st1" d="M253,378.3c-21,0-38-17-38-38s17-38,38-38s38,17,38,38S274,378.3,253,378.3
					L253,378.3z M253,306.5c-18.7,0-33.8,15.2-33.8,33.8c0,18.7,15.2,33.8,33.8,33.8s33.8-15.2,33.8-33.8c0,0,0,0,0,0
					C286.8,321.6,271.7,306.5,253,306.5z"/>
			</g>
			<g id="Grupo_53832-9">
				<circle id="Elipse_4076-9" class="st8" cx="336.5" cy="274.5" r="35.9"/>
				<path id="Trazado_100504-9" class="st1" d="M336.5,312.5c-21,0-38-17-38-38s17-38,38-38s38,17,38,38l0,0
					C374.5,295.5,357.5,312.5,336.5,312.5z M336.5,240.7c-18.7,0-33.8,15.2-33.8,33.8s15.2,33.8,33.8,33.8
					c18.7,0,33.8-15.2,33.8-33.8c0,0,0,0,0,0C370.3,255.8,355.2,240.7,336.5,240.7C336.5,240.7,336.5,240.7,336.5,240.7z"/>
			</g>
		</g>
		<g>
			<g>
				<path class="st9" d="M143,51.3c3.8-1.6,7.7-3.1,11.7-4.4"/>
				<polygon class="st7" points="149.3,34.9 156.7,60.1 165.6,43.8 				"/>
			</g>
			<g>
				<path class="st9" d="M65.9,122.7c1.7-3.2,3.4-6.4,5.3-9.4"/>
				<polygon class="st7" points="59.3,107.6 81.3,121.9 77.4,103.8 				"/>
			</g>
			<g>
				<path class="st9" d="M52.4,227.4c-0.9-3.9-1.6-7.8-2.2-11.8"/>
				<polygon class="st7" points="37.5,218.8 63.5,215.8 49,204.3 				"/>
			</g>
			<g>
				<path class="st9" d="M110,316.7c-3.3-2.5-6.5-5.1-9.6-7.9"/>
				<polygon class="st7" points="92.7,319.5 110.7,300.5 92.2,300.9 				"/>
			</g>
			<g>
				<path class="st9" d="M209.1,347.7c-3.5,0.1-7,0.2-10.5,0.1"/>
				<polygon class="st7" points="199.6,360.9 201.1,334.7 187.3,347 				"/>
			</g>
			<g>
				<path class="st9" d="M308.2,306.5c-2.6,2.4-5.3,4.8-8.1,7"/>
				<polygon class="st7" points="309.4,322.8 293.5,301.9 291,320.3 				"/>
			</g>
			<g>
				<path class="st9" d="M356.1,213.4c-0.5,3.7-1.1,7.4-1.9,11.1"/>
				<polygon class="st7" points="367.3,225.8 341.8,219.7 351.5,235.5 				"/>
			</g>
			<g>
				<path class="st9" d="M333.5,111c2,3.2,3.9,6.4,5.6,9.7"/>
				<polygon class="st7" points="350,113.3 326.5,124.9 344.1,130.9 				"/>
			</g>
			<g>
				<path class="st9" d="M249.4,46.3c3.6,1.1,7.1,2.4,10.6,3.8"/>
				<polygon class="st7" points="263.6,37.4 253.1,61.5 270.4,54.7 				"/>
			</g>
		</g>
	</g>
	<g>
		<g id="freepik--Character--inject-103">
			<path class="st10" d="M88.7,186.7c4.8-7.1,11.1-13.3,18.8-17.1s16.8-5,24.9-2.3s14.9,9.7,16.5,18.1c1.3,6.7,0.2,17,5.1,21.6
				c10.2,9.4,8.7,27.2,2.7,37.4c0,0-9.3,11.3,0.7,21.6c0,0,5.9,4.2,2.9,15.5c-4.6,17.7,15.6,27.5,3.4,24.8l-40.7-4.5l-4.6-46.2"/>
			<path class="st10" d="M64.6,211.6c-2.5,1.9-3.4,5.4-3.2,8.5s1.4,6.1,2.2,9.2s1.2,6.4,0,9.3c-2,5-7.9,7.1-12.3,10.2
				c-6.9,5-10.8,13.3-10.1,21.8c0.2,2.5,0.8,5-0.1,7.3c-1,2.6-3.7,4.2-5.3,6.5c-2.5,3.6-2.2,8.6-0.2,12.6s5.2,7,8.5,10
				c15-13.1,31.8-24,49.8-32.5"/>
			<path class="st11" d="M217,277l20,6.5c0,0,13.9-8.5,14.6-11.6s-0.7-3.6-1.2-3.5c0,0,4.9-4.3,2.3-8.3c0,0,4.4-4.6,1.4-7.4
				l-1.6-1.3c0,0,2.1-4.3,0.4-7.5c-0.6-1.1-1.9-1.5-3-1.1l-16.4,6.1l-10.4,7L217,277z"/>
			<polygon class="st6" points="241.5,249.1 247,228.8 251.6,228.4 247.3,244.5 			"/>
			<path class="st11" d="M218.8,270.7l4.9-16.3l17.7-13.2c1.1,1.9,1.1,4.2,0,6.1c-1.9,3.3-4.6,6-5.2,7s-3.1,5.8-3.1,5.8
				c1.7,4.3,1.9,9,0.6,13.5"/>
			<path class="st12" d="M233.6,273.5c0-0.3,0.1-0.6,0.2-0.9c0.1-0.3,0.1-0.7,0.2-1.1c0.1-0.5,0.2-1,0.2-1.6c0.1-1.4,0.1-2.9,0-4.3
				c-0.2-1.9-0.6-3.7-1.3-5.5v-0.2l2.2-4.1l0.6-1.1l0.3-0.6l0.4-0.5l1.7-2.1c1.2-1.4,2.2-3,3.1-4.6c0.9-1.7,0.9-3.8-0.1-5.5l0.4,0.1
				l-1.5,1.1l-16.2,12l0.1-0.1c-1.5,4.9-2.8,8.9-3.6,11.8c-0.4,1.4-0.8,2.5-1,3.3l-0.3,0.9c-0.1,0.2-0.1,0.3-0.1,0.3
				c0-0.1,0-0.2,0.1-0.3l0.2-0.9c0.2-0.8,0.5-1.9,0.9-3.3c0.9-2.9,2-7,3.5-11.9v-0.1h0.1l16.1-12.1l1.5-1.1l0.2-0.2l0.1,0.2
				c1.1,1.8,1.1,4.1,0.1,6c-0.9,1.7-2,3.2-3.2,4.7l-1.7,2c-0.1,0.2-0.3,0.3-0.4,0.5l-0.3,0.6l-0.6,1.1l-2.3,4.1v-0.2
				c0.7,1.8,1.1,3.7,1.3,5.6c0.1,1.4,0.1,2.9-0.1,4.3c-0.1,0.5-0.1,1-0.2,1.6c-0.1,0.4-0.2,0.8-0.3,1.1
				C233.8,272.8,233.7,273.1,233.6,273.5z"/>
			<path class="st12" d="M252.6,251.3c-0.4,0.3-0.8,0.6-1.2,0.8l-3.3,2l-4.9,2.9c-1,0.7-2.2,1-3.4,1c-0.7-0.1-1.3-0.4-1.7-0.9
				c-0.4-0.5-0.6-1.2-0.6-1.9c0.1-1.3,0.7-2.5,1.6-3.4c0.7-0.9,1.5-1.8,2.2-2.6c1.4-1.4,2.8-2.6,4.4-3.7c1.1-0.7,2.2-1.4,3.3-2
				c0.4-0.2,0.8-0.4,1.3-0.6c-0.4,0.3-0.8,0.5-1.2,0.7c-0.8,0.5-1.9,1.2-3.2,2.1c-1.5,1.1-3,2.4-4.3,3.8c-0.8,0.8-1.5,1.7-2.2,2.5
				c-0.8,0.8-1.3,1.9-1.4,3.1c0,0.6,0.1,1.1,0.5,1.6c0.3,0.4,0.8,0.7,1.4,0.7c1.1,0,2.2-0.3,3.1-0.9l5-2.8l3.4-1.9
				C251.8,251.7,252.2,251.5,252.6,251.3z"/>
			<path class="st12" d="M252.8,260c-0.3,0.3-0.6,0.6-1,0.8c-0.7,0.5-1.7,1.2-3,2c-1.5,1-3.1,1.9-4.6,2.8c-0.5,0.3-1,0.5-1.5,0.6
				c-0.6,0.1-1.2-0.1-1.7-0.5c-1-0.8-1.4-2.1-1.2-3.3c0.3-1.2,0.9-2.2,1.7-3.1c0.7-0.8,1.5-1.5,2.3-2.2c1.4-1.2,2.8-2.2,4.4-3.2
				c1.3-0.8,2.4-1.5,3.1-1.9c0.4-0.3,0.8-0.5,1.2-0.6c-0.3,0.3-0.6,0.6-1,0.8l-3,2c-1.5,1-2.9,2.1-4.2,3.3c-0.8,0.7-1.5,1.4-2.2,2.2
				c-0.8,0.8-1.3,1.7-1.6,2.8c-0.2,1.1,0.2,2.1,1,2.8c0.4,0.3,0.9,0.4,1.3,0.4c0.5-0.1,0.9-0.3,1.4-0.5c1.8-0.9,3.4-1.8,4.7-2.6
				l3.1-1.9C252.1,260.4,252.5,260.2,252.8,260z"/>
			<path class="st12" d="M250.5,268.3c-0.3,0.2-0.5,0.5-0.9,0.6c-0.6,0.4-1.4,0.9-2.4,1.5c-1.2,0.7-2.5,1.4-3.8,1.9
				c-0.8,0.3-1.6,0.6-2.4,0.8c-0.5,0.1-1,0-1.4-0.2c-0.5-0.3-0.8-0.8-0.8-1.3c-0.1-0.5,0-1,0.1-1.5c0.1-0.5,0.4-0.9,0.7-1.2
				c0.6-0.6,1.2-1.2,1.8-1.7c1.1-0.9,2.3-1.7,3.5-2.4c1-0.6,1.9-1.1,2.5-1.4c0.3-0.2,0.6-0.3,1-0.4c-0.3,0.2-0.5,0.4-0.8,0.6
				l-2.4,1.5c-1.2,0.8-2.3,1.6-3.4,2.5c-1.1,1-2.8,2.1-2.5,3.9c0,0.4,0.2,0.7,0.5,0.9c0.4,0.2,0.7,0.2,1.1,0.1
				c0.8-0.1,1.6-0.4,2.3-0.7c1.3-0.5,2.6-1.1,3.8-1.8C248.2,269.4,249.3,268.8,250.5,268.3z"/>
			<path class="st12" d="M251.5,272c-0.1,0.3-0.3,0.6-0.5,0.8c-0.5,0.7-1,1.4-1.6,2c-0.9,0.9-1.8,1.8-2.9,2.6
				c-0.6,0.4-1.2,0.9-1.9,1.3c-0.7,0.5-1.4,0.9-2.2,1.1c-0.5,0.1-0.9,0.1-1.4-0.1c-0.4-0.2-0.7-0.6-0.9-1c-0.2-0.8-0.1-1.6,0.2-2.4
				c0.5-1.2,1.3-2.3,2.1-3.3c0.6-0.6,1.3-1.2,2-1.6c0.3-0.2,0.6-0.3,0.9-0.4c-2.1,1.3-3.7,3.2-4.6,5.4c-0.3,0.6-0.4,1.3-0.2,2
				c0.2,0.7,0.9,1.1,1.6,0.9c0.7-0.2,1.4-0.6,2.1-1c0.6-0.4,1.3-0.9,1.8-1.3c1-0.7,2-1.6,2.9-2.4C250.7,273.1,251.4,272,251.5,272z"
				/>
			<path class="st3" d="M215.4,276.5L190.9,329l-21.5-28c-13.4-17.1-24.5-21.2-24.5-21.2l-19.5-5.2l-39.9-2.1l-3.5,2l-24,10.1
				c0,0,2.3,26,6.8,46.6s8.3,43.2,8.3,43.2c1.7,14.9-9.4,71.9-9.4,71.9h110.1l-23.5-70.8c2.7-8.6,4.9-17.4,6.7-26.2l0,0l20.5,14
				c0,0,30.7,17.2,41.9-11.7l19.3-67.5L215.4,276.5z"/>
			<path class="st10" d="M155.8,350.2c0-0.5,0-1,0-1.5c0-0.6,0-1.2,0-1.8c-0.1-0.7,0-1.5,0-2.4c0-2.1-0.2-4.1-0.5-6.1
				c-0.7-5-2.1-9.9-4.1-14.6c-0.8-1.9-1.8-3.7-2.8-5.5c-0.4-0.8-0.9-1.4-1.2-2c-0.3-0.5-0.6-1-1-1.5c-0.3-0.4-0.6-0.8-0.8-1.3
				c0.4,0.4,0.7,0.8,1,1.2c0.4,0.5,0.7,1,1,1.5c0.3,0.6,0.9,1.2,1.3,2c1.1,1.8,2.1,3.6,2.9,5.5c2.1,4.6,3.5,9.6,4.1,14.6
				c0.3,2.1,0.4,4.1,0.4,6.2c0,0.9,0,1.7-0.1,2.4s-0.1,1.3-0.1,1.8C155.9,349.2,155.8,349.7,155.8,350.2z"/>
			<path class="st10" d="M151.8,306.7c0.2,0.1-0.7,2.4-1.9,5.1c-0.7,1.7-1.5,3.3-2.5,4.8c0.5-1.7,1.2-3.4,2-5
				c0.6-1.4,1.2-2.6,1.6-3.5C151.2,307.6,151.5,307.1,151.8,306.7z"/>
			<path class="st10" d="M192.6,344.1c-0.5-0.6-0.9-1.3-1.1-2.1c-0.7-1.8-1.2-3.7-1.4-5.6c-0.2-1.9-0.2-3.9,0.2-5.8
				c0.1-0.8,0.3-1.6,0.6-2.3C189.9,333.6,190.5,339.1,192.6,344.1L192.6,344.1z"/>
			<path class="st13" d="M169.4,322c0.1,0,0.2,1.2,0.6,3.2c0.9,5.2,2.6,10.2,4.9,14.9c0.5,1,1,1.9,1.4,3c-0.2-0.2-0.4-0.5-0.5-0.7
				c-0.3-0.5-0.7-1.2-1.2-2c-2.5-4.7-4.2-9.7-4.9-15c-0.1-1-0.2-1.8-0.2-2.4C169.3,322.6,169.3,322.3,169.4,322z"/>
			<path class="st13" d="M173.2,335.2c0.6-0.9,1.1-1.9,1.6-2.9c1-2.4,1.3-5.1,0.7-7.6l-0.1-0.3l0.5,0.1c-1.5,2.1-2.4,4.5-2.7,7.1
				c-0.2,2,0,3.2-0.1,3.2c-0.1-0.3-0.2-0.6-0.2-0.9c-0.1-0.8-0.1-1.6-0.1-2.4c0.2-2.6,1.1-5.2,2.6-7.4l0.3-0.5l0.1,0.6l0.1,0.3
				c0.6,2.7,0.3,5.5-0.9,7.9c-0.4,0.7-0.8,1.4-1.3,2C173.5,335,173.2,335.2,173.2,335.2z"/>
			<path class="st13" d="M170.1,331.2c-0.3-0.1-0.6-0.2-0.9-0.3c-0.8-0.4-1.5-0.8-2.3-1.3c-1.7-1.1-3.2-2.6-4.4-4.2
				c-0.2-0.3-0.5-0.7-0.7-1c-0.3-0.4-0.3-0.9-0.2-1.4c0.1-0.3,0.4-0.5,0.7-0.5c0.3,0,0.5,0,0.8,0.1c0.4,0.2,0.7,0.4,1,0.7
				c0.6,0.5,1.2,0.9,1.7,1.5c0.9,0.9,1.8,1.9,2.4,3c0.5,0.7,0.9,1.5,1.2,2.3c0.1,0.3,0.3,0.6,0.3,0.9c-0.1,0-0.6-1.2-1.9-3
				c-0.7-1-1.6-2-2.5-2.8c-0.5-0.5-1.1-1-1.7-1.4c-0.3-0.2-0.6-0.4-0.9-0.6c-0.3-0.1-0.6-0.1-0.7,0.2c-0.1,0.3,0,0.7,0.2,0.9
				c0.2,0.3,0.4,0.6,0.6,1c0.4,0.6,0.9,1.2,1.4,1.7c0.9,0.9,1.8,1.7,2.8,2.5C169,330.6,170.2,331.1,170.1,331.2z"/>
			<path class="st13" d="M171.5,339.8c-0.2,0.1-0.5,0.2-0.8,0.2c-0.7,0.2-1.4,0.2-2.1,0.2c-2.4-0.1-4.7-1.1-6.5-2.8l-0.3-0.3
				l0.4-0.1l0.7-0.2c2.5-0.6,5.2-0.1,7.4,1.3c0.7,0.4,1.3,0.9,1.8,1.5c0.4,0.4,0.5,0.7,0.5,0.7c-0.8-0.7-1.6-1.3-2.5-1.8
				c-2.2-1.2-4.7-1.6-7.2-1l-0.7,0.2l0.1-0.4c1.7,1.6,3.8,2.6,6.1,2.8C169.6,339.9,170.5,339.9,171.5,339.8z"/>
			<path class="st13" d="M84.2,343.9c0,0.3,0,0.6,0,0.9c0,0.8-0.1,1.6-0.2,2.4c-0.7,5.3-2.4,10.3-4.9,15c-0.5,0.9-0.9,1.6-1.2,2
				c-0.2,0.3-0.3,0.5-0.5,0.7c0.4-1,0.9-2,1.4-2.9c1.2-2.4,2.2-4.8,3-7.3c0.8-2.5,1.5-5,1.9-7.6C83.7,346,83.9,345,84.2,343.9z"/>
			<path class="st13" d="M80.3,357.1c-0.2-0.2-0.5-0.4-0.6-0.6c-0.5-0.6-0.9-1.3-1.3-2c-1.2-2.5-1.5-5.2-0.9-7.9l0.1-0.3l0.1-0.6
				l0.3,0.5c1.5,2.2,2.4,4.7,2.6,7.4c0,0.8,0,1.6-0.1,2.4c0,0.3-0.1,0.6-0.2,0.8c-0.1,0,0.1-1.2-0.1-3.2c-0.3-2.5-1.2-5-2.7-7.1
				l0.5-0.1v0.3c-0.6,2.6-0.3,5.2,0.7,7.6C79.2,355.2,79.8,356.1,80.3,357.1z"/>
			<path class="st13" d="M83.4,353.1c0-0.1,1.2-0.6,3-1.9c1-0.7,1.9-1.6,2.8-2.5c0.5-0.5,1-1.1,1.4-1.7c0.2-0.3,0.4-0.7,0.6-1
				c0.2-0.3,0.2-0.6,0.2-0.9c-0.1-0.2-0.4-0.3-0.7-0.1c-0.4,0.2-0.7,0.4-1,0.6c-0.6,0.5-1.1,1-1.7,1.5c-0.9,0.9-1.7,1.8-2.5,2.8
				c-1.2,1.8-1.8,3-1.8,3c0-0.3,0.2-0.6,0.3-0.9c0.3-0.8,0.8-1.6,1.2-2.3c0.7-1.1,1.5-2.1,2.4-3c0.5-0.5,1.1-1,1.7-1.5
				c0.3-0.3,0.6-0.5,1-0.7c0.2-0.1,0.5-0.1,0.8-0.1c0.3,0.1,0.5,0.3,0.7,0.5c0.2,0.5,0.1,1-0.2,1.4c-0.2,0.3-0.4,0.7-0.7,1
				c-1.2,1.7-2.7,3.1-4.4,4.2c-0.7,0.5-1.5,0.9-2.3,1.3C84,352.9,83.7,353,83.4,353.1z"/>
			<path class="st13" d="M82,361.7c1,0.1,1.9,0.1,2.9,0.1c2.3-0.2,4.5-1.2,6.1-2.8l0.1,0.4l-0.7-0.2c-2.4-0.6-5-0.2-7.2,1
				c-0.8,0.6-1.6,1.2-2.4,1.8c0.1-0.3,0.3-0.5,0.5-0.7c0.5-0.6,1.1-1.1,1.8-1.5c2.2-1.4,4.9-1.8,7.4-1.2l0.7,0.2l0.4,0.1l-0.3,0.3
				c-1.8,1.7-4.1,2.7-6.5,2.8c-0.7,0-1.4,0-2.1-0.2C82.5,361.8,82.2,361.8,82,361.7z"/>
			<path class="st13" d="M122.1,307.9c0.2,0.2,0.4,0.4,0.6,0.6c0.5,0.6,1,1.2,1.5,1.9c3.1,4.3,5.5,9.1,6.9,14.2
				c0.3,1,0.5,1.8,0.6,2.3c0.1,0.3,0.1,0.6,0.1,0.9c-0.4-1-0.7-2-1-3.1c-0.8-2.5-1.8-4.9-3-7.3c-1.2-2.4-2.5-4.6-3.9-6.8
				C122.8,308.9,122.1,307.9,122.1,307.9z"/>
			<path class="st13" d="M128.6,319.9c-0.3,0.1-0.6,0.1-0.9,0c-0.8-0.1-1.6-0.3-2.4-0.6c-2.5-0.9-4.7-2.7-6.1-5l-0.2-0.2l-0.3-0.5
				l0.6,0.1c2.6,0.5,5,1.7,7,3.5c0.6,0.5,1.1,1.1,1.6,1.8c0.2,0.2,0.4,0.5,0.5,0.7c-0.7-0.8-1.5-1.5-2.3-2.2c-2-1.6-4.3-2.8-6.9-3.2
				l0.3-0.4l0.1,0.2c1.4,2.2,3.4,4,5.9,5C126.5,319.4,127.5,319.7,128.6,319.9z"/>
			<path class="st13" d="M128,314.9c-0.1,0,0.4-1.3,0.8-3.4c0.2-1.2,0.3-2.5,0.3-3.8c0-0.7-0.1-1.5-0.2-2.2c0-0.4-0.1-0.8-0.2-1.1
				c-0.1-0.3-0.3-0.6-0.5-0.8c-0.2-0.1-0.5,0.1-0.6,0.4c-0.1,0.4-0.2,0.7-0.3,1.1c-0.1,0.7-0.2,1.5-0.2,2.2c-0.1,1.3,0,2.5,0.2,3.8
				c0.3,2.1,0.8,3.4,0.7,3.4c-0.2-0.3-0.3-0.6-0.4-0.9c-0.3-0.8-0.5-1.6-0.7-2.5c-0.3-1.3-0.4-2.6-0.3-3.9c0-0.8,0.1-1.5,0.2-2.3
				c0-0.4,0.1-0.8,0.2-1.2c0.1-0.2,0.3-0.4,0.5-0.6c0.3-0.2,0.6-0.2,0.8-0.1c0.4,0.2,0.8,0.6,0.9,1.1c0.1,0.4,0.2,0.8,0.2,1.2
				c0.1,0.8,0.2,1.5,0.1,2.3c0,1.3-0.1,2.6-0.4,3.8c-0.2,0.8-0.4,1.7-0.7,2.5C128.3,314.3,128.2,314.6,128,314.9z"/>
			<path class="st13" d="M133,322c0.7-0.6,1.4-1.3,2-1.9c1.5-1.7,2.4-4,2.4-6.3l0.4,0.2l-0.6,0.3c-2.1,1.3-3.7,3.3-4.4,5.7
				c-0.3,1-0.4,2-0.5,3.1c-0.1-0.3-0.1-0.6-0.1-0.8c0-0.8,0.1-1.5,0.3-2.3c0.6-2.5,2.2-4.7,4.4-6.1l0.6-0.4l0.4-0.2v0.5
				c-0.1,2.4-1,4.8-2.7,6.5c-0.5,0.5-1.1,1-1.7,1.4C133.4,321.8,133.2,321.9,133,322z"/>
			<path class="st13" d="M89.2,422.9c0.2,0.2,0.4,0.4,0.6,0.6c0.5,0.6,1,1.2,1.5,1.9c3.2,4.3,5.5,9.1,7,14.2c0.3,1,0.5,1.8,0.6,2.3
				c0.1,0.3,0.1,0.6,0.1,0.9c-0.4-1-0.7-2-1-3.1c-0.8-2.5-1.8-4.9-3-7.3c-1.2-2.4-2.5-4.6-4-6.8C90.4,424.8,89.8,423.9,89.2,422.9z"
				/>
			<path class="st13" d="M95.7,435c-0.3,0-0.6,0-0.9,0c-0.8-0.1-1.6-0.3-2.4-0.6c-2.5-0.9-4.7-2.7-6.1-5l-0.1-0.2l-0.3-0.5l0.6,0.1
				c2.6,0.5,5,1.7,7,3.5c0.6,0.5,1.1,1.1,1.6,1.7c0.2,0.2,0.3,0.5,0.4,0.7c-0.1,0.1-0.8-1-2.3-2.2c-2-1.6-4.3-2.8-6.8-3.2l0.3-0.4
				l0.1,0.2c1.4,2.2,3.4,4,5.8,5C93.6,434.5,94.6,434.8,95.7,435z"/>
			<path class="st13" d="M95.1,430c-0.1,0,0.4-1.3,0.8-3.4c0.2-1.2,0.3-2.5,0.3-3.8c0-0.7-0.1-1.5-0.2-2.2c0-0.4-0.1-0.8-0.2-1.1
				c-0.1-0.3-0.3-0.6-0.5-0.8c-0.2-0.1-0.5,0.1-0.6,0.4c-0.1,0.4-0.2,0.7-0.3,1.1c-0.1,0.7-0.2,1.5-0.2,2.2c-0.1,1.3,0,2.5,0.2,3.8
				c0.3,2.1,0.8,3.4,0.8,3.4c-0.2-0.3-0.3-0.6-0.4-0.9c-0.3-0.8-0.5-1.6-0.7-2.5c-0.4-2-0.4-4.1-0.1-6.1c0.1-0.4,0.1-0.8,0.3-1.2
				c0.1-0.2,0.3-0.5,0.5-0.6c0.2-0.1,0.5-0.2,0.8-0.1c0.5,0.2,0.8,0.7,0.9,1.2c0.1,0.4,0.2,0.8,0.2,1.2c0.1,0.8,0.2,1.5,0.2,2.3
				c0,1.3-0.1,2.6-0.4,3.8c-0.2,0.8-0.4,1.7-0.7,2.5C95.5,429.5,95.3,429.8,95.1,430z"/>
			<path class="st13" d="M100.1,437.1c0.7-0.6,1.4-1.3,2-2c1.5-1.7,2.4-4,2.5-6.3l0.4,0.2l-0.6,0.3c-2.1,1.3-3.6,3.3-4.3,5.7
				c-0.2,1-0.4,2-0.5,3.1c-0.1-0.3-0.1-0.6-0.1-0.8c0-0.8,0.1-1.5,0.3-2.3c0.6-2.5,2.2-4.7,4.4-6.1l0.6-0.3l0.4-0.2v0.5
				c-0.1,2.4-1,4.8-2.7,6.5c-0.5,0.5-1.1,1-1.7,1.4C100.5,436.9,100.3,437,100.1,437.1z"/>
			<path class="st13" d="M218.8,306.9c0,0.3-0.1,0.6-0.2,0.9c-0.1,0.5-0.4,1.3-0.7,2.3c-0.9,2.5-2,4.9-3.4,7.2
				c-1.3,2.3-2.9,4.5-4.6,6.5c-0.5,0.6-1.1,1.2-1.6,1.8c-0.2,0.2-0.4,0.4-0.7,0.6c0.6-0.9,1.3-1.8,2.1-2.6c3.2-4.1,5.9-8.7,7.9-13.5
				C217.8,308.9,218.3,307.9,218.8,306.9z"/>
			<path class="st13" d="M212.2,318.9c-0.2-0.2-0.4-0.5-0.5-0.8c-0.4-0.7-0.6-1.5-0.8-2.3c-0.6-2.7-0.4-5.4,0.8-7.9l0.1-0.2l0.2-0.5
				l0.2,0.5c1,2.4,1.4,5.1,1,7.7c-0.1,0.8-0.3,1.6-0.6,2.3c-0.2,0.5-0.3,0.8-0.4,0.8c0.3-1,0.5-2.1,0.6-3.1c0.3-2.5-0.1-5.1-1.1-7.5
				h0.5l-0.1,0.2c-1.1,2.4-1.4,5-0.9,7.6C211.5,316.8,211.9,317.9,212.2,318.9z"/>
			<path class="st13" d="M216.1,315.7c0-0.1,1.3-0.4,3.3-1.2c1.2-0.5,2.3-1.1,3.3-1.8c0.6-0.4,1.2-0.9,1.8-1.4
				c0.3-0.3,0.6-0.5,0.8-0.8c0.2-0.2,0.4-0.6,0.4-0.9c0-0.2-0.3-0.4-0.7-0.3c-0.3,0.1-0.7,0.2-1,0.4c-1.8,0.8-3.5,1.9-5,3.3
				c-1.6,1.5-2.4,2.6-2.4,2.5c0.1-0.3,0.3-0.6,0.5-0.8c0.5-0.7,1.1-1.4,1.7-2c0.9-0.9,2-1.7,3.1-2.4c0.6-0.4,1.3-0.8,2-1.1
				c0.4-0.2,0.8-0.3,1.2-0.4c0.3-0.1,0.5,0,0.8,0.1c0.3,0.1,0.5,0.4,0.5,0.6c0,0.5-0.1,1-0.5,1.3c-0.3,0.3-0.6,0.6-0.9,0.9
				c-0.6,0.5-1.2,1-1.8,1.4c-1.1,0.7-2.2,1.3-3.4,1.8c-0.8,0.3-1.6,0.6-2.5,0.8C216.8,315.7,216.4,315.7,216.1,315.7z"/>
			<path class="st13" d="M212.9,323.8c0.9,0.3,1.8,0.5,2.8,0.7c2.3,0.3,4.6-0.2,6.6-1.4v0.5l-0.6-0.3c-2.3-1-4.8-1.2-7.2-0.5
				c-1,0.3-1.9,0.7-2.8,1.2c0.2-0.2,0.4-0.4,0.6-0.6c0.6-0.4,1.3-0.7,2-1c2.5-0.9,5.1-0.7,7.5,0.4l0.6,0.3l0.4,0.2l-0.4,0.2
				c-2.1,1.3-4.6,1.8-7,1.3c-0.7-0.1-1.4-0.3-2-0.6C213.3,324.1,213.1,324,212.9,323.8z"/>
			<path class="st13" d="M84.4,335.9c0.4-0.9,0.8-1.8,1-2.7c0.5-2.3,0-4.7-1.4-6.6h0.4l-0.1,0.1c-0.8,1-1.4,2.2-1.6,3.4
				c-0.1,1,0,2.1,0.4,3.1C83.4,334.1,83.9,335,84.4,335.9c-0.8-0.7-1.4-1.5-1.7-2.5c-0.4-1-0.6-2.2-0.5-3.3c0.2-1.4,0.8-2.7,1.7-3.7
				l0.1-0.1l0.2-0.2l0.2,0.3c0.8,1.1,1.4,2.4,1.5,3.7c0.2,1.1,0.1,2.2-0.2,3.3c-0.2,0.7-0.5,1.4-0.9,2
				C84.6,335.7,84.4,335.9,84.4,335.9z"/>
			<path class="st13" d="M136.4,298.7c0.9-0.4,1.7-1,2.4-1.6c1.7-1.6,2.7-3.8,2.7-6.1l0.3,0.2h-0.1c-1.3,0.3-2.4,0.9-3.3,1.9
				c-0.7,0.8-1.2,1.7-1.5,2.7C136.6,296.8,136.5,297.7,136.4,298.7c-0.2-1-0.2-2,0.1-3c0.2-1.1,0.8-2.1,1.5-3c0.9-1,2.2-1.7,3.5-2
				h0.1l0.3-0.1v0.3c0,1.4-0.3,2.7-0.9,3.9c-0.5,1-1.2,1.9-2.1,2.5c-0.6,0.5-1.2,0.9-1.9,1.1C136.9,298.6,136.7,298.7,136.4,298.7z"
				/>
			<path class="st13" d="M219.9,295c0.5-0.8,1-1.7,1.4-2.6c0.8-2.2,0.6-4.7-0.6-6.7l0.4,0.1l-0.1,0.1c-1,0.8-1.7,2-2,3.2
				c-0.3,1-0.3,2.1,0,3.1C219.2,293.2,219.5,294.1,219.9,295c-0.6-0.8-1.1-1.7-1.3-2.7c-0.3-1.1-0.3-2.2-0.1-3.3
				c0.3-1.4,1.1-2.6,2.1-3.5l0.1-0.1l0.2-0.2l0.2,0.3c0.7,1.2,1.1,2.5,1.1,3.9c0,1.1-0.2,2.2-0.6,3.2c-0.3,0.7-0.7,1.3-1.1,1.9
				C220.2,294.9,219.9,295.1,219.9,295z"/>
			<path class="st13" d="M183.9,357.2c0.5-0.8,1-1.7,1.4-2.6c0.8-2.2,0.6-4.7-0.6-6.7l0.4,0.1l-0.1,0.1c-1.8,1.6-2.6,4-2.1,6.3
				C183.1,355.4,183.5,356.3,183.9,357.2c-0.6-0.8-1.1-1.7-1.3-2.7c-0.3-1.1-0.3-2.2-0.1-3.3c0.3-1.3,1.1-2.6,2.1-3.5l0.1-0.1
				l0.2-0.2l0.2,0.3c0.7,1.2,1,2.5,1,3.9c0,1.1-0.2,2.2-0.6,3.2c-0.3,0.7-0.7,1.3-1.1,1.9C184.1,357.1,183.9,357.3,183.9,357.2z"/>
			<path class="st13" d="M76.7,439.8c-0.3-0.9-0.7-1.8-1.2-2.6c-1.3-1.9-3.4-3.2-5.7-3.5l0.3-0.3v0.1c0.2,2.4,1.6,4.4,3.8,5.4
				C74.7,439.3,75.7,439.6,76.7,439.8c-1.1,0.1-2.1-0.1-3-0.6c-1-0.4-1.9-1.1-2.6-1.9c-0.9-1.1-1.4-2.4-1.5-3.8v-0.4h0.3
				c1.4,0.1,2.7,0.6,3.8,1.5c0.9,0.7,1.6,1.5,2.2,2.4c0.4,0.6,0.7,1.3,0.8,2C76.7,439.3,76.7,439.6,76.7,439.8z"/>
			<path class="st13" d="M202.8,352c0-0.1,1.6-0.8,4-2.4c1.4-0.9,2.6-2,3.6-3.3c1.2-1.6,1.8-3.6,1.6-5.6c-0.3-0.2,0.4,0.3,0.3,0.2
				H212c-0.1,0-0.3,0-0.4,0.1c-0.1,0.1-0.5,0.1-0.8,0.2c-0.5,0.1-1,0.3-1.4,0.5c-0.9,0.4-1.7,0.9-2.5,1.5c-1.3,1-2.3,2.4-3,3.9
				c-0.6,1.4-0.9,2.9-1,4.5c-0.1-0.4-0.1-0.8-0.1-1.3c0.1-1.1,0.3-2.3,0.8-3.3c1-2.6,3-4.6,5.6-5.7c0.5-0.2,1-0.4,1.5-0.5l0.8-0.2
				l0.4-0.1h0.4l0.3,0.2c0.2,2.2-0.4,4.3-1.8,6c-1.1,1.3-2.4,2.5-3.9,3.3c-1,0.6-2,1.1-3,1.6C203.6,351.8,203.2,351.9,202.8,352z"/>
			<path class="st13" d="M152.7,439.1c0-0.1,1.6-0.8,4-2.4c1.4-0.9,2.6-2,3.6-3.3c1.2-1.6,1.8-3.6,1.6-5.6l0.3,0.2h-0.4l-0.4,0.1
				c-0.3,0-0.5,0.1-0.8,0.2c-0.5,0.1-1,0.3-1.4,0.5c-2.4,1-4.4,3-5.4,5.4c-0.6,1.4-0.9,2.9-1,4.5c-0.1-0.4-0.1-0.8-0.1-1.2
				c0.2-2.9,1.5-5.6,3.8-7.5c0.8-0.7,1.6-1.2,2.6-1.6c0.5-0.2,1-0.4,1.5-0.5c0.3-0.1,0.5-0.1,0.8-0.2c0.1,0,0.3-0.1,0.4-0.1h0.4
				c-0.1,0,0.6,0.4,0.3,0.2c0.2,2.2-0.4,4.3-1.8,6c-1.1,1.3-2.4,2.5-3.8,3.3c-1,0.6-2,1.1-3.1,1.6
				C153.4,438.8,153.1,439,152.7,439.1z"/>
			<path class="st13" d="M99.9,332.5c0-0.1,1.6-0.8,4-2.4c1.4-0.9,2.6-2,3.7-3.3c1.2-1.6,1.8-3.6,1.6-5.6c-0.3-0.2,0.4,0.3,0.3,0.2
				h-0.4c-0.1,0-0.3,0-0.4,0.1c-0.1,0.1-0.5,0.1-0.8,0.2c-1.4,0.4-2.8,1.1-3.9,2c-1.3,1-2.3,2.4-3,3.9c-0.6,1.4-0.9,2.9-1,4.5
				c-0.1-0.4-0.1-0.8-0.1-1.2c0.2-2.9,1.5-5.6,3.8-7.4c0.8-0.7,1.6-1.2,2.6-1.6c0.5-0.2,1-0.4,1.5-0.5c0.3-0.1,0.5-0.1,0.8-0.2
				l0.4-0.1h0.4l0.3,0.2c0.2,2.2-0.4,4.3-1.8,6c-1.1,1.4-2.4,2.5-3.8,3.4c-1,0.6-2,1.1-3.1,1.5C100.7,332.2,100.3,332.3,99.9,332.5z
				"/>
			<path class="st11" d="M138.6,201.1c-1.5-11.3-11.9-23.5-33.9-18.4l-21.6,7c-3.4,0.6-5.8,3.7-5.5,7.1l8,85.1
				c1,10.3,9.6,18.2,20,18.2l0,0c11.1,0,20.1-9,20.1-20c0-0.3,0-0.6,0-0.9c-0.5-10.2-0.8-18.4-0.8-18.4s14.2-3.4,16-22.4
				C141.7,228.9,140.2,213.6,138.6,201.1z"/>
			<path class="st10" d="M133,214c0.1,1.3-0.9,2.5-2.2,2.6c-1.3,0.2-2.4-0.7-2.6-1.9c0,0,0,0,0-0.1c0,0,0-0.1,0-0.1
				c-0.1-1.3,0.8-2.5,2.1-2.6c1.3-0.2,2.4,0.7,2.6,2C133,213.9,133,214,133,214L133,214z"/>
			<path class="st10" d="M136.2,210.8c-0.3,0.3-2.2-0.9-4.8-0.7s-4.4,1.6-4.7,1.3c-0.2-0.1,0.1-0.7,0.9-1.4c1.1-0.9,2.4-1.4,3.8-1.4
				c1.4-0.1,2.7,0.3,3.8,1C136.1,210.1,136.4,210.7,136.2,210.8z"/>
			<path class="st10" d="M108.2,215.3c0.1,1.3-0.9,2.5-2.2,2.6c-1.3,0.2-2.4-0.7-2.6-2c0,0,0,0,0,0c0,0,0-0.1,0-0.1
				c-0.1-1.3,0.9-2.5,2.2-2.6c1.3-0.2,2.4,0.7,2.6,1.9c0,0,0,0,0,0C108.2,215.2,108.2,215.3,108.2,215.3z"/>
			<path class="st10" d="M110.5,212.2c-0.3,0.3-2.2-0.9-4.8-0.7s-4.4,1.6-4.7,1.3s0.1-0.7,0.9-1.4c1.1-0.9,2.4-1.4,3.7-1.4
				c1.4-0.1,2.7,0.3,3.8,1C110.3,211.5,110.7,212,110.5,212.2z"/>
			<path class="st10" d="M121,230.1c0-0.1,1.6-0.5,4.2-1c0.7-0.1,1.3-0.3,1.3-0.8c0-0.7-0.2-1.4-0.6-1.9l-2.3-4.9
				c-3.2-7-5.6-12.8-5.3-12.9s3.1,5.4,6.3,12.4c0.8,1.7,1.5,3.4,2.2,5c0.5,0.8,0.6,1.7,0.5,2.6c-0.2,0.5-0.5,0.8-1,1
				c-0.4,0.1-0.7,0.2-1.1,0.2C123.9,230.1,122.4,230.2,121,230.1z"/>
			<path class="st12" d="M124.9,260.7c-8.8,0.7-17.7-1-25.6-5c0,0,7.2,12.8,25.9,9.8L124.9,260.7z"/>
			<path class="st12" d="M120.3,236.4c-1.1-1.2-2.8-1.7-4.3-1.4c-1.1,0.2-2.2,0.8-2.8,1.8c-0.6,0.9-0.6,2.1,0,3.1
				c0.9,0.9,2.3,1.2,3.5,0.6c1.2-0.5,2.3-1.2,3.2-2.1c0.3-0.2,0.5-0.5,0.7-0.8c0.2-0.3,0.2-0.7-0.1-1"/>
			<path class="st10" d="M113.5,232.4c0.4,0,0.6,2.8,3.2,4.6s5.5,1.3,5.6,1.7c0,0.2-0.6,0.6-1.9,0.7c-1.6,0.1-3.3-0.3-4.6-1.3
				c-1.3-0.9-2.2-2.3-2.5-3.9C113.1,233.1,113.3,232.4,113.5,232.4z"/>
			<path class="st10" d="M110.5,205c-0.2,0.7-2.8,0.6-5.8,1.1s-5.4,1.6-5.9,1c-0.2-0.3,0.2-1,1.1-1.7c2.6-1.9,5.9-2.5,8.9-1.6
				C110,204.1,110.7,204.6,110.5,205z"/>
			<path class="st10" d="M135,204.7c-0.4,0.6-2.2,0.1-4.4,0.2s-3.9,0.7-4.4,0.1c-0.2-0.3,0-0.9,0.8-1.5c1-0.8,2.2-1.2,3.5-1.2
				c1.3-0.1,2.5,0.3,3.6,0.9C134.9,203.8,135.2,204.4,135,204.7z"/>
			<path class="st10" d="M99.7,184.1c3.5,5.7,13.2,4.8,19.9,5.3c1.6,0.1,3.2,0.1,4.8,0.3c1.6,0.2,3.1,0.9,4.2,2.1
				c1.4,1.6,1.6,3.7,2.5,5.6c1.6,3.7,5.1,6.1,9.1,6.3c1.1,0,2.4-0.2,2.9-1.2c0.3-0.7,0.3-1.5,0.1-2.2c-0.9-4.9-2-9.9-4.6-14.2
				c-3-4.9-7.7-8.6-13.3-10.1c-5.5-1.5-18.8-0.7-23.8,2"/>
			<path class="st10" d="M99,176.8c6.7,8.2,6.4,21.3-0.6,29.2c-4,4.5-10.2,8.3-10.1,14.3c0.1,6.7,8.3,10.9,8.9,17.6
				c0.7,6.8-6.8,11.9-7.7,18.8c-0.7,5.5,3,10.6,7.1,14.3s8.9,6.9,11.6,11.7c3,5.3,2.9,12,1,17.8s-5.3,11-9,15.9
				c-5.7-1.5-11.5-2.2-17.4-2.2c0.2-2.2,0.3-4.5,0.5-6.7c0.4,2.5-1.6,5-3.9,6s-5,1-7.6,0.8c-7.9-0.5-15.7-1.7-23.3-3.7
				c2.9-3.5,5.8-7,7.3-11.2s1.6-9.2-1-12.9c-2.1-2.9-5.6-4.6-7.6-7.6c-2.9-4.5-1.5-10.8,1.7-15.1s7.8-7.5,11.7-11.2
				s7.4-8.6,7.2-13.9c-0.2-7-6.4-12.8-6.4-19.8c0-8,7.9-13.6,10.5-21.1c1.9-5.5,1-11.1,4.3-15.9c2.5-3.7,6.5-6.1,11-6.4
				C91.5,175.4,95.2,174.9,99,176.8"/>
			<path class="st8" d="M102.8,186.5c0,0.2,0,0.4,0,0.6c0,0.6-0.1,1.2-0.2,1.8c-0.4,2.2-1.1,4.3-2.2,6.3c-1.5,3-3.7,5.5-6.2,7.6
				c-1.5,1.2-3.2,2.3-5,3.1c-1.9,0.8-3.9,1.5-6,1.9c-2,0.4-3.9,1.2-5.7,2.1c-1.6,1-2.9,2.5-3.7,4.2c-1.5,3.3-1.7,6.8-2.9,9.4
				c-0.5,1.2-1.2,2.3-2,3.3c-0.6,0.7-1.4,1.4-2.2,1.8c-0.5,0.3-1.1,0.5-1.8,0.5c-0.2,0-0.4,0-0.6,0c0.8-0.1,1.6-0.3,2.3-0.7
				c0.8-0.5,1.5-1.1,2.1-1.8c0.8-1,1.4-2.1,1.9-3.2c1.1-2.6,1.2-6,2.8-9.5c0.8-1.8,2.1-3.3,3.8-4.4c1.9-1,3.9-1.8,6-2.2
				c2-0.5,4-1.1,5.9-1.9c1.8-0.8,3.4-1.8,4.9-3c2.5-2,4.7-4.6,6.2-7.4c1.1-1.9,1.9-4,2.3-6.1C102.6,187.4,102.7,186.5,102.8,186.5z"
				/>
			<path class="st8" d="M152.4,206c-0.2-0.3-0.5-0.6-0.8-0.8c-0.9-0.6-1.9-0.8-3-0.8c-0.6,0-1.4,0.1-2.2,0.2c-0.9,0.1-1.7,0.1-2.6,0
				c-5.6-0.4-10.7-3.6-13.6-8.5c-0.5-0.9-1-1.9-1.3-2.9c-0.2-0.4-0.2-0.8-0.3-1.1c0.6,1.3,1.2,2.6,1.9,3.9c1.9,3,4.6,5.3,7.8,6.7
				c1.8,0.8,3.6,1.3,5.5,1.4c0.8,0.1,1.7,0.1,2.5,0.1c0.8,0,1.5-0.1,2.2-0.1c1.1,0,2.2,0.3,3.1,1c0.2,0.2,0.4,0.4,0.6,0.7
				C152.4,205.9,152.4,206,152.4,206z"/>
			<path class="st8" d="M149.2,191.8c-0.2,0-0.4,0-0.6,0c-0.6,0-1.1-0.1-1.7-0.3c-2.1-0.5-4-1.5-5.5-3c-1.1-1-1.9-2.2-2.6-3.5
				c-0.7-1.4-1.3-3-2-4.5c-0.7-1.6-1.8-3.1-3.1-4.4c-1.4-1.3-3.2-2.2-5-2.6c-3.7-0.8-7.5-0.6-11,0.7c-2.9,1-5.7,2.2-8.5,3.6
				c-1.9,0.9-3.8,1.8-5.7,2.5c-0.7,0.3-1.2,0.4-1.6,0.6c-0.2,0.1-0.4,0.1-0.6,0.1c0.2-0.1,0.3-0.2,0.5-0.2l1.6-0.6
				c1.3-0.6,3.3-1.5,5.6-2.7c2.7-1.5,5.6-2.7,8.5-3.8c3.6-1.4,7.5-1.6,11.3-0.8c1.9,0.5,3.8,1.4,5.3,2.7c1.4,1.3,2.4,2.8,3.1,4.6
				c0.7,1.6,1.3,3.1,2,4.5c1.6,3.2,4.4,5.5,7.8,6.5C148.4,191.8,149.2,191.8,149.2,191.8z"/>
			<path class="st8" d="M76.4,188c0-0.4,0.1-0.7,0.2-1.1c0.3-1,0.8-1.9,1.4-2.8c3.9-6.2,11.9-8.2,18.2-4.6c0.9,0.5,1.8,1.1,2.5,1.8
				c0.3,0.3,0.5,0.5,0.8,0.9c-1.1-0.9-2.2-1.7-3.5-2.3c-6.2-3.3-13.8-1.3-17.7,4.5C77.6,185.5,76.9,186.7,76.4,188z"/>
			<path class="st8" d="M62.8,311.4c0.4,0,0.8-0.1,1.2-0.2c1.2-0.3,2.3-0.8,3.2-1.5c1.5-1.2,2.6-2.7,3.3-4.5
				c0.4-1.1,0.7-2.3,0.8-3.5c0.1-1.3,0-2.6-0.3-3.9c-0.7-3-1.9-5.8-3.6-8.3c-1.7-2.8-3.8-5.6-5.7-8.8c-1-1.7-1.8-3.4-2.4-5.2
				c-0.6-1.9-0.9-3.9-0.9-5.9c0-4.2,1.3-8.4,3.7-11.9c1.2-1.8,2.7-3.4,4.3-4.7c1.7-1.2,3.5-2.3,5.3-3.1c1.8-0.8,3.4-1.9,5-3.1
				c1.4-1.2,2.5-2.8,3.2-4.5c1.1-3.3,1.3-6.8,0.6-10.2c-0.5-3.2-1.2-6.2-1.5-9.1c-0.3-2.5-0.2-5.1,0.4-7.6c0.3-1.9,1-3.7,2-5.3
				c0.6-1.1,1.5-1.9,2.6-2.5c0.3-0.2,0.6-0.3,0.9-0.4c0.1,0,0.2-0.1,0.3-0.1c-0.4,0.1-0.8,0.3-1.1,0.6c-1,0.6-1.9,1.5-2.5,2.5
				c-1,1.6-1.6,3.4-2,5.3c-0.5,2.5-0.6,5-0.3,7.5c0.3,2.8,1,5.8,1.6,9c0.7,3.5,0.5,7.1-0.6,10.5c-0.7,1.8-1.8,3.4-3.3,4.7
				c-1.6,1.2-3.2,2.3-5,3.2c-1.8,0.9-3.6,1.9-5.2,3.1c-1.6,1.3-3,2.8-4.2,4.6c-2.3,3.4-3.6,7.5-3.6,11.6c0,2,0.3,3.9,0.8,5.8
				c0.6,1.8,1.4,3.5,2.3,5.1c1.8,3.2,4,6,5.6,8.9c1.7,2.6,2.9,5.5,3.6,8.5c0.3,1.3,0.3,2.7,0.3,4c-0.1,1.2-0.4,2.4-0.8,3.5
				c-0.7,1.8-1.9,3.4-3.4,4.6c-1,0.8-2.1,1.3-3.4,1.5C63.6,311.4,63.2,311.5,62.8,311.4z"/>
			<path class="st8" d="M144.7,280.5c0.8-0.8,1.4-1.7,1.7-2.7c0.8-2.9,0.5-5.9-0.7-8.6c-0.6-1.8-1.5-3.6-2.2-5.8
				c-0.3-1.1-0.6-2.3-0.6-3.4v-1.8c0.1-0.6,0.2-1.2,0.3-1.8c0.7-2.5,1.9-4.9,3.4-7.1c1.5-2.3,3.3-4.4,4.9-6.8
				c1.7-2.2,2.9-4.7,3.6-7.4c0.6-2.5,0.3-5.1-0.8-7.4c-1-2.1-2.3-4-3.9-5.8c-1.4-1.7-2.8-3.2-3.8-4.8c-1-1.4-1.8-2.9-2.4-4.5
				c-0.5-1.2-0.7-2.5-0.7-3.8c0-0.8,0.1-1.6,0.3-2.4c0.1-0.3,0.2-0.5,0.3-0.8c-0.3,1-0.4,2.1-0.4,3.2c0.1,1.3,0.3,2.5,0.8,3.7
				c0.6,1.6,1.5,3,2.4,4.4c1.2,1.6,2.5,3.2,3.9,4.7c1.6,1.8,2.9,3.7,4,5.9c1.2,2.4,1.5,5.2,0.9,7.8c-0.7,2.7-2,5.3-3.7,7.6
				c-1.6,2.4-3.4,4.6-4.9,6.8c-1.5,2.1-2.7,4.4-3.4,6.9c-0.1,0.6-0.3,1.2-0.3,1.8s0,1.2-0.1,1.8c0.1,1.1,0.3,2.2,0.6,3.3
				c0.6,2.1,1.5,4,2.1,5.8c1.2,2.8,1.4,5.9,0.5,8.8c-0.3,0.7-0.7,1.4-1.3,2c-0.1,0.2-0.3,0.3-0.5,0.4
				C144.8,280.4,144.7,280.4,144.7,280.5z"/>
			<path class="st8" d="M39.5,299c-0.2-0.3-0.3-0.5-0.4-0.8c-0.3-0.9-0.3-1.8-0.2-2.7c0.3-1.4,0.8-2.7,1.7-3.9
				c0.9-1.4,2.2-2.8,3.2-4.6c1.1-2,1.7-4.2,1.7-6.4c0-2.6-0.2-5.2-0.6-7.7c-0.4-2.9-0.3-5.8,0.3-8.6c0.9-3,2.6-5.7,4.9-7.9
				c2.2-2.1,4.5-4.2,7-6c2.3-1.7,4.4-3.7,6.5-5.7c3.8-3.9,6.6-8.1,7.9-12c0.5-1.8,0.9-3.6,1-5.4c0.1-1.4,0.1-2.8-0.1-4.2
				c-0.1-0.6-0.1-1.1-0.2-1.5s-0.1-0.8-0.2-1.1l-0.1-0.7c0-0.1,0-0.2,0-0.2c0,0.1,0.1,0.2,0.1,0.2l0.2,0.7c0.1,0.3,0.2,0.7,0.2,1.1
				s0.1,1,0.2,1.5c0.2,1.4,0.2,2.8,0.2,4.2c-0.1,1.9-0.5,3.7-1,5.5c-1.2,4-4,8.3-7.9,12.3c-2,2.1-4.2,4-6.4,5.8
				c-2.5,1.9-4.8,3.9-7.1,6c-2.2,2.1-3.8,4.7-4.8,7.7c-0.6,2.8-0.8,5.6-0.4,8.5c0.4,2.6,0.5,5.2,0.5,7.8c0,2.3-0.6,4.6-1.7,6.6
				c-1.1,1.8-2.4,3.2-3.3,4.5c-0.8,1.1-1.4,2.4-1.7,3.8c-0.2,0.9-0.2,1.8,0.1,2.6C39.3,298.8,39.5,299,39.5,299z"/>
			<path class="st8" d="M92.2,315.8c0.9-1.3,1.7-2.6,2.4-4c0.8-1.7,1.3-3.4,1.6-5.2c0.9-5.3-0.4-10.8-3.7-15.1
				c-2.1-2.7-4.3-5.2-6.6-7.6c-2.7-2.7-4.8-5.8-6.4-9.2c-0.8-1.8-1.2-3.8-1.2-5.9c0-2.1,0.6-4.1,1.6-5.9c2-3.6,5.1-6.4,7.2-9.6
				c1.1-1.5,1.8-3.3,2.2-5.1c0.3-1.8,0.3-3.6,0.1-5.4c-0.6-3.3-1.6-6.5-3.1-9.5c-1.3-2.7-2.4-5.4-3.4-8.2c-1.8-5.1-1.3-9.8,0-12.6
				c0.4-1.1,1.1-2,1.9-2.9c0.3-0.3,0.6-0.6,0.9-0.8c0,0-0.3,0.3-0.8,0.9c-0.8,0.9-1.4,1.9-1.8,2.9c-1.2,2.7-1.6,7.3,0.2,12.4
				c1,2.7,2.2,5.4,3.5,8.1c1.5,3,2.6,6.3,3.2,9.6c0.3,1.8,0.3,3.7-0.1,5.5c-0.4,1.9-1.2,3.7-2.2,5.3c-2.1,3.3-5.2,6-7.2,9.6
				c-1,1.7-1.5,3.7-1.6,5.7c0,1.9,0.4,3.9,1.2,5.6c1.5,3.4,3.6,6.5,6.2,9.1c2.4,2.4,4.6,5,6.6,7.7c4.5,6,5.2,13.9,1.9,20.6
				c-0.5,1.1-1.1,2.1-1.8,3l-0.6,0.7L92.2,315.8z"/>
			<polygon class="st3" points="89.5,377.6 107,335.4 165.8,362.3 133,438.5 73.2,416.8 			"/>
			<g class="st14">
				<polygon class="st10" points="89.5,377.6 107,335.4 165.8,362.3 133,438.5 73.2,416.8 				"/>
			</g>
			<polygon class="st3" points="165.8,362.3 133,438.5 144.8,442.7 177.2,367.8 			"/>
			<g class="st15">
				<polygon class="st10" points="165.8,362.3 133,438.5 144.8,442.7 177.2,367.8 				"/>
			</g>
			<polygon class="st16" points="115.5,338.5 119.5,330.5 174.4,357.1 171.6,364.3 			"/>
			<polygon class="st13" points="109.3,336.5 110.9,332.8 173.6,362.3 172.4,365.5 			"/>
			<path class="st1" d="M167.2,377.5c0.1,0.1-4.6,11.7-10.6,25.9s-10.9,25.8-11.1,25.7s4.6-11.7,10.6-25.9S167.1,377.4,167.2,377.5z
				"/>
			<path class="st1" d="M113.1,352.6l0.2,0.1l0.6,0.2l2.2,1l8.2,3.6l28.7,12.9l0.2,0.1l-0.1,0.2c-3.5,7.9-7.3,16.6-11.2,25.8
				l-0.1,0.2l-0.2-0.1h-0.1L102.1,380l-0.2-0.1l0.1-0.2c3.3-8.3,6.1-15,8-19.8c1-2.3,1.7-4.1,2.2-5.4l0.6-1.4
				C112.9,352.9,113,352.8,113.1,352.6c0,0.1-0.1,0.2-0.2,0.6s-0.3,0.8-0.6,1.5c-0.5,1.3-1.2,3.1-2.1,5.5l-7.8,19.8l-0.1-0.3
				l39.2,16.6h0.1l-0.4,0.1c4-9.1,7.8-17.9,11.3-25.8l0.1,0.3l-28.5-13.1L116,354l-2.2-1l-0.6-0.3L113.1,352.6z"/>
			<path class="st1" d="M142.7,387c-0.2-0.3-0.3-0.5-0.4-0.8l-0.9-2.4c-0.8-2.1-1.9-5-3.1-8.5l0.3,0.1l-11,3.6l-0.2,0.1l-0.1-0.2
				l-0.9-1.5l-3.4-5.6l0.3,0.1l-12.9,5l-3.8,1.4c-0.4,0.2-0.9,0.3-1.4,0.5c0.4-0.2,0.9-0.4,1.3-0.6l3.7-1.5l12.8-5.1l0.2-0.1
				l0.1,0.2l3.4,5.5c0.3,0.5,0.6,1,0.9,1.5l-0.3-0.1l11-3.5l0.2-0.1l0.1,0.2l2.9,8.6c0.3,1,0.6,1.8,0.8,2.4
				C142.5,386.5,142.6,386.7,142.7,387z"/>
			<path class="st1" d="M131.9,370.2c0,0-0.1-0.2-0.2-0.5c-0.2-0.4-0.4-0.8-0.8-1.1c-0.6-0.4-1.3-0.5-1.9-0.2
				c-1,0.4-1.5,1.6-1.1,2.6c0.2,0.5,0.6,0.9,1.1,1.1c0.6,0.2,1.4,0.2,1.9-0.2c0.4-0.3,0.7-0.7,0.8-1.1
				C131.9,370.4,131.9,370.3,131.9,370.2c0.1,0,0.1,0.2,0,0.6c-0.1,0.5-0.4,1-0.8,1.4c-0.6,0.5-1.5,0.7-2.3,0.4
				c-1.3-0.4-2-1.8-1.5-3.1c0,0,0,0,0,0c0.2-0.7,0.8-1.3,1.5-1.5c0.8-0.3,1.7-0.1,2.3,0.4c0.4,0.3,0.7,0.8,0.8,1.4
				C132,369.9,132,370.1,131.9,370.2z"/>
			<path class="st3" d="M160.9,360.2c0,0-4-7.8-11.2-5.2c-2.8,1-9.2,20.2-9.2,20.2l4.1-1.3l2.6,4.3c0,0,8.2-20.1,9.4-20L160.9,360.2
				z"/>
			<path class="st1" d="M141,402.5c-0.6-0.1-1.2-0.3-1.7-0.6l-4.6-1.7c-3.9-1.5-9.3-3.6-15.2-5.9s-11.2-4.5-15.2-6.1l-4.6-1.9
				c-0.6-0.2-1.1-0.5-1.6-0.8c0.6,0.2,1.2,0.3,1.7,0.6l4.6,1.7c3.9,1.5,9.3,3.6,15.2,5.9s11.3,4.5,15.2,6l4.6,1.9
				C139.9,402,140.5,402.2,141,402.5z"/>
			<path class="st1" d="M138.6,405.8c-0.6-0.1-1.2-0.3-1.7-0.6l-4.6-1.7c-3.9-1.5-9.3-3.6-15.2-5.9s-11.3-4.5-15.2-6.1l-4.6-1.9
				c-0.6-0.2-1.1-0.5-1.6-0.8c0.6,0.1,1.2,0.3,1.7,0.6l4.6,1.7c3.9,1.5,9.3,3.6,15.2,5.9s11.2,4.5,15.2,6.1l4.6,1.9
				C137.5,405.3,138.1,405.5,138.6,405.8z"/>
			<path class="st1" d="M137.3,410.2c-0.6-0.1-1.2-0.3-1.7-0.6l-4.6-1.7c-3.9-1.5-9.3-3.6-15.2-5.9s-11.3-4.5-15.2-6.1l-4.6-1.9
				c-0.6-0.2-1.1-0.5-1.6-0.8c0.6,0.1,1.2,0.3,1.7,0.6l4.6,1.7c3.9,1.5,9.3,3.6,15.2,5.9s11.2,4.5,15.2,6.1l4.6,1.9
				C136.2,409.7,136.8,409.9,137.3,410.2z"/>
			<path class="st11" d="M109.9,398.2l8.8,4.4c0,0,7-3.4,10.6-3.9s18.6,1.4,18.6,1.4c0.2,1.8-0.9,3.5-2.6,4.1c-1.4,0.4-8.8,0-8.8,0
				l0,0c-1.6,1.4-1.7,3.7-0.4,5.3c0.4,0.4,0.9,0.8,1.4,1c3.8,1.6,8.2,3.4,8.7,3.8s6-0.6,10.1-1.4c2.4-0.5,4.2,2.6,2.3,4.2
				c-0.2,0.2-0.4,0.3-0.6,0.3c0,0,3.6,2.2-2.6,4.9c0,0-2.1,4.9-6,5.2c0,0-4.6,4.6-7.4,5.4s-21.5-6.4-21.5-6.4l-18.1-9.4L109.9,398.2
				z"/>
			<path class="st12" d="M141.3,432.8c-4.1,0-20.8-6.3-21-6.4l-18.1-9.4l0,0l7.7-18.8l0,0l8.8,4.4c0.3-0.1,7.2-3.4,10.5-3.9
				c0.6-0.1,1.1-0.1,1.7-0.1c5.1,0,16.8,1.5,17,1.5l0,0c0.2,1.8-0.9,3.5-2.6,4.1c-1.3,0.4-8.5,0-8.8,0c-1.6,1.3-1.7,3.7-0.4,5.2
				c0.4,0.4,0.8,0.8,1.4,1c3.7,1.5,8.2,3.4,8.7,3.8s4-0.2,10-1.5c0.2,0,0.4,0,0.5,0c1,0,1.9,0.6,2.3,1.5c0.5,0.9,0.3,2.1-0.5,2.8
				c-0.2,0.2-0.4,0.3-0.6,0.3c0.6,0.4,1,1,1,1.7c-0.1,1.1-1.3,2.2-3.7,3.2c-0.4,0.9-0.9,1.7-1.6,2.5c-1.1,1.5-2.7,2.5-4.5,2.7
				c-0.2,0.2-4.7,4.6-7.4,5.4C141.6,432.8,141.4,432.8,141.3,432.8z M102.3,417l18.1,9.4c0.2,0.1,16.8,6.4,20.9,6.4
				c0.2,0,0.4,0,0.5-0.1c2.8-0.7,7.4-5.3,7.4-5.4l0,0c1.8-0.3,3.4-1.3,4.5-2.7c0.6-0.8,1.1-1.6,1.6-2.5l0,0c2.4-1,3.6-2.1,3.7-3.2
				c0-0.7-0.4-1.3-1-1.7l0,0c0.2,0,0.4-0.1,0.6-0.3c0.8-0.7,1-1.8,0.5-2.8c-0.5-1.1-1.6-1.7-2.8-1.4c-3.1,0.7-6.3,1.2-9.5,1.5
				c-0.2,0-0.4,0-0.6-0.1c-0.4-0.3-3.4-1.6-8.7-3.8c-1.9-0.8-2.8-3-2-4.9c0.2-0.5,0.6-1,1-1.4l0,0c0.1,0,7.4,0.5,8.8,0
				c1.2-0.3,2.1-1.2,2.4-2.4c0.2-0.5,0.2-1.1,0.2-1.6c-0.6-0.1-11.9-1.5-16.9-1.5c-0.6,0-1.1,0-1.7,0.1c-3.5,0.5-10.5,3.9-10.6,4
				l0,0l-8.8-4.4L102.3,417z"/>
			<path class="st12" d="M135.7,416.4c0.9,0.8,1.8,1.5,2.9,2c2.4,1.5,5.2,2.4,8,2.6c2.9,0,5.7-0.8,8.2-2.1c1.1-0.5,2.1-1.1,3-1.8
				c-1.1,0.3-2.2,0.7-3.2,1.3c-2.5,1.2-5.2,1.8-7.9,1.8c-2.7-0.3-5.4-1-7.8-2.3C137.9,417.3,136.8,416.8,135.7,416.4z"/>
			<path class="st12" d="M134.9,421.3c-0.1,0.1,0.8,1,2.5,2c1,0.6,2.1,1,3.2,1.4c1.4,0.6,2.8,0.8,4.3,0.8c1.4-0.2,2.8-0.5,4.2-1
				l3.2-1.1c1-0.3,2-0.7,2.9-1.2c-1,0.1-2.1,0.3-3.1,0.6c-0.9,0.2-2,0.5-3.3,0.9c-1.3,0.4-2.6,0.7-4,0.9c-1.3,0-2.7-0.2-3.9-0.7
				c-1.1-0.4-2.1-0.8-3.1-1.2C136,421.9,135,421.2,134.9,421.3z"/>
			<path class="st12" d="M134.5,427c-0.1,0.3,3.2,1.6,7.2,2.9c0.6,0.2,1.2,0.2,1.8,0.1c0.5-0.1,1-0.2,1.5-0.3
				c0.8-0.2,1.6-0.5,2.4-0.9c1.3-0.6,2-1.3,1.9-1.4c-0.7,0.2-1.5,0.4-2.1,0.8c-0.8,0.3-1.5,0.5-2.3,0.7c-0.5,0.1-0.9,0.2-1.4,0.3
				c-0.4,0.1-0.9,0.1-1.3,0c-2.1-0.7-4-1.2-5.3-1.5C136,427.3,135.3,427.1,134.5,427z"/>
			<path class="st3" d="M56.7,283.8c0,0-10.4,6.6-16.6,25.2c-5.3,15.6-16.3,41-19.9,59c-2.6,13.1,3.6,28.7,19.9,33.1l62.1,18.7
				l9.5-23.3L56,368.2l15.3-34.8L56.7,283.8z"/>
			<path class="st10" d="M34.6,399c0.1,0,0.2,0,0.3,0.1l1,0.3l3.8,1.1l14.2,4.3l48.3,14.7l-0.3,0.1l6-14.8c1.2-2.9,2.3-5.7,3.4-8.5
				l0.1,0.3c-11.6-5.7-22.4-11.4-31.8-16.3s-17.6-9-23.8-12.1l0,0c-2.1-0.4-4.2-0.3-6.2,0.5c-1.5,0.5-2.9,1.3-4.1,2.3
				c-0.5,0.3-0.9,0.7-1.3,1.1c-0.3,0.3-0.6,0.6-0.9,0.9l-0.5,0.6c-0.1,0.1-0.2,0.2-0.2,0.2s0-0.1,0.2-0.2l0.5-0.6
				c0.3-0.3,0.5-0.6,0.8-0.9c0.4-0.4,0.8-0.8,1.3-1.1c1.2-1,2.6-1.8,4.1-2.4c2-0.8,4.2-1,6.4-0.6l0,0c6.3,3.1,14.4,7.2,23.9,12
				s20.2,10.4,31.9,16.2l0.2,0.1l-0.1,0.2l-3.4,8.5l-6,14.9l-0.1,0.2l-0.2-0.1l-48.2-14.9l-14.2-4.4l-3.8-1.2l-1-0.3L34.6,399z"/>
			<path class="st10" d="M73.9,314.9c0.1,0.2,0.2,0.4,0.2,0.5c0.2,0.5,0.3,1.1,0.3,1.6c0.3,2,0.3,4.1,0,6.1c-0.5,3-1.3,6-2.4,8.8
				c-1.2,3.2-2.8,6.6-4.4,10.2c-3.2,7.2-6.1,13.6-8.2,18.4l-2.5,5.5c-0.3,0.6-0.5,1.1-0.7,1.5c-0.1,0.2-0.2,0.3-0.3,0.5
				c0-0.2,0.1-0.4,0.2-0.5l0.6-1.5c0.6-1.4,1.4-3.3,2.4-5.6c2-4.8,4.9-11.2,8.1-18.4c1.6-3.6,3.2-7,4.4-10.2c1.2-2.8,2-5.7,2.5-8.7
				c0.3-2,0.4-4,0.2-6c-0.1-0.7-0.2-1.3-0.2-1.6C73.9,315.4,73.9,315.1,73.9,314.9z"/>
			<path class="st13" d="M45.9,323.1c0.1,0,0.2,1.2,0.6,3.2c0.5,2.6,1.1,5.2,1.9,7.7c0.8,2.5,1.8,4.9,3,7.3c0.5,1,1,2,1.4,3
				c-0.2-0.2-0.4-0.5-0.5-0.7c-0.3-0.5-0.7-1.2-1.2-2c-2.5-4.7-4.2-9.7-4.9-15c-0.1-1-0.2-1.8-0.2-2.4
				C45.9,323.8,45.9,323.5,45.9,323.1z"/>
			<path class="st13" d="M49.8,336.2c0.6-0.9,1.1-1.8,1.6-2.8c1-2.4,1.3-5.1,0.7-7.6l-0.1-0.2l0.5,0.1c-1.5,2.1-2.4,4.5-2.7,7.1
				c-0.2,2,0,3.2-0.1,3.2c-0.1-0.3-0.2-0.6-0.2-0.9c-0.1-0.8-0.1-1.6-0.1-2.4c0.2-2.6,1-5.2,2.6-7.4l0.3-0.5l0.1,0.6l0.1,0.3
				c0.6,2.7,0.3,5.5-0.9,7.9c-0.3,0.7-0.8,1.4-1.3,2C50,336,49.8,336.3,49.8,336.2z"/>
			<path class="st13" d="M46.7,332.2c-0.3-0.1-0.6-0.2-0.9-0.3c-0.8-0.4-1.5-0.8-2.3-1.3c-1.7-1.1-3.2-2.6-4.5-4.2
				c-0.2-0.3-0.5-0.7-0.7-1c-0.3-0.4-0.3-0.9-0.2-1.4c0.1-0.3,0.4-0.5,0.7-0.5c0.3,0,0.5,0,0.7,0.1c0.4,0.2,0.7,0.4,1,0.7
				c0.6,0.5,1.2,1,1.7,1.5c0.9,0.9,1.7,1.9,2.5,3c0.5,0.7,0.9,1.4,1.3,2.2c0.2,0.3,0.3,0.6,0.3,0.9c-0.1,0-0.6-1.2-1.9-3
				c-0.7-1-1.5-1.9-2.5-2.8c-0.5-0.5-1.1-1-1.7-1.4c-0.3-0.2-0.6-0.4-1-0.6c-0.3-0.1-0.6-0.1-0.7,0.1c-0.1,0.3,0,0.7,0.2,0.9
				c0.2,0.3,0.4,0.6,0.6,1c1.2,1.6,2.6,3,4.3,4.2C45.5,331.6,46.7,332.2,46.7,332.2z"/>
			<path class="st13" d="M48,340.8c-0.2,0.1-0.5,0.2-0.7,0.3c-0.7,0.1-1.4,0.2-2.1,0.2c-2.4-0.1-4.8-1.1-6.5-2.8l-0.3-0.3l0.4-0.1
				l0.7-0.2c2.5-0.6,5.2-0.1,7.4,1.2c0.7,0.4,1.3,0.9,1.8,1.5c0.4,0.4,0.5,0.7,0.5,0.7c-0.8-0.7-1.6-1.3-2.5-1.8
				c-2.2-1.2-4.7-1.5-7.1-1l-0.7,0.2l0.1-0.4c1.7,1.6,3.8,2.6,6.2,2.8C46.1,341,47.1,341,48,340.8z"/>
			<path class="st13" d="M53.4,393.6c0.3-0.2,0.5-0.3,0.8-0.4c0.5-0.2,1.3-0.5,2.2-0.9c5-1.7,10.3-2.5,15.6-2.4
				c0.8,0,1.6,0.1,2.4,0.1c0.3,0,0.6,0.1,0.9,0.2c-1.1,0.1-2.2,0.1-3.3,0.1c-2.6,0-5.3,0.3-7.8,0.6c-2.6,0.4-5.2,1-7.7,1.7
				C55.5,393.1,54.4,393.4,53.4,393.6z"/>
			<path class="st13" d="M66.9,391.1c-0.1,0.3-0.1,0.6-0.3,0.9c-0.3,0.7-0.8,1.4-1.3,2c-1.7,2.2-4,3.7-6.7,4.4l-0.3,0.1l-0.6,0.1
				l0.3-0.5c1.2-2.3,3.1-4.3,5.4-5.6c0.7-0.4,1.4-0.7,2.1-1c0.3-0.1,0.6-0.2,0.8-0.2c0,0.1-1.1,0.5-2.8,1.5
				c-2.2,1.4-3.9,3.3-5.1,5.6l-0.3-0.4l0.3-0.1c2.5-0.7,4.8-2.1,6.5-4.1C65.7,392.9,66.3,392,66.9,391.1z"/>
			<path class="st13" d="M61.9,390.1c-0.1,0.1-1.1-0.8-3.1-1.8c-1.1-0.6-2.2-1-3.4-1.4c-0.7-0.2-1.4-0.4-2.2-0.5
				c-0.4-0.1-0.8-0.1-1.2-0.1c-0.3,0-0.7,0.1-0.9,0.3c-0.2,0.2-0.1,0.5,0.2,0.7c0.3,0.2,0.6,0.4,1,0.6c0.6,0.3,1.3,0.6,2,0.9
				c1.2,0.4,2.4,0.8,3.7,0.9c2.1,0.3,3.5,0.2,3.5,0.3c-0.3,0.1-0.7,0.1-1,0.1c-0.9,0-1.7,0-2.6-0.1c-1.3-0.1-2.5-0.4-3.8-0.8
				c-0.7-0.3-1.4-0.5-2.1-0.9c-0.4-0.2-0.7-0.4-1-0.6c-0.2-0.2-0.3-0.4-0.4-0.6c-0.1-0.3,0-0.6,0.2-0.8c0.4-0.4,0.8-0.5,1.3-0.5
				c0.4,0,0.8,0.1,1.2,0.1c0.8,0.1,1.5,0.3,2.2,0.5c1.2,0.4,2.4,0.9,3.6,1.5c0.8,0.4,1.5,0.9,2.2,1.5
				C61.5,389.6,61.7,389.9,61.9,390.1z"/>
			<path class="st13" d="M70.2,387.5c-0.3-0.9-0.7-1.7-1.2-2.6c-1.2-2-3.1-3.5-5.3-4.2l0.4-0.3c0,0.2,0.1,0.5,0.1,0.7
				c0.6,2.4,2.1,4.5,4.2,5.9c0.9,0.5,1.8,1,2.8,1.4c-0.3,0-0.6,0-0.8-0.1c-0.7-0.2-1.5-0.5-2.1-1c-2.2-1.4-3.8-3.5-4.5-6.1
				c0-0.2-0.1-0.5-0.1-0.7l-0.1-0.4l0.4,0.1c2.3,0.8,4.2,2.4,5.4,4.5c0.4,0.6,0.6,1.3,0.8,2C70.2,387,70.2,387.2,70.2,387.5z"/>
			<path class="st13" d="M64.2,326.9c0.4-0.9,0.8-1.8,1-2.7c0.5-2.3,0-4.7-1.4-6.6h0.4l-0.1,0.1c-1.6,1.8-2.1,4.3-1.2,6.5
				C63.3,325.2,63.7,326.1,64.2,326.9c-0.8-0.7-1.4-1.6-1.7-2.5c-0.4-1-0.6-2.2-0.5-3.3c0.2-1.4,0.8-2.7,1.7-3.7l0.1-0.1l0.2-0.2
				l0.2,0.3c0.8,1.1,1.4,2.3,1.6,3.7c0.2,1.1,0.1,2.2-0.2,3.3c-0.2,0.7-0.5,1.4-0.9,2C64.5,326.8,64.3,327,64.2,326.9z"/>
			<path class="st13" d="M87,402.1c0.4-0.9,0.8-1.8,1-2.7c0.5-2.3,0-4.7-1.4-6.6H87l-0.1,0.1c-1.6,1.8-2.1,4.3-1.2,6.5
				C86.1,400.3,86.5,401.2,87,402.1c-0.8-0.7-1.4-1.6-1.7-2.6c-0.5-1-0.6-2.2-0.5-3.3c0.2-1.4,0.7-2.7,1.7-3.7l0.1-0.1l0.2-0.2
				l0.2,0.3c0.8,1.1,1.4,2.4,1.6,3.7c0.2,1.1,0.1,2.2-0.2,3.3c-0.2,0.7-0.5,1.4-0.9,2C87.2,401.9,87,402.1,87,402.1z"/>
			<path class="st13" d="M31.5,366c0-0.1,1.6-0.8,4-2.4c1.4-0.9,2.6-2,3.7-3.3c1.2-1.6,1.8-3.6,1.6-5.6c-0.3-0.2,0.4,0.3,0.3,0.2
				h-0.4c-0.1,0-0.3,0-0.4,0.1l-0.8,0.2c-0.5,0.1-1,0.3-1.5,0.5c-0.9,0.4-1.7,0.9-2.5,1.5c-1.3,1-2.3,2.4-3,3.9
				c-0.6,1.4-0.9,2.9-1,4.5c-0.1-0.4-0.1-0.8-0.1-1.3c0.1-1.2,0.3-2.3,0.7-3.4c0.6-1.6,1.7-3,3-4.1c1.2-1,2.6-1.7,4.1-2.1
				c0.3-0.1,0.5-0.1,0.8-0.2l0.4-0.1H41l0.3,0.2c0.2,2.2-0.4,4.3-1.8,6c-1.1,1.3-2.4,2.5-3.8,3.3c-1,0.6-2,1.1-3.1,1.6
				C32.3,365.8,31.9,365.9,31.5,366z"/>
		</g>
		<g id="freepik--Plant--inject-103">
			<path class="st16" d="M470.4,370c0-0.1-0.1-0.2-0.1-0.2l-0.4-0.6c-0.3-0.6-0.8-1.4-1.5-2.4c-2-2.9-4.6-5.3-7.5-7.2
				c-2.1-1.3-4.4-2.1-6.8-2.5c-2.8-0.4-5.6-0.1-8.2,0.9c-2.9,1-5.4,3.1-7,5.8c-1.6,2.8-2.1,6.1-3.1,9.3c-0.4,1.6-1.1,3.1-2,4.4
				c-0.9,1.3-2,2.4-3.3,3.3c-1.3,0.9-2.6,1.8-3.8,2.7c-1.2,1-2.2,2.1-3.1,3.3c-1.6,2.3-2.6,4.9-3.1,7.7c-0.5,2.4-0.6,4.8-0.4,7.2
				c0.3,3.5,0.9,6.9,1.8,10.2c0.3,1.2,0.6,2.1,0.8,2.7c0.1,0.3,0.2,0.6,0.3,0.9c0-0.3-0.1-0.6-0.2-1c-0.2-0.7-0.4-1.6-0.6-2.8
				c-0.9-3.4-1.4-6.8-1.6-10.2c-0.2-2.4,0-4.8,0.5-7.1c0.5-2.7,1.5-5.2,3.1-7.5c0.9-1.2,1.9-2.3,3-3.2c1.2-0.9,2.5-1.8,3.8-2.7
				c1.4-0.9,2.5-2.1,3.5-3.4c0.9-1.4,1.6-3,2-4.6c1-3.2,1.5-6.5,3.1-9.2c1.5-2.6,3.9-4.5,6.7-5.6c2.6-1,5.3-1.3,8-0.9
				c2.3,0.4,4.6,1.2,6.6,2.4c3,1.8,5.5,4.1,7.6,6.9c0.7,1,1.2,1.8,1.6,2.3C470,369.4,470.2,369.7,470.4,370z"/>
			<path class="st16" d="M429,381.6c0.9-0.8,1.3-0.2,2.5,0c1.2,0.3,2.3,0.8,3.2,1.6c4.1,3.4,5.8,8.9,4.3,14
				c-5.7,0.3-10.7-4.1-11-9.8c-0.1-2,0.4-4.1,1.4-5.8"/>
			<path class="st16" d="M464.8,365.3c0.4-1.1,1-0.8,2.2-1.1c1.2-0.3,2.4-0.2,3.5,0.1c5.2,1.3,9.1,5.5,9.9,10.8
				c-5.1,2.7-11.4,0.8-14.1-4.2c-1-1.8-1.4-3.8-1.2-5.8"/>
			<path class="st16" d="M421,403.7c4.3-5,11.9-5.6,16.9-1.3c0.7,0.6,1.4,1.4,2,2.2c-2.7,2.4-6.2,3.8-9.8,3.9
				c-3.7-0.1-7.2-1.5-9.9-4"/>
			<path class="st16" d="M424,387.2c-6.7,0.2-12.3-5.2-12.5-11.9c0,0,0,0,0,0c0-0.9,0-1.8,0.2-2.6c5.9-1.4,11.7,2.3,13.1,8.2
				c0.5,2.1,0.3,4.2-0.4,6.2"/>
			<path class="st16" d="M436.6,367.9c-6.3,2.4-13.3-0.7-15.8-7c-0.3-0.8-0.5-1.7-0.7-2.6c5.1-3.2,11.8-1.7,15.1,3.3
				c1.1,1.8,1.7,3.9,1.7,6"/>
			<path class="st16" d="M440.8,361.5c6.3-2.4,13.3,0.7,15.7,7c0,0,0,0,0,0c0.3,0.9,0.6,1.7,0.7,2.7c-5.1,3.2-11.9,1.7-15.1-3.4
				c-1.1-1.8-1.7-3.9-1.7-6"/>
			<path class="st16" d="M445.9,358.1c-6.4-2.1-9.8-9-7.6-15.4c0.3-0.9,0.7-1.7,1.2-2.5c6,0.8,10.2,6.3,9.4,12.3
				c-0.3,2.1-1.1,4.1-2.5,5.7"/>
			<path class="st16" d="M458.8,358.7c-2.3-6.3,1-13.3,7.3-15.6c0.9-0.3,1.8-0.5,2.7-0.6c3.1,5.2,1.5,11.9-3.7,15
				c-1.8,1.1-3.9,1.6-6,1.6"/>
			<polyline class="st10" points="406.7,446.1 399.8,402.9 452.6,403.5 447.4,445.5 			"/>
			<path class="st3" d="M429.5,395c2.6,1.7,5.9,2,8.8,0.7c2.8-1.6,4.6-4.4,4.8-7.6c-4.9-2.7-11.1-0.8-13.7,4.1
				c-0.3,0.6-0.6,1.3-0.8,2"/>
			<path class="st3" d="M453.6,404.3c2.6,1.8,5.9,2,8.8,0.8c2.8-1.6,4.6-4.4,4.8-7.6c-4.9-2.7-11.1-0.8-13.8,4.1
				c-0.3,0.6-0.6,1.3-0.8,1.9"/>
			<path class="st3" d="M440,383.5c1.2,2.9,3.8,5,6.9,5.4c3.2,0.2,6.2-1.2,8.2-3.7c-2.6-4.9-8.8-6.8-13.7-4.2c0,0,0,0,0,0
				c-0.6,0.3-1.2,0.7-1.8,1.2"/>
			<path class="st3" d="M448.9,394.3c-3.1-0.2-6.1,1.3-7.9,3.9c-1.6,2.8-1.6,6.2-0.2,9c5.6-0.3,9.9-5,9.6-10.6
				c0-0.7-0.1-1.4-0.3-2.1"/>
			<path class="st3" d="M457.4,411.3c-1.5,2.8-1.4,6.1,0.2,8.8c1.9,2.6,4.9,4.1,8,4c1.1-2.9,0.9-6-0.5-8.7c-1.4-2.5-3.9-3.8-7-4.5"
				/>
			<path class="st3" d="M471.4,413.3c-0.6-0.6-1.3-1-2-1.3c-0.9-0.3-1.9-0.5-2.9-0.5c-1.3,0-2.6,0.1-3.9,0.2
				c-1.6,0.2-3.2,0.1-4.8-0.4c-1.8-0.7-3.2-2.1-4-3.8c-0.8-1.9-1.4-3.8-1.7-5.8c-0.3-2.1-1-4.1-2-6c-1.2-1.7-2.8-3.3-4.5-4.5
				c-1.6-1.2-3.1-2.7-4.3-4.3c-1.9-2.9-2.7-6.5-2.1-9.9c0.3-2.3,1.2-4.5,2.6-6.4c0.4-0.5,0.8-1,1.3-1.4c0.2-0.2,0.3-0.3,0.5-0.4
				c-0.1,0.2-0.3,0.4-0.4,0.5c-0.4,0.5-0.8,0.9-1.2,1.5c-1.3,1.9-2.1,4-2.4,6.3c-0.5,3.3,0.3,6.8,2.2,9.6c1.2,1.6,2.6,3,4.2,4.2
				c1.8,1.3,3.3,2.9,4.6,4.6c1.1,1.9,1.8,4,2.1,6.2c0.3,2,0.8,3.9,1.6,5.7c0.7,1.6,2,2.9,3.6,3.6c1.5,0.5,3.1,0.6,4.6,0.5
				c1.3-0.1,2.6-0.2,3.9-0.1c1,0,2,0.2,2.9,0.6c0.6,0.2,1.1,0.6,1.6,1c0.1,0.1,0.2,0.2,0.3,0.4C471.4,413.2,471.4,413.3,471.4,413.3
				z"/>
			<path class="st3" d="M471.4,413.3c-0.6-0.6-1.3-1-2-1.3c-0.9-0.3-1.9-0.5-2.9-0.5c-1.3,0-2.6,0.1-3.9,0.2
				c-1.6,0.2-3.2,0.1-4.8-0.4c-1.8-0.7-3.2-2.1-4-3.8c-0.8-1.9-1.4-3.8-1.7-5.8c-0.3-2.1-1-4.1-2-6c-1.2-1.7-2.8-3.3-4.5-4.5
				c-1.6-1.2-3.1-2.7-4.3-4.3c-1.9-2.9-2.7-6.5-2.1-9.9c0.3-2.3,1.2-4.5,2.6-6.4c0.4-0.5,0.8-1,1.3-1.4c0.2-0.2,0.3-0.3,0.5-0.4
				c-0.1,0.2-0.3,0.4-0.4,0.5c-0.4,0.5-0.8,0.9-1.2,1.5c-1.3,1.9-2.1,4-2.4,6.3c-0.5,3.3,0.3,6.8,2.2,9.6c1.2,1.6,2.6,3,4.2,4.2
				c1.8,1.3,3.3,2.9,4.6,4.6c1.1,1.9,1.8,4,2.1,6.2c0.3,2,0.8,3.9,1.6,5.7c0.7,1.6,2,2.9,3.6,3.6c1.5,0.5,3.1,0.6,4.6,0.5
				c1.3-0.1,2.6-0.2,3.9-0.1c1,0,2,0.2,2.9,0.6c0.6,0.2,1.1,0.6,1.6,1c0.1,0.1,0.2,0.2,0.3,0.4C471.4,413.2,471.4,413.3,471.4,413.3
				z"/>
			<path class="st3" d="M370.7,417.7c0.4-7.4-5.3-13.6-12.7-14c-1.8-0.1-3.7,0.2-5.4,0.9c3.2,7.1,9.9,12,17.6,13"/>
			<path class="st3" d="M367.2,419.5c-2.6,2.8-2.4,7.4-0.6,10.7s5,5.8,8.2,7.9c2.2-7.5-0.8-15.5-7.5-19.7"/>
			<path class="st3" d="M379.7,406.3c0.9,8.5,8.4,14.6,16.9,13.8l0.6-0.1c-1-4.1-2.7-8.3-5.9-11.1s-8.3-3.9-11.8-1.5"/>
			<path class="st3" d="M379.6,402c-0.6-3.8-4.4-6.5-8.2-6.9s-7.6,1.3-10.6,3.6c4.8,5.5,13.1,6.4,18.9,1.9"/>
			<path class="st3" d="M359.9,434.1c-3.6,3.1-4.5,8.6-3.1,13.1s5,8.1,9,10.8c1.5-4.5,2.5-9.3,1.7-14s-3.6-9.2-7.9-11.1"/>
			<path class="st3" d="M379,391.4c3.5-5.1,10.4-6.4,15.5-2.9c0.8,0.5,1.5,1.2,2.2,1.9c-2.1,4.9-7.8,7.1-12.7,4.9
				c-2-0.9-3.7-2.5-4.7-4.5"/>
			<path class="st3" d="M383.5,380.5c-7.6,2.3-15.7-2-18.1-9.6c0,0,0,0,0,0c-0.2-0.6-0.3-1.1-0.4-1.7c2.9-0.4,5.8-0.3,8.7,0.1
				c2.9,0.4,5.6,1.8,7.7,3.8C383.4,375.1,384.2,377.9,383.5,380.5"/>
			<path class="st3" d="M391.8,377.7c-5.1-4.1-5.8-11.6-1.7-16.6c0.5-0.6,1-1.1,1.6-1.6c2.6,3.2,4.4,7,5.2,11c0.4,1.5,0.4,3.1,0,4.6
				c-0.4,1.5-1.7,2.7-3.2,3"/>
			<g class="st17">
				<path class="st10" d="M370.7,417.7c0.4-7.4-5.3-13.6-12.7-14c-1.8-0.1-3.7,0.2-5.4,0.9c3.2,7.1,9.9,12,17.6,13"/>
			</g>
			<g class="st17">
				<path class="st10" d="M367.2,419.5c-2.6,2.8-2.4,7.4-0.6,10.7s5,5.8,8.2,7.9c2.2-7.5-0.8-15.5-7.5-19.7"/>
			</g>
			<g class="st17">
				<path class="st10" d="M379.7,406.3c0.9,8.5,8.4,14.6,16.9,13.8l0.6-0.1c-1-4.1-2.7-8.3-5.9-11.1s-8.3-3.9-11.8-1.5"/>
			</g>
			<g class="st17">
				<path class="st10" d="M379.6,402c-0.6-3.8-4.4-6.5-8.2-6.9s-7.6,1.3-10.6,3.6c4.8,5.5,13.1,6.4,18.9,1.9"/>
			</g>
			<g class="st17">
				<path class="st10" d="M359.9,434.1c-3.6,3.1-4.5,8.6-3.1,13.1s5,8.1,9,10.8c1.5-4.5,2.5-9.3,1.7-14s-3.6-9.2-7.9-11.1"/>
			</g>
			<g class="st17">
				<path class="st10" d="M379,391.4c3.5-5.1,10.4-6.4,15.5-2.9c0.8,0.5,1.5,1.2,2.2,1.9c-2.1,4.9-7.8,7.1-12.7,4.9
					c-2-0.9-3.7-2.5-4.7-4.5"/>
			</g>
			<g class="st17">
				<path class="st10" d="M383.5,380.5c-7.6,2.3-15.7-2-18.1-9.6c0,0,0,0,0,0c-0.2-0.6-0.3-1.1-0.4-1.7c2.9-0.4,5.8-0.3,8.7,0.1
					c2.9,0.4,5.6,1.8,7.7,3.8C383.4,375.1,384.2,377.9,383.5,380.5"/>
			</g>
			<g class="st17">
				<path class="st10" d="M391.8,377.7c-5.1-4.1-5.8-11.6-1.7-16.6c0.5-0.6,1-1.1,1.6-1.6c2.6,3.2,4.4,7,5.2,11
					c0.4,1.5,0.4,3.1,0,4.6c-0.4,1.5-1.7,2.7-3.2,3"/>
			</g>
			<path class="st3" d="M406.3,404.3c0-0.1,0-0.2,0-0.3c0-0.3,0-0.6,0-0.9c0-0.8,0.1-1.9,0.1-3.3c0.2-4.1-0.5-8.2-2-12
				c-1.1-2.6-2.7-4.9-4.8-6.8c-2.4-2.1-5.6-3.3-8.8-3.2c-1.7,0-3.4,0.5-4.9,1.2c-1.6,0.8-2.9,2.1-3.8,3.6c-1.9,3.1-2.4,7.2-2.2,11
				s0.7,7.8,0.2,11.6c-0.2,1.9-0.7,3.7-1.4,5.4c-0.7,1.7-1.8,3.1-3.2,4.2c-1.4,1-2.9,1.8-4.5,2.3c-1.5,0.5-2.9,1.1-4.3,1.9
				c-2.4,1.5-4.3,3.6-5.6,6.1c-1.1,2.1-1.6,4.4-1.6,6.7c0,1.7,0.3,3.5,0.9,5.1c0.5,1.4,1.2,2.8,2,4c-0.1-0.1-0.1-0.1-0.2-0.2
				c-0.1-0.2-0.3-0.4-0.5-0.7c-0.6-0.9-1.1-1.9-1.5-3c-0.6-1.7-1-3.4-1-5.2c0-2.4,0.5-4.7,1.6-6.9c1.3-2.6,3.3-4.8,5.7-6.3
				c2.6-1.7,6-2.2,8.7-4.2s4.1-5.6,4.5-9.3s-0.1-7.5-0.3-11.5s0.3-8,2.3-11.3c1-1.6,2.4-3,4.1-3.8c1.6-0.8,3.4-1.3,5.2-1.3
				c3.4-0.1,6.6,1.2,9.1,3.4c2.1,1.9,3.8,4.3,4.9,7c0.9,2.2,1.4,4.5,1.6,6.8c0.2,1.8,0.2,3.5,0.2,5.3c-0.1,1.5-0.2,2.6-0.3,3.3
				c0,0.3,0,0.6-0.1,0.9C406.4,404.1,406.3,404.2,406.3,404.3z"/>
			<g class="st17">
				<path class="st10" d="M406.3,404.3c0-0.1,0-0.2,0-0.3c0-0.3,0-0.6,0-0.9c0-0.8,0.1-1.9,0.1-3.3c0.2-4.1-0.5-8.2-2-12
					c-1.1-2.6-2.7-4.9-4.8-6.8c-2.4-2.1-5.6-3.3-8.8-3.2c-1.7,0-3.4,0.5-4.9,1.2c-1.6,0.8-2.9,2.1-3.8,3.6c-1.9,3.1-2.4,7.2-2.2,11
					s0.7,7.8,0.2,11.6c-0.2,1.9-0.7,3.7-1.4,5.4c-0.7,1.7-1.8,3.1-3.2,4.2c-1.4,1-2.9,1.8-4.5,2.3c-1.5,0.5-2.9,1.1-4.3,1.9
					c-2.4,1.5-4.3,3.6-5.6,6.1c-1.1,2.1-1.6,4.4-1.6,6.7c0,1.7,0.3,3.5,0.9,5.1c0.5,1.4,1.2,2.8,2,4c-0.1-0.1-0.1-0.1-0.2-0.2
					c-0.1-0.2-0.3-0.4-0.5-0.7c-0.6-0.9-1.1-1.9-1.5-3c-0.6-1.7-1-3.4-1-5.2c0-2.4,0.5-4.7,1.6-6.9c1.3-2.6,3.3-4.8,5.7-6.3
					c2.6-1.7,6-2.2,8.7-4.2s4.1-5.6,4.5-9.3s-0.1-7.5-0.3-11.5s0.3-8,2.3-11.3c1-1.6,2.4-3,4.1-3.8c1.6-0.8,3.4-1.3,5.2-1.3
					c3.4-0.1,6.6,1.2,9.1,3.4c2.1,1.9,3.8,4.3,4.9,7c0.9,2.2,1.4,4.5,1.6,6.8c0.2,1.8,0.2,3.5,0.2,5.3c-0.1,1.5-0.2,2.6-0.3,3.3
					c0,0.3,0,0.6-0.1,0.9C406.4,404.1,406.3,404.2,406.3,404.3z"/>
			</g>
			<path class="st3" d="M483.1,394.8c0.5-1.2,0.8-2.5,0.8-3.9c0-1.5-0.3-3.1-1-4.5c-1.5-2.9-4.4-4.8-7.7-5.1
				c-1.3-0.1-2.6,0.1-3.8,0.5c-2.6,0.7-5.1,2.1-8.2,2.8c-1.6,0.4-3.2,0.4-4.8,0c-1.6-0.5-3-1.6-3.9-3.1c-1.8-2.9-2.4-6.4-4.6-9.1
				c-1.1-1.3-2.6-2.2-4.2-2.7c-1.6-0.5-3.2-0.7-4.9-0.5c-3.1,0.3-6,1.8-8.1,4.1c-1.9,2.1-3.2,4.7-4,7.4c-0.7,2.4-1,4.9-0.9,7.4
				c0.2,3.6,0.7,7.2,1.3,10.8c0.2,1.2,0.4,2.2,0.5,2.9c0,0.3,0.1,0.5,0.1,0.8c0,0.1,0,0.2,0,0.3c0-0.1,0-0.2-0.1-0.2
				c-0.1-0.2-0.1-0.5-0.2-0.8c-0.1-0.7-0.4-1.7-0.6-2.9c-0.8-3.6-1.3-7.2-1.6-10.8c-0.1-2.5,0.1-5.1,0.9-7.5
				c0.8-2.8,2.2-5.4,4.1-7.7c1.1-1.2,2.3-2.2,3.7-3c3-1.6,6.6-1.9,9.8-0.9c1.7,0.5,3.2,1.5,4.4,2.9c2.4,2.8,2.9,6.4,4.6,9.1
				c0.8,1.4,2.1,2.4,3.6,2.9c1.5,0.4,3,0.5,4.5,0.1c2.9-0.6,5.5-2,8.2-2.7c1.3-0.4,2.6-0.5,4-0.4c5.2,0.4,9.1,4.8,8.9,10
				c0,1-0.2,2-0.6,2.9C483.5,394.2,483.3,394.5,483.1,394.8z"/>
			<path class="st3" d="M452.3,375.7c2.8,1.7,6.4,2,9.4,0.6c2.8-1.6,4.6-4.4,4.8-7.6c-4.9-2.7-11.1-0.9-13.7,4
				c-0.3,0.6-0.6,1.3-0.8,2"/>
			<path class="st3" d="M462.3,384.8c0,3.3,1.6,6.5,4.4,8.4c2.8,1.6,6.2,1.6,9,0.1c-0.3-5.6-5-9.9-10.6-9.6c-0.7,0-1.4,0.2-2.1,0.3"
				/>
			<path class="st3" d="M479.6,382.8c3,1.4,6.5,1.3,9.4-0.4c2.6-1.8,4-4.8,4-8c-2.9-1.1-6-0.9-8.7,0.5c-2.6,1.5-4.5,4.1-5.1,7.1"/>
			<path class="st3" d="M437.7,369.7c-2.5-2.2-4.2-6-3.7-8.9c0.7-3.1,2.9-5.7,5.8-6.8c4,3.9,4.1,10.3,0.2,14.3c0,0,0,0,0,0
				c-0.5,0.5-1.1,1-1.7,1.4"/>
			<path class="st3" d="M369.9,357.2c0-0.1,0-0.2,0.1-0.2c0.1-0.2,0.2-0.4,0.3-0.6c0.3-0.6,0.8-1.4,1.5-2.4c2-2.9,4.6-5.3,7.5-7.2
				c2.1-1.3,4.4-2.1,6.8-2.5c2.8-0.4,5.6-0.1,8.2,0.9c2.9,1,5.4,3.1,7,5.8c1.6,2.8,2.1,6.1,3.1,9.3c0.5,1.6,1.1,3.1,2,4.4
				c0.9,1.3,2.1,2.4,3.4,3.3c1.3,0.9,2.6,1.8,3.8,2.7c1.2,1,2.2,2.1,3.1,3.3c1.6,2.3,2.6,4.9,3.1,7.7c0.4,2.4,0.6,4.8,0.4,7.2
				c-0.3,3.5-0.9,6.9-1.9,10.2c-0.3,1.2-0.6,2.1-0.8,2.7c-0.1,0.3-0.2,0.6-0.3,0.9c0-0.3,0.1-0.7,0.2-1c0.1-0.7,0.4-1.6,0.6-2.8
				c0.9-3.4,1.4-6.8,1.7-10.2c0.2-2.4,0-4.8-0.5-7.1c-0.5-2.7-1.5-5.2-3.1-7.5c-0.8-1.2-1.9-2.3-3-3.2c-1.2-0.9-2.5-1.8-3.8-2.7
				c-1.4-0.9-2.5-2.1-3.5-3.4c-0.9-1.4-1.6-3-2-4.6c-1-3.2-1.5-6.5-3.1-9.2c-1.5-2.6-3.9-4.5-6.7-5.5c-2.6-1-5.3-1.3-8-0.9
				c-2.3,0.4-4.6,1.2-6.6,2.4c-2.9,1.8-5.5,4.2-7.5,7c-0.7,1-1.3,1.8-1.6,2.3C370.3,356.6,370.1,357,369.9,357.2z"/>
			<path class="st3" d="M411.4,368.9c-0.9-0.8-1.3-0.2-2.5,0c-1.2,0.3-2.3,0.8-3.2,1.6c-4.1,3.4-5.8,8.9-4.3,14
				c5.7,0.3,10.7-4,11-9.8c0,0,0,0,0,0c0.1-2-0.4-4.1-1.4-5.8"/>
			<path class="st3" d="M375.5,352.5c-0.4-1.1-1-0.8-2.2-1.1c-1.2-0.3-2.4-0.2-3.5,0.1c-5.2,1.3-9.1,5.5-9.9,10.8
				c5.1,2.7,11.4,0.8,14.1-4.2c1-1.8,1.4-3.8,1.2-5.8"/>
			<path class="st3" d="M419.3,391c-4.3-5-11.9-5.6-16.9-1.2c-0.7,0.6-1.4,1.4-2,2.2c2.7,2.4,6.2,3.8,9.8,3.9c3.7-0.1,7.2-1.5,9.9-4
				"/>
			<path class="st3" d="M416.3,374.5c6.7,0.2,12.3-5.1,12.5-11.9c0,0,0,0,0,0c0-0.9-0.1-1.8-0.2-2.6c-5.9-1.3-11.7,2.4-13.1,8.3
				c-0.5,2-0.3,4.2,0.4,6.1"/>
			<path class="st3" d="M403.7,355.1c6.3,2.4,13.3-0.7,15.7-7c0,0,0,0,0,0c0.3-0.8,0.6-1.7,0.7-2.6c-5.1-3.2-11.8-1.7-15.1,3.3
				c0,0,0,0,0,0c-1.1,1.8-1.7,3.9-1.7,6"/>
			<path class="st3" d="M399.5,348.8c-6.3-2.4-13.3,0.7-15.7,7c0,0,0,0,0,0c-0.3,0.9-0.6,1.7-0.7,2.6c5.1,3.2,11.8,1.7,15.1-3.4
				c1.2-1.8,1.7-3.9,1.7-6.1"/>
			<path class="st3" d="M394.4,345.3c6.4-2.1,9.8-9,7.7-15.4c0,0,0,0,0,0c-0.3-0.9-0.7-1.7-1.2-2.5c-6,0.8-10.2,6.3-9.4,12.3
				c0.3,2.1,1.1,4.1,2.5,5.7"/>
			<path class="st3" d="M381.5,346c2.3-6.3-1-13.3-7.3-15.6c0,0,0,0,0,0c-0.9-0.3-1.8-0.5-2.7-0.6c-3.1,5.2-1.5,11.9,3.7,15
				c1.8,1.1,3.9,1.7,6,1.6"/>
			<polygon class="st10" points="399.1,441.1 403.2,446.1 452.8,446.1 456.2,441.1 			"/>
			<path class="st8" d="M455.1,441c0,0.2-12.2,0.3-27.3,0.3s-27.2-0.1-27.2-0.3s12.2-0.3,27.2-0.3S455.1,440.9,455.1,441z"/>
			<path class="st8" d="M449.6,422.2c-0.1,0.1-0.2,0.3-0.3,0.4c-0.3,0.4-0.6,0.7-1,1c-1.3,1.2-2.8,2.3-4.4,3.1
				c-2.4,1.2-5.1,1.9-7.8,2c-1.6,0.1-3.2-0.1-4.7-0.4c-1.7-0.4-3.3-0.9-4.8-1.6c-3.2-1.4-6.1-2.9-9-3.8c-2.5-0.9-5.1-1.2-7.7-0.8
				c-1.7,0.3-3.4,1.1-4.7,2.2c-0.9,0.8-1.3,1.4-1.4,1.4s0.1-0.2,0.2-0.4c0.3-0.4,0.6-0.8,1-1.1c1.3-1.2,3-2.1,4.8-2.4
				c2.7-0.5,5.4-0.3,8,0.6c2.9,0.9,5.8,2.5,9,3.8c1.5,0.7,3.1,1.2,4.7,1.6c4.1,0.9,8.4,0.4,12.2-1.4
				C445.8,425.2,447.8,423.9,449.6,422.2z"/>
			<path class="st8" d="M450,418.3c-0.1,0.1-0.2,0.3-0.3,0.4c-0.3,0.4-0.7,0.7-1.1,1c-1.4,1.2-3,2.1-4.6,2.9
				c-3.9,1.8-8.3,2.3-12.6,1.5c-1.7-0.3-3.3-0.8-4.9-1.4c-3.3-1.2-6.3-2.5-9.1-3.4c-2.5-0.8-5.2-1-7.8-0.7c-1.8,0.2-3.4,0.9-4.9,1.9
				c-1,0.7-1.5,1.3-1.5,1.2c0.1-0.1,0.2-0.3,0.3-0.4c0.3-0.4,0.7-0.7,1.1-1c1.5-1.1,3.2-1.8,5-2.1c2.7-0.4,5.4-0.2,8,0.6
				c2.9,0.8,6,2.1,9.2,3.3c1.6,0.6,3.2,1,4.8,1.4c1.5,0.3,3.1,0.4,4.6,0.3c2.6-0.1,5.2-0.7,7.7-1.7
				C446.1,421.2,448.2,419.9,450,418.3z"/>
		</g>
		<g id="freepik--Desk--inject-103">
			<path class="st10" d="M475.1,446.2c0,0.1-100.8,0.3-225,0.3s-225-0.1-225-0.3s100.7-0.3,225-0.3S475.1,446.1,475.1,446.2z"/>
		</g>
	</g>
	<g>
		<path class="st10" d="M217,186c0.5,0,1-0.2,1.4-0.5c0.4-0.3,0.6-0.8,0.6-1.3h2.9c0,0.8-0.2,1.5-0.6,2.2c-0.4,0.7-1,1.2-1.8,1.5
			c-0.8,0.4-1.6,0.6-2.5,0.6c-1.5,0.1-3-0.5-4-1.6c-1-1.2-1.5-2.8-1.4-4.4v-0.2c-0.1-1.6,0.5-3.1,1.5-4.3c1-1.1,2.5-1.7,4-1.6
			c1.3-0.1,2.6,0.4,3.5,1.2c0.9,0.9,1.4,2.1,1.4,3.3h-3c0-0.6-0.2-1.1-0.6-1.5c-0.4-0.4-0.9-0.6-1.4-0.6c-0.6,0-1.3,0.3-1.6,0.8
			c-0.4,0.8-0.6,1.7-0.6,2.6v0.3c-0.1,0.9,0.1,1.8,0.6,2.6C215.7,185.8,216.4,186,217,186z"/>
		<path class="st10" d="M223.7,173.5c0-0.4,0.2-0.9,0.5-1.2c0.7-0.6,1.8-0.6,2.6,0c0.6,0.6,0.6,1.7,0,2.3c-0.7,0.6-1.8,0.6-2.6,0
			C223.9,174.4,223.7,174,223.7,173.5z M227,188.3h-3.1v-11.7h3.1V188.3z"/>
		<path class="st10" d="M234.5,186c0.5,0,1-0.1,1.4-0.5c0.4-0.3,0.6-0.8,0.6-1.3h2.9c0,0.8-0.2,1.5-0.6,2.2c-0.4,0.7-1,1.2-1.8,1.6
			c-0.8,0.4-1.6,0.6-2.5,0.6c-1.5,0.1-3-0.5-4-1.6c-1-1.2-1.5-2.8-1.4-4.4v-0.2c-0.1-1.6,0.4-3.1,1.4-4.3c1-1.1,2.5-1.7,4-1.6
			c1.3-0.1,2.6,0.4,3.5,1.2c0.9,0.9,1.4,2.1,1.4,3.3h-2.9c0-0.6-0.2-1.1-0.6-1.5c-0.4-0.4-0.9-0.6-1.4-0.6c-0.7,0-1.3,0.3-1.7,0.8
			c-0.4,0.8-0.6,1.7-0.6,2.6v0.3c-0.1,0.9,0.1,1.8,0.6,2.6C233.2,185.8,233.8,186,234.5,186z"/>
		<path class="st10" d="M244.5,188.3h-3.1v-16.7h3.1V188.3z"/>
		<path class="st10" d="M246.6,182.3c0-1.1,0.2-2.1,0.7-3.1c0.4-0.9,1.1-1.6,1.9-2.1c0.9-0.5,1.9-0.8,2.9-0.8
			c1.4-0.1,2.8,0.5,3.9,1.4c1,1.1,1.6,2.5,1.7,3.9v0.8c0.1,1.6-0.5,3.1-1.5,4.3c-2.3,2.2-5.8,2.2-8.1,0c-1.1-1.2-1.6-2.8-1.5-4.4
			L246.6,182.3z M249.7,182.6c-0.1,0.9,0.2,1.8,0.6,2.6c0.8,1,2.2,1.2,3.2,0.4c0.1-0.1,0.3-0.2,0.4-0.4c0.5-0.8,0.7-1.8,0.6-2.8
			c0.1-0.9-0.2-1.8-0.6-2.5c-0.4-0.6-1.1-0.9-1.8-0.9c-0.7,0-1.4,0.3-1.8,0.9C249.9,180.6,249.7,181.6,249.7,182.6z"/>
		<path class="st10" d="M197.6,212.6c0.5,0,1-0.1,1.4-0.5c0.4-0.3,0.6-0.8,0.6-1.3h2.9c0,0.8-0.2,1.5-0.6,2.2
			c-0.4,0.7-1,1.2-1.8,1.5c-0.8,0.4-1.6,0.6-2.5,0.5c-1.5,0.1-3-0.5-4-1.6c-1-1.2-1.5-2.8-1.4-4.4V209c-0.1-1.6,0.4-3.1,1.4-4.3
			c1-1.1,2.5-1.7,4-1.6c1.3-0.1,2.6,0.4,3.5,1.2c0.9,0.9,1.4,2.1,1.4,3.3h-2.9c0-0.5-0.2-1.1-0.6-1.5c-0.4-0.4-0.9-0.6-1.4-0.6
			c-0.7,0-1.3,0.3-1.7,0.8c-0.4,0.8-0.6,1.7-0.6,2.6v0.3c-0.1,0.9,0.1,1.8,0.6,2.6C196.3,212.4,196.9,212.7,197.6,212.6z"/>
		<path class="st10" d="M203.8,209c0-1.1,0.2-2.1,0.7-3.1c0.4-0.9,1.1-1.6,1.9-2.1c0.9-0.5,1.9-0.8,2.9-0.7c1.4-0.1,2.8,0.5,3.9,1.4
			c1,1.1,1.6,2.5,1.7,3.9v0.8c0.1,1.6-0.5,3.1-1.5,4.3c-2.3,2.2-5.8,2.2-8.1,0c-1.1-1.2-1.6-2.8-1.5-4.4L203.8,209z M206.9,209.2
			c-0.1,0.9,0.2,1.8,0.6,2.6c0.8,1,2.2,1.2,3.2,0.4c0.2-0.1,0.3-0.3,0.4-0.4c0.5-0.8,0.7-1.8,0.6-2.8c0-0.9-0.2-1.8-0.6-2.6
			c-0.4-0.6-1.1-0.9-1.8-0.9c-0.7,0-1.4,0.3-1.8,0.9C207.1,207.3,206.9,208.2,206.9,209.2L206.9,209.2z"/>
		<path class="st10" d="M219.7,203.2l0.1,1.4c0.8-1,2.1-1.6,3.4-1.6c1.1-0.1,2.1,0.3,2.8,1.1c0.7,1,1,2.1,0.9,3.3v7.6h-3.1v-7.5
			c0.1-0.5-0.1-1-0.4-1.4c-0.4-0.3-0.9-0.5-1.4-0.4c-0.8,0-1.6,0.4-2,1.1v8.3h-3.1v-11.8H219.7z"/>
		<path class="st10" d="M233,200.3v2.9h2v2.3h-2v5.9c0,0.3,0.1,0.7,0.2,0.9c0.3,0.2,0.6,0.3,1,0.3c0.3,0,0.6,0,0.9-0.1v2.4
			c-0.6,0.2-1.3,0.3-1.9,0.3c-2.2,0-3.3-1.1-3.4-3.3v-6.3h-1.7v-2.3h1.7v-2.9L233,200.3z"/>
		<path class="st10" d="M243.6,215c-0.2-0.3-0.3-0.7-0.3-1.1c-0.8,0.9-1.9,1.3-3,1.3c-1,0-2.1-0.3-2.9-1c-0.7-0.6-1.2-1.6-1.1-2.5
			c-0.1-1.1,0.5-2.2,1.4-2.9c1.2-0.7,2.6-1.1,4-1h1.4v-0.7c0-0.5-0.1-0.9-0.4-1.3c-0.3-0.3-0.8-0.5-1.3-0.5c-0.4,0-0.9,0.1-1.2,0.4
			c-0.3,0.2-0.5,0.6-0.4,1h-3.1c0-0.7,0.2-1.3,0.6-1.9c0.5-0.6,1.1-1.1,1.8-1.4c0.8-0.3,1.7-0.5,2.6-0.5c1.2-0.1,2.4,0.3,3.4,1.1
			c0.9,0.8,1.3,1.9,1.3,3.1v5.1c0,0.9,0.1,1.7,0.5,2.5v0.2H243.6z M241,212.8c0.4,0,0.9-0.1,1.3-0.3c0.4-0.2,0.7-0.5,0.9-0.8v-2H242
			c-1.6,0-2.4,0.5-2.5,1.6v0.2c0,0.4,0.1,0.7,0.4,1C240.2,212.7,240.6,212.8,241,212.8z"/>
		<path class="st10" d="M259.3,209.2c0.1,1.6-0.3,3.1-1.2,4.4c-0.8,1-2.1,1.6-3.4,1.6c-1.2,0-2.3-0.5-3.1-1.5l-0.1,1.2h-2.8v-16.7
			h3.1v6c0.7-0.8,1.8-1.3,2.9-1.3c1.3-0.1,2.6,0.5,3.4,1.6c0.9,1.3,1.3,2.9,1.2,4.4L259.3,209.2z M256.1,209
			c0.1-0.9-0.1-1.8-0.6-2.6c-0.4-0.5-1-0.9-1.7-0.8c-0.9-0.1-1.7,0.4-2.1,1.2v4.6c0.4,0.8,1.2,1.3,2.1,1.2c0.9,0.1,1.8-0.6,2-1.5
			C256.1,210.4,256.2,209.7,256.1,209L256.1,209z"/>
		<path class="st10" d="M264.5,215h-3.1v-16.7h3.1V215z"/>
		<path class="st10" d="M272.5,215.2c-1.6,0.1-3.1-0.5-4.2-1.6c-1.1-1.1-1.7-2.6-1.6-4.2v-0.3c0-1.1,0.2-2.2,0.7-3.2
			c0.4-0.9,1.1-1.6,1.9-2.1c0.9-0.5,1.9-0.8,2.9-0.8c1.4-0.1,2.8,0.5,3.8,1.5c1,1.2,1.5,2.8,1.4,4.3v1.3h-7.5
			c0.1,0.7,0.4,1.4,0.9,1.8c0.5,0.5,1.2,0.7,1.9,0.7c1.1,0,2.2-0.4,2.8-1.3l1.5,1.7c-0.5,0.7-1.1,1.2-1.9,1.6
			C274.3,215,273.4,215.2,272.5,215.2z M272.1,205.5c-0.6,0-1.1,0.2-1.5,0.6c-0.4,0.5-0.7,1.1-0.7,1.8h4.4v-0.2
			c0-0.6-0.2-1.2-0.6-1.6C273.3,205.7,272.7,205.5,272.1,205.5L272.1,205.5z"/>
	</g>
</g>
</svg>
