<svg id="Grupo_57860" data-name="Grupo 57860" xmlns="http://www.w3.org/2000/svg" width="120" height="120" viewBox="0 0 120 120">
  <g id="Grupo_57857" data-name="Grupo 57857">
    <rect id="Rectángulo_8374" data-name="Rectángulo 8374" width="120" height="120" fill="#d9a171" opacity="0"/>
  </g>
  <g id="Grupo_57858" data-name="Grupo 57858" transform="translate(10.542 9.318)">
    <path id="Trazado_107088" data-name="Trazado 107088" d="M321.62,1935.793c0-26.825,22.092-48.577,49.364-48.626,27.124-.049,49.356,21.605,49.549,48.273a48.093,48.093,0,0,1-15.17,35.4,330.624,330.624,0,0,0-67.153-.147,3.03,3.03,0,0,1-2.452-.859A48.053,48.053,0,0,1,321.62,1935.793Z" transform="translate(-321.62 -1884.716)" fill="#6595bf"/>
    <path id="Trazado_107089" data-name="Trazado 107089" d="M413.287,1891.5v78.389a45.972,45.972,0,0,1-67.73,0V1891.5a7.923,7.923,0,0,1,7.74-8.093h52.249A7.923,7.923,0,0,1,413.287,1891.5Z" transform="translate(-329.965 -1883.405)" fill="#e8c7aa"/>
    <path id="Trazado_107090" data-name="Trazado 107090" d="M351.877,1973.914a53.684,53.684,0,0,1-6.32-4.966V1891.41c0-4.421,3.99-8,8.91-8h6.32c-4.921,0-8.91,3.584-8.91,8Z" transform="translate(-329.965 -1883.405)" fill="#e1b48d"/>
    <path id="Trazado_107091" data-name="Trazado 107091" d="M416.965,1963.169v2.227a1.114,1.114,0,0,1-1.113,1.114H366.846a1.114,1.114,0,0,1-1.113-1.114v-2.227a1.114,1.114,0,0,1,1.113-1.114h49.006A1.114,1.114,0,0,1,416.965,1963.169Zm-7.8,7.8H366.846a1.114,1.114,0,0,0-1.113,1.114v2.227a1.114,1.114,0,0,0,1.113,1.114h42.322a1.114,1.114,0,0,0,1.114-1.114v-2.227A1.114,1.114,0,0,0,409.169,1970.965Zm-15.592,8.909H366.846a1.114,1.114,0,0,0-1.113,1.115v2.227a1.114,1.114,0,0,0,1.113,1.114h26.731a1.114,1.114,0,0,0,1.114-1.114v-2.227A1.114,1.114,0,0,0,393.577,1979.875ZM367.96,2002.15a2.227,2.227,0,1,0,2.227,2.227A2.227,2.227,0,0,0,367.96,2002.15Zm6.683,0a2.227,2.227,0,1,0,2.228,2.227A2.227,2.227,0,0,0,374.643,2002.15Zm6.683,0a2.227,2.227,0,1,0,2.228,2.227A2.228,2.228,0,0,0,381.325,2002.15Z" transform="translate(-342.075 -1921.056)" fill="#d9a171"/>
    <path id="Trazado_107092" data-name="Trazado 107092" d="M398.362,1893.677v7.548a2.227,2.227,0,0,1-2.227,2.227h-62.37a2.227,2.227,0,0,1-2.227-2.227v-7.548a10.273,10.273,0,0,1,10.273-10.272h66.825A10.273,10.273,0,0,0,398.362,1893.677Z" transform="translate(-325.077 -1883.405)" fill="#f0d9c6"/>
    <path id="Trazado_107093" data-name="Trazado 107093" d="M403.13,1893.677v7.548a2.227,2.227,0,0,1-2.227,2.227H345.216v-9.775a10.272,10.272,0,0,1,10.272-10.272H413.4A10.273,10.273,0,0,0,403.13,1893.677Z" transform="translate(-329.846 -1883.405)" fill="#f7ece3"/>
    <path id="Trazado_107094" data-name="Trazado 107094" d="M462.015,2007.379a22.869,22.869,0,1,1-22.869-22.869A22.869,22.869,0,0,1,462.015,2007.379Z" transform="translate(-364.851 -1928.884)" fill="#344154"/>
    <path id="Trazado_107095" data-name="Trazado 107095" d="M458.521,2021.4a22.87,22.87,0,1,1-31.528-31.528,22.872,22.872,0,0,0,31.528,31.528Z" transform="translate(-364.851 -1930.754)" fill="#27313f"/>
    <path id="Trazado_107096" data-name="Trazado 107096" d="M466.25,2001.112l-23.85,23.85a3.343,3.343,0,0,1-4.726,0l-10.485-10.485a3.341,3.341,0,0,1,0-4.725l1.575-1.575a3.341,3.341,0,0,1,4.725,0l5.76,5.76a1.114,1.114,0,0,0,1.575,0l19.124-19.126a3.341,3.341,0,0,1,4.725,0l1.575,1.575A3.341,3.341,0,0,1,466.25,2001.112Z" transform="translate(-368.314 -1932.134)" fill="#fff"/>
    <path id="Trazado_107097" data-name="Trazado 107097" d="M467.808,1996.386a3.341,3.341,0,0,1,0,4.725L445.3,2023.62a22.915,22.915,0,0,1-14.619-15.749,3.339,3.339,0,0,1,4.367.305l5.76,5.76a1.113,1.113,0,0,0,1.575,0l19.124-19.124a3.341,3.341,0,0,1,4.725,0Z" transform="translate(-369.872 -1932.134)" fill="#fff"/>
  </g>
  <g id="Grupo_57859" data-name="Grupo 57859" transform="translate(35.155 33.554)">
    <path id="Trazado_107098" data-name="Trazado 107098" d="M368.96,1933.97h1.724a3.787,3.787,0,0,0,2.555-.856,2.859,2.859,0,0,0,.931-2.245q0-3.175-3.163-3.176a3.289,3.289,0,0,0-2.376.85,2.974,2.974,0,0,0-.887,2.251h-2.295a4.608,4.608,0,0,1,1.569-3.566,5.719,5.719,0,0,1,3.988-1.42,5.65,5.65,0,0,1,4.006,1.352,4.885,4.885,0,0,1,1.451,3.759,3.96,3.96,0,0,1-.763,2.282,4.6,4.6,0,0,1-2.077,1.65,4.444,4.444,0,0,1,2.3,1.563,4.342,4.342,0,0,1,.812,2.667,4.925,4.925,0,0,1-1.587,3.857,5.945,5.945,0,0,1-4.13,1.427,6.1,6.1,0,0,1-4.137-1.377,4.565,4.565,0,0,1-1.594-3.634H367.6a2.952,2.952,0,0,0,.93,2.282,3.539,3.539,0,0,0,2.494.856,3.47,3.47,0,0,0,2.542-.868,3.345,3.345,0,0,0,.881-2.493,3.037,3.037,0,0,0-.967-2.419,4.214,4.214,0,0,0-2.791-.868H368.96Z" transform="translate(-365.288 -1925.808)" fill="#344154"/>
    <path id="Trazado_107099" data-name="Trazado 107099" d="M396.78,1926.17v1.947h-.422a6.043,6.043,0,0,0-4.267,1.588,6.607,6.607,0,0,0-1.836,4.329,4.9,4.9,0,0,1,3.895-1.638,4.684,4.684,0,0,1,3.765,1.662,7.286,7.286,0,0,1-.111,8.757,5.234,5.234,0,0,1-4.075,1.675,5.155,5.155,0,0,1-4.205-1.991,7.893,7.893,0,0,1-1.612-5.13v-.881q0-4.986,2.127-7.622a7.812,7.812,0,0,1,6.332-2.7Zm-3.015,8.137a3.856,3.856,0,0,0-3.547,2.481v.844a5.927,5.927,0,0,0,1,3.6,3.012,3.012,0,0,0,2.506,1.365,2.918,2.918,0,0,0,2.438-1.141,5.483,5.483,0,0,0-.012-6A2.882,2.882,0,0,0,393.766,1934.307Z" transform="translate(-373.174 -1925.934)" fill="#344154"/>
  </g>
</svg>
