<svg xmlns="http://www.w3.org/2000/svg" width="254.684" height="257.729" viewBox="0 0 254.684 257.729">
  <g id="Capa_2" data-name="Capa 2" transform="translate(-51.35 -28.31)">
    <g id="freepik--Character--inject-42" transform="translate(51.35 28.31)">
      <path id="Trazado_107112" data-name="Trazado 107112" d="M341.857,193.479l-24.635,23.978-22.7,43.323-25.542,49.014L237.586,295.07,203.68,277.707l21.7-41.434,13.48-46.381c-9.527,6.319-27.239,14.922-48.369,10.434-22.926-4.86-11.922-91.261-11.922-91.261l25.2-.645,2.529,60.936,28.454-12.579.046.1c1.715-.738,3.214-1.471,4.011-1.878,15.747-8.591,26.082-9.632,42.98-3.6h0l24.391,8.068c6.266,2.947,29.361,14.317,35.685,34.005" transform="translate(-103.513 -61.853)" fill="#6595bf"/>
      <path id="Trazado_107113" data-name="Trazado 107113" d="M300.539,179.2a17.687,17.687,0,0,0-5.057,4.5,24.992,24.992,0,0,0-3.488,6.47,87.112,87.112,0,0,0-2.587,8.679l-4.331,15.921c-.581,1.994-1.023,3.633-1.36,4.807-.157.541-.291.971-.384,1.3a2.112,2.112,0,0,1-.163.453,2.111,2.111,0,0,1,.087-.465c.081-.349.186-.779.32-1.325.3-1.163.732-2.837,1.238-4.842,1.087-4.127,2.575-9.742,4.226-15.956a83.783,83.783,0,0,1,2.633-8.719,24.577,24.577,0,0,1,3.592-6.51,15.874,15.874,0,0,1,3.68-3.43,10.46,10.46,0,0,1,1.163-.692,2.663,2.663,0,0,1,.43-.192Z" transform="translate(-148.417 -91.49)" fill="#344154"/>
      <g id="Grupo_57865" data-name="Grupo 57865" transform="translate(105.27 99.923)" opacity="0.3">
        <path id="Trazado_107114" data-name="Trazado 107114" d="M270.106,200.21c-7.045,19.078-19.717,29.738-37.656,39.295a66.092,66.092,0,0,0,29.587-10.841" transform="translate(-232.45 -200.21)" fill="#344154"/>
      </g>
      <g id="Grupo_57866" data-name="Grupo 57866" transform="translate(165.375 86.35)" opacity="0.3">
        <path id="Trazado_107115" data-name="Trazado 107115" d="M335.85,176.86q4.47,71.69,8.952,143.373l-8.836,18.217Z" transform="translate(-335.85 -176.86)" fill="#344154"/>
      </g>
      <path id="Trazado_107116" data-name="Trazado 107116" d="M380.292,255.063c-.1.041-1-2.209-2.261-4.924s-2.377-4.877-2.284-4.929a6.28,6.28,0,0,1,.878,1.331c.494.854,1.128,2.064,1.744,3.435s1.163,2.627,1.471,3.552a5.877,5.877,0,0,1,.453,1.535Z" transform="translate(-187.178 -119.13)" fill="#fafafa"/>
      <path id="Trazado_107117" data-name="Trazado 107117" d="M411.027,244.82a40.649,40.649,0,0,1-4.784,3.209,43.5,43.5,0,0,1-4.993,2.906,45.612,45.612,0,0,1,4.79-3.215A43.392,43.392,0,0,1,411.027,244.82Z" transform="translate(-197.859 -118.966)" fill="#fafafa"/>
      <path id="Trazado_107118" data-name="Trazado 107118" d="M402.745,226.677a20.926,20.926,0,0,1-.4-3.906,21.253,21.253,0,0,1,0-3.941,19.323,19.323,0,0,1,.4,3.918,20.169,20.169,0,0,1,0,3.929Z" transform="translate(-198.279 -108.084)" fill="#fafafa"/>
      <path id="Trazado_107119" data-name="Trazado 107119" d="M432.472,226.806a45.192,45.192,0,0,1-7.022-4.336,21.912,21.912,0,0,1,3.616,2,21.686,21.686,0,0,1,3.406,2.337Z" transform="translate(-207.992 -109.608)" fill="#fafafa"/>
      <path id="Trazado_107120" data-name="Trazado 107120" d="M384.89,291.013a38.946,38.946,0,0,1,1.982-5.092,40.818,40.818,0,0,1,2.325-4.941,37.874,37.874,0,0,1-1.988,5.092A39.149,39.149,0,0,1,384.89,291.013Z" transform="translate(-191.009 -134.107)" fill="#fafafa"/>
      <path id="Trazado_107121" data-name="Trazado 107121" d="M367.193,309.08a17.368,17.368,0,0,1-1.8-3.168,17.875,17.875,0,0,1-1.476-3.342,17.979,17.979,0,0,1,1.79,3.156,17.441,17.441,0,0,1,1.482,3.354Z" transform="translate(-182.228 -143.147)" fill="#fafafa"/>
      <path id="Trazado_107122" data-name="Trazado 107122" d="M376.845,334.665a12.556,12.556,0,0,1-3.784.965,12.207,12.207,0,0,1-3.9.116c0-.11,1.744-.192,3.848-.494S376.815,334.549,376.845,334.665Z" transform="translate(-184.423 -156.578)" fill="#fafafa"/>
      <path id="Trazado_107123" data-name="Trazado 107123" d="M398.83,306.785a38.088,38.088,0,0,1,2.965-6.975,19.063,19.063,0,0,1-1.3,3.575A17.909,17.909,0,0,1,398.83,306.785Z" transform="translate(-196.846 -141.992)" fill="#fafafa"/>
      <path id="Trazado_107124" data-name="Trazado 107124" d="M354.932,355.617c-.093.058-1.163-1.436-2.662-3.151s-2.813-3.005-2.732-3.087a20.141,20.141,0,0,1,5.394,6.237Z" transform="translate(-176.205 -162.748)" fill="#fafafa"/>
      <path id="Trazado_107125" data-name="Trazado 107125" d="M348.549,308.157a21.505,21.505,0,0,1-1.918,3.68,22.4,22.4,0,0,1-2.261,3.488,47.536,47.536,0,0,1,4.179-7.185Z" transform="translate(-174.043 -145.48)" fill="#fafafa"/>
      <path id="Trazado_107126" data-name="Trazado 107126" d="M350.872,288.834a24.211,24.211,0,0,1-4.115-.866,23.087,23.087,0,0,1-4.017-1.238,45.932,45.932,0,0,1,8.132,2.1Z" transform="translate(-173.36 -136.515)" fill="#fafafa"/>
      <path id="Trazado_107127" data-name="Trazado 107127" d="M356.43,253.62a25.932,25.932,0,0,1,2.209,3.005,25,25,0,0,1,2.046,3.092,14.585,14.585,0,0,1-2.36-2.877,13.916,13.916,0,0,1-1.895-3.22Z" transform="translate(-179.092 -122.651)" fill="#fafafa"/>
      <path id="Trazado_107128" data-name="Trazado 107128" d="M340.862,251.79a32.836,32.836,0,0,1-5.342,4.65,16.552,16.552,0,0,1,2.546-2.476A16.859,16.859,0,0,1,340.862,251.79Z" transform="translate(-170.337 -121.885)" fill="#fafafa"/>
      <path id="Trazado_107129" data-name="Trazado 107129" d="M349.608,227.41a23.914,23.914,0,0,1-6.1-7.161c.1-.058,1.3,1.662,2.988,3.639S349.672,227.329,349.608,227.41Z" transform="translate(-173.682 -108.678)" fill="#fafafa"/>
      <path id="Trazado_107130" data-name="Trazado 107130" d="M380.34,226.66a48.981,48.981,0,0,1-8.37,2.563,26.044,26.044,0,0,1,4.127-1.476A24.7,24.7,0,0,1,380.34,226.66Z" transform="translate(-185.599 -111.363)" fill="#fafafa"/>
      <path id="Trazado_107131" data-name="Trazado 107131" d="M340.086,190.467c-.11,0-.058-1.686-.326-3.738s-.732-3.68-.581-3.68a13.573,13.573,0,0,1,.93,7.435Z" transform="translate(-171.857 -93.102)" fill="#fafafa"/>
      <path id="Trazado_107132" data-name="Trazado 107132" d="M303.6,287.64a13.259,13.259,0,0,1-1.744,1.279c-1.093.738-2.581,1.837-4.168,3.087s-2.988,2.436-3.993,3.307a14.532,14.532,0,0,1-1.657,1.384,10.025,10.025,0,0,1,1.476-1.581,50,50,0,0,1,3.935-3.412,51.341,51.341,0,0,1,4.249-3.011,11.719,11.719,0,0,1,1.9-1.052Z" transform="translate(-152.131 -136.896)" fill="#fafafa"/>
      <path id="Trazado_107133" data-name="Trazado 107133" d="M305.8,271.61c-.093.052-1.331-1.866-3.046-4.116s-3.232-3.953-3.151-4.034a5.169,5.169,0,0,1,1.11,1.023,35,35,0,0,1,4.395,5.784,5.163,5.163,0,0,1,.692,1.343Z" transform="translate(-155.298 -126.771)" fill="#fafafa"/>
      <path id="Trazado_107134" data-name="Trazado 107134" d="M312.8,237.45a44.486,44.486,0,0,1-7.214,3.982,22.447,22.447,0,0,1,3.517-2.157,21.844,21.844,0,0,1,3.7-1.825Z" transform="translate(-157.805 -115.881)" fill="#fafafa"/>
      <path id="Trazado_107135" data-name="Trazado 107135" d="M305.38,213.949a5.631,5.631,0,0,1-1.256-.994,25.917,25.917,0,0,1-2.662-2.813,27.324,27.324,0,0,1-2.244-3.162,6.064,6.064,0,0,1-.738-1.43c.1-.058,1.366,2.034,3.273,4.354S305.479,213.844,305.38,213.949Z" transform="translate(-154.828 -102.523)" fill="#fafafa"/>
      <path id="Trazado_107136" data-name="Trazado 107136" d="M323.5,215.082a32.35,32.35,0,0,1,3.052-6.272,15.815,15.815,0,0,1-1.354,3.22,15.369,15.369,0,0,1-1.7,3.052Z" transform="translate(-165.304 -103.888)" fill="#fafafa"/>
      <path id="Trazado_107137" data-name="Trazado 107137" d="M318.866,192.412c-.116,0,0-2.29-.43-5.051s-1.244-4.9-1.133-4.941a4.779,4.779,0,0,1,.628,1.366,19.366,19.366,0,0,1,.889,3.488,20.262,20.262,0,0,1,.233,3.61A4.85,4.85,0,0,1,318.866,192.412Z" transform="translate(-162.705 -92.838)" fill="#fafafa"/>
      <path id="Trazado_107138" data-name="Trazado 107138" d="M322.9,289.953a16.69,16.69,0,0,1,0-2.157c.052-1.325.087-3.156.035-5.15s-.18-3.854-.291-5.156a13.959,13.959,0,0,1-.134-2.151,11.4,11.4,0,0,1,.407,2.122,48.622,48.622,0,0,1,.4,5.2,47.177,47.177,0,0,1-.145,5.232A10.112,10.112,0,0,1,322.9,289.953Z" transform="translate(-164.888 -131.746)" fill="#fafafa"/>
      <path id="Trazado_107139" data-name="Trazado 107139" d="M316.26,328.768A32.071,32.071,0,0,0,313,326.14a32.566,32.566,0,0,0-3.749-1.86,10.719,10.719,0,0,1,7.022,4.487Z" transform="translate(-159.337 -152.238)" fill="#fafafa"/>
      <path id="Trazado_107140" data-name="Trazado 107140" d="M329.7,351.51a43.1,43.1,0,0,1-5.057,2.837,42.629,42.629,0,0,1-5.232,2.488A45.342,45.342,0,0,1,324.467,354a43.536,43.536,0,0,1,5.231-2.494Z" transform="translate(-163.591 -163.639)" fill="#fafafa"/>
      <path id="Trazado_107141" data-name="Trazado 107141" d="M287.414,353.172a45.658,45.658,0,0,1-3.726-4.732,47.661,47.661,0,0,1-3.418-4.97A46.586,46.586,0,0,1,284,348.213a49.056,49.056,0,0,1,3.418,4.958Z" transform="translate(-147.203 -160.273)" fill="#fafafa"/>
      <path id="Trazado_107142" data-name="Trazado 107142" d="M278.7,316.691a5.5,5.5,0,0,1-.169-1.506c-.035-.936-.052-2.209,0-3.685s.2-2.715.326-3.68a5.562,5.562,0,0,1,.3-1.471c.11,0-.11,2.325-.244,5.15S278.792,316.691,278.7,316.691Z" transform="translate(-146.463 -144.73)" fill="#fafafa"/>
      <path id="Trazado_107143" data-name="Trazado 107143" d="M257.9,380.626a79.333,79.333,0,0,1-8.365-6.946A38.874,38.874,0,0,1,253.876,377a38.076,38.076,0,0,1,4.028,3.621Z" transform="translate(-134.336 -172.922)" fill="#fafafa"/>
      <path id="Trazado_107144" data-name="Trazado 107144" d="M272.563,375.42a43.516,43.516,0,0,1-.331-5.772,44.573,44.573,0,0,1,.058-5.778,43.6,43.6,0,0,1,.331,5.772,44.563,44.563,0,0,1-.058,5.778Z" transform="translate(-143.809 -168.815)" fill="#fafafa"/>
      <path id="Trazado_107145" data-name="Trazado 107145" d="M278.307,419.891c0,.058-.918-.3-2.4-.779a34.336,34.336,0,0,0-11.94-1.628,24.845,24.845,0,0,1-2.517.1,2.382,2.382,0,0,1,.663-.151c.424-.081,1.058-.157,1.843-.221a28.9,28.9,0,0,1,12.027,1.651,15.334,15.334,0,0,1,1.715.732A2.284,2.284,0,0,1,278.307,419.891Z" transform="translate(-139.323 -191.115)" fill="#fafafa"/>
      <path id="Trazado_107146" data-name="Trazado 107146" d="M305,428.84A8.545,8.545,0,0,1,306.662,430a42.137,42.137,0,0,1,6.865,6.865,8.583,8.583,0,0,1,1.163,1.668,13.553,13.553,0,0,1-1.354-1.476c-.814-.93-1.959-2.209-3.29-3.54s-2.61-2.47-3.546-3.29a13.233,13.233,0,0,1-1.5-1.389Z" transform="translate(-157.558 -196.019)" fill="#fafafa"/>
      <path id="Trazado_107147" data-name="Trazado 107147" d="M308.784,356.588a59.215,59.215,0,0,1-3.464-8.708,59.2,59.2,0,0,1,3.464,8.708Z" transform="translate(-157.692 -162.119)" fill="#fafafa"/>
      <path id="Trazado_107148" data-name="Trazado 107148" d="M253.675,234.5a5.65,5.65,0,0,1-1.128,1.227,24.492,24.492,0,0,1-3.151,2.488,24.206,24.206,0,0,1-3.488,1.959,6.046,6.046,0,0,1-1.569.581c-.046-.11,2.29-1.11,4.871-2.842S253.594,234.411,253.675,234.5Z" transform="translate(-132.158 -114.643)" fill="#fafafa"/>
      <path id="Trazado_107149" data-name="Trazado 107149" d="M263.6,216.351a28.1,28.1,0,0,1,.314-6.551A28.08,28.08,0,0,1,263.6,216.351Z" transform="translate(-140.195 -104.303)" fill="#fafafa"/>
      <path id="Trazado_107150" data-name="Trazado 107150" d="M232.984,229.87a22.175,22.175,0,0,1-3.825-1.535,22.667,22.667,0,0,1-3.68-1.895,22.426,22.426,0,0,1,3.819,1.54,22.947,22.947,0,0,1,3.685,1.889Z" transform="translate(-124.261 -111.27)" fill="#fafafa"/>
      <path id="Trazado_107151" data-name="Trazado 107151" d="M283.431,209.308a22.128,22.128,0,0,1,.128-4.069,21.1,21.1,0,0,1,.5-4.069,22.2,22.2,0,0,1-.116,4.069A21.461,21.461,0,0,1,283.431,209.308Z" transform="translate(-148.509 -100.689)" fill="#fafafa"/>
      <path id="Trazado_107152" data-name="Trazado 107152" d="M219.385,255.816a13.8,13.8,0,0,1-4.2-1.837,13.433,13.433,0,0,1-3.6-2.842c.076-.087,1.639,1.227,3.79,2.517S219.385,255.706,219.385,255.816Z" transform="translate(-118.445 -121.61)" fill="#fafafa"/>
      <path id="Trazado_107153" data-name="Trazado 107153" d="M201.461,233.412a30.585,30.585,0,0,1-3.139,3.68,30.976,30.976,0,0,1-3.412,3.488,61.845,61.845,0,0,1,6.551-7.179Z" transform="translate(-111.461 -114.185)" fill="#fafafa"/>
      <path id="Trazado_107154" data-name="Trazado 107154" d="M200.073,206.961a10.806,10.806,0,0,1-3.435-1.918,11.189,11.189,0,0,1-2.808-2.755c.081-.081,1.32,1.163,3.04,2.447S200.125,206.868,200.073,206.961Z" transform="translate(-111.009 -101.156)" fill="#fafafa"/>
      <path id="Trazado_107155" data-name="Trazado 107155" d="M190.26,215.17a9.37,9.37,0,0,1-1.569,2.151,9.637,9.637,0,0,1-1.86,1.907A18.5,18.5,0,0,1,190.26,215.17Z" transform="translate(-108.078 -106.551)" fill="#fafafa"/>
      <path id="Trazado_107156" data-name="Trazado 107156" d="M213.7,172.31a29.645,29.645,0,0,1-2.877,3.813,29.489,29.489,0,0,1-3.174,3.581,58.4,58.4,0,0,1,6.051-7.394Z" transform="translate(-116.796 -88.605)" fill="#fafafa"/>
      <path id="Trazado_107157" data-name="Trazado 107157" d="M192.056,172.274a27.9,27.9,0,0,1-3.133-3.29,27.214,27.214,0,0,1-2.842-3.534,26.212,26.212,0,0,1,3.139,3.284,26.842,26.842,0,0,1,2.837,3.54Z" transform="translate(-107.764 -85.733)" fill="#fafafa"/>
      <path id="Trazado_107158" data-name="Trazado 107158" d="M204.3,144.513a22.484,22.484,0,0,1-2.209-3.488,23.049,23.049,0,0,1-1.86-3.685,22.589,22.589,0,0,1,2.209,3.488,22.929,22.929,0,0,1,1.86,3.685Z" transform="translate(-113.689 -73.963)" fill="#fafafa"/>
      <path id="Trazado_107159" data-name="Trazado 107159" d="M206.657,126.8c-.087-.076,1.017-1.476,1.895-3.453s1.192-3.726,1.308-3.685a11.329,11.329,0,0,1-3.2,7.173Z" transform="translate(-116.378 -66.559)" fill="#fafafa"/>
      <path id="Trazado_107160" data-name="Trazado 107160" d="M185.763,125.022a8.586,8.586,0,0,1,.9-4.5,11.091,11.091,0,0,1,1.8-2.738,3.645,3.645,0,0,1,1.023-.889,21.384,21.384,0,0,0-2.47,3.784A21,21,0,0,0,185.763,125.022Z" transform="translate(-107.621 -65.4)" fill="#fafafa"/>
      <path id="Trazado_107161" data-name="Trazado 107161" d="M368.176,83.7a47.084,47.084,0,0,1-.11-9.184,15.7,15.7,0,0,1,3.377-8.417,9.511,9.511,0,0,1,8.138-3.43c1.883.244,3.68,1.163,5.557,1.116,2.209-.064,4.1-1.418,6.1-2.325a15.985,15.985,0,0,1,10.039-1.052,9.6,9.6,0,0,1,4.749,2.4,5.324,5.324,0,0,1,1.54,4.918,25.4,25.4,0,0,1,6.627.581,8.562,8.562,0,0,1,5.29,3.68,5.218,5.218,0,0,1-.552,6.15,4.238,4.238,0,0,1,4.685,3.2,5.47,5.47,0,0,1-2.209,5.476,10.207,10.207,0,0,1-6.882,1.383,14.906,14.906,0,0,1-6.063-2.209" transform="translate(-183.892 -41.594)" fill="#344154"/>
      <path id="Trazado_107162" data-name="Trazado 107162" d="M356.991,162.679h0a15.881,15.881,0,0,0,19.31-11.323c1.25-4.72,2.261-8.673,2.261-8.673s12.306,2.116,16.375-9.568,11.044-39.178,11.044-39.178h0a42.887,42.887,0,0,0-42.561-8.574l-2.209.738-15.631,56.931a15.892,15.892,0,0,0,11.044,19.554Z" transform="translate(-174.306 -51.218)" fill="#ffbf9d"/>
      <path id="Trazado_107163" data-name="Trazado 107163" d="M392.938,178.576a28.7,28.7,0,0,1-13.788-9.446s.779,9.626,12.788,12.515Z" transform="translate(-188.606 -87.274)" fill="#aa6550"/>
      <path id="Trazado_107164" data-name="Trazado 107164" d="M361.181,108.91c-.174-.157-7.237-5.075-9.661,3.011s6.185,8.83,6.266,8.62S361.181,108.91,361.181,108.91Z" transform="translate(-176.856 -61.379)" fill="#ffbf9d"/>
      <path id="Trazado_107165" data-name="Trazado 107165" d="M357.841,118.6a2.437,2.437,0,0,1-.442.093,1.43,1.43,0,0,1-1.029-.308c-.738-.581-1.07-2.139-.674-3.6a4.854,4.854,0,0,1,.994-1.9,1.7,1.7,0,0,1,1.383-.738.732.732,0,0,1,.738.634c.046.256-.058.407,0,.436s.215-.087.244-.442a.912.912,0,0,0-.163-.581,1.1,1.1,0,0,0-.738-.442,2.058,2.058,0,0,0-1.843.808,4.947,4.947,0,0,0-1.163,2.11c-.442,1.639-.064,3.412,1.006,4.1a1.569,1.569,0,0,0,1.354.174C357.789,118.788,357.893,118.625,357.841,118.6Z" transform="translate(-178.48 -63.241)" fill="#aa6550"/>
      <path id="Trazado_107166" data-name="Trazado 107166" d="M430.362,129.273a1.744,1.744,0,0,1-2.209,1.163,1.686,1.686,0,0,1-1.221-2.046v-.041a1.744,1.744,0,0,1,2.174-1.163,1.692,1.692,0,0,1,1.267,2.029Z" transform="translate(-208.592 -69.679)" fill="#344154"/>
      <path id="Trazado_107167" data-name="Trazado 107167" d="M431.886,126.64c-.279.151-1.227-1.2-3.023-1.808s-3.424-.14-3.54-.43c-.07-.122.279-.448.994-.674a4.8,4.8,0,0,1,2.941.07,4.65,4.65,0,0,1,2.325,1.744C431.968,126.128,432.02,126.582,431.886,126.64Z" transform="translate(-207.936 -68.18)" fill="#344154"/>
      <path id="Trazado_107168" data-name="Trazado 107168" d="M399.994,119.087a1.744,1.744,0,0,1-2.174,1.163,1.686,1.686,0,0,1-1.227-2.046v-.035a1.744,1.744,0,0,1,2.174-1.163,1.686,1.686,0,0,1,1.221,2.046Z" transform="translate(-195.888 -65.417)" fill="#344154"/>
      <path id="Trazado_107169" data-name="Trazado 107169" d="M401.31,117.02c-.279.151-1.238-1.209-3.034-1.814s-3.418-.14-3.54-.424c-.058-.128.279-.453,1-.674a4.819,4.819,0,0,1,2.947.07,4.7,4.7,0,0,1,2.325,1.715C401.385,116.5,401.443,116.962,401.31,117.02Z" transform="translate(-195.129 -64.152)" fill="#344154"/>
      <path id="Trazado_107170" data-name="Trazado 107170" d="M409.57,135a12.356,12.356,0,0,1,3.092.448c.477.11.942.163,1.128-.122a2.517,2.517,0,0,0,.145-1.476c-.058-1.256-.116-2.575-.186-3.953-.209-5.6-.2-10.149,0-10.161s.581,4.54.8,10.138c.047,1.378.081,2.7.116,3.953a2.721,2.721,0,0,1-.36,1.878,1.215,1.215,0,0,1-.977.424,3.3,3.3,0,0,1-.82-.157A15.793,15.793,0,0,1,409.57,135Z" transform="translate(-201.343 -66.593)" fill="#344154"/>
      <path id="Trazado_107171" data-name="Trazado 107171" d="M399.18,145c.3.081-.349,2.034.854,3.976s3.354,2.43,3.278,2.7c0,.134-.581.227-1.471-.041a5.162,5.162,0,0,1-2.773-2.151,4.424,4.424,0,0,1-.581-3.29C398.674,145.376,399.052,144.964,399.18,145Z" transform="translate(-196.661 -77.169)" fill="#344154"/>
      <path id="Trazado_107172" data-name="Trazado 107172" d="M432.972,120.8c-.453.3-1.546-.535-3.028-1.058s-2.842-.651-2.988-1.163c-.058-.25.279-.581.959-.8a4.65,4.65,0,0,1,4.877,1.814C433.146,120.181,433.175,120.646,432.972,120.8Z" transform="translate(-208.62 -65.72)" fill="#344154"/>
      <path id="Trazado_107173" data-name="Trazado 107173" d="M400.794,103.964c-.273.145-.738-.1-1.261-.413a13.735,13.735,0,0,0-2.116-1.04,13.561,13.561,0,0,0-2.29-.581c-.628-.122-1.11-.221-1.221-.512s.238-.738,1.035-1.035a4.982,4.982,0,0,1,5.743,2.139C401.09,103.272,401.05,103.842,400.794,103.964Z" transform="translate(-194.776 -58.391)" fill="#344154"/>
      <path id="Trazado_107174" data-name="Trazado 107174" d="M413.78,95.852A28.971,28.971,0,0,1,397,89.237c-5.29-4.325-11.9-7.359-13.712-6.5s-3.517,6.917-9.835,7.359c0,0-2.25,11.817-6.83,10.306S369.1,81.454,369.1,81.454l12.7-2.994,13.009.482L406.5,81.593l10.108,5.813Z" transform="translate(-182.714 -49.309)" fill="#344154"/>
      <rect id="Rectángulo_8376" data-name="Rectángulo 8376" width="165.299" height="257.404" transform="translate(0.169 0.198)" fill="#fafafa"/>
      <path id="Trazado_107175" data-name="Trazado 107175" d="M216.812,285.905c0-1.581-.076-106.125-.174-257.4l.174.174H51.542l.2-.192c0,97.388,0,187.057-.047,257.409l-.151-.157,165.3.157-165.3.145h-.151v-.134c0-70.335,0-160.021-.041-257.4V28.31H217.016v.174C216.893,179.792,216.812,284.33,216.812,285.905Z" transform="translate(-51.35 -28.31)" fill="#344154"/>
      <path id="Trazado_107176" data-name="Trazado 107176" d="M110.714,102.363H89.561a2.651,2.651,0,0,1-2.651-2.639V70.445A2.651,2.651,0,0,1,89.561,67.8h13.416l10.382,10.7V99.724A2.645,2.645,0,0,1,110.714,102.363Z" transform="translate(-66.24 -44.845)" fill="#d9a171"/>
      <path id="Trazado_107177" data-name="Trazado 107177" d="M114.55,67.8v8.254a2.465,2.465,0,0,0,2.459,2.459h7.923Z" transform="translate(-77.813 -44.845)" fill="#d9a171"/>
      <g id="Grupo_57867" data-name="Grupo 57867" transform="translate(36.848 31.912)" opacity="0.2">
        <path id="Trazado_107178" data-name="Trazado 107178" d="M114.74,83.21a2.726,2.726,0,0,0,2.162,2.656l.267.064c1.029.18,7.842,1.389,7.842,1.232V84.954h-7.923S115.112,84.884,114.74,83.21Z" transform="translate(-114.74 -83.21)" fill="#344154"/>
      </g>
      <g id="Grupo_57868" data-name="Grupo 57868" transform="translate(36.737 22.955)" opacity="0.3">
        <path id="Trazado_107179" data-name="Trazado 107179" d="M114.55,67.8v8.254a2.465,2.465,0,0,0,2.459,2.459h7.923Z" transform="translate(-114.55 -67.8)" fill="#ffbf9d"/>
      </g>
      <path id="Trazado_107180" data-name="Trazado 107180" d="M104.443,81.225a32.767,32.767,0,0,1-4.894.192,32.719,32.719,0,0,1-4.889-.192,31.238,31.238,0,0,1,4.889-.192A31.285,31.285,0,0,1,104.443,81.225Z" transform="translate(-69.485 -50.376)" fill="#fafafa"/>
      <path id="Trazado_107181" data-name="Trazado 107181" d="M110.762,89.272c0,.1-3.6.186-8.045.186s-8.057-.087-8.057-.186,3.61-.192,8.057-.192S110.762,89.161,110.762,89.272Z" transform="translate(-69.485 -53.755)" fill="#fafafa"/>
      <path id="Trazado_107182" data-name="Trazado 107182" d="M112.215,95.952c0,.11-3.924.192-8.777.192s-8.777-.081-8.777-.192,3.935-.192,8.777-.192S112.215,95.853,112.215,95.952Z" transform="translate(-69.485 -56.552)" fill="#fafafa"/>
      <path id="Trazado_107183" data-name="Trazado 107183" d="M112.215,102.272c0,.1-3.924.192-8.777.192s-8.777-.087-8.777-.192,3.935-.192,8.777-.192S112.215,102.161,112.215,102.272Z" transform="translate(-69.485 -59.199)" fill="#fafafa"/>
      <path id="Trazado_107184" data-name="Trazado 107184" d="M112.215,108.582c0,.11-3.924.192-8.777.192s-8.777-.081-8.777-.192,3.935-.192,8.777-.192S112.215,108.477,112.215,108.582Z" transform="translate(-69.485 -61.841)" fill="#fafafa"/>
      <path id="Trazado_107185" data-name="Trazado 107185" d="M112.215,114.862c0,.1-3.924.192-8.777.192s-8.777-.087-8.777-.192,3.935-.192,8.777-.192S112.215,114.775,112.215,114.862Z" transform="translate(-69.485 -64.47)" fill="#fafafa"/>
      <rect id="Rectángulo_8377" data-name="Rectángulo 8377" width="2.825" height="216.127" rx="1.413" transform="translate(153.011 16.043)" fill="#aed3f2"/>
      <rect id="Rectángulo_8378" data-name="Rectángulo 8378" width="2.825" height="111.426" rx="1.413" transform="translate(153.011 16.043)" fill="#d9a171"/>
      <path id="Trazado_107186" data-name="Trazado 107186" d="M206.254,195.722c0,.11-25.408.192-56.739.192s-56.745-.081-56.745-.192,25.4-.192,56.745-.192S206.254,195.617,206.254,195.722Z" transform="translate(-68.693 -98.328)" fill="#344154"/>
      <path id="Trazado_107187" data-name="Trazado 107187" d="M206.254,210.5c0,.1-25.408.192-56.739.192S92.77,210.6,92.77,210.5s25.4-.192,56.745-.192S206.254,210.391,206.254,210.5Z" transform="translate(-68.693 -104.517)" fill="#344154"/>
      <path id="Trazado_107188" data-name="Trazado 107188" d="M206.254,225.262c0,.11-25.408.192-56.739.192s-56.745-.081-56.745-.192,25.4-.192,56.745-.192S206.254,225.163,206.254,225.262Z" transform="translate(-68.693 -110.697)" fill="#344154"/>
      <path id="Trazado_107189" data-name="Trazado 107189" d="M206.254,240.046c0,.1-25.408.192-56.739.192s-56.745-.087-56.745-.192,25.4-.186,56.745-.186S206.254,239.941,206.254,240.046Z" transform="translate(-68.693 -116.89)" fill="#344154"/>
      <path id="Trazado_107190" data-name="Trazado 107190" d="M206.254,254.862c0,.11-25.408.192-56.739.192s-56.745-.081-56.745-.192,25.4-.192,56.745-.192S206.254,254.728,206.254,254.862Z" transform="translate(-68.693 -123.091)" fill="#344154"/>
      <path id="Trazado_107191" data-name="Trazado 107191" d="M206.254,269.592c0,.1-25.408.192-56.739.192s-56.745-.087-56.745-.192,25.4-.192,56.745-.192S206.254,269.481,206.254,269.592Z" transform="translate(-68.693 -129.259)" fill="#344154"/>
      <path id="Trazado_107192" data-name="Trazado 107192" d="M206.254,325.672c0,.1-25.408.192-56.739.192s-56.745-.087-56.745-.192,25.4-.192,56.745-.192S206.254,325.585,206.254,325.672Z" transform="translate(-68.693 -152.74)" fill="#344154"/>
      <path id="Trazado_107193" data-name="Trazado 107193" d="M206.254,351c0,.1-25.408.192-56.739.192S92.77,351.106,92.77,351s25.4-.192,56.745-.192S206.254,350.886,206.254,351Z" transform="translate(-68.693 -163.346)" fill="#aed3f2"/>
      <path id="Trazado_107194" data-name="Trazado 107194" d="M315.011,398.364l8.568-4.121-4.708-13.951L308.518,377.9c-.965-.221-2.04-.477-3.232-.808a13.056,13.056,0,0,1-3.924-1.848,19.81,19.81,0,0,1-4.11-3.488c-.977-1.331-3.058-.831-3.058.645s2.616,5.232,7.26,7.859-3.569,3.912-6.545,4.418-12.114,2.552-12.66,3.592c-.8,1.517.738,2.68,3.68,2.1s11.992-1.744,12.207-.157v.046a6.458,6.458,0,0,0,.389,7.5c1.662,2.087,4.162,4.7,5.993,4.3C307.989,401.364,315.011,398.364,315.011,398.364Z" transform="translate(-147.944 -171.792)" fill="#ffbf9d"/>
      <path id="Trazado_107195" data-name="Trazado 107195" d="M337.86,324.717l8.033,27.158,62.383-18.95a25.024,25.024,0,0,0,16.625-31.25c-.046-.157-.093-.314-.145-.471L409.439,253.62l-33.209,8.248,18.229,44.021Z" transform="translate(-171.317 -122.651)" fill="#6595bf"/>
      <path id="Trazado_107196" data-name="Trazado 107196" d="M409.5,344.9l-.3.11-.9.285-3.488,1.081-13.073,4.005L346.35,364.158l-.169.047-.058-.163c-2.779-8.307-5.47-17.438-8.586-26.815l-.058-.174.186-.07,1.564-.512,55.042-18.281-.087.2c-4.418-10.672-8-19.421-10.5-25.518l-2.889-7.028-.738-1.848c-.169-.43-.238-.634-.238-.634s.1.2.285.616l.779,1.825c.674,1.622,1.668,3.988,2.941,7l10.62,25.472.058.145-.157.052-55.036,18.357-1.569.523.116-.244c3.121,9.388,5.813,18.514,8.574,26.809l-.221-.116,45.427-13.631,13.12-3.912,3.488-1.023.913-.256Z" transform="translate(-171.158 -135.104)" fill="#344154"/>
      <path id="Trazado_107197" data-name="Trazado 107197" d="M446.485,351.435c-.058,0-.471-.686-1.3-1.744a16.886,16.886,0,0,0-8.5-5.644c-1.279-.366-2.1-.471-2.1-.535a1.691,1.691,0,0,1,.581,0,11.149,11.149,0,0,1,1.575.267,15.177,15.177,0,0,1,8.649,5.731,10.6,10.6,0,0,1,.854,1.354,1.616,1.616,0,0,1,.244.57Z" transform="translate(-211.815 -160.28)" fill="#344154"/>
      <path id="Trazado_107198" data-name="Trazado 107198" d="M428.9,265.981a42.35,42.35,0,0,1,0-8.051A42.327,42.327,0,0,1,428.9,265.981Z" transform="translate(-209.348 -124.456)" fill="#fafafa"/>
      <path id="Trazado_107199" data-name="Trazado 107199" d="M448.917,267.25a43.114,43.114,0,0,1-2.337-7.83A43.168,43.168,0,0,1,448.917,267.25Z" transform="translate(-216.84 -125.08)" fill="#fafafa"/>
      <path id="Trazado_107200" data-name="Trazado 107200" d="M432,290.783a13.857,13.857,0,0,1-7.278-2.139c.052-.1,1.587.628,3.6,1.209S432.009,290.672,432,290.783Z" transform="translate(-207.687 -137.312)" fill="#fafafa"/>
      <path id="Trazado_107201" data-name="Trazado 107201" d="M461.61,297.506a39.284,39.284,0,0,1,1.319-7.626,20.486,20.486,0,0,1-.471,3.848,19.62,19.62,0,0,1-.849,3.778Z" transform="translate(-223.133 -137.834)" fill="#fafafa"/>
      <path id="Trazado_107202" data-name="Trazado 107202" d="M450.517,315.249A40.812,40.812,0,0,1,447.21,308,41.849,41.849,0,0,1,450.517,315.249Z" transform="translate(-217.103 -145.421)" fill="#fafafa"/>
      <path id="Trazado_107203" data-name="Trazado 107203" d="M444.427,333.366a18.126,18.126,0,0,1-3.488-1.471,18.425,18.425,0,0,1-3.319-1.825,20.162,20.162,0,0,1,3.488,1.471,18.722,18.722,0,0,1,3.319,1.825Z" transform="translate(-213.088 -154.662)" fill="#fafafa"/>
      <path id="Trazado_107204" data-name="Trazado 107204" d="M474.657,331.68a28.546,28.546,0,0,1-1.407,3.377,29.007,29.007,0,0,1-1.471,3.342A19.334,19.334,0,0,1,474.657,331.68Z" transform="translate(-227.391 -155.336)" fill="#fafafa"/>
      <path id="Trazado_107205" data-name="Trazado 107205" d="M468.52,362.516a43.888,43.888,0,0,1-.82-8.266,23.345,23.345,0,0,1,.581,4.115A23.024,23.024,0,0,1,468.52,362.516Z" transform="translate(-225.683 -164.787)" fill="#fafafa"/>
      <path id="Trazado_107206" data-name="Trazado 107206" d="M445.719,376.379a36.438,36.438,0,0,1-5.609-5.139,19,19,0,0,1,2.941,2.43A19.267,19.267,0,0,1,445.719,376.379Z" transform="translate(-214.131 -171.901)" fill="#fafafa"/>
      <path id="Trazado_107207" data-name="Trazado 107207" d="M412.853,383.41a42.722,42.722,0,0,1-4.813,6.568,21.615,21.615,0,0,1,2.25-3.395,22.026,22.026,0,0,1,2.563-3.174Z" transform="translate(-200.702 -176.996)" fill="#fafafa"/>
      <path id="Trazado_107208" data-name="Trazado 107208" d="M423.055,363.578a13.5,13.5,0,0,1-2.982-2.622,13.1,13.1,0,0,1-2.383-3.168c.087-.064,1.163,1.319,2.662,2.906S423.1,363.5,423.055,363.578Z" transform="translate(-204.743 -166.267)" fill="#fafafa"/>
      <path id="Trazado_107209" data-name="Trazado 107209" d="M397.521,370.995a5.772,5.772,0,0,1-2.941.36,5.94,5.94,0,0,1-2.86-.779c.047-.11,1.29.285,2.906.4S397.521,370.884,397.521,370.995Z" transform="translate(-193.869 -171.615)" fill="#fafafa"/>
      <path id="Trazado_107210" data-name="Trazado 107210" d="M384.942,394.39a14.092,14.092,0,0,1-.732-3.168,13.446,13.446,0,0,1-.36-3.232A27.786,27.786,0,0,1,384.942,394.39Z" transform="translate(-190.573 -178.914)" fill="#fafafa"/>
      <path id="Trazado_107211" data-name="Trazado 107211" d="M361.685,405.287a47.831,47.831,0,0,1-7.225-4.557,23.53,23.53,0,0,1,3.72,2.122,23.881,23.881,0,0,1,3.505,2.436Z" transform="translate(-178.267 -184.249)" fill="#fafafa"/>
      <path id="Trazado_107212" data-name="Trazado 107212" d="M370.486,374.85c.081.076-.982,1.343-2.168,2.994a32.572,32.572,0,0,1-2.168,3A12.207,12.207,0,0,1,368,377.611a11.849,11.849,0,0,1,2.488-2.761Z" transform="translate(-183.162 -173.412)" fill="#fafafa"/>
      <path id="Trazado_107213" data-name="Trazado 107213" d="M356.073,379.759a7.225,7.225,0,0,1-2.157-.86,6.976,6.976,0,0,1-1.976-1.209A14,14,0,0,1,356.073,379.759Z" transform="translate(-177.212 -174.601)" fill="#fafafa"/>
      <g id="Grupo_57869" data-name="Grupo 57869" transform="translate(222.62 181.587)" opacity="0.2">
        <path id="Trazado_107214" data-name="Trazado 107214" d="M434.33,341.229c3.325.337,6.661.686,9.981,1.1a12.259,12.259,0,0,1,3.389.732,4.307,4.307,0,0,1,2.412,2.366,2.639,2.639,0,0,1-.918,3.087,3.069,3.069,0,0,1-3.017-.134,15.874,15.874,0,0,1-2.488-1.953,13.9,13.9,0,0,0-5.109-2.674,8.512,8.512,0,0,1-2.447-.854,2.116,2.116,0,0,1-1.058-2.2" transform="translate(-434.33 -340.7)" fill="#344154"/>
      </g>
      <g id="Grupo_57870" data-name="Grupo 57870" transform="translate(58.682 26.704)">
        <path id="Trazado_107215" data-name="Trazado 107215" d="M157.685,81.128h-.831l-3.162-4.842v4.842h-.831V74.85h.831l3.168,4.86V74.85h.825Z" transform="translate(-152.536 -74.501)"/>
        <path id="Trazado_107216" data-name="Trazado 107216" d="M163.11,79.834a2.744,2.744,0,0,1,.273-1.232,2.08,2.08,0,0,1,3.389-.5,2.517,2.517,0,0,1,.581,1.744V79.9a2.773,2.773,0,0,1-.262,1.227,1.982,1.982,0,0,1-.744.843,2.058,2.058,0,0,1-1.116.3,1.947,1.947,0,0,1-1.535-.663,2.505,2.505,0,0,1-.581-1.744Zm.8.093a2.017,2.017,0,0,0,.36,1.25,1.221,1.221,0,0,0,1.93,0,2.191,2.191,0,0,0,.36-1.337A1.988,1.988,0,0,0,166.2,78.6a1.209,1.209,0,0,0-1.918,0A2.145,2.145,0,0,0,163.912,79.927Z" transform="translate(-156.828 -75.585)"/>
        <path id="Trazado_107217" data-name="Trazado 107217" d="M174.384,78.305a2.806,2.806,0,0,0-.4,0,1.046,1.046,0,0,0-1.046.668v3.313h-.8v-4.65h.779v.541a1.244,1.244,0,0,1,1.116-.628.819.819,0,0,1,.355.064Z" transform="translate(-160.609 -75.631)"/>
        <path id="Trazado_107218" data-name="Trazado 107218" d="M178,77.569v.517a1.744,1.744,0,0,1,1.383-.581,1.331,1.331,0,0,1,1.331.75,1.866,1.866,0,0,1,.581-.541,1.79,1.79,0,0,1,.884-.209c1.023,0,1.546.541,1.564,1.628V82.26h-.8V79.179a1.093,1.093,0,0,0-.227-.75,1.012,1.012,0,0,0-.767-.244,1.07,1.07,0,0,0-.738.262,1.093,1.093,0,0,0-.337.715v3.1h-.808V79.179a.889.889,0,0,0-.994-1.017,1.064,1.064,0,0,0-1.075.668v3.406h-.8v-4.65Z" transform="translate(-162.728 -75.61)"/>
        <path id="Trazado_107219" data-name="Trazado 107219" d="M193.376,82.223a1.651,1.651,0,0,1-.116-.494,1.744,1.744,0,0,1-1.325.581,1.674,1.674,0,0,1-1.163-.389,1.267,1.267,0,0,1-.442-.994,1.32,1.32,0,0,1,.581-1.128,2.587,2.587,0,0,1,1.558-.407h.779v-.366a.9.9,0,0,0-.25-.668,1.017,1.017,0,0,0-.738-.244,1.162,1.162,0,0,0-.715.215.645.645,0,0,0-.291.523h-.8a1.081,1.081,0,0,1,.25-.674,1.651,1.651,0,0,1,.674-.517,2.221,2.221,0,0,1,.93-.192,1.837,1.837,0,0,1,1.267.407,1.459,1.459,0,0,1,.471,1.11V81.13a2.581,2.581,0,0,0,.169,1.023v.07Zm-1.325-.61a1.4,1.4,0,0,0,.709-.192,1.163,1.163,0,0,0,.488-.506v-.959h-.628c-.977,0-1.465.291-1.465.86a.721.721,0,0,0,.25.581.977.977,0,0,0,.645.215Z" transform="translate(-168.225 -75.596)"/>
        <path id="Trazado_107220" data-name="Trazado 107220" d="M216.675,81.128h-.825V74.85h.825Z" transform="translate(-178.911 -74.501)"/>
        <path id="Trazado_107221" data-name="Trazado 107221" d="M220.439,77.553v.581a1.7,1.7,0,0,1,1.4-.674c.988,0,1.482.581,1.494,1.668v3.087h-.8V79.134a1.07,1.07,0,0,0-.227-.75.947.947,0,0,0-.709-.238,1.163,1.163,0,0,0-.68.2,1.459,1.459,0,0,0-.459.546V82.22h-.8V77.57Z" transform="translate(-180.507 -75.594)"/>
        <path id="Trazado_107222" data-name="Trazado 107222" d="M228.725,75.68v1.128h.872v.616h-.872V80.33a.651.651,0,0,0,.116.419.488.488,0,0,0,.4.139,1.953,1.953,0,0,0,.384-.052v.645a2.325,2.325,0,0,1-.616.087,1.011,1.011,0,0,1-.808-.326,1.4,1.4,0,0,1-.267-.918V77.418h-.849v-.61h.849V75.68Z" transform="translate(-183.613 -74.849)"/>
        <path id="Trazado_107223" data-name="Trazado 107223" d="M234.809,82.309a2.046,2.046,0,0,1-1.54-.622,2.325,2.325,0,0,1-.581-1.668v-.145a2.854,2.854,0,0,1,.267-1.244,2.087,2.087,0,0,1,.727-.854,1.872,1.872,0,0,1,1.029-.308,1.744,1.744,0,0,1,1.418.581,2.61,2.61,0,0,1,.506,1.744V80.1h-3.185a1.674,1.674,0,0,0,.4,1.116,1.285,1.285,0,0,0,.982.424,1.389,1.389,0,0,0,.715-.174,1.744,1.744,0,0,0,.512-.459l.488.384A1.965,1.965,0,0,1,234.809,82.309Zm-.1-4.185a1.046,1.046,0,0,0-.808.355,1.68,1.68,0,0,0-.407.982h2.325V79.4a1.5,1.5,0,0,0-.326-.942.994.994,0,0,0-.785-.337Z" transform="translate(-185.96 -75.596)"/>
        <path id="Trazado_107224" data-name="Trazado 107224" d="M243.35,78.305a2.806,2.806,0,0,0-.4,0,1.046,1.046,0,0,0-1.093.668v3.313h-.8v-4.65h.779v.541a1.244,1.244,0,0,1,1.116-.628.819.819,0,0,1,.355.064Z" transform="translate(-189.467 -75.631)"/>
        <path id="Trazado_107225" data-name="Trazado 107225" d="M246.949,77.553v.581a1.7,1.7,0,0,1,1.4-.674c.988,0,1.488.581,1.494,1.668v3.087h-.8V79.134a1.1,1.1,0,0,0-.233-.75.936.936,0,0,0-.7-.238,1.162,1.162,0,0,0-.68.2,1.407,1.407,0,0,0-.459.546V82.22h-.8V77.57Z" transform="translate(-191.607 -75.594)"/>
        <path id="Trazado_107226" data-name="Trazado 107226" d="M257.376,82.222a1.691,1.691,0,0,1-.11-.494,1.744,1.744,0,0,1-1.331.581,1.674,1.674,0,0,1-1.134-.389,1.285,1.285,0,0,1-.442-.994,1.308,1.308,0,0,1,.581-1.128,2.575,2.575,0,0,1,1.558-.407h.773v-.366a.9.9,0,0,0-.273-.668,1.006,1.006,0,0,0-.732-.244,1.162,1.162,0,0,0-.721.215.639.639,0,0,0-.285.523h-.8a1.1,1.1,0,0,1,.244-.674,1.691,1.691,0,0,1,.674-.517,2.244,2.244,0,0,1,.936-.192,1.819,1.819,0,0,1,1.261.407,1.442,1.442,0,0,1,.477,1.11V81.13a2.592,2.592,0,0,0,.163,1.023v.07Zm-1.325-.61a1.436,1.436,0,0,0,.715-.192,1.163,1.163,0,0,0,.482-.506v-.959h-.622c-.977,0-1.465.291-1.465.86a.721.721,0,0,0,.25.581A.953.953,0,0,0,256.051,81.612Z" transform="translate(-195.036 -75.596)"/>
        <path id="Trazado_107227" data-name="Trazado 107227" d="M264.566,81.669a1.128,1.128,0,0,0,.744-.262.9.9,0,0,0,.355-.645h.756a1.412,1.412,0,0,1-.273.761,1.89,1.89,0,0,1-.68.581,2.034,2.034,0,0,1-.9.215,1.936,1.936,0,0,1-1.517-.639,2.54,2.54,0,0,1-.581-1.744V79.8a2.906,2.906,0,0,1,.25-1.215,1.906,1.906,0,0,1,.738-.8,2.023,2.023,0,0,1,1.1-.3,1.883,1.883,0,0,1,1.308.471,1.7,1.7,0,0,1,.552,1.221h-.738a1.093,1.093,0,0,0-.343-.744,1.07,1.07,0,0,0-.762-.291,1.122,1.122,0,0,0-.942.436,2.081,2.081,0,0,0-.331,1.267V80a2.017,2.017,0,0,0,.331,1.244,1.116,1.116,0,0,0,.93.424Z" transform="translate(-198.43 -75.606)"/>
        <path id="Trazado_107228" data-name="Trazado 107228" d="M270.82,75.158a.459.459,0,0,1,.122-.326.419.419,0,0,1,.349-.134.442.442,0,0,1,.355.134.494.494,0,0,1,0,.651.459.459,0,0,1-.355.128.436.436,0,0,1-.349-.128.459.459,0,0,1-.122-.326Zm.866,5.906h-.8v-4.65h.8Z" transform="translate(-201.928 -74.437)"/>
        <path id="Trazado_107229" data-name="Trazado 107229" d="M274.138,79.855a2.744,2.744,0,0,1,.267-1.232,2.051,2.051,0,0,1,.75-.837,2.075,2.075,0,0,1,1.1-.3,1.971,1.971,0,0,1,1.546.663,2.54,2.54,0,0,1,.581,1.744v.052a2.773,2.773,0,0,1-.262,1.227,2.017,2.017,0,0,1-.744.843,2.058,2.058,0,0,1-1.116.3,1.971,1.971,0,0,1-1.54-.663,2.534,2.534,0,0,1-.581-1.744Zm.8.093a2.017,2.017,0,0,0,.36,1.25,1.221,1.221,0,0,0,1.93,0,2.191,2.191,0,0,0,.36-1.337,1.988,1.988,0,0,0-.366-1.244,1.215,1.215,0,0,0-1.924,0A2.186,2.186,0,0,0,274.94,79.948Z" transform="translate(-203.316 -75.606)"/>
        <path id="Trazado_107230" data-name="Trazado 107230" d="M283.909,77.553v.581a1.744,1.744,0,0,1,1.4-.674c.988,0,1.482.581,1.494,1.668v3.087H286V79.134a1.07,1.07,0,0,0-.227-.75.948.948,0,0,0-.709-.238,1.163,1.163,0,0,0-.68.2,1.407,1.407,0,0,0-.459.546v3.325h-.8V77.57Z" transform="translate(-207.083 -75.594)"/>
        <path id="Trazado_107231" data-name="Trazado 107231" d="M294.319,82.223a1.692,1.692,0,0,1-.11-.494,1.744,1.744,0,0,1-1.325.581,1.657,1.657,0,0,1-1.163-.389,1.267,1.267,0,0,1-.442-.994,1.308,1.308,0,0,1,.552-1.128,2.587,2.587,0,0,1,1.558-.407h.779v-.366a.9.9,0,0,0-.25-.668,1.017,1.017,0,0,0-.738-.244,1.162,1.162,0,0,0-.715.215.645.645,0,0,0-.291.523h-.8a1.082,1.082,0,0,1,.25-.674,1.675,1.675,0,0,1,.668-.517,2.267,2.267,0,0,1,.936-.192,1.837,1.837,0,0,1,1.267.407,1.459,1.459,0,0,1,.471,1.11V81.13a2.7,2.7,0,0,0,.163,1.023v.07ZM293,81.612a1.413,1.413,0,0,0,.709-.192,1.163,1.163,0,0,0,.488-.506v-.959h-.628c-.977,0-1.465.291-1.465.86a.721.721,0,0,0,.25.581.976.976,0,0,0,.645.215Z" transform="translate(-210.494 -75.596)"/>
        <path id="Trazado_107232" data-name="Trazado 107232" d="M300.742,80.877h-.8V74.25h.8Z" transform="translate(-214.121 -74.25)"/>
        <path id="Trazado_107233" data-name="Trazado 107233" d="M152.307,96.745A2.749,2.749,0,0,1,152.813,95a1.744,1.744,0,0,1,2.633-.093V92.49h.8v6.627h-.732l-.035-.5a1.639,1.639,0,0,1-1.337.581,1.575,1.575,0,0,1-1.32-.668,2.744,2.744,0,0,1-.512-1.744Zm.8.087a2.064,2.064,0,0,0,.331,1.244,1.052,1.052,0,0,0,.9.448,1.163,1.163,0,0,0,1.11-.68V95.693a1.163,1.163,0,0,0-1.1-.657,1.052,1.052,0,0,0-.913.448,2.267,2.267,0,0,0-.331,1.372Z" transform="translate(-152.303 -81.887)"/>
        <path id="Trazado_107234" data-name="Trazado 107234" d="M163.015,100.509a2.034,2.034,0,0,1-1.546-.628,2.325,2.325,0,0,1-.581-1.662v-.151a2.849,2.849,0,0,1,.267-1.238,2.058,2.058,0,0,1,.744-.854,1.872,1.872,0,0,1,1.029-.308,1.744,1.744,0,0,1,1.418.581,2.6,2.6,0,0,1,.506,1.744v.331H161.69a1.645,1.645,0,0,0,.4,1.11,1.267,1.267,0,0,0,.982.43,1.372,1.372,0,0,0,.715-.174,1.744,1.744,0,0,0,.512-.459l.488.384A1.959,1.959,0,0,1,163.015,100.509Zm-.1-4.185a1.07,1.07,0,0,0-.808.349,1.744,1.744,0,0,0-.407.988h2.325V97.6a1.523,1.523,0,0,0-.326-.942,1.011,1.011,0,0,0-.785-.314Z" transform="translate(-155.896 -83.216)"/>
        <path id="Trazado_107235" data-name="Trazado 107235" d="M180.9,97.327a2.325,2.325,0,0,1-.738,1.535,2.383,2.383,0,0,1-1.645.546,2.215,2.215,0,0,1-1.785-.8,3.232,3.232,0,0,1-.668-2.127V95.9a3.575,3.575,0,0,1,.314-1.54,2.325,2.325,0,0,1,.884-1.017,2.465,2.465,0,0,1,1.331-.36,2.244,2.244,0,0,1,1.6.581,2.325,2.325,0,0,1,.7,1.546H180.1a1.808,1.808,0,0,0-.471-1.093,1.4,1.4,0,0,0-1.006-.337,1.488,1.488,0,0,0-1.244.581A2.674,2.674,0,0,0,176.9,95.9v.581a2.773,2.773,0,0,0,.43,1.628,1.378,1.378,0,0,0,1.163.581,1.61,1.61,0,0,0,1.064-.314,1.744,1.744,0,0,0,.488-1.087Z" transform="translate(-162.252 -82.091)"/>
        <path id="Trazado_107236" data-name="Trazado 107236" d="M185.757,98.087a2.726,2.726,0,0,1,.267-1.232,2.017,2.017,0,0,1,.75-.849,2.046,2.046,0,0,1,1.1-.3,1.959,1.959,0,0,1,1.54.663,2.517,2.517,0,0,1,.581,1.744V98.2a2.79,2.79,0,0,1-.256,1.227,1.994,1.994,0,0,1-.75.843,2.081,2.081,0,0,1-1.116.3,1.953,1.953,0,0,1-1.535-.663,2.511,2.511,0,0,1-.581-1.744Zm.8.093a1.982,1.982,0,0,0,.36,1.25,1.22,1.22,0,0,0,1.93-.006,2.2,2.2,0,0,0,.355-1.337,1.976,1.976,0,0,0-.366-1.244,1.209,1.209,0,0,0-1.918,0,2.145,2.145,0,0,0-.36,1.36Z" transform="translate(-166.309 -83.235)"/>
        <path id="Trazado_107237" data-name="Trazado 107237" d="M195.529,95.793v.581a1.7,1.7,0,0,1,1.4-.674c.988,0,1.488.581,1.494,1.668v3.087h-.8V97.368a1.093,1.093,0,0,0-.233-.744.913.913,0,0,0-.7-.238,1.122,1.122,0,0,0-.68.2,1.407,1.407,0,0,0-.459.546v3.325h-.8V95.81Z" transform="translate(-170.076 -83.231)"/>
        <path id="Trazado_107238" data-name="Trazado 107238" d="M203.828,93.889v1.163h.872v.616h-.872v2.906a.622.622,0,0,0,.122.419.488.488,0,0,0,.4.14,1.907,1.907,0,0,0,.378-.052v.645a2.278,2.278,0,0,1-.581.087.994.994,0,0,1-.808-.326,1.4,1.4,0,0,1-.273-.918V95.662h-.86v-.639h.849V93.86Z" transform="translate(-173.196 -82.461)"/>
        <path id="Trazado_107239" data-name="Trazado 107239" d="M210.9,100.442a1.691,1.691,0,0,1-.11-.494,1.79,1.79,0,0,1-1.325.581,1.633,1.633,0,0,1-1.163-.4,1.244,1.244,0,0,1-.442-.988,1.325,1.325,0,0,1,.581-1.163,2.627,2.627,0,0,1,1.558-.4h.779v-.366a.9.9,0,0,0-.25-.668,1.017,1.017,0,0,0-.738-.244,1.163,1.163,0,0,0-.715.215.628.628,0,0,0-.291.517h-.8a1.093,1.093,0,0,1,.25-.674,1.662,1.662,0,0,1,.668-.512,2.267,2.267,0,0,1,.936-.192,1.86,1.86,0,0,1,1.267.4,1.471,1.471,0,0,1,.471,1.11v2.174a2.725,2.725,0,0,0,.163,1.023v.07Zm-1.32-.581a1.412,1.412,0,0,0,.709-.192,1.162,1.162,0,0,0,.488-.506V98.18h-.628c-.977,0-1.465.285-1.465.86a.721.721,0,0,0,.25.581.976.976,0,0,0,.645.209Z" transform="translate(-175.565 -83.212)"/>
        <path id="Trazado_107240" data-name="Trazado 107240" d="M220.353,96.855a2.8,2.8,0,0,1-.488,1.744,1.593,1.593,0,0,1-1.325.651,1.628,1.628,0,0,1-1.366-.628l-.035.541H216.4V92.49h.8v2.47a1.61,1.61,0,0,1,1.331-.581,1.587,1.587,0,0,1,1.337.645,2.86,2.86,0,0,1,.482,1.744Zm-.8-.087a2.162,2.162,0,0,0-.314-1.261,1.04,1.04,0,0,0-.907-.442,1.163,1.163,0,0,0-1.134.732v2.017a1.2,1.2,0,0,0,1.163.732,1.04,1.04,0,0,0,.9-.442,2.278,2.278,0,0,0,.3-1.36Z" transform="translate(-179.142 -81.887)"/>
        <path id="Trazado_107241" data-name="Trazado 107241" d="M224.94,93.394a.511.511,0,0,1,.116-.331.459.459,0,0,1,.355-.134.471.471,0,0,1,.355.134.511.511,0,0,1,.116.331.424.424,0,0,1-.471.453.477.477,0,0,1-.355-.128A.482.482,0,0,1,224.94,93.394Zm.86,5.906H225V94.65h.8Z" transform="translate(-182.717 -82.071)"/>
        <path id="Trazado_107242" data-name="Trazado 107242" d="M229.536,99.117h-.8V92.49h.8Z" transform="translate(-184.309 -81.887)"/>
        <path id="Trazado_107243" data-name="Trazado 107243" d="M232.309,93.394a.488.488,0,0,1,.122-.331.448.448,0,0,1,.349-.134.459.459,0,0,1,.355.134.488.488,0,0,1,.122.331.459.459,0,0,1-.122.326.477.477,0,0,1-.355.128.43.43,0,0,1-.471-.453Zm.866,5.906h-.8V94.65h.8Z" transform="translate(-185.803 -82.071)"/>
        <path id="Trazado_107244" data-name="Trazado 107244" d="M235.657,96.745A2.72,2.72,0,0,1,236.169,95a1.744,1.744,0,0,1,2.627-.093V92.49h.8v6.627h-.732l-.041-.5a1.633,1.633,0,0,1-1.331.581,1.593,1.593,0,0,1-1.325-.668,2.744,2.744,0,0,1-.512-1.744Zm.779.11a2.064,2.064,0,0,0,.331,1.244,1.058,1.058,0,0,0,.907.448,1.163,1.163,0,0,0,1.1-.68V95.693a1.163,1.163,0,0,0-1.1-.657,1.052,1.052,0,0,0-.913.448,2.267,2.267,0,0,0-.331,1.372Z" transform="translate(-187.203 -81.887)"/>
        <path id="Trazado_107245" data-name="Trazado 107245" d="M247.328,100.454a1.692,1.692,0,0,1-.11-.494,1.79,1.79,0,0,1-1.325.581,1.633,1.633,0,0,1-1.163-.4,1.244,1.244,0,0,1-.442-.988A1.325,1.325,0,0,1,244.84,98a2.628,2.628,0,0,1,1.6-.384h.779v-.366a.9.9,0,0,0-.25-.668,1.017,1.017,0,0,0-.738-.244,1.162,1.162,0,0,0-.715.215.628.628,0,0,0-.291.517h-.82a1.093,1.093,0,0,1,.25-.674,1.663,1.663,0,0,1,.668-.512,2.267,2.267,0,0,1,.936-.192,1.86,1.86,0,0,1,1.267.4A1.471,1.471,0,0,1,248,97.2v2.157a2.725,2.725,0,0,0,.163,1.023v.07Zm-1.32-.581a1.413,1.413,0,0,0,.709-.192,1.163,1.163,0,0,0,.488-.506v-.982h-.628c-.977,0-1.465.285-1.465.86a.721.721,0,0,0,.25.581.977.977,0,0,0,.645.209Z" transform="translate(-190.818 -83.225)"/>
        <path id="Trazado_107246" data-name="Trazado 107246" d="M252.5,96.745A2.72,2.72,0,0,1,253.009,95a1.6,1.6,0,0,1,1.331-.651,1.616,1.616,0,0,1,1.3.581V92.49h.8v6.627h-.738V98.6a1.639,1.639,0,0,1-1.337.581,1.587,1.587,0,0,1-1.32-.668,2.744,2.744,0,0,1-.512-1.744Zm.8.087a2.064,2.064,0,0,0,.331,1.244,1.052,1.052,0,0,0,.9.448,1.163,1.163,0,0,0,1.11-.68V95.693a1.163,1.163,0,0,0-1.1-.651,1.052,1.052,0,0,0-.913.448,2.267,2.267,0,0,0-.326,1.366Z" transform="translate(-194.254 -81.887)"/>
        <path id="Trazado_107247" data-name="Trazado 107247" d="M268.308,96.234a6.648,6.648,0,0,1,.262-1.872,5.47,5.47,0,0,1,.779-1.628,3.308,3.308,0,0,1,1.1-1.035l.163.523a3.487,3.487,0,0,0-1.035,1.476,6.505,6.505,0,0,0-.442,2.221v.366a6.476,6.476,0,0,0,.581,2.906,3.488,3.488,0,0,0,.872,1.163l-.163.488a3.377,3.377,0,0,1-1.093-1.07A6.01,6.01,0,0,1,268.308,96.234Z" transform="translate(-200.875 -81.557)"/>
        <path id="Trazado_107248" data-name="Trazado 107248" d="M278.6,99.364h-.831l-3.162-4.842v4.842h-.831V93.08h.831l3.168,4.865V93.08h.825Z" transform="translate(-203.168 -82.134)"/>
        <path id="Trazado_107249" data-name="Trazado 107249" d="M285.541,99.364h-.831V93.08h.831Z" transform="translate(-207.744 -82.134)"/>
        <path id="Trazado_107250" data-name="Trazado 107250" d="M293.2,97.327a2.325,2.325,0,0,1-.732,1.535,2.4,2.4,0,0,1-1.645.546,2.209,2.209,0,0,1-1.785-.8,3.2,3.2,0,0,1-.674-2.127V95.9a3.575,3.575,0,0,1,.314-1.54,2.325,2.325,0,0,1,.889-1.017,2.447,2.447,0,0,1,1.325-.36,2.244,2.244,0,0,1,1.6.581,2.325,2.325,0,0,1,.7,1.546h-.831a1.744,1.744,0,0,0-.471-1.093,1.4,1.4,0,0,0-1.006-.337,1.488,1.488,0,0,0-1.244.581,2.674,2.674,0,0,0-.448,1.668v.581a2.773,2.773,0,0,0,.424,1.628,1.383,1.383,0,0,0,1.2.581,1.6,1.6,0,0,0,1.058-.314,1.744,1.744,0,0,0,.488-1.087Z" transform="translate(-209.274 -82.091)"/>
        <path id="Trazado_107251" data-name="Trazado 107251" d="M299.754,96.281a6.656,6.656,0,0,1-.256,1.843,5.447,5.447,0,0,1-.773,1.628,3.4,3.4,0,0,1-1.087,1.064l-.169-.488a3.488,3.488,0,0,0,1.07-1.581,6.9,6.9,0,0,0,.413-2.383v-.134a7.027,7.027,0,0,0-.192-1.686,5.751,5.751,0,0,0-.529-1.4,3.22,3.22,0,0,0-.761-.965l.169-.482a3.354,3.354,0,0,1,1.087,1.052,5.494,5.494,0,0,1,.8,1.622A6.937,6.937,0,0,1,299.754,96.281Z" transform="translate(-213.087 -81.557)"/>
      </g>
    </g>
  </g>
</svg>
