<svg xmlns="http://www.w3.org/2000/svg" xmlns:xlink="http://www.w3.org/1999/xlink" width="512.992" height="464.816" viewBox="0 0 512.992 464.816">
  <defs>
    <clipPath id="clip-path">
      <path id="Trazado_107400" data-name="Trazado 107400" d="M270.5,170.6a73.627,73.627,0,0,1-8.778,30.028c-8.509,16.007-4.49,46.282-.258,44.823s30.039-18.578,33.553-28.31,2.739-24.269,8.98-39.772,10.283-24.3,10.283-24.3S277.038,170.11,270.5,170.6Z" transform="translate(-256.72 -153.07)" fill="none"/>
    </clipPath>
    <clipPath id="clip-path-2">
      <path id="Trazado_107404" data-name="Trazado 107404" d="M286.78,73.619a63.659,63.659,0,0,0-21.766,24.516c-8,16.266-7.5,37.773-7.5,37.773s.752,24.022-.505,33.519,10.552,16.266,16.007,16.524,22.507-11.012,30.522-14.268,10.26-3.761,17.961-11.506,21.025-31.285,21.777-44.531-1.471-28.658-13-38.02S303.281,65.369,286.78,73.619Z" transform="translate(-256.917 -68.769)" fill="none"/>
    </clipPath>
    <clipPath id="clip-path-3">
      <path id="Trazado_107419" data-name="Trazado 107419" d="M313.942,269.88s6.993,17.759,12,23.73,18.455,15.716,29.77,23.259,13.47,24.269,11.753,30.522-6.993,11.225-18.758,8-21.272-17.265-31.027-31.779-16.254-25.268-17.006-26.02S313.942,269.88,313.942,269.88Z" transform="translate(-300.644 -269.88)" fill="none"/>
    </clipPath>
    <clipPath id="clip-path-4">
      <path id="Trazado_107424" data-name="Trazado 107424" d="M323.442,447.029s6.522,2.391,20.015-2.862c19.24-7.454,49.908-32.722,49.908-32.722a126.275,126.275,0,0,1-44.812,0c-24.8-4.49-38.166-11.124-38.166-11.124l-26.077,37.2Z" transform="translate(-284.31 -400.32)" fill="none"/>
    </clipPath>
    <clipPath id="clip-path-5">
      <path id="Trazado_107428" data-name="Trazado 107428" d="M344.329,383.076s10.406-1.684,4.692,13.9-24.4,29.321-26.627,40.411.314,11.753.314,11.753l-32.419-6.982s2.548-24.157,20.34-42.589S344.329,383.076,344.329,383.076Z" transform="translate(-290.29 -383.018)" fill="none"/>
    </clipPath>
    <clipPath id="clip-path-6">
      <path id="Trazado_107433" data-name="Trazado 107433" d="M289.228,460.62s5.411-1.313,10.81-9.227,17.478-33.059,27.345-46.406,25.111-20.969,25.111-20.969l-77.253-8.587s-31.431,35.281-42.264,47.685-12.079,23.832-4.49,26.683,31.779,5.725,38.166,6.735S283.829,461.551,289.228,460.62Z" transform="translate(-223.657 -375.43)" fill="none"/>
    </clipPath>
    <clipPath id="clip-path-7">
      <path id="Trazado_107437" data-name="Trazado 107437" d="M316.553,372.865s6.354,0,2.862,10.17-24.157,36.909-30.836,55,4.76,24.471,4.76,24.471-2.537,3.817-39.727-4.12-61.01-8.913-63.266-15.267,12.348-23.517,17.792-37.179,19.083-45.766,19.083-45.766,54.05,10.541,65.478,11.439S316.553,372.865,316.553,372.865Z" transform="translate(-190.111 -360.18)" fill="none"/>
    </clipPath>
    <clipPath id="clip-path-8">
      <path id="Trazado_107442" data-name="Trazado 107442" d="M276.871,414.141s0,2.537,9.553-8.9,30.825-31.431,30.825-31.431L219.037,352.48s-27.974,28.894-31.431,33.339-6.05,5.714,3.177,9.856,55.364,9.227,65.107,11.764S276.871,414.141,276.871,414.141Z" transform="translate(-184.435 -352.48)" fill="none"/>
    </clipPath>
    <clipPath id="clip-path-9">
      <path id="Trazado_107449" data-name="Trazado 107449" d="M317.207,264.754s-2.189,7.162-5.366,31-7.858,51.165-14.3,71.506-18.758,49.908-19.7,53.714a7.858,7.858,0,0,0,1.572,6.668s-12.348-1.9-47.36-5.714-69.272-20.969-68.329-23.2,23.888-24.8,36.909-54.039S234,242,234,242s41.321,19.4,53.714,20.677S317.207,264.754,317.207,264.754Z" transform="translate(-163.703 -242)" fill="none"/>
    </clipPath>
    <clipPath id="clip-path-10">
      <path id="Trazado_107459" data-name="Trazado 107459" d="M315.307,265.687s-5.759,16.266-12.258,36.281A366.489,366.489,0,0,0,292.777,342s-4.49-2.5-38.009-14.009-75.558-25.56-75.558-25.56,31.521-37.044,38.166-54.78,10.26-14.5,25.818-8.5,37.044,17,49.526,18.252S315.307,263.218,315.307,265.687Z" transform="translate(-179.21 -234.383)" fill="none"/>
    </clipPath>
    <clipPath id="clip-path-11">
      <path id="Trazado_107465" data-name="Trazado 107465" d="M198.687,178.785s1.5,25.5,1.5,26.5-41.287,44.048-50.784,54.05-9.755,18.253-7.521,24.516,10.024,15.267,17.018,16.254,14.761-5.994,21.766-21.519,32.026-62.29,34.8-67.285S224.7,201.8,224.7,201.8s6.735-3.5,9.744-8.509,8.756-15.008,15.008-19.779,9.227-6.006,6.511-7.5-11.506,1.74-14.009,3.491-8,6.264-8,6.264-4.76-7.016-5.007-13.01,1.246-14.593-2.245-12.819-9.328,14.694-16.793,21.575C202.93,178.033,198.687,175.025,198.687,178.785Z" transform="translate(-140.728 -149.699)" fill="none"/>
    </clipPath>
  </defs>
  <g id="graficos_cf13_Recuperado__norma_copia_2" data-name="graficos cf13 [Recuperado]_norma copia 2" transform="translate(-18.99 -38.527)">
    <g id="freepik--background-simple--inject-143" transform="translate(37.397 57.241)">
      <path id="Trazado_107393" data-name="Trazado 107393" d="M174.608,90.369S94.627,136.506,57.706,202.41s-27.985,146.974,26.436,204.3,149.848,43.5,232.871,76.883,171.131,20.037,203.472-63.423-27.042-110.256-43.431-203.516S364.16-8.684,174.608,90.369Z" transform="translate(-35.388 -55.198)" fill="#eff6fc"/>
    </g>
    <g id="freepik--Pictures--inject-143" transform="translate(75.633 120.846)">
      <rect id="Rectángulo_8387" data-name="Rectángulo 8387" width="79.745" height="106.338" transform="translate(87.738 0)" fill="#b5b5b5"/>
      <rect id="Rectángulo_8388" data-name="Rectángulo 8388" width="65.13" height="86.84" transform="translate(95.045 9.744)" fill="#d9a171"/>
      <rect id="Rectángulo_8389" data-name="Rectángulo 8389" width="65.13" height="86.84" transform="translate(95.045 9.744)" fill="#5e6178" opacity="0.5"/>
      <rect id="Rectángulo_8390" data-name="Rectángulo 8390" width="67.79" height="90.387" transform="translate(0 62.032)" fill="#b5b5b5"/>
      <rect id="Rectángulo_8391" data-name="Rectángulo 8391" width="55.364" height="73.818" transform="translate(6.219 70.316)" fill="#d9a171"/>
      <rect id="Rectángulo_8392" data-name="Rectángulo 8392" width="55.364" height="73.818" transform="translate(6.219 70.316)" fill="#5e6178" opacity="0.5"/>
    </g>
    <g id="freepik--Window--inject-143" transform="translate(354.147 38.527)">
      <path id="Trazado_107394" data-name="Trazado 107394" d="M318.37,379.12H485.213V111.72H318.37Zm87-64.3h73.2V308.4H405.389V248.659h73.2v-6.477h-73.2V183.742h73.2v-6.488h-73.2V118.208h73.672v254.4H405.389ZM324.454,118.208h74.851v59.046H324.454Zm0,65.534h74.851v58.439H324.454Zm0,64.917h74.851V308.4H324.454Zm0,66.162h74.851v57.811H324.454Z" transform="translate(-317.461 -29.558)" fill="#aed3f2"/>
      <path id="Trazado_107395" data-name="Trazado 107395" d="M484.684,114.56a83.719,83.719,0,0,0-166.731,0l-.393,4.378H485.077ZM326.507,110.9a75.21,75.21,0,0,1,18.915-40.052L392.456,110.9Zm69.99-7.094L351.169,65.269A75.525,75.525,0,0,1,396.5,46.624Zm8.071-57.25a75.457,75.457,0,0,1,43.5,15.817l-43.5,40.86Zm3.547,64.344,46.024-43.24a75.3,75.3,0,0,1,22.1,43.24Z" transform="translate(-317.56 -38.527)" fill="#aed3f2"/>
    </g>
    <g id="freepik--Character--inject-143" transform="translate(58.593 72.475)">
      <path id="Trazado_107396" data-name="Trazado 107396" d="M278.306,186.31s-25.268,1.482-38.784,1.235-23.259-3.491-26.75,2.5-3.963,3.514-9.777,14.267-59.495,59.944-60.617,67.7c-1.751,12.224,10.911,20.969,17.961,22.72s45.014-36.269,45.014-36.269-3.862,61.953-5.108,87.446-2,100.321-2,100.321h129.6s-2.5-60.539-2.245-72.808,14.5-72.494,14.5-72.494-1.01,23.73,2.245,33.272,24.864,31.521,37.369,27.008,6.163-23.506,4.659-36.763-1.5-51.536-1.5-76.8,1.5-30.309-7.252-33.272-25.762-6.5-38.773-11.506-33.272-10.765-36.786-12.011S278.306,186.31,278.306,186.31Z" transform="translate(-43.493 -54.366)" fill="#344154" stroke="#263238" stroke-linecap="round" stroke-linejoin="round" stroke-width="1"/>
      <line id="Línea_302" data-name="Línea 302" x2="459.321" transform="translate(0 391.869)" fill="none" stroke="#263238" stroke-linecap="round" stroke-linejoin="round" stroke-width="1"/>
      <path id="Trazado_107397" data-name="Trazado 107397" d="M274.958,179.407s-8.251-.494-15.244,7.51-23.73,35.528-26.267,39.019,2.245,1.751,6.993,1.257,19.083-2.5,22.26-1.257,16.771,2.761,22.282,8.767,17.759,19.476,19.51,16.007,5.994-19.51,8-30.309,3.5-21.508-4.748-32.284S274.958,179.407,274.958,179.407Z" transform="translate(-32.4 -55.231)" fill="#5e6178" stroke="#263238" stroke-linecap="round" stroke-linejoin="round" stroke-width="1"/>
      <path id="Trazado_107398" data-name="Trazado 107398" d="M270.5,170.6a73.627,73.627,0,0,1-8.778,30.028c-8.509,16.007-4.49,46.282-.258,44.823s30.039-18.578,33.553-28.31,2.739-24.269,8.98-39.772,10.283-24.3,10.283-24.3S277.038,170.11,270.5,170.6Z" transform="translate(-29.462 -58.439)" fill="#ffbf9d"/>
      <g id="Grupo_57912" data-name="Grupo 57912" transform="translate(227.258 94.631)" clip-path="url(#clip-path)">
        <path id="Trazado_107399" data-name="Trazado 107399" d="M269.342,170.6a65.32,65.32,0,0,1-3.132,16.468,35.775,35.775,0,0,0,11.383,1.414c13.549,0,14.941-2.335,14.941-2.335s-2.806,20.082-6.073,29.893c-1.886,5.68-4.558,11.977-6.488,16.288,6.466-5.175,12.348-10.877,13.886-15.188,3.491-9.755,2.739-24.269,8.98-39.772s10.282-24.3,10.282-24.3S275.875,170.11,269.342,170.6Z" transform="translate(-255.557 -153.07)" opacity="0.15"/>
      </g>
      <path id="Trazado_107401" data-name="Trazado 107401" d="M270.5,170.6a73.627,73.627,0,0,1-8.778,30.028c-8.509,16.007-4.49,46.282-.258,44.823s30.039-18.578,33.553-28.31,2.739-24.269,8.98-39.772,10.283-24.3,10.283-24.3S277.038,170.11,270.5,170.6Z" transform="translate(-29.462 -58.439)" fill="none" stroke="#263238" stroke-linecap="round" stroke-linejoin="round" stroke-width="1"/>
      <path id="Trazado_107402" data-name="Trazado 107402" d="M286.78,73.619a63.659,63.659,0,0,0-21.766,24.516c-8,16.266-7.5,37.773-7.5,37.773s.752,24.022-.505,33.519,10.552,16.266,16.007,16.524,22.507-11.012,30.522-14.268,10.26-3.761,17.961-11.506,21.025-31.285,21.777-44.531-1.471-28.658-13-38.02S303.281,65.369,286.78,73.619Z" transform="translate(-29.438 -68.769)" fill="#ffbf9d"/>
      <g id="Grupo_57913" data-name="Grupo 57913" transform="translate(227.48 0)" clip-path="url(#clip-path-2)">
        <path id="Trazado_107403" data-name="Trazado 107403" d="M266.26,181.618a15.963,15.963,0,0,0,5.613,1.639c5.5.247,22.507-11.012,30.522-14.267s10.26-3.761,17.961-11.506,21.025-31.285,21.777-44.531A61.088,61.088,0,0,0,339.64,90.76a36.662,36.662,0,0,0-15.783,11.495c-9.34,11.686,0,21.093-7.858,33.676s-20.576,19.577-29.927,29.433S278.922,181.371,266.26,181.618Z" transform="translate(-255.772 -66.074)" opacity="0.15"/>
      </g>
      <path id="Trazado_107405" data-name="Trazado 107405" d="M286.78,73.619a63.659,63.659,0,0,0-21.766,24.516c-8,16.266-7.5,37.773-7.5,37.773s.752,24.022-.505,33.519,10.552,16.266,16.007,16.524,22.507-11.012,30.522-14.268,10.26-3.761,17.961-11.506,21.025-31.285,21.777-44.531-1.471-28.658-13-38.02S303.281,65.369,286.78,73.619Z" transform="translate(-29.438 -68.769)" fill="none" stroke="#263238" stroke-linecap="round" stroke-linejoin="round" stroke-width="1"/>
      <path id="Trazado_107406" data-name="Trazado 107406" d="M275.2,122.45s-3.514,1.751-3.514,3.761,2.5,2.492,2.5,2.492" transform="translate(-27.627 -62.191)" fill="none" stroke="#263238" stroke-linecap="round" stroke-linejoin="round" stroke-width="1"/>
      <path id="Trazado_107407" data-name="Trazado 107407" d="M276.625,123.12s-3.514,3.951-1.751,6.5,6.993.752,6.993.752-.247,1.257,2.761,1.5,4.748-3.5,3-5.994l-1.751-2.514" transform="translate(-27.298 -62.109)" fill="none" stroke="#263238" stroke-linecap="round" stroke-linejoin="round" stroke-width="1"/>
      <path id="Trazado_107408" data-name="Trazado 107408" d="M279.049,111.419c-.606,1.807-1.8,3.042-2.638,2.761s-1.123-2-.494-3.805,1.785-3.042,2.638-2.75S279.644,109.6,279.049,111.419Z" transform="translate(-27.151 -64.013)" fill="#344154" stroke="#263238" stroke-linecap="round" stroke-linejoin="round" stroke-width="1"/>
      <path id="Trazado_107409" data-name="Trazado 107409" d="M280,108.446a3.749,3.749,0,0,0-4.883-2.065l-.135.056c-3.5,1.5-5.265,10.271-1.5,12.011" transform="translate(-27.666 -64.194)" fill="none" stroke="#263238" stroke-linecap="round" stroke-linejoin="round" stroke-width="1"/>
      <path id="Trazado_107410" data-name="Trazado 107410" d="M297.769,116.747c-.606,1.83-1.8,3.053-2.638,2.773s-1.123-1.987-.494-3.794,1.8-3.042,2.638-2.761S298.353,114.951,297.769,116.747Z" transform="translate(-24.857 -63.358)" fill="#344154" stroke="#263238" stroke-linecap="round" stroke-linejoin="round" stroke-width="1"/>
      <path id="Trazado_107411" data-name="Trazado 107411" d="M298.711,113.8a3.727,3.727,0,0,0-4.849-2.065H293.7c-3.491,1.5-5.276,10.26-1.5,12.011" transform="translate(-25.372 -63.538)" fill="none" stroke="#263238" stroke-linecap="round" stroke-linejoin="round" stroke-width="1"/>
      <path id="Trazado_107412" data-name="Trazado 107412" d="M270.1,144.135c-1.5-.752-8.015-4.76-7.768-7.263s2.761-6.039,5.242-3.794,8.98,7.016,8.98,7.016,3.761,4.49,10.754,1.313" transform="translate(-28.775 -60.976)" fill="none" stroke="#263238" stroke-linecap="round" stroke-linejoin="round" stroke-width="1"/>
      <path id="Trazado_107413" data-name="Trazado 107413" d="M269.7,101.679s3.244-6.253,7.746-6.735,6.735,4.49,6.735,5.265" transform="translate(-27.871 -65.566)" fill="none" stroke="#263238" stroke-linecap="round" stroke-linejoin="round" stroke-width="4"/>
      <path id="Trazado_107414" data-name="Trazado 107414" d="M292,103.84s4.49,5.512,14.5,6.017" transform="translate(-25.139 -64.471)" fill="none" stroke="#263238" stroke-linecap="round" stroke-linejoin="round" stroke-width="4"/>
      <path id="Trazado_107415" data-name="Trazado 107415" d="M340.388,115.643c.741-13.257-1.5-28.771-13.01-38.02s-27.02-12.258-43.5-3.963c0,0-1.212.73-3.109,2.167a30.309,30.309,0,0,0,20.879,11.6c15.5,1.751,20.509-1.313,25.044,2.009s5.747,12.258,2.492,15.244-11,2.761-11.506,7.263,7.263,15.267,6.264,18.758-3.008,5.77-1.5,7.263,5.759-.494,6.735-1,.471,5.613-2.447,12.617C333.249,139.126,339.861,124.892,340.388,115.643Z" transform="translate(-26.515 -68.764)" fill="#344154" stroke="#263238" stroke-linecap="round" stroke-linejoin="round" stroke-width="1"/>
      <path id="Trazado_107416" data-name="Trazado 107416" d="M315.493,135.9s6.264-8.251,10.754-8.251,6.735,7.252,4.266,14.009-7,10.26-12.516,10.754-5.994-2.245-5.489-3.951" transform="translate(-22.644 -61.554)" fill="#ffbf9d" stroke="#263238" stroke-linecap="round" stroke-linejoin="round" stroke-width="1"/>
      <path id="Trazado_107417" data-name="Trazado 107417" d="M313.942,269.88s6.993,17.759,12,23.73,18.455,15.716,29.77,23.259,13.47,24.269,11.753,30.522-6.993,11.225-18.758,8-21.272-17.265-31.027-31.779-16.254-25.268-17.006-26.02S313.942,269.88,313.942,269.88Z" transform="translate(-24.079 -44.125)" fill="#ffbf9d"/>
      <g id="Grupo_57914" data-name="Grupo 57914" transform="translate(276.565 225.755)" clip-path="url(#clip-path-3)">
        <path id="Trazado_107418" data-name="Trazado 107418" d="M367.464,347.461c1.751-6.253-.494-23.012-11.753-30.511s-24.774-17.276-29.77-23.27-12-23.73-12-23.73-14.021,27-13.268,27.682,7.252,11.506,17.006,26.02l.348.516,6.735-10.327S361.2,341.9,362.132,348.415a26.25,26.25,0,0,1,0,6.365,11.966,11.966,0,0,0,5.332-7.319Z" transform="translate(-300.644 -269.871)" opacity="0.15"/>
      </g>
      <path id="Trazado_107420" data-name="Trazado 107420" d="M313.942,269.88s6.993,17.759,12,23.73,18.455,15.716,29.77,23.259,13.47,24.269,11.753,30.522-6.993,11.225-18.758,8-21.272-17.265-31.027-31.779-16.254-25.268-17.006-26.02S313.942,269.88,313.942,269.88Z" transform="translate(-24.079 -44.125)" fill="none" stroke="#263238" stroke-linecap="round" stroke-linejoin="round" stroke-width="1"/>
      <path id="Trazado_107421" data-name="Trazado 107421" d="M323.442,447.029s6.522,2.391,20.015-2.862c19.24-7.454,49.908-32.722,49.908-32.722a126.275,126.275,0,0,1-44.812,0c-24.8-4.49-38.166-11.124-38.166-11.124l-26.077,37.2Z" transform="translate(-26.081 -28.141)" fill="#fff"/>
      <g id="Grupo_57916" data-name="Grupo 57916" transform="translate(258.229 372.179)" clip-path="url(#clip-path-4)">
        <g id="Grupo_57915" data-name="Grupo 57915">
          <path id="Trazado_107422" data-name="Trazado 107422" d="M323.442,447.029s6.522,2.391,20.015-2.862c19.24-7.454,49.908-32.722,49.908-32.722a126.275,126.275,0,0,1-44.812,0c-24.8-4.49-38.166-11.124-38.166-11.124l-26.077,37.2Z" transform="translate(-284.31 -400.32)" fill="#d9a171"/>
          <path id="Trazado_107423" data-name="Trazado 107423" d="M323.442,447.029s6.522,2.391,20.015-2.862c19.24-7.454,49.908-32.722,49.908-32.722a126.275,126.275,0,0,1-44.812,0c-24.8-4.49-38.166-11.124-38.166-11.124l-26.077,37.2Z" transform="translate(-284.31 -400.32)" fill="#fff" opacity="0.5"/>
        </g>
      </g>
      <path id="Trazado_107425" data-name="Trazado 107425" d="M323.442,447.029s6.522,2.391,20.015-2.862c19.24-7.454,49.908-32.722,49.908-32.722a126.275,126.275,0,0,1-44.812,0c-24.8-4.49-38.166-11.124-38.166-11.124l-26.077,37.2Z" transform="translate(-26.081 -28.141)" fill="none" stroke="#263238" stroke-linecap="round" stroke-linejoin="round" stroke-width="1"/>
      <line id="Línea_303" data-name="Línea 303" x2="50.189" y2="8.419" transform="translate(262.113 405.552)" fill="none" stroke="#263238" stroke-linecap="round" stroke-linejoin="round" stroke-width="1"/>
      <line id="Línea_304" data-name="Línea 304" x1="49.818" y1="9.16" transform="translate(269.443 400.422)" fill="none" stroke="#263238" stroke-linecap="round" stroke-linejoin="round" stroke-width="1"/>
      <line id="Línea_305" data-name="Línea 305" x1="42.859" y1="7.701" transform="translate(281.533 397.481)" fill="none" stroke="#263238" stroke-linecap="round" stroke-linejoin="round" stroke-width="1"/>
      <line id="Línea_306" data-name="Línea 306" x1="40.67" y1="7.678" transform="translate(291.052 392.003)" fill="none" stroke="#263238" stroke-linecap="round" stroke-linejoin="round" stroke-width="1"/>
      <line id="Línea_307" data-name="Línea 307" x1="38.481" y1="6.589" transform="translate(295.812 388.333)" fill="none" stroke="#263238" stroke-linecap="round" stroke-linejoin="round" stroke-width="1"/>
      <path id="Trazado_107426" data-name="Trazado 107426" d="M344.329,383.076s10.406-1.684,4.692,13.9-24.4,29.321-26.627,40.411.314,11.753.314,11.753l-32.419-6.982s2.548-24.157,20.34-42.589S344.329,383.076,344.329,383.076Z" transform="translate(-25.348 -30.261)" fill="#fff"/>
      <g id="Grupo_57917" data-name="Grupo 57917" transform="translate(264.942 352.757)" clip-path="url(#clip-path-5)">
        <path id="Trazado_107427" data-name="Trazado 107427" d="M344.329,383.076s10.406-1.684,4.692,13.9-24.4,29.321-26.627,40.411.314,11.753.314,11.753l-32.419-6.982s2.548-24.157,20.34-42.589S344.329,383.076,344.329,383.076Z" transform="translate(-290.29 -383.018)" opacity="0.15"/>
      </g>
      <path id="Trazado_107429" data-name="Trazado 107429" d="M344.329,383.076s10.406-1.684,4.692,13.9-24.4,29.321-26.627,40.411.314,11.753.314,11.753l-32.419-6.982s2.548-24.157,20.34-42.589S344.329,383.076,344.329,383.076Z" transform="translate(-25.348 -30.261)" fill="none" stroke="#263238" stroke-linecap="round" stroke-linejoin="round" stroke-width="1"/>
      <path id="Trazado_107430" data-name="Trazado 107430" d="M289.228,460.62s5.411-1.313,10.81-9.227,17.478-33.059,27.345-46.406,25.111-20.969,25.111-20.969l-77.253-8.587s-31.431,35.281-42.264,47.685-12.079,23.832-4.49,26.683,31.779,5.725,38.166,6.735S283.829,461.551,289.228,460.62Z" transform="translate(-33.513 -31.191)" fill="#fff"/>
      <g id="Grupo_57919" data-name="Grupo 57919" transform="translate(190.143 344.239)" clip-path="url(#clip-path-6)">
        <g id="Grupo_57918" data-name="Grupo 57918">
          <path id="Trazado_107431" data-name="Trazado 107431" d="M289.228,460.62s5.411-1.313,10.81-9.227,17.478-33.059,27.345-46.406,25.111-20.969,25.111-20.969l-77.253-8.587s-31.431,35.281-42.264,47.685-12.079,23.832-4.49,26.683,31.779,5.725,38.166,6.735S283.829,461.551,289.228,460.62Z" transform="translate(-223.657 -375.43)" fill="#d9a171"/>
          <path id="Trazado_107432" data-name="Trazado 107432" d="M289.228,460.62s5.411-1.313,10.81-9.227,17.478-33.059,27.345-46.406,25.111-20.969,25.111-20.969l-77.253-8.587s-31.431,35.281-42.264,47.685-12.079,23.832-4.49,26.683,31.779,5.725,38.166,6.735S283.829,461.551,289.228,460.62Z" transform="translate(-223.657 -375.43)" fill="#fff" opacity="0.5"/>
        </g>
      </g>
      <path id="Trazado_107434" data-name="Trazado 107434" d="M289.228,460.62s5.411-1.313,10.81-9.227,17.478-33.059,27.345-46.406,25.111-20.969,25.111-20.969l-77.253-8.587s-31.431,35.281-42.264,47.685-12.079,23.832-4.49,26.683,31.779,5.725,38.166,6.735S283.829,461.551,289.228,460.62Z" transform="translate(-33.513 -31.191)" fill="none" stroke="#263238" stroke-linecap="round" stroke-linejoin="round" stroke-width="1"/>
      <line id="Línea_308" data-name="Línea 308" x1="69.44" y1="14.761" transform="translate(191.068 403.734)" fill="none" stroke="#263238" stroke-linecap="round" stroke-linejoin="round" stroke-width="1"/>
      <line id="Línea_309" data-name="Línea 309" x1="69.452" y1="14.773" transform="translate(195.423 394.978)" fill="none" stroke="#263238" stroke-linecap="round" stroke-linejoin="round" stroke-width="1"/>
      <line id="Línea_310" data-name="Línea 310" x1="69.452" y1="14.761" transform="translate(200.901 385.145)" fill="none" stroke="#263238" stroke-linecap="round" stroke-linejoin="round" stroke-width="1"/>
      <line id="Línea_311" data-name="Línea 311" x1="69.452" y1="14.761" transform="translate(206.918 373.111)" fill="none" stroke="#263238" stroke-linecap="round" stroke-linejoin="round" stroke-width="1"/>
      <line id="Línea_312" data-name="Línea 312" x1="69.44" y1="14.761" transform="translate(213.485 361.077)" fill="none" stroke="#263238" stroke-linecap="round" stroke-linejoin="round" stroke-width="1"/>
      <line id="Línea_313" data-name="Línea 313" x1="69.452" y1="14.761" transform="translate(218.94 351.244)" fill="none" stroke="#263238" stroke-linecap="round" stroke-linejoin="round" stroke-width="1"/>
      <line id="Línea_314" data-name="Línea 314" x1="69.452" y1="14.761" transform="translate(227.157 343.588)" fill="none" stroke="#263238" stroke-linecap="round" stroke-linejoin="round" stroke-width="1"/>
      <path id="Trazado_107435" data-name="Trazado 107435" d="M316.553,372.865s6.354,0,2.862,10.17-24.157,36.909-30.836,55,4.76,24.471,4.76,24.471-2.537,3.817-39.727-4.12-61.01-8.913-63.266-15.267,12.348-23.517,17.792-37.179,19.083-45.766,19.083-45.766,54.05,10.541,65.478,11.439S316.553,372.865,316.553,372.865Z" transform="translate(-37.624 -33.06)" fill="#fff"/>
      <g id="Grupo_57920" data-name="Grupo 57920" transform="translate(152.487 327.12)" clip-path="url(#clip-path-7)">
        <path id="Trazado_107436" data-name="Trazado 107436" d="M315.417,372.873s-12.4-.326-23.843-1.325S226.1,360.11,226.1,360.11s-13.661,32.093-19.083,45.766a102.659,102.659,0,0,1-7.633,14.5l87,20.969a24.678,24.678,0,0,1,1.123-3.368c6.668-18.107,27.323-44.812,30.825-55S315.417,372.873,315.417,372.873Z" transform="translate(-188.975 -360.189)" opacity="0.15"/>
      </g>
      <path id="Trazado_107438" data-name="Trazado 107438" d="M316.553,372.865s6.354,0,2.862,10.17-24.157,36.909-30.836,55,4.76,24.471,4.76,24.471-2.537,3.817-39.727-4.12-61.01-8.913-63.266-15.267,12.348-23.517,17.792-37.179,19.083-45.766,19.083-45.766,54.05,10.541,65.478,11.439S316.553,372.865,316.553,372.865Z" transform="translate(-37.624 -33.06)" fill="none" stroke="#263238" stroke-linecap="round" stroke-linejoin="round" stroke-width="1"/>
      <path id="Trazado_107439" data-name="Trazado 107439" d="M276.871,414.141s0,2.537,9.553-8.9,30.825-31.431,30.825-31.431L219.037,352.48s-27.974,28.894-31.431,33.339-6.05,5.714,3.177,9.856,55.364,9.227,65.107,11.764S276.871,414.141,276.871,414.141Z" transform="translate(-38.32 -34.003)" fill="#fff"/>
      <g id="Grupo_57922" data-name="Grupo 57922" transform="translate(146.116 318.477)" clip-path="url(#clip-path-8)">
        <g id="Grupo_57921" data-name="Grupo 57921">
          <path id="Trazado_107440" data-name="Trazado 107440" d="M276.871,414.141s0,2.537,9.553-8.9,30.825-31.431,30.825-31.431L219.037,352.48s-27.974,28.894-31.431,33.339-6.05,5.714,3.177,9.856,55.364,9.227,65.107,11.764S276.871,414.141,276.871,414.141Z" transform="translate(-184.435 -352.48)" fill="#d9a171"/>
          <path id="Trazado_107441" data-name="Trazado 107441" d="M276.871,414.141s0,2.537,9.553-8.9,30.825-31.431,30.825-31.431L219.037,352.48s-27.974,28.894-31.431,33.339-6.05,5.714,3.177,9.856,55.364,9.227,65.107,11.764S276.871,414.141,276.871,414.141Z" transform="translate(-184.435 -352.48)" fill="#fff" opacity="0.5"/>
        </g>
      </g>
      <path id="Trazado_107443" data-name="Trazado 107443" d="M276.871,414.141s0,2.537,9.553-8.9,30.825-31.431,30.825-31.431L219.037,352.48s-27.974,28.894-31.431,33.339-6.05,5.714,3.177,9.856,55.364,9.227,65.107,11.764S276.871,414.141,276.871,414.141Z" transform="translate(-38.32 -34.003)" fill="none" stroke="#263238" stroke-linecap="round" stroke-linejoin="round" stroke-width="1"/>
      <path id="Trazado_107444" data-name="Trazado 107444" d="M281.69,399.511s-59.315-6.96-75.85-10.271" transform="translate(-35.697 -29.499)" fill="none" stroke="#263238" stroke-linecap="round" stroke-linejoin="round" stroke-width="1"/>
      <path id="Trazado_107445" data-name="Trazado 107445" d="M283.441,390.619s-35.192-3.659-49.841-6.589" transform="translate(-32.295 -30.137)" fill="none" stroke="#263238" stroke-linecap="round" stroke-linejoin="round" stroke-width="1"/>
      <path id="Trazado_107446" data-name="Trazado 107446" d="M290.75,382.239s-43.229-7.689-54.23-10.619" transform="translate(-31.937 -31.658)" fill="none" stroke="#263238" stroke-linecap="round" stroke-linejoin="round" stroke-width="1"/>
      <line id="Línea_315" data-name="Línea 315" x1="51.671" y1="12.09" transform="translate(214.102 330.802)" fill="none" stroke="#263238" stroke-linecap="round" stroke-linejoin="round" stroke-width="1"/>
      <path id="Trazado_107447" data-name="Trazado 107447" d="M317.207,264.754s-2.189,7.162-5.366,31-7.858,51.165-14.3,71.506-18.758,49.908-19.7,53.714a7.858,7.858,0,0,0,1.572,6.668s-12.348-1.9-47.36-5.714-69.272-20.969-68.329-23.2,23.888-24.8,36.909-54.039S234,242,234,242s41.321,19.4,53.714,20.677S317.207,264.754,317.207,264.754Z" transform="translate(-40.86 -47.541)" fill="#fff"/>
      <g id="Grupo_57923" data-name="Grupo 57923" transform="translate(122.843 194.459)" clip-path="url(#clip-path-9)">
        <path id="Trazado_107448" data-name="Trazado 107448" d="M307.112,295.775c3.177-23.843,5.366-31,5.366-31s-17.141-.786-29.523-2.054-53.714-20.666-53.714-20.666-14.593,52.58-26.941,86.436L296.122,355.8a536.43,536.43,0,0,0,10.99-60.022Z" transform="translate(-158.973 -241.994)" opacity="0.15"/>
      </g>
      <path id="Trazado_107450" data-name="Trazado 107450" d="M317.207,264.754s-2.189,7.162-5.366,31-7.858,51.165-14.3,71.506-18.758,49.908-19.7,53.714a7.858,7.858,0,0,0,1.572,6.668s-12.348-1.9-47.36-5.714-69.272-20.969-68.329-23.2,23.888-24.8,36.909-54.039S234,242,234,242s41.321,19.4,53.714,20.677S317.207,264.754,317.207,264.754Z" transform="translate(-40.86 -47.541)" fill="none" stroke="#263238" stroke-linecap="round" stroke-linejoin="round" stroke-width="1"/>
      <path id="Trazado_107451" data-name="Trazado 107451" d="M310.737,249.657s6.253,1.493,8,11.225,1.5,34.024.752,37.044-21.519,5.747-30.522,6.8-4.254-2.245-.247-16.513,8.251-24.774,10.26-27.76S305.226,246.649,310.737,249.657Z" transform="translate(-26.14 -46.667)" fill="#ffbf9d" stroke="#263238" stroke-linecap="round" stroke-linejoin="round" stroke-width="1"/>
      <path id="Trazado_107452" data-name="Trazado 107452" d="M304.015,259.53s1.639,34.911,2.324,38.773-22.889,5.613-22.889,5.613l14.492-40.647" transform="translate(-26.186 -45.393)" opacity="0.15"/>
      <path id="Trazado_107453" data-name="Trazado 107453" d="M305.611,305.924s-8.5,6.006-11.506,7.51-19.049-4.95-19.51-7.263,2.761-1.751,7.252-1.313,12.258,1.751,15.514.494S306.363,302.972,305.611,305.924Z" transform="translate(-27.277 -39.937)" fill="#ffbf9d" stroke="#263238" stroke-linecap="round" stroke-linejoin="round" stroke-width="1"/>
      <path id="Trazado_107454" data-name="Trazado 107454" d="M316.425,296.391s-2.75,7.521-6.264,9.755-17.747,4.49-24.011,3.963-11.506-4.49-10-6.735-.258-1,8.251-2.245,19.016-2.009,23.506-3.514A25.212,25.212,0,0,1,316.425,296.391Z" transform="translate(-27.113 -40.878)" fill="#ffbf9d" stroke="#263238" stroke-linecap="round" stroke-linejoin="round" stroke-width="1"/>
      <path id="Trazado_107455" data-name="Trazado 107455" d="M317.424,283.24s-9.508,5.007-17.253,8.52a80.9,80.9,0,0,1-7.779,2.885,83.939,83.939,0,0,1-9.5.606c-5.489,0-8.745-.483-8.745,1.751,0,3.424,5.994,5.276,8.542,5.972,8.846,2.537,19.263-.561,28.176-2.032a18.7,18.7,0,0,0,5.613-1.7c4.625-2.245,5.489-7.757,4.737-11.012l-.3-.393" transform="translate(-27.326 -42.488)" fill="#ffbf9d" stroke="#263238" stroke-linecap="round" stroke-linejoin="round" stroke-width="1"/>
      <path id="Trazado_107456" data-name="Trazado 107456" d="M315.307,265.687s-5.759,16.266-12.258,36.281A366.489,366.489,0,0,0,292.777,342s-4.49-2.5-38.009-14.009-75.558-25.56-75.558-25.56,31.521-37.044,38.166-54.78,10.26-14.5,25.818-8.5,37.044,17,49.526,18.252S315.307,263.218,315.307,265.687Z" transform="translate(-38.96 -48.475)" fill="#fff"/>
      <g id="Grupo_57925" data-name="Grupo 57925" transform="translate(140.25 185.909)" clip-path="url(#clip-path-10)">
        <g id="Grupo_57924" data-name="Grupo 57924">
          <path id="Trazado_107457" data-name="Trazado 107457" d="M315.307,265.687s-5.759,16.266-12.258,36.281A366.489,366.489,0,0,0,292.777,342s-4.49-2.5-38.009-14.009-75.558-25.56-75.558-25.56,31.521-37.044,38.166-54.78,10.26-14.5,25.818-8.5,37.044,17,49.526,18.252S315.307,263.218,315.307,265.687Z" transform="translate(-179.21 -234.383)" fill="#d9a171"/>
          <path id="Trazado_107458" data-name="Trazado 107458" d="M315.307,265.687s-5.759,16.266-12.258,36.281A366.489,366.489,0,0,0,292.777,342s-4.49-2.5-38.009-14.009-75.558-25.56-75.558-25.56,31.521-37.044,38.166-54.78,10.26-14.5,25.818-8.5,37.044,17,49.526,18.252S315.307,263.218,315.307,265.687Z" transform="translate(-179.21 -234.383)" fill="#fff" opacity="0.5"/>
        </g>
      </g>
      <path id="Trazado_107460" data-name="Trazado 107460" d="M315.307,265.687s-5.759,16.266-12.258,36.281A366.489,366.489,0,0,0,292.777,342s-4.49-2.5-38.009-14.009-75.558-25.56-75.558-25.56,31.521-37.044,38.166-54.78,10.26-14.5,25.818-8.5,37.044,17,49.526,18.252S315.307,263.218,315.307,265.687Z" transform="translate(-38.96 -48.475)" fill="none" stroke="#263238" stroke-linecap="round" stroke-linejoin="round" stroke-width="1"/>
      <line id="Línea_316" data-name="Línea 316" x1="83.899" y1="28.939" transform="translate(167.943 241.403)" fill="none" stroke="#263238" stroke-linecap="round" stroke-linejoin="round" stroke-width="1"/>
      <line id="Línea_317" data-name="Línea 317" x1="80.834" y1="27.873" transform="translate(174.533 232.614)" fill="none" stroke="#263238" stroke-linecap="round" stroke-linejoin="round" stroke-width="1"/>
      <line id="Línea_318" data-name="Línea 318" x1="78.409" y1="27.121" transform="translate(180.403 223.443)" fill="none" stroke="#263238" stroke-linecap="round" stroke-linejoin="round" stroke-width="1"/>
      <line id="Línea_319" data-name="Línea 319" x1="73.279" y1="24.92" transform="translate(188.463 213.553)" fill="none" stroke="#263238" stroke-linecap="round" stroke-linejoin="round" stroke-width="1"/>
      <line id="Línea_320" data-name="Línea 320" x1="68.161" y1="24.191" transform="translate(195.782 202.923)" fill="none" stroke="#263238" stroke-linecap="round" stroke-linejoin="round" stroke-width="1"/>
      <ellipse id="Elipse_4129" data-name="Elipse 4129" cx="3.3" cy="2.391" rx="3.3" ry="2.391" transform="translate(160.243 237.733)" fill="none" stroke="#263238" stroke-linecap="round" stroke-linejoin="round" stroke-width="1"/>
      <ellipse id="Elipse_4130" data-name="Elipse 4130" cx="3.3" cy="2.391" rx="3.3" ry="2.391" transform="translate(167.202 228.943)" fill="none" stroke="#263238" stroke-linecap="round" stroke-linejoin="round" stroke-width="1"/>
      <ellipse id="Elipse_4131" data-name="Elipse 4131" cx="3.3" cy="2.391" rx="3.3" ry="2.391" transform="translate(172.692 220.692)" fill="none" stroke="#263238" stroke-linecap="round" stroke-linejoin="round" stroke-width="1"/>
      <ellipse id="Elipse_4132" data-name="Elipse 4132" cx="3.3" cy="2.391" rx="3.3" ry="2.391" transform="translate(178.562 209.321)" fill="none" stroke="#263238" stroke-linecap="round" stroke-linejoin="round" stroke-width="1"/>
      <path id="Trazado_107461" data-name="Trazado 107461" d="M226.789,247.85c0-1.313-1.471-2.38-3.289-2.38s-3.3,1.066-3.3,2.38,1.482,2.38,3.3,2.38S226.789,249.152,226.789,247.85Z" transform="translate(-33.937 -47.116)" fill="none" stroke="#263238" stroke-linecap="round" stroke-linejoin="round" stroke-width="1"/>
      <path id="Trazado_107462" data-name="Trazado 107462" d="M310.324,257.8s-7.757,13.47-12.763,15.525-19.51-.258-18.455-3.514,8.251-4.254,13.01-10.541,8.98-14.5,13.47-13.257,7.757,6.488,8.015,8.251" transform="translate(-26.725 -47.065)" fill="#ffbf9d" stroke="#263238" stroke-linecap="round" stroke-linejoin="round" stroke-width="1"/>
      <path id="Trazado_107463" data-name="Trazado 107463" d="M198.687,178.785s1.5,25.5,1.5,26.5-41.287,44.048-50.784,54.05-9.755,18.253-7.521,24.516,10.024,15.267,17.018,16.254,14.761-5.994,21.766-21.519,32.026-62.29,34.8-67.285S224.7,201.8,224.7,201.8s6.735-3.5,9.744-8.509,8.756-15.008,15.008-19.779,9.227-6.006,6.511-7.5-11.506,1.74-14.009,3.491-8,6.264-8,6.264-4.76-7.016-5.007-13.01,1.246-14.593-2.245-12.819-9.328,14.694-16.793,21.575C202.93,178.033,198.687,175.025,198.687,178.785Z" transform="translate(-43.675 -58.852)" fill="#ffbf9d"/>
      <g id="Grupo_57926" data-name="Grupo 57926" transform="translate(97.053 90.848)" clip-path="url(#clip-path-11)">
        <path id="Trazado_107464" data-name="Trazado 107464" d="M255.548,166.021c-2.75-1.493-11.506,1.74-14.009,3.5s-8,6.253-8,6.253-4.76-7-5.007-13.01,1.257-14.593-2.245-12.819-9.34,14.683-16.76,21.575a18.511,18.511,0,0,1-6.735,4.221l-1.246,5.276s5.141,3.278,5.141,7.476,6.589,5.613,6.993,9.811-2.8,8.868-5.141,11.686-40.176,68.194-49.987,76.142c-4.1,3.312-9.485,3.615-14.38,2.851,3.457,5.209,9.126,10.451,14.369,11.225,7,1,14.761-6.006,21.766-21.519s32.026-62.29,34.8-67.285,9.216-9.508,9.216-9.508,6.735-3.5,9.755-8.509,8.688-15.042,14.93-19.779S258.31,167.514,255.548,166.021Z" transform="translate(-140.306 -149.698)" opacity="0.15"/>
      </g>
      <path id="Trazado_107466" data-name="Trazado 107466" d="M198.687,178.785s1.5,25.5,1.5,26.5-41.287,44.048-50.784,54.05-9.755,18.253-7.521,24.516,10.024,15.267,17.018,16.254,14.761-5.994,21.766-21.519,32.026-62.29,34.8-67.285S224.7,201.8,224.7,201.8s6.735-3.5,9.744-8.509,8.756-15.008,15.008-19.779,9.227-6.006,6.511-7.5-11.506,1.74-14.009,3.491-8,6.264-8,6.264-4.76-7.016-5.007-13.01,1.246-14.593-2.245-12.819-9.328,14.694-16.793,21.575C202.93,178.033,198.687,175.025,198.687,178.785Z" transform="translate(-43.675 -58.852)" fill="none" stroke="#263238" stroke-linecap="round" stroke-linejoin="round" stroke-width="1"/>
      <path id="Trazado_107467" data-name="Trazado 107467" d="M267.306,151.249l.112.2a2.874,2.874,0,0,1-1.123,3.929h0l-47.551,26.368-9.2,2.009,6.286-7.229,47.562-26.368a2.9,2.9,0,0,1,3.918,1.089Z" transform="translate(-35.243 -58.84)" fill="#d9a171" stroke="#263238" stroke-linecap="round" stroke-linejoin="round" stroke-width="1"/>
      <path id="Trazado_107468" data-name="Trazado 107468" d="M218.745,178.873l.337-.2-2.919-5.231-.348.18-6.275,7.24Z" transform="translate(-35.243 -55.943)" fill="#fff" stroke="#263238" stroke-linecap="round" stroke-linejoin="round" stroke-width="1"/>
      <path id="Trazado_107469" data-name="Trazado 107469" d="M256.049,158.12l4.906-2.739a2.885,2.885,0,0,0,1.123-3.918h0l-.112-.191a2.9,2.9,0,0,0-3.929-1.123h0l-4.905,2.739Z" transform="translate(-29.902 -58.841)" fill="#fff" stroke="#263238" stroke-linecap="round" stroke-linejoin="round" stroke-width="1"/>
      <rect id="Rectángulo_8393" data-name="Rectángulo 8393" width="3.008" height="6.006" transform="translate(221.258 95.149) rotate(-29.17)" fill="#fff" stroke="#263238" stroke-linecap="round" stroke-linejoin="round" stroke-width="1"/>
      <path id="Trazado_107470" data-name="Trazado 107470" d="M209.54,180.423l4.333-.954-1.381-2.458Z" transform="translate(-35.243 -55.505)" fill="#fff" stroke="#263238" stroke-linecap="round" stroke-linejoin="round" stroke-width="1"/>
      <path id="Trazado_107471" data-name="Trazado 107471" d="M202.992,181s-.752,6.017-5.512,6.253" transform="translate(-36.721 -55.016)" fill="none" stroke="#263238" stroke-linecap="round" stroke-linejoin="round" stroke-width="1"/>
      <path id="Trazado_107472" data-name="Trazado 107472" d="M214.41,154.893s8.756,14.009,11.764,16.771,6.735,2.245,7.5-.258-4.243-7.746-6.253-14.492-2.75-8.756-6.735-7.757S214.668,152.378,214.41,154.893Z" transform="translate(-34.646 -58.948)" fill="#ffbf9d" stroke="#263238" stroke-linecap="round" stroke-linejoin="round" stroke-width="1"/>
      <path id="Trazado_107473" data-name="Trazado 107473" d="M229.907,171.73s-15.716-8-19.263-12.011-7.5,1.246-8.251,3.951,11.506,7.757,17.253,9.755,9.227,2.761,11,.752S229.907,171.73,229.907,171.73Z" transform="translate(-36.123 -57.802)" fill="#ffbf9d" stroke="#263238" stroke-linecap="round" stroke-linejoin="round" stroke-width="1"/>
      <path id="Trazado_107474" data-name="Trazado 107474" d="M203.986,165.12s-5.276,1.762-6.264,3.963,1.762,3.749,6.735,6.735,13.01,3.951,15,3,2.245-3-.505-3.963S206.242,166.624,203.986,165.12Z" transform="translate(-36.716 -56.962)" fill="#ffbf9d" stroke="#263238" stroke-linecap="round" stroke-linejoin="round" stroke-width="1"/>
      <path id="Trazado_107475" data-name="Trazado 107475" d="M200.157,172.038s-5.747-1.5-7.51,1.751.258,5.276,6.253,7,15.008,3.008,15.267-.258-4.76-3.749-8.98-5.489S200.157,172.038,200.157,172.038Z" transform="translate(-37.388 -56.157)" fill="#ffbf9d" stroke="#263238" stroke-linecap="round" stroke-linejoin="round" stroke-width="1"/>
    </g>
    <g id="freepik--Plants--inject-143" transform="translate(18.99 310.567)">
      <path id="Trazado_107476" data-name="Trazado 107476" d="M80.606,363.154s-2.874-9.362-11.225-12.718c-5.837-2.346-12.55-1.729-18.6-.674-11.225,1.953-21.093,6.432-31.79,10.271,0,0,4.558-1.7,23.27,7.431,6.892,3.368,14.784,5.972,22.664,5.781C71.211,373.123,80.909,371.315,80.606,363.154Z" transform="translate(-18.99 -272.543)" fill="#5e6178"/>
      <path id="Trazado_107477" data-name="Trazado 107477" d="M81.126,339.492s0-9.789-7.117-15.435c-4.917-3.951-11.528-5.265-17.624-6.017-11.36-1.325-22.058.067-33.4.64,0,0,4.849-.292,20.138,13.852,5.613,5.209,12.415,9.979,20.026,12.09C69.25,346.306,79.061,347.395,81.126,339.492Z" transform="translate(-18.5 -276.383)" fill="#5e6178"/>
      <path id="Trazado_107478" data-name="Trazado 107478" d="M92.833,375.858s-7.611-6.152-7.633-15.132c0-6.286,3.02-12.348,6.23-17.545,5.972-9.755,13.762-17.231,21.261-25.751,0,0-3.244,3.615-1.661,24.37.584,7.645.1,15.94-2.975,23.2C105.585,370.829,100.332,379.147,92.833,375.858Z" transform="translate(-10.877 -276.39)" fill="#5e6178"/>
      <path id="Trazado_107479" data-name="Trazado 107479" d="M116.128,385.87s-1.123-9.744,5.265-16.165c4.49-4.49,10.844-6.589,16.838-8.015,11.124-2.638,21.912-2.481,33.25-3.21,0,0-4.849.269-18.455,16.075-5,5.826-11.225,11.349-18.455,14.335C128.723,391.269,119.092,393.47,116.128,385.87Z" transform="translate(-7.096 -271.36)" fill="#5e6178"/>
      <path id="Trazado_107480" data-name="Trazado 107480" d="M116.5,358.582s-9.7-1.313-14.368-9.081c-3.244-5.388-3.716-12.112-3.648-18.253.112-11.45,2.952-21.867,5.007-32.958,0,0-.92,4.76,11.1,21.766,4.412,6.275,8.262,13.628,9.362,21.429C124.883,347.659,124.6,357.538,116.5,358.582Z" transform="translate(-9.25 -278.735)" fill="#5e6178"/>
      <path id="Trazado_107481" data-name="Trazado 107481" d="M139.528,339.346s6.993,6.881,15.974,5.837c6.241-.707,11.865-4.49,16.692-8.239,8.98-7.061,15.513-15.716,23.1-24.123,0,0-3.21,3.637-24.011,4.49-7.667.314-15.817,1.762-22.7,5.669C143.131,326.111,135.386,332.307,139.528,339.346Z" transform="translate(-4.363 -276.955)" fill="#5e6178"/>
      <path id="Trazado_107482" data-name="Trazado 107482" d="M132.78,336.447s9.755.977,16.108-5.456c4.423-4.49,6.466-10.911,7.858-16.838,2.571-11.147,2.245-21.946,2.874-33.283,0,0-.224,4.849-15.9,18.567-5.77,5.063-11.225,11.3-14.133,18.634C127.325,323.931,125.147,333.584,132.78,336.447Z" transform="translate(-5.698 -280.87)" fill="#5e6178"/>
      <path id="Trazado_107483" data-name="Trazado 107483" d="M105.184,424.623l-16.827-41.4L68.96,335.37" transform="translate(-12.867 -274.192)" fill="none" stroke="#263238" stroke-linecap="round" stroke-linejoin="round" stroke-width="1"/>
      <path id="Trazado_107484" data-name="Trazado 107484" d="M104.68,418.707,121.5,361.132l18.1-35.562" transform="translate(-8.49 -275.392)" fill="none" stroke="#263238" stroke-linecap="round" stroke-linejoin="round" stroke-width="1"/>
      <line id="Línea_321" data-name="Línea 321" y1="9.699" x2="16.816" transform="translate(102.656 110.974)" fill="none" stroke="#263238" stroke-linecap="round" stroke-linejoin="round" stroke-width="1"/>
      <line id="Línea_322" data-name="Línea 322" x1="8.408" y1="18.758" transform="translate(104.598 66.993)" fill="none" stroke="#263238" stroke-linecap="round" stroke-linejoin="round" stroke-width="1"/>
      <line id="Línea_323" data-name="Línea 323" y1="9.149" x2="20.531" transform="translate(123.524 57.934)" fill="none" stroke="#263238" stroke-linecap="round" stroke-linejoin="round" stroke-width="1"/>
      <line id="Línea_324" data-name="Línea 324" y1="28.456" x2="7.117" transform="translate(78.724 88.333)" fill="none" stroke="#263238" stroke-linecap="round" stroke-linejoin="round" stroke-width="1"/>
      <line id="Línea_325" data-name="Línea 325" x1="16.434" y1="8.767" transform="translate(52.86 86.391)" fill="none" stroke="#263238" stroke-linecap="round" stroke-linejoin="round" stroke-width="1"/>
      <path id="Trazado_107485" data-name="Trazado 107485" d="M120.189,437.052H89.87l-6.5-34.282h43.319Z" transform="translate(-11.101 -265.932)" fill="#344154" stroke="#263238" stroke-linecap="round" stroke-linejoin="round" stroke-width="1"/>
    </g>
  </g>
</svg>
